<svg xmlns="http://www.w3.org/2000/svg" viewBox="0 0 176.3 176.3"><style type="text/css">  
	.st0{opacity:0.3;}
	.st1{fill:#FFFFFF;}
</style><circle class="st0" cx="88.2" cy="88.2" r="88.2"/><path class="st1" d="M88.3 41.6c-26.5 0-47.8 21.4-47.8 47.8 0 21.1 13.7 38.9 32.9 45.3 2.6 0.3 3.2-1 3.2-2.2v-8.3c-13.4 2.9-16.3-6.4-16.3-6.4 -2.2-5.4-5.4-7-5.4-7 -4.5-2.9 0.3-2.9 0.3-2.9 4.8 0.3 7.3 4.8 7.3 4.8 4.1 7.3 11.2 5.1 14 3.8 0.3-3.2 1.6-5.1 3.2-6.4C69.2 108.9 58 104.7 58 86.5c0-5.1 1.9-9.6 4.8-12.8 -0.6-1.3-2.2-6.1 0.3-12.8 0 0 4.1-1.3 13.1 4.8 3.8-1 8-1.6 12.1-1.6 4.1 0 8.3 0.6 12.1 1.6 9.3-6.1 13.1-4.8 13.1-4.8 2.6 6.7 1 11.5 0.3 12.8 3.2 3.2 4.8 7.7 4.8 12.8 0 18.5-11.2 22.3-21.7 23.6 1.6 1.6 3.2 4.5 3.2 8.9v13.1c0 1.3 1 2.9 3.2 2.2 19.1-6.4 32.5-24.2 32.5-45.3C136.2 62.9 114.8 41.6 88.3 41.6z"/></svg>