<?xml version="1.0" encoding="UTF-8"?>
<svg width="50px" height="50px" viewBox="0 0 50 50" version="1.1" xmlns="http://www.w3.org/2000/svg" xmlns:xlink="http://www.w3.org/1999/xlink">
    <!-- Generator: Sketch 49.3 (51167) - http://www.bohemiancoding.com/sketch -->
    <title>Upwork</title>
    <desc>Created with Sketch.</desc>
    <defs></defs>
    <g id="Upwork" stroke="none" stroke-width="1" fill="none" fill-rule="evenodd">
        <circle id="Oval" fill-opacity="0.3" fill="#000000" cx="25" cy="25" r="25"></circle>
        <path d="M34.9373112,26.8651685 C33.3449144,26.8651685 31.8532226,26.2131023 30.5,25.1527328 L30.827291,23.6474957 L30.8398792,23.5865549 C31.1356999,21.9899067 32.0609265,19.3146067 34.9373112,19.3146067 C37.0835851,19.3146067 38.8333333,21.0087602 38.8333333,23.0868406 C38.8333333,25.1771091 37.0835851,26.8651685 34.9373112,26.8651685 Z M35.0631024,17.1538462 C31.3587925,17.1538462 28.4882706,19.48 27.3235134,23.3076923 C25.5413712,20.7230769 24.1920349,17.6153846 23.4028005,15 L19.4120749,15 L19.4120749,25.0307692 C19.4120749,27.0123077 17.744499,28.6184615 15.7014003,28.6184615 C13.6519367,28.6184615 11.9907256,27.0061538 11.9907256,25.0307692 L11.9907256,15 L8,15 L8,25.0307692 C8,29.1353846 11.4560829,32.5076923 15.7014003,32.5076923 C19.9467176,32.5076923 23.4028005,29.1353846 23.4028005,25.0307692 L23.4028005,23.3569231 C24.1729405,24.9138462 25.1276596,26.4953846 26.2796872,27.8984615 L23.8419713,39 L27.921804,39 L29.6912166,30.9507692 C31.2378614,31.9107692 33.0200036,32.52 35.0694672,32.52 C39.4420804,32.52 43,29.0615385 43,24.8338462 C42.9936352,20.5938462 39.4357156,17.1538462 35.0631024,17.1538462 Z" id="path22" fill="#FFFFFF" fill-rule="nonzero"></path>
    </g>
</svg>