<?xml version="1.0" encoding="UTF-8"?>
<svg width="600px" height="600px" viewBox="0 0 600 600" version="1.1" xmlns="http://www.w3.org/2000/svg" xmlns:xlink="http://www.w3.org/1999/xlink">
    <!-- Generator: Sketch 49.3 (51167) - http://www.bohemiancoding.com/sketch -->
    <title>css3-icon</title>
    <desc>Created with Sketch.</desc>
    <defs></defs>
    <g id="css3-icon" stroke="none" stroke-width="1" fill="none" fill-rule="evenodd">
        <rect id="Rectangle" x="0" y="0" width="600" height="600"></rect>
        <g id="css-3" transform="translate(103.000000, 76.000000)" fill="#FFFFFF" fill-rule="nonzero">
            <path d="M379.497851,0 L14.9342845,0 C6.20161359,0 -0.350029724,7.38962208 0.420416136,16.1213418 L33.718896,389.269197 C34.490293,397.994259 42.0368577,407.12642 50.5012994,409.484365 L181.768153,445.94738 C190.22118,448.290106 204.037843,448.305325 212.503236,445.977817 L343.932739,409.566166 C352.399083,407.214879 359.945648,398.165469 360.716093,389.425189 L394.028841,16.1213418 C394.799287,7.38962208 388.275227,0 379.497851,0 Z M316.272781,134.695813 C316.267074,134.752883 316.222369,134.797588 316.166251,134.8071 C316.10918,134.816611 316.054013,134.787125 316.029282,134.73386 L213.185223,176.879151 C211.720425,177.479338 210.885299,179.032594 211.189673,180.585851 C211.495949,182.139108 212.858021,183.259584 214.441715,183.259584 L294.437775,183.259584 C298.693299,183.259584 302.747176,185.066803 305.59307,188.231338 C308.438013,191.395873 309.805792,195.620008 309.353987,199.850803 L296.854692,317.104102 C296.241189,322.856764 292.375643,327.743864 286.917843,329.664272 L202.008051,359.54045 C198.810225,360.666633 195.324195,360.675193 192.11876,359.564229 L107.605605,330.289189 C102.114514,328.386854 98.2166285,323.485486 97.5993206,317.707142 L91.9332144,264.60535 C91.6354989,261.817478 92.5362548,259.034361 94.4100552,256.950352 C96.2848068,254.865393 98.9556858,253.674531 101.759728,253.674531 L125.27735,253.674531 C130.330904,253.674531 134.569308,257.48586 135.103864,262.509928 L138.580382,295.1502 L197.097172,315.490921 L255.882191,294.964722 L263.072068,227.270115 L96.8621656,227.270115 C91.8238301,227.270115 87.5920849,223.479711 87.0394565,218.471813 L83.8749214,189.78079 C83.3917282,185.404467 85.8609597,181.237401 89.9300552,179.560493 L196.3058,135.7031 C197.512832,135.205639 198.198624,133.926318 197.945614,132.646047 C197.691652,131.366726 196.570225,130.445045 195.266174,130.445045 L83.2671253,130.445045 C79.8952357,130.445045 77.067414,127.898769 76.715482,124.546854 L73.4758047,93.7090446 C73.2808153,91.8533163 73.8829045,90.0013928 75.1317877,88.6136391 C76.3806709,87.2268365 78.1603057,86.4345138 80.0264968,86.4345138 L314.374251,86.4345138 C316.250904,86.4345138 318.038149,87.235397 319.287983,88.6345648 C320.537817,90.0346837 321.131346,91.9008747 320.919236,93.7651635 L316.272781,134.695813 Z" id="Shape"></path>
        </g>
    </g>
</svg>