<?xml version="1.0" encoding="UTF-8"?>
<svg width="600px" height="600px" viewBox="0 0 600 600" version="1.1" xmlns="http://www.w3.org/2000/svg" xmlns:xlink="http://www.w3.org/1999/xlink">
    <!-- Generator: Sketch 49.3 (51167) - http://www.bohemiancoding.com/sketch -->
    <title>html5-icon</title>
    <desc>Created with Sketch.</desc>
    <defs></defs>
    <g id="html5-icon" stroke="none" stroke-width="1" fill="none" fill-rule="evenodd">
        <rect id="Rectangle" x="0" y="0" width="600" height="600"></rect>
        <g id="html5" transform="translate(103.000000, 76.000000)" fill="#FFFFFF" fill-rule="nonzero">
            <path d="M6.98485333,0 C2.87818667,0 -0.181653333,3.34656 0.18272,7.4368 L34.80416,395.773653 C35.1685333,399.863893 38.7032533,404.10944 42.66208,405.208533 L189.577707,446.000427 C193.53504,447.09952 200.010133,447.09952 203.96896,446.003413 L351.331093,405.14432 C355.288427,404.04672 358.827627,399.801173 359.192,395.712427 L393.870187,7.4368 C394.237547,3.34656 391.17472,0 387.068053,0 L6.98485333,0 Z M320.13984,89.0638933 C319.8128,92.7121067 319.246827,99.0453333 318.882453,103.135573 L317.970027,113.324587 C317.602667,117.413333 317.08,123.261227 316.803733,126.31808 C316.52896,129.376427 316.267627,131.87776 316.21984,131.87776 C316.173547,131.87776 312.77472,131.87776 308.668053,131.87776 L204.49312,131.87776 C200.386453,131.87776 196.992107,131.87776 196.947307,131.87776 C196.902507,131.87776 193.505173,131.87776 189.398507,131.87776 L134.53344,131.87776 C130.426773,131.87776 127.366933,135.22432 127.731307,139.31456 L130.93152,175.08736 C131.295893,179.176107 134.956053,182.52416 139.06272,182.52416 L189.4,182.52416 C193.506667,182.52416 196.904,182.52416 196.9488,182.52416 C196.9936,182.52416 200.387947,182.52416 204.494613,182.52416 L291.016853,182.52416 C295.12352,182.52416 301.479147,182.52416 305.139307,182.52416 C308.79648,182.52416 311.52032,185.509333 311.1888,189.157547 C310.855787,192.80576 310.286827,199.14048 309.922453,203.229227 L299.631893,318.556373 C299.264533,322.646613 298.800107,327.871787 298.6,330.168533 C298.395413,332.463787 294.992107,335.239893 291.034773,336.337493 L204.222827,360.408533 C200.265493,361.50464 196.977173,362.412587 196.915947,362.426027 C196.85472,362.439467 193.567893,361.550933 189.609067,360.453333 L102.704533,336.338987 C98.7472,335.241387 95.2109867,330.99584 94.8466133,326.9056 L89.2525867,264.1184 C88.8882133,260.02816 91.95104,256.6816 96.0577067,256.6816 L103.9888,256.6816 C108.095467,256.6816 114.815467,256.6816 118.922133,256.6816 L130.749333,256.6816 C134.856,256.6816 138.513173,260.02816 138.880533,264.1184 L141.07424,288.697173 C141.438613,292.787413 144.979307,297.009067 148.9456,298.079787 L189.595627,309.05728 C193.558933,310.128 196.817387,311.004587 196.835307,311.004587 C196.853227,311.004587 200.110187,310.126507 204.074987,309.055787 L244.798187,298.051413 C248.761493,296.980693 252.305173,292.757547 252.672533,288.6688 L257.08832,239.42464 C257.45568,235.3344 254.39584,231.98784 250.289173,231.98784 L204.494613,231.98784 C200.387947,231.98784 196.9936,231.98784 196.9488,231.98784 C196.904,231.98784 193.506667,231.98784 189.4,231.98784 L93.8430933,231.98784 C89.7364267,231.98784 86.0792533,228.639787 85.71488,224.55104 L74.8792533,103.13408 C74.51488,99.04384 73.9489067,92.7121067 73.6218667,89.0624 C73.2978133,85.4141867 76.3905067,82.4290133 80.4971733,82.4290133 L189.4,82.4290133 C193.506667,82.4290133 196.904,82.4290133 196.9488,82.4290133 C196.9936,82.4290133 200.387947,82.4290133 204.494613,82.4290133 L313.266027,82.4290133 C317.3712,82.4290133 320.465387,85.4141867 320.13984,89.0638933 Z" id="XMLID_107_"></path>
        </g>
    </g>
</svg>