<?xml version="1.0" encoding="UTF-8"?>
<svg width="600px" height="600px" viewBox="0 0 600 600" version="1.1" xmlns="http://www.w3.org/2000/svg" xmlns:xlink="http://www.w3.org/1999/xlink">
    <!-- Generator: Sketch 49.3 (51167) - http://www.bohemiancoding.com/sketch -->
    <title>js-icon</title>
    <desc>Created with Sketch.</desc>
    <defs></defs>
    <g id="js-icon" stroke="none" stroke-width="1" fill="none" fill-rule="evenodd">
        <rect id="Rectangle" x="0" y="0" width="600" height="600"></rect>
        <g id="js" transform="translate(76.000000, 76.000000)" fill="#FFFFFF" fill-rule="nonzero">
            <path d="M440.533625,0 L7.466375,0 C3.33725,0 0,3.345125 0,7.466375 L0,440.53275 C0,444.654875 3.33725,448 7.466375,448 L440.53275,448 C444.661875,448 447.999125,444.654875 447.999125,440.533625 L447.999125,7.466375 C448,3.345125 444.66275,0 440.533625,0 Z M253.866375,343.466375 C253.866375,380.515625 223.7235,410.666375 186.666375,410.666375 C149.60925,410.666375 119.466375,380.515625 119.466375,343.466375 C119.466375,339.345125 122.803625,336 126.93275,336 C131.061875,336 134.399125,339.345125 134.399125,343.466375 C134.399125,372.288 157.85175,395.73275 186.6655,395.73275 C215.47925,395.73275 238.931875,372.287125 238.931875,343.466375 L238.931875,164.266375 C238.931875,160.145125 242.269125,156.8 246.39825,156.8 C250.527375,156.8 253.864625,160.145125 253.864625,164.266375 L253.864625,343.466375 L253.866375,343.466375 Z M343.466375,276.266375 C380.5235,276.266375 410.666375,306.417125 410.666375,343.466375 C410.666375,380.515625 380.5235,410.666375 343.466375,410.666375 C306.40925,410.666375 276.266375,380.515625 276.266375,343.466375 C276.266375,339.345125 279.603625,336 283.73275,336 C287.861875,336 291.199125,339.345125 291.199125,343.466375 C291.199125,372.288 314.65175,395.73275 343.4655,395.73275 C372.27925,395.73275 395.731875,372.287125 395.731875,343.466375 C395.731875,314.64475 372.27925,291.2 343.4655,291.2 C306.408375,291.2 276.2655,261.04925 276.2655,224 C276.2655,186.95075 306.408375,156.8 343.4655,156.8 C380.522625,156.8 410.6655,186.95075 410.6655,224 C410.6655,228.12125 407.32825,231.466375 403.199125,231.466375 C399.07,231.466375 395.73275,228.12125 395.73275,224 C395.73275,195.178375 372.280125,171.733625 343.466375,171.733625 C314.652625,171.733625 291.2,195.17925 291.2,224 C291.2,252.82075 314.652625,276.266375 343.466375,276.266375 Z" id="Shape"></path>
        </g>
    </g>
</svg>