<?xml version="1.0" encoding="UTF-8"?>
<svg width="600px" height="600px" viewBox="0 0 600 600" version="1.1" xmlns="http://www.w3.org/2000/svg" xmlns:xlink="http://www.w3.org/1999/xlink">
    <!-- Generator: Sketch 49.3 (51167) - http://www.bohemiancoding.com/sketch -->
    <title>photoshop-icon</title>
    <desc>Created with Sketch.</desc>
    <defs></defs>
    <g id="photoshop-icon" stroke="none" stroke-width="1" fill="none" fill-rule="evenodd">
        <rect id="Rectangle" x="0" y="0" width="600" height="600"></rect>
        <g id="photoshop" transform="translate(76.000000, 76.000000)" fill="#FFFFFF" fill-rule="nonzero">
            <path d="M151.873716,127.702085 C140.544065,127.702085 132.854257,128.804291 128.855557,129.93213 L128.855557,202.754616 C133.623238,203.831189 139.44186,204.190046 147.490526,204.190046 C177.147554,204.190046 195.449298,189.19492 195.449298,163.921083 C195.423665,141.261781 179.68519,127.702085 151.873716,127.702085 Z" id="Shape"></path>
            <path d="M420.376194,0.0512653895 L27.4269834,0.0512653895 C12.2780608,0.0512653895 0,12.3036935 0,27.4013507 L0,420.324929 C0,435.448219 12.2780608,447.726279 27.4269834,447.726279 L420.376194,447.726279 C435.499484,447.726279 447.777545,435.448219 447.777545,420.324929 L447.777545,27.4269834 C447.777545,12.3036935 435.499484,0.0512653895 420.376194,0.0512653895 Z M227.977187,221.05636 C208.98336,238.999246 180.761763,247.047912 147.875016,247.047912 C140.518433,247.047912 133.956463,246.689054 128.829924,245.945706 L128.829924,334.173442 L73.5402013,334.173442 L73.5402013,90.7653722 C90.7397395,87.8688777 114.885738,85.6644659 148.951589,85.6644659 C183.325033,85.6644659 207.881155,92.2264358 224.311712,105.427274 C240.127085,117.884763 250.713387,138.390919 250.713387,162.536917 C250.713387,186.682916 242.639089,207.112174 227.977187,221.05636 Z M311.309078,337.813284 C287.82953,337.813284 266.990149,332.738011 253.430453,325.381427 L263.299041,285.496954 C273.552119,291.674434 294.801622,299.005384 311.309078,299.005384 C328.098493,299.005384 335.070586,293.16113 335.070586,283.984625 C335.070586,274.859386 329.585189,270.476195 308.745808,263.504102 C271.783463,251.072245 257.480419,230.924947 257.839277,209.701076 C257.839277,176.429838 286.394099,151.104736 330.687395,151.104736 C351.552409,151.104736 370.21301,155.89805 381.183804,161.357814 L371.315216,199.806856 C363.26655,195.398032 347.912566,189.57941 332.507316,189.57941 C318.998886,189.57941 311.334711,195.064807 311.334711,204.215679 C311.334711,212.623203 318.229905,217.006394 340.197125,224.721835 C374.237344,236.410344 388.540387,253.635515 388.873612,279.93466 C388.873612,313.282795 362.471937,337.813284 311.309078,337.813284 Z" id="Shape"></path>
        </g>
    </g>
</svg>