<?xml version="1.0" encoding="UTF-8"?>
<svg width="600px" height="600px" viewBox="0 0 600 600" version="1.1" xmlns="http://www.w3.org/2000/svg" xmlns:xlink="http://www.w3.org/1999/xlink">
    <!-- Generator: Sketch 49.3 (51167) - http://www.bohemiancoding.com/sketch -->
    <title>php-icon</title>
    <desc>Created with Sketch.</desc>
    <defs></defs>
    <g id="php-icon" stroke="none" stroke-width="1" fill="none" fill-rule="evenodd">
        <rect id="Rectangle" x="0" y="0" width="600" height="600"></rect>
        <g id="php" transform="translate(76.000000, 198.000000)">
            <path d="M224,203.702583 C165.642427,203.702583 111.789049,192.82934 71.5205631,175.470019 L79.6954757,142.809379 L115.296117,142.809379 C142.134796,142.809379 165.426447,124.622291 171.947728,98.5761748 L173.722194,91.4307379 C176.764951,79.2996699 174.088505,66.6833592 166.397883,56.8310291 C158.696796,46.9701359 147.120427,41.3203883 134.612583,41.3203883 L92.0644078,41.3203883 C87.4060777,41.3203883 83.3528738,44.4915922 82.2225437,49.0110097 L52.8415728,166.535845 C20.4673204,148.883476 0.724601942,126.376777 0.724601942,102.213592 C0.724601942,47.197534 102.97666,0.724601942 224,0.724601942 C345.02334,0.724601942 447.275398,47.197534 447.275398,102.213592 C447.275398,157.22965 345.02334,203.702583 224,203.702583 Z M368.036214,41.3203883 L325.488039,41.3203883 C320.829709,41.3203883 316.776505,44.4915922 315.646175,49.0110097 L295.398233,129.974233 C295.358272,130.12266 295.328777,130.261573 295.288816,130.400485 L285.199573,170.797417 C283.831379,176.22833 287.142447,181.739165 292.582874,183.096893 C293.405883,183.305262 294.238408,183.404214 295.050951,183.404214 C299.599864,183.404214 303.73299,180.331961 304.88235,175.713592 L313.118155,142.809379 L348.718796,142.809379 C375.557476,142.809379 398.849126,124.622291 405.370408,98.5761748 L407.144874,91.4307379 C410.187631,79.2996699 407.511184,66.6833592 399.820563,56.8310291 C392.120427,46.9701359 380.544058,41.3203883 368.036214,41.3203883 Z M278.708738,53.709301 C272.295922,45.8398058 262.80134,41.3203883 252.642641,41.3203883 L220.470097,41.3203883 L223.831592,22.8364466 C224.84299,17.3256117 221.185592,12.0431262 215.665243,11.0421942 C210.184854,10.0307961 204.862408,13.6881942 203.87099,19.2085437 L183.572621,130.846718 C182.561223,136.357553 186.218621,141.640039 191.738971,142.640971 C192.353612,142.759903 192.957786,142.809379 193.562913,142.809379 C198.380136,142.809379 202.651223,139.38033 203.533223,134.474621 L216.779398,61.6187573 L252.642641,61.6187573 C256.66635,61.6187573 260.422699,63.4027379 262.960233,66.524466 C265.497767,69.6461942 266.488233,73.6898835 265.666175,77.6346214 L254.654971,130.59934 C253.515126,136.079728 257.043126,141.45165 262.533981,142.601961 C263.227592,142.740874 263.921204,142.81033 264.605301,142.81033 C269.313107,142.81033 273.534718,139.520194 274.536602,134.722951 L285.547806,81.758233 C287.60866,71.816466 285.111087,61.5883107 278.708738,53.709301 Z" id="Combined-Shape" fill="#FFFFFF" fill-rule="nonzero"></path>
            <path d="M84.7705437,122.51101 L99.9938447,61.6178058 L134.612583,61.6178058 C140.817029,61.6178058 146.575243,64.422699 150.390583,69.3188932 C154.216388,74.2150874 155.544621,80.4785243 154.028,86.5145631 L152.253534,93.66 C148.001476,110.647301 132.80767,122.51101 115.295165,122.51101 L84.7705437,122.51101 Z" id="SVGCleanerId_0" fill="#FFFFFF" fill-rule="nonzero"></path>
            <path d="M84.7705437,122.51101 L99.9938447,61.6178058 L134.612583,61.6178058 C140.817029,61.6178058 146.575243,64.422699 150.390583,69.3188932 C154.216388,74.2150874 155.544621,80.4785243 154.028,86.5145631 L152.253534,93.66 C148.001476,110.647301 132.80767,122.51101 115.295165,122.51101 L84.7705437,122.51101 Z" id="SVGCleanerId_0_1_" fill-rule="nonzero"></path>
            <path d="M387.452583,86.5145631 L385.678117,93.66 C381.426058,110.647301 366.232252,122.51101 348.719748,122.51101 L318.194175,122.51101 L333.417476,61.6178058 L368.036214,61.6178058 C374.24066,61.6178058 379.998874,64.422699 383.814214,69.3188932 C387.640971,74.2150874 388.968252,80.4785243 387.452583,86.5145631 Z" id="Path" fill="#FFFFFF"></path>
        </g>
    </g>
</svg>