<svg width="600" height="600" viewBox="0 0 600 600" version="1" xmlns="http://www.w3.org/2000/svg"><g fill="#FFF" fill-rule="evenodd"><path d="M493 206c65 22 107 57 107 93 0 38-45 75-114 98l-11 3 4 16c13 69 3 125-29 144-31 18-82 0-133-44l-16-15-12 12c-53 46-107 65-139 46-31-18-41-70-29-136l5-21-16-6C44 374 0 337 0 299c0-36 41-70 104-92l22-7-4-20c-13-67-4-121 27-139 33-19 87 1 141 49l10 9 15-13c52-45 103-64 134-46 33 19 43 76 28 147l-3 13 19 6zm-15 166c60-19 96-49 96-73 0-21-34-50-89-69l-18-5c-7 24-17 49-29 75 12 26 23 52 30 76l10-4zm-24 49l-4-14c-24 5-52 10-81 12-16 24-33 46-50 64l15 14c44 37 84 51 103 41 9-6 16-18 20-38 4-21 3-49-3-79zM205 536a217 217 0 0 0 78-53c-17-19-35-40-51-63-29-3-57-7-81-12l-4 20c-11 56-3 98 16 109 8 5 23 5 42-1zm-87-164l15 5c8-25 18-51 30-77-12-26-22-51-30-76l-20 7c-55 19-87 47-87 68 0 11 7 23 22 36 17 14 41 27 70 37zm29-197l4 18c25-5 52-9 80-12 17-23 34-45 51-63l-9-9c-46-41-91-58-111-46-19 11-26 54-15 112zm259 64l17 31c8-18 14-35 19-52-17-4-35-7-54-9l18 30zM300 136c-12 13-24 27-35 43 23-2 47-2 71 0-12-16-24-30-36-43zM194 239l19-30c-19 2-38 5-55 9 5 17 12 34 19 52l17-31zm19 153a757 757 0 0 1-36-62c-7 18-14 36-19 53 17 4 35 7 55 9zm88 73c12-13 24-28 35-44a812 812 0 0 1-71 1l36 43zm122-136a814 814 0 0 1-35 63l55-10c-5-17-12-34-20-53zm-39 19l25-48a840 840 0 0 0-54-95 721 721 0 0 0-110 0l-29 47-25 48a720 720 0 0 0 55 95 841 841 0 0 0 109 0l29-47zm53-286c-19-11-61 5-105 43l-14 13c17 18 34 39 51 63 28 3 55 7 80 13l3-12c12-62 5-108-15-120z"/><path d="M300 246a54 54 0 1 1 0 107 54 54 0 0 1 0-107"/></g></svg>