<?xml version="1.0" encoding="UTF-8"?>
<svg width="600px" height="600px" viewBox="0 0 600 600" version="1.1" xmlns="http://www.w3.org/2000/svg" xmlns:xlink="http://www.w3.org/1999/xlink">
    <!-- Generator: Sketch 49.3 (51167) - http://www.bohemiancoding.com/sketch -->
    <title>woocommerce-icon</title>
    <desc>Created with Sketch.</desc>
    <defs></defs>
    <g id="woocommerce-icon" stroke="none" stroke-width="1" fill="none" fill-rule="evenodd">
        <rect id="Rectangle" x="0" y="0" width="600" height="600"></rect>
        <g id="woocommerce" transform="translate(76.000000, 167.000000)" fill="#FFFFFF" fill-rule="nonzero">
            <path d="M406.748389,0.518 C429.834146,0.518 448.550466,19.2313878 448.549,42.3186105 L448.549,179.524226 C448.549,202.609983 429.835612,221.324837 406.748389,221.324837 L277.279067,221.324837 L292.628531,265.979287 L215.769816,221.324837 L42.3496105,221.324837 C19.2653194,221.324837 0.549,202.611449 0.549,179.524226 L0.549,42.3186105 C0.549,19.2328536 19.2623878,0.518 42.3496105,0.518 L406.748389,0.518 Z M65.7006704,200.465573 C70.6549471,200.465573 75.3116741,198.074914 78.2021574,194.044068 C88.1473549,180.145709 105.862559,146.163475 119.338778,119.342956 C119.788767,120.739827 120.250482,122.154288 120.725389,123.583406 C131.717141,156.623155 144.272861,180.359711 158.04663,194.133479 C162.385286,198.472136 168.885942,199.814774 174.589223,197.551637 C180.291039,195.289966 184.102021,189.853453 184.283776,183.720704 C184.313091,182.767958 187.348685,88.0885055 207.623109,46.5253484 C211.346146,38.8945897 208.177168,29.6910679 200.546409,25.9680316 C192.91565,22.2449952 183.710662,25.4139734 179.989092,33.0447322 C167.238425,59.183672 160.550152,100.711651 157.093884,133.434795 C147.723265,110.419395 141.127335,85.0617062 138.581306,72.8841527 C137.235736,66.4333326 131.931142,61.5567413 125.387979,60.7608323 C118.841884,59.9649234 112.524448,63.427054 109.672075,69.366323 C101.883014,85.5908464 84.1883309,121.516681 69.6919413,148.231666 C67.3115432,138.264482 64.4459778,124.86888 61.0952451,106.911825 C55.2952235,75.8244719 50.9360463,46.6015681 50.8935392,46.3098814 C49.6447097,37.9095974 41.8204703,32.1125073 33.4275151,33.3628026 C25.0286969,34.6116321 19.2316068,42.4300085 20.4804363,50.8288267 C20.5244092,51.1263764 24.9832583,81.0337913 30.9151985,112.790998 C41.9817042,172.041509 48.5248673,187.17404 52.9881136,193.737724 C55.8141034,197.89316 60.491351,200.404011 65.5159844,200.464107 C65.5775464,200.465573 65.6376426,200.465573 65.7006704,200.465573 Z M304.357561,70.729482 C297.955111,57.7267043 286.958962,48.7357181 272.593025,44.7385841 C256.205802,40.1903236 238.453954,46.2395248 225.099394,60.9425869 C209.247174,78.3558435 197.683775,110.993974 212.754743,150.324775 C223.078107,177.280144 239.312891,182.227092 249.803352,182.227092 C250.936387,182.227092 251.993201,182.16553 252.973796,182.074653 C280.893637,179.424554 304.342903,142.482946 308.860383,117.151641 C312.107046,99.0025719 310.591448,83.3804768 304.357561,70.729482 Z M278.596788,111.744444 C277.172067,119.662492 272.225119,130.138296 265.961916,138.42425 C259.528685,146.954987 253.218579,151.167588 250.078916,151.457809 C248.16463,151.641029 244.611622,147.536895 241.471959,139.32716 C235.161852,122.878375 233.048223,97.8827294 247.843628,81.6171647 C252.254107,76.7625598 257.385741,74.0201185 261.79622,74.0201185 C262.684472,74.0201185 263.541943,74.1271191 264.353975,74.3572438 C280.817418,78.9377511 281.183858,97.2099445 278.596788,111.744444 Z M418.566831,70.729482 C415.350949,64.2361548 411.000566,58.7219569 405.671054,54.3569166 C400.310761,49.9918764 393.969873,46.7452128 386.786172,44.7385841 C370.413607,40.1903236 352.663225,46.2395248 339.292541,60.9425869 C323.456444,78.3558435 311.893045,110.993974 326.94789,150.324775 C337.271254,177.280144 353.506038,182.227092 363.996499,182.227092 C365.129533,182.227092 366.202472,182.16553 367.181601,182.074653 C395.086784,179.424554 418.534584,142.482946 423.05353,117.151641 C426.301659,99.0025719 424.784595,83.3804768 418.566831,70.729482 Z M392.789935,111.744444 C391.381337,119.662492 386.418266,130.138296 380.169721,138.42425 C373.721832,146.954987 367.411725,151.167588 364.272063,151.457809 C362.372435,151.641029 358.804769,147.536895 355.665106,139.32716 C349.369657,122.878375 347.257493,97.8827294 362.036775,81.6171647 C366.463377,76.7625598 371.593545,74.0201185 375.989367,74.0201185 C376.877619,74.0201185 377.73509,74.1271191 378.56178,74.3572438 C395.026688,78.9377511 395.378471,97.2099445 392.789935,111.744444 Z" id="Combined-Shape"></path>
        </g>
    </g>
</svg>