<?xml version="1.0" encoding="UTF-8"?>
<svg width="600px" height="600px" viewBox="0 0 600 600" version="1.1" xmlns="http://www.w3.org/2000/svg" xmlns:xlink="http://www.w3.org/1999/xlink">
    <!-- Generator: Sketch 49.3 (51167) - http://www.bohemiancoding.com/sketch -->
    <title>wordpress-icon</title>
    <desc>Created with Sketch.</desc>
    <defs></defs>
    <g id="wordpress-icon" stroke="none" stroke-width="1" fill="none" fill-rule="evenodd">
        <rect id="Rectangle" x="0" y="0" width="600" height="600"></rect>
        <g id="wordpress" transform="translate(76.000000, 76.000000)" fill="#FFFFFF" fill-rule="nonzero">
            <path d="M134.289,138.16 L109.567,138.16 L176.966,328.681 L214.698,220.856 L185.444,138.16 L159.36,138.16 L159.36,120.006 L274.868,120.006 L274.868,138.16 L247.819,138.16 L315.217,328.681 L339.444,259.447 C371.225,170.745 313.396,143.114 313.396,123.318 C313.396,103.522 329.444,87.475 349.239,87.475 C350.31,87.475 351.35,87.533 352.369,87.628 C318.828,55.965 273.601,36.548 223.835,36.548 C158.808,36.548 101.529,69.694 67.951,120.006 L134.287,120.006 L134.287,138.16 L134.289,138.16 Z" id="Shape"></path>
            <path d="M36.548,223.837 C36.548,295.541 76.85,357.823 136.031,389.295 L51.511,150.376 C41.883,172.932 36.548,197.761 36.548,223.837 Z" id="Shape"></path>
            <path d="M386.833,131.547 C389.512,147.321 388.701,165.05 384.59,182.848 L385.335,182.848 L382.503,190.94 C380.825,196.783 378.712,202.76 376.312,208.633 L311.868,389.174 C370.925,357.664 411.124,295.449 411.124,223.836 C411.124,190.279 402.29,158.788 386.833,131.547 Z" id="Shape"></path>
            <path d="M166.075,402.033 C184.27,407.927 203.678,411.124 223.837,411.124 C243.065,411.124 261.614,408.222 279.076,402.839 L224.292,247.977 L166.075,402.033 Z" id="Shape"></path>
            <path d="M382.113,65.56 C339.836,23.283 283.625,0 223.836,0 C164.047,0 107.837,23.283 65.56,65.56 C23.283,107.837 0,164.047 0,223.837 C0,283.626 23.283,339.836 65.56,382.113 C107.837,424.39 164.048,447.673 223.837,447.673 C283.626,447.673 339.836,424.39 382.114,382.113 C424.391,339.836 447.674,283.625 447.674,223.837 C447.673,164.047 424.39,107.837 382.113,65.56 Z M223.836,431.883 C109.119,431.883 15.79,338.554 15.79,223.837 C15.79,109.12 109.119,15.79 223.836,15.79 C338.553,15.79 431.882,109.12 431.882,223.837 C431.882,338.554 338.554,431.883 223.836,431.883 Z" id="Shape"></path>
        </g>
    </g>
</svg>