<svg><defs><font id="ProximaNovaCond-Regular" horiz-adv-x="465"><font-face font-family="Proxima Nova Cn Rg" font-weight="400" panose-1="2 0 5 6 3 0 0 2 0 4" ascent="790" descent="-210" x-height="483" cap-height="667" bbox="-136 -271 932 889" underline-thickness="20" underline-position="-113" unicode-range="U+000D-FB04"/><glyph glyph-name="f_f_j" unicode="ffj" horiz-adv-x="710" d="M409 0h-72v420h-64v63h64v59q0 63 32.5 99t85.5 36q37 0 62-15l-18-56q-13 10-32 10-28 0-43-19.5T409 542v-59h82v-63h-82V0zm199 553q-20 0-34.5 14.5T559 602t14.5 34.5T608 651t34.5-14.5T657 602t-14.5-34.5T608 553zm-84-749q-51 0-82 34l26 53q21-26 49-26 56 0 56 76v542h71V-59q0-137-120-137zM155 0H83v420H19v63h64v59q0 63 32.5 99t88.5 36q53 0 86-32l-28-51q-20 22-47 22-60 0-60-74v-59h82v-63h-82V0z"/><glyph glyph-name="f_j" unicode="fj" horiz-adv-x="457" d="M155 0H83v420H19v63h64v59q0 63 32.5 99t85.5 36q37 0 62-15l-18-56q-13 10-32 10-28 0-43-19.5T155 542v-59h82v-63h-82V0zm200 553q-20 0-34.5 14.5T306 602t14.5 34.5T355 651t34.5-14.5T404 602t-14.5-34.5T355 553zm-84-749q-51 0-82 34l26 53q21-26 49-26 56 0 56 76v542h71V-59q0-137-120-137z"/><glyph glyph-name="f_f" unicode="ff" horiz-adv-x="507" d="M155 0H83v420H19v63h64v59q0 63 32.5 99t88.5 36q53 0 86-32l-28-51q-20 22-47 22-60 0-60-74v-59h82v-63h-82V0zm254 0h-72v420h-64v63h64v59q0 63 32.5 99t88.5 36q53 0 86-32l-28-51q-20 22-47 22-60 0-60-74v-59h82v-63h-82V0z"/><glyph glyph-name="fi" unicode="fi" horiz-adv-x="457" d="M155 0H83v420H19v63h64v59q0 63 32.5 99t85.5 36q37 0 62-15l-18-56q-13 10-32 10-28 0-43-19.5T155 542v-59h82v-63h-82V0zm200 553q-20 0-34.5 14.5T306 602t14.5 34.5T355 651t34.5-14.5T404 602t-14.5-34.5T355 553zM391 0h-71v483h71V0z"/><glyph glyph-name="fl" unicode="fl" horiz-adv-x="457" d="M155 0H83v420H19v63h64v59q0 63 32.5 99t85.5 36q37 0 62-15l-18-56q-13 10-32 10-28 0-43-19.5T155 542v-59h82v-63h-82V0zm236 0h-71v667h71V0z"/><glyph glyph-name="f_f_i" unicode="ffi" horiz-adv-x="710" d="M409 0h-72v420h-64v63h64v59q0 63 32.5 99t85.5 36q37 0 62-15l-18-56q-13 10-32 10-28 0-43-19.5T409 542v-59h82v-63h-82V0zm199 553q-20 0-34.5 14.5T559 602t14.5 34.5T608 651t34.5-14.5T657 602t-14.5-34.5T608 553zM644 0h-71v483h71V0zM155 0H83v420H19v63h64v59q0 63 32.5 99t88.5 36q53 0 86-32l-28-51q-20 22-47 22-60 0-60-74v-59h82v-63h-82V0z"/><glyph glyph-name="f_f_l" unicode="ffl" horiz-adv-x="710" d="M409 0h-72v420h-64v63h64v59q0 63 32.5 99t85.5 36q37 0 62-15l-18-56q-13 10-32 10-28 0-43-19.5T409 542v-59h82v-63h-82V0zm235 0h-71v667h71V0zM155 0H83v420H19v63h64v59q0 63 32.5 99t88.5 36q53 0 86-32l-28-51q-20 22-47 22-60 0-60-74v-59h82v-63h-82V0z"/><glyph glyph-name="f_b" unicode="fb" horiz-adv-x="733" d="M155 0H83v420H19v63h64v59q0 63 32.5 99t85.5 36q37 0 62-15l-18-56q-13 10-32 10-28 0-43-19.5T155 542v-59h82v-63h-82V0zm236 130q15-33 45.5-55.5T500 52q57 0 86.5 53T616 241t-29.5 136.5T500 431q-33 0-63.5-23.5T391 351V130zm0-130h-71v667h71V413q46 82 127 82t127-70 46-184q0-115-46-184T518-12q-38 0-72 22t-55 59V0z"/><glyph glyph-name="f_h" unicode="fh" horiz-adv-x="718" d="M155 0H83v420H19v63h64v59q0 63 32.5 99t85.5 36q37 0 62-15l-18-56q-13 10-32 10-28 0-43-19.5T155 542v-59h82v-63h-82V0zm498 0h-71v345q0 86-78 86-34 0-64.5-22.5T391 354V0h-71v667h71V414q23 34 61.5 57.5T532 495q121 0 121-129V0z"/><glyph glyph-name="f_k" unicode="fk" horiz-adv-x="691" d="M155 0H83v420H19v63h64v59q0 63 32.5 99t85.5 36q37 0 62-15l-18-56q-13 10-32 10-28 0-43-19.5T155 542v-59h82v-63h-82V0zm522 0h-85L459 218l-68-87V0h-71v667h71V221l201 262h85L508 266z"/><glyph glyph-name=".notdef" horiz-adv-x="492" d="M421-90H70v842h351V-90zm-32 30v782H101V-60h288z"/><glyph glyph-name=".null" horiz-adv-x="0"/><glyph glyph-name=".null" horiz-adv-x="0"/><glyph glyph-name="nonmarkingreturn" horiz-adv-x="333"/><glyph glyph-name="CR" horiz-adv-x="0"/><glyph glyph-name="space" horiz-adv-x="215"/><glyph glyph-name="exclam" unicode="!" horiz-adv-x="228" d="M144 185H85L69 667h90zM114-10Q92-10 76.5 6T61 44q0 21 15.5 37T114 97t38-16 16-37q0-22-16-38t-38-16z"/><glyph glyph-name="quotedbl" unicode="&quot;" horiz-adv-x="340" d="M117 414H80Q54 618 54 633q0 18 13 31t32 13q18 0 31-13t13-31zm142 0h-36q-26 204-26 219 0 18 12.5 31t31.5 13 31.5-13 12.5-31z"/><glyph glyph-name="numbersign" unicode="#" horiz-adv-x="507" d="M263 0h-59l52 182h-91L114 0H55l51 182H19l14 51h89l56 201H89l13 50h91l51 183h59l-51-183h90l51 183h59l-52-183h87l-12-50h-90l-56-201h90l-13-51h-92zm6 233l58 201h-90l-57-201h89z"/><glyph glyph-name="dollar" unicode="$" horiz-adv-x="468" d="M213-100v89Q99-5 31 72l44 61q54-66 138-73v250q-31 15-48 24.5T123 362t-38.5 35.5-23.5 45T51 503q0 69 45 117t117 56v92h59v-92q91-9 148-68l-42-60q-42 46-106 56V376q37-18 59.5-32.5t49-38.5 39.5-57 13-75q0-70-41.5-120T272-9v-91h-59zm139 268q0 66-80 112V64q40 10 60 38.5t20 65.5zM132 507q0-33 21-56.5t60-44.5v198q-37-8-59-33.5T132 507z"/><glyph glyph-name="percent" unicode="%" horiz-adv-x="651" d="M171 348q-63 0-102 46.5T30 512t39 118 102 47 102-47 39-118-39-117.5T171 348zm4-348h-47l350 667h48zm305-12q-63 0-102 46t-39 117q0 72 39 119t102 47q62 0 101.5-47.5T621 151q0-70-39.5-116.5T480-12zM171 397q38 0 61 33t23 82q0 50-23 83t-61 33-61.5-33T86 512q0-49 23.5-82t61.5-33zM480 37q38 0 61.5 32.5T565 151q0 51-23.5 84T480 268t-61.5-33-23.5-84q0-49 23.5-81.5T480 37z"/><glyph glyph-name="ampersand" unicode="&amp;" horiz-adv-x="520" d="M503 0h-90q-13 15-53 66-68-78-156-78-73 0-120 48T37 168q0 69 32 115t88 86q-44 90-44 149 0 70 39 114.5t99 44.5q54 0 89.5-35.5T376 547q0-35-10-63t-34.5-53-40.5-37.5-51-37.5q27-47 60-93 27-42 59-85 31 63 53 147l61-26q-33-107-73-175 6-8 103-124zM213 48q57 0 109 67-49 63-74 102-41 61-62 98-73-61-73-143 0-58 29-91t71-33zm-29 470q0-47 30-110 48 32 72.5 62.5T311 545q0 37-17 56.5T252 621q-31 0-49.5-27T184 518z"/><glyph glyph-name="quotesingle" unicode="'" horiz-adv-x="197" d="M117 414H80Q54 618 54 633q0 18 13 31t32 13q18 0 31-13t13-31z"/><glyph glyph-name="parenleft" unicode="(" horiz-adv-x="229" d="M210-171l-46-28Q46 3 46 243t118 442l46-27q-43-104-64-200t-21-215q0-208 85-414z"/><glyph glyph-name="parenright" unicode=")" horiz-adv-x="229" d="M64-199l-46 28q86 204 86 414 0 119-21.5 215.5T18 658l46 27q119-201 119-442T64-199z"/><glyph glyph-name="asterisk" unicode="*" horiz-adv-x="321" d="M183 391h-44l5 115-97-63-22 39 103 52-103 52 22 38 97-62-5 115h44l-6-115 97 62 22-38-102-52 102-52-22-39-97 63z"/><glyph glyph-name="plus" unicode="+" horiz-adv-x="439" d="M410 312H247V128h-55v184H29v51h163v177h55V363h163v-51z"/><glyph glyph-name="comma" unicode="," horiz-adv-x="228" d="M173 22q0-43-22.5-83T93-126L57-97q24 17 42.5 43T121-4q-1 0-6-.5t-7-.5Q88-5 74.5 9T61 44q0 22 15 37.5T113 97q25 0 42.5-20T173 22z"/><glyph glyph-name="hyphen" unicode="-" horiz-adv-x="267" d="M237 210H30v64h207v-64z"/><glyph glyph-name="period" unicode="." horiz-adv-x="228" d="M114-10Q92-10 76.5 6T61 44q0 21 15.5 37T114 97t38-16 16-37q0-22-16-38t-38-16z"/><glyph glyph-name="slash" unicode="/" horiz-adv-x="248" d="M56-20H0l192 707h56z"/><glyph glyph-name="zero" unicode="0" horiz-adv-x="512" d="M256-12q-56 0-98 31t-65.5 82.5T58 211 47 333t11 122.5T92.5 565t65.5 81.5 98 30.5 98-30.5 65.5-81.5T454 455.5 465 333t-11-122-34.5-109.5T354 19t-98-31zm0 71q37 0 63 23.5t39.5 65T378 234t6 99q0 273-128 273-127 0-127-273 0-274 127-274z"/><glyph glyph-name="one" unicode="1" horiz-adv-x="315" d="M245 0h-79v562L63 452l-48 50 160 165h70V0z"/><glyph glyph-name="two" unicode="2" horiz-adv-x="489" d="M430 0H53v65q185 213 225 268 66 96 68 162 0 51-31 81t-76 30q-90 0-141-84l-52 48q69 107 194 107 80 0 133.5-49T427 495q0-33-12-69t-27-65.5-55.5-83T263 188 166 71h264V0z"/><glyph glyph-name="three" unicode="3" horiz-adv-x="473" d="M227-12q-68 0-119.5 31T29 99l52 47q54-87 143-87 59 0 90 34t31 93q0 64-35 92.5T218 307q-44 0-53-1v72q9-1 51-1 53 0 87 28.5t34 83.5q0 57-31.5 87T222 606q-79 0-135-79l-50 45q66 105 190 105 84 0 136.5-45.5T416 500q0-59-35-101.5T297 345q49-7 88.5-52.5T425 180q0-85-52.5-138.5T227-12z"/><glyph glyph-name="four" unicode="4" horiz-adv-x="462" d="M366 0h-79v171H23v69l241 427h102V241h73v-70h-73V0zm-79 241v340L96 241h191z"/><glyph glyph-name="five" unicode="5" horiz-adv-x="491" d="M248-12Q119-12 52 97l53 48q50-86 141-86 53 0 86 42.5T365 204q0 70-30.5 108.5T251 351q-70 0-121-62l-59 20v358h340v-70H150V363q47 58 123 58 75 0 124-57t49-158q0-95-55.5-156.5T248-12z"/><glyph glyph-name="six" unicode="6" horiz-adv-x="492" d="M258-12q-57 0-99.5 28.5t-66 78-34.5 109T47 333t13 130 39 109 70.5 77T272 677q101 0 156-83l-44-56q-40 68-111 68-50 0-84.5-41.5t-48-99T127 340q0-12 1-20 19 39 59 68.5t88 29.5q76 0 125.5-55.5T450 205q0-90-52-153.5T258-12zm-4 71q56 0 85.5 43T369 203q0 75-31.5 110.5T255 349q-40 0-73-29t-53-73q2-32 8.5-61.5t20-60T196 77t58-18z"/><glyph glyph-name="seven" unicode="7" horiz-adv-x="422" d="M184 0H99l209 597H26v70h371v-55z"/><glyph glyph-name="eight" unicode="8" horiz-adv-x="486" d="M243-12q-89 0-143.5 47.5T45 164q0 63 39.5 111t93.5 69q-51 18-87 61T55 507q0 82 55 126t133 44 133.5-44T432 507q0-59-36-101.5T309 344q54-21 93-69t39-110q0-81-55-129T243-12zm0 386q13 4 28.5 11.5t35 21.5 32.5 37.5 13 52.5q0 50-30 79.5T243 606t-79-29.5-30-79.5q0-29 13-52.5t32.5-37.5 35-21.5T243 374zm0-315q50 0 84 31t34 84q0 40-24.5 73t-50 47-43.5 17q-32-5-74.5-42.5T126 173q0-53 33.5-83.5T243 59z"/><glyph glyph-name="nine" unicode="9" horiz-adv-x="492" d="M219-11Q119-11 64 72l44 56q40-68 111-68 74 0 109.5 79T364 326v21q-19-40-59-69.5T217 248q-76 0-125.5 55.5T42 461q0 90 52 153.5T234 678q57 0 99.5-28.5t66-78 34.5-109T445 333q0-94-22-169T348.5 39 219-11zm18 328q40 0 72.5 29t52.5 73q-2 32-8.5 61.5t-19.5 60-38 48.5-58 18q-56 0-85.5-43T123 463q0-75 31.5-110.5T237 317z"/><glyph glyph-name="colon" unicode=":" horiz-adv-x="228" d="M114 384q-22 0-37.5 15.5T61 437t15.5 37.5T114 490t38-15.5 16-37.5-16-37.5-38-15.5zm0-394Q92-10 76.5 6T61 44q0 21 15.5 37T114 97t38-16 16-37q0-22-16-38t-38-16z"/><glyph glyph-name="semicolon" unicode=";" horiz-adv-x="228" d="M114 384q-22 0-37.5 16T61 437q0 22 15.5 37.5T114 490t38-15.5 16-37.5q0-21-16-37t-38-16zm59-360q0-44-22.5-84T93-125L57-95q24 16 42.5 42.5T121-2q-4-2-13-2-20 0-33.5 14T61 46q0 21 15 36.5T113 98q25 0 42.5-20T173 24z"/><glyph glyph-name="less" unicode="&lt;" horiz-adv-x="439" d="M410 126L29 309v51l381 184v-61L91 334l319-148v-60z"/><glyph glyph-name="equal" unicode="=" horiz-adv-x="439" d="M410 405H29v51h381v-51zm0-193H29v50h381v-50z"/><glyph glyph-name="greater" unicode="&gt;" horiz-adv-x="439" d="M410 309L29 126v60l318 148L29 483v61l381-184v-51z"/><glyph glyph-name="question" unicode="?" horiz-adv-x="387" d="M169 184q-33 33-33 82 0 34 14.5 62.5t36 48.5 42.5 39.5 35.5 45T279 517q0 37-25.5 63.5T183 607q-67 0-113-57l-42 51q63 77 166 77 74 0 120-42.5T360 529q0-39-16-72t-38.5-55.5-45-43-38.5-45-16-51.5q0-31 22-51zm23-194q-22 0-38 16t-16 38q0 21 16 37t38 16 37.5-16T245 44q0-22-15.5-38T192-10z"/><glyph glyph-name="at" unicode="@" horiz-adv-x="691" d="M307-70q-120 0-196 83.5T35 230q0 162 109.5 285.5T398 639q115 0 186.5-78.5T656 358q0-120-49-196.5T495 85q-36 0-58.5 21.5T412 161v6q-56-82-133-82-54 0-88 37t-34 106q0 105 62 188t147 83q37 0 63-21t37-54l12 59h65l-58-274q-2-12-2-23 0-49 38-49 19 0 41 22t40.5 75T621 357q0 113-62 180.5T396 605q-130 0-228-114.5T70 231q0-118 67-193t175-75q84 0 161 56l17-26q-87-63-183-63zm-6 209q66 0 121 85l32 150q-8 29-27.5 50T376 445q-64 0-107.5-67.5T225 234q0-44 19.5-69.5T301 139z"/><glyph glyph-name="A" unicode="A" horiz-adv-x="511" d="M503 0h-86l-43 151H137L94 0H8l200 667h95zM357 221L255 579 154 221h203z"/><glyph glyph-name="B" unicode="B" horiz-adv-x="516" d="M297 0H70v667h221q78 0 121.5-46.5T456 497q0-61-28-100.5T354 344q48-7 80.5-55T467 180q0-83-44-131.5T297 0zm-21 376q49 0 73.5 30.5T374 486t-24.5 80-73.5 31H150V376h126zm5-305q51 0 77.5 30.5T385 188q0 51-26.5 84.5T281 306H150V71h131z"/><glyph glyph-name="C" unicode="C" horiz-adv-x="533" d="M306-12q-118 0-188.5 96.5T47 333t70.5 248.5T306 678q127 0 195-130l-66-31q-45 90-129 90-80 0-128.5-77T129 333t48.5-197T306 59q87 0 130 99l67-31Q434-12 306-12z"/><glyph glyph-name="D" unicode="D" horiz-adv-x="564" d="M248 0H70v667h178q126 0 197-93t71-241-70.5-240.5T248 0zm0 71q89 0 137.5 72.5T434 333q0 118-48 191t-138 73h-98V71h98z"/><glyph glyph-name="E" unicode="E" horiz-adv-x="461" d="M413 0H70v667h343v-70H150V376h256v-70H150V71h263V0z"/><glyph glyph-name="F" unicode="F" horiz-adv-x="451" d="M150 0H70v667h343v-70H150V376h256v-70H150V0z"/><glyph glyph-name="G" unicode="G" horiz-adv-x="562" d="M306-13q-117 0-188 95.5T47 333t71 250 188 95q129 0 198-126l-64-33q-47 88-134 88-80 0-128.5-75.5T129 333q0-122 48.5-198T306 59q79 0 125 56v156H272v70h235V85q-79-98-201-98z"/><glyph glyph-name="H" unicode="H" horiz-adv-x="574" d="M504 0h-80v308H150V0H70v667h80V378h274v289h80V0z"/><glyph glyph-name="I" unicode="I" horiz-adv-x="220" d="M150 0H70v667h80V0z"/><glyph glyph-name="J" unicode="J" horiz-adv-x="398" d="M149-12Q63-12 9 49l36 62q42-52 98-52 50 0 78 30t28 84v494h79V171q0-91-49-137T149-12z"/><glyph glyph-name="K" unicode="K" horiz-adv-x="509" d="M496 0h-96L205 294l-55-80V0H70v667h80V321l233 346h94L254 350z"/><glyph glyph-name="L" unicode="L" horiz-adv-x="421" d="M391 0H70v667h80V71h241V0z"/><glyph glyph-name="M" unicode="M" horiz-adv-x="683" d="M613 0h-78v524L357 0h-31L150 524V0H70v667h111l161-474 162 474h109V0z"/><glyph glyph-name="N" unicode="N" horiz-adv-x="572" d="M502 0h-77L150 497V0H70v667h80l272-487v487h80V0z"/><glyph glyph-name="O" unicode="O" horiz-adv-x="599" d="M299-12q-118 0-185 97.5T47 333t67 247.5T299 678t185.5-97.5T552 333 484.5 85.5 299-12zm0 71q80 0 125.5 77.5T470 333q0 120-45 197t-126 77q-80 0-125-77t-45-197q0-119 45-196.5T299 59z"/><glyph glyph-name="P" unicode="P" horiz-adv-x="487" d="M150 0H70v667h203q88 0 136-57t48-143q0-85-48.5-142.5T273 267H150V0zm115 337q51 0 80.5 36t29.5 94-29.5 94-80.5 36H150V337h115z"/><glyph glyph-name="Q" unicode="Q" horiz-adv-x="599" d="M299-12q-118 0-185 97.5T47 333t67 247.5T299 678t185.5-97.5T552 333q0-174-86-271l38-59-56-36-34 52q-51-31-115-31zm0 71q40 0 75 22l-79 123 57 36 69-109q49 77 49 202 0 120-45 197t-126 77q-80 0-125-77t-45-197q0-119 45-196.5T299 59z"/><glyph glyph-name="R" unicode="R" horiz-adv-x="509" d="M464 0h-90L246 267h-96V0H70v667h204q81 0 132-54t51-145q0-83-39-131t-94-58zM265 337q51 0 80.5 36t29.5 94-29.5 94-80.5 36H150V337h115z"/><glyph glyph-name="S" unicode="S" horiz-adv-x="470" d="M228-12Q103-12 29 72l44 61q61-74 155-74 60 0 91 31.5t31 77.5q0 44-31 75.5T243.5 295 155 338t-75 64.5T49 503q0 76 54 125.5T240 678q110 0 178-70l-42-60q-53 59-138 59-46 0-77-28t-31-72q0-33 22.5-58.5t55.5-41 72.5-36.5 72.5-43 55.5-62.5T431 173q0-79-52.5-132T228-12z"/><glyph glyph-name="T" unicode="T" horiz-adv-x="446" d="M262 0h-79v597H25v70h396v-70H262V0z"/><glyph glyph-name="U" unicode="U" horiz-adv-x="569" d="M284-12q-101 0-157.5 59.5T70 216v451h80V215q0-77 35-116.5T284 59q65 0 100 39.5T419 215v452h79V216q0-110-56-169T284-12z"/><glyph glyph-name="V" unicode="V" horiz-adv-x="511" d="M303 0h-95L8 667h86L255 95l162 572h86z"/><glyph glyph-name="W" unicode="W" horiz-adv-x="715" d="M551 0h-85L357 526 249 0h-85L16 667h85l109-544 114 544h67l114-544 109 544h85z"/><glyph glyph-name="X" unicode="X" horiz-adv-x="510" d="M502 0h-92L255 276 100 0H8l199 341L19 667h93l143-262 143 262h93L303 341z"/><glyph glyph-name="Y" unicode="Y" horiz-adv-x="499" d="M289 0h-79v282L4 667h89l157-308 157 308h88L289 282V0z"/><glyph glyph-name="Z" unicode="Z" horiz-adv-x="462" d="M422 0H40v67l280 530H40v70h375v-66L134 71h288V0z"/><glyph glyph-name="bracketleft" unicode="[" horiz-adv-x="213" d="M195-190H37v868h158v-53H93v-762h102v-53z"/><glyph glyph-name="backslash" unicode="\" horiz-adv-x="248" d="M193-20L1 687h56L249-20h-56z"/><glyph glyph-name="bracketright" unicode="]" horiz-adv-x="213" d="M175-190H17v53h102v762H17v53h158v-868z"/><glyph glyph-name="asciicircum" unicode="^" horiz-adv-x="381" d="M362 333h-58L190 610 77 333H19l144 334h55z"/><glyph glyph-name="underscore" unicode="_" horiz-adv-x="422" d="M425-93H-3v53h428v-53z"/><glyph glyph-name="grave" unicode="`" horiz-adv-x="186" d="M186 556h-52L0 700h73z"/><glyph glyph-name="a" unicode="a" horiz-adv-x="451" d="M386 0h-72v52q-45-64-127-64-61 0-103.5 44T41 149t42 116 104 43q84 0 127-62v84q0 49-26 76t-73 27q-69 0-121-59l-32 51q67 70 164 70 75 0 117.5-38.5T386 338V0zM210 40q70 0 104 61v92q-33 62-104 62-44 0-70-30.5T114 148t26-77 70-31z"/><glyph glyph-name="b" unicode="b" horiz-adv-x="480" d="M137 130q15-33 45.5-55.5T246 52q57 0 86.5 53T362 241t-29.5 136.5T246 431q-33 0-63.5-23.5T137 351V130zm0-130H66v667h71V413q46 82 127 82t127-70 46-184q0-115-46-184T264-12q-38 0-72 22t-55 59V0z"/><glyph glyph-name="c" unicode="c" horiz-adv-x="406" d="M242-12q-91 0-145.5 72T42 242t54.5 181.5T242 495q86 0 138-64l-39-49q-36 49-93 49-62 0-96.5-54T117 242t34.5-135.5T248 52q56 0 93 49l39-49q-51-64-138-64z"/><glyph glyph-name="d" unicode="d" horiz-adv-x="480" d="M414 0h-72v69q-21-37-55-59t-72-22q-80 0-126.5 69T42 241q0 114 46 184t127 70q38 0 72-21t55-61v254h72V0zM233 52q34 0 64.5 23t44.5 55v222q-14 33-45 56t-64 23q-57 0-86.5-53.5T117 241t29.5-136T233 52z"/><glyph glyph-name="e" unicode="e" horiz-adv-x="468" d="M249-12q-95 0-151 70.5T42 242q0 108 53.5 180.5T238 495q92 0 141.5-72T429 240v-22H116q2-75 39-122.5T255 48q68 0 115 59l38-42q-63-77-159-77zm109 283q-1 65-31 114.5T237 435q-58 0-88.5-50.5T116 271h242z"/><glyph glyph-name="f" unicode="f" horiz-adv-x="254" d="M155 0H83v420H19v63h64v59q0 63 32.5 99t88.5 36q53 0 86-32l-28-51q-20 22-47 22-60 0-60-74v-59h82v-63h-82V0z"/><glyph glyph-name="g" unicode="g" horiz-adv-x="479" d="M223-196q-100 0-161 61l33 56q48-56 126-56 53 0 87 32.5T342-4v81q-21-38-55-60.5T215-6Q135-6 88.5 61.5T42 244q0 114 46 182.5T215 495t127-82v70h72V1q0-104-53.5-150.5T223-196zm10 254q33 0 64 23.5t45 56.5v214q-14 33-45 56t-64 23q-57 0-86.5-52.5T117 244t29.5-134T233 58z"/><glyph glyph-name="h" unicode="h" d="M399 0h-71v345q0 86-78 86-34 0-64.5-22.5T137 354V0H66v667h71V414q23 34 61.5 57.5T278 495q121 0 121-129V0z"/><glyph glyph-name="i" unicode="i" horiz-adv-x="203" d="M101 553q-20 0-34.5 14.5T52 602t14.5 34.5T101 651t34.5-14.5T150 602t-14.5-34.5T101 553zM137 0H66v483h71V0z"/><glyph glyph-name="j" unicode="j" horiz-adv-x="203" d="M101 553q-20 0-34.5 14.5T52 602t14.5 34.5T101 651t34.5-14.5T150 602t-14.5-34.5T101 553zM17-196q-51 0-82 34l26 53q21-26 49-26 56 0 56 76v542h71V-59q0-137-120-137z"/><glyph glyph-name="k" unicode="k" horiz-adv-x="438" d="M423 0h-85L205 218l-68-87V0H66v667h71V221l201 262h85L254 266z"/><glyph glyph-name="l" unicode="l" horiz-adv-x="203" d="M137 0H66v667h71V0z"/><glyph glyph-name="m" unicode="m" horiz-adv-x="692" d="M626 0h-72v350q0 81-67 81-31 0-60.5-23T382 354V0h-72v350q0 81-68 81-30 0-59-22.5T137 354V0H66v483h71v-69q17 30 54.5 55.5T269 495q45 0 73.5-23.5T378 409q19 35 57 60.5t79 25.5q112 0 112-126V0z"/><glyph glyph-name="n" unicode="n" d="M399 0h-72v344q0 87-77 87-34 0-64.5-22.5T137 354V0H66v483h71v-69q23 34 61 57.5t79 23.5q122 0 122-131V0z"/><glyph glyph-name="o" unicode="o" horiz-adv-x="477" d="M238-12q-92 0-144 73T42 242q0 107 52 180t144 73q93 0 145-72.5T435 242 383 61 238-12zm0 64q60 0 91 55t31 135q0 79-31 134t-91 55q-59 0-90-55t-31-134q0-80 31-135t90-55z"/><glyph glyph-name="p" unicode="p" horiz-adv-x="478" d="M264-12q-81 0-127 82v-254H66v667h71v-69q21 37 55 59t72 22q81 0 127-69t46-184-46-184.5T264-12zm-18 64q57 0 86.5 53.5T362 242t-29.5 136-86.5 53q-33 0-63.5-22.5T137 353V132q15-33 45.5-56.5T246 52z"/><glyph glyph-name="q" unicode="q" horiz-adv-x="478" d="M232 52q33 0 63.5 23.5T341 132v221q-15 33-45.5 55.5T232 431q-57 0-86.5-53T116 242t29.5-136.5T232 52zm-18-64q-81 0-127 69.5T41 242t46 184 127 69q37 0 71.5-22t55.5-59v69h71v-667h-71V70q-46-82-127-82z"/><glyph glyph-name="r" unicode="r" horiz-adv-x="291" d="M137 0H66v483h71v-77q53 87 137 87v-74q-12 3-24 3-32 0-64.5-24T137 343V0z"/><glyph glyph-name="s" unicode="s" horiz-adv-x="387" d="M190-12Q86-12 27 56l36 51q50-61 126-61 42 0 67.5 21.5T282 124q0 31-25 52t-60 34.5-70.5 29.5T66 287.5 41 365q0 56 42 93t112 37q90 0 147-62l-34-49q-40 53-112 53-39 0-62.5-20T110 367q0-28 25-47t60-32.5 70.5-30.5 60.5-50 25-81q0-61-44-99.5T190-12z"/><glyph glyph-name="t" unicode="t" horiz-adv-x="263" d="M177-12Q80-12 80 97v323H16v63h64v132h72V483h82v-63h-82V110q0-58 39-58 26 0 42 19l22-54q-29-29-78-29z"/><glyph glyph-name="u" unicode="u" d="M399 0h-72v67q-24-34-60.5-56.5T187-12Q66-12 66 117v366h71V138q0-86 77-86 35 0 65.5 21.5T327 127v356h72V0z"/><glyph glyph-name="v" unicode="v" horiz-adv-x="408" d="M243 0h-79L6 483h78L204 85l121 398h77z"/><glyph glyph-name="w" unicode="w" horiz-adv-x="638" d="M496 0h-74L319 388 215 0h-73L13 483h75l94-386 102 386h68L455 97l95 386h75z"/><glyph glyph-name="x" unicode="x" horiz-adv-x="406" d="M394 0h-80L203 194 92 0H12l147 246L20 483h80l103-184 103 184h80L247 246z"/><glyph glyph-name="y" unicode="y" horiz-adv-x="408" d="M41-189l11 64q13-7 32-7 22 0 34.5 10.5T141-84l26 74L6 483h78L204 87l121 396h77L209-102q-17-51-46.5-72.5T89-196q-29 0-48 7z"/><glyph glyph-name="z" unicode="z" horiz-adv-x="387" d="M344 0H43v56l209 364H43v63h297v-55L131 63h213V0z"/><glyph glyph-name="braceleft" unicode="{" horiz-adv-x="231" d="M214-190h-46q-44 0-77 33T58-71v221q0 30-13.5 50T6 220v48q25 0 38.5 20T58 338v220q0 53 33 86.5t77 33.5h46v-53h-46q-22 0-38-19t-16-48V332q0-69-45-88 45-19 45-88V-71q0-28 16-47t38-19h46v-53z"/><glyph glyph-name="bar" unicode="|" horiz-adv-x="194" d="M124-20H70v707h54V-20z"/><glyph glyph-name="braceright" unicode="}" horiz-adv-x="231" d="M17-190v53h46q22 0 38 19t16 47v227q0 68 46 88-46 20-46 88v226q0 29-16 48t-38 19H17v53h46q44 0 77.5-33.5T174 558V338q0-30 13.5-50t38.5-20v-48q-25 0-38.5-20T174 150V-71q0-53-33.5-86T63-190H17z"/><glyph glyph-name="asciitilde" unicode="~" horiz-adv-x="449" d="M367 667l54-6q-4-48-10-84t-18.5-74-36.5-58.5-58-20.5q-38 0-61 30t-30 65.5-20.5 65.5-35.5 30q-31 0-46-46.5T81 423l-54 6q4 49 10.5 85T57 587.5t36.5 58T151 666q31 0 51.5-20t30-48 17-56 19-48 29.5-20q31 0 46 46.5T367 667z"/><glyph glyph-name="nbspace" horiz-adv-x="215"/><glyph glyph-name="exclamdown" unicode="¡" horiz-adv-x="228" d="M70-184l15 482h59l16-482H70zm-9 624q0 21 15.5 37t37.5 16 38-16 16-37q0-22-16-37.5T114 387t-37.5 15.5T61 440z"/><glyph glyph-name="cent" unicode="¢" horiz-adv-x="406" d="M212-100v91Q134 3 88 72.5T42 242t46 169 124 81v73h56v-72q68-8 112-62l-39-49q-31 41-73 47V53q43 8 73 48l39-49Q337-3 268-11v-89h-56zm-95 342q0-69 24.5-119.5T212 57v368q-46-15-70.5-65T117 242z"/><glyph glyph-name="sterling" unicode="£" horiz-adv-x="449" d="M25 269v52h86q-21 31-31 46.5T59 416t-11 68q0 79 55.5 136T239 677q60 0 105-29.5t64-83.5l-63-34q-12 35-38 57.5T244 610q-46 0-78.5-35T133 482q0-27 7.5-52t14-38 23-38 21.5-33h113v-52h-91q6-21 6-46 0-41-20-78t-51-60q22 9 46 9 28 0 64.5-18T325 58q25 0 47.5 11.5T405 96l32-63q-39-46-117-46-41 0-81 22t-67 22q-40 0-98-38L45 52q52 28 81 69.5t29 86.5q0 30-13 61H25z"/><glyph glyph-name="currency" unicode="¤" horiz-adv-x="494" d="M247 95q-70 0-119 41L58 65l-45 44 75 74q-37 62-37 150t38 150l-76 76 44 45 73-74q50 40 117 40t117-40l73 74 44-45-76-76q38-62 38-150t-39-151l77-75-44-44-73 72q-50-40-117-40zm0 67q61 0 92.5 49.5T371 333q0 71-31.5 120.5T247 503q-60 0-92-49.5T123 333t32-121 92-50z"/><glyph glyph-name="yen" unicode="¥" horiz-adv-x="499" d="M289 0h-79v123H22v51h188v108H22v51h160L4 667h89l157-308 157 308h88L316 333h161v-51H289V174h188v-51H289V0z"/><glyph glyph-name="brokenbar" unicode="¦" horiz-adv-x="194" d="M124-20H70v316h54V-20zm0 391H70v316h54V371z"/><glyph glyph-name="section" unicode="§" horiz-adv-x="389" d="M351 307q0-84-82-121 82-48 82-129 0-61-45-99.5T190-81Q90-81 28-12l35 48q52-63 125-63 41 0 67.5 23T282 54q0 32-25 54.5T197 145t-70.5 30T66 222.5 41 300q0 43 28 75t72 43Q41 468 41 551q0 54 42 90t108 36q96 0 150-63l-33-44q-45 53-113 53-38 0-61.5-20T110 551q0-30 25-50.5t60-34 70.5-30 60.5-49 25-80.5zm-68-10q0 64-84 97-91-20-91-86 0-34 26-55t81-45q68 32 68 89z"/><glyph glyph-name="dieresis" unicode="¨" horiz-adv-x="268" d="M266 603q0-18-13.5-31T221 559q-19 0-32 13t-13 31q0 19 13 32t32 13q18 0 31.5-13t13.5-32zm-174 0q0-18-13-31t-32-13q-18 0-31.5 13T2 603q0 19 13.5 32T47 648q19 0 32-13t13-32z"/><glyph glyph-name="copyright" unicode="©" horiz-adv-x="778" d="M734 334q0-143-101-244T389-11 145 90.5 44 334q0 143 101 244t244 101 244-101 101-244zm-30 0q0 130-92.5 222.5T389 649t-222-92.5T75 334t92-222 222-92 222.5 92T704 334zM512 211l26-24q-57-66-146-66-87 0-148 62t-61 152q0 91 60.5 152T392 548q90 0 145-65l-25-25q-20 26-52.5 42T392 516q-71 0-122-51t-51-130q0-77 51.5-129.5T392 153q36 0 68 16t52 42z"/><glyph glyph-name="ordfeminine" unicode="ª" horiz-adv-x="329" d="M276 326h-55v34q-32-42-88-42-41 0-70 28.5T34 422q0 48 28.5 75.5T133 525q56 0 88-40v53q0 32-18.5 48.5T154 603q-48 0-82-41l-24 38q47 48 115 48 113 0 113-112V326zm-124 30q47 0 69 38v57q-21 38-69 38-28 0-45.5-19T89 423q0-30 17.5-48.5T152 356z"/><glyph glyph-name="guillemotleft" unicode="«" horiz-adv-x="382" d="M352 63h-67L160 243l125 177h67L227 243zm-130 0h-67L30 243l125 177h67L97 243z"/><glyph glyph-name="logicalnot" unicode="¬" horiz-adv-x="441" d="M410 456V212h-54v193H29v51h381z"/><glyph glyph-name="uni00AD" unicode="­" horiz-adv-x="267" d="M237 210H30v64h207v-64z"/><glyph glyph-name="registered" unicode="®" horiz-adv-x="494" d="M459 465q0-88-62-150t-150-62-150 62-62 150 62 150 150 62q89 0 150.5-61.5T459 465zm-29 0q0 77-53 130t-130 53-130.5-53T63 465q0-76 54-130t130-54 129.5 54T430 465zm-85-122h-40l-63 96h-44v-96h-32v243h99q32 0 54.5-20.5T342 512q0-35-22.5-53.5T280 440zm-36 169q0 19-13.5 32.5T265 558h-67v-90h67q16 0 30 13t14 31z"/><glyph glyph-name="macron" unicode="¯" horiz-adv-x="306" d="M306 573H0v46h306v-46z"/><glyph glyph-name="degree" unicode="°" horiz-adv-x="289" d="M265 556q0-50-35.5-85.5T144 435t-85.5 35.5T23 556t35.5 85.5T144 677t85.5-35.5T265 556zm-46 0q0 30-22 52t-53 22-52.5-22T70 556q0-31 21.5-52.5T144 482t53 21.5 22 52.5z"/><glyph glyph-name="plusminus" unicode="±" horiz-adv-x="439" d="M410 318H247V134h-55v184H29v51h163v177h55V369h163v-51zm0-296H29v51h381V22z"/><glyph glyph-name="twosuperior" unicode="²" horiz-adv-x="326" d="M291 421H41v44q116 114 153 160.5t37 87.5q0 32-20 49t-49 17q-59 0-91-51l-35 35q46 64 128 64 54 0 89.5-29t35.5-82q0-48-36.5-98T119 469h172v-48z"/><glyph glyph-name="threesuperior" unicode="³" horiz-adv-x="326" d="M293 530q0-52-35-84t-96-32q-90 0-131 66l35 34q35-52 94-52 36 0 55.5 19t19.5 52q0 70-83 70-27 0-33-1v48q6-1 32-1 78 0 78 65 0 32-19.5 48.5T158 779q-54 0-88-48l-35 33q45 63 127 63 56 0 90.5-28t34.5-79q0-36-23-61t-54-31q31-4 57-31t26-67z"/><glyph glyph-name="acute" unicode="´" horiz-adv-x="186" d="M186 700L52 556H0l113 144h73z"/><glyph glyph-name="mu" unicode="µ" horiz-adv-x="476" d="M137 22v-206H66v667h71V138q0-88 79-88 34 0 64 22.5t47 54.5v356h72V106q0-54 39-54 11 0 16 1l6-61q-18-4-36-4-82 0-94 85-20-38-52-61.5T210-12q-52 0-73 34z"/><glyph glyph-name="paragraph" unicode="¶" horiz-adv-x="449" d="M377-100h-45v723h-89v-723h-44v423q-71 0-121.5 50.5T27 495t50.5 121.5T199 667h178v-767z"/><glyph glyph-name="periodcentered" unicode="·" horiz-adv-x="228" d="M168 245q0-22-16-38t-38-16-37.5 16T61 245q0 21 15.5 37t37.5 16 38-16 16-37z"/><glyph glyph-name="cedilla" unicode="¸" horiz-adv-x="185" d="M89-191q-51 0-89 30l18 37q31-28 70-28 22 0 38 11.5t16 30.5q0 34-33 34-20 0-33-15L44-73l31 84h43L92-56q12 11 33 11 26 0 43-18t17-48q0-35-27.5-57.5T89-191z"/><glyph glyph-name="onesuperior" unicode="¹" horiz-adv-x="225" d="M169 421h-58v325l-63-66-34 35 104 106h51V421z"/><glyph glyph-name="ordmasculine" unicode="º" horiz-adv-x="347" d="M173 318q-64 0-100.5 47.5T36 483t36.5 117.5T173 648q65 0 101.5-47.5T311 483t-36.5-117.5T173 318zm0 46q40 0 60.5 34t20.5 85-20.5 84-60.5 33q-39 0-59.5-33T93 483t20.5-85 59.5-34z"/><glyph glyph-name="guillemotright" unicode="»" horiz-adv-x="382" d="M222 243L97 63H30l125 180L30 420h67zm130 0L227 63h-67l125 180-125 177h67z"/><glyph glyph-name="onequarter" unicode="¼" horiz-adv-x="673" d="M169 267h-58v325l-63-66-34 35 104 106h51V267zm478-166h-47V0h-58v101H374v45l150 254h76V148h47v-47zm-105 47v193L428 148h114zm-26 519L166 0h-48l350 667h48z"/><glyph glyph-name="onehalf" unicode="½" horiz-adv-x="707" d="M169 267h-58v325l-63-66-34 35 104 106h51V267zM672 0H422v44q116 114 153 160.5t37 87.5q0 32-20 49t-49 17q-59 0-91-51l-35 35q46 64 128 64 54 0 89.5-29t35.5-82q0-48-36.5-98T500 48h172V0zM516 667L166 0h-48l350 667h48z"/><glyph glyph-name="threequarters" unicode="¾" horiz-adv-x="745" d="M720 101h-47V0h-58v101H447v45l150 254h76V148h47v-47zm-105 47v193L501 148h114zm-27 519L238 0h-48l350 667h48zM293 376q0-52-35-84t-96-32q-90 0-131 66l35 34q35-52 94-52 36 0 55.5 19t19.5 52q0 70-83 70-27 0-33-1v48q6-1 32-1 78 0 78 65 0 32-19.5 48.5T158 625q-54 0-88-48l-35 33q45 63 127 63 56 0 90.5-28t34.5-79q0-36-23-61t-54-31q31-4 57-31t26-67z"/><glyph glyph-name="questiondown" unicode="¿" horiz-adv-x="332" d="M218 297q33-34 33-83 0-41-22.5-75.5t-49-55-49-52T108-37q0-36 26-62.5t70-26.5q68 0 114 57l41-52q-63-76-165-76-75 0-120.5 42.5T28-49q0 39 16 72t38.5 55.5 45 43T166 167t16 52q0 30-23 51zm-23 196q22 0 38-16t16-38q0-21-16-36.5T195 387t-37.5 15.5T142 439q0 22 15.5 38t37.5 16z"/><glyph glyph-name="Agrave" unicode="À" horiz-adv-x="511" d="M503 0h-86l-43 151H137L94 0H8l200 667h95zM357 221L255 579 154 221h203zm-55 502h-52L116 867h73z"/><glyph glyph-name="Aacute" unicode="Á" horiz-adv-x="511" d="M503 0h-86l-43 151H137L94 0H8l200 667h95zM357 221L255 579 154 221h203zm38 646L261 723h-52l113 144h73z"/><glyph glyph-name="Acircumflex" unicode="Â" horiz-adv-x="511" d="M373 723h-47l-71 105-69-105h-46l80 144h70zM503 0h-86l-43 151H137L94 0H8l200 667h95zM357 221L255 579 154 221h203z"/><glyph glyph-name="Atilde" unicode="Ã" horiz-adv-x="511" d="M503 0h-86l-43 151H137L94 0H8l200 667h95zM357 221L255 579 154 221h203zm-51 500q-22 0-37.5 14.5t-23 32.5-18.5 32.5-24 14.5q-18 0-29-22t-11-66h-42q0 60 22 97t63 37q22 0 37.5-14.5t23-32 18.5-32 24-14.5q40 0 40 87h42q0-60-22-97t-63-37z"/><glyph glyph-name="Adieresis" unicode="Ä" horiz-adv-x="511" d="M388 770q0-18-13.5-31T343 726q-19 0-32 13t-13 31q0 19 13 32t32 13q18 0 31.5-13t13.5-32zm-174 0q0-18-13-31t-32-13q-18 0-31.5 13T124 770q0 19 13.5 32t31.5 13q19 0 32-13t13-32zM503 0h-86l-43 151H137L94 0H8l200 667h95zM357 221L255 579 154 221h203z"/><glyph glyph-name="Aring" unicode="Å" horiz-adv-x="511" d="M503 0h-86l-43 151H137L94 0H8l200 667h95zM357 221L255 579 154 221h203zM256 691q-38 0-64.5 26.5T165 782t26.5 64.5T256 873q37 0 63.5-26.5T346 782t-26.5-64.5T256 691zm0 38q22 0 37 15.5t15 37.5-15 37.5-37 15.5-37.5-15.5T203 782t15.5-37.5T256 729z"/><glyph glyph-name="AE" unicode="Æ" horiz-adv-x="751" d="M702 0H360v151H165L96 0H11l316 667h375v-70H439V376h256v-70H439V71h263V0zM360 221v358L195 221h165z"/><glyph glyph-name="Ccedilla" unicode="Ç" horiz-adv-x="533" d="M300-187q-52 0-89 30l18 37q31-28 70-28 22 0 38 11.5t16 30.5q0 34-33 34-20 0-33-15l-32 18 21 59Q171 3 109 97T47 333q0 152 70.5 248.5T306 678q127 0 195-130l-66-31q-45 90-129 90-80 0-128.5-77T129 333t48.5-197T306 59q87 0 130 99l67-31Q436-5 318-11l-15-41q12 11 33 11 26 0 43-18t17-48q0-35-27.5-57.5T300-187z"/><glyph glyph-name="Egrave" unicode="È" horiz-adv-x="461" d="M413 0H70v667h343v-70H150V376h256v-70H150V71h263V0zM288 723h-52L102 867h73z"/><glyph glyph-name="Eacute" unicode="É" horiz-adv-x="461" d="M381 867L247 723h-52l113 144h73zM413 0H70v667h343v-70H150V376h256v-70H150V71h263V0z"/><glyph glyph-name="Ecircumflex" unicode="Ê" horiz-adv-x="461" d="M359 723h-47l-71 105-69-105h-46l80 144h70zM413 0H70v667h343v-70H150V376h256v-70H150V71h263V0z"/><glyph glyph-name="Edieresis" unicode="Ë" horiz-adv-x="461" d="M374 770q0-18-13.5-31T329 726q-19 0-32 13t-13 31q0 19 13 32t32 13q18 0 31.5-13t13.5-32zm-174 0q0-18-13-31t-32-13q-18 0-31.5 13T110 770q0 19 13.5 32t31.5 13q19 0 32-13t13-32zM413 0H70v667h343v-70H150V376h256v-70H150V71h263V0z"/><glyph glyph-name="Igrave" unicode="Ì" horiz-adv-x="220" d="M150 0H70v667h80V0zm7 723h-52L-29 867h73z"/><glyph glyph-name="Iacute" unicode="Í" horiz-adv-x="220" d="M150 0H70v667h80V0zm100 867L116 723H64l113 144h73z"/><glyph glyph-name="Icircumflex" unicode="Î" horiz-adv-x="220" d="M228 723h-47l-71 105-69-105H-5l80 144h70zM150 0H70v667h80V0z"/><glyph glyph-name="Idieresis" unicode="Ï" horiz-adv-x="220" d="M243 770q0-18-13.5-31T198 726q-19 0-32 13t-13 31q0 19 13 32t32 13q18 0 31.5-13t13.5-32zm-174 0q0-18-13-31t-32-13q-18 0-31.5 13T-21 770q0 19 13.5 32T24 815q19 0 32-13t13-32zM150 0H70v667h80V0z"/><glyph glyph-name="Eth" unicode="Ð" horiz-adv-x="587" d="M272 0H94v301H16v57h78v309h178q126 0 197-93t71-241-70.5-240.5T272 0zm0 71q89 0 137.5 72.5T458 333q0 118-48 191t-138 73h-98V358h124v-57H174V71h98z"/><glyph glyph-name="Ntilde" unicode="Ñ" horiz-adv-x="572" d="M334 721q-22 0-37.5 14.5t-23 32.5-18.5 32.5-24 14.5q-18 0-29-22t-11-66h-42q0 60 22 97t63 37q22 0 37.5-14.5t23-32 18.5-32 24-14.5q40 0 40 87h42q0-60-22-97t-63-37zM502 0h-77L150 497V0H70v667h80l272-487v487h80V0z"/><glyph glyph-name="Ograve" unicode="Ò" horiz-adv-x="599" d="M346 723h-52L160 867h73zM299-12q-118 0-185 97.5T47 333t67 247.5T299 678t185.5-97.5T552 333 484.5 85.5 299-12zm0 71q80 0 125.5 77.5T470 333q0 120-45 197t-126 77q-80 0-125-77t-45-197q0-119 45-196.5T299 59z"/><glyph glyph-name="Oacute" unicode="Ó" horiz-adv-x="599" d="M439 867L305 723h-52l113 144h73zM299-12q-118 0-185 97.5T47 333t67 247.5T299 678t185.5-97.5T552 333 484.5 85.5 299-12zm0 71q80 0 125.5 77.5T470 333q0 120-45 197t-126 77q-80 0-125-77t-45-197q0-119 45-196.5T299 59z"/><glyph glyph-name="Ocircumflex" unicode="Ô" horiz-adv-x="599" d="M418 723h-47l-71 105-69-105h-46l80 144h70zM299-12q-118 0-185 97.5T47 333t67 247.5T299 678t185.5-97.5T552 333 484.5 85.5 299-12zm0 71q80 0 125.5 77.5T470 333q0 120-45 197t-126 77q-80 0-125-77t-45-197q0-119 45-196.5T299 59z"/><glyph glyph-name="Otilde" unicode="Õ" horiz-adv-x="599" d="M299-12q-118 0-185 97.5T47 333t67 247.5T299 678t185.5-97.5T552 333 484.5 85.5 299-12zm0 71q80 0 125.5 77.5T470 333q0 120-45 197t-126 77q-80 0-125-77t-45-197q0-119 45-196.5T299 59zm51 662q-22 0-37.5 14.5t-23 32.5-18.5 32.5-24 14.5q-18 0-29-22t-11-66h-42q0 60 22 97t63 37q22 0 37.5-14.5t23-32 18.5-32 24-14.5q40 0 40 87h42q0-60-22-97t-63-37z"/><glyph glyph-name="Odieresis" unicode="Ö" horiz-adv-x="599" d="M431 770q0-18-13.5-31T386 726q-19 0-32 13t-13 31q0 19 13 32t32 13q18 0 31.5-13t13.5-32zm-174 0q0-18-13-31t-32-13q-18 0-31.5 13T167 770q0 19 13.5 32t31.5 13q19 0 32-13t13-32zm42-782q-118 0-185 97.5T47 333t67 247.5T299 678t185.5-97.5T552 333 484.5 85.5 299-12zm0 71q80 0 125.5 77.5T470 333q0 120-45 197t-126 77q-80 0-125-77t-45-197q0-119 45-196.5T299 59z"/><glyph glyph-name="multiply" unicode="×" horiz-adv-x="439" d="M347 170L219 298 92 170l-37 36 128 128L55 462l37 36 127-128 128 128 36-36-128-128 128-128z"/><glyph glyph-name="Oslash" unicode="Ø" horiz-adv-x="599" d="M299-12q-78 0-135 45L146 0H87l38 70q-78 96-78 263 0 150 67 247.5T299 678q76 0 133-44l18 33h59l-38-70q81-98 81-264 0-150-67.5-247.5T299-12zm0 71q80 0 125.5 77.5T470 333q0 115-41 188L201 101q40-42 98-42zM129 333q0-112 38-185l228 419q-42 40-96 40-80 0-125-77t-45-197z"/><glyph glyph-name="Ugrave" unicode="Ù" horiz-adv-x="569" d="M284-12q-101 0-157.5 59.5T70 216v451h80V215q0-77 35-116.5T284 59q65 0 100 39.5T419 215v452h79V216q0-110-56-169T284-12zm47 735h-52L145 867h73z"/><glyph glyph-name="Uacute" unicode="Ú" horiz-adv-x="569" d="M424 867L290 723h-52l113 144h73zM284-12q-101 0-157.5 59.5T70 216v451h80V215q0-77 35-116.5T284 59q65 0 100 39.5T419 215v452h79V216q0-110-56-169T284-12z"/><glyph glyph-name="Ucircumflex" unicode="Û" horiz-adv-x="569" d="M402 723h-47l-71 105-69-105h-46l80 144h70zM284-12q-101 0-157.5 59.5T70 216v451h80V215q0-77 35-116.5T284 59q65 0 100 39.5T419 215v452h79V216q0-110-56-169T284-12z"/><glyph glyph-name="Udieresis" unicode="Ü" horiz-adv-x="569" d="M417 770q0-18-13.5-31T372 726q-19 0-32 13t-13 31q0 19 13 32t32 13q18 0 31.5-13t13.5-32zm-174 0q0-18-13-31t-32-13q-18 0-31.5 13T153 770q0 19 13.5 32t31.5 13q19 0 32-13t13-32zm41-782q-101 0-157.5 59.5T70 216v451h80V215q0-77 35-116.5T284 59q65 0 100 39.5T419 215v452h79V216q0-110-56-169T284-12z"/><glyph glyph-name="Yacute" unicode="Ý" horiz-adv-x="499" d="M289 0h-79v282L4 667h89l157-308 157 308h88L289 282V0zm100 867L255 723h-52l113 144h73z"/><glyph glyph-name="Thorn" unicode="Þ" horiz-adv-x="487" d="M150 0H70v667h80V547h123q88 0 136-57.5T457 346q0-85-48.5-142T273 147H150V0zm115 218q51 0 80.5 35t29.5 93-29.5 94.5T265 477H150V218h115z"/><glyph glyph-name="germandbls" unicode="ß" horiz-adv-x="524" d="M507 126q0-58-42.5-98T350-12q-54 0-89.5 17.5T194 57l34 51q46-61 117-61 41 0 65.5 22t24.5 56q0 31-23.5 51.5T354 211t-67.5 29.5-57 46T206 362q0 27 12.5 50t30.5 38 36 29 30.5 30.5T328 545q0 30-26 49t-62 19q-43 0-70.5-27T142 509V0H71v509q0 73 46.5 120.5T241 677q67 0 113-35t46-90q0-36-19.5-63.5T338 446t-42.5-36-19.5-45q0-28 24-47t58-32 67.5-29.5T483 207t24-81z"/><glyph glyph-name="agrave" unicode="à" horiz-adv-x="451" d="M386 0h-72v52q-45-64-127-64-61 0-103.5 44T41 149t42 116 104 43q84 0 127-62v84q0 49-26 76t-73 27q-69 0-121-59l-32 51q67 70 164 70 75 0 117.5-38.5T386 338V0zM210 40q70 0 104 61v92q-33 62-104 62-44 0-70-30.5T114 148t26-77 70-31zm63 516h-52L87 700h73z"/><glyph glyph-name="aacute" unicode="á" horiz-adv-x="451" d="M386 0h-72v52q-45-64-127-64-61 0-103.5 44T41 149t42 116 104 43q84 0 127-62v84q0 49-26 76t-73 27q-69 0-121-59l-32 51q67 70 164 70 75 0 117.5-38.5T386 338V0zM210 40q70 0 104 61v92q-33 62-104 62-44 0-70-30.5T114 148t26-77 70-31zm155 660L231 556h-52l113 144h73z"/><glyph glyph-name="acircumflex" unicode="â" horiz-adv-x="451" d="M386 0h-72v52q-45-64-127-64-61 0-103.5 44T41 149t42 116 104 43q84 0 127-62v84q0 49-26 76t-73 27q-69 0-121-59l-32 51q67 70 164 70 75 0 117.5-38.5T386 338V0zM210 40q70 0 104 61v92q-33 62-104 62-44 0-70-30.5T114 148t26-77 70-31zm135 516h-47l-71 105-69-105h-46l80 144h70z"/><glyph glyph-name="atilde" unicode="ã" horiz-adv-x="451" d="M386 0h-72v52q-45-64-127-64-61 0-103.5 44T41 149t42 116 104 43q84 0 127-62v84q0 49-26 76t-73 27q-69 0-121-59l-32 51q67 70 164 70 75 0 117.5-38.5T386 338V0zM210 40q70 0 104 61v92q-33 62-104 62-44 0-70-30.5T114 148t26-77 70-31zm67 514q-22 0-37.5 14.5t-23 32.5-18.5 32.5-24 14.5q-18 0-29-22t-11-66H92q0 60 22 97t63 37q22 0 37.5-14.5t23-32 18.5-32 24-14.5q40 0 40 87h42q0-60-22-97t-63-37z"/><glyph glyph-name="adieresis" unicode="ä" horiz-adv-x="451" d="M386 0h-72v52q-45-64-127-64-61 0-103.5 44T41 149t42 116 104 43q84 0 127-62v84q0 49-26 76t-73 27q-69 0-121-59l-32 51q67 70 164 70 75 0 117.5-38.5T386 338V0zM210 40q70 0 104 61v92q-33 62-104 62-44 0-70-30.5T114 148t26-77 70-31zm148 563q0-18-13.5-31T313 559q-19 0-32 13t-13 31q0 19 13 32t32 13q18 0 31.5-13t13.5-32zm-174 0q0-18-13-31t-32-13q-18 0-31.5 13T94 603q0 19 13.5 32t31.5 13q19 0 32-13t13-32z"/><glyph glyph-name="aring" unicode="å" horiz-adv-x="451" d="M386 0h-72v52q-45-64-127-64-61 0-103.5 44T41 149t42 116 104 43q84 0 127-62v84q0 49-26 76t-73 27q-69 0-121-59l-32 51q67 70 164 70 75 0 117.5-38.5T386 338V0zM210 40q70 0 104 61v92q-33 62-104 62-44 0-70-30.5T114 148t26-77 70-31zm17 504q-37 0-64 27t-27 64 27 64 64 27 63.5-26.5T317 635t-26.5-64.5T227 544zm0 38q22 0 37 15.5t15 37.5-15 37.5-37 15.5-37.5-15.5T174 635t15.5-37.5T227 582z"/><glyph glyph-name="ae" unicode="æ" horiz-adv-x="736" d="M697 218H400q2-75 36.5-122.5T530 48q65 0 109 60l38-43q-63-77-152-77-108 0-159 103-21-46-63-74.5T205-12q-73 0-118.5 43T41 148q0 73 43 116.5T193 308q88 0 136-61v83q0 49-27.5 76T224 433q-74 0-130-59l-32 51q69 70 168 70 55 0 93-25t48-71q47 96 144 96 88 0 135-72t47-184v-21zm-298 53h227q0 65-27.5 114.5T513 435q-55 0-83.5-50.5T399 271zm-70-97v19q-38 62-112 62-47 0-75-28t-28-76 28-76 75-28q49 0 80.5 37t31.5 90z"/><glyph glyph-name="ccedilla" unicode="ç" horiz-adv-x="406" d="M242-189q-52 0-89 30l18 37q31-28 70-28 22 0 38 11.5t16 30.5q0 34-33 34-20 0-33-15l-32 18 22 61Q138-1 90 69.5T42 242q0 110 54.5 181.5T242 495q86 0 138-64l-39-49q-36 49-93 49-62 0-96.5-54T117 242t34.5-135.5T248 52q56 0 93 49l39-49Q334-6 261-11l-16-43q12 11 33 11 26 0 43-18t17-48q0-35-27.5-57.5T242-189z"/><glyph glyph-name="egrave" unicode="è" horiz-adv-x="468" d="M249-12q-95 0-151 70.5T42 242q0 108 53.5 180.5T238 495q92 0 141.5-72T429 240v-22H116q2-75 39-122.5T255 48q68 0 115 59l38-42q-63-77-159-77zm109 283q-1 65-31 114.5T237 435q-58 0-88.5-50.5T116 271h242zm-73 285h-52L99 700h73z"/><glyph glyph-name="eacute" unicode="é" horiz-adv-x="468" d="M377 700L243 556h-52l113 144h73zM249-12q-95 0-151 70.5T42 242q0 108 53.5 180.5T238 495q92 0 141.5-72T429 240v-22H116q2-75 39-122.5T255 48q68 0 115 59l38-42q-63-77-159-77zm109 283q-1 65-31 114.5T237 435q-58 0-88.5-50.5T116 271h242z"/><glyph glyph-name="ecircumflex" unicode="ê" horiz-adv-x="468" d="M356 556h-47l-71 105-69-105h-46l80 144h70zM249-12q-95 0-151 70.5T42 242q0 108 53.5 180.5T238 495q92 0 141.5-72T429 240v-22H116q2-75 39-122.5T255 48q68 0 115 59l38-42q-63-77-159-77zm109 283q-1 65-31 114.5T237 435q-58 0-88.5-50.5T116 271h242z"/><glyph glyph-name="edieresis" unicode="ë" horiz-adv-x="468" d="M370 603q0-18-13.5-31T325 559q-19 0-32 13t-13 31q0 19 13 32t32 13q18 0 31.5-13t13.5-32zm-174 0q0-18-13-31t-32-13q-18 0-31.5 13T106 603q0 19 13.5 32t31.5 13q19 0 32-13t13-32zm53-615q-95 0-151 70.5T42 242q0 108 53.5 180.5T238 495q92 0 141.5-72T429 240v-22H116q2-75 39-122.5T255 48q68 0 115 59l38-42q-63-77-159-77zm109 283q-1 65-31 114.5T237 435q-58 0-88.5-50.5T116 271h242z"/><glyph glyph-name="igrave" unicode="ì" horiz-adv-x="203" d="M137 0H66v483h71V0zm11 556H96L-38 700h73z"/><glyph glyph-name="iacute" unicode="í" horiz-adv-x="203" d="M241 700L107 556H55l113 144h73zM137 0H66v483h71V0z"/><glyph glyph-name="icircumflex" unicode="î" horiz-adv-x="203" d="M218 556h-47l-71 105-69-105h-46l80 144h70zM137 0H66v483h71V0z"/><glyph glyph-name="idieresis" unicode="ï" horiz-adv-x="203" d="M233 603q0-18-13.5-31T188 559q-19 0-32 13t-13 31q0 19 13 32t32 13q18 0 31.5-13t13.5-32zm-174 0q0-18-13-31t-32-13q-18 0-31.5 13T-31 603q0 19 13.5 32T14 648q19 0 32-13t13-32zM137 0H66v483h71V0z"/><glyph glyph-name="eth" unicode="ð" horiz-adv-x="477" d="M120 505l-18 40 111 49q-38 38-58 55l51 46q42-38 71-73l92 41 17-39-80-36q129-163 129-337 0-116-51.5-189.5T238-12q-92 0-144 70.5T42 235q0 104 48.5 174.5T222 480q75 0 120-75-36 83-99 155zM238 52q60 0 91 53t31 130q0 76-31 128.5T238 416q-59 0-90-53t-31-128q0-76 31-129.5T238 52z"/><glyph glyph-name="ntilde" unicode="ñ" d="M399 0h-72v344q0 87-77 87-34 0-64.5-22.5T137 354V0H66v483h71v-69q23 34 61 57.5t79 23.5q122 0 122-131V0zM284 554q-22 0-37.5 14.5t-23 32.5-18.5 32.5-24 14.5q-18 0-29-22t-11-66H99q0 60 22 97t63 37q22 0 37.5-14.5t23-32 18.5-32 24-14.5q40 0 40 87h42q0-60-22-97t-63-37z"/><glyph glyph-name="ograve" unicode="ò" horiz-adv-x="477" d="M238-12q-92 0-144 73T42 242q0 107 52 180t144 73q93 0 145-72.5T435 242 383 61 238-12zm0 64q60 0 91 55t31 135q0 79-31 134t-91 55q-59 0-90-55t-31-134q0-80 31-135t90-55zm48 504h-52L100 700h73z"/><glyph glyph-name="oacute" unicode="ó" horiz-adv-x="477" d="M378 700L244 556h-52l113 144h73zM238-12q-92 0-144 73T42 242q0 107 52 180t144 73q93 0 145-72.5T435 242 383 61 238-12zm0 64q60 0 91 55t31 135q0 79-31 134t-91 55q-59 0-90-55t-31-134q0-80 31-135t90-55z"/><glyph glyph-name="ocircumflex" unicode="ô" horiz-adv-x="477" d="M356 556h-47l-71 105-69-105h-46l80 144h70zM238-12q-92 0-144 73T42 242q0 107 52 180t144 73q93 0 145-72.5T435 242 383 61 238-12zm0 64q60 0 91 55t31 135q0 79-31 134t-91 55q-59 0-90-55t-31-134q0-80 31-135t90-55z"/><glyph glyph-name="otilde" unicode="õ" horiz-adv-x="477" d="M238-12q-92 0-144 73T42 242q0 107 52 180t144 73q93 0 145-72.5T435 242 383 61 238-12zm0 64q60 0 91 55t31 135q0 79-31 134t-91 55q-59 0-90-55t-31-134q0-80 31-135t90-55zm51 502q-22 0-37.5 14.5t-23 32.5-18.5 32.5-24 14.5q-18 0-29-22t-11-66h-42q0 60 22 97t63 37q22 0 37.5-14.5t23-32 18.5-32 24-14.5q40 0 40 87h42q0-60-22-97t-63-37z"/><glyph glyph-name="odieresis" unicode="ö" horiz-adv-x="477" d="M371 603q0-18-13.5-31T326 559q-19 0-32 13t-13 31q0 19 13 32t32 13q18 0 31.5-13t13.5-32zm-174 0q0-18-13-31t-32-13q-18 0-31.5 13T107 603q0 19 13.5 32t31.5 13q19 0 32-13t13-32zm41-615q-92 0-144 73T42 242q0 107 52 180t144 73q93 0 145-72.5T435 242 383 61 238-12zm0 64q60 0 91 55t31 135q0 79-31 134t-91 55q-59 0-90-55t-31-134q0-80 31-135t90-55z"/><glyph glyph-name="divide" unicode="÷" horiz-adv-x="443" d="M267 502q0-18-13-31.5T222 457t-32 13.5-13 31.5q0 19 13 32t32 13 32-13 13-32zm147-190H29v51h385v-51zM267 168q0-19-13-32t-32-13-32 13-13 32q0 18 13 31.5t32 13.5 32-13.5 13-31.5z"/><glyph glyph-name="oslash" unicode="ø" horiz-adv-x="477" d="M104 0H55l39 60q-52 72-52 182 0 107 52 180t144 73q66 0 113-39l17 27h50l-38-58q55-70 55-183 0-108-52-181T238-12q-68 0-115 41zm134 52q60 0 91 55t31 135q0 66-23 117L161 88q31-36 77-36zM117 242q0-66 21-115l175 271q-31 33-75 33-59 0-90-55t-31-134z"/><glyph glyph-name="ugrave" unicode="ù" d="M399 0h-72v67q-24-34-60.5-56.5T187-12Q66-12 66 117v366h71V138q0-86 77-86 35 0 65.5 21.5T327 127v356h72V0zM279 556h-52L93 700h73z"/><glyph glyph-name="uacute" unicode="ú" d="M371 700L237 556h-52l113 144h73zM399 0h-72v67q-24-34-60.5-56.5T187-12Q66-12 66 117v366h71V138q0-86 77-86 35 0 65.5 21.5T327 127v356h72V0z"/><glyph glyph-name="ucircumflex" unicode="û" d="M349 556h-47l-71 105-69-105h-46l80 144h70zM399 0h-72v67q-24-34-60.5-56.5T187-12Q66-12 66 117v366h71V138q0-86 77-86 35 0 65.5 21.5T327 127v356h72V0z"/><glyph glyph-name="udieresis" unicode="ü" d="M366 603q0-18-13.5-31T321 559q-19 0-32 13t-13 31q0 19 13 32t32 13q18 0 31.5-13t13.5-32zm-174 0q0-18-13-31t-32-13q-18 0-31.5 13T102 603q0 19 13.5 32t31.5 13q19 0 32-13t13-32zM399 0h-72v67q-24-34-60.5-56.5T187-12Q66-12 66 117v366h71V138q0-86 77-86 35 0 65.5 21.5T327 127v356h72V0z"/><glyph glyph-name="yacute" unicode="ý" horiz-adv-x="408" d="M41-189l11 64q13-7 32-7 22 0 34.5 10.5T141-84l26 74L6 483h78L204 87l121 396h77L209-102q-17-51-46.5-72.5T89-196q-29 0-48 7zm302 889L209 556h-52l113 144h73z"/><glyph glyph-name="thorn" unicode="þ" horiz-adv-x="478" d="M264-12q-83 0-127 80v-252H66v851h71V416q21 37 54.5 58t72.5 21q81 0 127-69t46-184-46-184.5T264-12zm-18 64q57 0 86.5 53.5T362 242t-29.5 136-86.5 53q-33 0-63.5-22.5T137 353V132q15-33 45.5-56.5T246 52z"/><glyph glyph-name="ydieresis" unicode="ÿ" horiz-adv-x="408" d="M41-189l11 64q13-7 32-7 22 0 34.5 10.5T141-84l26 74L6 483h78L204 87l121 396h77L209-102q-17-51-46.5-72.5T89-196q-29 0-48 7zm296 792q0-18-13.5-31T292 559q-19 0-32 13t-13 31q0 19 13 32t32 13q18 0 31.5-13t13.5-32zm-174 0q0-18-13-31t-32-13q-18 0-31.5 13T73 603q0 19 13.5 32t31.5 13q19 0 32-13t13-32z"/><glyph glyph-name="Amacron" unicode="Ā" horiz-adv-x="511" d="M503 0h-86l-43 151H137L94 0H8l200 667h95zM357 221L255 579 154 221h203zm51 519H102v46h306v-46z"/><glyph glyph-name="amacron" unicode="ā" horiz-adv-x="451" d="M386 0h-72v52q-45-64-127-64-61 0-103.5 44T41 149t42 116 104 43q84 0 127-62v84q0 49-26 76t-73 27q-69 0-121-59l-32 51q67 70 164 70 75 0 117.5-38.5T386 338V0zM210 40q70 0 104 61v92q-33 62-104 62-44 0-70-30.5T114 148t26-77 70-31zm169 533H73v46h306v-46z"/><glyph glyph-name="Abreve" unicode="Ă" horiz-adv-x="511" d="M503 0h-86l-43 151H137L94 0H8l200 667h95zM357 221L255 579 154 221h203zm46 565q-56-74-147-74-92 0-148 74l37 30q39-57 111-57 71 0 110 57z"/><glyph glyph-name="abreve" unicode="ă" horiz-adv-x="451" d="M386 0h-72v52q-45-64-127-64-61 0-103.5 44T41 149t42 116 104 43q84 0 127-62v84q0 49-26 76t-73 27q-69 0-121-59l-32 51q67 70 164 70 75 0 117.5-38.5T386 338V0zM210 40q70 0 104 61v92q-33 62-104 62-44 0-70-30.5T114 148t26-77 70-31zm163 579q-56-74-147-74-92 0-148 74l37 30q39-57 111-57 71 0 110 57z"/><glyph glyph-name="Aogonek" unicode="Ą" horiz-adv-x="511" d="M511-110l36-20q-22-56-78-56-36 0-58 20.5T389-105q0 60 52 105h-24l-43 151H137L94 0H8l200 667h95L503 0q-71-41-71-103 0-45 37-45 31 0 42 38zM357 221L255 579 154 221h203z"/><glyph glyph-name="aogonek" unicode="ą" horiz-adv-x="451" d="M394-110l36-20q-22-56-78-56-36 0-58 20.5T272-105q0 60 52 105h-10v52q-45-64-127-64-61 0-103.5 44T41 149t42 116 104 43q84 0 127-62v84q0 49-26 76t-73 27q-69 0-121-59l-32 51q67 70 164 70 75 0 117.5-38.5T386 338V0q-71-41-71-103 0-45 37-45 31 0 42 38zM210 40q70 0 104 61v92q-33 62-104 62-44 0-70-30.5T114 148t26-77 70-31z"/><glyph glyph-name="Cacute" unicode="Ć" horiz-adv-x="533" d="M445 867L311 723h-52l113 144h73zM306-12q-118 0-188.5 96.5T47 333t70.5 248.5T306 678q127 0 195-130l-66-31q-45 90-129 90-80 0-128.5-77T129 333t48.5-197T306 59q87 0 130 99l67-31Q434-12 306-12z"/><glyph glyph-name="cacute" unicode="ć" horiz-adv-x="406" d="M381 700L247 556h-52l113 144h73zM242-12q-91 0-145.5 72T42 242t54.5 181.5T242 495q86 0 138-64l-39-49q-36 49-93 49-62 0-96.5-54T117 242t34.5-135.5T248 52q56 0 93 49l39-49q-51-64-138-64z"/><glyph glyph-name="Ccircumflex" unicode="Ĉ" horiz-adv-x="533" d="M423 723h-47l-71 105-69-105h-46l80 144h70zM306-12q-118 0-188.5 96.5T47 333t70.5 248.5T306 678q127 0 195-130l-66-31q-45 90-129 90-80 0-128.5-77T129 333t48.5-197T306 59q87 0 130 99l67-31Q434-12 306-12z"/><glyph glyph-name="ccircumflex" unicode="ĉ" horiz-adv-x="406" d="M360 556h-47l-71 105-69-105h-46l80 144h70zM242-12q-91 0-145.5 72T42 242t54.5 181.5T242 495q86 0 138-64l-39-49q-36 49-93 49-62 0-96.5-54T117 242t34.5-135.5T248 52q56 0 93 49l39-49q-51-64-138-64z"/><glyph glyph-name="Cdotaccent" unicode="Ċ" horiz-adv-x="533" d="M306-12q-118 0-188.5 96.5T47 333t70.5 248.5T306 678q127 0 195-130l-66-31q-45 90-129 90-80 0-128.5-77T129 333t48.5-197T306 59q87 0 130 99l67-31Q434-12 306-12zm0 735q-18 0-32 13.5T260 769q0 18 14 31.5t32 13.5q19 0 32-13t13-32-13-32.5-32-13.5z"/><glyph glyph-name="cdotaccent" unicode="ċ" horiz-adv-x="406" d="M242-12q-91 0-145.5 72T42 242t54.5 181.5T242 495q86 0 138-64l-39-49q-36 49-93 49-62 0-96.5-54T117 242t34.5-135.5T248 52q56 0 93 49l39-49q-51-64-138-64zm2 568q-18 0-32 13.5T198 602q0 18 14 31.5t32 13.5q19 0 32-13t13-32-13-32.5-32-13.5z"/><glyph glyph-name="Ccaron" unicode="Č" horiz-adv-x="533" d="M343 723h-70l-83 144h46l72-106 68 106h47zM306-12q-118 0-188.5 96.5T47 333t70.5 248.5T306 678q127 0 195-130l-66-31q-45 90-129 90-80 0-128.5-77T129 333t48.5-197T306 59q87 0 130 99l67-31Q434-12 306-12z"/><glyph glyph-name="ccaron" unicode="č" horiz-adv-x="406" d="M280 556h-70l-83 144h46l72-106 68 106h47zM242-12q-91 0-145.5 72T42 242t54.5 181.5T242 495q86 0 138-64l-39-49q-36 49-93 49-62 0-96.5-54T117 242t34.5-135.5T248 52q56 0 93 49l39-49q-51-64-138-64z"/><glyph glyph-name="Dcaron" unicode="Ď" horiz-adv-x="564" d="M317 723h-70l-83 144h46l72-106 68 106h47zM248 0H70v667h178q126 0 197-93t71-241-70.5-240.5T248 0zm0 71q89 0 137.5 72.5T434 333q0 118-48 191t-138 73h-98V71h98z"/><glyph glyph-name="dcaron" unicode="ď" horiz-adv-x="555" d="M560 614q0-39-20-75t-51-58l-31 25q23 16 39 40.5t18 46.5l-5-1h-6q-17 0-29 12t-12 30q0 19 13 32.5t32 13.5q22 0 37-18t15-48zM414 0h-72v69q-21-37-55-59t-72-22q-80 0-126.5 69T42 241q0 114 46 184t127 70q38 0 72-21t55-61v254h72V0zM233 52q34 0 64.5 23t44.5 55v222q-14 33-45 56t-64 23q-57 0-86.5-53.5T117 241t29.5-136T233 52z"/><glyph glyph-name="Dcroat" unicode="Đ" horiz-adv-x="587" d="M272 0H94v301H16v57h78v309h178q126 0 197-93t71-241-70.5-240.5T272 0zm0 71q89 0 137.5 72.5T458 333q0 118-48 191t-138 73h-98V358h124v-57H174V71h98z"/><glyph glyph-name="dcroat" unicode="đ" horiz-adv-x="484" d="M414 0h-72v69q-21-37-55-59t-72-22q-80 0-126.5 69T42 241q0 114 46 184t127 70q38 0 72-21t55-61v123H204v46h138v85h72v-85h60v-46h-60V0zM233 52q34 0 64.5 23t44.5 55v222q-14 33-45 56t-64 23q-57 0-86.5-53.5T117 241t29.5-136T233 52z"/><glyph glyph-name="Emacron" unicode="Ē" horiz-adv-x="461" d="M413 0H70v667h343v-70H150V376h256v-70H150V71h263V0zm-18 740H89v46h306v-46z"/><glyph glyph-name="emacron" unicode="ē" horiz-adv-x="468" d="M249-12q-95 0-151 70.5T42 242q0 108 53.5 180.5T238 495q92 0 141.5-72T429 240v-22H116q2-75 39-122.5T255 48q68 0 115 59l38-42q-63-77-159-77zm109 283q-1 65-31 114.5T237 435q-58 0-88.5-50.5T116 271h242zm33 302H85v46h306v-46z"/><glyph glyph-name="Ebreve" unicode="Ĕ" horiz-adv-x="461" d="M413 0H70v667h343v-70H150V376h256v-70H150V71h263V0zm-22 786q-56-74-147-74-92 0-148 74l37 30q39-57 111-57 71 0 110 57z"/><glyph glyph-name="ebreve" unicode="ĕ" horiz-adv-x="468" d="M249-12q-95 0-151 70.5T42 242q0 108 53.5 180.5T238 495q92 0 141.5-72T429 240v-22H116q2-75 39-122.5T255 48q68 0 115 59l38-42q-63-77-159-77zm109 283q-1 65-31 114.5T237 435q-58 0-88.5-50.5T116 271h242zm29 348q-56-74-147-74-92 0-148 74l37 30q39-57 111-57 71 0 110 57z"/><glyph glyph-name="Edotaccent" unicode="Ė" horiz-adv-x="461" d="M413 0H70v667h343v-70H150V376h256v-70H150V71h263V0zM247 723q-18 0-32 13.5T201 769q0 18 14 31.5t32 13.5q19 0 32-13t13-32-13-32.5-32-13.5z"/><glyph glyph-name="edotaccent" unicode="ė" horiz-adv-x="468" d="M249-12q-95 0-151 70.5T42 242q0 108 53.5 180.5T238 495q92 0 141.5-72T429 240v-22H116q2-75 39-122.5T255 48q68 0 115 59l38-42q-63-77-159-77zm109 283q-1 65-31 114.5T237 435q-58 0-88.5-50.5T116 271h242zM239 556q-18 0-32 13.5T193 602q0 18 14 31.5t32 13.5q19 0 32-13t13-32-13-32.5-32-13.5z"/><glyph glyph-name="Eogonek" unicode="Ę" horiz-adv-x="461" d="M413 0q-71-41-71-103 0-45 37-45 31 0 42 38l36-20q-22-56-78-56-36 0-58 20.5T299-105q0 60 52 105H70v667h343v-70H150V376h256v-70H150V71h263V0z"/><glyph glyph-name="eogonek" unicode="ę" horiz-adv-x="468" d="M327-110l36-20q-22-56-78-56-36 0-58 20.5T205-105q0 51 40 93-94 1-148.5 71.5T42 242q0 108 53.5 180.5T238 495q92 0 141.5-72T429 240v-22H116q2-75 39-122.5T255 48q68 0 115 59l38-42q-36-45-89-65-71-41-71-103 0-45 37-45 31 0 42 38zm31 381q-1 65-31 114.5T237 435q-58 0-88.5-50.5T116 271h242z"/><glyph glyph-name="Ecaron" unicode="Ě" horiz-adv-x="461" d="M278 723h-70l-83 144h46l72-106 68 106h47zM413 0H70v667h343v-70H150V376h256v-70H150V71h263V0z"/><glyph glyph-name="ecaron" unicode="ě" horiz-adv-x="468" d="M275 556h-70l-83 144h46l72-106 68 106h47zM249-12q-95 0-151 70.5T42 242q0 108 53.5 180.5T238 495q92 0 141.5-72T429 240v-22H116q2-75 39-122.5T255 48q68 0 115 59l38-42q-63-77-159-77zm109 283q-1 65-31 114.5T237 435q-58 0-88.5-50.5T116 271h242z"/><glyph glyph-name="Gcircumflex" unicode="Ĝ" horiz-adv-x="562" d="M425 723h-47l-71 105-69-105h-46l80 144h70zM306-13q-117 0-188 95.5T47 333t71 250 188 95q129 0 198-126l-64-33q-47 88-134 88-80 0-128.5-75.5T129 333q0-122 48.5-198T306 59q79 0 125 56v156H272v70h235V85q-79-98-201-98z"/><glyph glyph-name="gcircumflex" unicode="ĝ" horiz-adv-x="479" d="M358 556h-47l-71 105-69-105h-46l80 144h70zM223-196q-100 0-161 61l33 56q48-56 126-56 53 0 87 32.5T342-4v81q-21-38-55-60.5T215-6Q135-6 88.5 61.5T42 244q0 114 46 182.5T215 495t127-82v70h72V1q0-104-53.5-150.5T223-196zm10 254q33 0 64 23.5t45 56.5v214q-14 33-45 56t-64 23q-57 0-86.5-52.5T117 244t29.5-134T233 58z"/><glyph glyph-name="Gbreve" unicode="Ğ" horiz-adv-x="562" d="M306-13q-117 0-188 95.5T47 333t71 250 188 95q129 0 198-126l-64-33q-47 88-134 88-80 0-128.5-75.5T129 333q0-122 48.5-198T306 59q79 0 125 56v156H272v70h235V85q-79-98-201-98zm149 799q-56-74-147-74-92 0-148 74l37 30q39-57 111-57 71 0 110 57z"/><glyph glyph-name="gbreve" unicode="ğ" horiz-adv-x="479" d="M223-196q-100 0-161 61l33 56q48-56 126-56 53 0 87 32.5T342-4v81q-21-38-55-60.5T215-6Q135-6 88.5 61.5T42 244q0 114 46 182.5T215 495t127-82v70h72V1q0-104-53.5-150.5T223-196zm10 254q33 0 64 23.5t45 56.5v214q-14 33-45 56t-64 23q-57 0-86.5-52.5T117 244t29.5-134T233 58zm155 561q-56-74-147-74-92 0-148 74l37 30q39-57 111-57 71 0 110 57z"/><glyph glyph-name="Gdotaccent" unicode="Ġ" horiz-adv-x="562" d="M306-13q-117 0-188 95.5T47 333t71 250 188 95q129 0 198-126l-64-33q-47 88-134 88-80 0-128.5-75.5T129 333q0-122 48.5-198T306 59q79 0 125 56v156H272v70h235V85q-79-98-201-98zm1 736q-18 0-32 13.5T261 769q0 18 14 31.5t32 13.5q19 0 32-13t13-32-13-32.5-32-13.5z"/><glyph glyph-name="gdotaccent" unicode="ġ" horiz-adv-x="479" d="M223-196q-100 0-161 61l33 56q48-56 126-56 53 0 87 32.5T342-4v81q-21-38-55-60.5T215-6Q135-6 88.5 61.5T42 244q0 114 46 182.5T215 495t127-82v70h72V1q0-104-53.5-150.5T223-196zm10 254q33 0 64 23.5t45 56.5v214q-14 33-45 56t-64 23q-57 0-86.5-52.5T117 244t29.5-134T233 58zm7 498q-18 0-32 13.5T194 602q0 18 14 31.5t32 13.5q19 0 32-13t13-32-13-32.5-32-13.5z"/><glyph glyph-name="Gcommaaccent" unicode="Ģ" horiz-adv-x="562" d="M356-138q0-39-20-75t-51-58l-31 25q23 16 39 40.5t18 46.5l-5-1h-6q-17 0-29 12t-12 30q0 19 13 32.5T304-72q22 0 37-18t15-48zM306-13q-117 0-188 95.5T47 333t71 250 188 95q129 0 198-126l-64-33q-47 88-134 88-80 0-128.5-75.5T129 333q0-122 48.5-198T306 59q79 0 125 56v156H272v70h235V85q-79-98-201-98z"/><glyph glyph-name="gcommaaccent" unicode="ģ" horiz-adv-x="479" d="M190 611q0 43 20 81.5t49 58.5l32-26q-22-15-39-39t-18-46h2q2 1 3 1 17 0 31-13t14-31-13.5-31.5T238 552t-33.5 15-14.5 44zm33-807q-100 0-161 61l33 56q48-56 126-56 53 0 87 32.5T342-4v81q-21-38-55-60.5T215-6Q135-6 88.5 61.5T42 244q0 114 46 182.5T215 495t127-82v70h72V1q0-104-53.5-150.5T223-196zm10 254q33 0 64 23.5t45 56.5v214q-14 33-45 56t-64 23q-57 0-86.5-52.5T117 244t29.5-134T233 58z"/><glyph glyph-name="Hcircumflex" unicode="Ĥ" horiz-adv-x="574" d="M402 723h-47l-71 105-69-105h-46l80 144h70zM504 0h-80v308H150V0H70v667h80V378h274v289h80V0z"/><glyph glyph-name="hcircumflex" unicode="ĥ" d="M350 723h-47l-71 105-69-105h-46l80 144h70zM399 0h-71v345q0 86-78 86-34 0-64.5-22.5T137 354V0H66v667h71V414q23 34 61.5 57.5T278 495q121 0 121-129V0z"/><glyph glyph-name="Hbar" unicode="Ħ" horiz-adv-x="605" d="M520 0h-80v308H166V0H86v500H16v46h70v121h80V546h274v121h80V546h62v-46h-62V0zM166 378h274v122H166V378z"/><glyph glyph-name="hbar" unicode="ħ" horiz-adv-x="473" d="M285 536H145V414q23 34 61.5 57.5T286 495q121 0 121-129V0h-71v345q0 86-78 86-34 0-64.5-22.5T145 354V0H74v536H15v46h59v85h71v-85h140v-46z"/><glyph glyph-name="Itilde" unicode="Ĩ" horiz-adv-x="220" d="M150 0H70v667h80V0zm11 721q-22 0-37.5 14.5t-23 32.5T82 800.5 58 815q-18 0-29-22t-11-66h-42q0 60 22 97t63 37q22 0 37.5-14.5t23-32 18.5-32 24-14.5q40 0 40 87h42q0-60-22-97t-63-37z"/><glyph glyph-name="itilde" unicode="ĩ" horiz-adv-x="203" d="M137 0H66v483h71V0zm15 554q-22 0-37.5 14.5t-23 32.5T73 633.5 49 648q-18 0-29-22T9 560h-42q0 60 22 97t63 37q22 0 37.5-14.5t23-32 18.5-32 24-14.5q40 0 40 87h42q0-60-22-97t-63-37z"/><glyph glyph-name="Imacron" unicode="Ī" horiz-adv-x="220" d="M150 0H70v667h80V0zm113 740H-43v46h306v-46z"/><glyph glyph-name="imacron" unicode="ī" horiz-adv-x="203" d="M137 0H66v483h71V0zm118 573H-51v46h306v-46z"/><glyph glyph-name="Ibreve" unicode="Ĭ" horiz-adv-x="220" d="M150 0H70v667h80V0zm108 786q-56-74-147-74-92 0-148 74l37 30q39-57 111-57 71 0 110 57z"/><glyph glyph-name="ibreve" unicode="ĭ" horiz-adv-x="203" d="M137 0H66v483h71V0zm112 619q-56-74-147-74-92 0-148 74l37 30q39-57 111-57 71 0 110 57z"/><glyph glyph-name="Iogonek" unicode="Į" horiz-adv-x="220" d="M157-110l36-20q-22-56-78-56-36 0-58 20.5T35-105Q35-45 87 0H70v667h80V0h-1Q78-41 78-103q0-45 37-45 31 0 42 38z"/><glyph glyph-name="iogonek" unicode="į" horiz-adv-x="203" d="M145-110l36-20q-22-56-78-56-36 0-58 20.5T23-105Q23-45 75 0h-9v483h71V0Q66-41 66-103q0-45 37-45 31 0 42 38zm-44 663q-20 0-34.5 14.5T52 602t14.5 34.5T101 651t34.5-14.5T150 602t-14.5-34.5T101 553z"/><glyph glyph-name="Idotaccent" unicode="İ" horiz-adv-x="220" d="M150 0H70v667h80V0zm-39 723q-18 0-32 13.5T65 769q0 18 14 31.5t32 13.5q19 0 32-13t13-32-13-32.5-32-13.5z"/><glyph glyph-name="dotlessi" unicode="ı" horiz-adv-x="203" d="M137 0H66v483h71V0z"/><glyph glyph-name="IJ" unicode="Ĳ" horiz-adv-x="618" d="M150 0H70v667h80V0zm219-12q-86 0-140 61l36 62q42-52 98-52 50 0 78 30t28 84v494h79V171q0-91-49-137T369-12z"/><glyph glyph-name="ij" unicode="ĳ" horiz-adv-x="406" d="M101 553q-20 0-34.5 14.5T52 602t14.5 34.5T101 651t34.5-14.5T150 602t-14.5-34.5T101 553zM137 0H66v483h71V0zm167 553q-20 0-34.5 14.5T255 602t14.5 34.5T304 651t34.5-14.5T353 602t-14.5-34.5T304 553zm-84-749q-51 0-82 34l26 53q21-26 49-26 56 0 56 76v542h71V-59q0-137-120-137z"/><glyph glyph-name="Jcircumflex" unicode="Ĵ" horiz-adv-x="398" d="M405 723h-47l-71 105-69-105h-46l80 144h70zM149-12Q63-12 9 49l36 62q42-52 98-52 50 0 78 30t28 84v494h79V171q0-91-49-137T149-12z"/><glyph glyph-name="jcircumflex" unicode="ĵ" horiz-adv-x="203" d="M220 556h-47l-71 105-69-105h-46l80 144h70zM17-196q-51 0-82 34l26 53q21-26 49-26 56 0 56 76v542h71V-59q0-137-120-137z"/><glyph glyph-name="Kcommaaccent" unicode="Ķ" horiz-adv-x="512" d="M312-138q0-39-20-75t-51-58l-31 25q23 16 39 40.5t18 46.5l-5-1h-6q-17 0-29 12t-12 30q0 19 13 32.5T260-72q22 0 37-18t15-48zM496 0h-96L205 294l-55-80V0H70v667h80V321l233 346h94L254 350z"/><glyph glyph-name="kcommaaccent" unicode="ķ" horiz-adv-x="438" d="M275-138q0-39-20-75t-51-58l-31 25q23 16 39 40.5t18 46.5l-4-1h-7q-17 0-29 12t-12 30q0 19 13 32.5T223-72q22 0 37-18t15-48zM423 0h-85L205 218l-68-87V0H66v667h71V221l201 262h85L254 266z"/><glyph glyph-name="kgreenlandic" unicode="ĸ" horiz-adv-x="438" d="M423 0h-85L205 218l-68-87V0H66v483h71V221l201 262h85L254 266z"/><glyph glyph-name="Lacute" unicode="Ĺ" horiz-adv-x="421" d="M370 867L236 723h-52l113 144h73zM391 0H70v667h80V71h241V0z"/><glyph glyph-name="lacute" unicode="ĺ" horiz-adv-x="203" d="M241 867L107 723H55l113 144h73zM137 0H66v667h71V0z"/><glyph glyph-name="Lcommaaccent" unicode="Ļ" horiz-adv-x="421" d="M274-138q0-39-20-75t-51-58l-31 25q23 16 39 40.5t18 46.5l-5-1h-6q-17 0-29 12t-12 30q0 19 13 32.5T222-72q22 0 37-18t15-48zM391 0H70v667h80V71h241V0z"/><glyph glyph-name="lcommaaccent" unicode="ļ" horiz-adv-x="203" d="M158-138q0-39-20-75t-51-58l-31 25q23 16 39 40.5t18 46.5l-5-1h-6q-17 0-29 12t-12 30q0 19 13 32.5T106-72q22 0 37-18t15-48zM137 0H66v667h71V0z"/><glyph glyph-name="Lcaron" unicode="Ľ" horiz-adv-x="421" d="M321 614q0-39-20-75t-51-58l-31 25q23 16 39 40.5t18 46.5l-4-1h-7q-17 0-29 12t-12 30q0 19 13 32.5t32 13.5q22 0 37-18t15-48zM391 0H70v667h80V71h241V0z"/><glyph glyph-name="lcaron" unicode="ľ" horiz-adv-x="276" d="M297 614q0-39-20-75t-51-58l-31 25q23 16 39 40.5t18 46.5l-4-1h-7q-17 0-29 12t-12 30q0 19 13 32.5t32 13.5q22 0 37-18t15-48zM137 0H66v667h71V0z"/><glyph glyph-name="Ldot" unicode="Ŀ" horiz-adv-x="436" d="M391 0H70v667h80V71h241V0zm-12 342q0-22-16-38t-38-16-37.5 16-15.5 38q0 21 15.5 37t37.5 16 38-16 16-37z"/><glyph glyph-name="ldot" unicode="ŀ" horiz-adv-x="297" d="M137 0H66v667h71V0zm167 245q0-22-16-38t-38-16-37.5 16-15.5 38q0 21 15.5 37t37.5 16 38-16 16-37z"/><glyph glyph-name="Lslash" unicode="Ł" horiz-adv-x="438" d="M16 234v69l70 41v323h80V390l78 46v-70l-78-45V71h241V0H86v274z"/><glyph glyph-name="lslash" unicode="ł" horiz-adv-x="254" d="M16 245v58l76 43v321h71V387l75 43v-58l-75-43V0H92v288z"/><glyph glyph-name="Nacute" unicode="Ń" horiz-adv-x="572" d="M429 867L295 723h-52l113 144h73zM502 0h-77L150 497V0H70v667h80l272-487v487h80V0z"/><glyph glyph-name="nacute" unicode="ń" d="M371 700L237 556h-52l113 144h73zM399 0h-72v344q0 87-77 87-34 0-64.5-22.5T137 354V0H66v483h71v-69q23 34 61 57.5t79 23.5q122 0 122-131V0z"/><glyph glyph-name="Ncommaaccent" unicode="Ņ" horiz-adv-x="572" d="M342-138q0-39-20-75t-51-58l-31 25q23 16 39 40.5t18 46.5l-5-1h-6q-17 0-29 12t-12 30q0 19 13 32.5T290-72q22 0 37-18t15-48zM502 0h-77L150 497V0H70v667h80l272-487v487h80V0z"/><glyph glyph-name="ncommaaccent" unicode="ņ" d="M287-138q0-39-20-75t-51-58l-31 25q23 16 39 40.5t18 46.5l-4-1h-7q-17 0-29 12t-12 30q0 19 13 32.5T235-72q22 0 37-18t15-48zM399 0h-72v344q0 87-77 87-34 0-64.5-22.5T137 354V0H66v483h71v-69q23 34 61 57.5t79 23.5q122 0 122-131V0z"/><glyph glyph-name="Ncaron" unicode="Ň" horiz-adv-x="572" d="M322 723h-70l-83 144h46l72-106 68 106h47zM502 0h-77L150 497V0H70v667h80l272-487v487h80V0z"/><glyph glyph-name="ncaron" unicode="ň" d="M269 556h-70l-83 144h46l72-106 68 106h47zM399 0h-72v344q0 87-77 87-34 0-64.5-22.5T137 354V0H66v483h71v-69q23 34 61 57.5t79 23.5q122 0 122-131V0z"/><glyph glyph-name="napostrophe" unicode="ŉ" d="M151 676q0-39-20-75t-51-58l-31 25q23 16 39 40.5t18 46.5l-4-1h-7q-17 0-29 12t-12 30q0 19 13 32.5T99 742q22 0 37-18t15-48zM399 0h-72v344q0 87-77 87-34 0-64.5-22.5T137 354V0H66v483h71v-69q23 34 61 57.5t79 23.5q122 0 122-131V0z"/><glyph glyph-name="Eng" unicode="Ŋ" horiz-adv-x="572" d="M323-196q-86 0-140 61l36 61q40-52 98-52 49 0 77 30t28 84V5L150 509V0H70v667h80l272-499v499h80V-14q0-91-49-136.5T323-196z"/><glyph glyph-name="eng" unicode="ŋ" d="M399 364V-59q0-137-120-137-49 0-82 34l26 55q20-25 49-25 55 0 55 73v403q0 87-77 87-34 0-64.5-22.5T137 354V0H66v483h71v-69q23 34 61 57.5t79 23.5q122 0 122-131z"/><glyph glyph-name="Omacron" unicode="Ō" horiz-adv-x="599" d="M452 740H146v46h306v-46zM299-12q-118 0-185 97.5T47 333t67 247.5T299 678t185.5-97.5T552 333 484.5 85.5 299-12zm0 71q80 0 125.5 77.5T470 333q0 120-45 197t-126 77q-80 0-125-77t-45-197q0-119 45-196.5T299 59z"/><glyph glyph-name="omacron" unicode="ō" horiz-adv-x="477" d="M392 573H86v46h306v-46zM238-12q-92 0-144 73T42 242q0 107 52 180t144 73q93 0 145-72.5T435 242 383 61 238-12zm0 64q60 0 91 55t31 135q0 79-31 134t-91 55q-59 0-90-55t-31-134q0-80 31-135t90-55z"/><glyph glyph-name="Obreve" unicode="Ŏ" horiz-adv-x="599" d="M299-12q-118 0-185 97.5T47 333t67 247.5T299 678t185.5-97.5T552 333 484.5 85.5 299-12zm0 71q80 0 125.5 77.5T470 333q0 120-45 197t-126 77q-80 0-125-77t-45-197q0-119 45-196.5T299 59zm148 727q-56-74-147-74-92 0-148 74l37 30q39-57 111-57 71 0 110 57z"/><glyph glyph-name="obreve" unicode="ŏ" horiz-adv-x="477" d="M238-12q-92 0-144 73T42 242q0 107 52 180t144 73q93 0 145-72.5T435 242 383 61 238-12zm0 64q60 0 91 55t31 135q0 79-31 134t-91 55q-59 0-90-55t-31-134q0-80 31-135t90-55zm148 567q-56-74-147-74-92 0-148 74l37 30q39-57 111-57 71 0 110 57z"/><glyph glyph-name="Ohungarumlaut" unicode="Ő" horiz-adv-x="599" d="M340 867l-96-144h-43l75 144h64zm129 0l-96-144h-43l75 144h64zM299-12q-118 0-185 97.5T47 333t67 247.5T299 678t185.5-97.5T552 333 484.5 85.5 299-12zm0 71q80 0 125.5 77.5T470 333q0 120-45 197t-126 77q-80 0-125-77t-45-197q0-119 45-196.5T299 59z"/><glyph glyph-name="ohungarumlaut" unicode="ő" horiz-adv-x="477" d="M279 700l-96-144h-43l75 144h64zm129 0l-96-144h-43l75 144h64zM238-12q-92 0-144 73T42 242q0 107 52 180t144 73q93 0 145-72.5T435 242 383 61 238-12zm0 64q60 0 91 55t31 135q0 79-31 134t-91 55q-59 0-90-55t-31-134q0-80 31-135t90-55z"/><glyph glyph-name="OE" unicode="Œ" horiz-adv-x="850" d="M801 0H458v93q-26-53-71.5-79T290-12q-114 0-178.5 97.5T47 333q0 151 64.5 247.5T290 677q51 0 96.5-25.5T458 573v94h343v-70H538V376h256v-70H538V71h263V0zM458 201v265q-20 68-61 104t-96 36q-82 0-127-76.5T129 333t45-197 127-77q54 0 95.5 37T458 201z"/><glyph glyph-name="oe" unicode="œ" horiz-adv-x="785" d="M746 218H434q2-75 38.5-122.5T572 48q68 0 115 59l38-42q-63-77-158-77-122 0-170 124Q352-12 238-12q-92 0-144 73T42 242q0 107 52 180t144 73q62 0 101-35t58-87q19 52 58.5 87t99.5 35q92 0 141.5-72.5T746 239v-21zm-313 53h242q-1 65-31 114.5T554 435q-58 0-88.5-50.5T433 271zm-73-29q0 80-31 134.5T238 431q-58 0-89.5-55T117 242q0-80 31.5-135.5T238 51q59 0 90.5 55.5T360 242z"/><glyph glyph-name="Racute" unicode="Ŕ" horiz-adv-x="509" d="M400 867L266 723h-52l113 144h73zM464 0h-90L246 267h-96V0H70v667h204q81 0 132-54t51-145q0-83-39-131t-94-58zM265 337q51 0 80.5 36t29.5 94-29.5 94-80.5 36H150V337h115z"/><glyph glyph-name="racute" unicode="ŕ" horiz-adv-x="291" d="M309 700L175 556h-52l113 144h73zM137 0H66v483h71v-77q53 87 137 87v-74q-12 3-24 3-32 0-64.5-24T137 343V0z"/><glyph glyph-name="Rcommaaccent" unicode="Ŗ" horiz-adv-x="509" d="M310-138q0-39-20-75t-51-58l-31 25q23 16 39 40.5t18 46.5l-5-1h-6q-17 0-29 12t-12 30q0 19 13 32.5T258-72q22 0 37-18t15-48zM464 0h-90L246 267h-96V0H70v667h204q81 0 132-54t51-145q0-83-39-131t-94-58zM265 337q51 0 80.5 36t29.5 94-29.5 94-80.5 36H150V337h115z"/><glyph glyph-name="rcommaaccent" unicode="ŗ" horiz-adv-x="291" d="M201-138q0-39-20-75t-51-58l-31 25q23 16 39 40.5t18 46.5l-4-1h-7q-17 0-29 12t-12 30q0 19 13 32.5T149-72q22 0 37-18t15-48zM137 0H66v483h71v-77q53 87 137 87v-74q-12 3-24 3-32 0-64.5-24T137 343V0z"/><glyph glyph-name="Rcaron" unicode="Ř" horiz-adv-x="509" d="M291 723h-70l-83 144h46l72-106 68 106h47zM464 0h-90L246 267h-96V0H70v667h204q81 0 132-54t51-145q0-83-39-131t-94-58zM265 337q51 0 80.5 36t29.5 94-29.5 94-80.5 36H150V337h115z"/><glyph glyph-name="rcaron" unicode="ř" horiz-adv-x="291" d="M204 556h-70L51 700h46l72-106 68 106h47zM137 0H66v483h71v-77q53 87 137 87v-74q-12 3-24 3-32 0-64.5-24T137 343V0z"/><glyph glyph-name="Sacute" unicode="Ś" horiz-adv-x="470" d="M376 867L242 723h-52l113 144h73zM228-12Q103-12 29 72l44 61q61-74 155-74 60 0 91 31.5t31 77.5q0 44-31 75.5T243.5 295 155 338t-75 64.5T49 503q0 76 54 125.5T240 678q110 0 178-70l-42-60q-53 59-138 59-46 0-77-28t-31-72q0-33 22.5-58.5t55.5-41 72.5-36.5 72.5-43 55.5-62.5T431 173q0-79-52.5-132T228-12z"/><glyph glyph-name="sacute" unicode="ś" horiz-adv-x="387" d="M332 700L198 556h-52l113 144h73zM190-12Q86-12 27 56l36 51q50-61 126-61 42 0 67.5 21.5T282 124q0 31-25 52t-60 34.5-70.5 29.5T66 287.5 41 365q0 56 42 93t112 37q90 0 147-62l-34-49q-40 53-112 53-39 0-62.5-20T110 367q0-28 25-47t60-32.5 70.5-30.5 60.5-50 25-81q0-61-44-99.5T190-12z"/><glyph glyph-name="Scircumflex" unicode="Ŝ" horiz-adv-x="470" d="M355 723h-47l-71 105-69-105h-46l80 144h70zM228-12Q103-12 29 72l44 61q61-74 155-74 60 0 91 31.5t31 77.5q0 44-31 75.5T243.5 295 155 338t-75 64.5T49 503q0 76 54 125.5T240 678q110 0 178-70l-42-60q-53 59-138 59-46 0-77-28t-31-72q0-33 22.5-58.5t55.5-41 72.5-36.5 72.5-43 55.5-62.5T431 173q0-79-52.5-132T228-12z"/><glyph glyph-name="scircumflex" unicode="ŝ" horiz-adv-x="387" d="M311 556h-47l-71 105-69-105H78l80 144h70zM190-12Q86-12 27 56l36 51q50-61 126-61 42 0 67.5 21.5T282 124q0 31-25 52t-60 34.5-70.5 29.5T66 287.5 41 365q0 56 42 93t112 37q90 0 147-62l-34-49q-40 53-112 53-39 0-62.5-20T110 367q0-28 25-47t60-32.5 70.5-30.5 60.5-50 25-81q0-61-44-99.5T190-12z"/><glyph glyph-name="Scedilla" unicode="Ş" horiz-adv-x="470" d="M223-191q-51 0-89 30l18 37q31-28 70-28 22 0 38 11.5t16 30.5q0 34-33 34-20 0-33-15l-32 18 23 62Q94-2 29 72l44 61q61-74 155-74 60 0 91 31.5t31 77.5q0 44-31 75.5T243.5 295 155 338t-75 64.5T49 503q0 76 54 125.5T240 678q110 0 178-70l-42-60q-53 59-138 59-46 0-77-28t-31-72q0-33 22.5-58.5t55.5-41 72.5-36.5 72.5-43 55.5-62.5T431 173q0-76-48.5-128T243-11l-17-45q12 11 33 11 26 0 43-18t17-48q0-35-27.5-57.5T223-191z"/><glyph glyph-name="scedilla" unicode="ş" horiz-adv-x="387" d="M186-191q-52 0-89 30l18 37q31-28 70-28 22 0 38 11.5t16 30.5q0 34-33 34-20 0-33-15l-32 18 23 62Q79-3 27 56l36 51q50-61 126-61 42 0 67.5 21.5T282 124q0 31-25 52t-60 34.5-70.5 29.5T66 287.5 41 365q0 56 42 93t112 37q90 0 147-62l-34-49q-40 53-112 53-39 0-62.5-20T110 367q0-28 25-47t60-32.5 70.5-30.5 60.5-50 25-81q0-58-39-95.5T206-11l-17-45q12 11 33 11 26 0 43-18t17-48q0-35-27.5-57.5T186-191z"/><glyph glyph-name="Scaron" unicode="Š" horiz-adv-x="470" d="M275 723h-70l-83 144h46l72-106 68 106h47zM228-12Q103-12 29 72l44 61q61-74 155-74 60 0 91 31.5t31 77.5q0 44-31 75.5T243.5 295 155 338t-75 64.5T49 503q0 76 54 125.5T240 678q110 0 178-70l-42-60q-53 59-138 59-46 0-77-28t-31-72q0-33 22.5-58.5t55.5-41 72.5-36.5 72.5-43 55.5-62.5T431 173q0-79-52.5-132T228-12z"/><glyph glyph-name="scaron" unicode="š" horiz-adv-x="387" d="M231 556h-70L78 700h46l72-106 68 106h47zM190-12Q86-12 27 56l36 51q50-61 126-61 42 0 67.5 21.5T282 124q0 31-25 52t-60 34.5-70.5 29.5T66 287.5 41 365q0 56 42 93t112 37q90 0 147-62l-34-49q-40 53-112 53-39 0-62.5-20T110 367q0-28 25-47t60-32.5 70.5-30.5 60.5-50 25-81q0-61-44-99.5T190-12z"/><glyph glyph-name="Tcommaaccent" unicode="Ţ" horiz-adv-x="446" d="M278-138q0-39-20-75t-51-58l-31 25q23 16 39 40.5t18 46.5l-5-1h-6q-17 0-29 12t-12 30q0 19 13 32.5T226-72q22 0 37-18t15-48zM262 0h-79v597H25v70h396v-70H262V0z"/><glyph glyph-name="tcommaaccent" unicode="ţ" horiz-adv-x="263" d="M187-138q0-39-20-75t-51-58l-31 25q23 16 39 40.5t18 46.5l-4-1h-7q-17 0-29 12t-12 30q0 19 13 32.5T135-72q22 0 37-18t15-48zM177-12Q80-12 80 97v323H16v63h64v132h72V483h82v-63h-82V110q0-58 39-58 26 0 42 19l22-54q-29-29-78-29z"/><glyph glyph-name="Tcaron" unicode="Ť" horiz-adv-x="446" d="M260 723h-70l-83 144h46l72-106 68 106h47zm2-723h-79v597H25v70h396v-70H262V0z"/><glyph glyph-name="tcaron" unicode="ť" horiz-adv-x="273" d="M305 676q0-39-20-75t-51-58l-31 25q23 16 39 40.5t18 46.5l-4-1h-7q-17 0-29 12t-12 30q0 19 13 32.5t32 13.5q22 0 37-18t15-48zM177-12Q80-12 80 97v323H16v63h64v132h72V483h82v-63h-82V110q0-58 39-58 26 0 42 19l22-54q-29-29-78-29z"/><glyph glyph-name="Tbar" unicode="Ŧ" horiz-adv-x="446" d="M262 0h-79v296H70v46h113v255H25v70h396v-70H262V342h108v-46H262V0z"/><glyph glyph-name="tbar" unicode="ŧ" horiz-adv-x="263" d="M177-12Q80-12 80 97v131H16v46h64v146H16v63h64v132h72V483h82v-63h-82V274h52v-46h-52V110q0-58 39-58 26 0 42 19l22-54q-29-29-78-29z"/><glyph glyph-name="Utilde" unicode="Ũ" horiz-adv-x="569" d="M284-12q-101 0-157.5 59.5T70 216v451h80V215q0-77 35-116.5T284 59q65 0 100 39.5T419 215v452h79V216q0-110-56-169T284-12zm52 733q-22 0-37.5 14.5t-23 32.5-18.5 32.5-24 14.5q-18 0-29-22t-11-66h-42q0 60 22 97t63 37q22 0 37.5-14.5t23-32 18.5-32 24-14.5q40 0 40 87h42q0-60-22-97t-63-37z"/><glyph glyph-name="utilde" unicode="ũ" d="M399 0h-72v67q-24-34-60.5-56.5T187-12Q66-12 66 117v366h71V138q0-86 77-86 35 0 65.5 21.5T327 127v356h72V0zM282 554q-22 0-37.5 14.5t-23 32.5-18.5 32.5-24 14.5q-18 0-29-22t-11-66H97q0 60 22 97t63 37q22 0 37.5-14.5t23-32 18.5-32 24-14.5q40 0 40 87h42q0-60-22-97t-63-37z"/><glyph glyph-name="Umacron" unicode="Ū" horiz-adv-x="569" d="M284-12q-101 0-157.5 59.5T70 216v451h80V215q0-77 35-116.5T284 59q65 0 100 39.5T419 215v452h79V216q0-110-56-169T284-12zm154 752H132v46h306v-46z"/><glyph glyph-name="umacron" unicode="ū" d="M399 0h-72v67q-24-34-60.5-56.5T187-12Q66-12 66 117v366h71V138q0-86 77-86 35 0 65.5 21.5T327 127v356h72V0zm-14 573H79v46h306v-46z"/><glyph glyph-name="Ubreve" unicode="Ŭ" horiz-adv-x="569" d="M284-12q-101 0-157.5 59.5T70 216v451h80V215q0-77 35-116.5T284 59q65 0 100 39.5T419 215v452h79V216q0-110-56-169T284-12zm150 798q-56-74-147-74-92 0-148 74l37 30q39-57 111-57 71 0 110 57z"/><glyph glyph-name="ubreve" unicode="ŭ" d="M399 0h-72v67q-24-34-60.5-56.5T187-12Q66-12 66 117v366h71V138q0-86 77-86 35 0 65.5 21.5T327 127v356h72V0zm-19 619q-56-74-147-74-92 0-148 74l37 30q39-57 111-57 71 0 110 57z"/><glyph glyph-name="Uring" unicode="Ů" horiz-adv-x="569" d="M285 707q-37 0-64 26.5T194 798t27 64.5 64 26.5 63.5-26.5T375 798t-26.5-64.5T285 707zm0 38q22 0 37 15.5t15 37.5-15 37.5-37 15.5-37.5-15.5T232 798t15.5-37.5T285 745zm-1-757q-101 0-157.5 59.5T70 216v451h80V215q0-77 35-116.5T284 59q65 0 100 39.5T419 215v452h79V216q0-110-56-169T284-12z"/><glyph glyph-name="uring" unicode="ů" d="M233 544q-37 0-64 27t-27 64 27 64 64 27 63.5-26.5T323 635t-26.5-64.5T233 544zm0 38q22 0 37 15.5t15 37.5-15 37.5-37 15.5-37.5-15.5T180 635t15.5-37.5T233 582zM399 0h-72v67q-24-34-60.5-56.5T187-12Q66-12 66 117v366h71V138q0-86 77-86 35 0 65.5 21.5T327 127v356h72V0z"/><glyph glyph-name="Uhungarumlaut" unicode="Ű" horiz-adv-x="569" d="M284-12q-101 0-157.5 59.5T70 216v451h80V215q0-77 35-116.5T284 59q65 0 100 39.5T419 215v452h79V216q0-110-56-169T284-12zm42 879l-96-144h-43l75 144h64zm129 0l-96-144h-43l75 144h64z"/><glyph glyph-name="uhungarumlaut" unicode="ű" d="M399 0h-72v67q-24-34-60.5-56.5T187-12Q66-12 66 117v366h71V138q0-86 77-86 35 0 65.5 21.5T327 127v356h72V0zM273 700l-96-144h-43l75 144h64zm129 0l-96-144h-43l75 144h64z"/><glyph glyph-name="Uogonek" unicode="Ų" horiz-adv-x="569" d="M284-12q-101 0-157.5 59.5T70 216v451h80V215q0-77 35-116.5T284 59q65 0 100 39.5T419 215v452h79V216q0-85-34-140.5T366 0q-71-41-71-103 0-45 37-45 31 0 42 38l36-20q-22-56-78-56-36 0-58 20.5T252-105q0 51 40 93h-8z"/><glyph glyph-name="uogonek" unicode="ų" d="M399 0q-71-41-71-103 0-45 37-45 31 0 42 38l36-20q-22-56-78-56-36 0-58 20.5T285-105q0 60 52 105h-10v67q-24-34-60.5-56.5T187-12Q66-12 66 117v366h71V138q0-86 77-86 35 0 65.5 21.5T327 127v356h72V0z"/><glyph glyph-name="Wcircumflex" unicode="Ŵ" horiz-adv-x="715" d="M475 723h-47l-71 105-69-105h-46l80 144h70zM551 0h-85L357 526 249 0h-85L16 667h85l109-544 114 544h67l114-544 109 544h85z"/><glyph glyph-name="wcircumflex" unicode="ŵ" horiz-adv-x="638" d="M436 556h-47l-71 105-69-105h-46l80 144h70zM496 0h-74L319 388 215 0h-73L13 483h75l94-386 102 386h68L455 97l95 386h75z"/><glyph glyph-name="Ycircumflex" unicode="Ŷ" horiz-adv-x="499" d="M367 723h-47l-71 105-69-105h-46l80 144h70zM289 0h-79v282L4 667h89l157-308 157 308h88L289 282V0z"/><glyph glyph-name="ycircumflex" unicode="ŷ" horiz-adv-x="408" d="M41-189l11 64q13-7 32-7 22 0 34.5 10.5T141-84l26 74L6 483h78L204 87l121 396h77L209-102q-17-51-46.5-72.5T89-196q-29 0-48 7zm281 745h-47l-71 105-69-105H89l80 144h70z"/><glyph glyph-name="Ydieresis" unicode="Ÿ" horiz-adv-x="499" d="M384 770q0-18-13.5-31T339 726q-19 0-32 13t-13 31q0 19 13 32t32 13q18 0 31.5-13t13.5-32zm-174 0q0-18-13-31t-32-13q-18 0-31.5 13T120 770q0 19 13.5 32t31.5 13q19 0 32-13t13-32zM289 0h-79v282L4 667h89l157-308 157 308h88L289 282V0z"/><glyph glyph-name="Zacute" unicode="Ź" horiz-adv-x="462" d="M370 867L236 723h-52l113 144h73zM422 0H40v67l280 530H40v70h375v-66L134 71h288V0z"/><glyph glyph-name="zacute" unicode="ź" horiz-adv-x="387" d="M332 700L198 556h-52l113 144h73zM344 0H43v56l209 364H43v63h297v-55L131 63h213V0z"/><glyph glyph-name="Zdotaccent" unicode="Ż" horiz-adv-x="462" d="M422 0H40v67l280 530H40v70h375v-66L134 71h288V0zM229 723q-18 0-32 13.5T183 769q0 18 14 31.5t32 13.5q19 0 32-13t13-32-13-32.5-32-13.5z"/><glyph glyph-name="zdotaccent" unicode="ż" horiz-adv-x="387" d="M344 0H43v56l209 364H43v63h297v-55L131 63h213V0zM193 556q-18 0-32 13.5T147 602q0 18 14 31.5t32 13.5q19 0 32-13t13-32-13-32.5-32-13.5z"/><glyph glyph-name="Zcaron" unicode="Ž" horiz-adv-x="462" d="M267 723h-70l-83 144h46l72-106 68 106h47zM422 0H40v67l280 530H40v70h375v-66L134 71h288V0z"/><glyph glyph-name="zcaron" unicode="ž" horiz-adv-x="387" d="M227 556h-70L74 700h46l72-106 68 106h47zM344 0H43v56l209 364H43v63h297v-55L131 63h213V0z"/><glyph glyph-name="longs" unicode="ſ" horiz-adv-x="254" d="M155 0H83v420H19v63h64v59q0 63 32.5 99t88.5 36q53 0 86-32l-28-53q-20 21-47 21-60 0-60-71V0z"/><glyph glyph-name="florin" unicode="ƒ" horiz-adv-x="398" d="M104-161H24l91 416H58v65h72l50 228q13 58 54 93.5t96 35.5q51 0 80-30l-34-59q-13 19-40 19-29 0-49.5-20T258 533l-47-213h114v-65H196z"/><glyph glyph-name="Ohorn" unicode="Ơ" horiz-adv-x="599" d="M299-12q-118 0-185 97.5T47 333t67 247.5T299 678q121 0 191-107 39 34 42 74-2-2-10-2-17 0-28 12t-11 29 12 29.5 30 12.5q21 0 35-16.5t14-45.5q0-37-18.5-70.5T509 539q43-88 43-206 0-150-67.5-247.5T299-12zm0 71q80 0 125.5 77.5T470 333q0 120-45 197t-126 77q-80 0-125-77t-45-197q0-119 45-196.5T299 59z"/><glyph glyph-name="ohorn" unicode="ơ" horiz-adv-x="477" d="M447 530q0-69-57-119 45-67 45-169 0-108-52-181T238-12q-92 0-144 73T42 242q0 107 52 180t144 73q77 0 129-55 34 32 39 71-2-2-11-2-16 0-27 12t-11 29 12 29.5 30 12.5q20 0 34-16.5t14-45.5zM238 52q60 0 91 55t31 135q0 79-31 134t-91 55q-59 0-90-55t-31-134q0-80 31-135t90-55z"/><glyph glyph-name="Uhorn" unicode="Ư" horiz-adv-x="569" d="M602 729q0-45-27.5-85.5T498 579V216q0-110-56-169T284-12q-101 0-157.5 59.5T70 216v451h80V215q0-77 35-116.5T284 59q65 0 100 39.5T419 215v452h79v-48q25 15 43 41t20 49q-1 0-5-.5t-6-.5q-16 0-27 11.5T512 748q0 18 11.5 30t29.5 12q21 0 35-16.5t14-44.5z"/><glyph glyph-name="uhorn" unicode="ư" d="M399 0h-72v67q-24-34-60.5-56.5T187-12Q66-12 66 117v366h71V138q0-86 77-86 35 0 65.5 21.5T327 127v356h72v-41q39 36 42 74-7-1-10-1-17 0-28 11.5T392 555q0 18 12 30.5t30 12.5q21 0 35-17t14-45q0-86-84-139V0z"/><glyph glyph-name="AEacute" unicode="Ǽ" horiz-adv-x="751" d="M539 867L405 723h-52l113 144h73zM702 0H360v151H165L96 0H11l316 667h375v-70H439V376h256v-70H439V71h263V0zM360 221v358L195 221h165z"/><glyph glyph-name="aeacute" unicode="ǽ" horiz-adv-x="736" d="M490 700L356 556h-52l113 144h73zm207-482H400q2-75 36.5-122.5T530 48q65 0 109 60l38-43q-63-77-152-77-108 0-159 103-21-46-63-74.5T205-12q-73 0-118.5 43T41 148q0 73 43 116.5T193 308q88 0 136-61v83q0 49-27.5 76T224 433q-74 0-130-59l-32 51q69 70 168 70 55 0 93-25t48-71q47 96 144 96 88 0 135-72t47-184v-21zm-298 53h227q0 65-27.5 114.5T513 435q-55 0-83.5-50.5T399 271zm-70-97v19q-38 62-112 62-47 0-75-28t-28-76 28-76 75-28q49 0 80.5 37t31.5 90z"/><glyph glyph-name="Oslashacute" unicode="Ǿ" horiz-adv-x="599" d="M439 867L305 723h-52l113 144h73zM299-12q-78 0-135 45L146 0H87l38 70q-78 96-78 263 0 150 67 247.5T299 678q76 0 133-44l18 33h59l-38-70q81-98 81-264 0-150-67.5-247.5T299-12zm0 71q80 0 125.5 77.5T470 333q0 115-41 188L201 101q40-42 98-42zM129 333q0-112 38-185l228 419q-42 40-96 40-80 0-125-77t-45-197z"/><glyph glyph-name="oslashacute" unicode="ǿ" horiz-adv-x="477" d="M378 700L244 556h-52l113 144h73zM104 0H55l39 60q-52 72-52 182 0 107 52 180t144 73q66 0 113-39l17 27h50l-38-58q55-70 55-183 0-108-52-181T238-12q-68 0-115 41zm134 52q60 0 91 55t31 135q0 66-23 117L161 88q31-36 77-36zM117 242q0-66 21-115l175 271q-31 33-75 33-59 0-90-55t-31-134z"/><glyph glyph-name="Scommaaccent" unicode="Ș" horiz-adv-x="470" d="M285-138q0-39-20-75t-51-58l-31 25q23 16 39 40.5t18 46.5l-4-1h-7q-17 0-29 12t-12 30q0 19 13 32.5T233-72q22 0 37-18t15-48zM228-12Q103-12 29 72l44 61q61-74 155-74 60 0 91 31.5t31 77.5q0 44-31 75.5T243.5 295 155 338t-75 64.5T49 503q0 76 54 125.5T240 678q110 0 178-70l-42-60q-53 59-138 59-46 0-77-28t-31-72q0-33 22.5-58.5t55.5-41 72.5-36.5 72.5-43 55.5-62.5T431 173q0-79-52.5-132T228-12z"/><glyph glyph-name="scommaaccent" unicode="ș" horiz-adv-x="387" d="M250-138q0-39-20-75t-51-58l-31 25q23 16 39 40.5t18 46.5l-5-1h-6q-17 0-29 12t-12 30q0 19 13 32.5T198-72q22 0 37-18t15-48zM190-12Q86-12 27 56l36 51q50-61 126-61 42 0 67.5 21.5T282 124q0 31-25 52t-60 34.5-70.5 29.5T66 287.5 41 365q0 56 42 93t112 37q90 0 147-62l-34-49q-40 53-112 53-39 0-62.5-20T110 367q0-28 25-47t60-32.5 70.5-30.5 60.5-50 25-81q0-61-44-99.5T190-12z"/><glyph glyph-name="uni021A" unicode="Ț" horiz-adv-x="446" d="M278-138q0-39-20-75t-51-58l-31 25q23 16 39 40.5t18 46.5l-5-1h-6q-17 0-29 12t-12 30q0 19 13 32.5T226-72q22 0 37-18t15-48zM262 0h-79v597H25v70h396v-70H262V0z"/><glyph glyph-name="uni021B" unicode="ț" horiz-adv-x="263" d="M187-138q0-39-20-75t-51-58l-31 25q23 16 39 40.5t18 46.5l-4-1h-7q-17 0-29 12t-12 30q0 19 13 32.5T135-72q22 0 37-18t15-48zM177-12Q80-12 80 97v323H16v63h64v132h72V483h82v-63h-82V110q0-58 39-58 26 0 42 19l22-54q-29-29-78-29z"/><glyph glyph-name="uni0237" unicode="ȷ" horiz-adv-x="203" d="M17-196q-51 0-82 34l26 53q21-26 49-26 56 0 56 76v542h71V-59q0-137-120-137z"/><glyph glyph-name="hsuperior" unicode="ʰ" horiz-adv-x="342" d="M290 326h-56v218q0 57-52 57-22 0-42-14t-32-33V326H53v434h55V596q15 21 41.5 36.5T204 648q86 0 86-90V326z"/><glyph glyph-name="uni02BC" unicode="ʼ" horiz-adv-x="229" d="M173 603q0-44-22.5-84T93 454l-36 30q24 16 42.5 42.5T121 577q-4-2-13-2-20 0-33.5 14T61 625q0 21 15 36.5t37 15.5q25 0 42.5-20t17.5-54z"/><glyph glyph-name="circumflex" unicode="ˆ" horiz-adv-x="233" d="M233 556h-47l-71 105-69-105H0l80 144h70z"/><glyph glyph-name="caron" unicode="ˇ" horiz-adv-x="233" d="M153 556H83L0 700h46l72-106 68 106h47z"/><glyph glyph-name="uni02C9" unicode="ˉ" horiz-adv-x="306" d="M306 591H0v47h306v-47z"/><glyph glyph-name="uni02CB" unicode="ˋ" horiz-adv-x="186" d="M186 556h-52L0 700h73z"/><glyph glyph-name="breve" unicode="˘" horiz-adv-x="295" d="M295 619q-56-74-147-74-92 0-148 74l37 30q39-57 111-57 71 0 110 57z"/><glyph glyph-name="dotaccent" unicode="˙" horiz-adv-x="108" d="M54 556q-18 0-32 13.5T8 602q0 18 14 31.5T54 647q19 0 32-13t13-32-13-32.5T54 556z"/><glyph glyph-name="ring" unicode="˚" horiz-adv-x="181" d="M91 544q-37 0-64 27T0 635t27 64 64 27 63.5-26.5T181 635t-26.5-64.5T91 544zm0 38q22 0 37 15.5t15 37.5-15 37.5T91 688t-37.5-15.5T38 635t15.5-37.5T91 582z"/><glyph glyph-name="ogonek" unicode="˛" horiz-adv-x="158" d="M122-110l36-20q-22-56-78-56-36 0-58 20.5T0-105Q0-29 82 22l32-22Q43-41 43-103q0-45 37-45 31 0 42 38z"/><glyph glyph-name="tilde" unicode="˜" horiz-adv-x="270" d="M185 554q-22 0-37.5 14.5t-23 32.5-18.5 32.5T82 648q-18 0-29-22t-11-66H0q0 60 22 97t63 37q22 0 37.5-14.5t23-32 18.5-32 24-14.5q40 0 40 87h42q0-60-22-97t-63-37z"/><glyph glyph-name="hungarumlaut" unicode="˝" horiz-adv-x="268" d="M139 700L43 556H0l75 144h64zm129 0l-96-144h-43l75 144h64z"/><glyph glyph-name="hookabovecomb" unicode="̉" horiz-adv-x="158" d="M46 731l-32 8q14 51 65 51 28 0 45.5-16.5T142 725q0-29-19-58H86q23 27 23 57 0 35-30 35-25 0-33-28z"/><glyph glyph-name="uni037E" unicode=";" horiz-adv-x="228" d="M114 384q-22 0-37.5 16T61 437q0 22 15.5 37.5T114 490t38-15.5 16-37.5q0-21-16-37t-38-16zm59-360q0-44-22.5-84T93-125L57-95q24 16 42.5 42.5T121-2q-4-2-13-2-20 0-33.5 14T61 46q0 21 15 36.5T113 98q25 0 42.5-20T173 24z"/><glyph glyph-name="tonos" unicode="΄" horiz-adv-x="197" d="M137 566h-36l18 199h75z"/><glyph glyph-name="dieresistonos" unicode="΅" d="M239 566h-36l18 199h75zm163 37q0-18-13-31t-32-13-32 13-13 31q0 19 13 32t32 13 32-13 13-32zm-250 0q0-18-13-31t-32-13q-18 0-31.5 13T62 603q0 19 13.5 32t31.5 13q19 0 32-13t13-32z"/><glyph glyph-name="Alphatonos" unicode="Ά" horiz-adv-x="511" d="M126 566H90l18 199h75zM503 0h-86l-43 151H137L94 0H8l200 667h95zM357 221L255 579 154 221h203z"/><glyph glyph-name="Epsilontonos" unicode="Έ" horiz-adv-x="481" d="M26 566h-36L8 765h75zM433 0H90v667h343v-70H170V376h256v-70H170V71h263V0z"/><glyph glyph-name="Etatonos" unicode="Ή" horiz-adv-x="594" d="M26 566h-36L8 765h75zM524 0h-80v308H170V0H90v667h80V378h274v289h80V0z"/><glyph glyph-name="Iotatonos" unicode="Ί" horiz-adv-x="240" d="M26 566h-36L8 765h75zM170 0H90v667h80V0z"/><glyph glyph-name="Omicrontonos" unicode="Ό" horiz-adv-x="605" d="M53 566H17l18 199h75zM304-12q-118 0-185 97.5T52 333t67 247.5T304 678t185.5-97.5T557 333 489.5 85.5 304-12zm0 71q80 0 125.5 77.5T475 333q0 120-45 197t-126 77q-80 0-125-77t-45-197q0-119 45-196.5T304 59z"/><glyph glyph-name="Upsilontonos" unicode="Ύ" horiz-adv-x="560" d="M22 566h-36L4 765h75zM350 0h-79v282L65 667h89l157-308 157 308h88L350 282V0z"/><glyph glyph-name="Omegatonos" unicode="Ώ" horiz-adv-x="600" d="M53 566H17l18 199h75zM66 71h104Q52 159 52 347q0 149 67.5 240T305 678q117 0 185-90.5T558 347q0-188-118-276h104V0H358v71q48 20 82.5 88.5T475 333q0 124-44 198.5T305 606t-126.5-74.5T134 333q0-105 35-173.5T252 71V0H66v71z"/><glyph glyph-name="iotadieresistonos" unicode="ΐ" horiz-adv-x="215" d="M114 566H78l18 199h75zm163 37q0-18-13-31t-32-13-32 13-13 31q0 19 13 32t32 13 32-13 13-32zm-250 0q0-18-13-31t-32-13q-18 0-31.5 13T-63 603q0 19 13.5 32t31.5 13q19 0 32-13t13-32zM162-12Q66-12 66 97v386h71V106q0-54 39-54 12 0 17 1l5-61q-18-4-36-4z"/><glyph glyph-name="Alpha" unicode="Α" horiz-adv-x="511" d="M503 0h-86l-43 151H137L94 0H8l200 667h95zM357 221L255 579 154 221h203z"/><glyph glyph-name="Beta" unicode="Β" horiz-adv-x="516" d="M297 0H70v667h221q78 0 121.5-46.5T456 497q0-61-28-100.5T354 344q48-7 80.5-55T467 180q0-83-44-131.5T297 0zm-21 376q49 0 73.5 30.5T374 486t-24.5 80-73.5 31H150V376h126zm5-305q51 0 77.5 30.5T385 188q0 51-26.5 84.5T281 306H150V71h131z"/><glyph glyph-name="Gamma" unicode="Γ" horiz-adv-x="451" d="M150 0H70v667h343v-70H150V0z"/><glyph glyph-name="uni0394" unicode="Δ" horiz-adv-x="526" d="M518 0H8l207 667h95zM415 71L263 579 111 71h304z"/><glyph glyph-name="Epsilon" unicode="Ε" horiz-adv-x="461" d="M413 0H70v667h343v-70H150V376h256v-70H150V71h263V0z"/><glyph glyph-name="Zeta" unicode="Ζ" horiz-adv-x="462" d="M422 0H40v67l280 530H40v70h375v-66L134 71h288V0z"/><glyph glyph-name="Eta" unicode="Η" horiz-adv-x="574" d="M504 0h-80v308H150V0H70v667h80V378h274v289h80V0z"/><glyph glyph-name="Theta" unicode="Θ" horiz-adv-x="599" d="M428 306H172v70h256v-70zM299-12q-118 0-185 97.5T47 333t67 247.5T299 678t185.5-97.5T552 333 484.5 85.5 299-12zm0 71q80 0 125.5 77.5T470 333q0 120-45 197t-126 77q-80 0-125-77t-45-197q0-119 45-196.5T299 59z"/><glyph glyph-name="Iota" unicode="Ι" horiz-adv-x="220" d="M150 0H70v667h80V0z"/><glyph glyph-name="Kappa" unicode="Κ" horiz-adv-x="509" d="M496 0h-96L205 294l-55-80V0H70v667h80V321l233 346h94L254 350z"/><glyph glyph-name="Lambda" unicode="Λ" horiz-adv-x="511" d="M503 0h-86L255 579 94 0H8l200 667h95z"/><glyph glyph-name="Mu" unicode="Μ" horiz-adv-x="683" d="M613 0h-78v524L357 0h-31L150 524V0H70v667h111l161-474 162 474h109V0z"/><glyph glyph-name="Nu" unicode="Ν" horiz-adv-x="572" d="M502 0h-77L150 497V0H70v667h80l272-487v487h80V0z"/><glyph glyph-name="Xi" unicode="Ξ" horiz-adv-x="493" d="M445 597H49v70h396v-70zm0-597H48v71h397V0zm-7 306H56v70h382v-70z"/><glyph glyph-name="Omicron" unicode="Ο" horiz-adv-x="599" d="M299-12q-118 0-185 97.5T47 333t67 247.5T299 678t185.5-97.5T552 333 484.5 85.5 299-12zm0 71q80 0 125.5 77.5T470 333q0 120-45 197t-126 77q-80 0-125-77t-45-197q0-119 45-196.5T299 59z"/><glyph glyph-name="Pi" unicode="Π" horiz-adv-x="574" d="M504 0h-80v597H150V0H70v667h434V0z"/><glyph glyph-name="Rho" unicode="Ρ" horiz-adv-x="487" d="M150 0H70v667h203q88 0 136-57t48-143q0-85-48.5-142.5T273 267H150V0zm115 337q51 0 80.5 36t29.5 94-29.5 94-80.5 36H150V337h115z"/><glyph glyph-name="Sigma" unicode="Σ" horiz-adv-x="451" d="M139 597l172-253L136 71h271V0H48v72l173 271L49 597v70h358v-70H139z"/><glyph glyph-name="Tau" unicode="Τ" horiz-adv-x="446" d="M262 0h-79v597H25v70h396v-70H262V0z"/><glyph glyph-name="Upsilon" unicode="Υ" horiz-adv-x="499" d="M289 0h-79v282L4 667h89l157-308 157 308h88L289 282V0z"/><glyph glyph-name="Phi" unicode="Φ" horiz-adv-x="695" d="M387 0h-79v66q-126 10-193.5 83T47 333q0 110 67.5 183T308 600v67h79v-67q126-10 194-83.5T649 333t-68-183.5T387 65V0zm179 333q0 79-46 132.5T387 529V137q87 10 133 63.5T566 333zm-437 0q0-79 45.5-132T308 137v391q-88-10-133.5-63T129 333z"/><glyph glyph-name="Chi" unicode="Χ" horiz-adv-x="510" d="M502 0h-92L255 276 100 0H8l199 341L19 667h93l143-262 143 262h93L303 341z"/><glyph glyph-name="Psi" unicode="Ψ" horiz-adv-x="694" d="M387 0h-79v125q-113 10-175.5 73T70 369v298h80V371q0-157 158-174v470h79V197q157 17 157 174v296h80V370q0-110-62-172.5T387 125V0z"/><glyph glyph-name="uni03A9" unicode="Ω" horiz-adv-x="592" d="M57 71h104Q43 159 43 347q0 149 67.5 240T296 678q117 0 185-90.5T549 347q0-188-118-276h104V0H349v71q48 20 82.5 88.5T466 333q0 124-44 198.5T296 606t-126.5-74.5T125 333q0-105 35-173.5T243 71V0H57v71z"/><glyph glyph-name="Iotadieresis" unicode="Ϊ" horiz-adv-x="220" d="M150 0H70v667h80V0zm92 787q0-18-13.5-31T197 743q-19 0-32 13t-13 31q0 19 13 32t32 13q18 0 31.5-13t13.5-32zm-174 0q0-18-13-31t-32-13q-18 0-31.5 13T-22 787q0 19 13.5 32T23 832q19 0 32-13t13-32z"/><glyph glyph-name="Upsilondieresis" unicode="Ϋ" horiz-adv-x="499" d="M289 0h-79v282L4 667h89l157-308 157 308h88L289 282V0zm92 787q0-18-13.5-31T336 743q-19 0-32 13t-13 31q0 19 13 32t32 13q18 0 31.5-13t13.5-32zm-174 0q0-18-13-31t-32-13q-18 0-31.5 13T117 787q0 19 13.5 32t31.5 13q19 0 32-13t13-32z"/><glyph glyph-name="alphatonos" unicode="ά" horiz-adv-x="491" d="M255 566h-36l18 199h75zM469 53l6-61q-18-4-36-4-83 0-94 85-20-38-55-61.5T215-12q-80 0-126.5 69T42 241q0 114 46 184t127 70q38 0 72-21t55-61v70h72V106q0-54 38-54 12 0 17 1zm-236-1q34 0 64.5 23t44.5 55v221q-14 33-45 56.5T233 431q-57 0-86.5-53.5T117 241t29.5-136T233 52z"/><glyph glyph-name="epsilontonos" unicode="έ" horiz-adv-x="432" d="M226 566h-36l18 199h75zm1-578q-86 0-135.5 40T42 129q0 50 35.5 81t81.5 36q-44 9-76.5 42T50 365q0 60 52 95t135 35q105 0 165-78l-40-42q-45 61-126 61-50 0-81.5-21.5T123 357q0-39 31-61t80-22h90v-59h-90q-118 0-118-81 0-39 30.5-63T228 47q89 0 142 63l38-43q-64-79-181-79z"/><glyph glyph-name="etatonos" unicode="ή" d="M242 566h-36l18 199h75zm157-750h-72v528q0 87-77 87-34 0-64.5-22.5T137 354V0H66v483h71v-69q23 34 61 57.5t79 23.5q122 0 122-131v-548z"/><glyph glyph-name="iotatonos" unicode="ί" horiz-adv-x="215" d="M118 566H82l18 199h75zm44-578Q66-12 66 97v386h71V106q0-54 39-54 12 0 17 1l5-61q-18-4-36-4z"/><glyph glyph-name="upsilondieresistonos" unicode="ΰ" horiz-adv-x="471" d="M242 566h-36l18 199h75zm163 37q0-18-13-31t-32-13-32 13-13 31q0 19 13 32t32 13 32-13 13-32zm-250 0q0-18-13-31t-32-13q-18 0-31.5 13T65 603q0 19 13.5 32t31.5 13q19 0 32-13t13-32zm77-615q-82 0-124 52T66 183v300h71V184q0-132 95-132 60 0 90.5 56T353 249q0 122-62 216l65 30q73-112 73-246 0-113-51.5-187T232-12z"/><glyph glyph-name="alpha" unicode="α" horiz-adv-x="491" d="M469 53l6-61q-18-4-36-4-83 0-94 85-20-38-55-61.5T215-12q-80 0-126.5 69T42 241q0 114 46 184t127 70q38 0 72-21t55-61v70h72V106q0-54 38-54 12 0 17 1zm-236-1q34 0 64.5 23t44.5 55v221q-14 33-45 56.5T233 431q-57 0-86.5-53.5T117 241t29.5-136T233 52z"/><glyph glyph-name="beta" unicode="β" horiz-adv-x="480" d="M137 457V130q16-33 47-55.5T250 52q53 0 82.5 36t29.5 92q0 64-33.5 97T243 310h-27v64h25q48 0 78 31t30 88q0 56-27 88t-70 32q-51 0-83-38t-32-118zm0-388v-253H66v641q0 113 53.5 166.5T253 677q77 0 124-46t47-131q0-60-32-101.5T313 345q48-8 86-54.5T437 170q0-80-46.5-131T270-12q-42 0-77 21.5T137 69z"/><glyph glyph-name="gamma" unicode="γ" horiz-adv-x="408" d="M240-184h-72v141q0 149-47 287T-4 483h82q55-79 93.5-182T217 98q42 76 68.5 181.5T312 483h71q0-117-39-245T240 5v-189z"/><glyph glyph-name="delta" unicode="δ" horiz-adv-x="477" d="M241-12q-93 0-146 64.5T42 206q0 148 121 225-75 47-75 118 0 56 41.5 93T241 679q90 0 147-62l-33-49q-41 53-113 53-39 0-62.5-20T156 551q0-25 20.5-45.5T228 471t67.5-36 67.5-48 51.5-73T435 206q0-90-51-154T241-12zm125 218q0 39-11 69.5t-33.5 53-43 36T226 395q-51-26-80-74.5T117 206q0-60 32-107t91-47q60 0 93 47t33 107z"/><glyph glyph-name="epsilon" unicode="ε" horiz-adv-x="432" d="M227-12q-86 0-135.5 40T42 129q0 50 35.5 81t81.5 36q-44 9-76.5 42T50 365q0 60 52 95t135 35q105 0 165-78l-40-42q-45 61-126 61-50 0-81.5-21.5T123 357q0-39 31-61t80-22h90v-59h-90q-118 0-118-81 0-39 30.5-63T228 47q89 0 142 63l38-43q-64-79-181-79z"/><glyph glyph-name="zeta" unicode="ζ" horiz-adv-x="403" d="M298-47q0 19-10.5 27T253-12q-95 0-153 59.5T42 197q0 229 240 407H54v63h311v-55Q117 419 117 205q0-66 39.5-109.5T266 52q54 0 78.5-20.5T369-32q0-49-43-125h-73q45 70 45 110z"/><glyph glyph-name="eta" unicode="η" d="M399-184h-72v528q0 87-77 87-34 0-64.5-22.5T137 354V0H66v483h71v-69q23 34 61 57.5t79 23.5q122 0 122-131v-548z"/><glyph glyph-name="theta" unicode="θ" horiz-adv-x="477" d="M238-12q-98 0-147 94.5T42 334t49 251 147 94q99 0 148-94t49-251-49-251.5T238-12zm0 64q115 0 122 252H117q5-252 121-252zm0 563q-114 0-121-248h242q-7 248-121 248z"/><glyph glyph-name="iota" unicode="ι" horiz-adv-x="215" d="M162-12Q66-12 66 97v386h71V106q0-54 39-54 12 0 17 1l5-61q-18-4-36-4z"/><glyph glyph-name="kappa" unicode="κ" horiz-adv-x="438" d="M423 0h-85L205 218l-68-87V0H66v483h71V221l201 262h85L254 266z"/><glyph glyph-name="lambda" unicode="λ" horiz-adv-x="408" d="M52 608l-11 64q19 7 48 7 45-1 74-22t46-72L402 0h-77L204 396 84 0H6l161 493-26 74q-10 27-22.5 37.5T84 615q-19 0-32-7z"/><glyph glyph-name="uni03BC" unicode="μ" horiz-adv-x="476" d="M137 22v-206H66v667h71V138q0-88 79-88 34 0 64 22.5t47 54.5v356h72V106q0-54 39-54 11 0 16 1l6-61q-18-4-36-4-82 0-94 85-20-38-52-61.5T210-12q-52 0-73 34z"/><glyph glyph-name="nu" unicode="ν" horiz-adv-x="408" d="M237 0h-73L6 483h78L207 77q49 90 77 198t28 208h71q0-118-40-247.5T237 0z"/><glyph glyph-name="xi" unicode="ξ" horiz-adv-x="403" d="M253-12q-99 0-155 52T42 173q0 64 35 106.5t81 54.5q-45 10-76 47t-31 89q0 42 24.5 78t64.5 56H57v63h299v-63H207q-36-14-59-47t-23-70q0-53 34-83t85-30h106v-63H244q-56 0-91.5-32T117 183q0-54 38.5-92.5T266 52q54 0 78.5-20.5T369-32q0-49-43-125h-73q45 70 45 110 0 19-10.5 27T253-12z"/><glyph glyph-name="omicron" unicode="ο" horiz-adv-x="477" d="M238-12q-92 0-144 73T42 242q0 107 52 180t144 73q93 0 145-72.5T435 242 383 61 238-12zm0 64q60 0 91 55t31 135q0 79-31 134t-91 55q-59 0-90-55t-31-134q0-80 31-135t90-55z"/><glyph glyph-name="pi" unicode="π" horiz-adv-x="494" d="M414 0h-72v420H152V0H80v420H16v63h463v-63h-65V0z"/><glyph glyph-name="rho" unicode="ρ" horiz-adv-x="478" d="M264-12q-81 0-127 82v-254H66v426q0 108 48.5 180.5T250 495q88 0 137.5-71.5T437 242q0-115-46-184.5T264-12zm-18 64q57 0 86.5 53.5T362 242q0 81-28.5 135T250 431t-84-55-29-134V132q15-33 45.5-56.5T246 52z"/><glyph glyph-name="sigma1" unicode="ς" horiz-adv-x="396" d="M253-12q-96 0-153.5 70.5T42 242q0 110 54.5 181.5T242 495q86 0 138-64l-39-49q-36 49-93 49-62 0-96.5-54T117 242q0-85 39-137.5T262 52q55 0 80.5-20.5T368-32q0-49-43-125h-70q46 71 46 110 0 19-11.5 27T253-12z"/><glyph glyph-name="sigma" unicode="σ" horiz-adv-x="477" d="M431 225q0-99-50.5-168T238-12q-91 0-143.5 73T42 242q0 103 54.5 172T253 483h204v-64H357q74-74 74-194zm-71 8q0 131-79 186h-28q-68 0-102-52t-34-125q0-80 31-135t90-55q60 0 91 53.5T360 233z"/><glyph glyph-name="tau" unicode="τ" horiz-adv-x="369" d="M244-12q-96 0-96 109v323H21v63h327v-63H220V110q0-58 39-58 26 0 42 19l22-54q-31-29-79-29z"/><glyph glyph-name="upsilon" unicode="υ" horiz-adv-x="471" d="M232-12q-82 0-124 52T66 183v300h71V184q0-132 95-132 60 0 90.5 56T353 249q0 122-62 216l65 30q73-112 73-246 0-113-51.5-187T232-12z"/><glyph glyph-name="phi" unicode="φ" horiz-adv-x="637" d="M595 242q0-105-60.5-174T355-10v-174h-72v174Q163-1 102.5 69T42 249q0 170 154 246l32-56q-111-57-111-190 0-80 39.5-133T283 54v441h35q138 0 207.5-70.5T595 242zm-75 0q0 78-41 129.5T355 429V54q86 9 125.5 61T520 242z"/><glyph glyph-name="chi" unicode="χ" horiz-adv-x="406" d="M394-184h-77L203 86 89-184H12l147 340L20 483h77l106-256 105 256h78L247 156z"/><glyph glyph-name="psi" unicode="ψ" horiz-adv-x="638" d="M355-184h-72v174Q176-3 121 55.5T66 219v264h71V219q0-151 146-165v613h72V54q145 16 145 165v264h72V219q0-105-55.5-163T355-10v-174z"/><glyph glyph-name="omega" unicode="ω" horiz-adv-x="692" d="M649 242q0-109-43-181.5T487-12q-55 0-90.5 36.5T346 119q-15-58-50.5-94.5T205-12q-77 0-120 72.5T42 242q0 79 27 149t77 104l50-44q-79-58-79-210 0-79 24.5-134T213 52q49 0 73 54.5T310 242v123h72V242q0-81 24-135.5T478 52q47 0 71.5 55T574 242q0 151-79 209l51 44q50-34 76.5-103.5T649 242z"/><glyph glyph-name="iotadieresis" unicode="ϊ" horiz-adv-x="215" d="M240 603q0-18-13.5-31T195 559q-19 0-32 13t-13 31q0 19 13 32t32 13q18 0 31.5-13t13.5-32zm-174 0q0-18-13-31t-32-13q-18 0-31.5 13T-24 603q0 19 13.5 32T21 648q19 0 32-13t13-32zm96-615Q66-12 66 97v386h71V106q0-54 39-54 12 0 17 1l5-61q-18-4-36-4z"/><glyph glyph-name="upsilondieresis" unicode="ϋ" horiz-adv-x="471" d="M367 603q0-18-13.5-31T322 559q-19 0-32 13t-13 31q0 19 13 32t32 13q18 0 31.5-13t13.5-32zm-174 0q0-18-13-31t-32-13q-18 0-31.5 13T103 603q0 19 13.5 32t31.5 13q19 0 32-13t13-32zm39-615q-82 0-124 52T66 183v300h71V184q0-132 95-132 60 0 90.5 56T353 249q0 122-62 216l65 30q73-112 73-246 0-113-51.5-187T232-12z"/><glyph glyph-name="omicrontonos" unicode="ό" horiz-adv-x="477" d="M248 566h-36l18 199h75zM238-12q-92 0-144 73T42 242q0 107 52 180t144 73q93 0 145-72.5T435 242 383 61 238-12zm0 64q60 0 91 55t31 135q0 79-31 134t-91 55q-59 0-90-55t-31-134q0-80 31-135t90-55z"/><glyph glyph-name="upsilontonos" unicode="ύ" horiz-adv-x="471" d="M246 566h-36l18 199h75zM232-12q-82 0-124 52T66 183v300h71V184q0-132 95-132 60 0 90.5 56T353 249q0 122-62 216l65 30q73-112 73-246 0-113-51.5-187T232-12z"/><glyph glyph-name="omegatonos" unicode="ώ" horiz-adv-x="692" d="M356 566h-36l18 199h75zm293-324q0-109-43-181.5T487-12q-55 0-90.5 36.5T346 119q-15-58-50.5-94.5T205-12q-77 0-120 72.5T42 242q0 79 27 149t77 104l50-44q-79-58-79-210 0-79 24.5-134T213 52q49 0 73 54.5T310 242v123h72V242q0-81 24-135.5T478 52q47 0 71.5 55T574 242q0 151-79 209l51 44q50-34 76.5-103.5T649 242z"/><glyph glyph-name="afii10023" unicode="Ё" horiz-adv-x="461" d="M374 770q0-18-13.5-31T329 726q-19 0-32 13t-13 31q0 19 13 32t32 13q18 0 31.5-13t13.5-32zm-174 0q0-18-13-31t-32-13q-18 0-31.5 13T110 770q0 19 13.5 32t31.5 13q19 0 32-13t13-32zM413 0H70v667h343v-70H150V376h256v-70H150V71h263V0z"/><glyph glyph-name="afii10051" unicode="Ђ" horiz-adv-x="623" d="M388-12v71q51 0 80 32t29 95v31q0 65-33.5 102.5T368 357q-56 0-106-15l1-342h-80v597H25v70h396v-70H262V412q60 15 114 15 97 0 149-59t52-151v-31q0-100-53-149T388-12z"/><glyph glyph-name="afii10052" unicode="Ѓ" horiz-adv-x="451" d="M376 867L242 723h-52l113 144h73zM150 0H70v667h343v-70H150V0z"/><glyph glyph-name="afii10053" unicode="Є" horiz-adv-x="533" d="M306-12q-118 0-188.5 96.5T47 333t70.5 248.5T306 678q127 0 195-130l-66-31q-45 90-129 90-72 0-119.5-64T130 376h275v-70H129q6-110 54-178.5T306 59q87 0 130 99l67-31Q434-12 306-12z"/><glyph glyph-name="afii10054" unicode="Ѕ" horiz-adv-x="470" d="M228-12Q103-12 29 72l44 61q61-74 155-74 60 0 91 31.5t31 77.5q0 44-31 75.5T243.5 295 155 338t-75 64.5T49 503q0 76 54 125.5T240 678q110 0 178-70l-42-60q-53 59-138 59-46 0-77-28t-31-72q0-33 22.5-58.5t55.5-41 72.5-36.5 72.5-43 55.5-62.5T431 173q0-79-52.5-132T228-12z"/><glyph glyph-name="afii10055" unicode="І" horiz-adv-x="220" d="M150 0H70v667h80V0z"/><glyph glyph-name="afii10056" unicode="Ї" horiz-adv-x="220" d="M150 0H70v667h80V0zm92 770q0-18-13.5-31T197 726q-19 0-32 13t-13 31q0 19 13 32t32 13q18 0 31.5-13t13.5-32zm-174 0q0-18-13-31t-32-13q-18 0-31.5 13T-22 770q0 19 13.5 32T23 815q19 0 32-13t13-32z"/><glyph glyph-name="afii10057" unicode="Ј" horiz-adv-x="398" d="M149-12Q63-12 9 49l36 62q42-52 98-52 50 0 78 30t28 84v494h79V171q0-91-49-137T149-12z"/><glyph glyph-name="afii10058" unicode="Љ" horiz-adv-x="841" d="M25-12v71q35 0 56.5 17.5t38.5 75T148 318l32 349h324V400h123q88 0 136-57t48-143-48-143T627 0H425v597H252l-26-285q-8-83-21.5-142T174 75.5t-41.5-55-49-26T25-12zm594 342H504V71h115q51 0 80.5 35.5T729 200t-29.5 94-80.5 36z"/><glyph glyph-name="afii10059" unicode="Њ" horiz-adv-x="841" d="M70 0v667h80V378h275v289h79V378h129q85 0 131.5-54T811 189 764.5 54 633 0H425v308H150V0H70zm434 71h121q48 0 76 32.5t28 85.5-28 86-76 33H504V71z"/><glyph glyph-name="afii10060" unicode="Ћ" horiz-adv-x="630" d="M494 0v213q0 69-32 106.5T368 357q-56 0-106-15l1-342h-80v597H25v70h396v-70H262V412q60 15 114 15 97 0 147-59t50-155V0h-79z"/><glyph glyph-name="afii10061" unicode="Ќ" horiz-adv-x="509" d="M396 867L262 723h-52l113 144h73zM496 0h-96L205 294l-55-80V0H70v667h80V321l233 346h94L254 350z"/><glyph glyph-name="afii10062" unicode="Ў" horiz-adv-x="499" d="M112-12Q46-12 6 26l28 65q31-31 72-31 29 0 46.5 15.5T188 130l19 49L4 667h88l157-394 159 394h87L260 99q-24-57-58.5-84T112-12zm285 798q-56-74-147-74-92 0-148 74l37 30q39-57 111-57 71 0 110 57z"/><glyph glyph-name="afii10145" unicode="Џ" horiz-adv-x="574" d="M70 0v667h80V71h275v596h79V0H327v-128h-79V0H70z"/><glyph glyph-name="afii10017" unicode="А" horiz-adv-x="511" d="M503 0h-86l-43 151H137L94 0H8l200 667h95zM357 221L255 579 154 221h203z"/><glyph glyph-name="afii10018" unicode="Б" horiz-adv-x="487" d="M70 667h348v-70H150V400h123q87 0 135.5-57.5T457 200q0-86-48-143T273 0H70v667zm195-337H150V71h115q51 0 80.5 35.5T375 200t-29.5 94-80.5 36z"/><glyph glyph-name="afii10019" unicode="В" horiz-adv-x="516" d="M297 0H70v667h221q78 0 121.5-46.5T456 497q0-61-28-100.5T354 344q48-7 80.5-55T467 180q0-83-44-131.5T297 0zm-21 376q49 0 73.5 30.5T374 486t-24.5 80-73.5 31H150V376h126zm5-305q51 0 77.5 30.5T385 188q0 51-26.5 84.5T281 306H150V71h131z"/><glyph glyph-name="afii10020" unicode="Г" horiz-adv-x="451" d="M150 0H70v667h343v-70H150V0z"/><glyph glyph-name="afii10021" unicode="Д" horiz-adv-x="589" d="M25-123V64q36 3 56.5 19t38 73T148 324l32 343h324V71h60v-194h-79V0H104v-123H25zm201 441q-18-186-83-247h282v526H252z"/><glyph glyph-name="afii10022" unicode="Е" horiz-adv-x="461" d="M413 0H70v667h343v-70H150V376h256v-70H150V71h263V0z"/><glyph glyph-name="afii10024" unicode="Ж" horiz-adv-x="742" d="M107 0H12l242 350L30 667h95l206-309v309h79V357l207 310h95L488 350 730 0h-95L440 294l-30-45V0h-79v251l-29 43z"/><glyph glyph-name="afii10025" unicode="З" horiz-adv-x="487" d="M234-12q-69 0-123 31.5T29 99l52 47q24-39 63.5-63T231 59q62 0 94.5 34t32.5 93q0 62-36.5 91.5T226 307H121v70h102q56 0 90.5 28.5T348 489q0 57-32.5 87T228 606q-83 0-139-79l-51 45q31 49 82.5 77T235 677q86 0 140.5-46T430 500q0-60-36-102t-88-54q53-7 93-51.5T439 180q0-85-55-138.5T234-12z"/><glyph glyph-name="afii10026" unicode="И" horiz-adv-x="572" d="M147 0H70v667h80V171l272 496h80V0h-79v506z"/><glyph glyph-name="afii10027" unicode="Й" horiz-adv-x="572" d="M147 0H70v667h80V171l272 496h80V0h-79v506zm286 786q-56-74-147-74-92 0-148 74l37 30q39-57 111-57 71 0 110 57z"/><glyph glyph-name="afii10028" unicode="К" horiz-adv-x="509" d="M496 0h-96L205 294l-55-80V0H70v667h80V321l233 346h94L254 350z"/><glyph glyph-name="afii10029" unicode="Л" horiz-adv-x="574" d="M25-12v71q35 0 56.5 17.5t38.5 75T148 318l32 349h324V0h-80v597H252l-26-285q-8-83-21.5-142T174 75.5t-41.5-55-49-26T25-12z"/><glyph glyph-name="afii10030" unicode="М" horiz-adv-x="683" d="M613 0h-78v524L357 0h-31L150 524V0H70v667h111l161-474 162 474h109V0z"/><glyph glyph-name="afii10031" unicode="Н" horiz-adv-x="574" d="M504 0h-80v308H150V0H70v667h80V378h274v289h80V0z"/><glyph glyph-name="afii10032" unicode="О" horiz-adv-x="599" d="M299-12q-118 0-185 97.5T47 333t67 247.5T299 678t185.5-97.5T552 333 484.5 85.5 299-12zm0 71q80 0 125.5 77.5T470 333q0 120-45 197t-126 77q-80 0-125-77t-45-197q0-119 45-196.5T299 59z"/><glyph glyph-name="afii10033" unicode="П" horiz-adv-x="574" d="M504 0h-80v597H150V0H70v667h434V0z"/><glyph glyph-name="afii10034" unicode="Р" horiz-adv-x="487" d="M150 0H70v667h203q88 0 136-57t48-143q0-85-48.5-142.5T273 267H150V0zm115 337q51 0 80.5 36t29.5 94-29.5 94-80.5 36H150V337h115z"/><glyph glyph-name="afii10035" unicode="С" horiz-adv-x="533" d="M306-12q-118 0-188.5 96.5T47 333t70.5 248.5T306 678q127 0 195-130l-66-31q-45 90-129 90-80 0-128.5-77T129 333t48.5-197T306 59q87 0 130 99l67-31Q434-12 306-12z"/><glyph glyph-name="afii10036" unicode="Т" horiz-adv-x="446" d="M262 0h-79v597H25v70h396v-70H262V0z"/><glyph glyph-name="afii10037" unicode="У" horiz-adv-x="499" d="M112-12Q46-12 6 26l28 65q31-31 72-31 29 0 46.5 15.5T188 130l19 49L4 667h88l157-394 159 394h87L260 99q-24-57-58.5-84T112-12z"/><glyph glyph-name="afii10038" unicode="Ф" horiz-adv-x="695" d="M387 0h-79v66q-126 10-193.5 83T47 333q0 110 67.5 183T308 600v67h79v-67q126-10 194-83.5T649 333t-68-183.5T387 65V0zm179 333q0 79-46 132.5T387 529V137q87 10 133 63.5T566 333zm-437 0q0-79 45.5-132T308 137v391q-88-10-133.5-63T129 333z"/><glyph glyph-name="afii10039" unicode="Х" horiz-adv-x="510" d="M502 0h-92L255 276 100 0H8l199 341L19 667h93l143-262 143 262h93L303 341z"/><glyph glyph-name="afii10040" unicode="Ц" horiz-adv-x="589" d="M485-123V0H70v667h80V71h275v596h79V71h60v-194h-79z"/><glyph glyph-name="afii10041" unicode="Ч" horiz-adv-x="513" d="M132 667V481q0-69 32-106.5t94-37.5q55 0 105 15v315h80V0h-80v282q-60-15-113-15-97 0-147 59T53 481v186h79z"/><glyph glyph-name="afii10042" unicode="Ш" horiz-adv-x="794" d="M644 667h79V0H71v667h79V71h208v596h79V71h207v596z"/><glyph glyph-name="afii10043" unicode="Щ" horiz-adv-x="811" d="M647 667h79V71h60v-194h-79V0H73v667h79V71h208v596h79V71h208v596z"/><glyph glyph-name="afii10044" unicode="Ъ" horiz-adv-x="600" d="M386 0H183v597H25v70h237V400h124q87 0 135.5-57.5T570 200q0-86-48-143T386 0zm-8 330H262V71h116q51 0 80.5 35.5T488 200t-29.5 94-80.5 36z"/><glyph glyph-name="afii10045" unicode="Ы" horiz-adv-x="676" d="M70 667h80V400h123q87 0 135.5-57.5T457 200q0-86-48-143T273 0H70v667zm195-337H150V71h115q51 0 80.5 35.5T375 200t-29.5 94-80.5 36zM605 0h-79v667h79V0z"/><glyph glyph-name="afii10046" unicode="Ь" horiz-adv-x="487" d="M70 667h80V400h123q87 0 135.5-57.5T457 200q0-86-48-143T273 0H70v667zm195-337H150V71h115q51 0 80.5 35.5T375 200t-29.5 94-80.5 36z"/><glyph glyph-name="afii10047" unicode="Э" horiz-adv-x="533" d="M228-12Q100-12 30 127l67 31q43-99 131-99 75 0 122.5 68.5T403 306H128v70h274q-8 103-55 167t-119 64q-85 0-130-90l-66 31q68 130 196 130 117 0 187.5-96.5T486 333q0-151-70.5-248T228-12z"/><glyph glyph-name="afii10048" unicode="Ю" horiz-adv-x="803" d="M503-12q-113 0-180 89.5T250 308H150V0H70v667h80V378h101q10 133 76.5 216.5T503 678q118 0 185.5-97.5T756 333 688.5 85.5 503-12zm0 71q80 0 125 77.5T673 333q0 120-45 197t-125 77q-81 0-126-77t-45-197q0-119 45.5-196.5T503 59z"/><glyph glyph-name="afii10049" unicode="Я" horiz-adv-x="509" d="M135 0H45l140 279q-55 10-94 58T52 468q0 91 51 145t132 54h203V0h-79v267h-96zm109 337h115v260H244q-51 0-80.5-36T134 467t29.5-94 80.5-36z"/><glyph glyph-name="afii10065" unicode="а" horiz-adv-x="451" d="M386 0h-72v52q-45-64-127-64-61 0-103.5 44T41 149t42 116 104 43q84 0 127-62v84q0 49-26 76t-73 27q-69 0-121-59l-32 51q67 70 164 70 75 0 117.5-38.5T386 338V0zM210 40q70 0 104 61v92q-33 62-104 62-44 0-70-30.5T114 148t26-77 70-31z"/><glyph glyph-name="afii10066" unicode="б" horiz-adv-x="480" d="M238 52q60 0 90.5 55T359 243q0 79-31 133.5T238 431t-90-54.5T117 243q0-81 31-136t90-55zm0-64q-93 0-144.5 76T42 264q0 181 45 257t162 97q56 10 78 21.5t22 27.5h71q0-27-13-46.5t-38-32-48-19-55-12.5q-81-15-116.5-51.5T105 403q20 39 57 65.5t87 26.5q86 0 135.5-72.5T434 243q0-108-51.5-181.5T238-12z"/><glyph glyph-name="afii10067" unicode="в" horiz-adv-x="464" d="M270 0H66v483h200q63 0 98.5-33.5T400 359q0-42-20.5-70T324 250q37-10 61-43.5t24-75.5q0-60-35.5-95.5T270 0zm-13 61q78 0 78 77 0 34-20 57t-58 23H137V61h120zm-4 217q36 0 54.5 20t18.5 52-18 52.5-55 20.5H137V278h116z"/><glyph glyph-name="afii10068" unicode="г" horiz-adv-x="364" d="M341 483v-63H137V0H66v483h275z"/><glyph glyph-name="afii10069" unicode="д" horiz-adv-x="479" d="M18-123V57q24 4 38 16.5t26 51T101 233l24 250h274V63h55v-186h-71V0H90v-123H18zm173 543l-18-194q-13-123-59-163h214v357H191z"/><glyph glyph-name="afii10070" unicode="е" horiz-adv-x="468" d="M249-12q-95 0-151 70.5T42 242q0 108 53.5 180.5T238 495q92 0 141.5-72T429 240v-22H116q2-75 39-122.5T255 48q68 0 115 59l38-42q-63-77-159-77zm109 283q-1 65-31 114.5T237 435q-58 0-88.5-50.5T116 271h242z"/><glyph glyph-name="afii10072" unicode="ж" horiz-adv-x="592" d="M100 0H15l168 266L15 483h84l161-211v211h72V273l160 210h85L408 266 577 0h-85L360 218l-28-36V0h-72v182l-28 36z"/><glyph glyph-name="afii10073" unicode="з" horiz-adv-x="432" d="M205-12Q88-12 24 67l39 43q52-63 141-63 51 0 82 24t31 63q0 81-118 81h-90v59h89q50 0 80.5 22t30.5 61q0 36-31 57.5T197 436q-81 0-126-61l-40 42q60 78 164 78 84 0 135.5-35t51.5-95q0-44-32.5-77T273 246q46-5 81.5-36t35.5-81q0-61-49-101T205-12z"/><glyph glyph-name="afii10074" unicode="и" d="M137 0H66v483h71V132l188 351h74V0h-71v359z"/><glyph glyph-name="afii10075" unicode="й" d="M137 0H66v483h71V132l188 351h74V0h-71v359zm243 619q-56-74-147-74-92 0-148 74l37 30q39-57 111-57 71 0 110 57z"/><glyph glyph-name="afii10076" unicode="к" horiz-adv-x="438" d="M423 0h-85L205 218l-68-87V0H66v483h71V221l201 262h85L254 266z"/><glyph glyph-name="afii10077" unicode="л" d="M18-12v62q34 0 53.5 39.5T101 233l24 250h274V0h-71v420H191l-18-194Q161 94 123 41T18-12z"/><glyph glyph-name="afii10078" unicode="м" horiz-adv-x="561" d="M496 0h-71v364L296 0h-30L137 364V0H66v483h94l121-340 121 340h94V0z"/><glyph glyph-name="afii10079" unicode="н" d="M137 0H66v483h71V282h191v201h71V0h-71v219H137V0z"/><glyph glyph-name="afii10080" unicode="о" horiz-adv-x="477" d="M238-12q-92 0-144 73T42 242q0 107 52 180t144 73q93 0 145-72.5T435 242 383 61 238-12zm0 64q60 0 91 55t31 135q0 79-31 134t-91 55q-59 0-90-55t-31-134q0-80 31-135t90-55z"/><glyph glyph-name="afii10081" unicode="п" d="M399 0h-71v420H137V0H66v483h333V0z"/><glyph glyph-name="afii10082" unicode="р" horiz-adv-x="478" d="M264-12q-81 0-127 82v-254H66v667h71v-69q21 37 55 59t72 22q81 0 127-69t46-184-46-184.5T264-12zm-18 64q57 0 86.5 53.5T362 242t-29.5 136-86.5 53q-33 0-63.5-22.5T137 353V132q15-33 45.5-56.5T246 52z"/><glyph glyph-name="afii10083" unicode="с" horiz-adv-x="406" d="M242-12q-91 0-145.5 72T42 242t54.5 181.5T242 495q86 0 138-64l-39-49q-36 49-93 49-62 0-96.5-54T117 242t34.5-135.5T248 52q56 0 93 49l39-49q-51-64-138-64z"/><glyph glyph-name="afii10084" unicode="т" horiz-adv-x="340" d="M206 0h-72v420H23v63h294v-63H206V0z"/><glyph glyph-name="afii10085" unicode="у" horiz-adv-x="408" d="M41-189l11 64q13-7 32-7 22 0 34.5 10.5T141-84l26 74L6 483h78L204 87l121 396h77L209-102q-17-51-46.5-72.5T89-196q-29 0-48 7z"/><glyph glyph-name="afii10086" unicode="ф" horiz-adv-x="679" d="M196 495q68 0 108-81v253h71V415q18 37 47 58.5t61 21.5q68 0 107-69t39-184-39-184.5T483-12q-32 0-61 21t-47 60v-253h-71V68q-17-37-46-58.5T196-12q-68 0-107 69T50 241t39 184.5T196 495zm20-64q-46 0-69.5-53T123 241q0-82 24.5-135.5T217 52q26 0 50.5 23t36.5 56v221q-12 33-36.5 56T216 431zM462 52q45 0 69.5 53.5T556 242t-23.5 136-69.5 53q-27 0-51.5-22.5T375 353V132q12-33 36.5-56.5T462 52z"/><glyph glyph-name="afii10087" unicode="х" horiz-adv-x="406" d="M394 0h-80L203 194 92 0H12l147 246L20 483h80l103-184 103 184h80L247 246z"/><glyph glyph-name="afii10088" unicode="ц" horiz-adv-x="479" d="M383-123V0H66v483h71V63h191v420h71V63h55v-186h-71z"/><glyph glyph-name="afii10089" unicode="ч" horiz-adv-x="454" d="M55 483h72V330q0-49 21.5-69t69.5-20q60 0 99 25v217h72V0h-72v209q-50-32-119-32-76 0-109.5 32T55 309v174z"/><glyph glyph-name="afii10090" unicode="ш" horiz-adv-x="666" d="M528 483h72V0H66v483h71V63h160v420h72V63h159v420z"/><glyph glyph-name="afii10091" unicode="щ" horiz-adv-x="682" d="M528 483h72V63h58v-186h-72V0H66v483h71V63h160v420h72V63h159v420z"/><glyph glyph-name="afii10092" unicode="ъ" horiz-adv-x="509" d="M324 0H134v420H23v63h183V294h118q72 0 110-42t38-105-38.5-105T324 0zm-8 233H206V61h110q39 0 60.5 23.5T398 147t-21 62.5-61 23.5z"/><glyph glyph-name="afii10093" unicode="ы" horiz-adv-x="612" d="M66 483h71V294h118q72 0 110.5-42T404 147 365.5 42 255 0H66v483zm182-250H137V61h111q39 0 60.5 23.5T330 147t-21 62.5-61 23.5zM546 0h-71v483h71V0z"/><glyph glyph-name="afii10094" unicode="ь" horiz-adv-x="440" d="M66 483h71V294h118q72 0 110.5-42T404 147 365.5 42 255 0H66v483zm182-250H137V61h111q39 0 60.5 23.5T330 147t-21 62.5-61 23.5z"/><glyph glyph-name="afii10095" unicode="э" horiz-adv-x="406" d="M164-12Q77-12 26 52l38 46q38-50 94-50t90 46 39 119H93v63h194q-6 70-40 114.5T158 435q-56 0-94-50l-38 46q52 64 138 64 92 0 146-71.5T364 242 310 60 164-12z"/><glyph glyph-name="afii10096" unicode="ю" horiz-adv-x="655" d="M416-12q-87 0-138.5 66T220 219h-83V0H66v483h71V282h85q9 93 60 153t134 60q93 0 144.5-72.5T612 242 560.5 61 416-12zm0 64q60 0 90.5 55T537 242t-30.5 134.5T416 431q-59 0-90-55t-31-134q0-80 31-135t90-55z"/><glyph glyph-name="afii10097" unicode="я" horiz-adv-x="463" d="M132 0H50l107 197q-44 9-73 45.5T55 336q0 64 39.5 105.5T204 483h193V0h-72v189h-96zm79 250h114v172H211q-39 0-60.5-23.5T129 336t21-62.5 61-23.5z"/><glyph glyph-name="afii10071" unicode="ё" horiz-adv-x="468" d="M370 603q0-18-13.5-31T325 559q-19 0-32 13t-13 31q0 19 13 32t32 13q18 0 31.5-13t13.5-32zm-174 0q0-18-13-31t-32-13q-18 0-31.5 13T106 603q0 19 13.5 32t31.5 13q19 0 32-13t13-32zm53-615q-95 0-151 70.5T42 242q0 108 53.5 180.5T238 495q92 0 141.5-72T429 240v-22H116q2-75 39-122.5T255 48q68 0 115 59l38-42q-63-77-159-77zm109 283q-1 65-31 114.5T237 435q-58 0-88.5-50.5T116 271h242z"/><glyph glyph-name="afii10099" unicode="ђ" horiz-adv-x="473" d="M282 536H145V414q23 34 61.5 57.5T286 495q121 0 121-130V-59q0-137-120-137-49 0-82 34l26 53q21-26 49-26 56 0 56 76v404q0 86-78 86-34 0-64.5-22.5T145 354V0H74v536H15v46h59v85h71v-85h137v-46z"/><glyph glyph-name="afii10100" unicode="ѓ" horiz-adv-x="364" d="M343 700L209 556h-52l113 144h73zm-2-217v-63H137V0H66v483h275z"/><glyph glyph-name="afii10101" unicode="є" horiz-adv-x="406" d="M242-12q-91 0-145.5 72T42 242t54.5 181.5T242 495q86 0 138-64l-38-46q-38 50-94 50t-89.5-44T118 276h195v-63H118q6-73 40-119t90-46 94 50l38-46q-51-64-138-64z"/><glyph glyph-name="afii10102" unicode="ѕ" horiz-adv-x="387" d="M190-12Q86-12 27 56l36 51q50-61 126-61 42 0 67.5 21.5T282 124q0 31-25 52t-60 34.5-70.5 29.5T66 287.5 41 365q0 56 42 93t112 37q90 0 147-62l-34-49q-40 53-112 53-39 0-62.5-20T110 367q0-28 25-47t60-32.5 70.5-30.5 60.5-50 25-81q0-61-44-99.5T190-12z"/><glyph glyph-name="afii10103" unicode="і" horiz-adv-x="203" d="M101 553q-20 0-34.5 14.5T52 602t14.5 34.5T101 651t34.5-14.5T150 602t-14.5-34.5T101 553zM137 0H66v483h71V0z"/><glyph glyph-name="afii10104" unicode="ї" horiz-adv-x="203" d="M233 603q0-18-13.5-31T188 559q-19 0-32 13t-13 31q0 19 13 32t32 13q18 0 31.5-13t13.5-32zm-174 0q0-18-13-31t-32-13q-18 0-31.5 13T-31 603q0 19 13.5 32T14 648q19 0 32-13t13-32zM137 0H66v483h71V0z"/><glyph glyph-name="afii10105" unicode="ј" horiz-adv-x="203" d="M101 553q-20 0-34.5 14.5T52 602t14.5 34.5T101 651t34.5-14.5T150 602t-14.5-34.5T101 553zM17-196q-51 0-82 34l26 53q21-26 49-26 56 0 56 76v542h71V-59q0-137-120-137z"/><glyph glyph-name="afii10106" unicode="љ" horiz-adv-x="703" d="M18-12v62q34 0 53.5 39.5T101 233l24 250h274V294h118q72 0 110.5-42T666 147 627.5 42 517 0H328v420H191l-18-194Q161 94 123 41T18-12zm492 245H399V61h111q39 0 60.5 23.5T592 147t-21 62.5-61 23.5z"/><glyph glyph-name="afii10107" unicode="њ" horiz-adv-x="703" d="M137 0H66v483h71V282h191v201h71V282h122q70 0 107.5-40T666 140q0-60-38-100T521 0H328v219H137V0zm377 221H399V61h115q37 0 57.5 22t20.5 58-20 58-58 22z"/><glyph glyph-name="afii10108" unicode="ћ" horiz-adv-x="473" d="M285 536H145V414q23 34 61.5 57.5T286 495q121 0 121-129V0h-71v345q0 86-78 86-34 0-64.5-22.5T145 354V0H74v536H15v46h59v85h71v-85h140v-46z"/><glyph glyph-name="afii10109" unicode="ќ" horiz-adv-x="438" d="M359 700L225 556h-52l113 144h73zM423 0h-85L205 218l-68-87V0H66v483h71V221l201 262h85L254 266z"/><glyph glyph-name="afii10110" unicode="ў" horiz-adv-x="408" d="M41-189l11 64q13-7 32-7 22 0 34.5 10.5T141-84l26 74L6 483h78L204 87l121 396h77L209-102q-17-51-46.5-72.5T89-196q-29 0-48 7zm310 808q-56-74-147-74-92 0-148 74l37 30q39-57 111-57 71 0 110 57z"/><glyph glyph-name="afii10193" unicode="џ" d="M197-125V0H66v483h71V63h191v420h71V0H269v-125h-72z"/><glyph glyph-name="afii10050" unicode="Ґ" horiz-adv-x="451" d="M150 597V0H70v667h264v123h79V597H150z"/><glyph glyph-name="afii10098" unicode="ґ" horiz-adv-x="364" d="M137 420V0H66v483h203v125h72V420H137z"/><glyph glyph-name="uni1E02" unicode="Ḃ" horiz-adv-x="516" d="M297 0H70v667h221q78 0 121.5-46.5T456 497q0-61-28-100.5T354 344q48-7 80.5-55T467 180q0-83-44-131.5T297 0zm-21 376q49 0 73.5 30.5T374 486t-24.5 80-73.5 31H150V376h126zm5-305q51 0 77.5 30.5T385 188q0 51-26.5 84.5T281 306H150V71h131zm-23 652q-18 0-32 13.5T212 769q0 18 14 31.5t32 13.5q19 0 32-13t13-32-13-32.5-32-13.5z"/><glyph glyph-name="uni1E03" unicode="ḃ" horiz-adv-x="480" d="M137 130q15-33 45.5-55.5T246 52q57 0 86.5 53T362 241t-29.5 136.5T246 431q-33 0-63.5-23.5T137 351V130zm0-130H66v667h71V413q46 82 127 82t127-70 46-184q0-115-46-184T264-12q-38 0-72 22t-55 59V0zm110 723q-18 0-32 13.5T201 769q0 18 14 31.5t32 13.5q19 0 32-13t13-32-13-32.5-32-13.5z"/><glyph glyph-name="uni1E0A" unicode="Ḋ" horiz-adv-x="564" d="M248 0H70v667h178q126 0 197-93t71-241-70.5-240.5T248 0zm0 71q89 0 137.5 72.5T434 333q0 118-48 191t-138 73h-98V71h98zm34 652q-18 0-32 13.5T236 769q0 18 14 31.5t32 13.5q19 0 32-13t13-32-13-32.5-32-13.5z"/><glyph glyph-name="uni1E0B" unicode="ḋ" horiz-adv-x="480" d="M414 0h-72v69q-21-37-55-59t-72-22q-80 0-126.5 69T42 241q0 114 46 184t127 70q38 0 72-21t55-61v254h72V0zM233 52q34 0 64.5 23t44.5 55v222q-14 33-45 56t-64 23q-57 0-86.5-53.5T117 241t29.5-136T233 52zm1 671q-18 0-32 13.5T188 769q0 18 14 31.5t32 13.5q19 0 32-13t13-32-13-32.5-32-13.5z"/><glyph glyph-name="uni1E1E" unicode="Ḟ" horiz-adv-x="451" d="M244 723q-18 0-32 13.5T198 769q0 18 14 31.5t32 13.5q19 0 32-13t13-32-13-32.5-32-13.5zM150 0H70v667h343v-70H150V376h256v-70H150V0z"/><glyph glyph-name="uni1E1F" unicode="ḟ" horiz-adv-x="254" d="M204 723q-18 0-32 13.5T158 769q0 18 14 31.5t32 13.5q19 0 32-13t13-32-13-32.5-32-13.5zM155 0H83v420H19v63h64v59q0 63 32.5 99t88.5 36q53 0 86-32l-28-51q-20 22-47 22-60 0-60-74v-59h82v-63h-82V0z"/><glyph glyph-name="uni1E22" unicode="Ḣ" horiz-adv-x="574" d="M504 0h-80v308H150V0H70v667h80V378h274v289h80V0zM287 723q-18 0-32 13.5T241 769q0 18 14 31.5t32 13.5q19 0 32-13t13-32-13-32.5-32-13.5z"/><glyph glyph-name="uni1E23" unicode="ḣ" d="M399 0h-71v345q0 86-78 86-34 0-64.5-22.5T137 354V0H66v667h71V414q23 34 61.5 57.5T278 495q121 0 121-129V0zM233 723q-18 0-32 13.5T187 769q0 18 14 31.5t32 13.5q19 0 32-13t13-32-13-32.5-32-13.5z"/><glyph glyph-name="uni1E56" unicode="Ṗ" horiz-adv-x="487" d="M150 0H70v667h203q88 0 136-57t48-143q0-85-48.5-142.5T273 267H150V0zm115 337q51 0 80.5 36t29.5 94-29.5 94-80.5 36H150V337h115zm-22 386q-18 0-32 13.5T197 769q0 18 14 31.5t32 13.5q19 0 32-13t13-32-13-32.5-32-13.5z"/><glyph glyph-name="uni1E57" unicode="ṗ" horiz-adv-x="478" d="M264-12q-81 0-127 82v-254H66v667h71v-69q21 37 55 59t72 22q81 0 127-69t46-184-46-184.5T264-12zm-18 64q57 0 86.5 53.5T362 242t-29.5 136-86.5 53q-33 0-63.5-22.5T137 353V132q15-33 45.5-56.5T246 52zm1 504q-18 0-32 13.5T201 602q0 18 14 31.5t32 13.5q19 0 32-13t13-32-13-32.5-32-13.5z"/><glyph glyph-name="uni1E60" unicode="Ṡ" horiz-adv-x="470" d="M228-12Q103-12 29 72l44 61q61-74 155-74 60 0 91 31.5t31 77.5q0 44-31 75.5T243.5 295 155 338t-75 64.5T49 503q0 76 54 125.5T240 678q110 0 178-70l-42-60q-53 59-138 59-46 0-77-28t-31-72q0-33 22.5-58.5t55.5-41 72.5-36.5 72.5-43 55.5-62.5T431 173q0-79-52.5-132T228-12zm7 735q-18 0-32 13.5T189 769q0 18 14 31.5t32 13.5q19 0 32-13t13-32-13-32.5-32-13.5z"/><glyph glyph-name="uni1E61" unicode="ṡ" horiz-adv-x="387" d="M190-12Q86-12 27 56l36 51q50-61 126-61 42 0 67.5 21.5T282 124q0 31-25 52t-60 34.5-70.5 29.5T66 287.5 41 365q0 56 42 93t112 37q90 0 147-62l-34-49q-40 53-112 53-39 0-62.5-20T110 367q0-28 25-47t60-32.5 70.5-30.5 60.5-50 25-81q0-61-44-99.5T190-12zm4 568q-18 0-32 13.5T148 602q0 18 14 31.5t32 13.5q19 0 32-13t13-32-13-32.5-32-13.5z"/><glyph glyph-name="uni1E6A" unicode="Ṫ" horiz-adv-x="446" d="M262 0h-79v597H25v70h396v-70H262V0zm-39 723q-18 0-32 13.5T177 769q0 18 14 31.5t32 13.5q19 0 32-13t13-32-13-32.5-32-13.5z"/><glyph glyph-name="uni1E6B" unicode="ṫ" horiz-adv-x="263" d="M177-12Q80-12 80 97v323H16v63h64v132h72V483h82v-63h-82V110q0-58 39-58 26 0 42 19l22-54q-29-29-78-29zm-57 735q-18 0-32 13.5T74 769q0 18 14 31.5t32 13.5q19 0 32-13t13-32-13-32.5-32-13.5z"/><glyph glyph-name="Wgrave" unicode="Ẁ" horiz-adv-x="715" d="M551 0h-85L357 526 249 0h-85L16 667h85l109-544 114 544h67l114-544 109 544h85zM404 723h-52L218 867h73z"/><glyph glyph-name="wgrave" unicode="ẁ" horiz-adv-x="638" d="M496 0h-74L319 388 215 0h-73L13 483h75l94-386 102 386h68L455 97l95 386h75zM366 556h-52L180 700h73z"/><glyph glyph-name="Wacute" unicode="Ẃ" horiz-adv-x="715" d="M499 867L365 723h-52l113 144h73zM551 0h-85L357 526 249 0h-85L16 667h85l109-544 114 544h67l114-544 109 544h85z"/><glyph glyph-name="wacute" unicode="ẃ" horiz-adv-x="638" d="M458 700L324 556h-52l113 144h73zM496 0h-74L319 388 215 0h-73L13 483h75l94-386 102 386h68L455 97l95 386h75z"/><glyph glyph-name="Wdieresis" unicode="Ẅ" horiz-adv-x="715" d="M490 770q0-18-13.5-31T445 726q-19 0-32 13t-13 31q0 19 13 32t32 13q18 0 31.5-13t13.5-32zm-174 0q0-18-13-31t-32-13q-18 0-31.5 13T226 770q0 19 13.5 32t31.5 13q19 0 32-13t13-32zM551 0h-85L357 526 249 0h-85L16 667h85l109-544 114 544h67l114-544 109 544h85z"/><glyph glyph-name="wdieresis" unicode="ẅ" horiz-adv-x="638" d="M451 603q0-18-13.5-31T406 559q-19 0-32 13t-13 31q0 19 13 32t32 13q18 0 31.5-13t13.5-32zm-174 0q0-18-13-31t-32-13q-18 0-31.5 13T187 603q0 19 13.5 32t31.5 13q19 0 32-13t13-32zM496 0h-74L319 388 215 0h-73L13 483h75l94-386 102 386h68L455 97l95 386h75z"/><glyph glyph-name="uni1EA0" unicode="Ạ" horiz-adv-x="511" d="M503 0h-86l-43 151H137L94 0H8l200 667h95zM357 221L255 579 154 221h203zM256-183q-18 0-32 13.5T210-137q0 18 14 31.5T256-92q19 0 32-13t13-32-13-32.5-32-13.5z"/><glyph glyph-name="uni1EA1" unicode="ạ" horiz-adv-x="451" d="M386 0h-72v52q-45-64-127-64-61 0-103.5 44T41 149t42 116 104 43q84 0 127-62v84q0 49-26 76t-73 27q-69 0-121-59l-32 51q67 70 164 70 75 0 117.5-38.5T386 338V0zM210 40q70 0 104 61v92q-33 62-104 62-44 0-70-30.5T114 148t26-77 70-31zm16-223q-18 0-32 13.5T180-137q0 18 14 31.5T226-92q19 0 32-13t13-32-13-32.5-32-13.5z"/><glyph glyph-name="uni1EA2" unicode="Ả" horiz-adv-x="511" d="M503 0h-86l-43 151H137L94 0H8l200 667h95zM357 221L255 579 154 221h203zM223 761l-32 8q14 51 65 51 28 0 45.5-16.5T319 755q0-29-19-58h-37q23 27 23 57 0 35-30 35-25 0-33-28z"/><glyph glyph-name="uni1EA3" unicode="ả" horiz-adv-x="451" d="M386 0h-72v52q-45-64-127-64-61 0-103.5 44T41 149t42 116 104 43q84 0 127-62v84q0 49-26 76t-73 27q-69 0-121-59l-32 51q67 70 164 70 75 0 117.5-38.5T386 338V0zM210 40q70 0 104 61v92q-33 62-104 62-44 0-70-30.5T114 148t26-77 70-31zm-17 551l-32 8q14 51 65 51 28 0 45.5-16.5T289 585q0-29-19-58h-37q23 27 23 57 0 35-30 35-25 0-33-28z"/><glyph glyph-name="uni1EA4" unicode="Ấ" horiz-adv-x="511" d="M373 682h-47l-71 79-69-79h-46l80 108h70zM503 0h-86l-43 151H137L94 0H8l200 667h95zM357 221L255 579 154 221h203zm174 623L397 736h-52l113 108h73z"/><glyph glyph-name="uni1EA5" unicode="ấ" horiz-adv-x="451" d="M386 0h-72v52q-45-64-127-64-61 0-103.5 44T41 149t42 116 104 43q84 0 127-62v84q0 49-26 76t-73 27q-69 0-121-59l-32 51q67 70 164 70 75 0 117.5-38.5T386 338V0zM210 40q70 0 104 61v92q-33 62-104 62-44 0-70-30.5T114 148t26-77 70-31zm135 516h-47l-71 105-69-105h-46l80 144h70zm153 215L364 627h-52l113 144h73z"/><glyph glyph-name="uni1EA6" unicode="Ầ" horiz-adv-x="511" d="M373 682h-47l-71 79-69-79h-46l80 108h70zM503 0h-86l-43 151H137L94 0H8l200 667h95zM357 221L255 579 154 221h203zM167 736h-52L-19 844h73z"/><glyph glyph-name="uni1EA7" unicode="ầ" horiz-adv-x="451" d="M386 0h-72v52q-45-64-127-64-61 0-103.5 44T41 149t42 116 104 43q84 0 127-62v84q0 49-26 76t-73 27q-69 0-121-59l-32 51q67 70 164 70 75 0 117.5-38.5T386 338V0zM210 40q70 0 104 61v92q-33 62-104 62-44 0-70-30.5T114 148t26-77 70-31zm135 516h-47l-71 105-69-105h-46l80 144h70zm-204 71H89L-45 771h73z"/><glyph glyph-name="uni1EA8" unicode="Ẩ" horiz-adv-x="511" d="M373 682h-47l-71 79-69-79h-46l80 108h70zM503 0h-86l-43 151H137L94 0H8l200 667h95zM357 221L255 579 154 221h203zm-13 570l-32 6q14 38 65 38 28 0 45.5-12t17.5-36q0-22-19-44h-37q23 20 23 43 0 26-30 26-25 0-33-21z"/><glyph glyph-name="uni1EA9" unicode="ẩ" horiz-adv-x="451" d="M386 0h-72v52q-45-64-127-64-61 0-103.5 44T41 149t42 116 104 43q84 0 127-62v84q0 49-26 76t-73 27q-69 0-121-59l-32 51q67 70 164 70 75 0 117.5-38.5T386 338V0zM210 40q70 0 104 61v92q-33 62-104 62-44 0-70-30.5T114 148t26-77 70-31zm135 516h-47l-71 105-69-105h-46l80 144h70zm-71 175l-32 8q14 51 65 51 28 0 45.5-16.5T370 725q0-29-19-58h-37q23 27 23 57 0 35-30 35-25 0-33-28z"/><glyph glyph-name="uni1EAA" unicode="Ẫ" horiz-adv-x="511" d="M373 678h-47l-71 52-69-52h-46l80 72h70zM503 0h-86l-43 151H137L94 0H8l200 667h95zM357 221L255 579 154 221h203zm-52 536q-27 0-44.5 11.5t-30 23.5-28.5 12q-18 0-29-11t-11-33h-42q0 30 22 48.5t63 18.5q27 0 44.5-11.5t30-23.5 28.5-12q40 0 40 44h42q0-30-22-48.5T305 757z"/><glyph glyph-name="uni1EAB" unicode="ẫ" horiz-adv-x="451" d="M386 0h-72v52q-45-64-127-64-61 0-103.5 44T41 149t42 116 104 43q84 0 127-62v84q0 49-26 76t-73 27q-69 0-121-59l-32 51q67 70 164 70 75 0 117.5-38.5T386 338V0zM210 40q70 0 104 61v92q-33 62-104 62-44 0-70-30.5T114 148t26-77 70-31zm135 483h-47l-71 105-69-105h-46l80 144h70zm-70 159q-22 0-37.5 14.5t-23 32.5-18.5 32.5-24 14.5q-18 0-29-22t-11-66H90q0 60 22 97t63 37q22 0 37.5-14.5t23-32 18.5-32 24-14.5q40 0 40 87h42q0-60-22-97t-63-37z"/><glyph glyph-name="uni1EAC" unicode="Ậ" horiz-adv-x="511" d="M503 0h-86l-43 151H137L94 0H8l200 667h95zM357 221L255 579 154 221h203zm16 502h-47l-71 105-69-105h-46l80 144h70zM256-183q-18 0-32 13.5T210-137q0 18 14 31.5T256-92q19 0 32-13t13-32-13-32.5-32-13.5z"/><glyph glyph-name="uni1EAD" unicode="ậ" horiz-adv-x="451" d="M386 0h-72v52q-45-64-127-64-61 0-103.5 44T41 149t42 116 104 43q84 0 127-62v84q0 49-26 76t-73 27q-69 0-121-59l-32 51q67 70 164 70 75 0 117.5-38.5T386 338V0zM210 40q70 0 104 61v92q-33 62-104 62-44 0-70-30.5T114 148t26-77 70-31zm132 516h-47l-71 105-69-105h-46l80 144h70zM226-183q-18 0-32 13.5T180-137q0 18 14 31.5T226-92q19 0 32-13t13-32-13-32.5-32-13.5z"/><glyph glyph-name="uni1EAE" unicode="Ắ" horiz-adv-x="511" d="M503 0h-86l-43 151H137L94 0H8l200 667h95zM357 221L255 579 154 221h203zm36 617l-134-98h-52l113 98h73zm10-89q-56-64-147-64-92 0-148 64l37 26q39-49 111-49 71 0 110 49z"/><glyph glyph-name="uni1EAF" unicode="ắ" horiz-adv-x="451" d="M386 0h-72v52q-45-64-127-64-61 0-103.5 44T41 149t42 116 104 43q84 0 127-62v84q0 49-26 76t-73 27q-69 0-121-59l-32 51q67 70 164 70 75 0 117.5-38.5T386 338V0zM210 40q70 0 104 61v92q-33 62-104 62-44 0-70-30.5T114 148t26-77 70-31zm156 726L232 622h-52l113 144h73zm8-169q-56-74-147-74-92 0-148 74l37 30q39-57 111-57 71 0 110 57z"/><glyph glyph-name="uni1EB0" unicode="Ằ" horiz-adv-x="511" d="M503 0h-86l-43 151H137L94 0H8l200 667h95zM357 221L255 579 154 221h203zm-52 519h-52l-134 98h73zm98 7q-56-64-147-64-92 0-148 64l37 26q39-49 111-49 71 0 110 49z"/><glyph glyph-name="uni1EB1" unicode="ằ" horiz-adv-x="451" d="M386 0h-72v52q-45-64-127-64-61 0-103.5 44T41 149t42 116 104 43q84 0 127-62v84q0 49-26 76t-73 27q-69 0-121-59l-32 51q67 70 164 70 75 0 117.5-38.5T386 338V0zM210 40q70 0 104 61v92q-33 62-104 62-44 0-70-30.5T114 148t26-77 70-31zm62 582h-52L86 766h73zm102-23q-56-74-147-74-92 0-148 74l37 30q39-57 111-57 71 0 110 57z"/><glyph glyph-name="uni1EB2" unicode="Ẳ" horiz-adv-x="511" d="M503 0h-86l-43 151H137L94 0H8l200 667h95zM357 221L255 579 154 221h203zM223 788l-32 5q14 35 65 35 28 0 45.5-11.5T319 783q0-20-19-39h-37q23 19 23 39 0 24-30 24-25 0-33-19zm180-40q-56-64-147-64-92 0-148 64l37 26q39-49 111-49 71 0 110 49z"/><glyph glyph-name="uni1EB3" unicode="ẳ" horiz-adv-x="451" d="M386 0h-72v52q-45-64-127-64-61 0-103.5 44T41 149t42 116 104 43q84 0 127-62v84q0 49-26 76t-73 27q-69 0-121-59l-32 51q67 70 164 70 75 0 117.5-38.5T386 338V0zM210 40q70 0 104 61v92q-33 62-104 62-44 0-70-30.5T114 148t26-77 70-31zm-15 643l-32 8q14 51 65 51 28 0 45.5-16.5T291 677q0-29-19-58h-37q23 27 23 57 0 35-30 35-25 0-33-28zm179-84q-56-74-147-74-92 0-148 74l37 30q39-57 111-57 71 0 110 57z"/><glyph glyph-name="uni1EB4" unicode="Ẵ" horiz-adv-x="511" d="M503 0h-86l-43 151H137L94 0H8l200 667h95zM357 221L255 579 154 221h203zm46 509q-56-48-147-48-92 0-148 48l37 19q40-37 111-37 70 0 110 37zm-98 27q-27 0-44.5 11.5t-30 23.5-28.5 12q-18 0-29-11t-11-33h-42q0 30 22 48.5t63 18.5q27 0 44.5-11.5t30-23.5 28.5-12q40 0 40 44h42q0-30-22-48.5T305 757z"/><glyph glyph-name="uni1EB5" unicode="ẵ" horiz-adv-x="451" d="M386 0h-72v52q-45-64-127-64-61 0-103.5 44T41 149t42 116 104 43q84 0 127-62v84q0 49-26 76t-73 27q-69 0-121-59l-32 51q67 70 164 70 75 0 117.5-38.5T386 338V0zM210 40q70 0 104 61v92q-33 62-104 62-44 0-70-30.5T114 148t26-77 70-31zm164 559q-56-74-147-74-92 0-148 74l37 30q39-57 111-57 71 0 110 57zm-100 51q-22 0-37.5 14.5t-23 32.5-18.5 32.5-24 14.5q-18 0-29-22t-11-66H89q0 60 22 97t63 37q22 0 37.5-14.5t23-32 18.5-32 24-14.5q40 0 40 87h42q0-60-22-97t-63-37z"/><glyph glyph-name="uni1EB6" unicode="Ặ" horiz-adv-x="511" d="M503 0h-86l-43 151H137L94 0H8l200 667h95zM357 221L255 579 154 221h203zM256-183q-18 0-32 13.5T210-137q0 18 14 31.5T256-92q19 0 32-13t13-32-13-32.5-32-13.5zm147 969q-56-74-147-74-92 0-148 74l37 30q39-57 111-57 71 0 110 57z"/><glyph glyph-name="uni1EB7" unicode="ặ" horiz-adv-x="451" d="M386 0h-72v52q-45-64-127-64-61 0-103.5 44T41 149t42 116 104 43q84 0 127-62v84q0 49-26 76t-73 27q-69 0-121-59l-32 51q67 70 164 70 75 0 117.5-38.5T386 338V0zM210 40q70 0 104 61v92q-33 62-104 62-44 0-70-30.5T114 148t26-77 70-31zm16-223q-18 0-32 13.5T180-137q0 18 14 31.5T226-92q19 0 32-13t13-32-13-32.5-32-13.5zm147 802q-56-74-147-74-92 0-148 74l37 30q39-57 111-57 71 0 110 57z"/><glyph glyph-name="uni1EB8" unicode="Ẹ" horiz-adv-x="461" d="M413 0H70v667h343v-70H150V376h256v-70H150V71h263V0zM247-183q-18 0-32 13.5T201-137q0 18 14 31.5T247-92q19 0 32-13t13-32-13-32.5-32-13.5z"/><glyph glyph-name="uni1EB9" unicode="ẹ" horiz-adv-x="468" d="M249-12q-95 0-151 70.5T42 242q0 108 53.5 180.5T238 495q92 0 141.5-72T429 240v-22H116q2-75 39-122.5T255 48q68 0 115 59l38-42q-63-77-159-77zm109 283q-1 65-31 114.5T237 435q-58 0-88.5-50.5T116 271h242zM239-183q-18 0-32 13.5T193-137q0 18 14 31.5T239-92q19 0 32-13t13-32-13-32.5-32-13.5z"/><glyph glyph-name="uni1EBA" unicode="Ẻ" horiz-adv-x="461" d="M413 0H70v667h343v-70H150V376h256v-70H150V71h263V0zM201 761l-32 8q14 51 65 51 28 0 45.5-16.5T297 755q0-29-19-58h-37q23 27 23 57 0 35-30 35-25 0-33-28z"/><glyph glyph-name="uni1EBB" unicode="ẻ" horiz-adv-x="468" d="M249-12q-95 0-151 70.5T42 242q0 108 53.5 180.5T238 495q92 0 141.5-72T429 240v-22H116q2-75 39-122.5T255 48q68 0 115 59l38-42q-63-77-159-77zm109 283q-1 65-31 114.5T237 435q-58 0-88.5-50.5T116 271h242zM205 591l-32 8q14 51 65 51 28 0 45.5-16.5T301 585q0-29-19-58h-37q23 27 23 57 0 35-30 35-25 0-33-28z"/><glyph glyph-name="uni1EBC" unicode="Ẽ" horiz-adv-x="461" d="M413 0H70v667h343v-70H150V376h256v-70H150V71h263V0zM291 721q-22 0-37.5 14.5t-23 32.5-18.5 32.5-24 14.5q-18 0-29-22t-11-66h-42q0 60 22 97t63 37q22 0 37.5-14.5t23-32 18.5-32 24-14.5q40 0 40 87h42q0-60-22-97t-63-37z"/><glyph glyph-name="uni1EBD" unicode="ẽ" horiz-adv-x="468" d="M249-12q-95 0-151 70.5T42 242q0 108 53.5 180.5T238 495q92 0 141.5-72T429 240v-22H116q2-75 39-122.5T255 48q68 0 115 59l38-42q-63-77-159-77zm109 283q-1 65-31 114.5T237 435q-58 0-88.5-50.5T116 271h242zm-69 283q-22 0-37.5 14.5t-23 32.5-18.5 32.5-24 14.5q-18 0-29-22t-11-66h-42q0 60 22 97t63 37q22 0 37.5-14.5t23-32 18.5-32 24-14.5q40 0 40 87h42q0-60-22-97t-63-37z"/><glyph glyph-name="uni1EBE" unicode="Ế" horiz-adv-x="461" d="M362 682h-47l-71 79-69-79h-46l80 108h70zm157 162L385 736h-52l113 108h73zM413 0H70v667h343v-70H150V376h256v-70H150V71h263V0z"/><glyph glyph-name="uni1EBF" unicode="ế" horiz-adv-x="468" d="M355 556h-47l-71 105-69-105h-46l80 144h70zm152 215L373 627h-52l113 144h73zM249-12q-95 0-151 70.5T42 242q0 108 53.5 180.5T238 495q92 0 141.5-72T429 240v-22H116q2-75 39-122.5T255 48q68 0 115 59l38-42q-63-77-159-77zm109 283q-1 65-31 114.5T237 435q-58 0-88.5-50.5T116 271h242z"/><glyph glyph-name="uni1EC0" unicode="Ề" horiz-adv-x="461" d="M360 682h-47l-71 79-69-79h-46l80 108h70zM413 0H70v667h343v-70H150V376h256v-70H150V71h263V0zM154 736h-52L-32 844h73z"/><glyph glyph-name="uni1EC1" unicode="ề" horiz-adv-x="468" d="M354 556h-47l-71 105-69-105h-46l80 144h70zM249-12q-95 0-151 70.5T42 242q0 108 53.5 180.5T238 495q92 0 141.5-72T429 240v-22H116q2-75 39-122.5T255 48q68 0 115 59l38-42q-63-77-159-77zm109 283q-1 65-31 114.5T237 435q-58 0-88.5-50.5T116 271h242zM150 627H98L-36 771h73z"/><glyph glyph-name="uni1EC2" unicode="Ể" horiz-adv-x="461" d="M361 682h-47l-71 79-69-79h-46l80 108h70zM413 0H70v667h343v-70H150V376h256v-70H150V71h263V0zm-81 791l-32 6q14 38 65 38 28 0 45.5-12t17.5-36q0-22-19-44h-37q23 20 23 43 0 26-30 26-25 0-33-21z"/><glyph glyph-name="uni1EC3" unicode="ể" horiz-adv-x="468" d="M354 556h-47l-71 105-69-105h-46l80 144h70zM249-12q-95 0-151 70.5T42 242q0 108 53.5 180.5T238 495q92 0 141.5-72T429 240v-22H116q2-75 39-122.5T255 48q68 0 115 59l38-42q-63-77-159-77zm109 283q-1 65-31 114.5T237 435q-58 0-88.5-50.5T116 271h242zm-75 460l-32 8q14 51 65 51 28 0 45.5-16.5T379 725q0-29-19-58h-37q23 27 23 57 0 35-30 35-25 0-33-28z"/><glyph glyph-name="uni1EC4" unicode="Ễ" horiz-adv-x="461" d="M360 678h-47l-71 52-69-52h-46l80 72h70zM413 0H70v667h343v-70H150V376h256v-70H150V71h263V0zM292 757q-27 0-44.5 11.5t-30 23.5-28.5 12q-17 0-28.5-11T149 760h-42q0 30 22 48.5t63 18.5q27 0 44.5-11.5t30-23.5 28.5-12q40 0 40 44h42q0-30-22-48.5T292 757z"/><glyph glyph-name="uni1EC5" unicode="ễ" horiz-adv-x="468" d="M353 523h-47l-71 105-69-105h-46l80 144h70zM249-12q-95 0-151 70.5T42 242q0 108 53.5 180.5T238 495q92 0 141.5-72T429 240v-22H116q2-75 39-122.5T255 48q68 0 115 59l38-42q-63-77-159-77zm109 283q-1 65-31 114.5T237 435q-58 0-88.5-50.5T116 271h242zm-73 411q-22 0-37.5 14.5t-23 32.5-18.5 32.5-24 14.5q-18 0-29-22t-11-66h-42q0 60 22 97t63 37q22 0 37.5-14.5t23-32 18.5-32 24-14.5q40 0 40 87h42q0-60-22-97t-63-37z"/><glyph glyph-name="uni1EC6" unicode="Ệ" horiz-adv-x="461" d="M359 723h-47l-71 105-69-105h-46l80 144h70zM413 0H70v667h343v-70H150V376h256v-70H150V71h263V0zM247-183q-18 0-32 13.5T201-137q0 18 14 31.5T247-92q19 0 32-13t13-32-13-32.5-32-13.5z"/><glyph glyph-name="uni1EC7" unicode="ệ" horiz-adv-x="468" d="M356 556h-47l-71 105-69-105h-46l80 144h70zM249-12q-95 0-151 70.5T42 242q0 108 53.5 180.5T238 495q92 0 141.5-72T429 240v-22H116q2-75 39-122.5T255 48q68 0 115 59l38-42q-63-77-159-77zm109 283q-1 65-31 114.5T237 435q-58 0-88.5-50.5T116 271h242zM239-183q-18 0-32 13.5T193-137q0 18 14 31.5T239-92q19 0 32-13t13-32-13-32.5-32-13.5z"/><glyph glyph-name="uni1EC8" unicode="Ỉ" horiz-adv-x="220" d="M150 0H70v667h80V0zM78 761l-32 8q14 51 65 51 28 0 45.5-16.5T174 755q0-29-19-58h-37q23 27 23 57 0 35-30 35-25 0-33-28z"/><glyph glyph-name="uni1EC9" unicode="ỉ" horiz-adv-x="203" d="M137 0H66v483h71V0zM69 591l-32 8q14 51 65 51 28 0 45.5-16.5T165 585q0-29-19-58h-37q23 27 23 57 0 35-30 35-25 0-33-28z"/><glyph glyph-name="uni1ECA" unicode="Ị" horiz-adv-x="220" d="M150 0H70v667h80V0zm-40-183q-18 0-32 13.5T64-137q0 18 14 31.5T110-92q19 0 32-13t13-32-13-32.5-32-13.5z"/><glyph glyph-name="uni1ECB" unicode="ị" horiz-adv-x="203" d="M101 553q-20 0-34.5 14.5T52 602t14.5 34.5T101 651t34.5-14.5T150 602t-14.5-34.5T101 553zM137 0H66v483h71V0zm-35-183q-18 0-32 13.5T56-137q0 18 14 31.5T102-92q19 0 32-13t13-32-13-32.5-32-13.5z"/><glyph glyph-name="uni1ECC" unicode="Ọ" horiz-adv-x="599" d="M299-12q-118 0-185 97.5T47 333t67 247.5T299 678t185.5-97.5T552 333 484.5 85.5 299-12zm0 71q80 0 125.5 77.5T470 333q0 120-45 197t-126 77q-80 0-125-77t-45-197q0-119 45-196.5T299 59zm3-242q-18 0-32 13.5T256-137q0 18 14 31.5T302-92q19 0 32-13t13-32-13-32.5-32-13.5z"/><glyph glyph-name="uni1ECD" unicode="ọ" horiz-adv-x="477" d="M238-12q-92 0-144 73T42 242q0 107 52 180t144 73q93 0 145-72.5T435 242 383 61 238-12zm0 64q60 0 91 55t31 135q0 79-31 134t-91 55q-59 0-90-55t-31-134q0-80 31-135t90-55zm1-235q-18 0-32 13.5T193-137q0 18 14 31.5T239-92q19 0 32-13t13-32-13-32.5-32-13.5z"/><glyph glyph-name="uni1ECE" unicode="Ỏ" horiz-adv-x="599" d="M299-12q-118 0-185 97.5T47 333t67 247.5T299 678t185.5-97.5T552 333 484.5 85.5 299-12zm0 71q80 0 125.5 77.5T470 333q0 120-45 197t-126 77q-80 0-125-77t-45-197q0-119 45-196.5T299 59zm-32 702l-32 8q14 51 65 51 28 0 45.5-16.5T363 755q0-29-19-58h-37q23 27 23 57 0 35-30 35-25 0-33-28z"/><glyph glyph-name="uni1ECF" unicode="ỏ" horiz-adv-x="477" d="M238-12q-92 0-144 73T42 242q0 107 52 180t144 73q93 0 145-72.5T435 242 383 61 238-12zm0 64q60 0 91 55t31 135q0 79-31 134t-91 55q-59 0-90-55t-31-134q0-80 31-135t90-55zm-32 539l-32 8q14 51 65 51 28 0 45.5-16.5T302 585q0-29-19-58h-37q23 27 23 57 0 35-30 35-25 0-33-28z"/><glyph glyph-name="uni1ED0" unicode="Ố" horiz-adv-x="599" d="M414 682h-47l-71 79-69-79h-46l80 108h70zm158 162L438 736h-52l113 108h73zM299-12q-118 0-185 97.5T47 333t67 247.5T299 678t185.5-97.5T552 333 484.5 85.5 299-12zm0 71q80 0 125.5 77.5T470 333q0 120-45 197t-126 77q-80 0-125-77t-45-197q0-119 45-196.5T299 59z"/><glyph glyph-name="uni1ED1" unicode="ố" horiz-adv-x="477" d="M355 556h-47l-71 105-69-105h-46l80 144h70zm153 215L374 627h-52l113 144h73zM238-12q-92 0-144 73T42 242q0 107 52 180t144 73q93 0 145-72.5T435 242 383 61 238-12zm0 64q60 0 91 55t31 135q0 79-31 134t-91 55q-59 0-90-55t-31-134q0-80 31-135t90-55z"/><glyph glyph-name="uni1ED2" unicode="Ồ" horiz-adv-x="599" d="M413 682h-47l-71 79-69-79h-46l80 108h70zM299-12q-118 0-185 97.5T47 333t67 247.5T299 678t185.5-97.5T552 333 484.5 85.5 299-12zm0 71q80 0 125.5 77.5T470 333q0 120-45 197t-126 77q-80 0-125-77t-45-197q0-119 45-196.5T299 59zm-92 677h-52L21 844h73z"/><glyph glyph-name="uni1ED3" unicode="ồ" horiz-adv-x="477" d="M355 556h-47l-71 105-69-105h-46l80 144h70zM238-12q-92 0-144 73T42 242q0 107 52 180t144 73q93 0 145-72.5T435 242 383 61 238-12zm0 64q60 0 91 55t31 135q0 79-31 134t-91 55q-59 0-90-55t-31-134q0-80 31-135t90-55zm-87 575H99L-35 771h73z"/><glyph glyph-name="uni1ED4" unicode="Ổ" horiz-adv-x="599" d="M413 682h-47l-71 79-69-79h-46l80 108h70zM299-12q-118 0-185 97.5T47 333t67 247.5T299 678t185.5-97.5T552 333 484.5 85.5 299-12zm0 71q80 0 125.5 77.5T470 333q0 120-45 197t-126 77q-80 0-125-77t-45-197q0-119 45-196.5T299 59zm85 732l-32 6q14 38 65 38 28 0 45.5-12t17.5-36q0-22-19-44h-37q23 20 23 43 0 26-30 26-25 0-33-21z"/><glyph glyph-name="uni1ED5" unicode="ổ" horiz-adv-x="477" d="M355 556h-47l-71 105-69-105h-46l80 144h70zM238-12q-92 0-144 73T42 242q0 107 52 180t144 73q93 0 145-72.5T435 242 383 61 238-12zm0 64q60 0 91 55t31 135q0 79-31 134t-91 55q-59 0-90-55t-31-134q0-80 31-135t90-55zm46 679l-32 8q14 51 65 51 28 0 45.5-16.5T380 725q0-29-19-58h-37q23 27 23 57 0 35-30 35-25 0-33-28z"/><glyph glyph-name="uni1ED6" unicode="Ỗ" horiz-adv-x="599" d="M416 678h-47l-71 52-69-52h-46l80 72h70zM299-12q-118 0-185 97.5T47 333t67 247.5T299 678t185.5-97.5T552 333 484.5 85.5 299-12zm0 71q80 0 125.5 77.5T470 333q0 120-45 197t-126 77q-80 0-125-77t-45-197q0-119 45-196.5T299 59zm49 698q-27 0-44.5 11.5t-30 23.5-28.5 12q-17 0-28.5-11T205 760h-42q0 30 22 48.5t63 18.5q27 0 44.5-11.5t30-23.5 28.5-12q40 0 40 44h42q0-30-22-48.5T348 757z"/><glyph glyph-name="uni1ED7" unicode="ỗ" horiz-adv-x="477" d="M355 523h-47l-71 105-69-105h-46l80 144h70zM238-12q-92 0-144 73T42 242q0 107 52 180t144 73q93 0 145-72.5T435 242 383 61 238-12zm0 64q60 0 91 55t31 135q0 79-31 134t-91 55q-59 0-90-55t-31-134q0-80 31-135t90-55zm49 630q-22 0-37.5 14.5t-23 32.5-18.5 32.5-24 14.5q-18 0-29-22t-11-66h-42q0 60 22 97t63 37q22 0 37.5-14.5t23-32 18.5-32 24-14.5q40 0 40 87h42q0-60-22-97t-63-37z"/><glyph glyph-name="uni1ED8" unicode="Ộ" horiz-adv-x="599" d="M418 723h-47l-71 105-69-105h-46l80 144h70zM299-12q-118 0-185 97.5T47 333t67 247.5T299 678t185.5-97.5T552 333 484.5 85.5 299-12zm0 71q80 0 125.5 77.5T470 333q0 120-45 197t-126 77q-80 0-125-77t-45-197q0-119 45-196.5T299 59zm3-242q-18 0-32 13.5T256-137q0 18 14 31.5T302-92q19 0 32-13t13-32-13-32.5-32-13.5z"/><glyph glyph-name="uni1ED9" unicode="ộ" horiz-adv-x="477" d="M355 556h-47l-71 105-69-105h-46l80 144h70zM238-12q-92 0-144 73T42 242q0 107 52 180t144 73q93 0 145-72.5T435 242 383 61 238-12zm0 64q60 0 91 55t31 135q0 79-31 134t-91 55q-59 0-90-55t-31-134q0-80 31-135t90-55zm1-235q-18 0-32 13.5T193-137q0 18 14 31.5T239-92q19 0 32-13t13-32-13-32.5-32-13.5z"/><glyph glyph-name="uni1EDA" unicode="Ớ" horiz-adv-x="599" d="M439 867L305 723h-52l113 144h73zM299-12q-118 0-185 97.5T47 333t67 247.5T299 678q121 0 191-107 39 34 42 74-2-2-10-2-17 0-28 12t-11 29 12 29.5 30 12.5q21 0 35-16.5t14-45.5q0-37-18.5-70.5T509 539q43-88 43-206 0-150-67.5-247.5T299-12zm0 71q80 0 125.5 77.5T470 333q0 120-45 197t-126 77q-80 0-125-77t-45-197q0-119 45-196.5T299 59z"/><glyph glyph-name="uni1EDB" unicode="ớ" horiz-adv-x="477" d="M378 700L244 556h-52l113 144h73zm69-170q0-69-57-119 45-67 45-169 0-108-52-181T238-12q-92 0-144 73T42 242q0 107 52 180t144 73q77 0 129-55 34 32 39 71-2-2-11-2-16 0-27 12t-11 29 12 29.5 30 12.5q20 0 34-16.5t14-45.5zM238 52q60 0 91 55t31 135q0 79-31 134t-91 55q-59 0-90-55t-31-134q0-80 31-135t90-55z"/><glyph glyph-name="uni1EDC" unicode="Ờ" horiz-adv-x="599" d="M299-12q-118 0-185 97.5T47 333t67 247.5T299 678q121 0 191-107 39 34 42 74-2-2-10-2-17 0-28 12t-11 29 12 29.5 30 12.5q21 0 35-16.5t14-45.5q0-37-18.5-70.5T509 539q43-88 43-206 0-150-67.5-247.5T299-12zm0 71q80 0 125.5 77.5T470 333q0 120-45 197t-126 77q-80 0-125-77t-45-197q0-119 45-196.5T299 59zm47 664h-52L160 867h73z"/><glyph glyph-name="uni1EDD" unicode="ờ" horiz-adv-x="477" d="M447 530q0-69-57-119 45-67 45-169 0-108-52-181T238-12q-92 0-144 73T42 242q0 107 52 180t144 73q77 0 129-55 34 32 39 71-2-2-11-2-16 0-27 12t-11 29 12 29.5 30 12.5q20 0 34-16.5t14-45.5zM238 52q60 0 91 55t31 135q0 79-31 134t-91 55q-59 0-90-55t-31-134q0-80 31-135t90-55zm48 504h-52L100 700h73z"/><glyph glyph-name="uni1EDE" unicode="Ở" horiz-adv-x="599" d="M299-12q-118 0-185 97.5T47 333t67 247.5T299 678q121 0 191-107 39 34 42 74-2-2-10-2-17 0-28 12t-11 29 12 29.5 30 12.5q21 0 35-16.5t14-45.5q0-37-18.5-70.5T509 539q43-88 43-206 0-150-67.5-247.5T299-12zm0 71q80 0 125.5 77.5T470 333q0 120-45 197t-126 77q-80 0-125-77t-45-197q0-119 45-196.5T299 59zm-32 702l-32 8q14 51 65 51 28 0 45.5-16.5T363 755q0-29-19-58h-37q23 27 23 57 0 35-30 35-25 0-33-28z"/><glyph glyph-name="uni1EDF" unicode="ở" horiz-adv-x="477" d="M447 530q0-69-57-119 45-67 45-169 0-108-52-181T238-12q-92 0-144 73T42 242q0 107 52 180t144 73q77 0 129-55 34 32 39 71-2-2-11-2-16 0-27 12t-11 29 12 29.5 30 12.5q20 0 34-16.5t14-45.5zM238 52q60 0 91 55t31 135q0 79-31 134t-91 55q-59 0-90-55t-31-134q0-80 31-135t90-55zm-32 539l-32 8q14 51 65 51 28 0 45.5-16.5T302 585q0-29-19-58h-37q23 27 23 57 0 35-30 35-25 0-33-28z"/><glyph glyph-name="uni1EE0" unicode="Ỡ" horiz-adv-x="599" d="M299-12q-118 0-185 97.5T47 333t67 247.5T299 678q121 0 191-107 39 34 42 74-2-2-10-2-17 0-28 12t-11 29 12 29.5 30 12.5q21 0 35-16.5t14-45.5q0-37-18.5-70.5T509 539q43-88 43-206 0-150-67.5-247.5T299-12zm0 71q80 0 125.5 77.5T470 333q0 120-45 197t-126 77q-80 0-125-77t-45-197q0-119 45-196.5T299 59zm51 662q-22 0-37.5 14.5t-23 32.5-18.5 32.5-24 14.5q-18 0-29-22t-11-66h-42q0 60 22 97t63 37q22 0 37.5-14.5t23-32 18.5-32 24-14.5q40 0 40 87h42q0-60-22-97t-63-37z"/><glyph glyph-name="uni1EE1" unicode="ỡ" horiz-adv-x="477" d="M447 530q0-69-57-119 45-67 45-169 0-108-52-181T238-12q-92 0-144 73T42 242q0 107 52 180t144 73q77 0 129-55 34 32 39 71-2-2-11-2-16 0-27 12t-11 29 12 29.5 30 12.5q20 0 34-16.5t14-45.5zM238 52q60 0 91 55t31 135q0 79-31 134t-91 55q-59 0-90-55t-31-134q0-80 31-135t90-55zm46 502q-22 0-37.5 14.5t-23 32.5-18.5 32.5-24 14.5q-18 0-29-22t-11-66H99q0 60 22 97t63 37q22 0 37.5-14.5t23-32 18.5-32 24-14.5q40 0 40 87h42q0-60-22-97t-63-37z"/><glyph glyph-name="uni1EE2" unicode="Ợ" horiz-adv-x="599" d="M299-12q-118 0-185 97.5T47 333t67 247.5T299 678q121 0 191-107 39 34 42 74-2-2-10-2-17 0-28 12t-11 29 12 29.5 30 12.5q21 0 35-16.5t14-45.5q0-37-18.5-70.5T509 539q43-88 43-206 0-150-67.5-247.5T299-12zm0 71q80 0 125.5 77.5T470 333q0 120-45 197t-126 77q-80 0-125-77t-45-197q0-119 45-196.5T299 59zm3-242q-18 0-32 13.5T256-137q0 18 14 31.5T302-92q19 0 32-13t13-32-13-32.5-32-13.5z"/><glyph glyph-name="uni1EE3" unicode="ợ" horiz-adv-x="477" d="M447 530q0-69-57-119 45-67 45-169 0-108-52-181T238-12q-92 0-144 73T42 242q0 107 52 180t144 73q77 0 129-55 34 32 39 71-2-2-11-2-16 0-27 12t-11 29 12 29.5 30 12.5q20 0 34-16.5t14-45.5zM238 52q60 0 91 55t31 135q0 79-31 134t-91 55q-59 0-90-55t-31-134q0-80 31-135t90-55zm1-235q-18 0-32 13.5T193-137q0 18 14 31.5T239-92q19 0 32-13t13-32-13-32.5-32-13.5z"/><glyph glyph-name="uni1EE4" unicode="Ụ" horiz-adv-x="569" d="M284-12q-101 0-157.5 59.5T70 216v451h80V215q0-77 35-116.5T284 59q65 0 100 39.5T419 215v452h79V216q0-110-56-169T284-12zm3-171q-18 0-32 13.5T241-137q0 18 14 31.5T287-92q19 0 32-13t13-32-13-32.5-32-13.5z"/><glyph glyph-name="uni1EE5" unicode="ụ" d="M399 0h-72v67q-24-34-60.5-56.5T187-12Q66-12 66 117v366h71V138q0-86 77-86 35 0 65.5 21.5T327 127v356h72V0zM234-183q-18 0-32 13.5T188-137q0 18 14 31.5T234-92q19 0 32-13t13-32-13-32.5-32-13.5z"/><glyph glyph-name="uni1EE6" unicode="Ủ" horiz-adv-x="569" d="M284-12q-101 0-157.5 59.5T70 216v451h80V215q0-77 35-116.5T284 59q65 0 100 39.5T419 215v452h79V216q0-110-56-169T284-12zm-32 773l-32 8q14 51 65 51 28 0 45.5-16.5T348 755q0-29-19-58h-37q23 27 23 57 0 35-30 35-25 0-33-28z"/><glyph glyph-name="uni1EE7" unicode="ủ" d="M399 0h-72v67q-24-34-60.5-56.5T187-12Q66-12 66 117v366h71V138q0-86 77-86 35 0 65.5 21.5T327 127v356h72V0zM200 591l-32 8q14 51 65 51 28 0 45.5-16.5T296 585q0-29-19-58h-37q23 27 23 57 0 35-30 35-25 0-33-28z"/><glyph glyph-name="uni1EE8" unicode="Ứ" horiz-adv-x="569" d="M424 867L290 723h-52l113 144h73zm178-138q0-45-27.5-85.5T498 579V216q0-110-56-169T284-12q-101 0-157.5 59.5T70 216v451h80V215q0-77 35-116.5T284 59q65 0 100 39.5T419 215v452h79v-48q25 15 43 41t20 49q-1 0-5-.5t-6-.5q-16 0-27 11.5T512 748q0 18 11.5 30t29.5 12q21 0 35-16.5t14-44.5z"/><glyph glyph-name="uni1EE9" unicode="ứ" d="M371 700L237 556h-52l113 144h73zM399 0h-72v67q-24-34-60.5-56.5T187-12Q66-12 66 117v366h71V138q0-86 77-86 35 0 65.5 21.5T327 127v356h72v-41q39 36 42 74-7-1-10-1-17 0-28 11.5T392 555q0 18 12 30.5t30 12.5q21 0 35-17t14-45q0-86-84-139V0z"/><glyph glyph-name="uni1EEA" unicode="Ừ" horiz-adv-x="569" d="M331 723h-52L145 867h73zm271 6q0-45-27.5-85.5T498 579V216q0-110-56-169T284-12q-101 0-157.5 59.5T70 216v451h80V215q0-77 35-116.5T284 59q65 0 100 39.5T419 215v452h79v-48q25 15 43 41t20 49q-1 0-5-.5t-6-.5q-16 0-27 11.5T512 748q0 18 11.5 30t29.5 12q21 0 35-16.5t14-44.5z"/><glyph glyph-name="uni1EEB" unicode="ừ" d="M279 556h-52L93 700h73zM399 0h-72v67q-24-34-60.5-56.5T187-12Q66-12 66 117v366h71V138q0-86 77-86 35 0 65.5 21.5T327 127v356h72v-41q39 36 42 74-7-1-10-1-17 0-28 11.5T392 555q0 18 12 30.5t30 12.5q21 0 35-17t14-45q0-86-84-139V0z"/><glyph glyph-name="uni1EEC" unicode="Ử" horiz-adv-x="569" d="M252 761l-32 8q14 51 65 51 28 0 45.5-16.5T348 755q0-29-19-58h-37q23 27 23 57 0 35-30 35-25 0-33-28zm350-32q0-45-27.5-85.5T498 579V216q0-110-56-169T284-12q-101 0-157.5 59.5T70 216v451h80V215q0-77 35-116.5T284 59q65 0 100 39.5T419 215v452h79v-48q25 15 43 41t20 49q-1 0-5-.5t-6-.5q-16 0-27 11.5T512 748q0 18 11.5 30t29.5 12q21 0 35-16.5t14-44.5z"/><glyph glyph-name="uni1EED" unicode="ử" d="M200 591l-32 8q14 51 65 51 28 0 45.5-16.5T296 585q0-29-19-58h-37q23 27 23 57 0 35-30 35-25 0-33-28zM399 0h-72v67q-24-34-60.5-56.5T187-12Q66-12 66 117v366h71V138q0-86 77-86 35 0 65.5 21.5T327 127v356h72v-41q39 36 42 74-7-1-10-1-17 0-28 11.5T392 555q0 18 12 30.5t30 12.5q21 0 35-17t14-45q0-86-84-139V0z"/><glyph glyph-name="uni1EEE" unicode="Ữ" horiz-adv-x="569" d="M602 729q0-45-27.5-85.5T498 579V216q0-110-56-169T284-12q-101 0-157.5 59.5T70 216v451h80V215q0-77 35-116.5T284 59q65 0 100 39.5T419 215v452h79v-48q25 15 43 41t20 49q-1 0-5-.5t-6-.5q-16 0-27 11.5T512 748q0 18 11.5 30t29.5 12q21 0 35-16.5t14-44.5zm-268-8q-22 0-37.5 14.5t-23 32.5-18.5 32.5-24 14.5q-18 0-29-22t-11-66h-42q0 60 22 97t63 37q22 0 37.5-14.5t23-32 18.5-32 24-14.5q40 0 40 87h42q0-60-22-97t-63-37z"/><glyph glyph-name="uni1EEF" unicode="ữ" d="M399 0h-72v67q-24-34-60.5-56.5T187-12Q66-12 66 117v366h71V138q0-86 77-86 35 0 65.5 21.5T327 127v356h72v-41q39 36 42 74-7-1-10-1-17 0-28 11.5T392 555q0 18 12 30.5t30 12.5q21 0 35-17t14-45q0-86-84-139V0zM283 554q-22 0-37.5 14.5t-23 32.5-18.5 32.5-24 14.5q-18 0-29-22t-11-66H98q0 60 22 97t63 37q22 0 37.5-14.5t23-32 18.5-32 24-14.5q40 0 40 87h42q0-60-22-97t-63-37z"/><glyph glyph-name="uni1EF0" unicode="Ự" horiz-adv-x="569" d="M287-183q-18 0-32 13.5T241-137q0 18 14 31.5T287-92q19 0 32-13t13-32-13-32.5-32-13.5zm315 912q0-45-27.5-85.5T498 579V216q0-110-56-169T284-12q-101 0-157.5 59.5T70 216v451h80V215q0-77 35-116.5T284 59q65 0 100 39.5T419 215v452h79v-48q25 15 43 41t20 49q-1 0-5-.5t-6-.5q-16 0-27 11.5T512 748q0 18 11.5 30t29.5 12q21 0 35-16.5t14-44.5z"/><glyph glyph-name="uni1EF1" unicode="ự" d="M234-183q-18 0-32 13.5T188-137q0 18 14 31.5T234-92q19 0 32-13t13-32-13-32.5-32-13.5zM399 0h-72v67q-24-34-60.5-56.5T187-12Q66-12 66 117v366h71V138q0-86 77-86 35 0 65.5 21.5T327 127v356h72v-41q39 36 42 74-7-1-10-1-17 0-28 11.5T392 555q0 18 12 30.5t30 12.5q21 0 35-17t14-45q0-86-84-139V0z"/><glyph glyph-name="Ygrave" unicode="Ỳ" horiz-adv-x="499" d="M289 0h-79v282L4 667h89l157-308 157 308h88L289 282V0zm8 723h-52L111 867h73z"/><glyph glyph-name="ygrave" unicode="ỳ" horiz-adv-x="408" d="M41-189l11 64q13-7 32-7 22 0 34.5 10.5T141-84l26 74L6 483h78L204 87l121 396h77L209-102q-17-51-46.5-72.5T89-196q-29 0-48 7zm210 745h-52L65 700h73z"/><glyph glyph-name="thinspace" horiz-adv-x="43"/><glyph glyph-name="endash" unicode="–" horiz-adv-x="527" d="M497 210H30v64h467v-64z"/><glyph glyph-name="emdash" unicode="—" horiz-adv-x="737" d="M707 210H30v64h677v-64z"/><glyph glyph-name="afii00208" unicode="―" horiz-adv-x="527" d="M497 210H30v64h467v-64z"/><glyph glyph-name="quoteleft" unicode="‘" horiz-adv-x="229" d="M53 529q0 44 22 83.5t57 64.5l37-29q-24-16-42.5-42.5T105 555q1 0 5.5 1t7.5 1q20 0 33.5-14.5T165 507t-15-36.5-37-15.5q-25 0-42.5 20T53 529z"/><glyph glyph-name="quoteright" unicode="’" horiz-adv-x="229" d="M173 603q0-44-22.5-84T93 454l-36 30q24 16 42.5 42.5T121 577q-4-2-13-2-20 0-33.5 14T61 625q0 21 15 36.5t37 15.5q25 0 42.5-20t17.5-54z"/><glyph glyph-name="quotesinglbase" unicode="‚" horiz-adv-x="228" d="M173 22q0-43-22.5-83T93-126L57-97q24 17 42.5 43T121-4q-1 0-6-.5t-7-.5Q88-5 74.5 9T61 44q0 22 15 37.5T113 97q25 0 42.5-20T173 22z"/><glyph glyph-name="quotereversed" unicode="‛" horiz-adv-x="229" d="M56 603q0 34 17.5 54t42.5 20q22 0 37-15.5t15-36.5q0-22-13.5-36T121 575q-9 0-13 2 3-24 21.5-50.5T172 484l-37-30q-35 25-57 65t-22 84z"/><glyph glyph-name="quotedblleft" unicode="“" horiz-adv-x="386" d="M56 529q0 44 22 83.5t57 64.5l37-29q-24-16-42.5-42.5T108 555l5 1q5 1 8 1 20 0 33.5-14.5T168 507t-15-36.5-37-15.5q-25 0-42.5 20T56 529zm157 0q0 44 22.5 83.5T293 677l36-29q-24-16-42.5-42.5T266 555l4 1q5 1 8 1 20 0 33.5-14.5T325 507t-15-36.5-37-15.5q-25 0-42.5 20T213 529z"/><glyph glyph-name="quotedblright" unicode="”" horiz-adv-x="386" d="M330 603q0-44-22-84t-57-65l-37 30q24 16 42.5 42.5T278 577q-4-2-13-2-20 0-33.5 14T218 625q0 21 15 36.5t37 15.5q25 0 42.5-20t17.5-54zm-157 0q0-44-22.5-84T93 454l-36 30q24 16 42.5 42.5T121 577q-4-2-13-2-20 0-33.5 14T61 625q0 21 15 36.5t37 15.5q25 0 42.5-20t17.5-54z"/><glyph glyph-name="quotedblbase" unicode="„" horiz-adv-x="386" d="M173 22q0-43-22.5-83T93-126L57-97q24 17 42.5 43T121-4q-1 0-6-.5t-7-.5Q88-5 74.5 9T61 44q0 22 15 37.5T113 97q25 0 42.5-20T173 22zm157 0q0-43-22-83t-57-65l-37 29q24 17 42.5 43T278-4q-1 0-5.5-.5T265-5q-20 0-33.5 14T218 44q0 22 15 37.5T270 97q25 0 42.5-20T330 22z"/><glyph glyph-name="dagger" unicode="†" horiz-adv-x="262" d="M239 532l-89 4 4-209h-47l5 209-89-4v42l89-3-5 106h47l-4-106 89 3v-42z"/><glyph glyph-name="daggerdbl" unicode="‡" horiz-adv-x="262" d="M239 574v-42l-89 4V322l89 4v-42l-89 3 4-107h-47l4 107-88-3v42l88-4v214l-88-4v42l88-3-4 106h47l-4-106z"/><glyph glyph-name="bullet" unicode="•" horiz-adv-x="358" d="M287 242q0-44-31.5-75T180 136t-75.5 31T73 242t31.5 75.5T180 349t75.5-31.5T287 242z"/><glyph glyph-name="ellipsis" unicode="…" horiz-adv-x="685" d="M167 44q0-22-15.5-38T114-10 76.5 6 61 44q0 21 15.5 37T114 97t37.5-16T167 44zm229 0q0-22-16-38t-38-16-37.5 16T289 44q0 21 15.5 37T342 97t38-16 16-37zm228 0q0-22-16-38t-38-16-37.5 16T517 44q0 21 15.5 37T570 97t38-16 16-37z"/><glyph glyph-name="perthousand" unicode="‰" horiz-adv-x="962" d="M312 512q0-71-39-117.5T171 348 69 394.5 30 512t39 118 102 47 102-47 39-118zm214 155L175 0h-47l350 667h48zm95-516q0-70-39.5-116.5T480-12q-63 0-102 46t-39 117q0 72 39 119t102 47q62 0 101.5-47.5T621 151zM255 512q0 51-23 84.5T171 630t-61.5-33.5T86 512t23.5-84 61.5-33 61 33.5 23 83.5zm310-361q0 52-23.5 85T480 269t-61.5-33-23.5-85q0-50 23.5-83T480 35t61.5 33 23.5 83zm367 0q0-70-39.5-116.5T791-12q-63 0-101.5 46T651 151q0 72 38.5 119T791 317q62 0 101.5-47.5T932 151zm-56 0q0 52-23.5 85T791 269t-61.5-33-23.5-85q0-50 23.5-83T791 35t61.5 33 23.5 83z"/><glyph glyph-name="guilsinglleft" unicode="‹" horiz-adv-x="252" d="M222 63h-67L30 243l125 177h67L97 243z"/><glyph glyph-name="guilsinglright" unicode="›" horiz-adv-x="252" d="M222 243L97 63H30l125 180L30 420h67z"/><glyph glyph-name="uni203E" unicode="‾" horiz-adv-x="306" d="M306 573H0v46h306v-46z"/><glyph glyph-name="fraction" unicode="⁄" horiz-adv-x="127" d="M262 667L-88 0h-48l350 667h48z"/><glyph glyph-name="zerosuperior" unicode="⁰" horiz-adv-x="326" d="M301 621q0-53-13-98t-45-77-79-32q-70 0-104.5 61.5T25 621t34.5 145T164 827q69 0 103-61t34-145zm-59 0q0 158-78 158-80 0-80-158 0-159 80-159 78 0 78 159z"/><glyph glyph-name="foursuperior" unicode="⁴" horiz-adv-x="326" d="M301 522h-47V421h-58v101H28v45l150 254h76V569h47v-47zm-105 47v193L82 569h114z"/><glyph glyph-name="fivesuperior" unicode="⁵" horiz-adv-x="326" d="M293 547q0-59-37-96t-95-37q-86 0-129 66l37 35q33-53 91-53 33 0 54 24t21 59q0 40-20 62.5T162 630q-43 0-76-40l-42 15v216h226v-48H101V639q31 35 80 35 48 0 80-33.5t32-93.5z"/><glyph glyph-name="sixsuperior" unicode="⁶" horiz-adv-x="326" d="M297 545q0-55-35-93t-92-38q-73 0-107 58.5T29 621q0 89 38.5 147.5T180 827q62 0 101-47l-30-40q-27 39-71 39-46 0-69-43.5T88 631v-14q14 24 39 41.5t56 17.5q49 0 81.5-34.5T297 545zm-59-1q0 43-20 64t-52 21q-47 0-78-57 4-45 22-77.5t57-32.5q34 0 52.5 25t18.5 57z"/><glyph glyph-name="sevensuperior" unicode="⁷" horiz-adv-x="300" d="M272 781L135 421H75l137 352H25v48h247v-40z"/><glyph glyph-name="eightsuperior" unicode="⁸" horiz-adv-x="326" d="M294 521q0-50-36.5-78.5T163 414t-95 28.5T31 521q0 37 25.5 66t61.5 40q-34 11-57 36t-23 61q0 51 37 77t88 26 88-26 37-77q0-36-23-61t-56-36q35-11 60-40t25-66zm-63 196q0 30-18.5 47T163 781t-49.5-17T95 717q0-32 23.5-49t44.5-21q21 4 44.5 21t23.5 49zm6-191q0 34-27 56t-47 24q-20-2-47-24t-27-56q0-31 21.5-49t52.5-18 52.5 18 21.5 49z"/><glyph glyph-name="ninesuperior" unicode="⁹" horiz-adv-x="326" d="M30 695q0 55 35 93.5t92 38.5q73 0 107-58.5T298 620q0-89-38.5-147.5T147 414q-64 0-101 47l30 40q27-39 71-39 45 0 68.5 44T239 611v13q-14-24-39-41.5T144 565q-49 0-81.5 34.5T30 695zm59 2q0-43 20-64t51-21q24 0 44.5 16t33.5 41q-2 44-20.5 77T160 779q-34 0-52.5-24.5T89 697z"/><glyph glyph-name="parenleftsuperior" unicode="⁽" horiz-adv-x="147" d="M136 370l-32-14Q27 474 27 621t77 265l32-14Q80 751 80 621t56-251z"/><glyph glyph-name="parenrightsuperior" unicode="⁾" horiz-adv-x="147" d="M126 621q0-147-77-265l-32 14q56 121 56 251T17 872l32 14q77-118 77-265z"/><glyph glyph-name="nsuperior" unicode="ⁿ" horiz-adv-x="343" d="M290 326h-55v217q0 59-52 59-44 0-75-48V326H53v314h55v-44q16 21 42 36.5t54 15.5q48 0 67-24t19-68V326z"/><glyph glyph-name="zeroinferior" unicode="₀" horiz-adv-x="326" d="M301 54q0-53-13-98t-45-77-79-32q-70 0-104.5 61.5T25 54t34.5 145T164 260q69 0 103-61t34-145zm-59 0q0 158-78 158-80 0-80-158 0-159 80-159 78 0 78 159z"/><glyph glyph-name="oneinferior" unicode="₁" horiz-adv-x="225" d="M169-146h-58v325l-63-66-34 35 104 106h51v-400z"/><glyph glyph-name="twoinferior" unicode="₂" horiz-adv-x="326" d="M291-146H41v44Q157 12 194 58.5t37 87.5q0 32-20 49t-49 17q-59 0-91-51l-35 35q46 64 128 64 54 0 89.5-29t35.5-82q0-48-36.5-98T119-98h172v-48z"/><glyph glyph-name="threeinferior" unicode="₃" horiz-adv-x="326" d="M293-37q0-52-35-84t-96-32q-90 0-131 66l35 34q35-52 94-52 36 0 55.5 19T235-34q0 70-83 70-27 0-33-1v48q6-1 32-1 78 0 78 65 0 32-19.5 48.5T158 212q-54 0-88-48l-35 33q45 63 127 63 56 0 90.5-28t34.5-79q0-36-23-61t-54-31q31-4 57-31t26-67z"/><glyph glyph-name="fourinferior" unicode="₄" horiz-adv-x="326" d="M301-45h-47v-101h-58v101H28V0l150 254h76V2h47v-47zM196 2v193L82 2h114z"/><glyph glyph-name="fiveinferior" unicode="₅" horiz-adv-x="326" d="M293-20q0-59-37-96t-95-37q-86 0-129 66l37 35q33-53 91-53 33 0 54 24t21 59q0 40-20 62.5T162 63q-43 0-76-40L44 38v216h226v-48H101V72q31 35 80 35 48 0 80-33.5T293-20z"/><glyph glyph-name="sixinferior" unicode="₆" horiz-adv-x="326" d="M297-22q0-55-35-93t-92-38q-73 0-107 58.5T29 54q0 89 38.5 147.5T180 260q62 0 101-47l-30-40q-27 39-71 39-46 0-69-43.5T88 64V50q14 24 39 41.5t56 17.5q49 0 81.5-34.5T297-22zm-59-1q0 43-20 64t-52 21q-47 0-78-57 4-45 22-77.5t57-32.5q34 0 52.5 25T238-23z"/><glyph glyph-name="seveninferior" unicode="₇" horiz-adv-x="300" d="M272 214L135-146H75l137 352H25v48h247v-40z"/><glyph glyph-name="eightinferior" unicode="₈" horiz-adv-x="326" d="M294-46q0-50-36.5-78.5T163-153t-95 28.5T31-46q0 37 25.5 66T118 60Q84 71 61 96t-23 61q0 51 37 77t88 26 88-26 37-77q0-36-23-61t-56-36q35-11 60-40t25-66zm-63 196q0 30-18.5 47T163 214t-49.5-17T95 150q0-32 23.5-49T163 80q21 4 44.5 21t23.5 49zm6-191q0 34-27 56t-47 24q-20-2-47-24T89-41q0-31 21.5-49t52.5-18 52.5 18T237-41z"/><glyph glyph-name="nineinferior" unicode="₉" horiz-adv-x="326" d="M30 128q0 55 35 93.5t92 38.5q73 0 107-58.5T298 53q0-89-38.5-147.5T147-153q-64 0-101 47l30 40q27-39 71-39 45 0 68.5 44T239 44v13q-14-24-39-41.5T144-2Q95-2 62.5 32.5T30 128zm59 2q0-43 20-64t51-21q24 0 44.5 16t33.5 41q-2 44-20.5 77T160 212q-34 0-52.5-24.5T89 130z"/><glyph glyph-name="parenleftinferior" unicode="₍" horiz-adv-x="147" d="M136-197l-32-14Q27-93 27 54t77 265l32-14Q80 184 80 54t56-251z"/><glyph glyph-name="parenrightinferior" unicode="₎" horiz-adv-x="147" d="M126 54q0-147-77-265l-32 14Q73-76 73 54T17 305l32 14q77-118 77-265z"/><glyph glyph-name="colonmonetary" unicode="₡" horiz-adv-x="522" d="M304-12q-17 0-25 1l-24-89h-48l27 99q-31 9-58 27l-33-126H95l41 160q-91 96-91 273 0 152 70.5 248.5T304 678h1l25 90h48l-26-95q33-8 58-24l32 119h48l-41-150q30-31 50-70l-66-31q-1 2-7 13L299 59h5q87 0 130 99l67-31Q432-12 304-12zM197 107q24-27 56-39l137 506q-26 22-57 30zm-70 226q0-102 36-176l122 448q-72-9-115-84t-43-188z"/><glyph glyph-name="frenchfranc" unicode="₣" d="M164 0H84v139H16v46h68v482h343v-70H164V376h256v-70H164V185h151v-46H164V0z"/><glyph glyph-name="lira" unicode="₤" horiz-adv-x="449" d="M25 328v45h52q-29 51-29 111 0 79 55.5 136T239 677q60 0 105-29.5t64-83.5l-63-34q-12 35-38 57.5T244 610q-46 0-78.5-35T133 482q0-57 32-109h147v-45H194q24-39 30-72h88v-45h-86q-6-78-70-126 22 9 46 9 28 0 64.5-18T325 58q25 0 47.5 11.5T405 96l32-63q-39-46-117-46-41 0-81 22t-67 22q-40 0-98-38L45 52q52 28 81 69.5t29 86.5v3H25v45h122q-8 22-41 72H25z"/><glyph glyph-name="uni20A6" unicode="₦" horiz-adv-x="599" d="M516 0h-77L305 242H164V0H84v242H16v47h68v96H16v47h68v235h80l131-235h141v235h80V432h66v-47h-66v-96h66v-47h-66V0zM164 385v-96h115l-53 96h-62zm157 0l54-96h61v96H321zM164 497v-65h36zm237-255l35-62v62h-35z"/><glyph glyph-name="peseta" unicode="₧" horiz-adv-x="541" d="M531 442h-61q-7-76-55-125.5T286 267H163V0H84v442H16v50h68v175h202q81 0 129-49t55-126h61v-50zM163 597V492h224q-6 47-35 76t-74 29H163zm115-260q45 0 74 28.5t35 76.5H163V337h115z"/><glyph glyph-name="rupee" unicode="₨" horiz-adv-x="850" d="M653-12q-104 0-163 68l36 51q50-61 126-61 42 0 67.5 21.5T745 124q0 31-25 52t-60.5 34.5T589 240t-60 47.5-25 77.5q0 56 42 93t112 37q90 0 147-62l-34-49q-40 53-112 53-39 0-62.5-20T573 367q0-28 25-47t60.5-32.5T729 257t60-50 25-81q0-61-44-99.5T653-12zM464 0h-90L246 267h-96V0H70v667h204q81 0 132-54t51-145q0-83-39-131t-94-58zM265 337q51 0 80.5 36t29.5 94-29.5 94-80.5 36H150V337h115z"/><glyph glyph-name="uni20A9" unicode="₩" horiz-adv-x="730" d="M558 0h-85l-50 242H305L256 0h-85l-54 242H24v47h83l-22 96H24v47h51L23 667h85l47-235h127l49 235h67l49-235h127l47 235h85l-52-235h50v-47h-61l-21-96h82v-47h-93zM164 385l19-96h69l20 96H164zm293 0l20-96h68l19 96H457zm-122 0l-20-96h98l-20 96h-58zm152-143l25-119 24 119h-49zm-294 0l24-119 25 119h-49zm171 284l-20-94h39z"/><glyph glyph-name="afii57636" unicode="₪" horiz-adv-x="659" d="M412 0H219v392h64V60h129q60 0 88.5 30.5T529 186v364h64V209q0-109-43-159T412 0zM259 550q95 0 138-50t43-159V157h-64v206q0 66-28.5 96.5T259 490H130V0H66v550h193z"/><glyph glyph-name="dong" unicode="₫" horiz-adv-x="488" d="M401-141H95v46h306v-46zM414 0h-72v69q-21-37-55-59t-72-22q-80 0-126.5 69T42 241q0 114 46 184t127 70q38 0 72-21t55-61v123H204v46h138v85h72v-85h60v-46h-60V0zM233 52q34 0 64.5 23t44.5 55v222q-14 33-45 56t-64 23q-57 0-86.5-53.5T117 241t29.5-136T233 52z"/><glyph glyph-name="Euro" unicode="€" horiz-adv-x="549" d="M323-12q-98 0-164 68T72 238H23v50h42q-1 19-1 45t2 47H23v51h49q21 113 87.5 180T323 678q127 0 195-130l-66-31q-45 90-129 90-62 0-106-48t-62-128h212v-51H148q-2-20-2-47 0-26 2-45h219v-50H155q17-82 61-130.5T323 59q87 0 130 99l67-31Q450-12 323-12z"/><glyph glyph-name="afii61289" unicode="ℓ" horiz-adv-x="425" d="M142 277V104q0-58 39-58 26 0 42 19l22-48q-28-29-78-29-96 0-96 109v418q0 71 47 116.5T241 677q66 0 112.5-34.5T400 552q0-39-24.5-73T298 401zm0 77l118 92q39 33 55 55.5t16 49.5q0 31-27 51t-64 20q-44 0-71-29t-27-79V354z"/><glyph glyph-name="afii61352" unicode="№" horiz-adv-x="919" d="M745 350q-64 0-100.5 47.5T608 515t36.5 117.5T745 680q65 0 101.5-47.5T883 515t-36.5-117.5T745 350zm0 46q40 0 60.5 34t20.5 85-20.5 84-60.5 33q-39 0-59.5-33T665 515t20.5-85 59.5-34zM502 0h-77L150 497V0H70v667h80l272-487v487h80V0z"/><glyph glyph-name="published" unicode="℗" horiz-adv-x="778" d="M734 334q0-142-101-243.5T389-11 145 90.5 44 334t101 243.5T389 679t244-101.5T734 334zm-30 0q0 129-93 222t-222 93-221.5-93T75 334q0-130 92-222t222-92q129 0 222 92.5T704 334zm-155 85q0-52-36.5-83T423 305H311V131h-36v405h148q53 0 89.5-31.5T549 419zm-37 0q0 38-24.5 60.5T423 502H311V339h112q39 0 64 22t25 58z"/><glyph glyph-name="servicemark" unicode="℠" horiz-adv-x="425" d="M388 447h-28v182l-65-182h-8l-65 182V447h-28v220h43l54-158 54 158h43V447zm-233 57q0-29-19-46.5T84 440q-43 0-69 29l16 23q22-26 50-26 20 0 31.5 10t11.5 26q0 18-16 30.5T72 551t-36 22-16 40q0 26 19 43t48 17q41 0 63-24l-15-21q-18 20-46 20-16 0-26.5-9T52 615q0-16 16-27t35.5-18 35.5-23.5 16-42.5z"/><glyph glyph-name="trademark" unicode="™" horiz-adv-x="414" d="M379 447h-28v182l-65-182h-8l-65 182V447h-28v220h43l54-158 54 158h43V447zM149 641H97V447H69v194H17v26h132v-26z"/><glyph glyph-name="Omega" unicode="Ω" horiz-adv-x="592" d="M57 71h104Q43 159 43 347q0 149 67.5 240T296 678q117 0 185-90.5T549 347q0-188-118-276h104V0H349v71q48 20 82.5 88.5T466 333q0 124-44 198.5T296 606t-126.5-74.5T125 333q0-105 35-173.5T243 71V0H57v71z"/><glyph glyph-name="estimated" unicode="℮" horiz-adv-x="842" d="M811 324H179q-5 0-5-5V129q0-14 9-23Q281 3 423 3q151 0 250 115h57q-54-63-135-99.5T421-18Q260-18 145.5 85T31 333t114.5 248T421 684t275.5-103T811 333v-9zm-143 25v191q0 14-10 24-97 99-235 99-140 0-239-102-10-10-10-24V349q0-6 5-6h485q4 0 4 6z"/><glyph glyph-name="onethird" unicode="⅓" horiz-adv-x="707" d="M169 267h-58v325l-63-66-34 35 104 106h51V267zm347 400L166 0h-48l350 667h48zm158-558q0-52-35-84T543-7q-90 0-131 66l35 34q35-52 94-52 36 0 55.5 19t19.5 52q0 70-83 70-27 0-33-1v48q6-1 32-1 78 0 78 65 0 32-19.5 48.5T539 358q-54 0-88-48l-35 33q45 63 127 63 56 0 90.5-28t34.5-79q0-36-23-61t-54-31q31-4 57-31t26-67z"/><glyph glyph-name="twothirds" unicode="⅔" horiz-adv-x="779" d="M291 267H41v44q116 114 153 160.5t37 87.5q0 32-20 49t-49 17q-59 0-91-51l-35 35q46 64 128 64 54 0 89.5-29t35.5-82q0-48-36.5-98T119 315h172v-48zm297 400L238 0h-48l350 667h48zm158-558q0-52-35-84T615-7q-90 0-131 66l35 34q35-52 94-52 36 0 55.5 19t19.5 52q0 70-83 70-27 0-33-1v48q6-1 32-1 78 0 78 65 0 32-19.5 48.5T611 358q-54 0-88-48l-35 33q45 63 127 63 56 0 90.5-28t34.5-79q0-36-23-61t-54-31q31-4 57-31t26-67z"/><glyph glyph-name="oneeighth" unicode="⅛" horiz-adv-x="707" d="M169 267h-58v325l-63-66-34 35 104 106h51V267zm506-167q0-50-36.5-78.5T544-7t-95 28.5-37 78.5q0 37 25.5 66t61.5 40q-34 11-57 36t-23 61q0 51 37 77t88 26 88-26 37-77q0-36-23-61t-56-36q35-11 60-40t25-66zm-63 196q0 30-18.5 47T544 360t-49.5-17-18.5-47q0-32 23.5-49t44.5-21q21 4 44.5 21t23.5 49zm6-191q0 34-27 56t-47 24q-20-2-47-24t-27-56q0-31 21.5-49T544 38t52.5 18 21.5 49zM516 667L166 0h-48l350 667h48z"/><glyph glyph-name="threeeighths" unicode="⅜" horiz-adv-x="779" d="M747 100q0-50-36.5-78.5T616-7t-95 28.5-37 78.5q0 37 25.5 66t61.5 40q-34 11-57 36t-23 61q0 51 37 77t88 26 88-26 37-77q0-36-23-61t-56-36q35-11 60-40t25-66zm-63 196q0 30-18.5 47T616 360t-49.5-17-18.5-47q0-32 23.5-49t44.5-21q21 4 44.5 21t23.5 49zm6-191q0 34-27 56t-47 24q-20-2-47-24t-27-56q0-31 21.5-49T616 38t52.5 18 21.5 49zM588 667L238 0h-48l350 667h48zM293 376q0-52-35-84t-96-32q-90 0-131 66l35 34q35-52 94-52 36 0 55.5 19t19.5 52q0 70-83 70-27 0-33-1v48q6-1 32-1 78 0 78 65 0 32-19.5 48.5T158 625q-54 0-88-48l-35 33q45 63 127 63 56 0 90.5-28t34.5-79q0-36-23-61t-54-31q31-4 57-31t26-67z"/><glyph glyph-name="fiveeighths" unicode="⅝" horiz-adv-x="777" d="M745 100q0-50-36.5-78.5T614-7t-95 28.5-37 78.5q0 37 25.5 66t61.5 40q-34 11-57 36t-23 61q0 51 37 77t88 26 88-26 37-77q0-36-23-61t-56-36q35-11 60-40t25-66zm-63 196q0 30-18.5 47T614 360t-49.5-17-18.5-47q0-32 23.5-49t44.5-21q21 4 44.5 21t23.5 49zm6-191q0 34-27 56t-47 24q-20-2-47-24t-27-56q0-31 21.5-49T614 38t52.5 18 21.5 49zM293 393q0-59-37-96t-95-37q-86 0-129 66l37 35q33-53 91-53 33 0 54 24t21 59q0 40-20 62.5T162 476q-43 0-76-40l-42 15v216h226v-48H101V485q31 35 80 35 48 0 80-33.5t32-93.5zm293 274L236 0h-48l350 667h48z"/><glyph glyph-name="seveneighths" unicode="⅞" horiz-adv-x="709" d="M677 100q0-50-36.5-78.5T546-7t-95 28.5-37 78.5q0 37 25.5 66t61.5 40q-34 11-57 36t-23 61q0 51 37 77t88 26 88-26 37-77q0-36-23-61t-56-36q35-11 60-40t25-66zm-63 196q0 30-18.5 47T546 360t-49.5-17-18.5-47q0-32 23.5-49t44.5-21q21 4 44.5 21t23.5 49zm6-191q0 34-27 56t-47 24q-20-2-47-24t-27-56q0-31 21.5-49T546 38t52.5 18 21.5 49zM272 627L135 267H75l137 352H25v48h247v-40zm246 40L168 0h-48l350 667h48z"/><glyph glyph-name="arrowleft" unicode="←" horiz-adv-x="582" d="M538 211H269l12-130L0 286l281 204-12-129h269V211z"/><glyph glyph-name="arrowup" unicode="↑" horiz-adv-x="582" d="M216 17v269L86 274l205 281 204-281-129 12V17H216z"/><glyph glyph-name="arrowright" unicode="→" horiz-adv-x="582" d="M584 286L303 81l12 130H47v150h268l-12 129z"/><glyph glyph-name="arrowdown" unicode="↓" horiz-adv-x="582" d="M366 555V286l130 12L291 17 87 298l129-12v269h150z"/><glyph glyph-name="partialdiff" unicode="∂" horiz-adv-x="477" d="M238-12q-92 0-144 71T42 235q0 104 48.5 174.5T222 480q76 0 119-71-22 63-67.5 126.5T168 642l58 38q92-82 150.5-194T435 245q0-112-51.5-184.5T238-12zm0 64q60 0 91 53t31 130q0 76-31 128.5T238 416q-59 0-90-53t-31-128q0-76 31-129.5T238 52z"/><glyph glyph-name="Delta" unicode="∆" horiz-adv-x="526" d="M518 0H8l207 667h95zM415 71L263 579 111 71h304z"/><glyph glyph-name="product" unicode="∏" horiz-adv-x="566" d="M460-90h-79v687H185V-90h-79v687H25v70h516v-70h-81V-90z"/><glyph glyph-name="summation" unicode="∑" horiz-adv-x="451" d="M139 597l172-298L136-20h271v-70H48v72l173 316L49 597v70h358v-70H139z"/><glyph glyph-name="minus" unicode="−" horiz-adv-x="439" d="M410 312H29v51h381v-51z"/><glyph glyph-name="uni2215" unicode="∕" horiz-adv-x="127" d="M262 667L-88 0h-48l350 667h48z"/><glyph glyph-name="uni2219" unicode="∙" horiz-adv-x="228" d="M168 245q0-22-16-38t-38-16-37.5 16T61 245q0 21 15.5 37t37.5 16 38-16 16-37z"/><glyph glyph-name="radical" unicode="√" horiz-adv-x="595" d="M358 0h-56L201 323 67 280l-13 49 181 56 96-311 185 593h54z"/><glyph glyph-name="infinity" unicode="∞" horiz-adv-x="568" d="M160 171q-64 0-97.5 49T29 335q0 67 33.5 116t97.5 49q79 0 124-109 19 47 51 77.5t72 30.5q65 0 98.5-48.5T539 335q0-66-33.5-115T407 171q-40 0-72 30.5T284 280q-44-109-124-109zm241 51q40 0 62.5 31.5T486 335q0 51-22.5 82.5T401 449q-59 0-94-114 35-113 94-113zm-234 0q57 0 94 113-37 114-94 114-40 0-63-31.5T81 335q0-50 23-81.5t63-31.5z"/><glyph glyph-name="integral" unicode="∫" horiz-adv-x="291" d="M63-100H17v53h46q22 0 38 19t16 48v628q0 53 33.5 86.5T228 768h46v-53h-46q-22 0-38-19t-16-48V19q0-53-33.5-86T63-100z"/><glyph glyph-name="approxequal" unicode="≈" horiz-adv-x="439" d="M29 212v55q43-26 95-26 40 0 90.5 23t99.5 23q56 0 96-21v-56q-44 27-96 27-40 0-91-23.5T124 190q-53 0-95 22zm0 190v55q41-25 95-25 40 0 90.5 22.5T314 477q56 0 96-21v-55q-43 25-96 25-40 0-91-22.5T124 381q-51 0-95 21z"/><glyph glyph-name="notequal" unicode="≠" horiz-adv-x="439" d="M117 93H69l62 119H29v50h129l75 143H29v51h231l61 118h49l-62-118h102v-51H281l-75-143h204v-50H179z"/><glyph glyph-name="lessequal" unicode="≤" horiz-adv-x="439" d="M410 130L29 314v51l381 183v-60L91 339l319-148v-61zm0-108H29v51h381V22z"/><glyph glyph-name="greaterequal" unicode="≥" horiz-adv-x="439" d="M409 314L29 130v61l318 148L29 488v60l380-183v-51zm0-292H29v51h380V22z"/><glyph glyph-name="triangleright" unicode="⊲" horiz-adv-x="587" d="M589 286L54-23v618z"/><glyph glyph-name="triangleleft" unicode="⊳" horiz-adv-x="587" d="M535 595V-23L0 286z"/><glyph glyph-name="dotmath" unicode="⋅" horiz-adv-x="228" d="M168 245q0-22-16-38t-38-16-37.5 16T61 245q0 21 15.5 37t37.5 16 38-16 16-37z"/><glyph glyph-name="uni2318" unicode="⌘" horiz-adv-x="667" d="M227 154v74h-74q-31 0-52-21.5T80 154q0-32 21-54t52-22 52.5 22 21.5 54zm0 284v76q0 31-21 52.5T154 588t-52.5-21.5T80 514t21.5-53.5T154 438h73zm38-173h137v137H265V265zm322-111q0 31-21 52.5T514 228h-74v-74q0-32 21.5-54T514 78t52 22 21 54zm0 360q0 31-21 52.5T514 588t-52.5-21.5T440 514v-76h74q30 0 51.5 22.5T587 514zm38-360q0-46-32.5-79T514 42t-79 33-33 79v74H265v-74q0-46-33-79t-79-33-78.5 33T42 154t32.5 78.5T153 265h74v137h-73q-46 0-79 33t-33 79 33 78.5 79 32.5 78.5-32.5T265 514v-76h137v76q0 46 33 78.5t79 32.5 78.5-32.5T625 514t-32.5-79-78.5-33h-74V265h74q46 0 78.5-32.5T625 154z"/><glyph glyph-name="blacksquare" unicode="■" horiz-adv-x="661" d="M618 0H47v572h571V0z"/><glyph glyph-name="triagup" unicode="▲" horiz-adv-x="616" d="M617 29L-2 30l309 535z"/><glyph glyph-name="triagdn" unicode="▼" horiz-adv-x="616" d="M617 510L307-25-2 510h619z"/><glyph glyph-name="lozenge" unicode="◊" horiz-adv-x="375" d="M198 0h-21L19 334l158 333h21l158-333zm-10 41l132 293-133 292L55 334z"/><glyph glyph-name="circlesolid" unicode="●" horiz-adv-x="695" d="M644 285q0-123-87-210T347-12 137 75 50 285t87 210 210 87 210-87 87-210z"/><glyph glyph-name="blackstar" unicode="★" horiz-adv-x="759" d="M759 421L524 250l90-275-235 170L145-25l89 275L0 421h290l89 276 90-276h290z"/><glyph glyph-name="ballotbox" unicode="☐" horiz-adv-x="661" d="M616 0H45v572h571V0zm-55 51v470H99V51h462z"/><glyph glyph-name="boxchecked" unicode="☑" horiz-adv-x="661" d="M676 698l-69-126h9V0H45v572h503l83 155zM561 51v435L347 91 145 337l41 38 154-190 180 336H99V51h462z"/><glyph glyph-name="diamond" unicode="♦" horiz-adv-x="501" d="M501 285L250 35 0 285l250 251z"/><glyph glyph-name="checkmark" unicode="✓" horiz-adv-x="531" d="M531 698L202 91 0 337l41 38 154-190 291 542z"/><glyph glyph-name="perthousand.onum" unicode="" horiz-adv-x="784" d="M257 425q0-59-32.5-97.5T140 289t-84 38.5T24 425t32 98 84 39 84.5-39 32.5-98zm247-300q0-59-32.5-97.5T387-11q-51 0-83.5 39T271 125q0 59 32.5 98t83.5 39q52 0 84.5-39t32.5-98zm-59 425L131 0H85l313 550h47zM206 425q0 41-18 67.5T140 519t-48-27-18-67 18-66.5 48-26.5 48 26 18 67zm248-300q0 41-18.5 67.5T387 219t-48.5-27-18.5-67 19-67 48-27q30 0 48.5 27t18.5 67zm307 0q0-59-32.5-97.5T644-11q-51 0-83.5 39.5T528 125q0 59 32.5 98t83.5 39q52 0 84.5-39t32.5-98zm-50 0q0 41-18.5 67.5T644 219t-48-26.5-18-67.5q0-40 18-67t48-27 48.5 27 18.5 67z"/><glyph glyph-name="uniF637" unicode="" horiz-adv-x="342" d="M290 326h-56v218q0 57-52 57-22 0-42-14t-32-33V326H53v434h55V596q15 21 41.5 36.5T204 648q86 0 86-90V326z"/><glyph glyph-name="zero.tzero" unicode="" horiz-adv-x="494" d="M247-12q-73 0-123 53L103 0H45l45 88q-52 94-52 245 0 64 11 122.5T83.5 565t65.5 81.5 98 30.5q72 0 121-52l22 42h59l-46-89q53-93 53-245 0-64-11-122t-34.5-109.5T345 19t-98-31zm0 71q37 0 63 23.5t39.5 65T369 234t6 99q0 91-17 159L161 111q31-52 86-52zM120 333q0-94 16-157l196 379q-31 51-85 51-127 0-127-273z"/><glyph glyph-name="zero.tnum" unicode="" horiz-adv-x="494" d="M247-12q-56 0-98 31t-65.5 82.5T49 211 38 333t11 122.5T83.5 565t65.5 81.5 98 30.5 98-30.5 65.5-81.5T445 455.5 456 333t-11-122-34.5-109.5T345 19t-98-31zm0 71q37 0 63 23.5t39.5 65T369 234t6 99q0 273-128 273-127 0-127-273 0-274 127-274z"/><glyph glyph-name="two.tnum" unicode="" horiz-adv-x="494" d="M438 0H61v65q185 213 225 268 66 96 68 162 0 51-31 81t-76 30q-90 0-141-84l-52 48q69 107 194 107 80 0 133.5-49T435 495q0-33-12-69t-27-65.5-55.5-83T271 188 174 71h264V0z"/><glyph glyph-name="three.tnum" unicode="" horiz-adv-x="494" d="M244-12q-68 0-119.5 31T46 99l52 47q54-87 143-87 59 0 90 34t31 93q0 64-35 92.5T235 307q-44 0-53-1v72q9-1 51-1 53 0 87 28.5t34 83.5q0 57-31.5 87T239 606q-79 0-135-79l-50 45q66 105 190 105 84 0 136.5-45.5T433 500q0-59-35-101.5T314 345q49-7 88.5-52.5T442 180q0-85-52.5-138.5T244-12z"/><glyph glyph-name="four.tnum" unicode="" horiz-adv-x="494" d="M382 0h-79v171H39v69l241 427h102V241h73v-70h-73V0zm-79 241v340L112 241h191z"/><glyph glyph-name="five.tnum" unicode="" horiz-adv-x="494" d="M249-12Q120-12 53 97l53 48q50-86 141-86 53 0 86 42.5T366 204q0 70-30.5 108.5T252 351q-70 0-121-62l-59 20v358h340v-70H151V363q47 58 123 58 75 0 124-57t49-158q0-95-55.5-156.5T249-12z"/><glyph glyph-name="six.tnum" unicode="" horiz-adv-x="494" d="M261-12q-57 0-99.5 28.5t-66 78-34.5 109T50 333t13 130 39 109 70.5 77T275 677q101 0 156-83l-44-56q-40 68-111 68-50 0-84.5-41.5t-48-99T130 340q0-12 1-20 19 39 59 68.5t88 29.5q76 0 125.5-55.5T453 205q0-90-52-153.5T261-12zm-4 71q56 0 85.5 43T372 203q0 75-31.5 110.5T258 349q-40 0-73-29t-53-73q2-32 8.5-61.5t20-60T199 77t58-18z"/><glyph glyph-name="seven.tnum" unicode="" horiz-adv-x="494" d="M220 0h-85l209 597H62v70h371v-55z"/><glyph glyph-name="eight.tnum" unicode="" horiz-adv-x="494" d="M247-12q-89 0-143.5 47.5T49 164q0 63 39.5 111t93.5 69q-51 18-87 61T59 507q0 82 55 126t133 44 133.5-44T436 507q0-59-36-101.5T313 344q54-21 93-69t39-110q0-81-55-129T247-12zm0 386q13 4 28.5 11.5t35 21.5 32.5 37.5 13 52.5q0 50-30 79.5T247 606t-79-29.5-30-79.5q0-29 13-52.5t32.5-37.5 35-21.5T247 374zm0-315q50 0 84 31t34 84q0 40-24.5 73t-50 47-43.5 17q-32-5-74.5-42.5T130 173q0-53 33.5-83.5T247 59z"/><glyph glyph-name="nine.tnum" unicode="" horiz-adv-x="494" d="M219-11Q119-11 64 72l44 56q40-68 111-68 74 0 109.5 79T364 326v21q-19-40-59-69.5T217 248q-76 0-125.5 55.5T42 461q0 90 52 153.5T234 678q57 0 99.5-28.5t66-78 34.5-109T445 333q0-94-22-169T348.5 39 219-11zm18 328q40 0 72.5 29t52.5 73q-2 32-8.5 61.5t-19.5 60-38 48.5-58 18q-56 0-85.5-43T123 463q0-75 31.5-110.5T237 317z"/><glyph glyph-name="percent.onum" unicode="" horiz-adv-x="527" d="M257 425q0-59-32.5-97.5T140 289t-84 38.5T24 425t32 98 84 39 84.5-39 32.5-98zm247-300q0-59-32.5-97.5T387-11q-51 0-83.5 39T271 125q0 59 32.5 98t83.5 39q52 0 84.5-39t32.5-98zm-60 425L130 0H83l314 550h47zM206 425q0 41-18 67.5T140 519t-48-27-18-67 18-66.5 48-26.5 48 26 18 67zm248-300q0 41-18.5 67.5T387 219t-48.5-27-18.5-67 19-67 48-27q30 0 48.5 27t18.5 67z"/><glyph glyph-name="zero.tonum" unicode="" horiz-adv-x="494" d="M456 275q0-53-11.5-102t-35-91.5-65.5-68T247-12t-97 25.5-65.5 68-35 91.5T38 275t11.5 102 35 91.5 65.5 68 97 25.5q73 0 122-45t68-107 19-135zm-81 0q0 40-6.5 75.5t-20 68.5-40 52.5T247 491q-46 0-76-35t-40.5-80.5T120 275q0-40 6-75.5t20-68.5 40-52.5T247 59t61.5 19.5 40 52.5 20 68.5T375 275z"/><glyph glyph-name="one.tonum" unicode="" horiz-adv-x="494" d="M343 0h-79v445L161 335l-48 50 160 165h70V0z"/><glyph glyph-name="two.tonum" unicode="" horiz-adv-x="494" d="M421 0H66v66q285 183 285 314 0 48-30.5 79.5T245 491q-90 0-141-82l-52 46q67 107 196 107 81 0 132-47.5T431 391q0-149-239-320h229V0z"/><glyph glyph-name="three.tonum" unicode="" horiz-adv-x="494" d="M244-129q-68 0-119.5 31T46-18l52 47q54-87 143-87 59 0 90 34t31 93q0 64-35 92.5T235 190q-44 0-53-1v72q9-1 51-1 53 0 87 28.5t34 83.5q0 57-31.5 87T239 489q-79 0-135-79l-50 45q66 105 190 105 84 0 136.5-45.5T433 383q0-59-35-101.5T314 228q49-7 88.5-52.5T442 63q0-85-52.5-138.5T244-129z"/><glyph glyph-name="four.tonum" unicode="" horiz-adv-x="494" d="M455 56h-73v-173h-79V56H39v70l241 424h102V127h73V56zm-152 71v337L112 127h191z"/><glyph glyph-name="five.tonum" unicode="" horiz-adv-x="494" d="M249-129Q120-129 53-20l53 48q50-86 141-86 53 0 86 42.5T366 87q0 70-30.5 108.5T252 234q-70 0-121-62l-59 20v358h340v-70H151V246q47 58 123 58 75 0 124-57t49-158q0-95-55.5-156.5T249-129z"/><glyph glyph-name="six.tonum" unicode="" horiz-adv-x="494" d="M261-12q-57 0-99.5 28.5t-66 78-34.5 109T50 333t13 130 39 109 70.5 77T275 677q101 0 156-83l-44-56q-40 68-111 68-50 0-84.5-41.5t-48-99T130 340q0-12 1-20 19 39 59 68.5t88 29.5q76 0 125.5-55.5T453 205q0-90-52-153.5T261-12zm-4 71q56 0 85.5 43T372 203q0 75-31.5 110.5T258 349q-40 0-73-29t-53-73q2-32 8.5-61.5t20-60T199 77t58-18z"/><glyph glyph-name="seven.tonum" unicode="" horiz-adv-x="494" d="M220-117h-85l209 597H62v70h371v-55z"/><glyph glyph-name="eight.tonum" unicode="" horiz-adv-x="494" d="M247-12q-89 0-143.5 47.5T49 164q0 63 39.5 111t93.5 69q-51 18-87 61T59 507q0 82 55 126t133 44 133.5-44T436 507q0-59-36-101.5T313 344q54-21 93-69t39-110q0-81-55-129T247-12zm0 386q13 4 28.5 11.5t35 21.5 32.5 37.5 13 52.5q0 50-30 79.5T247 606t-79-29.5-30-79.5q0-29 13-52.5t32.5-37.5 35-21.5T247 374zm0-315q50 0 84 31t34 84q0 40-24.5 73t-50 47-43.5 17q-32-5-74.5-42.5T130 173q0-53 33.5-83.5T247 59z"/><glyph glyph-name="nine.tonum" unicode="" horiz-adv-x="494" d="M219-127q-100 0-155 83l44 56q40-68 111-68 74 0 109.5 79T364 210v21q-19-40-59-69.5T217 132q-76 0-125.5 55.5T42 345q0 90 52 153.5T234 562q57 0 99.5-28.5t66-78 34.5-109T445 217q0-94-22-169T348.5-77 219-127zm18 328q40 0 72.5 29t52.5 73q-2 32-8.5 61.5t-19.5 60-38 48.5-58 18q-56 0-85.5-43T123 347q0-75 31.5-110.5T237 201z"/><glyph glyph-name="colonmonetary.onum" unicode="" horiz-adv-x="467" d="M98-53l26 99q-81 79-81 229 0 126 60.5 206T266 562l11 37h39l-11-40q22-4 43-14l15 54h40l-21-76q31-23 59-73l-61-28q-13 21-18 28L253 54h15q76 0 112 76l61-27Q381-12 268-12q-12 0-32 2l-12-43h-39l14 52q-25 8-42 20l-19-72H98zm22 328q0-82 29-140l99 359q-59-9-93.5-69.5T120 275zm58-181q16-18 39-29l113 413q-22 13-43 16z"/><glyph glyph-name="Euro.onum" unicode="" horiz-adv-x="485" d="M316 314H140q-2-18-2-39 0-22 2-40h176v-43H147q15-63 51-100.5T286 54q76 0 112 76l61-27Q399-12 286-12q-85 0-142.5 55.5T68 192H23v43h40q-2 26-2 40 0 13 2 39H23v43h45q18 94 75.5 149.5T286 562q113 0 173-112l-61-28q-39 74-112 74-52 0-88.5-37.5T146 357h170v-43z"/><glyph glyph-name="florin.onum" unicode="" horiz-adv-x="344" d="M105-119H25l74 334H55v55h56l34 153q16 71 49 104.5t86 33.5q46 0 74-29l-33-57q-10 16-33 16-46 0-64-78l-32-143h88v-55H180z"/><glyph glyph-name="numbersign.onum" unicode="" horiz-adv-x="432" d="M413 393l-12-45h-72l-40-142h73l-13-47h-74L231 0h-56l47 159h-79L98 0H43l45 159H19l13 47h71l40 142H72l11 45h73l44 157h55l-45-157h78l45 157h54l-45-157h71zm-139-45h-77l-41-142h78z"/><glyph glyph-name="sterling.onum" unicode="" horiz-adv-x="370" d="M19 225v47h60q-41 74-41 133 0 68 45.5 112T195 561q49 0 87-24t54-67l-57-27q-23 62-80 62-37 0-62.5-28T111 404q0-9 1.5-18.5t2.5-17 4.5-18 5.5-16 7.5-16.5l7.5-15 8.5-16 7.5-15h102v-47h-81q10-28 10-52 0-29-14.5-56.5T139 72q10 5 22 5 24 0 54.5-13T263 51q43 0 66 30l31-52q-34-39-101-39-33 0-64 16t-55 16q-31 0-79-30L35 43q88 46 88 117 0 29-18 65H19z"/><glyph glyph-name="yen.onum" unicode="" horiz-adv-x="438" d="M257 0h-75v114H21v46h161v72H21v46h135L3 550h84l133-246 131 246h83L282 278h134v-46H257v-72h159v-46H257V0z"/><glyph glyph-name="cent.onum" unicode="" horiz-adv-x="467" d="M239-93v83Q148 2 95.5 80T43 275t52.5 195T239 560v59h56v-59q92-12 146-110l-61-28q-31 58-85 71V57q56 12 85 73l61-27Q388 3 295-10v-83h-56zM120 275q0-85 32-145t87-73v435q-55-13-87-72t-32-145z"/><glyph glyph-name="zero.dnom" unicode="" horiz-adv-x="326" d="M301 200q0-53-13-98t-45-77-79-32Q94-7 59.5 54.5T25 200t34.5 145T164 406q69 0 103-61t34-145zm-59 0q0 158-78 158-80 0-80-158 0-159 80-159 78 0 78 159z"/><glyph glyph-name="one.dnom" unicode="" horiz-adv-x="225" d="M169 0h-58v325l-63-66-34 35 104 106h51V0z"/><glyph glyph-name="two.dnom" unicode="" horiz-adv-x="326" d="M291 0H41v44q116 114 153 160.5t37 87.5q0 32-20 49t-49 17q-59 0-91-51l-35 35q46 64 128 64 54 0 89.5-29t35.5-82q0-48-36.5-98T119 48h172V0z"/><glyph glyph-name="three.dnom" unicode="" horiz-adv-x="326" d="M293 109q0-52-35-84T162-7Q72-7 31 59l35 34q35-52 94-52 36 0 55.5 19t19.5 52q0 70-83 70-27 0-33-1v48q6-1 32-1 78 0 78 65 0 32-19.5 48.5T158 358q-54 0-88-48l-35 33q45 63 127 63 56 0 90.5-28t34.5-79q0-36-23-61t-54-31q31-4 57-31t26-67z"/><glyph glyph-name="four.dnom" unicode="" horiz-adv-x="326" d="M301 101h-47V0h-58v101H28v45l150 254h76V148h47v-47zm-105 47v193L82 148h114z"/><glyph glyph-name="five.dnom" unicode="" horiz-adv-x="326" d="M293 126q0-59-37-96T161-7Q75-7 32 59l37 35q33-53 91-53 33 0 54 24t21 59q0 40-20 62.5T162 209q-43 0-76-40l-42 15v216h226v-48H101V218q31 35 80 35 48 0 80-33.5t32-93.5z"/><glyph glyph-name="six.dnom" unicode="" horiz-adv-x="326" d="M297 124q0-55-35-93T170-7Q97-7 63 51.5T29 200q0 89 38.5 147.5T180 406q62 0 101-47l-30-40q-27 39-71 39-46 0-69-43.5T88 210v-14q14 24 39 41.5t56 17.5q49 0 81.5-34.5T297 124zm-59-1q0 43-20 64t-52 21q-47 0-78-57 4-45 22-77.5T167 41q34 0 52.5 25t18.5 57z"/><glyph glyph-name="seven.dnom" unicode="" horiz-adv-x="300" d="M272 360L135 0H75l137 352H25v48h247v-40z"/><glyph glyph-name="eight.dnom" unicode="" horiz-adv-x="326" d="M294 100q0-50-36.5-78.5T163-7 68 21.5 31 100q0 37 25.5 66t61.5 40q-34 11-57 36t-23 61q0 51 37 77t88 26 88-26 37-77q0-36-23-61t-56-36q35-11 60-40t25-66zm-63 196q0 30-18.5 47T163 360t-49.5-17T95 296q0-32 23.5-49t44.5-21q21 4 44.5 21t23.5 49zm6-191q0 34-27 56t-47 24q-20-2-47-24t-27-56q0-31 21.5-49T163 38t52.5 18 21.5 49z"/><glyph glyph-name="nine.dnom" unicode="" horiz-adv-x="326" d="M30 274q0 55 35 93.5t92 38.5q73 0 107-58.5T298 199q0-89-38.5-147.5T147-7Q83-7 46 40l30 40q27-39 71-39 45 0 68.5 44T239 190v13q-14-24-39-41.5T144 144q-49 0-81.5 34.5T30 274zm59 2q0-43 20-64t51-21q24 0 44.5 16t33.5 41q-2 44-20.5 77T160 358q-34 0-52.5-24.5T89 276z"/><glyph glyph-name="zero.numr" unicode="" horiz-adv-x="326" d="M301 467q0-53-13-98t-45-77-79-32q-70 0-104.5 61.5T25 467t34.5 145T164 673q69 0 103-61t34-145zm-59 0q0 158-78 158-80 0-80-158 0-159 80-159 78 0 78 159z"/><glyph glyph-name="one.numr" unicode="" horiz-adv-x="225" d="M169 267h-58v325l-63-66-34 35 104 106h51V267z"/><glyph glyph-name="two.numr" unicode="" horiz-adv-x="326" d="M291 267H41v44q116 114 153 160.5t37 87.5q0 32-20 49t-49 17q-59 0-91-51l-35 35q46 64 128 64 54 0 89.5-29t35.5-82q0-48-36.5-98T119 315h172v-48z"/><glyph glyph-name="three.numr" unicode="" horiz-adv-x="326" d="M293 376q0-52-35-84t-96-32q-90 0-131 66l35 34q35-52 94-52 36 0 55.5 19t19.5 52q0 70-83 70-27 0-33-1v48q6-1 32-1 78 0 78 65 0 32-19.5 48.5T158 625q-54 0-88-48l-35 33q45 63 127 63 56 0 90.5-28t34.5-79q0-36-23-61t-54-31q31-4 57-31t26-67z"/><glyph glyph-name="four.numr" unicode="" horiz-adv-x="326" d="M301 368h-47V267h-58v101H28v45l150 254h76V415h47v-47zm-105 47v193L82 415h114z"/><glyph glyph-name="five.numr" unicode="" horiz-adv-x="326" d="M293 393q0-59-37-96t-95-37q-86 0-129 66l37 35q33-53 91-53 33 0 54 24t21 59q0 40-20 62.5T162 476q-43 0-76-40l-42 15v216h226v-48H101V485q31 35 80 35 48 0 80-33.5t32-93.5z"/><glyph glyph-name="six.numr" unicode="" horiz-adv-x="326" d="M297 391q0-55-35-93t-92-38q-73 0-107 58.5T29 467q0 89 38.5 147.5T180 673q62 0 101-47l-30-40q-27 39-71 39-46 0-69-43.5T88 477v-14q14 24 39 41.5t56 17.5q49 0 81.5-34.5T297 391zm-59-1q0 43-20 64t-52 21q-47 0-78-57 4-45 22-77.5t57-32.5q34 0 52.5 25t18.5 57z"/><glyph glyph-name="seven.numr" unicode="" horiz-adv-x="300" d="M272 627L135 267H75l137 352H25v48h247v-40z"/><glyph glyph-name="eight.numr" unicode="" horiz-adv-x="326" d="M294 367q0-50-36.5-78.5T163 260t-95 28.5T31 367q0 37 25.5 66t61.5 40q-34 11-57 36t-23 61q0 51 37 77t88 26 88-26 37-77q0-36-23-61t-56-36q35-11 60-40t25-66zm-63 196q0 30-18.5 47T163 627t-49.5-17T95 563q0-32 23.5-49t44.5-21q21 4 44.5 21t23.5 49zm6-191q0 34-27 56t-47 24q-20-2-47-24t-27-56q0-31 21.5-49t52.5-18 52.5 18 21.5 49z"/><glyph glyph-name="nine.numr" unicode="" horiz-adv-x="326" d="M30 541q0 55 35 93.5t92 38.5q73 0 107-58.5T298 466q0-89-38.5-147.5T147 260q-64 0-101 47l30 40q27-39 71-39 45 0 68.5 44T239 457v13q-14-24-39-41.5T144 411q-49 0-81.5 34.5T30 541zm59 2q0-43 20-64t51-21q24 0 44.5 16t33.5 41q-2 44-20.5 77T160 625q-34 0-52.5-24.5T89 543z"/><glyph glyph-name="Abreve.smcp" unicode="" horiz-adv-x="443" d="M178 550h87L437 0h-80l-36 122H123L87 0H6zm126-362l-82 277-83-277h165zm65 481q-56-74-147-74-92 0-148 74l37 30q39-57 111-57 71 0 110 57z"/><glyph glyph-name="Amacron.smcp" unicode="" horiz-adv-x="443" d="M375 623H69v46h306v-46zm-197-73h87L437 0h-80l-36 122H123L87 0H6zm126-362l-82 277-83-277h165z"/><glyph glyph-name="Aogonek.smcp" unicode="" horiz-adv-x="443" d="M178 550h87L437 0q-71-41-71-103 0-45 37-45 31 0 42 38l36-20q-22-56-78-56-36 0-58 20.5T323-105q0 60 52 105h-18l-36 122H123L87 0H6zm126-362l-82 277-83-277h165z"/><glyph glyph-name="AEacute.smcp" unicode="" horiz-adv-x="646" d="M478 750L344 606h-52l113 144h73zM602 0H301v122H141L84 0H3l268 550h331v-66H376V315h220v-66H376V66h226V0zM301 188v277L169 188h132z"/><glyph glyph-name="Cacute.smcp" unicode="" horiz-adv-x="467" d="M408 750L274 606h-52l113 144h73zM268-12q-103 0-164 80.5T43 275t61 206.5T268 562q113 0 173-112l-61-28q-39 74-112 74-68 0-108-62t-40-159q0-96 40-158.5T268 54q76 0 112 76l61-27Q381-12 268-12z"/><glyph glyph-name="Ccaron.smcp" unicode="" horiz-adv-x="467" d="M306 606h-70l-83 144h46l72-106 68 106h47zM268-12q-103 0-164 80.5T43 275t61 206.5T268 562q113 0 173-112l-61-28q-39 74-112 74-68 0-108-62t-40-159q0-96 40-158.5T268 54q76 0 112 76l61-27Q381-12 268-12z"/><glyph glyph-name="Ccircumflex.smcp" unicode="" horiz-adv-x="467" d="M386 606h-47l-71 105-69-105h-46l80 144h70zM268-12q-103 0-164 80.5T43 275t61 206.5T268 562q113 0 173-112l-61-28q-39 74-112 74-68 0-108-62t-40-159q0-96 40-158.5T268 54q76 0 112 76l61-27Q381-12 268-12z"/><glyph glyph-name="Cdotaccent.smcp" unicode="" horiz-adv-x="467" d="M268-12q-103 0-164 80.5T43 275t61 206.5T268 562q113 0 173-112l-61-28q-39 74-112 74-68 0-108-62t-40-159q0-96 40-158.5T268 54q76 0 112 76l61-27Q381-12 268-12zm2 618q-18 0-32 13.5T224 652q0 18 14 31.5t32 13.5q19 0 32-13t13-32-13-32.5-32-13.5z"/><glyph glyph-name="Dcaron.smcp" unicode="" horiz-adv-x="501" d="M278 606h-70l-83 144h46l72-106 68 106h47zM215 0H57v550h158q110 0 172-77t62-199q0-121-62-197.5T215 0zm0 66q75 0 116 58t41 150q0 94-41 152t-116 58h-83V66h83z"/><glyph glyph-name="Dcroat.smcp" unicode="" horiz-adv-x="520" d="M235 0H77v254H16v49h61v247h158q110 0 172-77t62-199q0-121-62-197.5T235 0zm18 254H152V66h83q75 0 116 58t41 150q0 94-41 152t-116 58h-83V303h101v-49z"/><glyph glyph-name="Ebreve.smcp" unicode="" horiz-adv-x="411" d="M366 0H66v550h300v-66H141V315h220v-66H141V66h225V0zm-2 669q-56-74-147-74-92 0-148 74l37 30q39-57 111-57 71 0 110 57z"/><glyph glyph-name="Ecaron.smcp" unicode="" horiz-adv-x="411" d="M253 606h-70l-83 144h46l72-106 68 106h47zM366 0H66v550h300v-66H141V315h220v-66H141V66h225V0z"/><glyph glyph-name="Edotaccent.smcp" unicode="" horiz-adv-x="411" d="M366 0H66v550h300v-66H141V315h220v-66H141V66h225V0zM218 606q-18 0-32 13.5T172 652q0 18 14 31.5t32 13.5q19 0 32-13t13-32-13-32.5-32-13.5z"/><glyph glyph-name="Emacron.smcp" unicode="" horiz-adv-x="411" d="M366 0H66v550h300v-66H141V315h220v-66H141V66h225V0zm3 623H63v46h306v-46z"/><glyph glyph-name="Eng.smcp" unicode="" horiz-adv-x="509" d="M285-196q-75 0-122 54l31 56q36-44 85-44 42 0 65.5 24.5T368-37v34L141 414V0H66v550h78l224-405v405h75V-44q0-76-43-114t-115-38z"/><glyph glyph-name="Eogonek.smcp" unicode="" horiz-adv-x="411" d="M374-110l36-20q-22-56-78-56-36 0-58 20.5T252-105q0 60 52 105H66v550h300v-66H141V315h220v-66H141V66h225V0q-71-41-71-103 0-45 37-45 31 0 42 38z"/><glyph glyph-name="Gbreve.smcp" unicode="" horiz-adv-x="498" d="M269-12q-103 0-164.5 79.5T43 275t61.5 207.5T269 562q110 0 172-106l-59-31q-43 71-113 71-68 0-108.5-61T120 275q0-98 40.5-159.5T270 54q66 0 103 45v123H253v63h192V70q-70-82-176-82zm148 681q-56-74-147-74-92 0-148 74l37 30q39-57 111-57 71 0 110 57z"/><glyph glyph-name="Gcircumflex.smcp" unicode="" horiz-adv-x="498" d="M269-12q-103 0-164.5 79.5T43 275t61.5 207.5T269 562q110 0 172-106l-59-31q-43 71-113 71-68 0-108.5-61T120 275q0-98 40.5-159.5T270 54q66 0 103 45v123H253v63h192V70q-70-82-176-82zm118 618h-47l-71 105-69-105h-46l80 144h70z"/><glyph glyph-name="Gcommaaccent.smcp" unicode="" horiz-adv-x="498" d="M269-12q-103 0-164.5 79.5T43 275t61.5 207.5T269 562q110 0 172-106l-59-31q-43 71-113 71-68 0-108.5-61T120 275q0-98 40.5-159.5T270 54q66 0 103 45v123H253v63h192V70q-70-82-176-82zm52-126q0-39-20-75t-51-58l-31 25q23 16 39 40.5t18 46.5l-4-1h-7q-17 0-29 12t-12 30q0 19 13 32.5T269-72q22 0 37-18t15-48z"/><glyph glyph-name="Gdotaccent.smcp" unicode="" horiz-adv-x="498" d="M269-12q-103 0-164.5 79.5T43 275t61.5 207.5T269 562q110 0 172-106l-59-31q-43 71-113 71-68 0-108.5-61T120 275q0-98 40.5-159.5T270 54q66 0 103 45v123H253v63h192V70q-70-82-176-82zm1 618q-18 0-32 13.5T224 652q0 18 14 31.5t32 13.5q19 0 32-13t13-32-13-32.5-32-13.5z"/><glyph glyph-name="Hcircumflex.smcp" unicode="" horiz-adv-x="512" d="M372 606h-47l-71 105-69-105h-46l80 144h70zM446 0h-74v250H141V0H66v550h75V315h231v235h74V0z"/><glyph glyph-name="Hbar.smcp" unicode="" horiz-adv-x="543" d="M462 0h-74v250H157V0H82v409H16v46h66v95h75v-95h231v95h74v-95h59v-46h-59V0zM157 315h231v94H157v-94z"/><glyph glyph-name="Ibreve.smcp" unicode="" horiz-adv-x="206" d="M141 0H66v550h75V0zm109 669q-56-74-147-74-92 0-148 74l37 30q39-57 111-57 71 0 110 57z"/><glyph glyph-name="IJ.smcp" unicode="" horiz-adv-x="558" d="M334-12q-76 0-121 54l31 56q36-44 84-44 42 0 66 24.5t24 67.5v404h75V140q0-76-43.5-114T334-12zM141 0H66v550h75V0z"/><glyph glyph-name="Imacron.smcp" unicode="" horiz-adv-x="206" d="M257 623H-49v46h306v-46zM141 0H66v550h75V0z"/><glyph glyph-name="Iogonek.smcp" unicode="" horiz-adv-x="206" d="M141 0Q70-41 70-103q0-45 37-45 31 0 42 38l36-20q-22-56-78-56-36 0-58 20.5T27-105Q27-45 79 0H66v550h75V0z"/><glyph glyph-name="Itilde.smcp" unicode="" horiz-adv-x="206" d="M141 0H66v550h75V0zm13 604q-22 0-37.5 14.5t-23 32.5T75 683.5 51 698q-18 0-29-22t-11-66h-42q0 60 22 97t63 37q22 0 37.5-14.5t23-32 18.5-32 24-14.5q40 0 40 87h42q0-60-22-97t-63-37z"/><glyph glyph-name="Jcircumflex.smcp" unicode="" horiz-adv-x="352" d="M366 606h-47l-71 105-69-105h-46l80 144h70zM128-12Q52-12 7 42l31 56q36-44 84-44 42 0 66 24.5t24 67.5v404h75V140q0-76-43.5-114T128-12z"/><glyph glyph-name="Kcommaaccent.smcp" unicode="" horiz-adv-x="452" d="M285-138q0-39-20-75t-51-58l-31 25q23 16 39 40.5t18 46.5l-4-1h-7q-17 0-29 12t-12 30q0 19 13 32.5T233-72q22 0 37-18t15-48zM440 0h-89L184 238l-43-62V0H66v550h75V276l195 274h88L230 289z"/><glyph glyph-name="Lacute.smcp" unicode="" horiz-adv-x="377" d="M348 0H66v550h75V66h207V0zm-2 750L212 606h-52l113 144h73z"/><glyph glyph-name="Lcaron.smcp" unicode="" horiz-adv-x="377" d="M300 494q0-39-20-75t-51-58l-31 25q23 16 39 40.5t18 46.5l-5-1h-6q-17 0-29 12t-12 30q0 19 13 32.5t32 13.5q22 0 37-18t15-48zM348 0H66v550h75V66h207V0z"/><glyph glyph-name="Lcommaaccent.smcp" unicode="" horiz-adv-x="377" d="M258-138q0-39-20-75t-51-58l-31 25q23 16 39 40.5t18 46.5l-5-1h-6q-17 0-29 12t-12 30q0 19 13 32.5T206-72q22 0 37-18t15-48zM348 0H66v550h75V66h207V0z"/><glyph glyph-name="Ldot.smcp" unicode="" horiz-adv-x="410" d="M348 0H66v550h75V66h207V0zm17 293q0-22-16-38t-38-16-37.5 16-15.5 38q0 21 15.5 37t37.5 16 38-16 16-37z"/><glyph glyph-name="Nacute.smcp" unicode="" horiz-adv-x="509" d="M393 750L259 606h-52l113 144h73zM443 0h-75L141 402V0H66v550h78l224-393v393h75V0z"/><glyph glyph-name="Ncaron.smcp" unicode="" horiz-adv-x="509" d="M290 606h-70l-83 144h46l72-106 68 106h47zM443 0h-75L141 402V0H66v550h78l224-393v393h75V0z"/><glyph glyph-name="Ncommaaccent.smcp" unicode="" horiz-adv-x="509" d="M308-138q0-39-20-75t-51-58l-31 25q23 16 39 40.5t18 46.5l-5-1h-6q-17 0-29 12t-12 30q0 19 13 32.5T256-72q22 0 37-18t15-48zM443 0h-75L141 402V0H66v550h78l224-393v393h75V0z"/><glyph glyph-name="Obreve.smcp" unicode="" horiz-adv-x="528" d="M264-12q-104 0-162.5 81T43 275t58.5 206T264 562t162.5-81T485 275 426.5 69 264-12zm0 66q68 0 105.5 63T407 275q0 96-37.5 158.5T264 496q-69 0-106.5-62T120 275q0-96 37.5-158.5T264 54zm148 615q-56-74-147-74-92 0-148 74l37 30q39-57 111-57 71 0 110 57z"/><glyph glyph-name="Ohungarumlaut.smcp" unicode="" horiz-adv-x="528" d="M264-12q-104 0-162.5 81T43 275t58.5 206T264 562t162.5-81T485 275 426.5 69 264-12zm0 66q68 0 105.5 63T407 275q0 96-37.5 158.5T264 496q-69 0-106.5-62T120 275q0-96 37.5-158.5T264 54zm43 696l-96-144h-43l75 144h64zm129 0l-96-144h-43l75 144h64z"/><glyph glyph-name="Omacron.smcp" unicode="" horiz-adv-x="528" d="M264-12q-104 0-162.5 81T43 275t58.5 206T264 562t162.5-81T485 275 426.5 69 264-12zm0 66q68 0 105.5 63T407 275q0 96-37.5 158.5T264 496q-69 0-106.5-62T120 275q0-96 37.5-158.5T264 54zm153 569H111v46h306v-46z"/><glyph glyph-name="Oslashacute.smcp" unicode="" horiz-adv-x="528" d="M264-12q-71 0-122 39L126 0H69l37 62q-63 78-63 213 0 125 58.5 206T264 562q70 0 121-39l16 27h56l-37-61q65-82 65-214 0-125-58.5-206T264-12zM120 275q0-88 29-143l198 329q-35 35-83 35-69 0-106.5-62T120 275zM264 54q68 0 105.5 63T407 275q0 85-29 143L179 89q35-35 85-35zm139 696L269 606h-52l113 144h73z"/><glyph glyph-name="Racute.smcp" unicode="" horiz-adv-x="448" d="M370 750L236 606h-52l113 144h73zM409 0h-86L216 215h-75V0H66v550h176q74 0 116.5-47T401 383q0-66-32-107.5T288 226zM235 281q44 0 67 28t23 74-23.5 73.5T235 484h-94V281h94z"/><glyph glyph-name="Rcaron.smcp" unicode="" horiz-adv-x="448" d="M256 606h-70l-83 144h46l72-106 68 106h47zM409 0h-86L216 215h-75V0H66v550h176q74 0 116.5-47T401 383q0-66-32-107.5T288 226zM235 281q44 0 67 28t23 74-23.5 73.5T235 484h-94V281h94z"/><glyph glyph-name="Rcommaaccent.smcp" unicode="" horiz-adv-x="448" d="M275-138q0-39-20-75t-51-58l-31 25q23 16 39 40.5t18 46.5l-4-1h-7q-17 0-29 12t-12 30q0 19 13 32.5T223-72q22 0 37-18t15-48zM409 0h-86L216 215h-75V0H66v550h176q74 0 116.5-47T401 383q0-66-32-107.5T288 226zM235 281q44 0 67 28t23 74-23.5 73.5T235 484h-94V281h94z"/><glyph glyph-name="Sacute.smcp" unicode="" horiz-adv-x="407" d="M343 750L209 606h-52l113 144h73zM199-12Q91-12 25 59l38 56q55-62 135-62 48 0 74.5 24.5T299 141q0 36-26.5 61T209 243.5t-74.5 35-64 53.5T44 416q0 64 46.5 105T209 562q96 0 156-60l-36-55q-47 50-119 50-39 0-64-22t-25-58q0-31 26.5-53.5t63.5-39 74.5-36.5 64-56.5T376 143q0-68-46.5-111.5T199-12z"/><glyph glyph-name="Scedilla.smcp" unicode="" horiz-adv-x="407" d="M199-191q-51 0-89 30l18 37q31-28 70-28 22 0 38 11.5t16 30.5q0 34-33 34-20 0-33-15l-32 18 23 62Q83-5 25 59l38 56q55-62 135-62 48 0 74.5 24.5T299 141q0 36-26.5 61T209 243.5t-74.5 35-64 53.5T44 416q0 64 46.5 105T209 562q96 0 156-60l-36-55q-47 50-119 50-39 0-64-22t-25-58q0-31 26.5-53.5t63.5-39 74.5-36.5 64-56.5T376 143q0-64-41-106.5T219-11l-17-45q12 11 33 11 26 0 43-18t17-48q0-35-27.5-57.5T199-191z"/><glyph glyph-name="Scircumflex.smcp" unicode="" horiz-adv-x="407" d="M323 606h-47l-71 105-69-105H90l80 144h70zM199-12Q91-12 25 59l38 56q55-62 135-62 48 0 74.5 24.5T299 141q0 36-26.5 61T209 243.5t-74.5 35-64 53.5T44 416q0 64 46.5 105T209 562q96 0 156-60l-36-55q-47 50-119 50-39 0-64-22t-25-58q0-31 26.5-53.5t63.5-39 74.5-36.5 64-56.5T376 143q0-68-46.5-111.5T199-12z"/><glyph glyph-name="Scommaaccent.smcp" unicode="" horiz-adv-x="407" d="M257-138q0-39-20-75t-51-58l-31 25q23 16 39 40.5t18 46.5l-4-1h-7q-17 0-29 12t-12 30q0 19 13 32.5T205-72q22 0 37-18t15-48zM199-12Q91-12 25 59l38 56q55-62 135-62 48 0 74.5 24.5T299 141q0 36-26.5 61T209 243.5t-74.5 35-64 53.5T44 416q0 64 46.5 105T209 562q96 0 156-60l-36-55q-47 50-119 50-39 0-64-22t-25-58q0-31 26.5-53.5t63.5-39 74.5-36.5 64-56.5T376 143q0-68-46.5-111.5T199-12z"/><glyph glyph-name="Tbar.smcp" unicode="" horiz-adv-x="372" d="M223 0h-75v243H63v46h85v195H21v66h330v-66H223V289h79v-46h-79V0z"/><glyph glyph-name="Tcaron.smcp" unicode="" horiz-adv-x="372" d="M223 606h-70L70 750h46l72-106 68 106h47zm0-606h-75v484H21v66h330v-66H223V0z"/><glyph glyph-name="Tcommaaccent.smcp" unicode="" horiz-adv-x="372" d="M238-138q0-39-20-75t-51-58l-31 25q23 16 39 40.5t18 46.5l-5-1h-6q-17 0-29 12t-12 30q0 19 13 32.5T186-72q22 0 37-18t15-48zM223 0h-75v484H21v66h330v-66H223V0z"/><glyph glyph-name="Ubreve.smcp" unicode="" horiz-adv-x="506" d="M253-12q-93 0-140 53T66 193v357h75V185q0-63 28.5-97T253 54q54 0 83 34t29 97v365h75V193q0-99-47.5-152T253-12zm148 681q-56-74-147-74-92 0-148 74l37 30q39-57 111-57 71 0 110 57z"/><glyph glyph-name="Uhungarumlaut.smcp" unicode="" horiz-adv-x="506" d="M253-12q-93 0-140 53T66 193v357h75V185q0-63 28.5-97T253 54q54 0 83 34t29 97v365h75V193q0-99-47.5-152T253-12zm41 762l-96-144h-43l75 144h64zm129 0l-96-144h-43l75 144h64z"/><glyph glyph-name="Umacron.smcp" unicode="" horiz-adv-x="506" d="M253-12q-93 0-140 53T66 193v357h75V185q0-63 28.5-97T253 54q54 0 83 34t29 97v365h75V193q0-99-47.5-152T253-12zm154 635H101v46h306v-46z"/><glyph glyph-name="Uogonek.smcp" unicode="" horiz-adv-x="506" d="M253-12q-93 0-140 53T66 193v357h75V185q0-63 28.5-97T253 54q54 0 83 34t29 97v365h75V193Q440 39 330 0q-71-41-71-103 0-45 37-45 31 0 42 38l36-20q-22-56-78-56-36 0-58 20.5T216-105q0 51 40 93h-3z"/><glyph glyph-name="Uring.smcp" unicode="" horiz-adv-x="506" d="M253-12q-93 0-140 53T66 193v357h75V185q0-63 28.5-97T253 54q54 0 83 34t29 97v365h75V193q0-99-47.5-152T253-12zm2 586q-37 0-64 27t-27 64 27 64 64 27 63.5-26.5T345 665t-26.5-64.5T255 574zm0 38q22 0 37 15.5t15 37.5-15 37.5-37 15.5-37.5-15.5T202 665t15.5-37.5T255 612z"/><glyph glyph-name="Utilde.smcp" unicode="" horiz-adv-x="506" d="M253-12q-93 0-140 53T66 193v357h75V185q0-63 28.5-97T253 54q54 0 83 34t29 97v365h75V193q0-99-47.5-152T253-12zm50 616q-22 0-37.5 14.5t-23 32.5-18.5 32.5-24 14.5q-18 0-29-22t-11-66h-42q0 60 22 97t63 37q22 0 37.5-14.5t23-32 18.5-32 24-14.5q40 0 40 87h42q0-60-22-97t-63-37z"/><glyph glyph-name="Wcircumflex.smcp" unicode="" horiz-adv-x="622" d="M427 606h-47l-71 105-69-105h-46l80 144h70zM482 0h-78l-93 417L218 0h-79L9 550h80l93-429 98 429h62l98-430 93 430h80z"/><glyph glyph-name="Ycircumflex.smcp" unicode="" horiz-adv-x="438" d="M337 606h-47l-71 105-69-105h-46l80 144h70zM257 0h-75v233L3 550h84l133-246 131 246h83L257 233V0z"/><glyph glyph-name="Zacute.smcp" unicode="" horiz-adv-x="404" d="M341 750L207 606h-52l113 144h73zM371 0H33v58l240 426H33v66h331v-57L125 66h246V0z"/><glyph glyph-name="Zdotaccent.smcp" unicode="" horiz-adv-x="404" d="M371 0H33v58l240 426H33v66h331v-57L125 66h246V0zM202 606q-18 0-32 13.5T156 652q0 18 14 31.5t32 13.5q19 0 32-13t13-32-13-32.5-32-13.5z"/><glyph glyph-name="Idotaccent.smcp" unicode="" horiz-adv-x="206" d="M141 0H66v550h75V0zm-38 606q-18 0-32 13.5T57 652q0 18 14 31.5t32 13.5q19 0 32-13t13-32-13-32.5-32-13.5z"/><glyph glyph-name="parenleft.case" unicode="" horiz-adv-x="229" d="M210-81l-46-28Q46 93 46 333t118 442l46-27q-43-104-64-200t-21-215q0-208 85-414z"/><glyph glyph-name="parenright.case" unicode="" horiz-adv-x="229" d="M64-109L18-81q86 204 86 414 0 119-21.5 215.5T18 748l46 27q119-201 119-442T64-109z"/><glyph glyph-name="bracketleft.case" unicode="" horiz-adv-x="213" d="M195-100H37v868h158v-53H93V-47h102v-53z"/><glyph glyph-name="bracketright.case" unicode="" horiz-adv-x="213" d="M175-100H17v53h102v762H17v53h158v-868z"/><glyph glyph-name="braceleft.case" unicode="" horiz-adv-x="231" d="M214-100h-46q-44 0-77 33T58 19v221q0 30-13.5 50T6 310v48q25 0 38.5 20T58 428v220q0 53 33 86.5t77 33.5h46v-53h-46q-22 0-38-19t-16-48V422q0-69-45-88 45-19 45-88V19q0-28 16-47t38-19h46v-53z"/></font>
</defs>
</svg>
