<svg><defs><font id="ProximaNova-Bold" horiz-adv-x="579"><font-face font-family="Proxima Nova Rg" font-weight="700" panose-1="2 0 5 6 3 0 0 2 0 4" ascent="790" descent="-210" x-height="483" cap-height="667" bbox="-172 -288 1147 909" underline-thickness="20" underline-position="-113" unicode-range="U+000D-FB04"/><glyph glyph-name="f_f_j" unicode="ffj" horiz-adv-x="907" d="M546 0H418v372h-80v111h80v26q0 77 45 122.5T581 677q54 0 92-20l-26-92q-17 12-41 12-28 0-44-18t-16-50v-26h98V372h-98V0zm235 535q-31 0-53.5 22.5T705 611t22.5 53 53.5 22q32 0 54-22t22-53-22.5-53.5T781 535zM673-196q-44 0-68.5 7.5T552-162l35 95q30-25 65-25 30 0 48 20t18 59v496h127V-13q0-85-43.5-134T673-196zM219 0H91v372H11v111h80v26q0 77 45 122.5T254 677q84 0 126-45l-48-75q-20 20-53 20-27 0-43.5-17.5T219 509v-26h98V372h-98V0z"/><glyph glyph-name="f_j" unicode="fj" horiz-adv-x="580" d="M219 0H91v372H11v111h80v26q0 77 45.5 122.5T254 677q54 0 92-20l-26-92q-17 12-41 12-28 0-44-18t-16-50v-26h98V372h-98V0zm234 535q-31 0-53.5 22.5T377 611t22.5 53 53.5 22q32 0 54-22t22-53-22.5-53.5T453 535zM345-196q-44 0-68.5 7.5T224-162l35 95q30-25 65-25 30 0 48 20t18 59v496h127V-13q0-85-43.5-134T345-196z"/><glyph glyph-name="f_f" unicode="ff" horiz-adv-x="655" d="M219 0H91v372H11v111h80v26q0 77 45 122.5T254 677q84 0 126-45l-48-75q-20 20-53 20-27 0-43.5-17.5T219 509v-26h98V372h-98V0zm327 0H418v372h-80v111h80v26q0 77 45 122.5T581 677q84 0 126-45l-48-75q-20 20-53 20-27 0-43.5-17.5T546 509v-26h98V372h-98V0z"/><glyph glyph-name="fi" unicode="fi" horiz-adv-x="580" d="M219 0H91v372H11v111h80v26q0 77 45.5 122.5T254 677q54 0 92-20l-26-92q-17 12-41 12-28 0-44-18t-16-50v-26h98V372h-98V0zm234 535q-31 0-53.5 22.5T377 611t22.5 53 53.5 22q32 0 54-22t22-53-22.5-53.5T453 535zM517 0H390v483h127V0z"/><glyph glyph-name="fl" unicode="fl" horiz-adv-x="580" d="M219 0H91v372H11v111h80v26q0 77 45.5 122.5T254 677q54 0 92-20l-26-92q-17 12-41 12-28 0-44-18t-16-50v-26h98V372h-98V0zm298 0H390v667h127V0z"/><glyph glyph-name="f_f_i" unicode="ffi" horiz-adv-x="907" d="M546 0H418v372h-80v111h80v26q0 77 45 122.5T581 677q54 0 92-20l-26-92q-17 12-41 12-28 0-44-18t-16-50v-26h98V372h-98V0zm235 535q-31 0-53.5 22.5T705 611t22.5 53 53.5 22q32 0 54-22t22-53-22.5-53.5T781 535zM845 0H718v483h127V0zM219 0H91v372H11v111h80v26q0 77 45 122.5T254 677q84 0 126-45l-48-75q-20 20-53 20-27 0-43.5-17.5T219 509v-26h98V372h-98V0z"/><glyph glyph-name="f_f_l" unicode="ffl" horiz-adv-x="907" d="M546 0H418v372h-80v111h80v26q0 77 45 122.5T581 677q54 0 92-20l-26-92q-17 12-41 12-28 0-44-18t-16-50v-26h98V372h-98V0zm299 0H718v667h127V0zM219 0H91v372H11v111h80v26q0 77 45 122.5T254 677q84 0 126-45l-48-75q-20 20-53 20-27 0-43.5-17.5T219 509v-26h98V372h-98V0z"/><glyph glyph-name="f_b" unicode="fb" horiz-adv-x="912" d="M219 0H91v372H11v111h80v26q0 77 45.5 122.5T254 677q54 0 92-20l-26-92q-17 12-41 12-28 0-44-18t-16-50v-26h98V372h-98V0zm298 155q16-23 47-38.5t62-15.5q55 0 89 38.5T749 241t-34 102-89 39q-31 0-62-16t-47-40V155zm0-155H390v667h127V421q57 74 149 74 94 0 154-69t60-185q0-118-60-185.5T666-12q-90 0-149 74V0z"/><glyph glyph-name="f_h" unicode="fh" horiz-adv-x="907" d="M219 0H91v372H11v111h80v26q0 77 45.5 122.5T254 677q54 0 92-20l-26-92q-17 12-41 12-28 0-44-18t-16-50v-26h98V372h-98V0zm625 0H717v294q0 48-23 68t-67 20q-67 0-110-57V0H390v667h127V420q26 31 70.5 53t99.5 22q78 0 117.5-40T844 343V0z"/><glyph glyph-name="f_k" unicode="fk" horiz-adv-x="863" d="M219 0H91v372H11v111h80v26q0 77 45.5 122.5T254 677q54 0 92-20l-26-92q-17 12-41 12-28 0-44-18t-16-50v-26h98V372h-98V0zm643 0H703L575 186l-58-62V0H390v667h127V268l183 215h156L665 264z"/><glyph glyph-name=".notdef" horiz-adv-x="483" d="M417-90H66v842h351V-90zm-32 30v782H97V-60h288z"/><glyph glyph-name=".null" horiz-adv-x="0"/><glyph glyph-name=".null" horiz-adv-x="0"/><glyph glyph-name="nonmarkingreturn" horiz-adv-x="333"/><glyph glyph-name="CR" horiz-adv-x="0"/><glyph glyph-name="space" horiz-adv-x="256"/><glyph glyph-name="exclam" unicode="!" horiz-adv-x="256" d="M184 217H72L51 667h153zM128-10q-33 0-56.5 24T48 70q0 33 23.5 57t56.5 24 57-24 24-57q0-32-24-56t-57-24z"/><glyph glyph-name="quotedbl" unicode="&quot;" horiz-adv-x="406" d="M141 375H85Q44 589 44 608q0 28 20 48.5t49 20.5q28 0 48.5-20.5T182 608zm180 0h-55q-41 214-41 233 0 28 20.5 48.5T294 677t48-20 20-49z"/><glyph glyph-name="numbersign" unicode="#" horiz-adv-x="618" d="M339 0h-95l58 169h-95L150 0H56l57 169H17l26 81h98l54 166H97l25 80h101l56 171h94l-56-171h94l56 171h95l-58-171h97l-24-80H477l-55-166h101l-25-81H395zm-11 250l55 166h-94l-54-166h93z"/><glyph glyph-name="dollar" unicode="$" horiz-adv-x="614" d="M266-100v90Q120 3 30 94l77 108q66-70 159-86v158q-37 9-62.5 17.5t-57 25-50.5 36-32 51T51 474q0 78 58 134.5T266 675v93h95v-95q120-13 203-89l-79-104q-52 47-124 65V404q37-9 63-18t57.5-25.5 51-36.5 33-51.5T579 202q0-86-56-143T361-9v-91h-95zm169 286q0 40-74 64V116q35 7 54.5 26.5T435 186zM196 486q0-37 70-57v122q-33-4-51.5-21.5T196 486z"/><glyph glyph-name="percent" unicode="%" horiz-adv-x="757" d="M195 345q-75 0-122 46.5T26 509q0 72 47 120t122 48q76 0 123-48t47-120q0-71-47-117.5T195 345zM205 0h-75l426 667h76zm357-12q-75 0-122 47t-47 118q0 72 47 120t122 48 122.5-48T732 153q0-71-47.5-118T562-12zM195 423q35 0 57 23.5t22 62.5q0 41-22 65t-57 24-57-24-22-65q0-38 22.5-62t56.5-24zM562 66q35 0 57.5 23.5T642 153q0 41-22.5 65T562 242t-57-24-22-65q0-40 22-63.5T562 66z"/><glyph glyph-name="ampersand" unicode="&amp;" horiz-adv-x="646" d="M638 0H476q-21 20-50 50-82-62-182-62-96 0-158 50T24 181q0 69 38.5 114T167 373q-44 83-44 144 0 68 54 114t137 46q74 0 124.5-38.5T489 536q0-36-13-65t-39.5-51-50-35.5T325 353q22-29 58-72 11-14 31.5-38.5T439 213q40 62 61 129l102-47q-42-92-93-161Q576 62 638 0zM262 88q49 0 96 34-50 55-74 85-35 43-67 88-58-41-58-102 0-47 30-76t73-29zm-12 426q0-35 29-90 49 23 74.5 47t25.5 58q0 26-17 41t-42 15q-30 0-50-20.5T250 514z"/><glyph glyph-name="quotesingle" unicode="'" horiz-adv-x="225" d="M141 375H85Q44 589 44 608q0 28 20 48.5t49 20.5q28 0 48.5-20.5T182 608z"/><glyph glyph-name="parenleft" unicode="(" horiz-adv-x="297" d="M279-137l-80-62Q126-117 83.5 2.5T41 243t42.5 240.5T199 685l80-60q-52-95-76.5-184T178 243t24.5-198T279-137z"/><glyph glyph-name="parenright" unicode=")" horiz-adv-x="297" d="M97-199l-80 62Q70-45 94.5 44T119 243 94.5 442 17 625l80 60q74-83 117-202t43-240T213.5 2.5 97-199z"/><glyph glyph-name="asterisk" unicode="*" horiz-adv-x="351" d="M207 366h-63l5 110-93-59-31 54 97 50-97 50 31 55 93-59-5 110h63l-5-110 92 59 32-55-97-50 97-50-32-54-92 59z"/><glyph glyph-name="plus" unicode="+" horiz-adv-x="504" d="M475 298H296V95h-87v203H29v79h180v195h87V377h179v-79z"/><glyph glyph-name="comma" unicode="," horiz-adv-x="256" d="M215 49q0-55-28-103.5T112-137L57-92q25 13 48 40.5T134 2q-9-3-19-3-29 0-48.5 20T47 71q0 33 23 56.5t55 23.5q37 0 63.5-27.5T215 49z"/><glyph glyph-name="hyphen" unicode="-" horiz-adv-x="300" d="M270 188H30v108h240V188z"/><glyph glyph-name="period" unicode="." horiz-adv-x="256" d="M128-11q-33 0-57 24T47 70t24 57 57 24 57-24 24-57-24-57-57-24z"/><glyph glyph-name="slash" unicode="/" horiz-adv-x="329" d="M92-20H0l237 707h92z"/><glyph glyph-name="zero" unicode="0" horiz-adv-x="620" d="M310-12q-91 0-155.5 51.5T62 167 34 333t28 166 92.5 127T310 677t155-51 92.5-127T586 333t-28.5-166T465 39.5 310-12zm0 126q68 0 99.5 60T441 333t-31.5 158.5T310 551t-100-59.5T178 333t32-159 100-60z"/><glyph glyph-name="one" unicode="1" horiz-adv-x="411" d="M345 0H203v484L92 371l-81 85 210 211h124V0z"/><glyph glyph-name="two" unicode="2" horiz-adv-x="600" d="M549 0H47v111q214 159 283.5 226.5T400 464q0 41-32 64t-76 23q-105 0-179-77l-81 94q47 54 115.5 81.5T289 677q110 0 182.5-58T544 464q0-82-64.5-160.5T277 125h272V0z"/><glyph glyph-name="three" unicode="3" horiz-adv-x="587" d="M283-12q-88 0-156 29.5T20 95l74 95q34-35 84-55.5T278 114q60 0 93 23.5t33 61.5q0 40-32 58.5T270 276q-63 0-83-2v128q12-1 83-1 123 0 123 71 0 38-34.5 58.5T269 551q-97 0-169-69l-71 89q94 106 255 106 117 0 184.5-49T536 496q0-60-43-100.5T390 344q59-6 107.5-48.5T546 184q0-87-72-141.5T283-12z"/><glyph glyph-name="four" unicode="4" horiz-adv-x="597" d="M486 0H344v138H25v112l265 417h196V263h86V138h-86V0zM344 263v278L164 263h180z"/><glyph glyph-name="five" unicode="5" horiz-adv-x="608" d="M306-12Q141-12 49 88l79 99q70-73 177-73 57 0 90.5 28.5T429 213q0 45-32 72t-88 27q-83 0-140-54l-99 26v383h458V542H212V379q56 56 147 56 89 0 151.5-59T573 219q0-106-73-168.5T306-12z"/><glyph glyph-name="six" unicode="6" horiz-adv-x="608" d="M322-12q-144 0-216 96T34 332q0 155 83 250t228 95q116 0 197-69l-64-109q-55 52-133 52-73 0-120-54.5T178 362q0-9 1-14 25 36 72 61t99 25q95 0 161-57.5T577 217q0-99-71-164T322-12zm-8 126q54 0 86.5 30t32.5 68q0 49-36 74.5T309 312q-80 0-130-63 5-56 38-95.5t97-39.5z"/><glyph glyph-name="seven" unicode="7" horiz-adv-x="545" d="M277 0H121l239 542H24v125h501v-99z"/><glyph glyph-name="eight" unicode="8" horiz-adv-x="606" d="M303-12q-113 0-190.5 48T35 173q0 58 40 103.5T178 344Q46 390 46 501q0 87 76.5 131.5T303 677q66 0 122-17t95.5-58.5T560 501q0-110-133-157 63-22 103.5-67.5T571 173q0-88-78-136.5T303-12zm0 412q41 6 76.5 26t35.5 53q0 35-31 55.5T303 555t-81.5-20.5T190 479q0-33 36-53t77-26zm0-290q52 0 88 22.5t36 58.5q0 37-40.5 60T303 280q-43-6-83.5-29T179 191q0-36 35.5-58.5T303 110z"/><glyph glyph-name="nine" unicode="9" horiz-adv-x="608" d="M263-11Q144-11 67 58l63 109q55-52 133-52t122.5 55.5T430 303v15q-26-36-73-61t-99-25q-95 0-161.5 57.5T30 449q0 99 71.5 164T286 678q97 0 163.5-48t95-123.5T573 333q0-154-82.5-249T263-11zm35 365q80 0 131 62-5 56-38 96t-98 40q-54 0-86-30t-32-68q0-49 36-74.5t87-25.5z"/><glyph glyph-name="colon" unicode=":" horiz-adv-x="251" d="M128 328q-33 0-57 24t-24 57 24 57 57 24 57-24 24-57-24-57-57-24zm0-339q-33 0-57 24T47 70t24 57 57 24 57-24 24-57-24-57-57-24z"/><glyph glyph-name="semicolon" unicode=";" horiz-adv-x="256" d="M128 328q-33 0-57 24.5T47 409q0 33 24 57t57 24 57-24 24-57q0-32-24-56.5T128 328zm87-277q0-55-28-103.5T112-135L57-90q25 14 48 42t29 53q-12-4-19-4-29 0-48.5 20.5T47 74q0 33 23 56t55 23q37 0 63.5-27.5T215 51z"/><glyph glyph-name="less" unicode="&lt;" horiz-adv-x="504" d="M475 90L29 289v91l446 200v-94L120 334l355-150V90z"/><glyph glyph-name="equal" unicode="=" horiz-adv-x="504" d="M475 388H29v80h446v-80zm0-187H29v78h446v-78z"/><glyph glyph-name="greater" unicode="&gt;" horiz-adv-x="504" d="M475 289L29 90v94l355 150L29 486v94l446-200v-91z"/><glyph glyph-name="question" unicode="?" horiz-adv-x="456" d="M178 204q-33 36-33 88 0 40 23 72t50 48 50 38 23 44q0 25-19.5 41T213 551q-71 0-123-62L9 580q83 97 219 97 96 0 152-43.5T436 519q0-40-17-72t-42-52-49.5-37-41.5-37-17-43q0-26 18-42zm48-215q-33 0-57 24t-24 57 24 57 57 24 57-24 24-57-24-57-57-24z"/><glyph glyph-name="at" unicode="@" horiz-adv-x="783" d="M352-70q-136 0-226.5 90.5T35 244q0 104 55.5 195.5t147.5 145T432 638q140 0 227.5-89T747 332q0-116-62-181.5T549 85q-42 0-67 21.5T452 159l-1 6q-26-37-65-58.5T307 85q-71 0-113 47t-42 121q0 99 69 172t157 73q43 0 75.5-18.5T503 431l11 53h113l-51-244q-3-18-3-24 0-45 37-45 35 0 64.5 41.5T704 332q0 119-75.5 193T428 599q-142 0-248-106.5T74 246q0-118 80.5-198T356-32q96 0 183 55l21-30q-98-63-208-63zm-1 245q63 0 111 65l25 117q-25 51-81 51-58 0-98-44t-40-101q0-39 22.5-63.5T351 175z"/><glyph glyph-name="A" unicode="A" horiz-adv-x="684" d="M688 0H526l-41 113H199L157 0H-5l258 667h178zM446 238L342 525 238 238h208z"/><glyph glyph-name="B" unicode="B" horiz-adv-x="663" d="M428 0H66v667h351q91 0 141.5-49.5T609 497q0-61-33-102t-82-51q54-8 91-55t37-109q0-78-51-129T428 0zm-42 400q36 0 57 20t21 52-21.5 52.5T386 545H208V400h178zm5-277q40 0 63 20.5t23 56.5q0 33-23 55.5T391 278H208V123h183z"/><glyph glyph-name="C" unicode="C" horiz-adv-x="687" d="M389-12q-152 0-253.5 96.5T34 333t101.5 248.5T389 678q187 0 279-163l-122-60q-22 42-64.5 69.5T389 552q-91 0-150-62t-59-157 59-157 150-62q50 0 92.5 27t64.5 70l122-59Q573-12 389-12z"/><glyph glyph-name="D" unicode="D" horiz-adv-x="718" d="M329 0H66v667h263q157 0 255.5-92T683 333 585 91.5 329 0zm0 125q96 0 152.5 60T538 333q0 92-55 150.5T329 542H208V125h121z"/><glyph glyph-name="E" unicode="E" horiz-adv-x="583" d="M538 0H66v667h472V542H208V401h323V276H208V125h330V0z"/><glyph glyph-name="F" unicode="F" horiz-adv-x="571" d="M208 0H66v667h472V542H208V401h323V276H208V0z"/><glyph glyph-name="G" unicode="G" horiz-adv-x="720" d="M389-13q-150 0-252.5 96T34 333q0 155 102.5 250T389 678q182 0 276-149l-118-64q-24 38-65.5 62.5T389 552q-91 0-150-62t-59-157 59-157 150-62q42 0 81 15t61 36v80H355v124h318V113Q560-13 389-13z"/><glyph glyph-name="H" unicode="H" horiz-adv-x="731" d="M666 0H523v280H208V0H66v667h142V405h315v262h143V0z"/><glyph glyph-name="I" unicode="I" horiz-adv-x="274" d="M208 0H66v667h142V0z"/><glyph glyph-name="J" unicode="J" horiz-adv-x="486" d="M185-12Q72-12 6 53l62 109q50-48 106-48 47 0 75.5 29t28.5 78v446h142V219q0-114-64-172.5T185-12z"/><glyph glyph-name="K" unicode="K" horiz-adv-x="636" d="M637 0H462L260 267l-52-62V0H66v667h142V369l236 298h175L354 354z"/><glyph glyph-name="L" unicode="L" horiz-adv-x="523" d="M490 0H66v667h142V125h282V0z"/><glyph glyph-name="M" unicode="M" horiz-adv-x="855" d="M789 0H646v467L458 0h-62L208 467V0H66v667h199l162-403 162 403h200V0z"/><glyph glyph-name="N" unicode="N" horiz-adv-x="729" d="M663 0H526L208 435V0H66v667h146l309-419v419h142V0z"/><glyph glyph-name="O" unicode="O" horiz-adv-x="765" d="M382-12q-151 0-249.5 97.5T34 333t98.5 247.5T382 678q152 0 250.5-97T731 333 632.5 85 382-12zm0 126q91 0 147 62t56 157-56 157-147 62-146.5-62T180 333t55.5-157T382 114z"/><glyph glyph-name="P" unicode="P" horiz-adv-x="624" d="M208 0H66v667h312q105 0 164.5-61.5T602 452q0-91-60-153t-164-62H208V0zm151 362q43 0 70.5 24.5T457 452t-27.5 65.5T359 542H208V362h151z"/><glyph glyph-name="Q" unicode="Q" horiz-adv-x="765" d="M382-12q-151 0-249.5 97.5T34 333t98.5 247.5T382 678q152 0 250.5-97T731 333q0-141-87-236l49-57-99-81-54 62q-74-33-158-33zm0 126q35 0 70 11l-73 86 98 81 74-87q34 56 34 128 0 95-56 157t-147 62-146.5-62T180 333t55.5-157T382 114z"/><glyph glyph-name="R" unicode="R" horiz-adv-x="643" d="M606 0H443L312 237H208V0H66v667h312q103 0 163.5-60T602 452q0-82-42.5-133T456 254zM357 362q44 0 72 24.5t28 65.5-28 65.5-72 24.5H208V362h149z"/><glyph glyph-name="S" unicode="S" horiz-adv-x="600" d="M303-12Q125-12 21 94l77 108q86-90 212-90 55 0 85.5 21.5T426 186q0 27-28.5 45t-71 26-92.5 23-92.5 34-71 60T42 474q0 86 69 144.5T295 677q159 0 260-93l-79-104q-79 73-194 73-45 0-70-18t-25-49q0-24 28.5-40.5t71-24.5 92-23.5 92-35 71-61T570 202q0-96-68.5-155T303-12z"/><glyph glyph-name="T" unicode="T" horiz-adv-x="582" d="M363 0H220v542H25v125h532V542H363V0z"/><glyph glyph-name="U" unicode="U" horiz-adv-x="733" d="M367-12q-148 0-224.5 75.5T66 266v401h144V271q0-72 41-114.5T367 114t115.5 42.5T523 271v396h145V267q0-129-76.5-204T367-12z"/><glyph glyph-name="V" unicode="V" horiz-adv-x="684" d="M431 0H253L-5 667h162l185-513 184 513h162z"/><glyph glyph-name="W" unicode="W" horiz-adv-x="918" d="M727 0H576L459 458 343 0H192L1 667h159l117-482 127 482h111l126-482 116 482h160z"/><glyph glyph-name="X" unicode="X" horiz-adv-x="668" d="M671 0H501L334 244 166 0H-3l242 342L12 667h169l153-228 151 228h171L429 343z"/><glyph glyph-name="Y" unicode="Y" horiz-adv-x="645" d="M394 0H252v273L-5 667h162l166-268 164 268h162L394 273V0z"/><glyph glyph-name="Z" unicode="Z" horiz-adv-x="592" d="M550 0H42v115l315 427H42v125h501V553L228 125h322V0z"/><glyph glyph-name="bracketleft" unicode="[" horiz-adv-x="280" d="M263-190H47v868h216v-85H138v-698h125v-85z"/><glyph glyph-name="backslash" unicode="\" horiz-adv-x="329" d="M237-20L0 687h92L329-20h-92z"/><glyph glyph-name="bracketright" unicode="]" horiz-adv-x="280" d="M233-190H17v85h125v698H17v85h216v-868z"/><glyph glyph-name="asciicircum" unicode="^" horiz-adv-x="441" d="M422 333h-94L220 580 113 333H19l156 334h93z"/><glyph glyph-name="underscore" unicode="_" horiz-adv-x="564" d="M567-125H-3v85h570v-85z"/><glyph glyph-name="grave" unicode="`" horiz-adv-x="251" d="M251 556h-89L0 700h116z"/><glyph glyph-name="a" unicode="a" horiz-adv-x="543" d="M480 0H353v50q-52-62-153-62-65 0-116.5 42.5T32 148q0 78 50.5 117T200 304q103 0 153-59v65q0 37-29 59t-77 22q-79 0-141-57l-48 85q86 76 211 76 93 0 152-43t59-140V0zM251 74q71 0 102 42v60q-31 42-102 42-39 0-65-19.5T160 145q0-33 26-52t65-19z"/><glyph glyph-name="b" unicode="b" horiz-adv-x="586" d="M190 155q16-23 47-38.5t62-15.5q55 0 89 38.5T422 241t-34 102-89 39q-31 0-62-16t-47-40V155zm0-155H63v667h127V421q57 74 149 74 94 0 154-69t60-185q0-118-60-185.5T339-12q-90 0-149 74V0z"/><glyph glyph-name="c" unicode="c" horiz-adv-x="499" d="M288-12q-112 0-184 71T32 242q0 111 72 182t184 71q128 0 191-87l-83-78q-35 52-102 52-58 0-94.5-38.5T163 242t36.5-102 94.5-39q65 0 102 52l83-77q-63-88-191-88z"/><glyph glyph-name="d" unicode="d" horiz-adv-x="586" d="M523 0H395v62q-59-74-149-74-94 0-154 67.5T32 241q0 116 60 185t154 69q92 0 149-74v246h128V0zM285 101q32 0 63 15.5t47 39.5v171q-16 24-47 39.5T285 382q-54 0-88-39t-34-102q0-62 34-101t88-39z"/><glyph glyph-name="e" unicode="e" horiz-adv-x="553" d="M290-12q-112 0-185 70T32 242q0 107 70.5 180T282 495q108 0 175-73.5T524 229v-28H165q6-48 43-80t96-32q32 0 69.5 13t59.5 35l56-82q-73-67-199-67zm111 299q-3 41-32.5 74T282 394q-54 0-84-32.5T163 287h238z"/><glyph glyph-name="f" unicode="f" horiz-adv-x="327" d="M219 0H91v372H11v111h80v26q0 77 45 122.5T254 677q84 0 126-45l-48-75q-20 20-53 20-27 0-43.5-17.5T219 509v-26h98V372h-98V0z"/><glyph glyph-name="g" unicode="g" horiz-adv-x="585" d="M261-196q-125 0-208 72l57 92q54-60 151-60 54 0 93.5 28.5T394 30v49Q334 3 245 3 151 3 91.5 67.5T32 249q0 116 59.5 181T245 495q90 0 149-74v62h128V33q0-66-23.5-113T435-151t-82.5-34.5T261-196zm24 312q31 0 62 16t47 39v156q-16 24-46.5 39.5T285 382q-55 0-88.5-36T163 249t33.5-97 88.5-36z"/><glyph glyph-name="h" unicode="h" horiz-adv-x="580" d="M517 0H390v294q0 48-23 68t-67 20q-67 0-110-57V0H63v667h127V420q26 31 70.5 53t99.5 22q78 0 117.5-40T517 343V0z"/><glyph glyph-name="i" unicode="i" horiz-adv-x="253" d="M126 535q-31 0-53.5 22.5T50 611t22.5 53 53.5 22q32 0 54-22t22-53-22-53.5-54-22.5zM190 0H63v483h127V0z"/><glyph glyph-name="j" unicode="j" horiz-adv-x="253" d="M126 535q-31 0-53.5 22.5T50 611t22.5 53 53.5 22q32 0 54-22t22-53-22-53.5-54-22.5zM18-196q-44 0-68.5 7.5T-103-162l35 95q30-25 65-25 30 0 48 20t18 59v496h127V-13q0-85-43.5-134T18-196z"/><glyph glyph-name="k" unicode="k" horiz-adv-x="535" d="M535 0H376L248 186l-58-62V0H63v667h127V268l183 215h156L338 264z"/><glyph glyph-name="l" unicode="l" horiz-adv-x="253" d="M190 0H63v667h127V0z"/><glyph glyph-name="m" unicode="m" horiz-adv-x="852" d="M790 0H662v305q0 77-72 77-31 0-57.5-17T490 326V0H362v305q0 77-72 77-30 0-57-17t-43-40V0H63v483h127v-63q18 26 63 50.5t95 24.5q105 0 134-88 23 36 68.5 62t97.5 26q68 0 105-36.5T790 349V0z"/><glyph glyph-name="n" unicode="n" d="M516 0H389v292q0 90-89 90-69 0-110-57V0H63v483h127v-63q63 75 169 75 78 0 117.5-41T516 341V0z"/><glyph glyph-name="o" unicode="o" horiz-adv-x="574" d="M287-12q-116 0-185.5 73.5T32 242t69.5 180T287 495t186-73 70-180-70-180.5T287-12zm0 113q57 0 90.5 40.5T411 242q0 59-33.5 99.5T287 382t-90-40.5-33-99.5q0-60 33-100.5t90-40.5z"/><glyph glyph-name="p" unicode="p" horiz-adv-x="583" d="M339-12q-91 0-149 74v-246H63v667h127v-61q57 73 149 73 95 0 154.5-67.5T553 242 493.5 56 339-12zm-40 113q55 0 88.5 39T421 242q0 62-33.5 101T299 382q-31 0-62-16t-47-39V156q16-23 47.5-39t61.5-16z"/><glyph glyph-name="q" unicode="q" horiz-adv-x="583" d="M284 101q30 0 61.5 16t47.5 39v171q-16 23-47 39t-62 16q-54 0-88-39t-34-101q0-63 34-102t88-39zM244-12q-95 0-154.5 68T30 242t59.5 185.5T244 495q92 0 149-73v61h128v-667H393V62q-58-74-149-74z"/><glyph glyph-name="r" unicode="r" horiz-adv-x="360" d="M190 0H63v483h127v-66q27 34 69 56t85 22V371q-14 3-35 3-32 0-68-16t-51-39V0z"/><glyph glyph-name="s" unicode="s" horiz-adv-x="477" d="M237-12q-63 0-120.5 20T21 63l55 89q28-26 76-46t91-20q40 0 60.5 14t20.5 38q0 18-21.5 29.5t-53 16.5-69 15-69 24-53 44.5T37 343q0 64 53 108t145 44q112 0 195-66l-51-87q-23 24-61.5 40T236 398q-34 0-55-13.5T160 350q0-16 21-26.5t53-15.5 69-15.5 69-25 53-46.5 21-78q0-68-55.5-111.5T237-12z"/><glyph glyph-name="t" unicode="t" horiz-adv-x="338" d="M225-12q-67 0-102 34t-35 98v252H8v111h80v132h128V483h98V372h-98V154q0-23 12-38t32-15q30 0 44 14l27-96q-35-31-106-31z"/><glyph glyph-name="u" unicode="u" d="M516 0H389v61q-65-73-170-73-78 0-117 40T63 140v343h127V190q0-89 89-89 67 0 110 55v327h127V0z"/><glyph glyph-name="v" unicode="v" horiz-adv-x="513" d="M325 0H188L-6 483h136l126-336 126 336h137z"/><glyph glyph-name="w" unicode="w" horiz-adv-x="769" d="M622 0H487L385 329 283 0H147L0 483h132l90-325 106 325h113l106-325 90 325h132z"/><glyph glyph-name="x" unicode="x" horiz-adv-x="504" d="M504 0H362L252 163 141 0H0l171 248L10 483h142l100-149 99 149h142L331 248z"/><glyph glyph-name="y" unicode="y" horiz-adv-x="513" d="M46-189L65-75q18-8 40-8 51 0 67 35l18 41L-6 483h136l126-336 126 336h137L292-79q-25-64-70-89.5T109-196q-35 0-63 7z"/><glyph glyph-name="z" unicode="z" horiz-adv-x="479" d="M436 0H42v95l218 277H42v111h390v-92L211 111h225V0z"/><glyph glyph-name="braceleft" unicode="{" horiz-adv-x="288" d="M271-190h-61q-63 0-109 44T55-31v172q0 29-13.5 48T3 208v72q25 0 38.5 19T55 347v171q0 71 46 115.5T210 678h61v-85h-61q-26 0-44-20.5T148 519V334q0-70-46-90 46-20 46-90V-30q0-33 18-54t44-21h61v-85z"/><glyph glyph-name="bar" unicode="|" horiz-adv-x="216" d="M151-20H66v707h85V-20z"/><glyph glyph-name="braceright" unicode="}" horiz-adv-x="288" d="M17-190v85h61q26 0 44.5 21T141-30v184q0 70 46 90-46 20-46 90v185q0 33-18.5 53.5T78 593H17v85h61q63 0 109-44.5T233 518V347q0-29 13.5-48t38.5-19v-72q-25 0-38.5-19T233 141V-31q0-71-46-115T78-190H17z"/><glyph glyph-name="asciitilde" unicode="~" horiz-adv-x="510" d="M398 667l86-10q-4-52-12-90t-23.5-76-44.5-58.5-69-20.5q-44 0-71 27.5T228.5 500 207 560.5 175 588q-48 0-62-176l-87 10q4 51 12 89.5t24 76 44.5 58T175 666q36 0 60.5-18t35.5-44 19-52.5 18.5-44.5 26.5-18q49 0 63 178z"/><glyph glyph-name="nbspace" horiz-adv-x="256"/><glyph glyph-name="exclamdown" unicode="¡" horiz-adv-x="256" d="M51-184l20 449h113l21-449H51zm-4 598q0 32 23.5 56t56.5 24 57-24 24-56q0-33-24-57.5T127 332t-56.5 24.5T47 414z"/><glyph glyph-name="cent" unicode="¢" horiz-adv-x="499" d="M241-100v92Q147 6 89.5 74.5T32 242q0 98 57.5 166.5T241 491v74h92v-73q95-15 146-84l-83-78q-25 36-63 46V106q37 11 63 47l83-77Q428 4 333-9v-91h-92zm-78 342q0-47 21-81.5t57-49.5v261q-36-15-57-49t-21-81z"/><glyph glyph-name="sterling" unicode="£" horiz-adv-x="550" d="M23 269v81h68q-46 63-46 120 0 91 74 149t169 58q169 0 232-121l-113-66q-13 32-40.5 51.5T305 561q-45 0-75-26t-30-68q0-14 2-26.5t9-27 10-20 15-23.5 13-20h144v-81H280q0-3 .5-9.5t.5-9.5q0-34-18-64t-46-47q21 7 49 7 30 0 68-16.5t62-16.5q59 0 86 37l56-113q-48-50-147-50-47 0-100.5 22T210 31Q163 31 94-7L46 90q109 53 109 125 0 25-12 54H23z"/><glyph glyph-name="currency" unicode="¤" horiz-adv-x="623" d="M311 86q-78 0-138 35l-73-74-76 74 73 73q-40 62-40 139t40 139l-74 75 76 74 76-76q60 34 136 34 74 0 136-34l76 76 76-75-73-73q41-63 41-140 0-79-42-141l74-71-76-74-75 73q-59-34-137-34zm0 114q60 0 94 38t34 95q0 56-34 94t-94 38q-59 0-93-38t-34-94 34-94.5 93-38.5z"/><glyph glyph-name="yen" unicode="¥" horiz-adv-x="645" d="M394 0H252v115H24v78h228v80H24v79h176L-5 667h162l166-268 164 268h162L445 352h178v-79H394v-80h229v-78H394V0z"/><glyph glyph-name="brokenbar" unicode="¦" horiz-adv-x="216" d="M151-20H66v316h85V-20zm0 391H66v316h85V371z"/><glyph glyph-name="section" unicode="§" horiz-adv-x="484" d="M446 326q0-86-83-128 83-36 83-123 0-73-58-114.5T237-81Q110-81 23-2l53 80q29-29 72-50t89-21q40 0 63.5 15T324 65q0 22-21.5 36t-53 20.5-69 17.5-69 24.5-53 43.5T37 281q0 47 29 79t69 46q-98 37-98 126 0 62 55.5 103.5T235 677q124 0 194-68l-50-75q-54 54-139 54-37 0-58.5-14.5T160 534q0-23 29.5-35.5t71.5-21 84-21 71.5-45.5 29.5-85zm-125-24q0 53-83 72-43-10-60.5-28T160 300q0-32 27-46.5t76-25.5q58 25 58 74z"/><glyph glyph-name="dieresis" unicode="¨" horiz-adv-x="295" d="M321 611q0-28-20-48t-48-20-48 20-20 48 20 47.5 48 19.5 48-19.5 20-47.5zm-212 0q0-28-19.5-48T42 543t-48 19.5-20 48.5q0 28 20 47.5T42 678t47.5-19.5T109 611z"/><glyph glyph-name="copyright" unicode="©" horiz-adv-x="778" d="M734 334q0-143-101-244T389-11 145 90.5 44 334q0 143 101 244t244 101 244-101 101-244zm-36 0q0 128-91 218.5T389 643t-218-91-91-218 91-218 218-91 218 91 91 218zM512 221l31-30q-58-68-149-68-87 0-147.5 60.5T186 335q0 90 60.5 150T394 545q92 0 148-66l-31-31q-42 57-117 57-67 0-114.5-48T232 335q0-73 47.5-122.5T394 163q75 0 118 58z"/><glyph glyph-name="ordfeminine" unicode="ª" horiz-adv-x="385" d="M335 326h-92v32q-36-40-102-40-44 0-77 27.5T31 422q0 48 33 74.5t77 26.5q68 0 102-38v40q0 25-19 39.5T174 579q-53 0-92-41l-35 60q59 50 143 50 63 0 104-29t41-96V326zm-156 49q43 0 64 29v36q-21 27-64 27-24 0-40.5-12T122 422q0-22 16.5-34.5T179 375z"/><glyph glyph-name="guillemotleft" unicode="«" horiz-adv-x="527" d="M497 63H380L220 243l160 177h117L337 243zm-190 0H190L30 243l160 177h117L147 243z"/><glyph glyph-name="logicalnot" unicode="¬" horiz-adv-x="515" d="M475 468V201h-81v187H29v80h446z"/><glyph glyph-name="uni00AD" unicode="­" horiz-adv-x="300" d="M270 188H30v108h240V188z"/><glyph glyph-name="registered" unicode="®" horiz-adv-x="494" d="M459 465q0-88-62-150t-150-62-150 62-62 150 62 150 150 62q89 0 150.5-61.5T459 465zm-32 0q0 75-53 127.5T247 645q-75 0-127.5-52.5T67 465q0-74 52.5-127T247 285q74 0 127 53t53 127zm-80-122h-42l-63 96h-42v-96h-34v243h99q32 0 55.5-20.5T344 512q0-35-22.5-53.5T282 440zm-38 169q0 19-13.5 31.5T265 556h-65v-86h65q17 0 30.5 12t13.5 30z"/><glyph glyph-name="macron" unicode="¯" horiz-adv-x="363" d="M363 562H0v72h363v-72z"/><glyph glyph-name="degree" unicode="°" horiz-adv-x="311" d="M290 541q0-56-39.5-95T155 407t-95.5 39T20 541t39.5 96 95.5 40 95.5-40 39.5-96zm-69 0q0 28-19.5 47.5T155 608q-28 0-46.5-19.5T90 541q0-27 18.5-46t46.5-19q27 0 46.5 19t19.5 46z"/><glyph glyph-name="plusminus" unicode="±" horiz-adv-x="504" d="M475 326H296V122h-87v204H29v78h180v197h87V404h179v-78zm0-326H29v78h446V0z"/><glyph glyph-name="twosuperior" unicode="²" horiz-adv-x="397" d="M360 421H46v70q131 92 173.5 131.5T262 695q0 27-19 41t-49 14q-33 0-63-15t-46-35l-50 61q59 66 161 66 71 0 116-33t45-92q0-47-40.5-93.5T185 498h175v-77z"/><glyph glyph-name="threesuperior" unicode="³" horiz-adv-x="397" d="M363 532q0-53-45.5-85.5T197 414q-111 0-165 63l47 63q46-49 115-49 35 0 54 13t19 34q0 49-88 49-39 0-45-1v76q9-1 44-1 82 0 82 45 0 44-73 44-61 0-105-44l-45 57q59 64 160 64 75 0 117-29.5t42-79.5q0-35-26-60t-63-31q35-3 65.5-28.5T363 532z"/><glyph glyph-name="acute" unicode="´" horiz-adv-x="251" d="M251 700L89 556H0l134 144h117z"/><glyph glyph-name="mu" unicode="µ" horiz-adv-x="593" d="M190 16v-200H63v667h127V190q0-90 90-90 65 0 109 56v327h127V145q0-21 11-32.5t29-11.5q9 0 19 2l9-108q-26-7-59-7-104 0-130 86-22-38-57.5-62T260-12q-49 0-70 28z"/><glyph glyph-name="paragraph" unicode="¶" horiz-adv-x="449" d="M403-100h-63v705h-78v-705h-63v423q-71 0-121.5 50.5T27 495t50.5 121.5T199 667h204v-767z"/><glyph glyph-name="periodcentered" unicode="·" horiz-adv-x="256" d="M209 244q0-32-24-56t-57-24-57 24-24 56q0 33 24 57t57 24 57-24 24-57z"/><glyph glyph-name="cedilla" unicode="¸" horiz-adv-x="221" d="M110-196q-70 0-110 32l25 51q38-29 81-29 22 0 37 8.5t15 24.5q0 26-29 26-18 0-32-14L51-71l30 82h63l-26-62q17 10 36 10 28 0 47.5-19.5T221-111q0-39-32-62t-79-23z"/><glyph glyph-name="onesuperior" unicode="¹" horiz-adv-x="286" d="M226 421h-97v277l-68-69-54 58 136 134h83V421z"/><glyph glyph-name="ordmasculine" unicode="º" horiz-adv-x="405" d="M202 318q-77 0-124.5 48T30 483t47.5 117T202 648q78 0 125.5-48T375 483t-47.5-117T202 318zm0 74q36 0 57 24.5t21 66.5q0 41-20.5 65T202 572q-36 0-56.5-23.5T125 483t20.5-66.5T202 392z"/><glyph glyph-name="guillemotright" unicode="»" horiz-adv-x="527" d="M307 243L147 63H30l160 180L30 420h117zm190 0L337 63H220l160 180-160 177h117z"/><glyph glyph-name="onequarter" unicode="¼" horiz-adv-x="833" d="M226 267h-97v277l-68-69-54 58 136 134h83V267zM808 86h-53V0h-95v86H464v65l158 249h133V161h53V86zm-148 75v158L559 161h101zm-19 506L214 0h-76l426 667h77z"/><glyph glyph-name="onehalf" unicode="½" horiz-adv-x="867" d="M226 267h-97v277l-68-69-54 58 136 134h83V267zM829 0H515v70q131 92 173.5 131.5T731 274q0 27-19 41t-49 14q-33 0-63-15t-46-35l-50 61q59 66 161 66 71 0 116-33t45-92q0-47-40.5-93.5T654 77h175V0zM641 667L214 0h-76l426 667h77z"/><glyph glyph-name="threequarters" unicode="¾" horiz-adv-x="921" d="M896 86h-53V0h-95v86H552v65l158 249h133V161h53V86zm-148 75v158L647 161h101zm-20 506L301 0h-76l426 667h77zM363 378q0-53-45.5-85.5T197 260q-111 0-165 63l47 63q46-49 115-49 35 0 54 13t19 34q0 49-88 49-39 0-45-1v76q9-1 44-1 82 0 82 45 0 44-73 44-61 0-105-44l-45 57q59 64 160 64 75 0 117-29.5t42-79.5q0-35-26-60t-63-31q35-3 65.5-28.5T363 378z"/><glyph glyph-name="questiondown" unicode="¿" horiz-adv-x="398" d="M277 277q34-34 34-88 0-40-23-71.5t-50.5-48T187 31t-23-44q0-24 20-40t59-16q72 0 123 61l81-91q-84-96-220-96-95 0-151.5 43.5T19-37q0 49 26.5 87t57.5 57 57.5 44.5T187 204q0 26-19 42zm-47 217q33 0 57-24t24-57-24-57-57-24-57 24-24 57 24 57 57 24z"/><glyph glyph-name="Agrave" unicode="À" horiz-adv-x="684" d="M688 0H526l-41 113H199L157 0H-5l258 667h178zM446 238L342 525 238 238h208zm-40 485h-89L155 867h116z"/><glyph glyph-name="Aacute" unicode="Á" horiz-adv-x="684" d="M688 0H526l-41 113H199L157 0H-5l258 667h178zM446 238L342 525 238 238h208zm84 629L368 723h-89l134 144h117z"/><glyph glyph-name="Acircumflex" unicode="Â" horiz-adv-x="684" d="M493 723h-78l-73 89-71-89h-78l92 144h114zM688 0H526l-41 113H199L157 0H-5l258 667h178zM446 238L342 525 238 238h208z"/><glyph glyph-name="Atilde" unicode="Ã" horiz-adv-x="684" d="M688 0H526l-41 113H199L157 0H-5l258 667h178zM446 238L342 525 238 238h208zm-47 483q-29 0-50 17t-36.5 34-30.5 17q-36 0-36-62h-67q0 64 28 99t80 35q22 0 40.5-10.5t28-23 22.5-23 25-10.5q36 0 36 61h67q0-64-27.5-99T399 721z"/><glyph glyph-name="Adieresis" unicode="Ä" horiz-adv-x="684" d="M516 778q0-28-20-48t-48-20-48 20-20 48 20 47.5 48 19.5 48-19.5 20-47.5zm-212 0q0-28-19.5-48T237 710q-29 0-48.5 20T169 778t20 47.5 48 19.5 47.5-19.5T304 778zM688 0H526l-41 113H199L157 0H-5l258 667h178zM446 238L342 525 238 238h208z"/><glyph glyph-name="Aring" unicode="Å" horiz-adv-x="684" d="M688 0H526l-41 113H199L157 0H-5l258 667h178zM446 238L342 525 238 238h208zM343 688q-43 0-74 31t-31 74 31 74.5 74 31.5 73.5-31.5T447 793q0-44-30.5-74.5T343 688zm0 58q19 0 32.5 14t13.5 33q0 20-13.5 33.5T343 840t-33-14-14-33 14-33 33-14z"/><glyph glyph-name="AE" unicode="Æ" horiz-adv-x="968" d="M926 0H454v113H219L153 0H-9l406 667h529V542H597V401h322V276H597V125h329V0zM454 238v287L287 238h167z"/><glyph glyph-name="Ccedilla" unicode="Ç" horiz-adv-x="687" d="M383-192q-70 0-110 32l25 51q38-29 81-29 22 0 37 8.5t15 24.5q0 26-29 26-18 0-32-14l-46 26 21 58Q209 5 121.5 99T34 333q0 152 101.5 248.5T389 678q187 0 279-163l-122-60q-22 42-64.5 69.5T389 552q-91 0-150-62t-59-157 59-157 150-62q50 0 92.5 27t64.5 70l122-59Q579-3 406-11l-15-36q17 10 36 10 28 0 47.5-19.5T494-107q0-39-32-62t-79-23z"/><glyph glyph-name="Egrave" unicode="È" horiz-adv-x="583" d="M538 0H66v667h472V542H208V401h323V276H208V125h330V0zM364 723h-89L113 867h116z"/><glyph glyph-name="Eacute" unicode="É" horiz-adv-x="583" d="M489 867L327 723h-89l134 144h117zM538 0H66v667h472V542H208V401h323V276H208V125h330V0z"/><glyph glyph-name="Ecircumflex" unicode="Ê" horiz-adv-x="583" d="M452 723h-78l-73 89-71-89h-78l92 144h114zM538 0H66v667h472V542H208V401h323V276H208V125h330V0z"/><glyph glyph-name="Edieresis" unicode="Ë" horiz-adv-x="583" d="M476 778q0-28-20-48t-48-20-48 20-20 48 20 47.5 48 19.5 48-19.5 20-47.5zm-212 0q0-28-19.5-48T197 710q-29 0-48.5 20T129 778t20 47.5 48 19.5 47.5-19.5T264 778zM538 0H66v667h472V542H208V401h323V276H208V125h330V0z"/><glyph glyph-name="Igrave" unicode="Ì" horiz-adv-x="274" d="M208 0H66v667h142V0zm-7 723h-89L-50 867H66z"/><glyph glyph-name="Iacute" unicode="Í" horiz-adv-x="274" d="M208 0H66v667h142V0zm118 867L164 723H75l134 144h117z"/><glyph glyph-name="Icircumflex" unicode="Î" horiz-adv-x="274" d="M287 723h-78l-73 89-71-89h-78l92 144h114zM208 0H66v667h142V0z"/><glyph glyph-name="Idieresis" unicode="Ï" horiz-adv-x="274" d="M311 778q0-28-20-48t-48-20-48 20-20 48 20 47.5 48 19.5 48-19.5 20-47.5zm-212 0q0-28-19.5-48T32 710t-48 20-20 48 20 47.5T32 845t47.5-19.5T99 778zM208 0H66v667h142V0z"/><glyph glyph-name="Eth" unicode="Ð" horiz-adv-x="742" d="M354 0H91v277H8v105h83v285h263q157 0 255.5-92T708 333 610 91.5 354 0zm0 125q96 0 152.5 60T563 333q0 92-55 150.5T354 542H233V382h149V277H233V125h121z"/><glyph glyph-name="Ntilde" unicode="Ñ" horiz-adv-x="729" d="M420 721q-29 0-50 17t-36.5 34-30.5 17q-36 0-36-62h-67q0 64 28 99t80 35q22 0 40.5-10.5t28-23 22.5-23 25-10.5q36 0 36 61h67q0-64-27.5-99T420 721zM663 0H526L208 435V0H66v667h146l309-419v419h142V0z"/><glyph glyph-name="Ograve" unicode="Ò" horiz-adv-x="765" d="M447 723h-89L196 867h116zM382-12q-151 0-249.5 97.5T34 333t98.5 247.5T382 678q152 0 250.5-97T731 333 632.5 85 382-12zm0 126q91 0 147 62t56 157-56 157-147 62-146.5-62T180 333t55.5-157T382 114z"/><glyph glyph-name="Oacute" unicode="Ó" horiz-adv-x="765" d="M570 867L408 723h-89l134 144h117zM382-12q-151 0-249.5 97.5T34 333t98.5 247.5T382 678q152 0 250.5-97T731 333 632.5 85 382-12zm0 126q91 0 147 62t56 157-56 157-147 62-146.5-62T180 333t55.5-157T382 114z"/><glyph glyph-name="Ocircumflex" unicode="Ô" horiz-adv-x="765" d="M535 723h-78l-73 89-71-89h-78l92 144h114zM382-12q-151 0-249.5 97.5T34 333t98.5 247.5T382 678q152 0 250.5-97T731 333 632.5 85 382-12zm0 126q91 0 147 62t56 157-56 157-147 62-146.5-62T180 333t55.5-157T382 114z"/><glyph glyph-name="Otilde" unicode="Õ" horiz-adv-x="765" d="M382-12q-151 0-249.5 97.5T34 333t98.5 247.5T382 678q152 0 250.5-97T731 333 632.5 85 382-12zm0 126q91 0 147 62t56 157-56 157-147 62-146.5-62T180 333t55.5-157T382 114zm57 607q-29 0-50 17t-36.5 34-30.5 17q-36 0-36-62h-67q0 64 28 99t80 35q22 0 40.5-10.5t28-23 22.5-23 25-10.5q36 0 36 61h67q0-64-27.5-99T439 721z"/><glyph glyph-name="Odieresis" unicode="Ö" horiz-adv-x="765" d="M557 778q0-28-20-48t-48-20-48 20-20 48 20 47.5 48 19.5 48-19.5 20-47.5zm-212 0q0-28-19.5-48T278 710t-48 20-20 48 20 47.5 48 19.5 47.5-19.5T345 778zm37-790q-151 0-249.5 97.5T34 333t98.5 247.5T382 678q152 0 250.5-97T731 333 632.5 85 382-12zm0 126q91 0 147 62t56 157-56 157-147 62-146.5-62T180 333t55.5-157T382 114z"/><glyph glyph-name="multiply" unicode="×" horiz-adv-x="504" d="M393 137L252 278 112 137l-57 55 141 142L55 475l57 56 140-142 141 142 56-56-141-141 141-142z"/><glyph glyph-name="Oslash" unicode="Ø" horiz-adv-x="765" d="M382-12q-103 0-184 47L171 0H69l64 84q-99 97-99 249 0 150 98.5 247.5T382 678q94 0 173-41l23 30h102l-58-76q109-99 109-258 0-151-98.5-248T382-12zm0 126q91 0 147 62t56 157q0 88-48 147L278 141q46-27 104-27zM180 333q0-79 39-137l255 335q-44 21-92 21-91 0-146.5-62T180 333z"/><glyph glyph-name="Ugrave" unicode="Ù" horiz-adv-x="733" d="M367-12q-148 0-224.5 75.5T66 266v401h144V271q0-72 41-114.5T367 114t115.5 42.5T523 271v396h145V267q0-129-76.5-204T367-12zm64 735h-89L180 867h116z"/><glyph glyph-name="Uacute" unicode="Ú" horiz-adv-x="733" d="M555 867L393 723h-89l134 144h117zM367-12q-148 0-224.5 75.5T66 266v401h144V271q0-72 41-114.5T367 114t115.5 42.5T523 271v396h145V267q0-129-76.5-204T367-12z"/><glyph glyph-name="Ucircumflex" unicode="Û" horiz-adv-x="733" d="M521 723h-78l-73 89-71-89h-78l92 144h114zM367-12q-148 0-224.5 75.5T66 266v401h144V271q0-72 41-114.5T367 114t115.5 42.5T523 271v396h145V267q0-129-76.5-204T367-12z"/><glyph glyph-name="Udieresis" unicode="Ü" horiz-adv-x="733" d="M543 778q0-28-20-48t-48-20-48 20-20 48 20 47.5 48 19.5 48-19.5 20-47.5zm-212 0q0-28-19.5-48T264 710t-48 20-20 48 20 47.5 48 19.5 47.5-19.5T331 778zm36-790q-148 0-224.5 75.5T66 266v401h144V271q0-72 41-114.5T367 114t115.5 42.5T523 271v396h145V267q0-129-76.5-204T367-12z"/><glyph glyph-name="Yacute" unicode="Ý" horiz-adv-x="645" d="M394 0H252v273L-5 667h162l166-268 164 268h162L394 273V0zm116 867L348 723h-89l134 144h117z"/><glyph glyph-name="Thorn" unicode="Þ" horiz-adv-x="624" d="M208 0H66v667h142V559h170q105 0 164.5-62T602 343q0-91-60-152t-164-61H208V0zm149 255q44 0 72 24t28 65-28.5 65.5T357 434H208V255h149z"/><glyph glyph-name="germandbls" unicode="ß" horiz-adv-x="643" d="M627 144q0-68-55-112T426-12q-66 0-111 19.5T229 64l54 88q21-27 60.5-46T426 87q38 0 58.5 15t20.5 37q0 21-27 33.5t-65.5 21-76.5 22-65 45.5-27 83q0 29 12.5 53t31 39.5 36.5 28 30.5 25T367 514q0 23-23 36.5T290 564q-43 0-71.5-24T190 475V0H63v475q0 86 62 144t167 58q83 0 144.5-40T498 532q0-38-20.5-67.5t-45.5-44-45.5-34T366 348t27-29 65-17.5 76.5-21 65.5-48 27-88.5z"/><glyph glyph-name="agrave" unicode="à" horiz-adv-x="543" d="M480 0H353v50q-52-62-153-62-65 0-116.5 42.5T32 148q0 78 50.5 117T200 304q103 0 153-59v65q0 37-29 59t-77 22q-79 0-141-57l-48 85q86 76 211 76 93 0 152-43t59-140V0zM251 74q71 0 102 42v60q-31 42-102 42-39 0-65-19.5T160 145q0-33 26-52t65-19zm81 482h-89L81 700h116z"/><glyph glyph-name="aacute" unicode="á" horiz-adv-x="543" d="M480 0H353v50q-52-62-153-62-65 0-116.5 42.5T32 148q0 78 50.5 117T200 304q103 0 153-59v65q0 37-29 59t-77 22q-79 0-141-57l-48 85q86 76 211 76 93 0 152-43t59-140V0zM251 74q71 0 102 42v60q-31 42-102 42-39 0-65-19.5T160 145q0-33 26-52t65-19zm205 626L294 556h-89l134 144h117z"/><glyph glyph-name="acircumflex" unicode="â" horiz-adv-x="543" d="M480 0H353v50q-52-62-153-62-65 0-116.5 42.5T32 148q0 78 50.5 117T200 304q103 0 153-59v65q0 37-29 59t-77 22q-79 0-141-57l-48 85q86 76 211 76 93 0 152-43t59-140V0zM251 74q71 0 102 42v60q-31 42-102 42-39 0-65-19.5T160 145q0-33 26-52t65-19zm170 482h-78l-73 89-71-89h-78l92 144h114z"/><glyph glyph-name="atilde" unicode="ã" horiz-adv-x="543" d="M480 0H353v50q-52-62-153-62-65 0-116.5 42.5T32 148q0 78 50.5 117T200 304q103 0 153-59v65q0 37-29 59t-77 22q-79 0-141-57l-48 85q86 76 211 76 93 0 152-43t59-140V0zM251 74q71 0 102 42v60q-31 42-102 42-39 0-65-19.5T160 145q0-33 26-52t65-19zm75 480q-29 0-50 17t-36.5 34-30.5 17q-36 0-36-62h-67q0 64 28 99t80 35q28 0 49-17t36.5-33.5T330 627q36 0 36 61h67q0-64-27.5-99T326 554z"/><glyph glyph-name="adieresis" unicode="ä" horiz-adv-x="543" d="M480 0H353v50q-52-62-153-62-65 0-116.5 42.5T32 148q0 78 50.5 117T200 304q103 0 153-59v65q0 37-29 59t-77 22q-79 0-141-57l-48 85q86 76 211 76 93 0 152-43t59-140V0zM251 74q71 0 102 42v60q-31 42-102 42-39 0-65-19.5T160 145q0-33 26-52t65-19zm192 537q0-28-20-48t-48-20-48 20-20 48 20 47.5 48 19.5 48-19.5 20-47.5zm-212 0q0-28-19.5-48T164 543t-48 19.5T96 611q0 28 20 47.5t48 19.5 47.5-19.5T231 611z"/><glyph glyph-name="aring" unicode="å" horiz-adv-x="543" d="M480 0H353v50q-52-62-153-62-65 0-116.5 42.5T32 148q0 78 50.5 117T200 304q103 0 153-59v65q0 37-29 59t-77 22q-79 0-141-57l-48 85q86 76 211 76 93 0 152-43t59-140V0zM251 74q71 0 102 42v60q-31 42-102 42-39 0-65-19.5T160 145q0-33 26-52t65-19zm20 457q-43 0-74 31t-31 74 31 74.5 74 31.5 73.5-31.5T375 636q0-44-30.5-74.5T271 531zm0 58q19 0 32.5 14t13.5 33q0 20-13.5 33.5T271 683t-33-14-14-33 14-33 33-14z"/><glyph glyph-name="ae" unicode="æ" horiz-adv-x="870" d="M841 201H500q7-47 41-78t89-31q74 0 119 47l57-84q-35-32-86-49.5T621-12q-125 0-186 88-31-39-84.5-63.5T234-12q-86 0-144 40.5T32 146q0 76 50 117t125 41q109 0 165-58v65q0 36-31.5 58T257 391q-83 0-151-57l-48 85q86 76 214 76 127 0 169-83 63 83 175 83 100 0 162.5-73.5T841 229v-28zm-343 86h220q-2 41-29.5 74T608 394q-50 0-78-32.5T498 287zM372 169v6q-38 43-113 43-43 0-71-17t-28-48 27.5-48T256 88q46 0 81 25.5t35 55.5z"/><glyph glyph-name="ccedilla" unicode="ç" horiz-adv-x="499" d="M291-194q-70 0-110 32l25 51q38-29 81-29 22 0 37 8.5t15 24.5q0 26-29 26-18 0-32-14l-46 26 21 59Q154 1 93 70T32 242q0 111 72 182t184 71q128 0 191-87l-83-78q-35 52-102 52-58 0-94.5-38.5T163 242t36.5-102 94.5-39q65 0 102 52l83-77Q424-2 315-11l-16-38q17 10 36 10 28 0 47.5-19.5T402-109q0-39-32-62t-79-23z"/><glyph glyph-name="egrave" unicode="è" horiz-adv-x="553" d="M290-12q-112 0-185 70T32 242q0 107 70.5 180T282 495q108 0 175-73.5T524 229v-28H165q6-48 43-80t96-32q32 0 69.5 13t59.5 35l56-82q-73-67-199-67zm111 299q-3 41-32.5 74T282 394q-54 0-84-32.5T163 287h238zm-55 269h-89L95 700h116z"/><glyph glyph-name="eacute" unicode="é" horiz-adv-x="553" d="M470 700L308 556h-89l134 144h117zM290-12q-112 0-185 70T32 242q0 107 70.5 180T282 495q108 0 175-73.5T524 229v-28H165q6-48 43-80t96-32q32 0 69.5 13t59.5 35l56-82q-73-67-199-67zm111 299q-3 41-32.5 74T282 394q-54 0-84-32.5T163 287h238z"/><glyph glyph-name="ecircumflex" unicode="ê" horiz-adv-x="553" d="M433 556h-78l-73 89-71-89h-78l92 144h114zM290-12q-112 0-185 70T32 242q0 107 70.5 180T282 495q108 0 175-73.5T524 229v-28H165q6-48 43-80t96-32q32 0 69.5 13t59.5 35l56-82q-73-67-199-67zm111 299q-3 41-32.5 74T282 394q-54 0-84-32.5T163 287h238z"/><glyph glyph-name="edieresis" unicode="ë" horiz-adv-x="553" d="M457 611q0-28-20-48t-48-20-48 20-20 48 20 47.5 48 19.5 48-19.5 20-47.5zm-212 0q0-28-19.5-48T178 543t-48 19.5-20 48.5q0 28 20 47.5t48 19.5 47.5-19.5T245 611zm45-623q-112 0-185 70T32 242q0 107 70.5 180T282 495q108 0 175-73.5T524 229v-28H165q6-48 43-80t96-32q32 0 69.5 13t59.5 35l56-82q-73-67-199-67zm111 299q-3 41-32.5 74T282 394q-54 0-84-32.5T163 287h238z"/><glyph glyph-name="igrave" unicode="ì" horiz-adv-x="253" d="M190 0H63v483h127V0zm0 556h-89L-61 700H55z"/><glyph glyph-name="iacute" unicode="í" horiz-adv-x="253" d="M314 700L152 556H63l134 144h117zM190 0H63v483h127V0z"/><glyph glyph-name="icircumflex" unicode="î" horiz-adv-x="253" d="M276 556h-78l-73 89-71-89h-78l92 144h114zM190 0H63v483h127V0z"/><glyph glyph-name="idieresis" unicode="ï" horiz-adv-x="253" d="M300 611q0-28-20-48t-48-20-48 20-20 48 20 47.5 48 19.5 48-19.5 20-47.5zm-212 0q0-28-19.5-48T21 543q-29 0-48.5 19.5T-47 611q0 28 20 47.5T21 678t47.5-19.5T88 611zM190 0H63v483h127V0z"/><glyph glyph-name="eth" unicode="ð" horiz-adv-x="574" d="M103 469l-25 60 107 47q-8 5-61 37l69 103q79-48 123-83l103 45 25-58-73-32q172-153 172-336 0-119-69-191.5T287-12q-114 0-184.5 66T32 224q0 103 61.5 169.5T246 460q102 0 160-93-36 81-157 166zm184-368q57 0 90.5 35.5T411 224t-33.5 87.5T287 347t-90-35.5-33-87.5 33-87.5 90-35.5z"/><glyph glyph-name="ntilde" unicode="ñ" d="M516 0H389v292q0 90-89 90-69 0-110-57V0H63v483h127v-63q63 75 169 75 78 0 117.5-41T516 341V0zM347 554q-29 0-50 17t-36.5 34-30.5 17q-36 0-36-62h-67q0 64 28 99t80 35q28 0 49-17t36.5-33.5T351 627q36 0 36 61h67q0-64-27.5-99T347 554z"/><glyph glyph-name="ograve" unicode="ò" horiz-adv-x="574" d="M287-12q-116 0-185.5 73.5T32 242t69.5 180T287 495t186-73 70-180-70-180.5T287-12zm0 113q57 0 90.5 40.5T411 242q0 59-33.5 99.5T287 382t-90-40.5-33-99.5q0-60 33-100.5t90-40.5zm64 455h-89L100 700h116z"/><glyph glyph-name="oacute" unicode="ó" horiz-adv-x="574" d="M475 700L313 556h-89l134 144h117zM287-12q-116 0-185.5 73.5T32 242t69.5 180T287 495t186-73 70-180-70-180.5T287-12zm0 113q57 0 90.5 40.5T411 242q0 59-33.5 99.5T287 382t-90-40.5-33-99.5q0-60 33-100.5t90-40.5z"/><glyph glyph-name="ocircumflex" unicode="ô" horiz-adv-x="574" d="M437 556h-78l-73 89-71-89h-78l92 144h114zM287-12q-116 0-185.5 73.5T32 242t69.5 180T287 495t186-73 70-180-70-180.5T287-12zm0 113q57 0 90.5 40.5T411 242q0 59-33.5 99.5T287 382t-90-40.5-33-99.5q0-60 33-100.5t90-40.5z"/><glyph glyph-name="otilde" unicode="õ" horiz-adv-x="574" d="M287-12q-116 0-185.5 73.5T32 242t69.5 180T287 495t186-73 70-180-70-180.5T287-12zm0 113q57 0 90.5 40.5T411 242q0 59-33.5 99.5T287 382t-90-40.5-33-99.5q0-60 33-100.5t90-40.5zm57 453q-29 0-50 17t-36.5 34-30.5 17q-36 0-36-62h-67q0 64 28 99t80 35q28 0 49-17t36.5-33.5T348 627q36 0 36 61h67q0-64-27.5-99T344 554z"/><glyph glyph-name="odieresis" unicode="ö" horiz-adv-x="574" d="M461 611q0-28-20-48t-48-20-48 20-20 48 20 47.5 48 19.5 48-19.5 20-47.5zm-212 0q0-28-19.5-48T182 543t-48 19.5-20 48.5q0 28 20 47.5t48 19.5 47.5-19.5T249 611zm38-623q-116 0-185.5 73.5T32 242t69.5 180T287 495t186-73 70-180-70-180.5T287-12zm0 113q57 0 90.5 40.5T411 242q0 59-33.5 99.5T287 382t-90-40.5-33-99.5q0-60 33-100.5t90-40.5z"/><glyph glyph-name="divide" unicode="÷" horiz-adv-x="511" d="M316 516q0-26-18-44t-43-18-43 18-18 44q0 25 18 42.5t43 17.5 43-17.5 18-42.5zm166-218H29v79h453v-79zM316 157q0-25-18-43t-43-18-43 18-18 43 18 43 43 18 43-18 18-43z"/><glyph glyph-name="oslash" unicode="ø" horiz-adv-x="574" d="M118 0H40l57 67q-65 71-65 175 0 107 69.5 180T287 495q81 0 141-38l22 26h80l-55-64q68-71 68-177 0-107-70-180.5T287-12q-85 0-145 40zm169 101q57 0 90.5 40.5T411 242q0 44-20 79L220 120q26-19 67-19zM164 242q0-42 17-76l169 199q-28 17-63 17-57 0-90-40.5T164 242z"/><glyph glyph-name="ugrave" unicode="ù" d="M516 0H389v61q-65-73-170-73-78 0-117 40T63 140v343h127V190q0-89 89-89 67 0 110 55v327h127V0zM353 556h-89L102 700h116z"/><glyph glyph-name="uacute" unicode="ú" d="M476 700L314 556h-89l134 144h117zM516 0H389v61q-65-73-170-73-78 0-117 40T63 140v343h127V190q0-89 89-89 67 0 110 55v327h127V0z"/><glyph glyph-name="ucircumflex" unicode="û" d="M440 556h-78l-73 89-71-89h-78l92 144h114zM516 0H389v61q-65-73-170-73-78 0-117 40T63 140v343h127V190q0-89 89-89 67 0 110 55v327h127V0z"/><glyph glyph-name="udieresis" unicode="ü" d="M463 611q0-28-20-48t-48-20-48 20-20 48 20 47.5 48 19.5 48-19.5 20-47.5zm-212 0q0-28-19.5-48T184 543t-48 19.5-20 48.5q0 28 20 47.5t48 19.5 47.5-19.5T251 611zM516 0H389v61q-65-73-170-73-78 0-117 40T63 140v343h127V190q0-89 89-89 67 0 110 55v327h127V0z"/><glyph glyph-name="yacute" unicode="ý" horiz-adv-x="513" d="M46-189L65-75q18-8 40-8 51 0 67 35l18 41L-6 483h136l126-336 126 336h137L292-79q-25-64-70-89.5T109-196q-35 0-63 7zm397 889L281 556h-89l134 144h117z"/><glyph glyph-name="thorn" unicode="þ" horiz-adv-x="583" d="M339-12q-91 0-149 74v-246H63v851h127V422q57 73 149 73 95 0 154.5-67.5T553 242 493.5 56 339-12zm-40 113q55 0 88.5 39T421 242q0 62-33.5 101T299 382q-31 0-62-16t-47-39V156q16-23 47.5-39t61.5-16z"/><glyph glyph-name="ydieresis" unicode="ÿ" horiz-adv-x="513" d="M46-189L65-75q18-8 40-8 51 0 67 35l18 41L-6 483h136l126-336 126 336h137L292-79q-25-64-70-89.5T109-196q-35 0-63 7zm384 800q0-28-20-48t-48-20-48 20-20 48 20 47.5 48 19.5 48-19.5 20-47.5zm-212 0q0-28-19.5-48T151 543q-29 0-48.5 19.5T83 611q0 28 20 47.5t48 19.5 47.5-19.5T218 611z"/><glyph glyph-name="Amacron" unicode="Ā" horiz-adv-x="684" d="M688 0H526l-41 113H199L157 0H-5l258 667h178zM446 238L342 525 238 238h208zm77 491H160v72h363v-72z"/><glyph glyph-name="amacron" unicode="ā" horiz-adv-x="543" d="M480 0H353v50q-52-62-153-62-65 0-116.5 42.5T32 148q0 78 50.5 117T200 304q103 0 153-59v65q0 37-29 59t-77 22q-79 0-141-57l-48 85q86 76 211 76 93 0 152-43t59-140V0zM251 74q71 0 102 42v60q-31 42-102 42-39 0-65-19.5T160 145q0-33 26-52t65-19zm200 488H88v72h363v-72z"/><glyph glyph-name="Abreve" unicode="Ă" horiz-adv-x="684" d="M688 0H526l-41 113H199L157 0H-5l258 667h178zM446 238L342 525 238 238h208zm71 548q-65-88-175-88-109 0-176 88l56 47q44-62 120-62 74 0 119 62z"/><glyph glyph-name="abreve" unicode="ă" horiz-adv-x="543" d="M480 0H353v50q-52-62-153-62-65 0-116.5 42.5T32 148q0 78 50.5 117T200 304q103 0 153-59v65q0 37-29 59t-77 22q-79 0-141-57l-48 85q86 76 211 76 93 0 152-43t59-140V0zM251 74q71 0 102 42v60q-31 42-102 42-39 0-65-19.5T160 145q0-33 26-52t65-19zm194 545q-65-88-175-88-109 0-176 88l56 47q44-62 120-62 74 0 119 62z"/><glyph glyph-name="Aogonek" unicode="Ą" horiz-adv-x="684" d="M698-98l51-32q-31-56-94-56-43 0-71.5 22.5T555-96q0 56 45 96h-74l-41 113H199L157 0H-5l258 667h178L688 0q-70-35-70-90 0-22 10.5-32.5T655-133q31 0 43 35zM446 238L342 525 238 238h208z"/><glyph glyph-name="aogonek" unicode="ą" horiz-adv-x="543" d="M490-98l51-32q-31-56-94-56-43 0-71.5 22.5T347-96q0 56 45 96h-39v50q-52-62-153-62-65 0-116.5 42.5T32 148q0 78 50.5 117T200 304q103 0 153-59v65q0 37-29 59t-77 22q-79 0-141-57l-48 85q86 76 211 76 93 0 152-43t59-140V0q-70-35-70-90 0-22 10.5-32.5T447-133q31 0 43 35zM251 74q71 0 102 42v60q-31 42-102 42-39 0-65-19.5T160 145q0-33 26-52t65-19z"/><glyph glyph-name="Cacute" unicode="Ć" horiz-adv-x="687" d="M576 867L414 723h-89l134 144h117zM389-12q-152 0-253.5 96.5T34 333t101.5 248.5T389 678q187 0 279-163l-122-60q-22 42-64.5 69.5T389 552q-91 0-150-62t-59-157 59-157 150-62q50 0 92.5 27t64.5 70l122-59Q573-12 389-12z"/><glyph glyph-name="cacute" unicode="ć" horiz-adv-x="499" d="M475 700L313 556h-89l134 144h117zM288-12q-112 0-184 71T32 242q0 111 72 182t184 71q128 0 191-87l-83-78q-35 52-102 52-58 0-94.5-38.5T163 242t36.5-102 94.5-39q65 0 102 52l83-77q-63-88-191-88z"/><glyph glyph-name="Ccircumflex" unicode="Ĉ" horiz-adv-x="687" d="M538 723h-78l-73 89-71-89h-78l92 144h114zM389-12q-152 0-253.5 96.5T34 333t101.5 248.5T389 678q187 0 279-163l-122-60q-22 42-64.5 69.5T389 552q-91 0-150-62t-59-157 59-157 150-62q50 0 92.5 27t64.5 70l122-59Q573-12 389-12z"/><glyph glyph-name="ccircumflex" unicode="ĉ" horiz-adv-x="499" d="M442 556h-78l-73 89-71-89h-78l92 144h114zM288-12q-112 0-184 71T32 242q0 111 72 182t184 71q128 0 191-87l-83-78q-35 52-102 52-58 0-94.5-38.5T163 242t36.5-102 94.5-39q65 0 102 52l83-77q-63-88-191-88z"/><glyph glyph-name="Cdotaccent" unicode="Ċ" horiz-adv-x="687" d="M389-12q-152 0-253.5 96.5T34 333t101.5 248.5T389 678q187 0 279-163l-122-60q-22 42-64.5 69.5T389 552q-91 0-150-62t-59-157 59-157 150-62q50 0 92.5 27t64.5 70l122-59Q573-12 389-12zm3 722q-28 0-48 20t-20 48 20 48 48 20q27 0 47-20t20-48-20-48-47-20z"/><glyph glyph-name="cdotaccent" unicode="ċ" horiz-adv-x="499" d="M288-12q-112 0-184 71T32 242q0 111 72 182t184 71q128 0 191-87l-83-78q-35 52-102 52-58 0-94.5-38.5T163 242t36.5-102 94.5-39q65 0 102 52l83-77q-63-88-191-88zm1 555q-29 0-48.5 19.5T221 611q0 28 20 48t48 20q27 0 47-20t20-48-20-48-47-20z"/><glyph glyph-name="Ccaron" unicode="Č" horiz-adv-x="687" d="M447 723H333l-95 144h78l74-90 70 90h78zM389-12q-152 0-253.5 96.5T34 333t101.5 248.5T389 678q187 0 279-163l-122-60q-22 42-64.5 69.5T389 552q-91 0-150-62t-59-157 59-157 150-62q50 0 92.5 27t64.5 70l122-59Q573-12 389-12z"/><glyph glyph-name="ccaron" unicode="č" horiz-adv-x="499" d="M351 556H237l-95 144h78l74-90 70 90h78zM288-12q-112 0-184 71T32 242q0 111 72 182t184 71q128 0 191-87l-83-78q-35 52-102 52-58 0-94.5-38.5T163 242t36.5-102 94.5-39q65 0 102 52l83-77q-63-88-191-88z"/><glyph glyph-name="Dcaron" unicode="Ď" horiz-adv-x="718" d="M421 723H307l-95 144h78l74-90 70 90h78zM329 0H66v667h263q157 0 255.5-92T683 333 585 91.5 329 0zm0 125q96 0 152.5 60T538 333q0 92-55 150.5T329 542H208V125h121z"/><glyph glyph-name="dcaron" unicode="ď" horiz-adv-x="690" d="M696 598q0-91-83-150l-44 35q21 12 40 35t23 44q-4-2-15-2-23 0-38 15.5T564 616q0 26 18 44.5t43 18.5q29 0 50-22t21-59zM523 0H395v62q-59-74-149-74-94 0-154 67.5T32 241q0 116 60 185t154 69q92 0 149-74v246h128V0zM285 101q32 0 63 15.5t47 39.5v171q-16 24-47 39.5T285 382q-54 0-88-39t-34-102q0-62 34-101t88-39z"/><glyph glyph-name="Dcroat" unicode="Đ" horiz-adv-x="742" d="M354 0H91v277H8v105h83v285h263q157 0 255.5-92T708 333 610 91.5 354 0zm0 125q96 0 152.5 60T563 333q0 92-55 150.5T354 542H233V382h149V277H233V125h121z"/><glyph glyph-name="dcroat" unicode="đ" horiz-adv-x="590" d="M523 0H395v62q-59-74-149-74-94 0-154 67.5T32 241q0 116 60 185t154 69q92 0 149-74v107H250v72h145v67h128v-67h58v-72h-58V0zM285 101q32 0 63 15.5t47 39.5v171q-16 24-47 39.5T285 382q-54 0-88-39t-34-102q0-62 34-101t88-39z"/><glyph glyph-name="Emacron" unicode="Ē" horiz-adv-x="583" d="M538 0H66v667h472V542H208V401h323V276H208V125h330V0zm-56 729H119v72h363v-72z"/><glyph glyph-name="emacron" unicode="ē" horiz-adv-x="553" d="M290-12q-112 0-185 70T32 242q0 107 70.5 180T282 495q108 0 175-73.5T524 229v-28H165q6-48 43-80t96-32q32 0 69.5 13t59.5 35l56-82q-73-67-199-67zm111 299q-3 41-32.5 74T282 394q-54 0-84-32.5T163 287h238zm62 275H100v72h363v-72z"/><glyph glyph-name="Ebreve" unicode="Ĕ" horiz-adv-x="583" d="M538 0H66v667h472V542H208V401h323V276H208V125h330V0zm-61 786q-65-88-175-88-109 0-176 88l56 47q44-62 120-62 74 0 119 62z"/><glyph glyph-name="ebreve" unicode="ĕ" horiz-adv-x="553" d="M290-12q-112 0-185 70T32 242q0 107 70.5 180T282 495q108 0 175-73.5T524 229v-28H165q6-48 43-80t96-32q32 0 69.5 13t59.5 35l56-82q-73-67-199-67zm111 299q-3 41-32.5 74T282 394q-54 0-84-32.5T163 287h238zm58 332q-65-88-175-88-109 0-176 88l56 47q44-62 120-62 74 0 119 62z"/><glyph glyph-name="Edotaccent" unicode="Ė" horiz-adv-x="583" d="M538 0H66v667h472V542H208V401h323V276H208V125h330V0zM303 710q-29 0-48.5 20T235 778t20 48 48 20q27 0 47-20t20-48-20-48-47-20z"/><glyph glyph-name="edotaccent" unicode="ė" horiz-adv-x="553" d="M290-12q-112 0-185 70T32 242q0 107 70.5 180T282 495q108 0 175-73.5T524 229v-28H165q6-48 43-80t96-32q32 0 69.5 13t59.5 35l56-82q-73-67-199-67zm111 299q-3 41-32.5 74T282 394q-54 0-84-32.5T163 287h238zM285 543q-29 0-48.5 19.5T217 611q0 28 20 48t48 20q27 0 47-20t20-48-20-48-47-20z"/><glyph glyph-name="Eogonek" unicode="Ę" horiz-adv-x="583" d="M538 0q-70-35-70-90 0-22 10.5-32.5T505-133q31 0 43 35l51-32q-31-56-94-56-43 0-71.5 22.5T405-96q0 56 45 96H66v667h472V542H208V401h323V276H208V125h330V0z"/><glyph glyph-name="eogonek" unicode="ę" horiz-adv-x="553" d="M393-98l51-32q-32-56-94-56-43 0-71.5 22.5T250-96q0 46 33 84-110 2-180.5 71.5T32 242q0 107 70.5 180T282 495q108 0 175-73.5T524 229v-28H165q6-48 43-80t96-32q32 0 69.5 13t59.5 35l56-82Q449 18 383 0q-70-35-70-90 0-22 10.5-32.5T350-133q31 0 43 35zm8 385q-3 41-32.5 74T282 394q-54 0-84-32.5T163 287h238z"/><glyph glyph-name="Ecaron" unicode="Ě" horiz-adv-x="583" d="M362 723H248l-95 144h78l74-90 70 90h78zM538 0H66v667h472V542H208V401h323V276H208V125h330V0z"/><glyph glyph-name="ecaron" unicode="ě" horiz-adv-x="553" d="M341 556H227l-95 144h78l74-90 70 90h78zM290-12q-112 0-185 70T32 242q0 107 70.5 180T282 495q108 0 175-73.5T524 229v-28H165q6-48 43-80t96-32q32 0 69.5 13t59.5 35l56-82q-73-67-199-67zm111 299q-3 41-32.5 74T282 394q-54 0-84-32.5T163 287h238z"/><glyph glyph-name="Gcircumflex" unicode="Ĝ" horiz-adv-x="720" d="M542 723h-78l-73 89-71-89h-78l92 144h114zM389-13q-150 0-252.5 96T34 333q0 155 102.5 250T389 678q182 0 276-149l-118-64q-24 38-65.5 62.5T389 552q-91 0-150-62t-59-157 59-157 150-62q42 0 81 15t61 36v80H355v124h318V113Q560-13 389-13z"/><glyph glyph-name="gcircumflex" unicode="ĝ" horiz-adv-x="585" d="M448 556h-78l-73 89-71-89h-78l92 144h114zM261-196q-125 0-208 72l57 92q54-60 151-60 54 0 93.5 28.5T394 30v49Q334 3 245 3 151 3 91.5 67.5T32 249q0 116 59.5 181T245 495q90 0 149-74v62h128V33q0-66-23.5-113T435-151t-82.5-34.5T261-196zm24 312q31 0 62 16t47 39v156q-16 24-46.5 39.5T285 382q-55 0-88.5-36T163 249t33.5-97 88.5-36z"/><glyph glyph-name="Gbreve" unicode="Ğ" horiz-adv-x="720" d="M389-13q-150 0-252.5 96T34 333q0 155 102.5 250T389 678q182 0 276-149l-118-64q-24 38-65.5 62.5T389 552q-91 0-150-62t-59-157 59-157 150-62q42 0 81 15t61 36v80H355v124h318V113Q560-13 389-13zm177 799q-65-88-175-88-109 0-176 88l56 47q44-62 120-62 74 0 119 62z"/><glyph glyph-name="gbreve" unicode="ğ" horiz-adv-x="585" d="M261-196q-125 0-208 72l57 92q54-60 151-60 54 0 93.5 28.5T394 30v49Q334 3 245 3 151 3 91.5 67.5T32 249q0 116 59.5 181T245 495q90 0 149-74v62h128V33q0-66-23.5-113T435-151t-82.5-34.5T261-196zm24 312q31 0 62 16t47 39v156q-16 24-46.5 39.5T285 382q-55 0-88.5-36T163 249t33.5-97 88.5-36zm184 503q-65-88-175-88-109 0-176 88l56 47q44-62 120-62 74 0 119 62z"/><glyph glyph-name="Gdotaccent" unicode="Ġ" horiz-adv-x="720" d="M389-13q-150 0-252.5 96T34 333q0 155 102.5 250T389 678q182 0 276-149l-118-64q-24 38-65.5 62.5T389 552q-91 0-150-62t-59-157 59-157 150-62q42 0 81 15t61 36v80H355v124h318V113Q560-13 389-13zm2 723q-29 0-48.5 20T323 778t20 48 48 20q27 0 47-20t20-48-20-48-47-20z"/><glyph glyph-name="gdotaccent" unicode="ġ" horiz-adv-x="585" d="M261-196q-125 0-208 72l57 92q54-60 151-60 54 0 93.5 28.5T394 30v49Q334 3 245 3 151 3 91.5 67.5T32 249q0 116 59.5 181T245 495q90 0 149-74v62h128V33q0-66-23.5-113T435-151t-82.5-34.5T261-196zm24 312q31 0 62 16t47 39v156q-16 24-46.5 39.5T285 382q-55 0-88.5-36T163 249t33.5-97 88.5-36zm13 427q-28 0-48 19.5T230 611q0 28 20 48t48 20q27 0 47-20t20-48-20-48-47-20z"/><glyph glyph-name="Gcommaaccent" unicode="Ģ" horiz-adv-x="720" d="M461-138q0-91-83-150l-44 35q21 12 40 35t23 44q-4-2-15-2-23 0-38 15.5T329-120q0 26 18 44.5T390-57q29 0 50-22t21-59zM389-13q-150 0-252.5 96T34 333q0 155 102.5 250T389 678q182 0 276-149l-118-64q-24 38-65.5 62.5T389 552q-91 0-150-62t-59-157 59-157 150-62q42 0 81 15t61 36v80H355v124h318V113Q560-13 389-13z"/><glyph glyph-name="gcommaaccent" unicode="ģ" horiz-adv-x="585" d="M229 611q0 101 80 156l43-35q-20-12-39.5-34T290 657q1 0 3 .5t4 .5q23 0 41.5-17t18.5-42q0-26-18.5-45T293 535q-24 0-44 18.5T229 611zm32-807q-125 0-208 72l57 92q54-60 151-60 54 0 93.5 28.5T394 30v49Q334 3 245 3 151 3 91.5 67.5T32 249q0 116 59.5 181T245 495q90 0 149-74v62h128V33q0-66-23.5-113T435-151t-82.5-34.5T261-196zm24 312q31 0 62 16t47 39v156q-16 24-46.5 39.5T285 382q-55 0-88.5-36T163 249t33.5-97 88.5-36z"/><glyph glyph-name="Hcircumflex" unicode="Ĥ" horiz-adv-x="731" d="M514 723h-78l-73 89-71-89h-78l92 144h114zM666 0H523v280H208V0H66v667h142V405h315v262h143V0z"/><glyph glyph-name="hcircumflex" unicode="ĥ" horiz-adv-x="580" d="M441 723h-78l-73 89-71-89h-78l92 144h114zM517 0H390v294q0 48-23 68t-67 20q-67 0-110-57V0H63v667h127V420q26 31 70.5 53t99.5 22q78 0 117.5-40T517 343V0z"/><glyph glyph-name="Hbar" unicode="Ħ" horiz-adv-x="748" d="M674 0H531v280H216V0H74v498H8v72h66v97h142v-97h315v97h143v-97h65v-72h-65V0zM216 405h315v93H216v-93z"/><glyph glyph-name="hbar" unicode="ħ" horiz-adv-x="584" d="M339 528H194V420q26 31 70.5 53t99.5 22q78 0 117.5-40T521 343V0H394v294q0 48-23 68t-67 20q-67 0-110-57V0H67v528H8v72h59v67h127v-67h145v-72z"/><glyph glyph-name="Itilde" unicode="Ĩ" horiz-adv-x="274" d="M208 0H66v667h142V0zm-13 721q-29 0-50 17t-36.5 34T78 789q-36 0-36-62h-67q0 64 28 99t80 35q22 0 40.5-10.5t28-23 22.5-23 25-10.5q36 0 36 61h67q0-64-27.5-99T195 721z"/><glyph glyph-name="itilde" unicode="ĩ" horiz-adv-x="253" d="M190 0H63v483h127V0zm-7 554q-29 0-50 17t-36.5 34T66 622q-36 0-36-62h-67q0 64 28 99t80 35q28 0 49-17t36.5-33.5T187 627q36 0 36 61h67q0-64-27.5-99T183 554z"/><glyph glyph-name="Imacron" unicode="Ī" horiz-adv-x="274" d="M208 0H66v667h142V0zm111 729H-44v72h363v-72z"/><glyph glyph-name="imacron" unicode="ī" horiz-adv-x="253" d="M190 0H63v483h127V0zm118 562H-55v72h363v-72z"/><glyph glyph-name="Ibreve" unicode="Ĭ" horiz-adv-x="274" d="M208 0H66v667h142V0zm107 786q-65-88-175-88-109 0-176 88l56 47q44-62 120-62 74 0 119 62z"/><glyph glyph-name="ibreve" unicode="ĭ" horiz-adv-x="253" d="M190 0H63v483h127V0zm112 619q-65-88-175-88-109 0-176 88l56 47q44-62 120-62 74 0 119 62z"/><glyph glyph-name="Iogonek" unicode="Į" horiz-adv-x="274" d="M218-98l51-32q-31-56-94-56-43 0-71.5 22.5T75-96q0 56 45 96H66v667h142V0q-70-35-70-90 0-22 10.5-32.5T175-133q31 0 43 35z"/><glyph glyph-name="iogonek" unicode="į" horiz-adv-x="253" d="M200-98l51-32q-31-56-94-56-43 0-71.5 22.5T57-96q0 56 45 96H63v483h127V0q-70-35-70-90 0-22 10.5-32.5T157-133q31 0 43 35zm-74 633q-31 0-53.5 22.5T50 611t22.5 53 53.5 22q32 0 54-22t22-53-22-53.5-54-22.5z"/><glyph glyph-name="Idotaccent" unicode="İ" horiz-adv-x="274" d="M208 0H66v667h142V0zm-69 710q-29 0-48.5 20T71 778t20 48 48 20q27 0 47-20t20-48-20-48-47-20z"/><glyph glyph-name="dotlessi" unicode="ı" horiz-adv-x="253" d="M190 0H63v483h127V0z"/><glyph glyph-name="IJ" unicode="Ĳ" horiz-adv-x="760" d="M208 0H66v667h142V0zm251-12q-113 0-179 65l62 109q50-48 106-48 47 0 75.5 29t28.5 78v446h142V219q0-114-64-172.5T459-12z"/><glyph glyph-name="ij" unicode="ĳ" horiz-adv-x="505" d="M126 535q-31 0-53.5 22.5T50 611t22.5 53 53.5 22q32 0 54-22t22-53-22-53.5-54-22.5zM190 0H63v483h127V0zm189 535q-31 0-53.5 22.5T303 611t22.5 53 53.5 22q32 0 54-22t22-53-22.5-53.5T379 535zM271-196q-44 0-68.5 7.5T150-162l35 95q30-25 65-25 30 0 48 20t18 59v496h127V-13q0-85-43.5-134T271-196z"/><glyph glyph-name="Jcircumflex" unicode="Ĵ" horiz-adv-x="486" d="M500 723h-78l-73 89-71-89h-78l92 144h114zM185-12Q72-12 6 53l62 109q50-48 106-48 47 0 75.5 29t28.5 78v446h142V219q0-114-64-172.5T185-12z"/><glyph glyph-name="jcircumflex" unicode="ĵ" horiz-adv-x="253" d="M279 556h-78l-73 89-71-89h-78l92 144h114zM18-196q-44 0-68.5 7.5T-103-162l35 98q30-24 65-24 30 0 48 19.5T63-13v496h127V-13q0-85-43.5-134T18-196z"/><glyph glyph-name="Kcommaaccent" unicode="Ķ" horiz-adv-x="648" d="M395-138q0-91-83-150l-44 35q21 12 40 35t23 44q-4-2-15-2-23 0-38 15.5T263-120q0 26 18 44.5T324-57q29 0 50-22t21-59zM637 0H462L260 267l-52-62V0H66v667h142V369l236 298h175L354 354z"/><glyph glyph-name="kcommaaccent" unicode="ķ" horiz-adv-x="535" d="M339-138q0-91-83-150l-44 35q21 12 40 35t23 44q-4-2-15-2-23 0-38 15.5T207-120q0 26 18 44.5T268-57q29 0 50-22t21-59zM535 0H376L248 186l-58-62V0H63v667h127V268l183 215h156L338 264z"/><glyph glyph-name="kgreenlandic" unicode="ĸ" horiz-adv-x="535" d="M535 0H376L248 186l-58-62V0H63v483h127V268l183 215h156L338 264z"/><glyph glyph-name="Lacute" unicode="Ĺ" horiz-adv-x="523" d="M465 867L303 723h-89l134 144h117zM490 0H66v667h142V125h282V0z"/><glyph glyph-name="lacute" unicode="ĺ" horiz-adv-x="253" d="M314 867L152 723H63l134 144h117zM190 0H63v667h127V0z"/><glyph glyph-name="Lcommaaccent" unicode="Ļ" horiz-adv-x="523" d="M331-138q0-91-83-150l-44 35q21 12 40 35t23 44q-4-2-15-2-23 0-38 15.5T199-120q0 26 18 44.5T260-57q29 0 50-22t21-59zM490 0H66v667h142V125h282V0z"/><glyph glyph-name="lcommaaccent" unicode="ļ" horiz-adv-x="253" d="M198-138q0-91-83-150l-44 35q21 12 40 35t23 44q-4-2-15-2-23 0-38 15.5T66-120q0 26 18 44.5T127-57q29 0 50-22t21-59zM190 0H63v667h127V0z"/><glyph glyph-name="Lcaron" unicode="Ľ" horiz-adv-x="523" d="M421 599q0-91-83-150l-44 35q21 12 40 35t23 44q-4-2-15-2-23 0-38 15.5T289 617q0 26 18 44.5t43 18.5q29 0 50-22t21-59zM490 0H66v667h142V125h282V0z"/><glyph glyph-name="lcaron" unicode="ľ" horiz-adv-x="354" d="M373 599q0-91-83-150l-44 35q21 12 40 35t23 44q-4-2-15-2-23 0-38 15.5T241 617q0 26 18 44.5t43 18.5q29 0 50-22t21-59zM190 0H63v667h127V0z"/><glyph glyph-name="Ldot" unicode="Ŀ" horiz-adv-x="542" d="M490 0H66v667h142V125h282V0zm-2 341q0-32-24-56t-57-24-57 24-24 56q0 33 24 57t57 24 57-24 24-57z"/><glyph glyph-name="ldot" unicode="ŀ" horiz-adv-x="384" d="M190 0H63v667h127V0zm209 244q0-32-24-56t-57-24-57 24-24 56q0 33 24 57t57 24 57-24 24-57z"/><glyph glyph-name="Lslash" unicode="Ł" horiz-adv-x="537" d="M8 192v116l72 41v318h142V431l77 44V359l-77-44V125h282V0H80v233z"/><glyph glyph-name="lslash" unicode="ł" horiz-adv-x="308" d="M8 204v93l83 47v323h127V417l81 47v-93l-81-47V0H91v251z"/><glyph glyph-name="Nacute" unicode="Ń" horiz-adv-x="729" d="M552 867L390 723h-89l134 144h117zM663 0H526L208 435V0H66v667h146l309-419v419h142V0z"/><glyph glyph-name="nacute" unicode="ń" d="M477 700L315 556h-89l134 144h117zM516 0H389v292q0 90-89 90-69 0-110-57V0H63v483h127v-63q63 75 169 75 78 0 117.5-41T516 341V0z"/><glyph glyph-name="Ncommaaccent" unicode="Ņ" horiz-adv-x="729" d="M436-138q0-91-83-150l-44 35q21 12 40 35t23 44q-4-2-15-2-23 0-38 15.5T304-120q0 26 18 44.5T365-57q29 0 50-22t21-59zM663 0H526L208 435V0H66v667h146l309-419v419h142V0z"/><glyph glyph-name="ncommaaccent" unicode="ņ" d="M358-138q0-91-83-150l-44 35q21 12 40 35t23 44q-4-2-15-2-23 0-38 15.5T226-120q0 26 18 44.5T287-57q29 0 50-22t21-59zM516 0H389v292q0 90-89 90-69 0-110-57V0H63v483h127v-63q63 75 169 75 78 0 117.5-41T516 341V0z"/><glyph glyph-name="Ncaron" unicode="Ň" horiz-adv-x="729" d="M422 723H308l-95 144h78l74-90 70 90h78zM663 0H526L208 435V0H66v667h146l309-419v419h142V0z"/><glyph glyph-name="ncaron" unicode="ň" d="M349 556H235l-95 144h78l74-90 70 90h78zM516 0H389v292q0 90-89 90-69 0-110-57V0H63v483h127v-63q63 75 169 75 78 0 117.5-41T516 341V0z"/><glyph glyph-name="napostrophe" unicode="ŉ" d="M176 683q0-91-83-150l-44 35q21 12 40 35t23 44q-4-2-15-2-23 0-38 15.5T44 701q0 26 18 44.5t43 18.5q29 0 50-22t21-59zM516 0H389v292q0 90-89 90-69 0-110-57V0H63v483h127v-63q63 75 169 75 78 0 117.5-41T516 341V0z"/><glyph glyph-name="Eng" unicode="Ŋ" horiz-adv-x="729" d="M428-196q-112 0-180 65l63 109q48-48 106-48 40 0 67 21.5T518 10L208 435V0H66v667h146l309-419v419h142V34q0-114-64-172t-171-58z"/><glyph glyph-name="eng" unicode="ŋ" d="M516 341V-13q0-85-43.5-134T344-196q-43 0-67.5 7.5T225-162l34 103q30-24 64-24 31 0 48.5 18T389-13v305q0 90-89 90-69 0-110-57V0H63v483h127v-63q63 75 169 75 78 0 117.5-41T516 341z"/><glyph glyph-name="Omacron" unicode="Ō" horiz-adv-x="765" d="M563 729H200v72h363v-72zM382-12q-151 0-249.5 97.5T34 333t98.5 247.5T382 678q152 0 250.5-97T731 333 632.5 85 382-12zm0 126q91 0 147 62t56 157-56 157-147 62-146.5-62T180 333t55.5-157T382 114z"/><glyph glyph-name="omacron" unicode="ō" horiz-adv-x="574" d="M469 562H106v72h363v-72zM287-12q-116 0-185.5 73.5T32 242t69.5 180T287 495t186-73 70-180-70-180.5T287-12zm0 113q57 0 90.5 40.5T411 242q0 59-33.5 99.5T287 382t-90-40.5-33-99.5q0-60 33-100.5t90-40.5z"/><glyph glyph-name="Obreve" unicode="Ŏ" horiz-adv-x="765" d="M382-12q-151 0-249.5 97.5T34 333t98.5 247.5T382 678q152 0 250.5-97T731 333 632.5 85 382-12zm0 126q91 0 147 62t56 157-56 157-147 62-146.5-62T180 333t55.5-157T382 114zm175 672q-65-88-175-88-109 0-176 88l56 47q44-62 120-62 74 0 119 62z"/><glyph glyph-name="obreve" unicode="ŏ" horiz-adv-x="574" d="M287-12q-116 0-185.5 73.5T32 242t69.5 180T287 495t186-73 70-180-70-180.5T287-12zm0 113q57 0 90.5 40.5T411 242q0 59-33.5 99.5T287 382t-90-40.5-33-99.5q0-60 33-100.5t90-40.5zm175 518q-65-88-175-88-109 0-176 88l56 47q44-62 120-62 74 0 119 62z"/><glyph glyph-name="Ohungarumlaut" unicode="Ő" horiz-adv-x="765" d="M449 867L334 723h-74l87 144h102zm149 0L483 723h-74l87 144h102zM382-12q-151 0-249.5 97.5T34 333t98.5 247.5T382 678q152 0 250.5-97T731 333 632.5 85 382-12zm0 126q91 0 147 62t56 157-56 157-147 62-146.5-62T180 333t55.5-157T382 114z"/><glyph glyph-name="ohungarumlaut" unicode="ő" horiz-adv-x="574" d="M353 700L238 556h-74l87 144h102zm149 0L387 556h-74l87 144h102zM287-12q-116 0-185.5 73.5T32 242t69.5 180T287 495t186-73 70-180-70-180.5T287-12zm0 113q57 0 90.5 40.5T411 242q0 59-33.5 99.5T287 382t-90-40.5-33-99.5q0-60 33-100.5t90-40.5z"/><glyph glyph-name="OE" unicode="Œ" horiz-adv-x="1084" d="M1041 0H569v78q-32-43-87.5-66.5T368-12q-146 0-240 97T34 333t94 247.5T368 677q58 0 113.5-23t87.5-66v79h472V542H712V401h322V276H712V125h329V0zM569 230v206q-24 56-71.5 85.5T388 551q-95 0-151.5-61T180 333q0-95 56.5-157T388 114q61 0 109 30.5t72 85.5z"/><glyph glyph-name="oe" unicode="œ" horiz-adv-x="931" d="M902 201H544q7-48 43.5-80T683 89q76 0 128 47l57-81q-75-67-199-67-120 0-194 107Q401-12 287-12q-116 0-185.5 73.5T32 242t69.5 180T287 495q112 0 189-108 69 108 185 108 108 0 174.5-73.5T902 229v-28zm-360 86h238q-3 41-33 74t-87 33q-54 0-84-32.5T542 287zm-131-45q0 62-34 101t-90 39q-55 0-89-39t-34-101q0-63 34-102.5t89-39.5q56 0 90 39.5T411 242z"/><glyph glyph-name="Racute" unicode="Ŕ" horiz-adv-x="643" d="M517 867L355 723h-89l134 144h117zM606 0H443L312 237H208V0H66v667h312q103 0 163.5-60T602 452q0-82-42.5-133T456 254zM357 362q44 0 72 24.5t28 65.5-28 65.5-72 24.5H208V362h149z"/><glyph glyph-name="racute" unicode="ŕ" horiz-adv-x="360" d="M391 700L229 556h-89l134 144h117zM190 0H63v483h127v-66q27 34 69 56t85 22V371q-14 3-35 3-32 0-68-16t-51-39V0z"/><glyph glyph-name="Rcommaaccent" unicode="Ŗ" horiz-adv-x="643" d="M396-138q0-91-83-150l-44 35q21 12 40 35t23 44q-4-2-15-2-23 0-38 15.5T264-120q0 26 18 44.5T325-57q29 0 50-22t21-59zM606 0H443L312 237H208V0H66v667h312q103 0 163.5-60T602 452q0-82-42.5-133T456 254zM357 362q44 0 72 24.5t28 65.5-28 65.5-72 24.5H208V362h149z"/><glyph glyph-name="rcommaaccent" unicode="ŗ" horiz-adv-x="360" d="M251-138q0-91-83-150l-44 35q21 12 40 35t23 44q-4-2-15-2-23 0-38 15.5T119-120q0 26 18 44.5T180-57q29 0 50-22t21-59zM190 0H63v483h127v-66q27 34 69 56t85 22V371q-14 3-35 3-32 0-68-16t-51-39V0z"/><glyph glyph-name="Rcaron" unicode="Ř" horiz-adv-x="643" d="M383 723H269l-95 144h78l74-90 70 90h78zM606 0H443L312 237H208V0H66v667h312q103 0 163.5-60T602 452q0-82-42.5-133T456 254zM357 362q44 0 72 24.5t28 65.5-28 65.5-72 24.5H208V362h149z"/><glyph glyph-name="rcaron" unicode="ř" horiz-adv-x="360" d="M261 556H147L52 700h78l74-90 70 90h78zM190 0H63v483h127v-66q27 34 69 56t85 22V371q-14 3-35 3-32 0-68-16t-51-39V0z"/><glyph glyph-name="Sacute" unicode="Ś" horiz-adv-x="600" d="M486 867L324 723h-89l134 144h117zM303-12Q125-12 21 94l77 108q86-90 212-90 55 0 85.5 21.5T426 186q0 27-28.5 45t-71 26-92.5 23-92.5 34-71 60T42 474q0 86 69 144.5T295 677q159 0 260-93l-79-104q-79 73-194 73-45 0-70-18t-25-49q0-24 28.5-40.5t71-24.5 92-23.5 92-35 71-61T570 202q0-96-68.5-155T303-12z"/><glyph glyph-name="sacute" unicode="ś" horiz-adv-x="477" d="M425 700L263 556h-89l134 144h117zM237-12q-63 0-120.5 20T21 63l55 89q28-26 76-46t91-20q40 0 60.5 14t20.5 38q0 18-21.5 29.5t-53 16.5-69 15-69 24-53 44.5T37 343q0 64 53 108t145 44q112 0 195-66l-51-87q-23 24-61.5 40T236 398q-34 0-55-13.5T160 350q0-16 21-26.5t53-15.5 69-15.5 69-25 53-46.5 21-78q0-68-55.5-111.5T237-12z"/><glyph glyph-name="Scircumflex" unicode="Ŝ" horiz-adv-x="600" d="M443 723h-78l-73 89-71-89h-78l92 144h114zM303-12Q125-12 21 94l77 108q86-90 212-90 55 0 85.5 21.5T426 186q0 27-28.5 45t-71 26-92.5 23-92.5 34-71 60T42 474q0 86 69 144.5T295 677q159 0 260-93l-79-104q-79 73-194 73-45 0-70-18t-25-49q0-24 28.5-40.5t71-24.5 92-23.5 92-35 71-61T570 202q0-96-68.5-155T303-12z"/><glyph glyph-name="scircumflex" unicode="ŝ" horiz-adv-x="477" d="M387 556h-78l-73 89-71-89H87l92 144h114zM237-12q-63 0-120.5 20T21 63l55 89q28-26 76-46t91-20q40 0 60.5 14t20.5 38q0 18-21.5 29.5t-53 16.5-69 15-69 24-53 44.5T37 343q0 64 53 108t145 44q112 0 195-66l-51-87q-23 24-61.5 40T236 398q-34 0-55-13.5T160 350q0-16 21-26.5t53-15.5 69-15.5 69-25 53-46.5 21-78q0-68-55.5-111.5T237-12z"/><glyph glyph-name="Scedilla" unicode="Ş" horiz-adv-x="600" d="M292-196q-70 0-110 32l25 51q38-29 81-29 22 0 37 8.5t15 24.5q0 26-29 26-18 0-32-14l-46 26 22 61Q109 4 21 94l77 108q86-90 212-90 55 0 85.5 21.5T426 186q0 27-28.5 45t-71 26-92.5 23-92.5 34-71 60T42 474q0 86 69 144.5T295 677q159 0 260-93l-79-104q-79 73-194 73-45 0-70-18t-25-49q0-24 28.5-40.5t71-24.5 92-23.5 92-35 71-61T570 202q0-93-65-151.5T316-12l-16-39q17 10 36 10 28 0 47.5-19.5T403-111q0-39-32-62t-79-23z"/><glyph glyph-name="scedilla" unicode="ş" horiz-adv-x="477" d="M236-196q-70 0-110 32l25 51q38-29 81-29 22 0 37 8.5t15 24.5q0 26-29 26-18 0-32-14l-46 26 22 61Q87 1 21 63l55 89q28-26 76-46t91-20q40 0 60.5 14t20.5 38q0 18-21.5 29.5t-53 16.5-69 15-69 24-53 44.5T37 343q0 64 53 108t145 44q112 0 195-66l-51-87q-23 24-61.5 40T236 398q-34 0-55-13.5T160 350q0-16 21-26.5t53-15.5 69-15.5 69-25 53-46.5 21-78q0-64-49.5-106.5T260-11l-16-40q17 10 36 10 28 0 47.5-19.5T347-111q0-39-32-62t-79-23z"/><glyph glyph-name="Scaron" unicode="Š" horiz-adv-x="600" d="M352 723H238l-95 144h78l74-90 70 90h78zM303-12Q125-12 21 94l77 108q86-90 212-90 55 0 85.5 21.5T426 186q0 27-28.5 45t-71 26-92.5 23-92.5 34-71 60T42 474q0 86 69 144.5T295 677q159 0 260-93l-79-104q-79 73-194 73-45 0-70-18t-25-49q0-24 28.5-40.5t71-24.5 92-23.5 92-35 71-61T570 202q0-96-68.5-155T303-12z"/><glyph glyph-name="scaron" unicode="š" horiz-adv-x="477" d="M296 556H182L87 700h78l74-90 70 90h78zM237-12q-63 0-120.5 20T21 63l55 89q28-26 76-46t91-20q40 0 60.5 14t20.5 38q0 18-21.5 29.5t-53 16.5-69 15-69 24-53 44.5T37 343q0 64 53 108t145 44q112 0 195-66l-51-87q-23 24-61.5 40T236 398q-34 0-55-13.5T160 350q0-16 21-26.5t53-15.5 69-15.5 69-25 53-46.5 21-78q0-68-55.5-111.5T237-12z"/><glyph glyph-name="Tcommaaccent" unicode="Ţ" horiz-adv-x="582" d="M362-138q0-91-83-150l-44 35q21 12 40 35t23 44q-4-2-15-2-23 0-38 15.5T230-120q0 26 18 44.5T291-57q29 0 50-22t21-59zm1 138H220v542H25v125h532V542H363V0z"/><glyph glyph-name="tcommaaccent" unicode="ţ" horiz-adv-x="338" d="M240-138q0-91-83-150l-44 35q21 12 40 35t23 44q-4-2-15-2-23 0-38 15.5T108-120q0 26 18 44.5T169-57q29 0 50-22t21-59zM225-12q-67 0-102 34t-35 98v252H8v111h80v132h128V483h98V372h-98V154q0-23 12-38t32-15q30 0 44 14l27-96q-35-31-106-31z"/><glyph glyph-name="Tcaron" unicode="Ť" horiz-adv-x="582" d="M350 723H236l-95 144h78l74-90 70 90h78zM363 0H220v542H25v125h532V542H363V0z"/><glyph glyph-name="tcaron" unicode="ť" horiz-adv-x="380" d="M402 683q0-91-83-150l-44 35q21 12 40 35t23 44q-4-2-15-2-23 0-38 15.5T270 701q0 26 18 44.5t43 18.5q29 0 50-22t21-59zM225-12q-67 0-102 34t-35 98v252H8v111h80v132h128V483h98V372h-98V154q0-23 12-38t32-15q30 0 44 14l27-96q-35-31-106-31z"/><glyph glyph-name="Tbar" unicode="Ŧ" horiz-adv-x="582" d="M363 0H220v263H87v72h133v207H25v125h532V542H363V335h134v-72H363V0z"/><glyph glyph-name="tbar" unicode="ŧ" horiz-adv-x="338" d="M225-12q-67 0-102 34t-35 98v89H8v72h80v91H8v111h80v132h128V483h98V372h-98v-91h68v-72h-68v-55q0-23 12-38t32-15q30 0 44 14l27-96q-35-31-106-31z"/><glyph glyph-name="Utilde" unicode="Ũ" horiz-adv-x="733" d="M367-12q-148 0-224.5 75.5T66 266v401h144V271q0-72 41-114.5T367 114t115.5 42.5T523 271v396h145V267q0-129-76.5-204T367-12zm58 733q-29 0-50 17t-36.5 34-30.5 17q-36 0-36-62h-67q0 64 28 99t80 35q22 0 40.5-10.5t28-23 22.5-23 25-10.5q36 0 36 61h67q0-64-27.5-99T425 721z"/><glyph glyph-name="utilde" unicode="ũ" d="M516 0H389v61q-65-73-170-73-78 0-117 40T63 140v343h127V190q0-89 89-89 67 0 110 55v327h127V0zM346 554q-29 0-50 17t-36.5 34-30.5 17q-36 0-36-62h-67q0 64 28 99t80 35q28 0 49-17t36.5-33.5T350 627q36 0 36 61h67q0-64-27.5-99T346 554z"/><glyph glyph-name="Umacron" unicode="Ū" horiz-adv-x="733" d="M367-12q-148 0-224.5 75.5T66 266v401h144V271q0-72 41-114.5T367 114t115.5 42.5T523 271v396h145V267q0-129-76.5-204T367-12zm183 741H187v72h363v-72z"/><glyph glyph-name="umacron" unicode="ū" d="M516 0H389v61q-65-73-170-73-78 0-117 40T63 140v343h127V190q0-89 89-89 67 0 110 55v327h127V0zm-46 562H107v72h363v-72z"/><glyph glyph-name="Ubreve" unicode="Ŭ" horiz-adv-x="733" d="M367-12q-148 0-224.5 75.5T66 266v401h144V271q0-72 41-114.5T367 114t115.5 42.5T523 271v396h145V267q0-129-76.5-204T367-12zm177 798q-65-88-175-88-109 0-176 88l56 47q44-62 120-62 74 0 119 62z"/><glyph glyph-name="ubreve" unicode="ŭ" d="M516 0H389v61q-65-73-170-73-78 0-117 40T63 140v343h127V190q0-89 89-89 67 0 110 55v327h127V0zm-50 619q-65-88-175-88-109 0-176 88l56 47q44-62 120-62 74 0 119 62z"/><glyph glyph-name="Uring" unicode="Ů" horiz-adv-x="733" d="M369 698q-43 0-74 31t-31 74 31 74.5 74 31.5 73.5-31.5T473 803q0-44-30.5-74.5T369 698zm0 58q19 0 32.5 14t13.5 33q0 20-13.5 33.5T369 850t-33-14-14-33 14-33 33-14zm-2-768q-148 0-224.5 75.5T66 266v401h144V271q0-72 41-114.5T367 114t115.5 42.5T523 271v396h145V267q0-129-76.5-204T367-12z"/><glyph glyph-name="uring" unicode="ů" d="M290 531q-43 0-74 31t-31 74 31 74.5 74 31.5 73.5-31.5T394 636q0-44-30.5-74.5T290 531zm0 58q19 0 32.5 14t13.5 33q0 20-13.5 33.5T290 683t-33-14-14-33 14-33 33-14zM516 0H389v61q-65-73-170-73-78 0-117 40T63 140v343h127V190q0-89 89-89 67 0 110 55v327h127V0z"/><glyph glyph-name="Uhungarumlaut" unicode="Ű" horiz-adv-x="733" d="M367-12q-148 0-224.5 75.5T66 266v401h144V271q0-72 41-114.5T367 114t115.5 42.5T523 271v396h145V267q0-129-76.5-204T367-12zm68 879L320 723h-74l87 144h102zm149 0L469 723h-74l87 144h102z"/><glyph glyph-name="uhungarumlaut" unicode="ű" d="M516 0H389v61q-65-73-170-73-78 0-117 40T63 140v343h127V190q0-89 89-89 67 0 110 55v327h127V0zM355 700L240 556h-74l87 144h102zm149 0L389 556h-74l87 144h102z"/><glyph glyph-name="Uogonek" unicode="Ų" horiz-adv-x="733" d="M367-12q-148 0-224.5 75.5T66 266v401h144V271q0-72 41-114.5T367 114t115.5 42.5T523 271v396h145V267q0-103-49.5-173T472 0q-70-35-70-90 0-22 10.5-32.5T439-133q31 0 43 35l51-32q-31-56-94-56-43 0-71.5 22.5T339-96q0 46 33 84h-5z"/><glyph glyph-name="uogonek" unicode="ų" d="M516 0q-70-35-70-90 0-22 10.5-32.5T483-133q31 0 43 35l51-32q-31-56-94-56-43 0-71.5 22.5T383-96q0 56 45 96h-39v61q-65-73-170-73-78 0-117 40T63 140v343h127V190q0-89 89-89 67 0 110 55v327h127V0z"/><glyph glyph-name="Wcircumflex" unicode="Ŵ" horiz-adv-x="918" d="M609 723h-78l-73 89-71-89h-78l92 144h114zM727 0H576L459 458 343 0H192L1 667h159l117-482 127 482h111l126-482 116 482h160z"/><glyph glyph-name="wcircumflex" unicode="ŵ" horiz-adv-x="769" d="M535 556h-78l-73 89-71-89h-78l92 144h114zM622 0H487L385 329 283 0H147L0 483h132l90-325 106 325h113l106-325 90 325h132z"/><glyph glyph-name="Ycircumflex" unicode="Ŷ" horiz-adv-x="645" d="M474 723h-78l-73 89-71-89h-78l92 144h114zM394 0H252v273L-5 667h162l166-268 164 268h162L394 273V0z"/><glyph glyph-name="ycircumflex" unicode="ŷ" horiz-adv-x="513" d="M46-189L65-75q18-8 40-8 51 0 67 35l18 41L-6 483h136l126-336 126 336h137L292-79q-25-64-70-89.5T109-196q-35 0-63 7zm360 745h-78l-73 89-71-89h-78l92 144h114z"/><glyph glyph-name="Ydieresis" unicode="Ÿ" horiz-adv-x="645" d="M497 778q0-28-20-48t-48-20-48 20-20 48 20 47.5 48 19.5 48-19.5 20-47.5zm-212 0q0-28-19.5-48T218 710t-48 20-20 48 20 47.5 48 19.5 47.5-19.5T285 778zM394 0H252v273L-5 667h162l166-268 164 268h162L394 273V0z"/><glyph glyph-name="Zacute" unicode="Ź" horiz-adv-x="592" d="M468 867L306 723h-89l134 144h117zM550 0H42v115l315 427H42v125h501V553L228 125h322V0z"/><glyph glyph-name="zacute" unicode="ź" horiz-adv-x="479" d="M426 700L264 556h-89l134 144h117zM436 0H42v95l218 277H42v111h390v-92L211 111h225V0z"/><glyph glyph-name="Zdotaccent" unicode="Ż" horiz-adv-x="592" d="M550 0H42v115l315 427H42v125h501V553L228 125h322V0zM291 710q-29 0-48.5 20T223 778t20 48 48 20q27 0 47-20t20-48-20-48-47-20z"/><glyph glyph-name="zdotaccent" unicode="ż" horiz-adv-x="479" d="M436 0H42v95l218 277H42v111h390v-92L211 111h225V0zM238 543q-28 0-48 19.5T170 611q0 28 20 48t48 20q27 0 47-20t20-48-20-48-47-20z"/><glyph glyph-name="Zcaron" unicode="Ž" horiz-adv-x="592" d="M352 723H238l-95 144h78l74-90 70 90h78zM550 0H42v115l315 427H42v125h501V553L228 125h322V0z"/><glyph glyph-name="zcaron" unicode="ž" horiz-adv-x="479" d="M294 556H180L85 700h78l74-90 70 90h78zM436 0H42v95l218 277H42v111h390v-92L211 111h225V0z"/><glyph glyph-name="longs" unicode="ſ" horiz-adv-x="327" d="M219 0H91v372H11v111h80v26q0 77 45 122.5T254 677q84 0 126-45l-48-80q-20 20-53 20-27 0-43.5-17T219 509V0z"/><glyph glyph-name="florin" unicode="ƒ" horiz-adv-x="454" d="M153-161H8l88 399H42v112h78l37 166q16 72 70.5 116.5T355 677q76 0 118-43l-54-103q-19 21-47 21t-48.5-17.5T296 485l-30-135h113V238H241z"/><glyph glyph-name="Ohorn" unicode="Ơ" horiz-adv-x="765" d="M382-12q-151 0-249.5 97.5T34 333t98.5 247.5T382 678q160 0 260-108 36 31 44 64-4-2-14-2-20 0-34 14.5T624 683q0 23 16 39.5t39 16.5q26 0 44.5-19.5T742 666q0-80-70-133 59-85 59-200 0-151-98.5-248T382-12zm0 126q91 0 147 62t56 157-56 157-147 62-146.5-62T180 333t55.5-157T382 114z"/><glyph glyph-name="ohorn" unicode="ơ" horiz-adv-x="574" d="M552 532q0-75-64-128 55-67 55-162 0-107-70-180.5T287-12 101.5 61.5 32 242t69.5 180T287 495q98 0 167-56 35 29 42 62-4-2-14-2-21 0-34.5 14T434 550t16 39.5 39 16.5q26 0 44.5-20t18.5-54zM287 101q57 0 90.5 40.5T411 242q0 59-33.5 99.5T287 382t-90-40.5-33-99.5q0-60 33-100.5t90-40.5z"/><glyph glyph-name="Uhorn" unicode="Ư" horiz-adv-x="733" d="M777 726q0-46-28.5-88.5T668 571V267q0-129-76.5-204T367-12 142.5 63.5 66 266v401h144V271q0-72 41-114.5T367 114t115.5 42.5T523 271v396h145v-43q45 31 53 72-3-3-14-3-21 0-34.5 14.5T659 745t16.5 39 38.5 16q26 0 44.5-20t18.5-54z"/><glyph glyph-name="uhorn" unicode="ư" d="M516 0H389v61q-65-73-170-73-78 0-117 40T63 140v343h127V190q0-89 89-89 67 0 110 55v327h127v-17q22 25 26 48-4-2-14-2-21 0-34.5 14T480 563t16 39.5 39 16.5q27 0 45-20t18-54q0-86-82-141V0z"/><glyph glyph-name="AEacute" unicode="Ǽ" horiz-adv-x="968" d="M715 867L553 723h-89l134 144h117zM926 0H454v113H219L153 0H-9l406 667h529V542H597V401h322V276H597V125h329V0zM454 238v287L287 238h167z"/><glyph glyph-name="aeacute" unicode="ǽ" horiz-adv-x="870" d="M608 700L446 556h-89l134 144h117zm233-499H500q7-47 41-78t89-31q74 0 119 47l57-84q-35-32-86-49.5T621-12q-125 0-186 88-31-39-84.5-63.5T234-12q-86 0-144 40.5T32 146q0 76 50 117t125 41q109 0 165-58v65q0 36-31.5 58T257 391q-83 0-151-57l-48 85q86 76 214 76 127 0 169-83 63 83 175 83 100 0 162.5-73.5T841 229v-28zm-343 86h220q-2 41-29.5 74T608 394q-50 0-78-32.5T498 287zM372 169v6q-38 43-113 43-43 0-71-17t-28-48 27.5-48T256 88q46 0 81 25.5t35 55.5z"/><glyph glyph-name="Oslashacute" unicode="Ǿ" horiz-adv-x="765" d="M570 867L408 723h-89l134 144h117zM382-12q-103 0-184 47L171 0H69l64 84q-99 97-99 249 0 150 98.5 247.5T382 678q94 0 173-41l23 30h102l-58-76q109-99 109-258 0-151-98.5-248T382-12zm0 126q91 0 147 62t56 157q0 88-48 147L278 141q46-27 104-27zM180 333q0-79 39-137l255 335q-44 21-92 21-91 0-146.5-62T180 333z"/><glyph glyph-name="oslashacute" unicode="ǿ" horiz-adv-x="574" d="M475 700L313 556h-89l134 144h117zM118 0H40l57 67q-65 71-65 175 0 107 69.5 180T287 495q81 0 141-38l22 26h80l-55-64q68-71 68-177 0-107-70-180.5T287-12q-85 0-145 40zm169 101q57 0 90.5 40.5T411 242q0 44-20 79L220 120q26-19 67-19zM164 242q0-42 17-76l169 199q-28 17-63 17-57 0-90-40.5T164 242z"/><glyph glyph-name="Scommaaccent" unicode="Ș" horiz-adv-x="600" d="M368-138q0-91-83-150l-44 35q21 12 40 35t23 44q-4-2-15-2-23 0-38 15.5T236-120q0 26 18 44.5T297-57q29 0 50-22t21-59zM303-12Q125-12 21 94l77 108q86-90 212-90 55 0 85.5 21.5T426 186q0 27-28.5 45t-71 26-92.5 23-92.5 34-71 60T42 474q0 86 69 144.5T295 677q159 0 260-93l-79-104q-79 73-194 73-45 0-70-18t-25-49q0-24 28.5-40.5t71-24.5 92-23.5 92-35 71-61T570 202q0-96-68.5-155T303-12z"/><glyph glyph-name="scommaaccent" unicode="ș" horiz-adv-x="477" d="M314-138q0-91-83-150l-44 35q21 12 40 35t23 44q-4-2-15-2-23 0-38 15.5T182-120q0 26 18 44.5T243-57q29 0 50-22t21-59zM237-12q-63 0-120.5 20T21 63l55 89q28-26 76-46t91-20q40 0 60.5 14t20.5 38q0 18-21.5 29.5t-53 16.5-69 15-69 24-53 44.5T37 343q0 64 53 108t145 44q112 0 195-66l-51-87q-23 24-61.5 40T236 398q-34 0-55-13.5T160 350q0-16 21-26.5t53-15.5 69-15.5 69-25 53-46.5 21-78q0-68-55.5-111.5T237-12z"/><glyph glyph-name="uni021A" unicode="Ț" horiz-adv-x="582" d="M362-138q0-91-83-150l-44 35q21 12 40 35t23 44q-4-2-15-2-23 0-38 15.5T230-120q0 26 18 44.5T291-57q29 0 50-22t21-59zm1 138H220v542H25v125h532V542H363V0z"/><glyph glyph-name="uni021B" unicode="ț" horiz-adv-x="338" d="M240-138q0-91-83-150l-44 35q21 12 40 35t23 44q-4-2-15-2-23 0-38 15.5T108-120q0 26 18 44.5T169-57q29 0 50-22t21-59zM225-12q-67 0-102 34t-35 98v252H8v111h80v132h128V483h98V372h-98V154q0-23 12-38t32-15q30 0 44 14l27-96q-35-31-106-31z"/><glyph glyph-name="uni0237" unicode="ȷ" horiz-adv-x="253" d="M18-196q-44 0-68.5 7.5T-103-162l35 98q30-24 65-24 30 0 48 19.5T63-13v496h127V-13q0-85-43.5-134T18-196z"/><glyph glyph-name="hsuperior" unicode="ʰ" horiz-adv-x="411" d="M361 326h-93v188q0 56-57 56-42 0-69-33V326H50v434h92V600q42 48 112 48 53 0 80-27t27-76V326z"/><glyph glyph-name="uni02BC" unicode="ʼ" horiz-adv-x="255" d="M215 575q0-55-28-103.5T112 389l-55 45q25 13 48 41t29 54q-6-4-19-4-29 0-48.5 20.5T47 597q0 33 23 56.5t55 23.5q37 0 63.5-27.5T215 575z"/><glyph glyph-name="circumflex" unicode="ˆ" horiz-adv-x="300" d="M300 556h-78l-73 89-71-89H0l92 144h114z"/><glyph glyph-name="caron" unicode="ˇ" horiz-adv-x="300" d="M209 556H95L0 700h78l74-90 70 90h78z"/><glyph glyph-name="uni02C9" unicode="ˉ" horiz-adv-x="363" d="M363 591H0v73h363v-73z"/><glyph glyph-name="uni02CB" unicode="ˋ" horiz-adv-x="251" d="M251 556h-89L0 700h116z"/><glyph glyph-name="breve" unicode="˘" horiz-adv-x="351" d="M351 619q-65-88-175-88-109 0-176 88l56 47q44-62 120-62 74 0 119 62z"/><glyph glyph-name="dotaccent" unicode="˙" horiz-adv-x="174" d="M88 543q-28 0-48 19.5T20 611q0 28 20 48t48 20q27 0 47-20t20-48-20-48-47-20z"/><glyph glyph-name="ring" unicode="˚" horiz-adv-x="209" d="M105 531q-43 0-74 31T0 636t31 74.5 74 31.5 73.5-31.5T209 636q0-44-30.5-74.5T105 531zm0 58q19 0 32.5 14t13.5 33q0 20-13.5 33.5T105 683t-33-14-14-33 14-33 33-14z"/><glyph glyph-name="ogonek" unicode="˛" horiz-adv-x="194" d="M143-98l51-32q-32-56-94-56-43 0-71.5 22.5T0-96Q0-18 88 30l45-30Q63-35 63-90q0-22 10.5-32.5T100-133q31 0 43 35z"/><glyph glyph-name="tilde" unicode="˜" horiz-adv-x="327" d="M220 554q-29 0-50 17t-36.5 34-30.5 17q-36 0-36-62H0q0 64 28 99t80 35q28 0 49-17t36.5-33.5T224 627q36 0 36 61h67q0-64-27.5-99T220 554z"/><glyph glyph-name="hungarumlaut" unicode="˝" horiz-adv-x="338" d="M189 700L74 556H0l87 144h102zm149 0L223 556h-74l87 144h102z"/><glyph glyph-name="hookabovecomb" unicode="̉" horiz-adv-x="194" d="M60 719l-45 14q18 57 80 57 34 0 56.5-18t22.5-54q0-27-15-51h-55q20 21 20 48 0 32-29 32-25 0-35-28z"/><glyph glyph-name="uni037E" unicode=";" horiz-adv-x="256" d="M128 328q-33 0-57 24.5T47 409q0 33 24 57t57 24 57-24 24-57q0-32-24-56.5T128 328zm87-277q0-55-28-103.5T112-135L57-90q25 14 48 42t29 53q-12-4-19-4-29 0-48.5 20.5T47 74q0 33 23 56t55 23q37 0 63.5-27.5T215 51z"/><glyph glyph-name="tonos" unicode="΄" horiz-adv-x="225" d="M165 553h-56l21 212h105z"/><glyph glyph-name="dieresistonos" unicode="΅" d="M300 553h-57l21 212h106zm207 58q0-29-19.5-48.5T439 543q-28 0-48 20t-20 48 20 47.5 48 19.5 48-19.5 20-47.5zm-301 0q0-29-19.5-48.5T139 543q-29 0-48.5 19.5T71 611q0 28 20 47.5t48 19.5 47.5-19.5T206 611z"/><glyph glyph-name="Alphatonos" unicode="Ά" horiz-adv-x="684" d="M165 553h-56l21 212h105zM688 0H526l-41 113H199L157 0H-5l258 667h178zM446 238L342 525 238 238h208z"/><glyph glyph-name="Epsilontonos" unicode="Έ" horiz-adv-x="619" d="M38 553h-56L3 765h105zM574 0H102v667h472V542H244V401h323V276H244V125h330V0z"/><glyph glyph-name="Etatonos" unicode="Ή" horiz-adv-x="768" d="M38 553h-56L3 765h105zM702 0H559v280H244V0H102v667h142V405h315v262h143V0z"/><glyph glyph-name="Iotatonos" unicode="Ί" horiz-adv-x="311" d="M38 553h-56L3 765h105zM244 0H102v667h142V0z"/><glyph glyph-name="Omicrontonos" unicode="Ό" horiz-adv-x="765" d="M55 553H-1l21 212h105zM382-12q-151 0-249.5 97.5T34 333t98.5 247.5T382 678q152 0 250.5-97T731 333 632.5 85 382-12zm0 126q91 0 147 62t56 157-56 157-147 62-146.5-62T180 333t55.5-157T382 114z"/><glyph glyph-name="Upsilontonos" unicode="Ύ" horiz-adv-x="730" d="M38 553h-56L3 765h105zM478 0H336v273L79 667h162l166-268 164 268h162L478 273V0z"/><glyph glyph-name="Omegatonos" unicode="Ώ" horiz-adv-x="774" d="M55 553H-1l21 212h105zm6-428h119Q43 218 43 366q0 141 98 226.5T391 678q153 0 251-85.5T740 366q0-149-136-241h119V0H453v125q63 17 102 74.5T594 334q0 88-52 152.5T391 551t-150.5-64.5T189 334q0-77 39-134.5T330 125V0H61v125z"/><glyph glyph-name="iotadieresistonos" unicode="ΐ" horiz-adv-x="267" d="M144 553H87l21 212h106zm207 58q0-29-19.5-48.5T283 543q-28 0-48 20t-20 48 20 47.5 48 19.5 48-19.5 20-47.5zm-301 0q0-29-19.5-48.5T-17 543q-29 0-48.5 19.5T-85 611q0 28 20 47.5t48 19.5 47.5-19.5T50 611zM199-12q-67 0-101.5 33.5T63 120v363h127V145q0-21 11-32.5t29-11.5q9 0 19 2l9-108q-26-7-59-7z"/><glyph glyph-name="Alpha" unicode="Α" horiz-adv-x="684" d="M688 0H526l-41 113H199L157 0H-5l258 667h178zM446 238L342 525 238 238h208z"/><glyph glyph-name="Beta" unicode="Β" horiz-adv-x="663" d="M428 0H66v667h351q91 0 141.5-49.5T609 497q0-61-33-102t-82-51q54-8 91-55t37-109q0-78-51-129T428 0zm-42 400q36 0 57 20t21 52-21.5 52.5T386 545H208V400h178zm5-277q40 0 63 20.5t23 56.5q0 33-23 55.5T391 278H208V123h183z"/><glyph glyph-name="Gamma" unicode="Γ" horiz-adv-x="571" d="M208 0H66v667h472V542H208V0z"/><glyph glyph-name="uni0394" unicode="Δ" horiz-adv-x="684" d="M688 0H-5l258 667h178zM488 125L342 525 196 125h292z"/><glyph glyph-name="Epsilon" unicode="Ε" horiz-adv-x="583" d="M538 0H66v667h472V542H208V401h323V276H208V125h330V0z"/><glyph glyph-name="Zeta" unicode="Ζ" horiz-adv-x="592" d="M550 0H42v115l315 427H42v125h501V553L228 125h322V0z"/><glyph glyph-name="Eta" unicode="Η" horiz-adv-x="731" d="M666 0H523v280H208V0H66v667h142V405h315v262h143V0z"/><glyph glyph-name="Theta" unicode="Θ" horiz-adv-x="765" d="M536 276H229v125h307V276zM382-12q-151 0-249.5 97.5T34 333t98.5 247.5T382 678q152 0 250.5-97T731 333 632.5 85 382-12zm0 126q91 0 147 62t56 157-56 157-147 62-146.5-62T180 333t55.5-157T382 114z"/><glyph glyph-name="Iota" unicode="Ι" horiz-adv-x="274" d="M208 0H66v667h142V0z"/><glyph glyph-name="Kappa" unicode="Κ" horiz-adv-x="636" d="M637 0H462L260 267l-52-62V0H66v667h142V369l236 298h175L354 354z"/><glyph glyph-name="Lambda" unicode="Λ" horiz-adv-x="684" d="M688 0H526L342 525 157 0H-5l258 667h178z"/><glyph glyph-name="Mu" unicode="Μ" horiz-adv-x="855" d="M789 0H646v467L458 0h-62L208 467V0H66v667h199l162-403 162 403h200V0z"/><glyph glyph-name="Nu" unicode="Ν" horiz-adv-x="729" d="M663 0H526L208 435V0H66v667h146l309-419v419h142V0z"/><glyph glyph-name="Xi" unicode="Ξ" horiz-adv-x="624" d="M578 542H45v125h533V542zm0-542H45v125h533V0zm-6 276H52v125h520V276z"/><glyph glyph-name="Omicron" unicode="Ο" horiz-adv-x="765" d="M382-12q-151 0-249.5 97.5T34 333t98.5 247.5T382 678q152 0 250.5-97T731 333 632.5 85 382-12zm0 126q91 0 147 62t56 157-56 157-147 62-146.5-62T180 333t55.5-157T382 114z"/><glyph glyph-name="Pi" unicode="Π" horiz-adv-x="731" d="M666 0H523v542H208V0H66v667h600V0z"/><glyph glyph-name="Rho" unicode="Ρ" horiz-adv-x="624" d="M208 0H66v667h312q105 0 164.5-61.5T602 452q0-91-60-153t-164-62H208V0zm151 362q43 0 70.5 24.5T457 452t-27.5 65.5T359 542H208V362h151z"/><glyph glyph-name="Sigma" unicode="Σ" horiz-adv-x="586" d="M224 542l199-201-206-216h323V0H45v125l203 215L46 542v125h494V542H224z"/><glyph glyph-name="Tau" unicode="Τ" horiz-adv-x="582" d="M363 0H220v542H25v125h532V542H363V0z"/><glyph glyph-name="Upsilon" unicode="Υ" horiz-adv-x="645" d="M394 0H252v273L-5 667h162l166-268 164 268h162L394 273V0z"/><glyph glyph-name="Phi" unicode="Φ" horiz-adv-x="855" d="M498 0H356v67q-153 13-237.5 82T34 333q0 114 84.5 183T356 599v68h142v-68q153-14 237.5-82.5T820 333t-84.5-184T498 67V0zm177 333q0 57-45.5 93T498 472V194q86 10 131.5 46t45.5 93zm-495 0q0-57 45-93t131-46v278q-86-10-131-46t-45-93z"/><glyph glyph-name="Chi" unicode="Χ" horiz-adv-x="668" d="M671 0H501L334 244 166 0H-3l242 342L12 667h169l153-228 151 228h171L429 343z"/><glyph glyph-name="Psi" unicode="Ψ" horiz-adv-x="866" d="M505 0H362v127q-146 15-221 88T66 402v265h144V407q0-62 38.5-101T362 255v412h143V255q150 26 150 152v260h145V403q0-115-74.5-188T505 127V0z"/><glyph glyph-name="uni03A9" unicode="Ω" horiz-adv-x="765" d="M52 125h119Q34 218 34 366q0 141 98 226.5T382 678q153 0 251-85.5T731 366q0-149-136-241h119V0H444v125q63 17 102 74.5T585 334q0 88-52 152.5T382 551t-150.5-64.5T180 334q0-77 39-134.5T321 125V0H52v125z"/><glyph glyph-name="Iotadieresis" unicode="Ϊ" horiz-adv-x="274" d="M208 0H66v667h142V0zm103 795q0-28-20-48t-48-20-48 20-20 48 20 47.5 48 19.5 48-19.5 20-47.5zm-212 0q0-28-19.5-48T32 727t-48 19.5-20 48.5q0 28 20 47.5T32 862t47.5-19.5T99 795z"/><glyph glyph-name="Upsilondieresis" unicode="Ϋ" horiz-adv-x="645" d="M394 0H252v273L-5 667h162l166-268 164 268h162L394 273V0zm101 795q0-28-20-48t-48-20-48 20-20 48 20 47.5 48 19.5 48-19.5 20-47.5zm-212 0q0-28-19.5-48T216 727t-48 19.5-20 48.5q0 28 20 47.5t48 19.5 47.5-19.5T283 795z"/><glyph glyph-name="alphatonos" unicode="ά" horiz-adv-x="600" d="M317 553h-56l21 212h105zm265-450l8-108q-26-7-58-7-104 0-129 86-24-39-66-62.5T246-12q-94 0-154 67.5T32 241q0 116 60 185t154 69q91 0 148-74v62h129V145q0-21 11-32.5t29-11.5q9 0 19 2zm-297-2q32 0 63 15.5t47 39.5v170q-16 24-47 39.5T285 381q-54 0-88-38.5T163 241q0-62 34-101t88-39z"/><glyph glyph-name="epsilontonos" unicode="έ" horiz-adv-x="504" d="M269 553h-56l21 212h105zm-4-565Q158-12 94.5 28T32 133q0 50 42.5 81t93.5 34q-52 8-89.5 39T41 362q1 62 63 97.5T277 494q127 0 205-80l-61-75q-56 55-150 55-43 0-70-13.5T174 345q0-52 99-52h99v-98h-99q-108 0-108-54 0-24 26-38t74-14q102 0 166 55l59-79q-80-77-225-77z"/><glyph glyph-name="etatonos" unicode="ή" d="M307 553h-56l21 212h105zm209-737H389v476q0 90-89 90-69 0-110-57V0H63v483h127v-63q63 75 169 75 78 0 117.5-41T516 341v-525z"/><glyph glyph-name="iotatonos" unicode="ί" horiz-adv-x="267" d="M151 553H95l21 212h105zm48-565q-67 0-101.5 33.5T63 120v363h127V145q0-21 11-32.5t29-11.5q9 0 19 2l9-108q-26-7-59-7z"/><glyph glyph-name="upsilondieresistonos" unicode="ΰ" horiz-adv-x="577" d="M299 553h-57l21 212h106zm207 58q0-29-20-48.5T438 543t-48 20-20 48 20 47.5 48 19.5 48-19.5 20-47.5zm-301 0q0-29-19.5-48.5T138 543t-48 19.5T70 611q0 28 20 47.5t48 19.5 47.5-19.5T205 611zm84-623q-111 0-168.5 62T63 218v265h127V220q0-54 26-86.5t73-32.5q59 0 91.5 43.5T413 259q0 110-59 185l117 51q74-104 74-236 0-119-69-195T289-12z"/><glyph glyph-name="alpha" unicode="α" horiz-adv-x="600" d="M582 103l8-108q-26-7-58-7-104 0-129 86-24-39-66-62.5T246-12q-94 0-154 67.5T32 241q0 116 60 185t154 69q91 0 148-74v62h129V145q0-21 11-32.5t29-11.5q9 0 19 2zm-297-2q32 0 63 15.5t47 39.5v170q-16 24-47 39.5T285 381q-54 0-88-38.5T163 241q0-62 34-101t88-39z"/><glyph glyph-name="beta" unicode="β" horiz-adv-x="586" d="M190 448V155q44-54 120-54 53 0 82.5 25t29.5 67-31 65.5-84 23.5h-40v113h36q48 0 75.5 22t27.5 62q0 39-27 61.5T310 563q-53 0-86.5-30.5T190 448zm0-386v-246H63v632q0 59 22 105t58.5 72 79 39 87.5 13q107 0 167.5-48.5T538 496q0-60-41-101t-99-51q59-6 107-51t48-124q0-76-59-128.5T353-12q-104 0-163 74z"/><glyph glyph-name="gamma" unicode="γ" horiz-adv-x="513" d="M320-184H192v107q0 158-58.5 309.5T-16 483h144q53-61 95-159t51-177q38 58 65 154.5T366 483h128q0-117-49-249.5T320 5v-189z"/><glyph glyph-name="delta" unicode="δ" horiz-adv-x="574" d="M294-12q-120 0-191 71.5T32 232q0 66 31.5 115.5T146 424q-57 37-57 103 0 64 53 108t145 44q111 0 193-66l-50-90q-55 55-143 55-34 0-55-13t-21-33q0-17 24.5-29.5T297 482t80-26 80-42.5 61.5-73T543 227q0-98-67.5-168.5T294-12zm125 239q0 34-12 59t-36.5 42-46.5 27-58 21q-50-20-76-58.5T164 232q0-53 34.5-92t92.5-39 93 38.5 35 87.5z"/><glyph glyph-name="epsilon" unicode="ε" horiz-adv-x="504" d="M265-12Q158-12 94.5 28T32 133q0 50 42.5 81t93.5 34q-52 8-89.5 39T41 362q1 62 63 97.5T277 494q127 0 205-80l-61-75q-56 55-150 55-43 0-70-13.5T174 345q0-52 99-52h99v-98h-99q-108 0-108-54 0-24 26-38t74-14q102 0 166 55l59-79q-80-77-225-77z"/><glyph glyph-name="zeta" unicode="ζ" horiz-adv-x="486" d="M326-34q0 22-33 22-119 0-190 60T32 211q0 104 66.5 193.5T282 556H48v111h399v-92q-123-68-203.5-161.5T163 221q0-60 38.5-90T309 101q79 0 113.5-25.5T457-4q0-59-53-153H269q20 27 38.5 64.5T326-34z"/><glyph glyph-name="eta" unicode="η" d="M516-184H389v476q0 90-89 90-69 0-110-57V0H63v483h127v-63q63 75 169 75 78 0 117.5-41T516 341v-525z"/><glyph glyph-name="theta" unicode="θ" horiz-adv-x="574" d="M287-12Q167-12 99.5 87.5T32 334q0 148 67.5 246.5T287 679q81 0 140-47.5T514.5 507 543 334q0-147-68-246.5T287-12zm0 113q108 0 122 178H166q13-178 121-178zm0 465q-108 0-121-175h243q-14 175-122 175z"/><glyph glyph-name="iota" unicode="ι" horiz-adv-x="267" d="M199-12q-67 0-101.5 33.5T63 120v363h127V145q0-21 11-32.5t29-11.5q9 0 19 2l9-108q-26-7-59-7z"/><glyph glyph-name="kappa" unicode="κ" horiz-adv-x="535" d="M535 0H376L248 186l-58-62V0H63v483h127V268l183 215h156L338 264z"/><glyph glyph-name="lambda" unicode="λ" horiz-adv-x="513" d="M65 557L46 671q26 8 63 8 68-2 113-27.5t70-89.5L519 0H382L256 336 130 0H-6l196 489-18 41q-16 36-67 36-23 0-40-9z"/><glyph glyph-name="uni03BC" unicode="μ" horiz-adv-x="593" d="M190 16v-200H63v667h127V190q0-90 90-90 65 0 109 56v327h127V145q0-21 11-32.5t29-11.5q9 0 19 2l9-108q-26-7-59-7-104 0-130 86-22-38-57.5-62T260-12q-49 0-70 28z"/><glyph glyph-name="nu" unicode="ν" horiz-adv-x="513" d="M316 0H188L-6 483h136l132-356q48 73 76 170t28 186h128q0-119-50.5-253T316 0z"/><glyph glyph-name="xi" unicode="ξ" horiz-adv-x="486" d="M293-12Q167-12 99.5 36T32 167q0 61 35 98.5t86 52.5q-44 8-77 37t-33 77q0 39 27 73.5t69 50.5H53v111h390V556H253q-35-9-56.5-32.5T175 470q0-37 32-57t85-20h146V284H292q-60 0-94-23t-34-69q0-44 37.5-67.5T309 101q79 0 113.5-25.5T457-4q0-59-53-153H269q20 27 38.5 64.5T326-34q0 22-33 22z"/><glyph glyph-name="omicron" unicode="ο" horiz-adv-x="574" d="M287-12q-116 0-185.5 73.5T32 242t69.5 180T287 495t186-73 70-180-70-180.5T287-12zm0 113q57 0 90.5 40.5T411 242q0 59-33.5 99.5T287 382t-90-40.5-33-99.5q0-60 33-100.5t90-40.5z"/><glyph glyph-name="pi" unicode="π" horiz-adv-x="631" d="M543 0H415v372H216V0H88v372H8v111h615V372h-80V0z"/><glyph glyph-name="rho" unicode="ρ" horiz-adv-x="583" d="M339-12q-91 0-149 74v-246H63v426q0 107 66.5 180T307 495q112 0 179-73t67-180q0-118-59.5-186T339-12zm-40 113q55 0 88.5 39T421 242q0 59-31 99.5T306 382q-54 0-85-40.5T190 242v-86q16-23 47.5-39t61.5-16z"/><glyph glyph-name="sigma1" unicode="ς" horiz-adv-x="492" d="M302-12q-120 0-195 69T32 242q0 111 72 182t184 71q128 0 191-87l-83-78q-35 52-102 52-58 0-94.5-38.5T163 242q0-68 40-104.5T308 101q156 0 156-105 0-59-53-153H278q57 81 57 123 0 22-33 22z"/><glyph glyph-name="sigma" unicode="σ" horiz-adv-x="574" d="M532 215q0-97-65-162T287-12q-116 0-185.5 73.5T32 242q0 104 70.5 172.5T294 483h260V370h-90q68-58 68-155zm-121 24q0 88-70 131h-47q-61 0-95.5-38T164 242q0-60 33-100.5t90-40.5 90.5 40.5T411 239z"/><glyph glyph-name="tau" unicode="τ" horiz-adv-x="482" d="M314-12q-67 0-102 34t-35 98v252H21v111h440V372H304V154q0-23 12-38t33-15q31 0 43 14l27-96q-35-31-105-31z"/><glyph glyph-name="upsilon" unicode="υ" horiz-adv-x="577" d="M289-12q-111 0-168.5 62T63 218v265h127V220q0-54 26-86.5t73-32.5q59 0 91.5 43.5T413 259q0 110-59 185l117 51q74-104 74-236 0-119-69-195T289-12z"/><glyph glyph-name="phi" unicode="φ" horiz-adv-x="795" d="M763 242q0-109-76.5-174.5T461-9v-175H334V-9Q184 2 108 70T32 256q0 160 186 239l53-99q-52-22-79.5-59T164 256q0-134 170-152v391h63q181 0 273.5-67T763 242zm-132 0q0 60-45.5 96T461 379V104q170 18 170 138z"/><glyph glyph-name="chi" unicode="χ" horiz-adv-x="504" d="M504-184H363L252 40 139-184H0l171 343L10 483h140l102-205 100 205h141L331 159z"/><glyph glyph-name="psi" unicode="ψ" horiz-adv-x="795" d="M461-184H334V-9Q199 4 131 68.5T63 240v243h127V240q0-56 37.5-90T334 105v562h127V105q68 11 106 45t38 90v243h127V240q0-106-68.5-171T461-9v-175z"/><glyph glyph-name="omega" unicode="ω" horiz-adv-x="852" d="M820 242q0-107-58-180.5T607-12q-128 0-181 137Q373-12 245-12q-97 0-155 73.5T32 242q0 161 104 253l96-72q-68-71-68-181 0-60 26-100.5t72-40.5q47 0 73.5 40.5T362 242v122h128V242q0-60 26.5-100.5T589 101t72.5 40.5T688 242q0 109-69 181l97 72q104-92 104-253z"/><glyph glyph-name="iotadieresis" unicode="ϊ" horiz-adv-x="267" d="M307 611q0-28-20-48t-48-20-48 20-20 48 20 47.5 48 19.5 48-19.5 20-47.5zm-212 0q0-28-19.5-48T28 543t-48 19.5-20 48.5q0 28 20 47.5T28 678t47.5-19.5T95 611zM199-12q-67 0-101.5 33.5T63 120v363h127V145q0-21 11-32.5t29-11.5q9 0 19 2l9-108q-26-7-59-7z"/><glyph glyph-name="upsilondieresis" unicode="ϋ" horiz-adv-x="577" d="M461 611q0-28-20-48t-48-20-48 20-20 48 20 47.5 48 19.5 48-19.5 20-47.5zm-212 0q0-28-19.5-48T182 543t-48 19.5-20 48.5q0 28 20 47.5t48 19.5 47.5-19.5T249 611zm40-623q-111 0-168.5 62T63 218v265h127V220q0-54 26-86.5t73-32.5q59 0 91.5 43.5T413 259q0 110-59 185l117 51q74-104 74-236 0-119-69-195T289-12z"/><glyph glyph-name="omicrontonos" unicode="ό" horiz-adv-x="574" d="M304 553h-56l21 212h105zM287-12q-116 0-185.5 73.5T32 242t69.5 180T287 495t186-73 70-180-70-180.5T287-12zm0 113q57 0 90.5 40.5T411 242q0 59-33.5 99.5T287 382t-90-40.5-33-99.5q0-60 33-100.5t90-40.5z"/><glyph glyph-name="upsilontonos" unicode="ύ" horiz-adv-x="577" d="M306 553h-56l21 212h105zM289-12q-111 0-168.5 62T63 218v265h127V220q0-54 26-86.5t73-32.5q59 0 91.5 43.5T413 259q0 110-59 185l117 51q74-104 74-236 0-119-69-195T289-12z"/><glyph glyph-name="omegatonos" unicode="ώ" horiz-adv-x="852" d="M443 553h-56l21 212h105zm377-311q0-107-58-180.5T607-12q-128 0-181 137Q373-12 245-12q-97 0-155 73.5T32 242q0 161 104 253l96-72q-68-71-68-181 0-60 26-100.5t72-40.5q47 0 73.5 40.5T362 242v122h128V242q0-60 26.5-100.5T589 101t72.5 40.5T688 242q0 109-69 181l97 72q104-92 104-253z"/><glyph glyph-name="afii10023" unicode="Ё" horiz-adv-x="583" d="M475 778q0-28-20-48t-48-20-48 20-20 48 20 47.5 48 19.5 48-19.5 20-47.5zm-212 0q0-28-19.5-48T196 710t-48 20-20 48 20 47.5 48 19.5 47.5-19.5T263 778zM538 0H66v667h472V542H208V401h323V276H208V125h330V0z"/><glyph glyph-name="afii10051" unicode="Ђ" horiz-adv-x="776" d="M514-12v123q45 0 71 23t26 62v8q0 45-32 69.5T489 298q-68 0-126-22V0H220v542H25v125h532V542H363V401q71 22 143 22 122 0 185.5-61.5T755 204v-8q0-98-67.5-153T514-12z"/><glyph glyph-name="afii10052" unicode="Ѓ" horiz-adv-x="571" d="M476 867L314 723h-89l134 144h117zM208 0H66v667h472V542H208V0z"/><glyph glyph-name="afii10053" unicode="Є" horiz-adv-x="687" d="M389-12q-152 0-253.5 96.5T34 333t101.5 248.5T389 678q187 0 279-163l-122-60q-22 42-65 69.5T387 552q-74 0-127-41t-72-110h317V276H186q16-73 69.5-117.5T387 114q52 0 94.5 27t64.5 70l122-59Q573-12 389-12z"/><glyph glyph-name="afii10054" unicode="Ѕ" horiz-adv-x="600" d="M303-12Q125-12 21 94l77 108q86-90 212-90 55 0 85.5 21.5T426 186q0 27-28.5 45t-71 26-92.5 23-92.5 34-71 60T42 474q0 86 69 144.5T295 677q159 0 260-93l-79-104q-79 73-194 73-45 0-70-18t-25-49q0-24 28.5-40.5t71-24.5 92-23.5 92-35 71-61T570 202q0-96-68.5-155T303-12z"/><glyph glyph-name="afii10055" unicode="І" horiz-adv-x="274" d="M208 0H66v667h142V0z"/><glyph glyph-name="afii10056" unicode="Ї" horiz-adv-x="274" d="M208 0H66v667h142V0zm103 778q0-28-20-48t-48-20-48 20-20 48 20 47.5 48 19.5 48-19.5 20-47.5zm-212 0q0-28-19.5-48T32 710t-48 20-20 48 20 47.5T32 845t47.5-19.5T99 778z"/><glyph glyph-name="afii10057" unicode="Ј" horiz-adv-x="486" d="M185-12Q72-12 6 53l62 109q50-48 106-48 47 0 75.5 29t28.5 78v446h142V219q0-114-64-172.5T185-12z"/><glyph glyph-name="afii10058" unicode="Љ" horiz-adv-x="1081" d="M26-12v126q54 0 83 43.5T153 326l39 341h474V430h169q104 0 164.5-62t60.5-153q0-92-60-153.5T835 0H523v542H320l-26-226q-12-101-35.5-167.5T198.5 48 122 1 26-12zm790 317H666V125h150q43 0 70.5 24.5T914 215t-27.5 65.5T816 305z"/><glyph glyph-name="afii10059" unicode="Њ" horiz-adv-x="1081" d="M66 0v667h142V405h315v262h143V405h182q98 0 155-58t57-144q0-87-56.5-145T848 0H523v280H208V0H66zm600 125h164q37 0 60.5 21.5T914 203t-23.5 56-60.5 21H666V125z"/><glyph glyph-name="afii10060" unicode="Ћ" horiz-adv-x="807" d="M611 0v177q0 121-122 121-68 0-126-22V0H220v542H25v125h532V542H363V401q71 22 143 22 124 0 186.5-66T755 177V0H611z"/><glyph glyph-name="afii10061" unicode="Ќ" horiz-adv-x="636" d="M513 867L351 723h-89l134 144h117zM637 0H462L260 267l-52-62V0H66v667h142V369l236 298h175L354 354z"/><glyph glyph-name="afii10062" unicode="Ў" horiz-adv-x="645" d="M156-12q-45 0-86.5 13.5T5 36l54 114q44-36 86-36 36 0 56.5 15.5T242 183L-4 667h161l165-354 166 354h161L374 128q-34-68-84.5-104T156-12zm342 798q-65-88-175-88-109 0-176 88l56 47q44-62 120-62 74 0 119 62z"/><glyph glyph-name="afii10145" unicode="Џ" horiz-adv-x="731" d="M66 0v667h142V125h315v542h143V0H437v-127H295V0H66z"/><glyph glyph-name="afii10017" unicode="А" horiz-adv-x="684" d="M688 0H526l-41 113H199L157 0H-5l258 667h178zM446 238L342 525 238 238h208z"/><glyph glyph-name="afii10018" unicode="Б" horiz-adv-x="624" d="M66 667h487V542H208V424h173q103 0 162-61t59-151-59-151T381 0H66v667zm296-368H208V125h154q42 0 68.5 24t26.5 63q0 40-26.5 63.5T362 299z"/><glyph glyph-name="afii10019" unicode="В" horiz-adv-x="663" d="M428 0H66v667h351q91 0 141.5-49.5T609 497q0-61-33-102t-82-51q54-8 91-55t37-109q0-78-51-129T428 0zm-42 400q36 0 57 20t21 52-21.5 52.5T386 545H208V400h178zm5-277q40 0 63 20.5t23 56.5q0 33-23 55.5T391 278H208V123h183z"/><glyph glyph-name="afii10020" unicode="Г" horiz-adv-x="571" d="M208 0H66v667h472V542H208V0z"/><glyph glyph-name="afii10021" unicode="Д" horiz-adv-x="743" d="M26-123v237q38 5 59.5 20t39.5 61 28 131l39 341h474V125h60v-248H584V0H168v-123H26zm268 439q-14-129-81-191h310v417H320z"/><glyph glyph-name="afii10022" unicode="Е" horiz-adv-x="583" d="M538 0H66v667h472V542H208V401h323V276H208V125h330V0z"/><glyph glyph-name="afii10024" unicode="Ж" horiz-adv-x="951" d="M174 0H0l282 354L17 667h175l212-268v268h143V399l211 268h176L669 354 951 0H777L575 267l-28-34V0H404v233l-28 34z"/><glyph glyph-name="afii10025" unicode="З" horiz-adv-x="610" d="M295-12q-89 0-163 30T20 95l74 95q33-35 88.5-55.5T289 114q65 0 102 23.5t37 61.5q0 77-147 77H146v125h135q62 0 99 18t37 53q0 38-38 58.5T281 551q-109 0-181-69l-71 89q42 48 111.5 77T295 677q118 0 191-49t73-132q0-60-43-100.5T414 344q58-6 106.5-48.5T569 184q0-86-77-141T295-12z"/><glyph glyph-name="afii10026" unicode="И" horiz-adv-x="729" d="M203 0H66v667h142V236l309 431h146V0H521v447z"/><glyph glyph-name="afii10027" unicode="Й" horiz-adv-x="729" d="M203 0H66v667h142V236l309 431h146V0H521v447zm337 786q-65-88-175-88-109 0-176 88l56 47q44-62 120-62 74 0 119 62z"/><glyph glyph-name="afii10028" unicode="К" horiz-adv-x="636" d="M637 0H462L260 267l-52-62V0H66v667h142V369l236 298h175L354 354z"/><glyph glyph-name="afii10029" unicode="Л" horiz-adv-x="731" d="M26-12v126q54 0 83 43.5T153 326l39 341h474V0H523v542H320l-26-226q-12-101-35.5-167.5T198.5 48 122 1 26-12z"/><glyph glyph-name="afii10030" unicode="М" horiz-adv-x="855" d="M789 0H646v467L458 0h-62L208 467V0H66v667h199l162-403 162 403h200V0z"/><glyph glyph-name="afii10031" unicode="Н" horiz-adv-x="731" d="M666 0H523v280H208V0H66v667h142V405h315v262h143V0z"/><glyph glyph-name="afii10032" unicode="О" horiz-adv-x="765" d="M382-12q-151 0-249.5 97.5T34 333t98.5 247.5T382 678q152 0 250.5-97T731 333 632.5 85 382-12zm0 126q91 0 147 62t56 157-56 157-147 62-146.5-62T180 333t55.5-157T382 114z"/><glyph glyph-name="afii10033" unicode="П" horiz-adv-x="731" d="M666 0H523v542H208V0H66v667h600V0z"/><glyph glyph-name="afii10034" unicode="Р" horiz-adv-x="624" d="M208 0H66v667h312q105 0 164.5-61.5T602 452q0-91-60-153t-164-62H208V0zm151 362q43 0 70.5 24.5T457 452t-27.5 65.5T359 542H208V362h151z"/><glyph glyph-name="afii10035" unicode="С" horiz-adv-x="687" d="M389-12q-152 0-253.5 96.5T34 333t101.5 248.5T389 678q187 0 279-163l-122-60q-22 42-64.5 69.5T389 552q-91 0-150-62t-59-157 59-157 150-62q50 0 92.5 27t64.5 70l122-59Q573-12 389-12z"/><glyph glyph-name="afii10036" unicode="Т" horiz-adv-x="582" d="M363 0H220v542H25v125h532V542H363V0z"/><glyph glyph-name="afii10037" unicode="У" horiz-adv-x="645" d="M156-12q-45 0-86.5 13.5T5 36l54 114q44-36 86-36 36 0 56.5 15.5T242 183L-4 667h161l165-354 166 354h161L374 128q-34-68-84.5-104T156-12z"/><glyph glyph-name="afii10038" unicode="Ф" horiz-adv-x="855" d="M498 0H356v67q-153 13-237.5 82T34 333q0 114 84.5 183T356 599v68h142v-68q153-14 237.5-82.5T820 333t-84.5-184T498 67V0zm177 333q0 57-45.5 93T498 472V194q86 10 131.5 46t45.5 93zm-495 0q0-57 45-93t131-46v278q-86-10-131-46t-45-93z"/><glyph glyph-name="afii10039" unicode="Х" horiz-adv-x="668" d="M671 0H501L334 244 166 0H-3l242 342L12 667h169l153-228 151 228h171L429 343z"/><glyph glyph-name="afii10040" unicode="Ц" horiz-adv-x="743" d="M584-123V0H66v667h142V125h315v542h143V125h60v-248H584z"/><glyph glyph-name="afii10041" unicode="Ч" horiz-adv-x="649" d="M192 667V480q0-121 122-121 72 0 127 22v286h142V0H441v256q-73-22-144-22-124 0-186 65.5T49 480v187h143z"/><glyph glyph-name="afii10042" unicode="Ш" horiz-adv-x="983" d="M774 667h143V0H66v667h142V125h212v542h143V125h211v542z"/><glyph glyph-name="afii10043" unicode="Щ" horiz-adv-x="994" d="M774 667h143V125h61v-248H835V0H66v667h142V125h212v542h143V125h211v542z"/><glyph glyph-name="afii10044" unicode="Ъ" horiz-adv-x="778" d="M532 0H220v542H25v125h338V430h169q104 0 164.5-62T757 215q0-92-60-153.5T532 0zm-19 305H363V125h150q43 0 70.5 24.5T611 215t-27.5 65.5T513 305z"/><glyph glyph-name="afii10045" unicode="Ы" horiz-adv-x="867" d="M66 667h142V430h170q104 0 164-62t60-153q0-92-59.5-153.5T378 0H66v667zm293-362H208V125h151q43 0 70.5 24.5T457 215t-27.5 65.5T359 305zM801 0H658v667h143V0z"/><glyph glyph-name="afii10046" unicode="Ь" horiz-adv-x="624" d="M66 667h142V430h170q104 0 164-62t60-153q0-92-59.5-153.5T378 0H66v667zm293-362H208V125h151q43 0 70.5 24.5T457 215t-27.5 65.5T359 305z"/><glyph glyph-name="afii10047" unicode="Э" horiz-adv-x="687" d="M297-12Q112-12 19 152l122 59q22-43 64.5-70t94.5-27q76 0 130 44.5T501 276H181v125h317q-19 69-72 110t-126 41q-51 0-94-27.5T141 455L19 515q92 163 278 163 153 0 254-96.5T652 333 551 84.5 297-12z"/><glyph glyph-name="afii10048" unicode="Ю" horiz-adv-x="1043" d="M660-12q-137 0-232 81T315 280H208V0H66v667h142V405h110q23 122 116.5 197.5T660 678q152 0 250-97t98-248-98-248-250-97zm0 126q91 0 147 62t56 157-56 157-147 62q-92 0-147.5-62T457 333t56-157 147-62z"/><glyph glyph-name="afii10049" unicode="Я" horiz-adv-x="643" d="M200 0H37l150 254q-61 14-103.5 65T41 452q0 95 60.5 155T265 667h312V0H435v237H332zm86 362h149v180H286q-44 0-72-24.5T186 452t28-65.5 72-24.5z"/><glyph glyph-name="afii10065" unicode="а" horiz-adv-x="543" d="M480 0H353v50q-52-62-153-62-65 0-116.5 42.5T32 148q0 78 50.5 117T200 304q103 0 153-59v65q0 37-29 59t-77 22q-79 0-141-57l-48 85q86 76 211 76 93 0 152-43t59-140V0zM251 74q71 0 102 42v60q-31 42-102 42-39 0-65-19.5T160 145q0-33 26-52t65-19z"/><glyph glyph-name="afii10066" unicode="б" horiz-adv-x="577" d="M287 101q57 0 90.5 41T411 244q0 57-33.5 97.5T287 382t-90-40-33-98q0-61 33-102t90-41zm0-113q-118 0-186.5 77.5T32 264q0 173 62 259t189 103q109 16 109 41h132q0-105-201-130-151-20-174-121 60 79 165 79 101 0 164.5-74T542 243q0-107-69.5-181T287-12z"/><glyph glyph-name="afii10067" unicode="в" horiz-adv-x="586" d="M378 0H63v483h306q70 0 109-36t39-88q0-42-23-71t-59-39q40-9 66-42t26-76q0-57-39.5-94T378 0zm-31 104q23 0 36.5 12t13.5 33q0 19-13.5 32T347 194H190v-90h157zm-4 194q20 0 32.5 11.5T388 338q0 18-12 29.5T343 379H190v-81h153z"/><glyph glyph-name="afii10068" unicode="г" horiz-adv-x="454" d="M436 483V372H190V0H63v483h373z"/><glyph glyph-name="afii10069" unicode="д" horiz-adv-x="587" d="M18-123v229q22 4 34.5 14.5t24 41T95 249l31 234h391V111h53v-234H443V0H146v-123H18zm219 495l-15-131q-10-87-56-130h224v261H237z"/><glyph glyph-name="afii10070" unicode="е" horiz-adv-x="553" d="M290-12q-112 0-185 70T32 242q0 107 70.5 180T282 495q108 0 175-73.5T524 229v-28H165q6-48 43-80t96-32q32 0 69.5 13t59.5 35l56-82q-73-67-199-67zm111 299q-3 41-32.5 74T282 394q-54 0-84-32.5T163 287h238z"/><glyph glyph-name="afii10072" unicode="ж" horiz-adv-x="750" d="M159 0H1l196 264L7 483h156l148-175v175h128V308l148 175h156L553 264 749 0H591L462 186l-23-25V0H311v161l-23 25z"/><glyph glyph-name="afii10073" unicode="з" horiz-adv-x="504" d="M239-12Q93-12 14 65l58 79q65-55 167-55 48 0 74 14t26 38q0 54-108 54h-99v98h99q99 0 99 52 0 22-27 35.5T233 394q-94 0-150-55l-62 75q80 80 205 80 112 1 174-34.5t62-97.5q0-44-37-75t-89-39q51-3 93.5-34t42.5-81q0-65-63-105T239-12z"/><glyph glyph-name="afii10074" unicode="и" horiz-adv-x="580" d="M185 0H63v483h127V191l199 292h128V0H390v303z"/><glyph glyph-name="afii10075" unicode="й" horiz-adv-x="580" d="M185 0H63v483h127V191l199 292h128V0H390v303zm280 619q-65-88-175-88-109 0-176 88l56 47q44-62 120-62 74 0 119 62z"/><glyph glyph-name="afii10076" unicode="к" horiz-adv-x="535" d="M535 0H376L248 186l-58-62V0H63v483h127V268l183 215h156L338 264z"/><glyph glyph-name="afii10077" unicode="л" horiz-adv-x="580" d="M18-12V92q30 0 48 35.5T95 249l31 234h391V0H390v372H237l-16-138q-15-127-63.5-186.5T18-12z"/><glyph glyph-name="afii10078" unicode="м" horiz-adv-x="697" d="M634 0H507v314L378 0h-58L190 314V0H63v483h167l119-288 117 288h168V0z"/><glyph glyph-name="afii10079" unicode="н" horiz-adv-x="580" d="M190 0H63v483h127V304h200v179h127V0H390v193H190V0z"/><glyph glyph-name="afii10080" unicode="о" horiz-adv-x="574" d="M287-12q-116 0-185.5 73.5T32 242t69.5 180T287 495t186-73 70-180-70-180.5T287-12zm0 113q57 0 90.5 40.5T411 242q0 59-33.5 99.5T287 382t-90-40.5-33-99.5q0-60 33-100.5t90-40.5z"/><glyph glyph-name="afii10081" unicode="п" horiz-adv-x="580" d="M517 0H390v372H190V0H63v483h454V0z"/><glyph glyph-name="afii10082" unicode="р" horiz-adv-x="583" d="M339-12q-91 0-149 74v-246H63v667h127v-61q57 73 149 73 95 0 154.5-67.5T553 242 493.5 56 339-12zm-40 113q55 0 88.5 39T421 242q0 62-33.5 101T299 382q-31 0-62-16t-47-39V156q16-23 47.5-39t61.5-16z"/><glyph glyph-name="afii10083" unicode="с" horiz-adv-x="499" d="M288-12q-112 0-184 71T32 242q0 111 72 182t184 71q128 0 191-87l-83-78q-35 52-102 52-58 0-94.5-38.5T163 242t36.5-102 94.5-39q65 0 102 52l83-77q-63-88-191-88z"/><glyph glyph-name="afii10084" unicode="т" horiz-adv-x="432" d="M280 0H152v372H17v111h398V372H280V0z"/><glyph glyph-name="afii10085" unicode="у" horiz-adv-x="513" d="M46-189L65-75q18-8 40-8 51 0 67 35l18 41L-6 483h136l126-336 126 336h137L292-79q-25-64-70-89.5T109-196q-35 0-63 7z"/><glyph glyph-name="afii10086" unicode="ф" horiz-adv-x="841" d="M228 495q77 0 129-74v246h127V422q50 73 129 73 82 0 133.5-67.5T798 242 746.5 56 613-12q-79 0-129 74v-246H357V62q-49-74-129-74-82 0-133.5 67.5T43 241t51.5 186T228 495zm41-113q-43 0-70.5-39T171 241q0-62 27.5-101t70.5-39q25 0 49.5 16t38.5 39v171q-13 23-38.5 39T269 382zm302-281q44 0 71 39t27 102q0 62-27 101t-71 39q-24 0-49-16t-38-39V156q13-23 38-39t49-16z"/><glyph glyph-name="afii10087" unicode="х" horiz-adv-x="504" d="M504 0H362L252 163 141 0H0l171 248L10 483h142l100-149 99 149h142L331 248z"/><glyph glyph-name="afii10088" unicode="ц" horiz-adv-x="587" d="M443-123V0H63v483h127V111h200v372h127V111h53v-234H443z"/><glyph glyph-name="afii10089" unicode="ч" horiz-adv-x="564" d="M48 483h127V352q0-49 25-69.5t77-20.5q59 0 97 19v202h128V0H374v179q-55-30-141-30-98 0-141.5 40.5T48 308v175z"/><glyph glyph-name="afii10090" unicode="ш" horiz-adv-x="823" d="M632 483h128V0H63v483h127V111h158v372h127V111h157v372z"/><glyph glyph-name="afii10091" unicode="щ" horiz-adv-x="836" d="M632 483h128V111h60v-234H692V0H63v483h127V111h158v372h127V111h157v372z"/><glyph glyph-name="afii10092" unicode="ъ" horiz-adv-x="643" d="M445 0H152v372H17v111h263V317h165q80 0 124-45t44-113q0-67-45-113T445 0zm-19 211H280V107h146q26 0 41.5 14.5T483 159t-15.5 37.5T426 211z"/><glyph glyph-name="afii10093" unicode="ы" horiz-adv-x="776" d="M63 483h127V317h165q80 0 124-45t44-113q0-67-45-113T355 0H63v483zm273-272H190V107h146q26 0 41.5 14.5T393 159t-15.5 37.5T336 211zM714 0H586v483h128V0z"/><glyph glyph-name="afii10094" unicode="ь" horiz-adv-x="553" d="M63 483h127V317h165q80 0 124-45t44-113q0-67-45-113T355 0H63v483zm273-272H190V107h146q26 0 41.5 14.5T393 159t-15.5 37.5T336 211z"/><glyph glyph-name="afii10095" unicode="э" horiz-adv-x="499" d="M211-12Q81-12 20 76l78 70q40-57 105-57 48 0 82 27.5t45 77.5H135v98h194q-11 49-44.5 75.5T203 394q-65 0-105-56l-78 70q61 87 191 87 111 0 183.5-71T467 242 394.5 59.5 211-12z"/><glyph glyph-name="afii10096" unicode="ю" horiz-adv-x="809" d="M521-12q-101 0-168 57.5T270 193h-80V0H63v483h127V304h83q19 84 85 137.5T521 495q116 0 186-73t70-180-70-180.5T521-12zm0 113q58 0 91 40.5T645 242q0 59-33 99.5T521 382q-57 0-90-40.5T398 242q0-60 33-100.5t90-40.5z"/><glyph glyph-name="afii10097" unicode="я" horiz-adv-x="573" d="M191 0H47l112 175q-45 11-76 50T52 325q0 67 45 112.5T219 483h293V0H385v166h-99zm48 272h146v104H239q-26 0-42-14t-16-37q0-24 15.5-38.5T239 272z"/><glyph glyph-name="afii10071" unicode="ё" horiz-adv-x="553" d="M457 611q0-28-20-48t-48-20-48 20-20 48 20 47.5 48 19.5 48-19.5 20-47.5zm-212 0q0-28-19.5-48T178 543t-48 19.5-20 48.5q0 28 20 47.5t48 19.5 47.5-19.5T245 611zm45-623q-112 0-185 70T32 242q0 107 70.5 180T282 495q108 0 175-73.5T524 229v-28H165q6-48 43-80t96-32q32 0 69.5 13t59.5 35l56-82q-73-67-199-67zm111 299q-3 41-32.5 74T282 394q-54 0-84-32.5T163 287h238z"/><glyph glyph-name="afii10099" unicode="ђ" horiz-adv-x="584" d="M340 528H194V420q26 31 70.5 53t99.5 22q78 0 117.5-40T521 343V-13q0-85-43.5-134T349-196q-44 0-68.5 7.5T228-162l35 95q30-25 65-25 30 0 48 20t18 59v307q0 88-90 88-67 0-110-57V0H67v528H8v73h59v66h127v-66h146v-73z"/><glyph glyph-name="afii10100" unicode="ѓ" horiz-adv-x="454" d="M438 700L276 556h-89l134 144h117zm-2-217V372H190V0H63v483h373z"/><glyph glyph-name="afii10101" unicode="є" horiz-adv-x="499" d="M288-12q-112 0-184 71T32 242q0 111 72 182t184 71q128 0 191-87l-78-70q-40 56-106 56-48 0-81.5-27T168 292h195v-98H168q11-50 45-77.5T295 89q66 0 106 57l78-70q-63-88-191-88z"/><glyph glyph-name="afii10102" unicode="ѕ" horiz-adv-x="477" d="M237-12q-63 0-120.5 20T21 63l55 89q28-26 76-46t91-20q40 0 60.5 14t20.5 38q0 18-21.5 29.5t-53 16.5-69 15-69 24-53 44.5T37 343q0 64 53 108t145 44q112 0 195-66l-51-87q-23 24-61.5 40T236 398q-34 0-55-13.5T160 350q0-16 21-26.5t53-15.5 69-15.5 69-25 53-46.5 21-78q0-68-55.5-111.5T237-12z"/><glyph glyph-name="afii10103" unicode="і" horiz-adv-x="253" d="M126 535q-31 0-53.5 22.5T50 611t22.5 53 53.5 22q32 0 54-22t22-53-22-53.5-54-22.5zM190 0H63v483h127V0z"/><glyph glyph-name="afii10104" unicode="ї" horiz-adv-x="253" d="M300 611q0-28-20-48t-48-20-48 20-20 48 20 47.5 48 19.5 48-19.5 20-47.5zm-212 0q0-28-19.5-48T21 543q-29 0-48.5 19.5T-47 611q0 28 20 47.5T21 678t47.5-19.5T88 611zM190 0H63v483h127V0z"/><glyph glyph-name="afii10105" unicode="ј" horiz-adv-x="253" d="M126 535q-31 0-53.5 22.5T50 611t22.5 53 53.5 22q32 0 54-22t22-53-22-53.5-54-22.5zM18-196q-44 0-68.5 7.5T-103-162l35 95q30-25 65-25 30 0 48 20t18 59v496h127V-13q0-85-43.5-134T18-196z"/><glyph glyph-name="afii10106" unicode="љ" horiz-adv-x="880" d="M18-12V92q30 0 48 35.5T95 249l31 234h391V317h165q80 0 124-45t44-113q0-67-45-113T682 0H390v372H237l-16-138q-15-127-63.5-186.5T18-12zm645 223H517V107h146q26 0 41.5 14.5T720 159t-15.5 37.5T663 211z"/><glyph glyph-name="afii10107" unicode="њ" horiz-adv-x="880" d="M190 0H63v483h127V307h200v176h127V307h171q77 0 119.5-44T850 153q0-64-43.5-108.5T688 0H390v196H190V0zm479 200H517v-93h152q24 0 37.5 12.5T720 153t-13.5 34-37.5 13z"/><glyph glyph-name="afii10108" unicode="ћ" horiz-adv-x="584" d="M339 528H194V420q26 31 70.5 53t99.5 22q78 0 117.5-40T521 343V0H394v294q0 48-23 68t-67 20q-67 0-110-57V0H67v528H8v72h59v67h127v-67h145v-72z"/><glyph glyph-name="afii10109" unicode="ќ" horiz-adv-x="535" d="M458 700L296 556h-89l134 144h117zM535 0H376L248 186l-58-62V0H63v483h127V268l183 215h156L338 264z"/><glyph glyph-name="afii10110" unicode="ў" horiz-adv-x="513" d="M46-189L65-75q18-8 40-8 51 0 67 35l18 41L-6 483h136l126-336 126 336h137L292-79q-25-64-70-89.5T109-196q-35 0-63 7zm386 808q-65-88-175-88-109 0-176 88l56 47q44-62 120-62 74 0 119 62z"/><glyph glyph-name="afii10193" unicode="џ" horiz-adv-x="580" d="M226-126V0H63v483h127V111h200v372h127V0H354v-126H226z"/><glyph glyph-name="afii10050" unicode="Ґ" horiz-adv-x="571" d="M208 542V0H66v667h329v123h143V542H208z"/><glyph glyph-name="afii10098" unicode="ґ" horiz-adv-x="454" d="M190 372V0H63v483h246v126h127V372H190z"/><glyph glyph-name="uni1E02" unicode="Ḃ" horiz-adv-x="663" d="M428 0H66v667h351q91 0 141.5-49.5T609 497q0-61-33-102t-82-51q54-8 91-55t37-109q0-78-51-129T428 0zm-42 400q36 0 57 20t21 52-21.5 52.5T386 545H208V400h178zm5-277q40 0 63 20.5t23 56.5q0 33-23 55.5T391 278H208V123h183zm-59 587q-28 0-48 20t-20 48 20 48 48 20q27 0 47-20t20-48-20-48-47-20z"/><glyph glyph-name="uni1E03" unicode="ḃ" horiz-adv-x="586" d="M190 155q16-23 47-38.5t62-15.5q55 0 89 38.5T422 241t-34 102-89 39q-31 0-62-16t-47-40V155zm0-155H63v667h127V421q57 74 149 74 94 0 154-69t60-185q0-118-60-185.5T339-12q-90 0-149 74V0zm110 710q-28 0-48 20t-20 48 20 48 48 20q27 0 47-20t20-48-20-48-47-20z"/><glyph glyph-name="uni1E0A" unicode="Ḋ" horiz-adv-x="718" d="M329 0H66v667h263q157 0 255.5-92T683 333 585 91.5 329 0zm0 125q96 0 152.5 60T538 333q0 92-55 150.5T329 542H208V125h121zm30 585q-29 0-48.5 20T291 778t20 48 48 20q27 0 47-20t20-48-20-48-47-20z"/><glyph glyph-name="uni1E0B" unicode="ḋ" horiz-adv-x="586" d="M523 0H395v62q-59-74-149-74-94 0-154 67.5T32 241q0 116 60 185t154 69q92 0 149-74v246h128V0zM285 101q32 0 63 15.5t47 39.5v171q-16 24-47 39.5T285 382q-54 0-88-39t-34-102q0-62 34-101t88-39zm3 609q-28 0-48 20t-20 48 20 48 48 20q27 0 47-20t20-48-20-48-47-20z"/><glyph glyph-name="uni1E1E" unicode="Ḟ" horiz-adv-x="571" d="M304 710q-28 0-48 20t-20 48 20 48 48 20q27 0 47-20t20-48-20-48-47-20zM208 0H66v667h472V542H208V401h323V276H208V0z"/><glyph glyph-name="uni1E1F" unicode="ḟ" horiz-adv-x="327" d="M255 710q-29 0-48.5 20T187 778t20 48 48 20q27 0 47-20t20-48-20-48-47-20zM219 0H91v372H11v111h80v26q0 77 45 122.5T254 677q84 0 126-45l-48-75q-20 20-53 20-27 0-43.5-17.5T219 509v-26h98V372h-98V0z"/><glyph glyph-name="uni1E22" unicode="Ḣ" horiz-adv-x="731" d="M666 0H523v280H208V0H66v667h142V405h315v262h143V0zM366 710q-28 0-48 20t-20 48 20 48 48 20q27 0 47-20t20-48-20-48-47-20z"/><glyph glyph-name="uni1E23" unicode="ḣ" horiz-adv-x="580" d="M517 0H390v294q0 48-23 68t-67 20q-67 0-110-57V0H63v667h127V420q26 31 70.5 53t99.5 22q78 0 117.5-40T517 343V0zM291 710q-29 0-48.5 20T223 778t20 48 48 20q27 0 47-20t20-48-20-48-47-20z"/><glyph glyph-name="uni1E56" unicode="Ṗ" horiz-adv-x="624" d="M208 0H66v667h312q105 0 164.5-61.5T602 452q0-91-60-153t-164-62H208V0zm151 362q43 0 70.5 24.5T457 452t-27.5 65.5T359 542H208V362h151zm-46 348q-29 0-48.5 20T245 778t20 48 48 20q27 0 47-20t20-48-20-48-47-20z"/><glyph glyph-name="uni1E57" unicode="ṗ" horiz-adv-x="583" d="M339-12q-91 0-149 74v-246H63v667h127v-61q57 73 149 73 95 0 154.5-67.5T553 242 493.5 56 339-12zm-40 113q55 0 88.5 39T421 242q0 62-33.5 101T299 382q-31 0-62-16t-47-39V156q16-23 47.5-39t61.5-16zm0 442q-29 0-48.5 19.5T231 611q0 28 20 48t48 20q27 0 47-20t20-48-20-48-47-20z"/><glyph glyph-name="uni1E60" unicode="Ṡ" horiz-adv-x="600" d="M303-12Q125-12 21 94l77 108q86-90 212-90 55 0 85.5 21.5T426 186q0 27-28.5 45t-71 26-92.5 23-92.5 34-71 60T42 474q0 86 69 144.5T295 677q159 0 260-93l-79-104q-79 73-194 73-45 0-70-18t-25-49q0-24 28.5-40.5t71-24.5 92-23.5 92-35 71-61T570 202q0-96-68.5-155T303-12zm-2 722q-29 0-48.5 20T233 778t20 48 48 20q27 0 47-20t20-48-20-48-47-20z"/><glyph glyph-name="uni1E61" unicode="ṡ" horiz-adv-x="477" d="M237-12q-63 0-120.5 20T21 63l55 89q28-26 76-46t91-20q40 0 60.5 14t20.5 38q0 18-21.5 29.5t-53 16.5-69 15-69 24-53 44.5T37 343q0 64 53 108t145 44q112 0 195-66l-51-87q-23 24-61.5 40T236 398q-34 0-55-13.5T160 350q0-16 21-26.5t53-15.5 69-15.5 69-25 53-46.5 21-78q0-68-55.5-111.5T237-12zm2 555q-29 0-48.5 19.5T171 611q0 28 20 48t48 20q27 0 47-20t20-48-20-48-47-20z"/><glyph glyph-name="uni1E6A" unicode="Ṫ" horiz-adv-x="582" d="M363 0H220v542H25v125h532V542H363V0zm-71 710q-28 0-48 20t-20 48 20 48 48 20q27 0 47-20t20-48-20-48-47-20z"/><glyph glyph-name="uni1E6B" unicode="ṫ" horiz-adv-x="338" d="M225-12q-67 0-102 34t-35 98v252H8v111h80v132h128V483h98V372h-98V154q0-23 12-38t32-15q30 0 44 14l27-96q-35-31-106-31zm-68 722q-29 0-48.5 20T89 778t20 48 48 20q27 0 47-20t20-48-20-48-47-20z"/><glyph glyph-name="Wgrave" unicode="Ẁ" horiz-adv-x="918" d="M727 0H576L459 458 343 0H192L1 667h159l117-482 127 482h111l126-482 116 482h160zM523 723h-89L272 867h116z"/><glyph glyph-name="wgrave" unicode="ẁ" horiz-adv-x="769" d="M622 0H487L385 329 283 0H147L0 483h132l90-325 106 325h113l106-325 90 325h132zM448 556h-89L197 700h116z"/><glyph glyph-name="Wacute" unicode="Ẃ" horiz-adv-x="918" d="M647 867L485 723h-89l134 144h117zM727 0H576L459 458 343 0H192L1 667h159l117-482 127 482h111l126-482 116 482h160z"/><glyph glyph-name="wacute" unicode="ẃ" horiz-adv-x="769" d="M572 700L410 556h-89l134 144h117zM622 0H487L385 329 283 0H147L0 483h132l90-325 106 325h113l106-325 90 325h132z"/><glyph glyph-name="Wdieresis" unicode="Ẅ" horiz-adv-x="918" d="M632 778q0-28-20-48t-48-20-48 20-20 48 20 47.5 48 19.5 48-19.5 20-47.5zm-212 0q0-28-19.5-48T353 710q-29 0-48.5 20T285 778t20 47.5 48 19.5 47.5-19.5T420 778zM727 0H576L459 458 343 0H192L1 667h159l117-482 127 482h111l126-482 116 482h160z"/><glyph glyph-name="wdieresis" unicode="ẅ" horiz-adv-x="769" d="M558 611q0-28-20-48t-48-20-48 20-20 48 20 47.5 48 19.5 48-19.5 20-47.5zm-212 0q0-28-19.5-48T279 543q-29 0-48.5 19.5T211 611q0 28 20 47.5t48 19.5 47.5-19.5T346 611zM622 0H487L385 329 283 0H147L0 483h132l90-325 106 325h113l106-325 90 325h132z"/><glyph glyph-name="uni1EA0" unicode="Ạ" horiz-adv-x="684" d="M688 0H526l-41 113H199L157 0H-5l258 667h178zM446 238L342 525 238 238h208zM343-196q-29 0-48.5 20T275-128t20 48 48 20q27 0 47-20t20-48-20-48-47-20z"/><glyph glyph-name="uni1EA1" unicode="ạ" horiz-adv-x="543" d="M480 0H353v50q-52-62-153-62-65 0-116.5 42.5T32 148q0 78 50.5 117T200 304q103 0 153-59v65q0 37-29 59t-77 22q-79 0-141-57l-48 85q86 76 211 76 93 0 152-43t59-140V0zM251 74q71 0 102 42v60q-31 42-102 42-39 0-65-19.5T160 145q0-33 26-52t65-19zm21-270q-28 0-48 20t-20 48 20 48 48 20q27 0 47-20t20-48-20-48-47-20z"/><glyph glyph-name="uni1EA2" unicode="Ả" horiz-adv-x="684" d="M688 0H526l-41 113H199L157 0H-5l258 667h178zM446 238L342 525 238 238h208zM307 749l-45 14q18 57 80 57 34 0 56.5-18t22.5-54q0-27-15-51h-55q20 21 20 48 0 32-29 32-25 0-35-28z"/><glyph glyph-name="uni1EA3" unicode="ả" horiz-adv-x="543" d="M480 0H353v50q-52-62-153-62-65 0-116.5 42.5T32 148q0 78 50.5 117T200 304q103 0 153-59v65q0 37-29 59t-77 22q-79 0-141-57l-48 85q86 76 211 76 93 0 152-43t59-140V0zM251 74q71 0 102 42v60q-31 42-102 42-39 0-65-19.5T160 145q0-33 26-52t65-19zm-15 505l-45 14q18 57 80 57 34 0 56.5-18t22.5-54q0-27-15-51h-55q20 21 20 48 0 32-29 32-25 0-35-28z"/><glyph glyph-name="uni1EA4" unicode="Ấ" horiz-adv-x="684" d="M493 682h-78l-73 67-71-67h-78l92 108h114zM688 0H526l-41 113H199L157 0H-5l258 667h178zM446 238L342 525 238 238h208zm265 606L549 736h-89l134 108h117z"/><glyph glyph-name="uni1EA5" unicode="ấ" horiz-adv-x="543" d="M480 0H353v50q-52-62-153-62-65 0-116.5 42.5T32 148q0 78 50.5 117T200 304q103 0 153-59v65q0 37-29 59t-77 22q-79 0-141-57l-48 85q86 76 211 76 93 0 152-43t59-140V0zM251 74q71 0 102 42v60q-31 42-102 42-39 0-65-19.5T160 145q0-33 26-52t65-19zm170 482h-78l-73 89-71-89h-78l92 144h114zm212 214L471 626h-89l134 144h117z"/><glyph glyph-name="uni1EA6" unicode="Ầ" horiz-adv-x="684" d="M493 682h-78l-73 67-71-67h-78l92 108h114zM688 0H526l-41 113H199L157 0H-5l258 667h178zM446 238L342 525 238 238h208zM228 736h-89L-23 844H93z"/><glyph glyph-name="uni1EA7" unicode="ầ" horiz-adv-x="543" d="M480 0H353v50q-52-62-153-62-65 0-116.5 42.5T32 148q0 78 50.5 117T200 304q103 0 153-59v65q0 37-29 59t-77 22q-79 0-141-57l-48 85q86 76 211 76 93 0 152-43t59-140V0zM251 74q71 0 102 42v60q-31 42-102 42-39 0-65-19.5T160 145q0-33 26-52t65-19zm170 482h-78l-73 89-71-89h-78l92 144h114zm-264 70H68L-94 770H22z"/><glyph glyph-name="uni1EA8" unicode="Ẩ" horiz-adv-x="684" d="M493 682h-78l-73 67-71-67h-78l92 108h114zM688 0H526l-41 113H199L157 0H-5l258 667h178zM446 238L342 525 238 238h208zm21 545l-45 11q19 42 80 42 34 0 56.5-13.5T581 782q0-20-15-38h-55q20 16 20 36 0 24-29 24-25 0-35-21z"/><glyph glyph-name="uni1EA9" unicode="ẩ" horiz-adv-x="543" d="M480 0H353v50q-52-62-153-62-65 0-116.5 42.5T32 148q0 78 50.5 117T200 304q103 0 153-59v65q0 37-29 59t-77 22q-79 0-141-57l-48 85q86 76 211 76 93 0 152-43t59-140V0zM251 74q71 0 102 42v60q-31 42-102 42-39 0-65-19.5T160 145q0-33 26-52t65-19zm170 482h-78l-73 89-71-89h-78l92 144h114zm-81 163l-45 14q18 57 80 57 34 0 56.5-18t22.5-54q0-27-15-51h-55q20 21 20 48 0 32-29 32-25 0-35-28z"/><glyph glyph-name="uni1EAA" unicode="Ẫ" horiz-adv-x="684" d="M493 678h-78l-73 44-71-44h-78l92 72h114zM688 0H526l-41 113H199L157 0H-5l258 667h178zM446 238L342 525 238 238h208zm-48 519q-38 0-70 17t-47 17q-36 0-36-31h-67q0 32 28 49.5t80 17.5q36 0 68-17t48-17q36 0 36 31h67q0-67-107-67z"/><glyph glyph-name="uni1EAB" unicode="ẫ" horiz-adv-x="543" d="M480 0H353v50q-52-62-153-62-65 0-116.5 42.5T32 148q0 78 50.5 117T200 304q103 0 153-59v65q0 37-29 59t-77 22q-79 0-141-57l-48 85q86 76 211 76 93 0 152-43t59-140V0zM251 74q71 0 102 42v60q-31 42-102 42-39 0-65-19.5T160 145q0-33 26-52t65-19zm170 449h-78l-73 89-71-89h-78l92 144h114zm-93 159q-29 0-50 17t-36.5 34-30.5 17q-36 0-36-62h-67q0 64 28 99t80 35q28 0 49-17t36.5-33.5T332 755q36 0 36 61h67q0-64-27.5-99T328 682z"/><glyph glyph-name="uni1EAC" unicode="Ậ" horiz-adv-x="684" d="M688 0H526l-41 113H199L157 0H-5l258 667h178zM446 238L342 525 238 238h208zm46 485h-78l-73 89-71-89h-78l92 144h114zM343-196q-29 0-48.5 20T275-128t20 48 48 20q27 0 47-20t20-48-20-48-47-20z"/><glyph glyph-name="uni1EAD" unicode="ậ" horiz-adv-x="543" d="M480 0H353v50q-52-62-153-62-65 0-116.5 42.5T32 148q0 78 50.5 117T200 304q103 0 153-59v65q0 37-29 59t-77 22q-79 0-141-57l-48 85q86 76 211 76 93 0 152-43t59-140V0zM251 74q71 0 102 42v60q-31 42-102 42-39 0-65-19.5T160 145q0-33 26-52t65-19zm170 482h-78l-73 89-71-89h-78l92 144h114zM272-196q-28 0-48 20t-20 48 20 48 48 20q27 0 47-20t20-48-20-48-47-20z"/><glyph glyph-name="uni1EAE" unicode="Ắ" horiz-adv-x="684" d="M688 0H526l-41 113H199L157 0H-5l258 667h178zM446 238L342 525 238 238h208zm85 593l-162-84h-89l134 84h117zm-14-87q-65-60-175-60t-176 60l56 32q44-42 120-42 75 0 119 42z"/><glyph glyph-name="uni1EAF" unicode="ắ" horiz-adv-x="543" d="M480 0H353v50q-52-62-153-62-65 0-116.5 42.5T32 148q0 78 50.5 117T200 304q103 0 153-59v65q0 37-29 59t-77 22q-79 0-141-57l-48 85q86 76 211 76 93 0 152-43t59-140V0zM251 74q71 0 102 42v60q-31 42-102 42-39 0-65-19.5T160 145q0-33 26-52t65-19zm210 704L299 634h-89l134 144h117zm-16-174q-65-88-175-88-109 0-176 88l56 47q44-62 120-62 74 0 119 62z"/><glyph glyph-name="uni1EB0" unicode="Ằ" horiz-adv-x="684" d="M688 0H526l-41 113H199L157 0H-5l258 667h178zM446 238L342 525 238 238h208zm-40 509h-89l-162 84h116zm111-8q-65-60-175-60t-176 60l56 32q44-42 120-42 75 0 119 42z"/><glyph glyph-name="uni1EB1" unicode="ằ" horiz-adv-x="543" d="M480 0H353v50q-52-62-153-62-65 0-116.5 42.5T32 148q0 78 50.5 117T200 304q103 0 153-59v65q0 37-29 59t-77 22q-79 0-141-57l-48 85q86 76 211 76 93 0 152-43t59-140V0zM251 74q71 0 102 42v60q-31 42-102 42-39 0-65-19.5T160 145q0-33 26-52t65-19zm79 560h-89L79 778h116zm115-28q-65-88-175-88-109 0-176 88l56 47q44-62 120-62 74 0 119 62z"/><glyph glyph-name="uni1EB2" unicode="Ẳ" horiz-adv-x="684" d="M688 0H526l-41 113H199L157 0H-5l258 667h178zM446 238L342 525 238 238h208zM307 779l-45 9q19 33 80 33 79 0 79-42 0-17-15-30h-55q20 13 20 28 0 19-29 19-25 0-35-17zm210-39q-65-60-175-60t-176 60l56 32q44-42 120-42 75 0 119 42z"/><glyph glyph-name="uni1EB3" unicode="ẳ" horiz-adv-x="543" d="M480 0H353v50q-52-62-153-62-65 0-116.5 42.5T32 148q0 78 50.5 117T200 304q103 0 153-59v65q0 37-29 59t-77 22q-79 0-141-57l-48 85q86 76 211 76 93 0 152-43t59-140V0zM251 74q71 0 102 42v60q-31 42-102 42-39 0-65-19.5T160 145q0-33 26-52t65-19zm-15 617l-45 14q18 57 80 57 34 0 56.5-18t22.5-54q0-27-15-51h-55q20 21 20 48 0 32-29 32-25 0-35-28zm209-85q-65-88-175-88-109 0-176 88l56 47q44-62 120-62 74 0 119 62z"/><glyph glyph-name="uni1EB4" unicode="Ẵ" horiz-adv-x="684" d="M688 0H526l-41 113H199L157 0H-5l258 667h178zM446 238L342 525 238 238h208zm72 488q-65-49-175-49-109 0-176 49l56 26q44-34 120-34 74 0 119 34zm-120 31q-38 0-70 17t-47 17q-36 0-36-31h-67q0 32 28 49.5t80 17.5q36 0 68-17t48-17q36 0 36 31h67q0-67-107-67z"/><glyph glyph-name="uni1EB5" unicode="ẵ" horiz-adv-x="543" d="M480 0H353v50q-52-62-153-62-65 0-116.5 42.5T32 148q0 78 50.5 117T200 304q103 0 153-59v65q0 37-29 59t-77 22q-79 0-141-57l-48 85q86 76 211 76 93 0 152-43t59-140V0zM251 74q71 0 102 42v60q-31 42-102 42-39 0-65-19.5T160 145q0-33 26-52t65-19zm194 532q-65-88-175-88-109 0-176 88l56 47q44-62 120-62 74 0 119 62zm-120 53q-29 0-50 17t-36.5 34-30.5 17q-36 0-36-62h-67q0 64 28 99t80 35q22 0 40.5-10.5t28-23 22.5-23 25-10.5q36 0 36 61h67q0-64-27.5-99T325 659z"/><glyph glyph-name="uni1EB6" unicode="Ặ" horiz-adv-x="684" d="M688 0H526l-41 113H199L157 0H-5l258 667h178zM446 238L342 525 238 238h208zM343-196q-29 0-48.5 20T275-128t20 48 48 20q27 0 47-20t20-48-20-48-47-20zm174 982q-65-88-175-88-109 0-176 88l56 47q44-62 120-62 74 0 119 62z"/><glyph glyph-name="uni1EB7" unicode="ặ" horiz-adv-x="543" d="M480 0H353v50q-52-62-153-62-65 0-116.5 42.5T32 148q0 78 50.5 117T200 304q103 0 153-59v65q0 37-29 59t-77 22q-79 0-141-57l-48 85q86 76 211 76 93 0 152-43t59-140V0zM251 74q71 0 102 42v60q-31 42-102 42-39 0-65-19.5T160 145q0-33 26-52t65-19zm21-270q-28 0-48 20t-20 48 20 48 48 20q27 0 47-20t20-48-20-48-47-20zm172 815q-65-88-175-88-109 0-176 88l56 47q44-62 120-62 74 0 119 62z"/><glyph glyph-name="uni1EB8" unicode="Ẹ" horiz-adv-x="583" d="M538 0H66v667h472V542H208V401h323V276H208V125h330V0zM303-196q-29 0-48.5 20T235-128t20 48 48 20q27 0 47-20t20-48-20-48-47-20z"/><glyph glyph-name="uni1EB9" unicode="ẹ" horiz-adv-x="553" d="M290-12q-112 0-185 70T32 242q0 107 70.5 180T282 495q108 0 175-73.5T524 229v-28H165q6-48 43-80t96-32q32 0 69.5 13t59.5 35l56-82q-73-67-199-67zm111 299q-3 41-32.5 74T282 394q-54 0-84-32.5T163 287h238zM285-196q-29 0-48.5 20T217-128t20 48 48 20q27 0 47-20t20-48-20-48-47-20z"/><glyph glyph-name="uni1EBA" unicode="Ẻ" horiz-adv-x="583" d="M538 0H66v667h472V542H208V401h323V276H208V125h330V0zM264 749l-45 14q18 57 80 57 34 0 56.5-18t22.5-54q0-27-15-51h-55q20 21 20 48 0 32-29 32-25 0-35-28z"/><glyph glyph-name="uni1EBB" unicode="ẻ" horiz-adv-x="553" d="M290-12q-112 0-185 70T32 242q0 107 70.5 180T282 495q108 0 175-73.5T524 229v-28H165q6-48 43-80t96-32q32 0 69.5 13t59.5 35l56-82q-73-67-199-67zm111 299q-3 41-32.5 74T282 394q-54 0-84-32.5T163 287h238zM245 579l-45 14q18 57 80 57 34 0 56.5-18t22.5-54q0-27-15-51h-55q20 21 20 48 0 32-29 32-25 0-35-28z"/><glyph glyph-name="uni1EBC" unicode="Ẽ" horiz-adv-x="583" d="M538 0H66v667h472V542H208V401h323V276H208V125h330V0zM363 721q-29 0-50 17t-36.5 34-30.5 17q-36 0-36-62h-67q0 64 28 99t80 35q22 0 40.5-10.5t28-23 22.5-23 25-10.5q36 0 36 61h67q0-64-27.5-99T363 721z"/><glyph glyph-name="uni1EBD" unicode="ẽ" horiz-adv-x="553" d="M290-12q-112 0-185 70T32 242q0 107 70.5 180T282 495q108 0 175-73.5T524 229v-28H165q6-48 43-80t96-32q32 0 69.5 13t59.5 35l56-82q-73-67-199-67zm111 299q-3 41-32.5 74T282 394q-54 0-84-32.5T163 287h238zm-65 267q-29 0-50 17t-36.5 34-30.5 17q-36 0-36-62h-67q0 64 28 99t80 35q28 0 49-17t36.5-33.5T340 627q36 0 36 61h67q0-64-27.5-99T336 554z"/><glyph glyph-name="uni1EBE" unicode="Ế" horiz-adv-x="583" d="M457 682h-78l-73 67-71-67h-78l92 108h114zm218 162L513 736h-89l134 108h117zM538 0H66v667h472V542H208V401h323V276H208V125h330V0z"/><glyph glyph-name="uni1EBF" unicode="ế" horiz-adv-x="553" d="M432 556h-78l-73 89-71-89h-78l92 144h114zm210 214L480 626h-89l134 144h117zM290-12q-112 0-185 70T32 242q0 107 70.5 180T282 495q108 0 175-73.5T524 229v-28H165q6-48 43-80t96-32q32 0 69.5 13t59.5 35l56-82q-73-67-199-67zm111 299q-3 41-32.5 74T282 394q-54 0-84-32.5T163 287h238z"/><glyph glyph-name="uni1EC0" unicode="Ề" horiz-adv-x="583" d="M458 682h-78l-73 67-71-67h-78l92 108h114zM538 0H66v667h472V542H208V401h323V276H208V125h330V0zM193 736h-89L-58 844H58z"/><glyph glyph-name="uni1EC1" unicode="ề" horiz-adv-x="553" d="M432 556h-78l-73 89-71-89h-78l92 144h114zM290-12q-112 0-185 70T32 242q0 107 70.5 180T282 495q108 0 175-73.5T524 229v-28H165q6-48 43-80t96-32q32 0 69.5 13t59.5 35l56-82q-73-67-199-67zm111 299q-3 41-32.5 74T282 394q-54 0-84-32.5T163 287h238zM168 626H79L-83 770H33z"/><glyph glyph-name="uni1EC2" unicode="Ể" horiz-adv-x="583" d="M457 682h-78l-73 67-71-67h-78l92 108h114zM538 0H66v667h472V542H208V401h323V276H208V125h330V0zM430 783l-45 11q19 42 80 42 34 0 56.5-13.5T544 782q0-20-15-38h-55q20 16 20 36 0 24-29 24-25 0-35-21z"/><glyph glyph-name="uni1EC3" unicode="ể" horiz-adv-x="553" d="M432 556h-78l-73 89-71-89h-78l92 144h114zM290-12q-112 0-185 70T32 242q0 107 70.5 180T282 495q108 0 175-73.5T524 229v-28H165q6-48 43-80t96-32q32 0 69.5 13t59.5 35l56-82q-73-67-199-67zm111 299q-3 41-32.5 74T282 394q-54 0-84-32.5T163 287h238zm-50 432l-45 14q18 57 80 57 34 0 56.5-18t22.5-54q0-27-15-51h-55q20 21 20 48 0 32-29 32-25 0-35-28z"/><glyph glyph-name="uni1EC4" unicode="Ễ" horiz-adv-x="583" d="M457 678h-78l-73 44-71-44h-78l92 72h114zM538 0H66v667h472V542H208V401h323V276H208V125h330V0zM361 757q-38 0-70 17t-47 17q-36 0-36-31h-67q0 32 28 49.5t80 17.5q37 0 69-17t47-17q36 0 36 31h67q0-67-107-67z"/><glyph glyph-name="uni1EC5" unicode="ễ" horiz-adv-x="553" d="M432 523h-78l-73 89-71-89h-78l92 144h114zM290-12q-112 0-185 70T32 242q0 107 70.5 180T282 495q108 0 175-73.5T524 229v-28H165q6-48 43-80t96-32q32 0 69.5 13t59.5 35l56-82q-73-67-199-67zm111 299q-3 41-32.5 74T282 394q-54 0-84-32.5T163 287h238zm-62 395q-29 0-50 17t-36.5 34-30.5 17q-36 0-36-62h-67q0 64 28 99t80 35q28 0 49-17t36.5-33.5T343 755q36 0 36 61h67q0-64-27.5-99T339 682z"/><glyph glyph-name="uni1EC6" unicode="Ệ" horiz-adv-x="583" d="M452 723h-78l-73 89-71-89h-78l92 144h114zM538 0H66v667h472V542H208V401h323V276H208V125h330V0zM303-196q-29 0-48.5 20T235-128t20 48 48 20q27 0 47-20t20-48-20-48-47-20z"/><glyph glyph-name="uni1EC7" unicode="ệ" horiz-adv-x="553" d="M434 556h-78l-73 89-71-89h-78l92 144h114zM290-12q-112 0-185 70T32 242q0 107 70.5 180T282 495q108 0 175-73.5T524 229v-28H165q6-48 43-80t96-32q32 0 69.5 13t59.5 35l56-82q-73-67-199-67zm111 299q-3 41-32.5 74T282 394q-54 0-84-32.5T163 287h238zM285-196q-29 0-48.5 20T217-128t20 48 48 20q27 0 47-20t20-48-20-48-47-20z"/><glyph glyph-name="uni1EC8" unicode="Ỉ" horiz-adv-x="274" d="M208 0H66v667h142V0zM103 749l-45 14q18 57 80 57 34 0 56.5-18t22.5-54q0-27-15-51h-55q20 21 20 48 0 32-29 32-25 0-35-28z"/><glyph glyph-name="uni1EC9" unicode="ỉ" horiz-adv-x="253" d="M190 0H63v483h127V0zM92 579l-45 14q18 57 80 57 34 0 56.5-18t22.5-54q0-27-15-51h-55q20 21 20 48 0 32-29 32-25 0-35-28z"/><glyph glyph-name="uni1ECA" unicode="Ị" horiz-adv-x="274" d="M208 0H66v667h142V0zm-68-196q-28 0-48 20t-20 48 20 48 48 20q27 0 47-20t20-48-20-48-47-20z"/><glyph glyph-name="uni1ECB" unicode="ị" horiz-adv-x="253" d="M126 535q-31 0-53.5 22.5T50 611t22.5 53 53.5 22q32 0 54-22t22-53-22-53.5-54-22.5zM190 0H63v483h127V0zm-62-196q-28 0-48 20t-20 48 20 48 48 20q27 0 47-20t20-48-20-48-47-20z"/><glyph glyph-name="uni1ECC" unicode="Ọ" horiz-adv-x="765" d="M382-12q-151 0-249.5 97.5T34 333t98.5 247.5T382 678q152 0 250.5-97T731 333 632.5 85 382-12zm0 126q91 0 147 62t56 157-56 157-147 62-146.5-62T180 333t55.5-157T382 114zm4-310q-28 0-48 20t-20 48 20 48 48 20q27 0 47-20t20-48-20-48-47-20z"/><glyph glyph-name="uni1ECD" unicode="ọ" horiz-adv-x="574" d="M287-12q-116 0-185.5 73.5T32 242t69.5 180T287 495t186-73 70-180-70-180.5T287-12zm0 113q57 0 90.5 40.5T411 242q0 59-33.5 99.5T287 382t-90-40.5-33-99.5q0-60 33-100.5t90-40.5zm1-297q-28 0-48 20t-20 48 20 48 48 20q27 0 47-20t20-48-20-48-47-20z"/><glyph glyph-name="uni1ECE" unicode="Ỏ" horiz-adv-x="765" d="M382-12q-151 0-249.5 97.5T34 333t98.5 247.5T382 678q152 0 250.5-97T731 333 632.5 85 382-12zm0 126q91 0 147 62t56 157-56 157-147 62-146.5-62T180 333t55.5-157T382 114zm-36 635l-45 14q18 57 80 57 34 0 56.5-18t22.5-54q0-27-15-51h-55q20 21 20 48 0 32-29 32-25 0-35-28z"/><glyph glyph-name="uni1ECF" unicode="ỏ" horiz-adv-x="574" d="M287-12q-116 0-185.5 73.5T32 242t69.5 180T287 495t186-73 70-180-70-180.5T287-12zm0 113q57 0 90.5 40.5T411 242q0 59-33.5 99.5T287 382t-90-40.5-33-99.5q0-60 33-100.5t90-40.5zm-34 478l-45 14q18 57 80 57 34 0 56.5-18t22.5-54q0-27-15-51h-55q20 21 20 48 0 32-29 32-25 0-35-28z"/><glyph glyph-name="uni1ED0" unicode="Ố" horiz-adv-x="765" d="M529 682h-78l-73 67-71-67h-78l92 108h114zm217 162L584 736h-89l134 108h117zM382-12q-151 0-249.5 97.5T34 333t98.5 247.5T382 678q152 0 250.5-97T731 333 632.5 85 382-12zm0 126q91 0 147 62t56 157-56 157-147 62-146.5-62T180 333t55.5-157T382 114z"/><glyph glyph-name="uni1ED1" unicode="ố" horiz-adv-x="574" d="M437 556h-78l-73 89-71-89h-78l92 144h114zm211 214L486 626h-89l134 144h117zM287-12q-116 0-185.5 73.5T32 242t69.5 180T287 495t186-73 70-180-70-180.5T287-12zm0 113q57 0 90.5 40.5T411 242q0 59-33.5 99.5T287 382t-90-40.5-33-99.5q0-60 33-100.5t90-40.5z"/><glyph glyph-name="uni1ED2" unicode="Ồ" horiz-adv-x="765" d="M528 682h-78l-73 67-71-67h-78l92 108h114zM382-12q-151 0-249.5 97.5T34 333t98.5 247.5T382 678q152 0 250.5-97T731 333 632.5 85 382-12zm0 126q91 0 147 62t56 157-56 157-147 62-146.5-62T180 333t55.5-157T382 114zM262 736h-89L11 844h116z"/><glyph glyph-name="uni1ED3" unicode="ồ" horiz-adv-x="574" d="M437 556h-78l-73 89-71-89h-78l92 144h114zM287-12q-116 0-185.5 73.5T32 242t69.5 180T287 495t186-73 70-180-70-180.5T287-12zm0 113q57 0 90.5 40.5T411 242q0 59-33.5 99.5T287 382t-90-40.5-33-99.5q0-60 33-100.5t90-40.5zM174 626H85L-77 770H39z"/><glyph glyph-name="uni1ED4" unicode="Ổ" horiz-adv-x="765" d="M528 682h-78l-73 67-71-67h-78l92 108h114zM382-12q-151 0-249.5 97.5T34 333t98.5 247.5T382 678q152 0 250.5-97T731 333 632.5 85 382-12zm0 126q91 0 147 62t56 157-56 157-147 62-146.5-62T180 333t55.5-157T382 114zm120 669l-45 11q19 42 80 42 34 0 56.5-13.5T616 782q0-20-15-38h-55q20 16 20 36 0 24-29 24-25 0-35-21z"/><glyph glyph-name="uni1ED5" unicode="ổ" horiz-adv-x="574" d="M437 556h-78l-73 89-71-89h-78l92 144h114zM287-12q-116 0-185.5 73.5T32 242t69.5 180T287 495t186-73 70-180-70-180.5T287-12zm0 113q57 0 90.5 40.5T411 242q0 59-33.5 99.5T287 382t-90-40.5-33-99.5q0-60 33-100.5t90-40.5zm69 618l-45 14q18 57 80 57 34 0 56.5-18t22.5-54q0-27-15-51h-55q20 21 20 48 0 32-29 32-25 0-35-28z"/><glyph glyph-name="uni1ED6" unicode="Ỗ" horiz-adv-x="765" d="M531 678h-78l-73 44-71-44h-78l92 72h114zM382-12q-151 0-249.5 97.5T34 333t98.5 247.5T382 678q152 0 250.5-97T731 333 632.5 85 382-12zm0 126q91 0 147 62t56 157-56 157-147 62-146.5-62T180 333t55.5-157T382 114zm54 643q-38 0-70 17t-47 17q-36 0-36-31h-67q0 32 28 49.5t80 17.5q36 0 68-17t48-17q36 0 36 31h67q0-67-107-67z"/><glyph glyph-name="uni1ED7" unicode="ỗ" horiz-adv-x="574" d="M437 523h-78l-73 89-71-89h-78l92 144h114zM287-12q-116 0-185.5 73.5T32 242t69.5 180T287 495t186-73 70-180-70-180.5T287-12zm0 113q57 0 90.5 40.5T411 242q0 59-33.5 99.5T287 382t-90-40.5-33-99.5q0-60 33-100.5t90-40.5zm57 581q-29 0-50 17t-36.5 34-30.5 17q-36 0-36-62h-67q0 64 28 99t80 35q28 0 49-17t36.5-33.5T348 755q36 0 36 61h67q0-64-27.5-99T344 682z"/><glyph glyph-name="uni1ED8" unicode="Ộ" horiz-adv-x="765" d="M535 723h-78l-73 89-71-89h-78l92 144h114zM382-12q-151 0-249.5 97.5T34 333t98.5 247.5T382 678q152 0 250.5-97T731 333 632.5 85 382-12zm0 126q91 0 147 62t56 157-56 157-147 62-146.5-62T180 333t55.5-157T382 114zm4-310q-28 0-48 20t-20 48 20 48 48 20q27 0 47-20t20-48-20-48-47-20z"/><glyph glyph-name="uni1ED9" unicode="ộ" horiz-adv-x="574" d="M437 556h-78l-73 89-71-89h-78l92 144h114zM287-12q-116 0-185.5 73.5T32 242t69.5 180T287 495t186-73 70-180-70-180.5T287-12zm0 113q57 0 90.5 40.5T411 242q0 59-33.5 99.5T287 382t-90-40.5-33-99.5q0-60 33-100.5t90-40.5zm1-297q-28 0-48 20t-20 48 20 48 48 20q27 0 47-20t20-48-20-48-47-20z"/><glyph glyph-name="uni1EDA" unicode="Ớ" horiz-adv-x="765" d="M570 867L408 723h-89l134 144h117zM382-12q-151 0-249.5 97.5T34 333t98.5 247.5T382 678q160 0 260-108 36 31 44 64-4-2-14-2-20 0-34 14.5T624 683q0 23 16 39.5t39 16.5q26 0 44.5-19.5T742 666q0-80-70-133 59-85 59-200 0-151-98.5-248T382-12zm0 126q91 0 147 62t56 157-56 157-147 62-146.5-62T180 333t55.5-157T382 114z"/><glyph glyph-name="uni1EDB" unicode="ớ" horiz-adv-x="574" d="M475 700L313 556h-89l134 144h117zm77-168q0-75-64-128 55-67 55-162 0-107-70-180.5T287-12 101.5 61.5 32 242t69.5 180T287 495q98 0 167-56 35 29 42 62-4-2-14-2-21 0-34.5 14T434 550t16 39.5 39 16.5q26 0 44.5-20t18.5-54zM287 101q57 0 90.5 40.5T411 242q0 59-33.5 99.5T287 382t-90-40.5-33-99.5q0-60 33-100.5t90-40.5z"/><glyph glyph-name="uni1EDC" unicode="Ờ" horiz-adv-x="765" d="M382-12q-151 0-249.5 97.5T34 333t98.5 247.5T382 678q160 0 260-108 36 31 44 64-4-2-14-2-20 0-34 14.5T624 683q0 23 16 39.5t39 16.5q26 0 44.5-19.5T742 666q0-80-70-133 59-85 59-200 0-151-98.5-248T382-12zm0 126q91 0 147 62t56 157-56 157-147 62-146.5-62T180 333t55.5-157T382 114zm65 609h-89L196 867h116z"/><glyph glyph-name="uni1EDD" unicode="ờ" horiz-adv-x="574" d="M552 532q0-75-64-128 55-67 55-162 0-107-70-180.5T287-12 101.5 61.5 32 242t69.5 180T287 495q98 0 167-56 35 29 42 62-4-2-14-2-21 0-34.5 14T434 550t16 39.5 39 16.5q26 0 44.5-20t18.5-54zM287 101q57 0 90.5 40.5T411 242q0 59-33.5 99.5T287 382t-90-40.5-33-99.5q0-60 33-100.5t90-40.5zm64 455h-89L100 700h116z"/><glyph glyph-name="uni1EDE" unicode="Ở" horiz-adv-x="765" d="M382-12q-151 0-249.5 97.5T34 333t98.5 247.5T382 678q160 0 260-108 36 31 44 64-4-2-14-2-20 0-34 14.5T624 683q0 23 16 39.5t39 16.5q26 0 44.5-19.5T742 666q0-80-70-133 59-85 59-200 0-151-98.5-248T382-12zm0 126q91 0 147 62t56 157-56 157-147 62-146.5-62T180 333t55.5-157T382 114zm-35 635l-45 14q18 57 80 57 34 0 56.5-18t22.5-54q0-27-15-51h-55q20 21 20 48 0 32-29 32-25 0-35-28z"/><glyph glyph-name="uni1EDF" unicode="ở" horiz-adv-x="574" d="M552 532q0-75-64-128 55-67 55-162 0-107-70-180.5T287-12 101.5 61.5 32 242t69.5 180T287 495q98 0 167-56 35 29 42 62-4-2-14-2-21 0-34.5 14T434 550t16 39.5 39 16.5q26 0 44.5-20t18.5-54zM287 101q57 0 90.5 40.5T411 242q0 59-33.5 99.5T287 382t-90-40.5-33-99.5q0-60 33-100.5t90-40.5zm-35 478l-45 14q18 57 80 57 34 0 56.5-18t22.5-54q0-27-15-51h-55q20 21 20 48 0 32-29 32-25 0-35-28z"/><glyph glyph-name="uni1EE0" unicode="Ỡ" horiz-adv-x="765" d="M382-12q-151 0-249.5 97.5T34 333t98.5 247.5T382 678q160 0 260-108 36 31 44 64-4-2-14-2-20 0-34 14.5T624 683q0 23 16 39.5t39 16.5q26 0 44.5-19.5T742 666q0-80-70-133 59-85 59-200 0-151-98.5-248T382-12zm0 126q91 0 147 62t56 157-56 157-147 62-146.5-62T180 333t55.5-157T382 114zm57 607q-29 0-50 17t-36.5 34-30.5 17q-36 0-36-62h-67q0 64 28 99t80 35q22 0 40.5-10.5t28-23 22.5-23 25-10.5q36 0 36 61h67q0-64-27.5-99T439 721z"/><glyph glyph-name="uni1EE1" unicode="ỡ" horiz-adv-x="574" d="M552 532q0-75-64-128 55-67 55-162 0-107-70-180.5T287-12 101.5 61.5 32 242t69.5 180T287 495q98 0 167-56 35 29 42 62-4-2-14-2-21 0-34.5 14T434 550t16 39.5 39 16.5q26 0 44.5-20t18.5-54zM287 101q57 0 90.5 40.5T411 242q0 59-33.5 99.5T287 382t-90-40.5-33-99.5q0-60 33-100.5t90-40.5zm51 453q-29 0-50 17t-36.5 34-30.5 17q-36 0-36-62h-67q0 64 28 99t80 35q28 0 49-17t36.5-33.5T342 627q36 0 36 61h67q0-64-27.5-99T338 554z"/><glyph glyph-name="uni1EE2" unicode="Ợ" horiz-adv-x="765" d="M382-12q-151 0-249.5 97.5T34 333t98.5 247.5T382 678q160 0 260-108 36 31 44 64-4-2-14-2-20 0-34 14.5T624 683q0 23 16 39.5t39 16.5q26 0 44.5-19.5T742 666q0-80-70-133 59-85 59-200 0-151-98.5-248T382-12zm0 126q91 0 147 62t56 157-56 157-147 62-146.5-62T180 333t55.5-157T382 114zm4-310q-28 0-48 20t-20 48 20 48 48 20q27 0 47-20t20-48-20-48-47-20z"/><glyph glyph-name="uni1EE3" unicode="ợ" horiz-adv-x="574" d="M552 532q0-75-64-128 55-67 55-162 0-107-70-180.5T287-12 101.5 61.5 32 242t69.5 180T287 495q98 0 167-56 35 29 42 62-4-2-14-2-21 0-34.5 14T434 550t16 39.5 39 16.5q26 0 44.5-20t18.5-54zM287 101q57 0 90.5 40.5T411 242q0 59-33.5 99.5T287 382t-90-40.5-33-99.5q0-60 33-100.5t90-40.5zm1-297q-28 0-48 20t-20 48 20 48 48 20q27 0 47-20t20-48-20-48-47-20z"/><glyph glyph-name="uni1EE4" unicode="Ụ" horiz-adv-x="733" d="M367-12q-148 0-224.5 75.5T66 266v401h144V271q0-72 41-114.5T367 114t115.5 42.5T523 271v396h145V267q0-129-76.5-204T367-12zm3-184q-28 0-48 20t-20 48 20 48 48 20q27 0 47-20t20-48-20-48-47-20z"/><glyph glyph-name="uni1EE5" unicode="ụ" d="M516 0H389v61q-65-73-170-73-78 0-117 40T63 140v343h127V190q0-89 89-89 67 0 110 55v327h127V0zM292-196q-28 0-48 20t-20 48 20 48 48 20q27 0 47-20t20-48-20-48-47-20z"/><glyph glyph-name="uni1EE6" unicode="Ủ" horiz-adv-x="733" d="M367-12q-148 0-224.5 75.5T66 266v401h144V271q0-72 41-114.5T367 114t115.5 42.5T523 271v396h145V267q0-129-76.5-204T367-12zm-34 761l-45 14q18 57 80 57 34 0 56.5-18t22.5-54q0-27-15-51h-55q20 21 20 48 0 32-29 32-25 0-35-28z"/><glyph glyph-name="uni1EE7" unicode="ủ" d="M516 0H389v61q-65-73-170-73-78 0-117 40T63 140v343h127V190q0-89 89-89 67 0 110 55v327h127V0zM255 579l-45 14q18 57 80 57 34 0 56.5-18t22.5-54q0-27-15-51h-55q20 21 20 48 0 32-29 32-25 0-35-28z"/><glyph glyph-name="uni1EE8" unicode="Ứ" horiz-adv-x="733" d="M555 867L393 723h-89l134 144h117zm222-141q0-46-28.5-88.5T668 571V267q0-129-76.5-204T367-12 142.5 63.5 66 266v401h144V271q0-72 41-114.5T367 114t115.5 42.5T523 271v396h145v-43q45 31 53 72-3-3-14-3-21 0-34.5 14.5T659 745t16.5 39 38.5 16q26 0 44.5-20t18.5-54z"/><glyph glyph-name="uni1EE9" unicode="ứ" d="M476 700L314 556h-89l134 144h117zM516 0H389v61q-65-73-170-73-78 0-117 40T63 140v343h127V190q0-89 89-89 67 0 110 55v327h127v-17q22 25 26 48-4-2-14-2-21 0-34.5 14T480 563t16 39.5 39 16.5q27 0 45-20t18-54q0-86-82-141V0z"/><glyph glyph-name="uni1EEA" unicode="Ừ" horiz-adv-x="733" d="M431 723h-89L180 867h116zm346 3q0-46-28.5-88.5T668 571V267q0-129-76.5-204T367-12 142.5 63.5 66 266v401h144V271q0-72 41-114.5T367 114t115.5 42.5T523 271v396h145v-43q45 31 53 72-3-3-14-3-21 0-34.5 14.5T659 745t16.5 39 38.5 16q26 0 44.5-20t18.5-54z"/><glyph glyph-name="uni1EEB" unicode="ừ" d="M353 556h-89L102 700h116zM516 0H389v61q-65-73-170-73-78 0-117 40T63 140v343h127V190q0-89 89-89 67 0 110 55v327h127v-17q22 25 26 48-4-2-14-2-21 0-34.5 14T480 563t16 39.5 39 16.5q27 0 45-20t18-54q0-86-82-141V0z"/><glyph glyph-name="uni1EEC" unicode="Ử" horiz-adv-x="733" d="M333 749l-45 14q18 57 80 57 34 0 56.5-18t22.5-54q0-27-15-51h-55q20 21 20 48 0 32-29 32-25 0-35-28zm444-23q0-46-28.5-88.5T668 571V267q0-129-76.5-204T367-12 142.5 63.5 66 266v401h144V271q0-72 41-114.5T367 114t115.5 42.5T523 271v396h145v-43q45 31 53 72-3-3-14-3-21 0-34.5 14.5T659 745t16.5 39 38.5 16q26 0 44.5-20t18.5-54z"/><glyph glyph-name="uni1EED" unicode="ử" d="M255 579l-45 14q18 57 80 57 34 0 56.5-18t22.5-54q0-27-15-51h-55q20 21 20 48 0 32-29 32-25 0-35-28zM516 0H389v61q-65-73-170-73-78 0-117 40T63 140v343h127V190q0-89 89-89 67 0 110 55v327h127v-17q22 25 26 48-4-2-14-2-21 0-34.5 14T480 563t16 39.5 39 16.5q27 0 45-20t18-54q0-86-82-141V0z"/><glyph glyph-name="uni1EEE" unicode="Ữ" horiz-adv-x="733" d="M777 726q0-46-28.5-88.5T668 571V267q0-129-76.5-204T367-12 142.5 63.5 66 266v401h144V271q0-72 41-114.5T367 114t115.5 42.5T523 271v396h145v-43q45 31 53 72-3-3-14-3-21 0-34.5 14.5T659 745t16.5 39 38.5 16q26 0 44.5-20t18.5-54zm-353-5q-29 0-50 17t-36.5 34-30.5 17q-36 0-36-62h-67q0 64 28 99t80 35q22 0 40.5-10.5t28-23 22.5-23 25-10.5q36 0 36 61h67q0-64-27.5-99T424 721z"/><glyph glyph-name="uni1EEF" unicode="ữ" d="M516 0H389v61q-65-73-170-73-78 0-117 40T63 140v343h127V190q0-89 89-89 67 0 110 55v327h127v-17q22 25 26 48-4-2-14-2-21 0-34.5 14T480 563t16 39.5 39 16.5q27 0 45-20t18-54q0-86-82-141V0zM346 554q-29 0-50 17t-36.5 34-30.5 17q-36 0-36-62h-67q0 64 28 99t80 35q28 0 49-17t36.5-33.5T350 627q36 0 36 61h67q0-64-27.5-99T346 554z"/><glyph glyph-name="uni1EF0" unicode="Ự" horiz-adv-x="733" d="M370-196q-28 0-48 20t-20 48 20 48 48 20q27 0 47-20t20-48-20-48-47-20zm407 922q0-46-28.5-88.5T668 571V267q0-129-76.5-204T367-12 142.5 63.5 66 266v401h144V271q0-72 41-114.5T367 114t115.5 42.5T523 271v396h145v-43q45 31 53 72-3-3-14-3-21 0-34.5 14.5T659 745t16.5 39 38.5 16q26 0 44.5-20t18.5-54z"/><glyph glyph-name="uni1EF1" unicode="ự" d="M292-196q-28 0-48 20t-20 48 20 48 48 20q27 0 47-20t20-48-20-48-47-20zM516 0H389v61q-65-73-170-73-78 0-117 40T63 140v343h127V190q0-89 89-89 67 0 110 55v327h127v-17q22 25 26 48-4-2-14-2-21 0-34.5 14T480 563t16 39.5 39 16.5q27 0 45-20t18-54q0-86-82-141V0z"/><glyph glyph-name="Ygrave" unicode="Ỳ" horiz-adv-x="645" d="M394 0H252v273L-5 667h162l166-268 164 268h162L394 273V0zm-7 723h-89L136 867h116z"/><glyph glyph-name="ygrave" unicode="ỳ" horiz-adv-x="513" d="M46-189L65-75q18-8 40-8 51 0 67 35l18 41L-6 483h136l126-336 126 336h137L292-79q-25-64-70-89.5T109-196q-35 0-63 7zm273 745h-89L68 700h116z"/><glyph glyph-name="thinspace" horiz-adv-x="51"/><glyph glyph-name="endash" unicode="–" horiz-adv-x="593" d="M563 188H30v108h533V188z"/><glyph glyph-name="emdash" unicode="—" horiz-adv-x="833" d="M803 188H30v108h773V188z"/><glyph glyph-name="afii00208" unicode="―" horiz-adv-x="593" d="M563 188H30v108h533V188z"/><glyph glyph-name="quoteleft" unicode="‘" horiz-adv-x="255" d="M38 492q0 55 28 103.5t76 81.5l55-44q-25-13-48-41t-30-54q5 3 20 3 29 0 48.5-20t19.5-52-23.5-55.5T128 390q-37 0-63.5 27.5T38 492z"/><glyph glyph-name="quoteright" unicode="’" horiz-adv-x="255" d="M215 575q0-55-28-103.5T112 389l-55 45q25 13 48 41t29 54q-6-4-19-4-29 0-48.5 20.5T47 597q0 33 23 56.5t55 23.5q37 0 63.5-27.5T215 575z"/><glyph glyph-name="quotesinglbase" unicode="‚" horiz-adv-x="256" d="M215 49q0-55-28-103.5T112-137L57-92q25 13 48 40.5T134 2q-9-3-19-3-29 0-48.5 20T47 71q0 33 23 56.5t55 23.5q37 0 63.5-27.5T215 49z"/><glyph glyph-name="quotereversed" unicode="‛" horiz-adv-x="255" d="M40 575q0 47 26.5 74.5T130 677q32 0 55.5-23.5T209 597q0-31-20-51.5T140 525q-13 0-19 4 7-26 29.5-54t47.5-41l-54-45q-48 34-76 82.5T40 575z"/><glyph glyph-name="quotedblleft" unicode="“" horiz-adv-x="459" d="M40 492q0 55 27.5 103.5T143 677l55-44q-25-13-48-41t-30-54q4 3 20 3 29 0 48.5-20t19.5-52-23.5-55.5T129 390q-37 0-63 27.5T40 492zm204 0q0 55 27.5 103.5T346 677l56-44q-25-13-48.5-41T324 538q4 3 20 3 28 0 47.5-20t19.5-52-23-55.5-56-23.5q-37 0-62.5 27.5T244 492z"/><glyph glyph-name="quotedblright" unicode="”" horiz-adv-x="459" d="M418 575q0-55-27.5-103.5T315 389l-55 45q25 13 48 41t30 54q-8-4-20-4-29 0-48.5 20.5T250 597q0 33 23.5 56.5T329 677q37 0 63-27.5t26-74.5zm-203 0q0-55-28-103.5T112 389l-55 45q25 13 48 41t29 54q-6-4-19-4-29 0-48.5 20.5T47 597q0 33 23 56.5t55 23.5q37 0 63.5-27.5T215 575z"/><glyph glyph-name="quotedblbase" unicode="„" horiz-adv-x="459" d="M215 49q0-55-28-103.5T112-137L57-92q25 13 48 40.5T134 2q-9-3-19-3-29 0-48.5 20T47 71q0 33 23 56.5t55 23.5q37 0 63.5-27.5T215 49zm203 0q0-55-27.5-103.5T315-137l-55 45q25 13 48 40.5T338 2q-12-3-20-3-29 0-48.5 20T250 71q0 33 23.5 56.5T329 151q37 0 63-27.5T418 49z"/><glyph glyph-name="dagger" unicode="†" horiz-adv-x="277" d="M257 522l-89 4 4-199h-68l5 199-89-4v62l89-3-5 96h68l-4-96 89 3v-62z"/><glyph glyph-name="daggerdbl" unicode="‡" horiz-adv-x="277" d="M257 584v-62l-89 4V332l89 4v-62l-89 3 4-97h-68l4 97-88-3v62l88-4v194l-88-4v62l88-3-4 96h68l-4-96z"/><glyph glyph-name="bullet" unicode="•" horiz-adv-x="358" d="M299 242q0-49-35-83.5T180 124t-84 34.5T61 242q0 50 34.5 84.5T180 361t84.5-34.5T299 242z"/><glyph glyph-name="ellipsis" unicode="…" horiz-adv-x="768" d="M208 70q0-32-24-56t-57-24-56.5 24T47 70q0 33 23.5 57t56.5 24 57-24 24-57zm256 0q0-32-24-56t-57-24-56.5 24T303 70q0 33 23.5 57t56.5 24 57-24 24-57zm256 0q0-32-24-56t-57-24-56.5 24T559 70q0 33 23.5 57t56.5 24 57-24 24-57z"/><glyph glyph-name="perthousand" unicode="‰" horiz-adv-x="1122" d="M365 509q0-71-47-117.5T195 345q-75 0-122 46.5T26 509q0 72 47 120t122 48q76 0 123-48t47-120zm267 158L205 0h-75l426 667h76zm100-514q0-71-47.5-118T562-12 440 35t-47 118q0 72 47 120t122 48 122.5-48T732 153zM274 509q0 45-22 71t-57 26-57-26-22-71q0-43 22-68.5t57-25.5 57 25.5 22 68.5zm368-356q0 45-22.5 71T562 250t-57-26-22-71q0-44 22-69.5T562 58t57.5 26 22.5 69zm454 0q0-71-47.5-118T926-12 804 35t-47 118q0 72 47 120t122 48 122.5-48 47.5-120zm-90 0q0 45-22.5 71T926 250t-57-26-22-71q0-44 22-69.5T926 58t57.5 26 22.5 69z"/><glyph glyph-name="guilsinglleft" unicode="‹" horiz-adv-x="337" d="M307 63H190L30 243l160 177h117L147 243z"/><glyph glyph-name="guilsinglright" unicode="›" horiz-adv-x="337" d="M307 243L147 63H30l160 180L30 420h117z"/><glyph glyph-name="uni203E" unicode="‾" horiz-adv-x="363" d="M363 562H0v72h363v-72z"/><glyph glyph-name="fraction" unicode="⁄" horiz-adv-x="159" d="M331 667L-96 0h-76l426 667h77z"/><glyph glyph-name="zerosuperior" unicode="⁰" horiz-adv-x="397" d="M371 621q0-85-44.5-146T199 414q-84 0-128.5 60.5T26 621q0 85 44 145.5T199 827q83 0 127.5-60.5T371 621zm-97 0q0 129-75 129-76 0-76-129 0-130 76-130 75 0 75 130z"/><glyph glyph-name="foursuperior" unicode="⁴" horiz-adv-x="397" d="M373 507h-53v-86h-95v86H29v65l158 249h133V582h53v-75zm-148 75v158L124 582h101z"/><glyph glyph-name="fivesuperior" unicode="⁵" horiz-adv-x="397" d="M363 553q0-62-45.5-100.5T195 414q-106 0-161 61l52 63q41-47 109-47 34 0 53.5 17t19.5 42q0 27-18.5 43.5T198 610q-50 0-85-35l-67 22v224h290v-77H142v-97q35 33 91 33 55 0 92.5-33t37.5-94z"/><glyph glyph-name="sixsuperior" unicode="⁶" horiz-adv-x="397" d="M369 553q0-61-44.5-100T210 414q-91 0-136.5 57.5T28 620q0 95 53 151t145 56q72 0 122-39l-41-68q-34 30-81 30-46 0-74-30.5T124 645v-9q41 50 103 50 59 0 100.5-36t41.5-97zm-96-4q0 31-21.5 46.5T200 611q-45 0-75-35 3-36 22.5-60.5T205 491q30 0 49 18t19 40z"/><glyph glyph-name="sevensuperior" unicode="⁷" horiz-adv-x="371" d="M341 755L193 421H87l150 323H26v77h315v-66z"/><glyph glyph-name="eightsuperior" unicode="⁸" horiz-adv-x="397" d="M368 525q0-57-49-84t-121-27q-71 0-120 27t-49 84q0 35 27 63.5t68 38.5q-39 9-63.5 33.5T36 720q0 54 48 80.5T198 827q67 0 115-26.5t48-80.5q0-34-24.5-59T274 627q40-10 67-38.5t27-63.5zM266 707q0 22-18.5 34T198 753q-30 0-48.5-12T131 707q0-37 67-50 68 12 68 50zm7-172q0 26-26.5 41T198 593q-22-3-48-17.5T124 535q0-23 20.5-35.5T198 487t54 12.5 21 35.5z"/><glyph glyph-name="ninesuperior" unicode="⁹" horiz-adv-x="397" d="M28 688q0 60 44.5 99.5T188 827q91 0 136-57.5T369 620q0-94-52.5-150T173 414q-74 0-123 39l42 68q31-30 81-30 44 0 72 30t28 75v9q-39-50-102-50-59 0-101 35.5T28 688zm97 4q0-31 21.5-47t50.5-16q48 0 75 37-2 35-21 59.5T194 750q-31 0-50-17.5T125 692z"/><glyph glyph-name="parenleftsuperior" unicode="⁽" horiz-adv-x="192" d="M182 379l-57-23q-46 45-74 118.5T23 621t28 146 74 119l57-23q-61-115-61-242 0-129 61-242z"/><glyph glyph-name="parenrightsuperior" unicode="⁾" horiz-adv-x="192" d="M175 621q0-73-28-146.5T73 356l-57 23q61 113 61 242T16 863l57 23q46-46 74-119t28-146z"/><glyph glyph-name="nsuperior" unicode="ⁿ" horiz-adv-x="412" d="M361 326h-92v186q0 58-57 58-42 0-69-33V326H50v314h93v-40q42 48 112 48 55 0 80.5-28.5T361 544V326z"/><glyph glyph-name="zeroinferior" unicode="₀" horiz-adv-x="397" d="M371 54q0-85-44.5-146T199-153q-84 0-128.5 60.5T26 54q0 85 44 145.5T199 260q83 0 127.5-60.5T371 54zm-97 0q0 129-75 129-76 0-76-129 0-130 76-130 75 0 75 130z"/><glyph glyph-name="oneinferior" unicode="₁" horiz-adv-x="286" d="M226-146h-97v277L61 62 7 120l136 134h83v-400z"/><glyph glyph-name="twoinferior" unicode="₂" horiz-adv-x="397" d="M360-146H46v70Q177 16 219.5 55.5T262 128q0 27-19 41t-49 14q-33 0-63-15t-46-35l-50 61q59 66 161 66 71 0 116-33t45-92q0-47-40.5-93.5T185-69h175v-77z"/><glyph glyph-name="threeinferior" unicode="₃" horiz-adv-x="397" d="M363-35q0-53-45.5-85.5T197-153Q86-153 32-90l47 63q46-49 115-49 35 0 54 13t19 34q0 49-88 49-39 0-45-1v76q9-1 44-1 82 0 82 45 0 44-73 44-61 0-105-44l-45 57q59 64 160 64 75 0 117-29.5t42-79.5q0-35-26-60t-63-31q35-3 65.5-28.5T363-35z"/><glyph glyph-name="fourinferior" unicode="₄" horiz-adv-x="397" d="M373-60h-53v-86h-95v86H29V5l158 249h133V15h53v-75zM225 15v158L124 15h101z"/><glyph glyph-name="fiveinferior" unicode="₅" horiz-adv-x="397" d="M363-14q0-62-45.5-100.5T195-153Q89-153 34-92l52 63q41-47 109-47 34 0 53.5 17T268-17q0 27-18.5 43.5T198 43q-50 0-85-35L46 30v224h290v-77H142V80q35 33 91 33 55 0 92.5-33T363-14z"/><glyph glyph-name="sixinferior" unicode="₆" horiz-adv-x="397" d="M369-14q0-61-44.5-100T210-153q-91 0-136.5 57.5T28 53q0 95 53 151t145 56q72 0 122-39l-41-68q-34 30-81 30-46 0-74-30.5T124 78v-9q41 50 103 50 59 0 100.5-36T369-14zm-96-4q0 31-21.5 46.5T200 44q-45 0-75-35 3-36 22.5-60.5T205-76q30 0 49 18t19 40z"/><glyph glyph-name="seveninferior" unicode="₇" horiz-adv-x="371" d="M341 188L193-146H87l150 323H26v77h315v-66z"/><glyph glyph-name="eightinferior" unicode="₈" horiz-adv-x="397" d="M368-42q0-57-49-84t-121-27q-71 0-120 27T29-42q0 35 27 63.5T124 60q-39 9-63.5 33.5T36 153q0 54 48 80.5T198 260q67 0 115-26.5t48-80.5q0-35-24.5-59T274 60q40-10 67-38.5T368-42zM266 140q0 22-18.5 34T198 186q-30 0-48.5-12T131 140q0-37 67-50 68 12 68 50zm7-172q0 26-26.5 41T198 26q-22-3-48-17.5T124-32q0-23 20.5-35.5T198-80t54 12.5T273-32z"/><glyph glyph-name="nineinferior" unicode="₉" horiz-adv-x="397" d="M28 121q0 60 44.5 99.5T188 260q91 0 136-57.5T369 53q0-94-52.5-150T173-153q-74 0-123 39l42 68q31-30 81-30 44 0 72 30t28 75v9q-39-50-102-50-59 0-101 35.5T28 121zm97 4q0-31 21.5-47T197 62q48 0 75 37-2 35-21 59.5T194 183q-31 0-50-17.5T125 125z"/><glyph glyph-name="parenleftinferior" unicode="₍" horiz-adv-x="192" d="M182-188l-57-23Q79-166 51-92.5T23 54t28 146 74 119l57-23q-61-115-61-242 0-129 61-242z"/><glyph glyph-name="parenrightinferior" unicode="₎" horiz-adv-x="192" d="M175 54q0-73-28-146.5T73-211l-57 23Q77-75 77 54T16 296l57 23q46-46 74-119t28-146z"/><glyph glyph-name="colonmonetary" unicode="₡" horiz-adv-x="696" d="M397-12q-1 0-4 .5t-5 .5l-30-89h-72l32 96q-30 5-63 17l-38-113h-72l48 145Q122 91 82 165.5T42 333q0 152 101.5 248.5T397 678h6l30 90h72l-33-98q34-8 63-21l39 119h72l-52-156q49-39 82-97l-122-60q-2 4-8 12L431 117q40 8 72.5 33.5T554 211l122-59Q581-12 397-12zM188 333q0-87 51-149l121 365q-77-12-124.5-71.5T188 333zm109-195q29-15 62-21l134 405q-28 18-61 26z"/><glyph glyph-name="frenchfranc" unicode="₣" horiz-adv-x="580" d="M216 0H74v109H8v72h66v486h472V542H216V401h323V276H216v-95h155v-72H216V0z"/><glyph glyph-name="lira" unicode="₤" horiz-adv-x="550" d="M23 333v66h38q-16 34-16 71 0 91 74 149t169 58q169 0 232-121l-113-66q-13 32-40.5 51.5T305 561q-45 0-75-26t-30-68q0-34 18-68h175v-66H259q14-29 19-52h115v-65H276q-15-49-59-77 21 7 49 7 30 0 68-16.5t62-16.5q59 0 86 37l56-113q-48-50-147-50-47 0-100.5 22T210 31Q163 31 94-7L46 90q109 53 109 125v1H23v65h114q-11 22-34 52H23z"/><glyph glyph-name="uni20A6" unicode="₦" horiz-adv-x="747" d="M671 0H534L365 230H216V0H74v230H8v72h66v67H8v72h66v226h146l167-226h142v226h142V441h66v-72h-66v-67h66v-72h-66V0zM216 369v-67h97l-49 67h-48zm224 0l49-67h40v67h-89z"/><glyph glyph-name="peseta" unicode="₧" horiz-adv-x="677" d="M673 406h-65q-12-82-70.5-134.5T386 219H217V0H74v406H8v75h66v186h312q93 0 151.5-52T608 481h65v-75zm-306-62q70 0 92 62H217v-62h150zM217 542v-61h241q-21 61-91 61H217z"/><glyph glyph-name="rupee" unicode="₨" horiz-adv-x="1072" d="M831-12q-63 0-120.5 20T615 63l55 89q28-26 76-46t91-20q40 0 60.5 14t20.5 38q0 18-21.5 29.5t-53 16.5-69 15-69 24-53 44.5T631 343q0 64 53 108t145 44q112 0 195-66l-51-87q-23 24-61.5 40T830 398q-34 0-55-13.5T754 350q0-16 21-26.5t53-15.5 69-15.5 69-25 53-46.5 21-78q0-68-55.5-111.5T831-12zM606 0H443L312 237H208V0H66v667h312q103 0 163.5-60T602 452q0-82-42.5-133T456 254zM357 362q44 0 72 24.5t28 65.5-28 65.5-72 24.5H208V362h149z"/><glyph glyph-name="uni20A9" unicode="₩" horiz-adv-x="918" d="M727 0H576l-59 231H401L343 0H192l-66 231H13v72h92l-19 66H13v72h53L1 667h159l55-226h129l60 226h111l59-226h129l54 226h160l-64-226h53v-72h-74l-19-66h93v-72H793zM232 369l16-66h60l17 66h-93zm361 0l17-66h59l16 66h-92zm-157 0l-17-66h80l-17 66h-46zm193-138l12-46 11 46h-23zm-363 0l11-46 12 46h-23zm193 227l-5-17h9z"/><glyph glyph-name="afii57636" unicode="₪" horiz-adv-x="845" d="M548 0H261v373h121V110h166q62 0 88 29t26 90v321h120V219q0-108-53.5-163.5T548 0zM349 550q126 0 180-55.5T583 331V176H463v144q0 62-26 91t-88 29H183V0H63v550h286z"/><glyph glyph-name="dong" unicode="₫" horiz-adv-x="590" d="M486-171H123v72h363v-72zM523 0H395v62q-59-74-149-74-94 0-154 67.5T32 241q0 116 60 185t154 69q92 0 149-74v107H250v72h145v67h128v-67h58v-72h-58V0zM285 101q32 0 63 15.5t47 39.5v171q-16 24-47 39.5T285 382q-54 0-88-39t-34-102q0-62 34-101t88-39z"/><glyph glyph-name="Euro" unicode="€" horiz-adv-x="709" d="M412-12q-122 0-214.5 64.5T72 226H21v76h37q-1 10-1 31 0 23 1 34H21v75h52q33 108 125 172t214 64q187 0 279-163l-122-60q-22 42-64.5 69.5T412 552q-61 0-109-29.5T228 442h245v-75H205q-2-11-2-34 0-11 2-31h268v-76H227q26-52 75-82t110-30q50 0 92.5 27t64.5 70l122-59Q596-12 412-12z"/><glyph glyph-name="afii61289" unicode="ℓ" horiz-adv-x="526" d="M190 244V143q0-24 12-39t33-15q25 0 43 15l27-85q-32-31-105-31-64 0-100.5 32T63 120v367q0 82 64 136t165 54q86 0 147.5-41T501 532q0-51-40-93t-112-90zm0 118l116 77q41 27 57.5 45.5T380 526q0 28-27 45t-63 17q-45 0-72.5-27T190 487V362z"/><glyph glyph-name="afii61352" unicode="№" horiz-adv-x="1134" d="M931 350q-77 0-124.5 48T759 515t47.5 117T931 680q78 0 125.5-48t47.5-117-47.5-117T931 350zm0 74q36 0 57 24.5t21 66.5q0 41-20.5 65T931 604q-36 0-56.5-23.5T854 515t20.5-66.5T931 424zM663 0H526L208 435V0H66v667h146l309-419v419h142V0z"/><glyph glyph-name="published" unicode="℗" horiz-adv-x="778" d="M734 334q0-142-101-243.5T389-11 145 90.5 44 334t101 243.5T389 679t244-101.5T734 334zm-36 0q0 127-91 218t-218 91-218-91-91-218 91-218 218-91 218 91 91 218zm-144 82q0-52-37-85t-89-33H316V131h-46v405h158q52 0 89-33t37-87zm-47 0q0 34-23 56t-56 22H316V339h112q33 0 56 21.5t23 55.5z"/><glyph glyph-name="servicemark" unicode="℠" horiz-adv-x="476" d="M439 447h-28v182l-75-182h-8l-75 182V447h-28v220h43l64-160 64 160h43V447zm-251 59q0-31-22.5-49T101 439q-55 0-86 36l18 21q28-32 68-32 54 0 54 39 0 19-21.5 30T87 548t-46.5 19.5T19 610q0 28 22.5 45.5T99 673q55 0 82-32l-18-19q-23 27-63 27-21 0-34.5-10T52 613q0-17 21-27t47-14.5 47-20.5 21-45z"/><glyph glyph-name="trademark" unicode="™" horiz-adv-x="454" d="M419 447h-28v182l-75-182h-8l-75 182V447h-28v220h43l64-160 64 160h43V447zM169 641h-62V447H79v194H17v26h152v-26z"/><glyph glyph-name="Omega" unicode="Ω" horiz-adv-x="765" d="M52 125h119Q34 218 34 366q0 141 98 226.5T382 678q153 0 251-85.5T731 366q0-149-136-241h119V0H444v125q63 17 102 74.5T585 334q0 88-52 152.5T382 551t-150.5-64.5T180 334q0-77 39-134.5T321 125V0H52v125z"/><glyph glyph-name="estimated" unicode="℮" horiz-adv-x="842" d="M811 324H179q-5 0-5-5V129q0-14 9-23Q281 3 423 3q151 0 250 115h57q-54-63-135-99.5T421-18Q260-18 145.5 85T31 333t114.5 248T421 684t275.5-103T811 333v-9zm-143 25v191q0 14-10 24-97 99-235 99-140 0-239-102-10-10-10-24V349q0-6 5-6h485q4 0 4 6z"/><glyph glyph-name="onethird" unicode="⅓" horiz-adv-x="867" d="M226 267h-97v277l-68-69-54 58 136 134h83V267zm415 400L214 0h-76l426 667h77zm191-556q0-53-45.5-85.5T666-7Q555-7 501 56l47 63q46-49 115-49 35 0 54 13t19 34q0 49-88 49-39 0-45-1v76q9-1 44-1 82 0 82 45 0 44-73 44-61 0-105-44l-45 57q59 64 160 64 75 0 117-29.5t42-79.5q0-35-26-60t-63-31q35-3 65.5-28.5T832 111z"/><glyph glyph-name="twothirds" unicode="⅔" horiz-adv-x="954" d="M360 267H46v70q131 92 173.5 131.5T262 541q0 27-19 41t-49 14q-33 0-63-15t-46-35l-50 61q59 66 161 66 71 0 116-33t45-92q0-47-40.5-93.5T185 344h175v-77zm368 400L301 0h-76l426 667h77zm192-556q0-53-45.5-85.5T754-7Q643-7 589 56l47 63q46-49 115-49 35 0 54 13t19 34q0 49-88 49-39 0-45-1v76q9-1 44-1 82 0 82 45 0 44-73 44-61 0-105-44l-45 57q59 64 160 64 75 0 117-29.5t42-79.5q0-35-26-60t-63-31q35-3 65.5-28.5T920 111z"/><glyph glyph-name="oneeighth" unicode="⅛" horiz-adv-x="867" d="M226 267h-97v277l-68-69-54 58 136 134h83V267zm611-163q0-57-49-84T667-7q-71 0-120 27t-49 84q0 35 27 63.5t68 38.5q-39 9-63.5 33.5T505 299q0 54 48 80.5T667 406q67 0 115-26.5t48-80.5q0-35-24.5-59T743 206q40-10 67-38.5t27-63.5zM735 286q0 22-18.5 34T667 332q-30 0-48.5-12T600 286q0-37 67-50 68 12 68 50zm7-172q0 26-26.5 41T667 172q-22-3-48-17.5T593 114q0-23 20.5-35.5T667 66t54 12.5 21 35.5zM641 667L214 0h-76l426 667h77z"/><glyph glyph-name="threeeighths" unicode="⅜" horiz-adv-x="954" d="M925 104q0-57-49-84T755-7q-71 0-120 27t-49 84q0 35 27 63.5t68 38.5q-39 9-63.5 33.5T593 299q0 54 48 80.5T755 406q67 0 115-26.5t48-80.5q0-35-24.5-59T831 206q40-10 67-38.5t27-63.5zM823 286q0 22-18.5 34T755 332q-30 0-48.5-12T688 286q0-37 67-50 68 12 68 50zm7-172q0 26-26.5 41T755 172q-22-3-48-17.5T681 114q0-23 20.5-35.5T755 66t54 12.5 21 35.5zM728 667L301 0h-76l426 667h77zM363 378q0-53-45.5-85.5T197 260q-111 0-165 63l47 63q46-49 115-49 35 0 54 13t19 34q0 49-88 49-39 0-45-1v76q9-1 44-1 82 0 82 45 0 44-73 44-61 0-105-44l-45 57q59 64 160 64 75 0 117-29.5t42-79.5q0-35-26-60t-63-31q35-3 65.5-28.5T363 378z"/><glyph glyph-name="fiveeighths" unicode="⅝" horiz-adv-x="948" d="M918 104q0-57-49-84T748-7q-71 0-120 27t-49 84q0 35 27 63.5t68 38.5q-39 9-63.5 33.5T586 299q0 54 48 80.5T748 406q67 0 115-26.5t48-80.5q0-35-24.5-59T824 206q40-10 67-38.5t27-63.5zM816 286q0 22-18.5 34T748 332q-30 0-48.5-12T681 286q0-37 67-50 68 12 68 50zm7-172q0 26-26.5 41T748 172q-22-3-48-17.5T674 114q0-23 20.5-35.5T748 66t54 12.5 21 35.5zM363 399q0-62-45.5-100.5T195 260q-106 0-161 61l52 63q41-47 109-47 34 0 53.5 17t19.5 42q0 27-18.5 43.5T198 456q-50 0-85-35l-67 22v224h290v-77H142v-97q35 33 91 33 55 0 92.5-33t37.5-94zm359 268L295 0h-76l426 667h77z"/><glyph glyph-name="seveneighths" unicode="⅞" horiz-adv-x="873" d="M843 104q0-57-49-84T673-7q-71 0-120 27t-49 84q0 35 27 63.5t68 38.5q-39 9-63.5 33.5T511 299q0 54 48 80.5T673 406q67 0 115-26.5t48-80.5q0-35-24.5-59T749 206q40-10 67-38.5t27-63.5zM741 286q0 22-18.5 34T673 332q-30 0-48.5-12T606 286q0-37 67-50 68 12 68 50zm7-172q0 26-26.5 41T673 172q-22-3-48-17.5T599 114q0-23 20.5-35.5T673 66t54 12.5 21 35.5zM341 601L193 267H87l150 323H26v77h315v-66zm306 66L220 0h-76l426 667h77z"/><glyph glyph-name="arrowleft" unicode="←" horiz-adv-x="582" d="M538 211H269l12-130L0 286l281 204-12-129h269V211z"/><glyph glyph-name="arrowup" unicode="↑" horiz-adv-x="582" d="M216 17v269L86 274l205 281 204-281-129 12V17H216z"/><glyph glyph-name="arrowright" unicode="→" horiz-adv-x="582" d="M584 286L303 81l12 130H47v150h268l-12 129z"/><glyph glyph-name="arrowdown" unicode="↓" horiz-adv-x="582" d="M366 555V286l130 12L291 17 87 298l129-12v269h150z"/><glyph glyph-name="partialdiff" unicode="∂" horiz-adv-x="574" d="M287-12q-116 0-185.5 68.5T32 224q0 98 61.5 167T246 460q104 0 154-79-60 149-220 232l102 71q106-63 183.5-178.5T543 256q0-121-68.5-194.5T287-12zm0 113q58 0 91 35t33 88-33 88-91 35-90.5-34.5T164 224t32.5-88.5T287 101z"/><glyph glyph-name="Delta" unicode="∆" horiz-adv-x="684" d="M688 0H-5l258 667h178zM488 125L342 525 196 125h292z"/><glyph glyph-name="product" unicode="∏" horiz-adv-x="788" d="M659-90H516v632H272V-90H129v632H25v125h738V542H659V-90z"/><glyph glyph-name="summation" unicode="∑" horiz-adv-x="586" d="M224 542l199-246L217 35h323V-90H45V35l203 260L46 542v125h494V542H224z"/><glyph glyph-name="minus" unicode="−" horiz-adv-x="504" d="M475 297H29v79h446v-79z"/><glyph glyph-name="uni2215" unicode="∕" horiz-adv-x="159" d="M331 667L-96 0h-76l426 667h77z"/><glyph glyph-name="uni2219" unicode="∙" horiz-adv-x="256" d="M209 244q0-32-24-56t-57-24-57 24-24 56q0 33 24 57t57 24 57-24 24-57z"/><glyph glyph-name="radical" unicode="√" horiz-adv-x="682" d="M404 0h-84L208 302 77 255l-25 75 211 73 101-276 198 540h95z"/><glyph glyph-name="infinity" unicode="∞" horiz-adv-x="690" d="M195 158q-82 0-124 53T29 335q0 72 42 124.5T195 512q49 0 88.5-28t61.5-72q22 44 61.5 72t87.5 28q83 0 125-52.5T661 335t-42-124.5T494 158q-48 0-87.5 28T345 258q-22-44-61.5-72T195 158zm289 79q41 0 66.5 26.5T576 335t-25.5 72-66.5 27q-35 0-61.5-28T381 335q15-43 41.5-70.5T484 237zm-277-1q35 0 61 28t41 71q-15 43-41 71t-61 28q-42 0-68-27t-26-72q0-44 26.5-71.5T207 236z"/><glyph glyph-name="integral" unicode="∫" horiz-adv-x="373" d="M78-100H17v85h61q26 0 44.5 21T141 60v548q0 72 45.5 116T295 768h61v-85h-61q-26 0-44-20.5T233 609V59q0-71-46-115T78-100z"/><glyph glyph-name="approxequal" unicode="≈" horiz-adv-x="504" d="M29 201v85q49-30 112-30 45 0 104.5 26T363 308q64 0 112-24v-85q-49 30-112 30-45 0-105-26t-117-26q-62 0-112 24zm0 182v86q49-30 112-30 45 0 104.5 26T363 491q59 0 112-23v-86q-49 30-112 30-45 0-105-25.5T141 361q-63 0-112 22z"/><glyph glyph-name="notequal" unicode="≠" horiz-adv-x="504" d="M137 93H61l68 108H29v78h150l70 109H29v80h270l68 106h77l-68-106h99v-80H326l-71-109h220v-78H205z"/><glyph glyph-name="lessequal" unicode="≤" horiz-adv-x="504" d="M475 110L29 308v92l446 200v-95L120 354l355-151v-93zm0-110H29v78h446V0z"/><glyph glyph-name="greaterequal" unicode="≥" horiz-adv-x="504" d="M474 308L28 110v93l356 151L28 505v95l446-200v-92zm1-308H28v78h447V0z"/><glyph glyph-name="triangleright" unicode="⊲" horiz-adv-x="587" d="M589 286L54-23v618z"/><glyph glyph-name="triangleleft" unicode="⊳" horiz-adv-x="587" d="M535 595V-23L0 286z"/><glyph glyph-name="dotmath" unicode="⋅" horiz-adv-x="256" d="M209 244q0-32-24-56t-57-24-57 24-24 56q0 33 24 57t57 24 57-24 24-57z"/><glyph glyph-name="uni2318" unicode="⌘" horiz-adv-x="667" d="M219 154v66h-67q-27 0-46-19.5T87 154q0-28 19-47.5T153 87q27 0 46.5 19.5T219 154zm0 293v67q0 27-19 46.5T154 580q-28 0-47.5-19.5T87 514q0-28 19.5-47.5T154 447h65zm46-182h137v137H265V265zm314-111q0 27-19 46.5T514 220h-66v-66q0-28 19-47.5T514 87q27 0 46 19.5t19 47.5zm0 360q0 27-19 46.5T514 580q-28 0-47-19.5T448 514v-67h66q27 0 46 19.5t19 47.5zm46-360q0-46-32.5-79T514 42t-79 33-33 79v66H265v-66q0-46-33-79t-79-33-78.5 33T42 154t32.5 78.5T153 265h66v137h-65q-46 0-79 33t-33 79 33 78.5 79 32.5 78.5-32.5T265 514v-67h137v67q0 46 33 78.5t79 32.5 78.5-32.5T625 514t-32.5-79-78.5-33h-66V265h66q46 0 78.5-32.5T625 154z"/><glyph glyph-name="blacksquare" unicode="■" horiz-adv-x="661" d="M618 0H47v572h571V0z"/><glyph glyph-name="triagup" unicode="▲" horiz-adv-x="616" d="M617 29L-2 30l309 535z"/><glyph glyph-name="triagdn" unicode="▼" horiz-adv-x="616" d="M617 510L307-25-2 510h619z"/><glyph glyph-name="lozenge" unicode="◊" horiz-adv-x="375" d="M198 0h-21L19 334l158 333h21l158-333zm-10 41l132 293-133 292L55 334z"/><glyph glyph-name="circlesolid" unicode="●" horiz-adv-x="695" d="M644 285q0-123-87-210T347-12 137 75 50 285t87 210 210 87 210-87 87-210z"/><glyph glyph-name="blackstar" unicode="★" horiz-adv-x="759" d="M759 421L524 250l90-275-235 170L145-25l89 275L0 421h290l89 276 90-276h290z"/><glyph glyph-name="ballotbox" unicode="☐" horiz-adv-x="661" d="M616 0H45v572h571V0zm-86 78v415H131V78h399z"/><glyph glyph-name="boxchecked" unicode="☑" horiz-adv-x="661" d="M616 0H45v572h486l92 167 68-41-75-139V0zm-86 78v323L362 91 160 337l61 57 129-155 138 254H131V78h399z"/><glyph glyph-name="diamond" unicode="♦" horiz-adv-x="501" d="M501 285L250 35 0 285l250 251z"/><glyph glyph-name="checkmark" unicode="✓" horiz-adv-x="531" d="M531 698L202 91 0 337l61 57 129-155 273 500z"/><glyph glyph-name="perthousand.onum" unicode="" horiz-adv-x="905" d="M295 423q0-59-37.5-98T159 286q-60 0-97.5 39T24 423t37.5 99 97.5 40 98-40 38-99zm294-296q0-59-37.5-98T453-10q-60 0-97.5 39T318 127t37.5 99 97.5 40q61 0 98.5-39.5T589 127zm-55 423L151 0H80l382 550h72zM219 423q0 33-17 53t-43 20q-25 0-41.5-20T101 423q0-32 16.5-51.5T159 352q26 0 43 19.5t17 51.5zm293-296q0 33-16.5 52.5T453 199t-42.5-19.5T394 127q0-31 16.5-51T453 56t42.5 19.5T512 127zm368 0q0-59-37.5-98T745-10t-97.5 39.5T610 127q0 59 37.5 99t97.5 40 97.5-40 37.5-99zm-75 0q0 33-16.5 52.5T745 199q-26 0-42.5-19.5T686 127q0-32 16.5-51.5T745 56t43 20 17 51z"/><glyph glyph-name="uniF637" unicode="" horiz-adv-x="411" d="M361 326h-93v188q0 56-57 56-42 0-69-33V326H50v434h92V600q42 48 112 48 53 0 80-27t27-76V326z"/><glyph glyph-name="zero.tzero" unicode="" horiz-adv-x="623" d="M312-12q-85 0-148 44L143 0H43l61 93q-68 96-68 240 0 90 28 166t92.5 127T312 677q85 0 146-44l22 34h100l-62-94q70-97 70-240 0-90-28.5-166T467 39.5 312-12zm0 126q68 0 99.5 60T443 333q0 59-12 107L236 142q31-28 76-28zM180 333q0-63 11-107l195 297q-30 28-74 28-68 0-100-59.5T180 333z"/><glyph glyph-name="zero.tnum" unicode="" horiz-adv-x="623" d="M312-12q-91 0-155.5 51.5T64 167 36 333t28 166 92.5 127T312 677t155-51 92.5-127T588 333t-28.5-166T467 39.5 312-12zm0 126q68 0 99.5 60T443 333t-31.5 158.5T312 551t-100-59.5T180 333t32-159 100-60z"/><glyph glyph-name="two.tnum" unicode="" horiz-adv-x="623" d="M569 0H67v111q214 159 283.5 226.5T420 464q0 41-32 64t-76 23q-105 0-179-77l-81 94q47 54 115.5 81.5T309 677q110 0 182.5-58T564 464q0-82-64.5-160.5T297 125h272V0z"/><glyph glyph-name="three.tnum" unicode="" horiz-adv-x="623" d="M308-12q-88 0-156 29.5T45 95l74 95q34-35 84-55.5T303 114q60 0 93 23.5t33 61.5q0 40-32 58.5T295 276q-63 0-83-2v128q12-1 83-1 123 0 123 71 0 38-34.5 58.5T294 551q-97 0-169-69l-71 89q94 106 255 106 117 0 184.5-49T561 496q0-60-43-100.5T415 344q59-6 107.5-48.5T571 184q0-87-72-141.5T308-12z"/><glyph glyph-name="four.tnum" unicode="" horiz-adv-x="623" d="M496 0H354v138H35v112l265 417h196V263h86V138h-86V0zM354 263v278L174 263h180z"/><glyph glyph-name="five.tnum" unicode="" horiz-adv-x="623" d="M311-12Q146-12 54 88l79 99q70-73 177-73 57 0 90.5 28.5T434 213q0 45-32 72t-88 27q-83 0-140-54l-99 26v383h458V542H217V379q56 56 147 56 89 0 151.5-59T578 219q0-106-73-168.5T311-12z"/><glyph glyph-name="six.tnum" unicode="" horiz-adv-x="623" d="M332-12q-144 0-216 96T44 332q0 155 83 250t228 95q116 0 197-69l-64-109q-55 52-133 52-73 0-120-54.5T188 362q0-9 1-14 25 36 72 61t99 25q95 0 161-57.5T587 217q0-99-71-164T332-12zm-8 126q54 0 86.5 30t32.5 68q0 49-36 74.5T319 312q-80 0-130-63 5-56 38-95.5t97-39.5z"/><glyph glyph-name="seven.tnum" unicode="" horiz-adv-x="623" d="M315 0H159l239 542H62v125h501v-99z"/><glyph glyph-name="eight.tnum" unicode="" horiz-adv-x="623" d="M311-12q-113 0-190.5 48T43 173q0 58 40 103.5T186 344Q54 390 54 501q0 87 76.5 131.5T311 677q66 0 122-17t95.5-58.5T568 501q0-110-133-157 63-22 103.5-67.5T579 173q0-88-78-136.5T311-12zm0 412q41 6 76.5 26t35.5 53q0 35-31 55.5T311 555t-81.5-20.5T198 479q0-33 36-53t77-26zm0-290q52 0 88 22.5t36 58.5q0 37-40.5 60T311 280q-43-6-83.5-29T187 191q0-36 35.5-58.5T311 110z"/><glyph glyph-name="nine.tnum" unicode="" horiz-adv-x="623" d="M270-11Q151-11 74 58l63 109q55-52 133-52t122.5 55.5T437 303v15q-26-36-73-61t-99-25q-95 0-161.5 57.5T37 449q0 99 71.5 164T293 678q97 0 163.5-48t95-123.5T580 333q0-154-82.5-249T270-11zm35 365q80 0 131 62-5 56-38 96t-98 40q-54 0-86-30t-32-68q0-49 36-74.5t87-25.5z"/><glyph glyph-name="percent.onum" unicode="" horiz-adv-x="613" d="M295 423q0-59-37.5-98T159 286q-60 0-97.5 39T24 423t37.5 99 97.5 40 98-40 38-99zm294-296q0-59-37.5-98T453-10q-60 0-97.5 39T318 127t37.5 99 97.5 40q61 0 98.5-39.5T589 127zm-55 423L150 0H79l383 550h72zM219 423q0 33-17 53t-43 20q-25 0-41.5-20T101 423q0-31 16.5-51t41.5-20q26 0 43 20t17 51zm293-296q0 33-16.5 52.5T453 199t-42.5-19.5T394 127q0-32 16.5-51.5T453 56t42.5 19.5T512 127z"/><glyph glyph-name="zero.tonum" unicode="" horiz-adv-x="623" d="M588 275q0-121-71-204T312-12 107 71 36 275q0 122 71 204.5T312 562t205-82.5T588 275zm-145 0q0 70-34 115.5T312 436t-97.5-45.5T180 275t34.5-115.5T312 114t97 45.5T443 275z"/><glyph glyph-name="one.tonum" unicode="" horiz-adv-x="623" d="M451 0H309v367L198 254l-81 85 210 211h124V0z"/><glyph glyph-name="two.tonum" unicode="" horiz-adv-x="623" d="M541 0H72v112q177 60 257 123.5T409 355q0 36-29 58.5T308 436q-105 0-177-77l-81 94q47 54 116.5 81.5T310 562q111 0 177-50t66-133q0-75-66-145.5T328 125h213V0z"/><glyph glyph-name="three.tonum" unicode="" horiz-adv-x="623" d="M308-127q-88 0-156 29.5T45-20l74 95q34-35 84-55.5T303-1q60 0 93 23.5T429 84q0 40-32 58.5T295 161q-63 0-83-2v128q12-1 83-1 123 0 123 71 0 38-34.5 58.5T294 436q-97 0-169-69l-71 89q94 106 255 106 117 0 184.5-49T561 381q0-60-43-100.5T415 229q59-6 107.5-48.5T571 69q0-87-72-141.5T308-127z"/><glyph glyph-name="four.tonum" unicode="" horiz-adv-x="623" d="M582 27h-86v-144H354V27H35v113l265 410h196V152h86V27zM354 152v272L174 152h180z"/><glyph glyph-name="five.tonum" unicode="" horiz-adv-x="623" d="M311-129Q146-129 54-29l79 99Q203-3 310-3q57 0 90.5 28.5T434 96q0 45-32 72t-88 27q-83 0-140-54l-99 26v383h458V425H217V262q56 56 147 56 89 0 151.5-59T578 102q0-106-73-168.5T311-129z"/><glyph glyph-name="six.tonum" unicode="" horiz-adv-x="623" d="M332-12q-144 0-216 96T44 332q0 155 83 250t228 95q116 0 197-69l-64-109q-55 52-133 52-73 0-120-54.5T188 362q0-9 1-14 25 36 72 61t99 25q95 0 161-57.5T587 217q0-99-71-164T332-12zm-8 126q54 0 86.5 30t32.5 68q0 49-36 74.5T319 312q-80 0-130-63 5-56 38-95.5t97-39.5z"/><glyph glyph-name="seven.tonum" unicode="" horiz-adv-x="623" d="M315-117H159l239 542H62v125h501v-99z"/><glyph glyph-name="eight.tonum" unicode="" horiz-adv-x="623" d="M311-12q-113 0-190.5 48T43 173q0 58 40 103.5T186 344Q54 390 54 501q0 87 76.5 131.5T311 677q66 0 122-17t95.5-58.5T568 501q0-110-133-157 63-22 103.5-67.5T579 173q0-88-78-136.5T311-12zm0 412q41 6 76.5 26t35.5 53q0 35-31 55.5T311 555t-81.5-20.5T198 479q0-33 36-53t77-26zm0-290q52 0 88 22.5t36 58.5q0 37-40.5 60T311 280q-43-6-83.5-29T187 191q0-36 35.5-58.5T311 110z"/><glyph glyph-name="nine.tonum" unicode="" horiz-adv-x="623" d="M270-127q-119 0-196 69l63 109Q192-1 270-1t122.5 55.5T437 187v15q-26-36-73-61t-99-25q-95 0-161.5 57.5T37 333q0 99 71.5 164T293 562q97 0 163.5-48t95-123.5T580 217q0-154-82.5-249T270-127zm35 365q80 0 131 62-5 56-38 96t-98 40q-54 0-86-30t-32-68q0-49 36-74.5t87-25.5z"/><glyph glyph-name="colonmonetary.onum" unicode="" horiz-adv-x="585" d="M126-53l30 90q-58 38-91 99.5T32 275q0 126 85 206.5T331 562h4l13 37h57l-15-43q29-7 47-14l19 57h58l-28-83q50-35 83-94l-110-53q-13 20-15 23l-98-287q79 8 113 75l110-51q-33-63-93.5-102T331-12q-4 0-12.5.5T306-11l-14-42h-57l17 50q-25 6-47 15l-22-65h-57zm119 180q21-12 45-18l108 320q-21 12-45 15zm-79 148q0-62 35-108l93 275q-57-12-92.5-58T166 275z"/><glyph glyph-name="Euro.onum" unicode="" horiz-adv-x="610" d="M399 301H192q-1-9-1-26 0-19 2-28h206v-54H209q21-41 59.5-65t87.5-24q42 0 76.5 21t51.5 55l110-51q-33-63-93.5-102T356-12q-106 0-184 56T68 193H21v54h37q-1 9-1 28 0 17 1 26H21v55h46q26 94 104.5 150T356 562q84 0 144-39t94-101l-110-53q-19 34-53 55.5T356 446q-49 0-88-24.5T209 356h190v-55z"/><glyph glyph-name="florin.onum" unicode="" horiz-adv-x="397" d="M158-119H13l72 322H43v90h62l23 102q37 166 175 166 66 0 104-39l-45-102q-10 16-35 16-45 0-59-63l-18-80h84v-90H230z"/><glyph glyph-name="numbersign.onum" unicode="" horiz-adv-x="517" d="M500 402l-21-69h-79l-39-113h81l-22-70h-82L288 0h-85l50 150h-76L128 0H43l49 150H17l21 70h79l38 113H76l21 69h81l50 148h85l-51-148h76l51 148h85l-51-148h77zm-186-69h-75l-38-113h75z"/><glyph glyph-name="sterling.onum" unicode="" horiz-adv-x="450" d="M16 224v69h46q-28 49-28 93 0 76 59.5 125.5T232 561q138 0 192-97l-98-52q-24 55-81 55-34 0-57-23t-23-60q0-38 30-91h126v-69h-93q4-20 4-30 0-25-13-47.5T189 112q9 4 20 4 26 0 58.5-12T319 92q46 0 70 29l50-90q-39-41-124-41-38 0-81 16t-68 16q-31 0-91-29L33 73q41 18 64.5 42t23.5 49q0 24-19 60H16z"/><glyph glyph-name="yen.onum" unicode="" horiz-adv-x="565" d="M349 0H218v108H25v67h193v50H25v68h147L-5 550h149l140-213 137 213h149L394 293h144v-68H349v-50h189v-67H349V0z"/><glyph glyph-name="cent.onum" unicode="" horiz-adv-x="585" d="M282-83v75Q171 7 101.5 84.5T32 275t69.5 190.5T282 558v65h92v-64q131-19 195-137l-110-53q-30 54-85 70V110q59 17 85 70l110-51Q505 9 374-9v-74h-92zM166 275q0-60 32-104.5t84-59.5v328q-52-16-84-60.5T166 275z"/><glyph glyph-name="zero.dnom" unicode="" horiz-adv-x="397" d="M371 200q0-85-44.5-146T199-7Q115-7 70.5 53.5T26 200q0 85 44 145.5T199 406q83 0 127.5-60.5T371 200zm-97 0q0 129-75 129-76 0-76-129 0-130 76-130 75 0 75 130z"/><glyph glyph-name="one.dnom" unicode="" horiz-adv-x="286" d="M226 0h-97v277l-68-69-54 58 136 134h83V0z"/><glyph glyph-name="two.dnom" unicode="" horiz-adv-x="397" d="M360 0H46v70q131 92 173.5 131.5T262 274q0 27-19 41t-49 14q-33 0-63-15t-46-35l-50 61q59 66 161 66 71 0 116-33t45-92q0-47-40.5-93.5T185 77h175V0z"/><glyph glyph-name="three.dnom" unicode="" horiz-adv-x="397" d="M363 111q0-53-45.5-85.5T197-7Q86-7 32 56l47 63q46-49 115-49 35 0 54 13t19 34q0 49-88 49-39 0-45-1v76q9-1 44-1 82 0 82 45 0 44-73 44-61 0-105-44l-45 57q59 64 160 64 75 0 117-29.5t42-79.5q0-35-26-60t-63-31q35-3 65.5-28.5T363 111z"/><glyph glyph-name="four.dnom" unicode="" horiz-adv-x="397" d="M373 86h-53V0h-95v86H29v65l158 249h133V161h53V86zm-148 75v158L124 161h101z"/><glyph glyph-name="five.dnom" unicode="" horiz-adv-x="397" d="M363 132q0-62-45.5-100.5T195-7Q89-7 34 54l52 63q41-47 109-47 34 0 53.5 17t19.5 42q0 27-18.5 43.5T198 189q-50 0-85-35l-67 22v224h290v-77H142v-97q35 33 91 33 55 0 92.5-33t37.5-94z"/><glyph glyph-name="six.dnom" unicode="" horiz-adv-x="397" d="M369 132q0-61-44.5-100T210-7Q119-7 73.5 50.5T28 199q0 95 53 151t145 56q72 0 122-39l-41-68q-34 30-81 30-46 0-74-30.5T124 224v-9q41 50 103 50 59 0 100.5-36t41.5-97zm-96-4q0 31-21.5 46.5T200 190q-45 0-75-35 3-36 22.5-60.5T205 70q30 0 49 18t19 40z"/><glyph glyph-name="seven.dnom" unicode="" horiz-adv-x="371" d="M341 334L193 0H87l150 323H26v77h315v-66z"/><glyph glyph-name="eight.dnom" unicode="" horiz-adv-x="397" d="M368 104q0-57-49-84T198-7Q127-7 78 20t-49 84q0 35 27 63.5t68 38.5q-39 9-63.5 33.5T36 299q0 54 48 80.5T198 406q67 0 115-26.5t48-80.5q0-35-24.5-59T274 206q40-10 67-38.5t27-63.5zM266 286q0 22-18.5 34T198 332q-30 0-48.5-12T131 286q0-37 67-50 68 12 68 50zm7-172q0 26-26.5 41T198 172q-22-3-48-17.5T124 114q0-23 20.5-35.5T198 66t54 12.5 21 35.5z"/><glyph glyph-name="nine.dnom" unicode="" horiz-adv-x="397" d="M28 267q0 60 44.5 99.5T188 406q91 0 136-57.5T369 199q0-94-52.5-150T173-7Q99-7 50 32l42 68q31-30 81-30 44 0 72 30t28 75v9q-39-50-102-50-59 0-101 35.5T28 267zm97 4q0-31 21.5-47t50.5-16q48 0 75 37-2 35-21 59.5T194 329q-31 0-50-17.5T125 271z"/><glyph glyph-name="zero.numr" unicode="" horiz-adv-x="397" d="M371 467q0-85-44.5-146T199 260q-84 0-128.5 60.5T26 467q0 85 44 145.5T199 673q83 0 127.5-60.5T371 467zm-97 0q0 129-75 129-76 0-76-129 0-130 76-130 75 0 75 130z"/><glyph glyph-name="one.numr" unicode="" horiz-adv-x="286" d="M226 267h-97v277l-68-69-54 58 136 134h83V267z"/><glyph glyph-name="two.numr" unicode="" horiz-adv-x="397" d="M360 267H46v70q131 92 173.5 131.5T262 541q0 27-19 41t-49 14q-33 0-63-15t-46-35l-50 61q59 66 161 66 71 0 116-33t45-92q0-47-40.5-93.5T185 344h175v-77z"/><glyph glyph-name="three.numr" unicode="" horiz-adv-x="397" d="M363 378q0-53-45.5-85.5T197 260q-111 0-165 63l47 63q46-49 115-49 35 0 54 13t19 34q0 49-88 49-39 0-45-1v76q9-1 44-1 82 0 82 45 0 44-73 44-61 0-105-44l-45 57q59 64 160 64 75 0 117-29.5t42-79.5q0-35-26-60t-63-31q35-3 65.5-28.5T363 378z"/><glyph glyph-name="four.numr" unicode="" horiz-adv-x="397" d="M373 353h-53v-86h-95v86H29v65l158 249h133V428h53v-75zm-148 75v158L124 428h101z"/><glyph glyph-name="five.numr" unicode="" horiz-adv-x="397" d="M363 399q0-62-45.5-100.5T195 260q-106 0-161 61l52 63q41-47 109-47 34 0 53.5 17t19.5 42q0 27-18.5 43.5T198 456q-50 0-85-35l-67 22v224h290v-77H142v-97q35 33 91 33 55 0 92.5-33t37.5-94z"/><glyph glyph-name="six.numr" unicode="" horiz-adv-x="397" d="M369 399q0-61-44.5-100T210 260q-91 0-136.5 57.5T28 466q0 95 53 151t145 56q72 0 122-39l-41-68q-34 30-81 30-46 0-74-30.5T124 491v-9q41 50 103 50 59 0 100.5-36t41.5-97zm-96-4q0 31-21.5 46.5T200 457q-45 0-75-35 3-36 22.5-60.5T205 337q30 0 49 18t19 40z"/><glyph glyph-name="seven.numr" unicode="" horiz-adv-x="371" d="M341 601L193 267H87l150 323H26v77h315v-66z"/><glyph glyph-name="eight.numr" unicode="" horiz-adv-x="397" d="M368 371q0-57-49-84t-121-27q-71 0-120 27t-49 84q0 35 27 63.5t68 38.5q-39 9-63.5 33.5T36 566q0 54 48 80.5T198 673q67 0 115-26.5t48-80.5q0-34-24.5-59T274 473q40-10 67-38.5t27-63.5zM266 553q0 22-18.5 34T198 599q-30 0-48.5-12T131 553q0-37 67-50 68 12 68 50zm7-172q0 26-26.5 41T198 439q-22-3-48-17.5T124 381q0-23 20.5-35.5T198 333t54 12.5 21 35.5z"/><glyph glyph-name="nine.numr" unicode="" horiz-adv-x="397" d="M28 534q0 60 44.5 99.5T188 673q91 0 136-57.5T369 466q0-94-52.5-150T173 260q-74 0-123 39l42 68q31-30 81-30 44 0 72 30t28 75v9q-39-50-102-50-59 0-101 35.5T28 534zm97 4q0-31 21.5-47t50.5-16q48 0 75 37-2 35-21 59.5T194 596q-31 0-50-17.5T125 538z"/><glyph glyph-name="Abreve.smcp" unicode="" horiz-adv-x="597" d="M218 550h161L602 0H454l-36 90H178L144 0H-5zm162-345l-82 211-82-211h164zm94 464q-65-88-175-88-109 0-176 88l56 47q44-62 120-62 74 0 119 62z"/><glyph glyph-name="Amacron.smcp" unicode="" horiz-adv-x="597" d="M480 612H117v72h363v-72zm-262-62h161L602 0H454l-36 90H178L144 0H-5zm162-345l-82 211-82-211h164z"/><glyph glyph-name="Aogonek.smcp" unicode="" horiz-adv-x="597" d="M218 550h161L602 0q-70-35-70-90 0-22 10.5-32.5T569-133q31 0 43 35l51-32q-31-56-94-56-43 0-71.5 22.5T469-96q0 56 45 96h-60l-36 90H178L144 0H-5zm162-345l-82 211-82-211h164z"/><glyph glyph-name="AEacute.smcp" unicode="" horiz-adv-x="845" d="M641 750L479 606h-89l134 144h117zM803 0H388v90H197L143 0H-6l342 550h467V437H520V336h276V223H520V113h283V0zM388 205v211L260 205h128z"/><glyph glyph-name="Cacute.smcp" unicode="" horiz-adv-x="585" d="M519 750L357 606h-89l134 144h117zM331-12q-129 0-214 80.5T32 275t85 206.5T331 562q84 0 144-39t94-101l-110-53q-19 34-53 55.5T331 446q-71 0-118-48.5T166 275t47-122.5T331 104q42 0 76.5 21t51.5 55l110-51q-33-63-93.5-102T331-12z"/><glyph glyph-name="Ccaron.smcp" unicode="" horiz-adv-x="585" d="M393 606H279l-95 144h78l74-90 70 90h78zM331-12q-129 0-214 80.5T32 275t85 206.5T331 562q84 0 144-39t94-101l-110-53q-19 34-53 55.5T331 446q-71 0-118-48.5T166 275t47-122.5T331 104q42 0 76.5 21t51.5 55l110-51q-33-63-93.5-102T331-12z"/><glyph glyph-name="Ccircumflex.smcp" unicode="" horiz-adv-x="585" d="M484 606h-78l-73 89-71-89h-78l92 144h114zM331-12q-129 0-214 80.5T32 275t85 206.5T331 562q84 0 144-39t94-101l-110-53q-19 34-53 55.5T331 446q-71 0-118-48.5T166 275t47-122.5T331 104q42 0 76.5 21t51.5 55l110-51q-33-63-93.5-102T331-12z"/><glyph glyph-name="Cdotaccent.smcp" unicode="" horiz-adv-x="585" d="M331-12q-129 0-214 80.5T32 275t85 206.5T331 562q84 0 144-39t94-101l-110-53q-19 34-53 55.5T331 446q-71 0-118-48.5T166 275t47-122.5T331 104q42 0 76.5 21t51.5 55l110-51q-33-63-93.5-102T331-12zm3 605q-28 0-48 19.5T266 661q0 28 20 48t48 20q27 0 47-20t20-48-20-48-47-20z"/><glyph glyph-name="Dcaron.smcp" unicode="" horiz-adv-x="626" d="M366 606H252l-95 144h78l74-90 70 90h78zM286 0H55v550h230q137 0 219-75.5T586 274q0-124-82-199T286 0zm-1 115q79 0 122.5 45.5T451 274q0 72-41.5 116.5T286 435h-99V115h98z"/><glyph glyph-name="Dcroat.smcp" unicode="" horiz-adv-x="633" d="M294 0H63v232H8v86h55v232h230q137 0 219-75.5T594 274q0-124-82-199T294 0zm14 232H195V115h98q79 0 122.5 45.5T459 274q0 72-41.5 116.5T294 435h-99V318h113v-86z"/><glyph glyph-name="Ebreve.smcp" unicode="" horiz-adv-x="520" d="M478 0H63v550h415V437H195V336h277V223H195V113h283V0zm-32 669q-65-88-175-88-109 0-176 88l56 47q44-62 120-62 74 0 119 62z"/><glyph glyph-name="Ecaron.smcp" unicode="" horiz-adv-x="520" d="M329 606H215l-95 144h78l74-90 70 90h78zM478 0H63v550h415V437H195V336h277V223H195V113h283V0z"/><glyph glyph-name="Edotaccent.smcp" unicode="" horiz-adv-x="520" d="M478 0H63v550h415V437H195V336h277V223H195V113h283V0zM273 593q-29 0-48.5 19.5T205 661q0 28 20 48t48 20q27 0 47-20t20-48-20-48-47-20z"/><glyph glyph-name="Emacron.smcp" unicode="" horiz-adv-x="520" d="M478 0H63v550h415V437H195V336h277V223H195V113h283V0zm-26 612H89v72h363v-72z"/><glyph glyph-name="Eng.smcp" unicode="" horiz-adv-x="648" d="M373-196q-94 0-153 59l52 100q39-43 91-43 37 0 61 21t28 56L195 344V0H63v550h142l249-332v332h132V-4q0-96-57-144t-156-48z"/><glyph glyph-name="Eogonek.smcp" unicode="" horiz-adv-x="520" d="M488-98l51-32q-31-56-94-56-43 0-71.5 22.5T345-96q0 56 45 96H63v550h415V437H195V336h277V223H195V113h283V0q-70-35-70-90 0-22 10.5-32.5T445-133q31 0 43 35z"/><glyph glyph-name="Gbreve.smcp" unicode="" horiz-adv-x="616" d="M334-12q-130 0-216 79.5T32 275t86 207.5T334 562q76 0 135-33t94-85l-107-62q-46 63-122 63-73 0-120-48t-47-122 47-123 120-49q63 0 107 40v60H311v107h262V93Q476-12 334-12zm176 681q-65-88-175-88-109 0-176 88l56 47q44-62 120-62 74 0 119 62z"/><glyph glyph-name="Gcircumflex.smcp" unicode="" horiz-adv-x="616" d="M334-12q-130 0-216 79.5T32 275t86 207.5T334 562q76 0 135-33t94-85l-107-62q-46 63-122 63-73 0-120-48t-47-122 47-123 120-49q63 0 107 40v60H311v107h262V93Q476-12 334-12zm150 618h-78l-73 89-71-89h-78l92 144h114z"/><glyph glyph-name="Gcommaaccent.smcp" unicode="" horiz-adv-x="616" d="M334-12q-130 0-216 79.5T32 275t86 207.5T334 562q76 0 135-33t94-85l-107-62q-46 63-122 63-73 0-120-48t-47-122 47-123 120-49q63 0 107 40v60H311v107h262V93Q476-12 334-12zm68-126q0-91-83-150l-44 35q21 12 40 35t23 44q-4-2-15-2-23 0-38 15.5T270-120q0 26 18 44.5T331-57q29 0 50-22t21-59z"/><glyph glyph-name="Gdotaccent.smcp" unicode="" horiz-adv-x="616" d="M334-12q-130 0-216 79.5T32 275t86 207.5T334 562q76 0 135-33t94-85l-107-62q-46 63-122 63-73 0-120-48t-47-122 47-123 120-49q63 0 107 40v60H311v107h262V93Q476-12 334-12zm0 605q-28 0-48 19.5T266 661q0 28 20 48t48 20q27 0 47-20t20-48-20-48-47-20z"/><glyph glyph-name="Hcircumflex.smcp" unicode="" horiz-adv-x="651" d="M476 606h-78l-73 89-71-89h-78l92 144h114zM588 0H456v224H195V0H63v550h132V339h261v211h132V0z"/><glyph glyph-name="Hbar.smcp" unicode="" horiz-adv-x="666" d="M596 0H464v224H203V0H71v411H8v72h63v67h132v-67h261v67h132v-67h61v-72h-61V0zM203 339h261v72H203v-72z"/><glyph glyph-name="Ibreve.smcp" unicode="" horiz-adv-x="258" d="M195 0H63v550h132V0zm110 669q-65-88-175-88-109 0-176 88l56 47q44-62 120-62 74 0 119 62z"/><glyph glyph-name="IJ.smcp" unicode="" horiz-adv-x="690" d="M415-12q-94 0-153 59l53 100q39-43 90-43 41 0 65.5 23.5T495 191v359h133V180q0-96-57-144T415-12zM195 0H63v550h132V0z"/><glyph glyph-name="Imacron.smcp" unicode="" horiz-adv-x="258" d="M311 612H-52v72h363v-72zM195 0H63v550h132V0z"/><glyph glyph-name="Iogonek.smcp" unicode="" horiz-adv-x="258" d="M195 0q-70-35-70-90 0-22 10.5-32.5T162-133q31 0 43 35l51-32q-32-56-94-56-43 0-71.5 22.5T62-96q0 56 45 96H63v550h132V0z"/><glyph glyph-name="Itilde.smcp" unicode="" horiz-adv-x="258" d="M195 0H63v550h132V0zm-8 604q-29 0-50 17t-36.5 34T70 672q-36 0-36-62h-67q0 64 28 99t80 35q28 0 49-17t36.5-33.5T191 677q36 0 36 61h67q0-64-27.5-99T187 604z"/><glyph glyph-name="Jcircumflex.smcp" unicode="" horiz-adv-x="433" d="M453 606h-78l-73 89-71-89h-78l92 144h114zM157-12Q63-12 4 47l53 100q39-43 90-43 41 0 65.5 23.5T237 191v359h133V180q0-96-57-144T157-12z"/><glyph glyph-name="Kcommaaccent.smcp" unicode="" horiz-adv-x="566" d="M355-138q0-91-83-150l-44 35q21 12 40 35t23 44q-4-2-15-2-23 0-38 15.5T223-120q0 26 18 44.5T284-57q29 0 50-22t21-59zM565 0H405L235 215l-40-46V0H63v550h132V317l195 233h160L320 291z"/><glyph glyph-name="Lacute.smcp" unicode="" horiz-adv-x="469" d="M437 0H63v550h132V115h242V0zm0 750L275 606h-89l134 144h117z"/><glyph glyph-name="Lcaron.smcp" unicode="" horiz-adv-x="469" d="M390 478q0-91-83-150l-44 35q21 12 40 35t23 44q-4-2-15-2-23 0-38 15.5T258 496q0 26 18 44.5t43 18.5q29 0 50-22t21-59zM437 0H63v550h132V115h242V0z"/><glyph glyph-name="Lcommaaccent.smcp" unicode="" horiz-adv-x="469" d="M319-138q0-91-83-150l-44 35q21 12 40 35t23 44q-4-2-15-2-23 0-38 15.5T187-120q0 26 18 44.5T248-57q29 0 50-22t21-59zM437 0H63v550h132V115h242V0z"/><glyph glyph-name="Ldot.smcp" unicode="" horiz-adv-x="499" d="M437 0H63v550h132V115h242V0zm26 304q0-32-24-56t-57-24-57 24-24 56q0 33 24 57t57 24 57-24 24-57z"/><glyph glyph-name="Nacute.smcp" unicode="" horiz-adv-x="648" d="M511 750L349 606h-89l134 144h117zM586 0H450L195 344V0H63v550h142l249-333v333h132V0z"/><glyph glyph-name="Ncaron.smcp" unicode="" horiz-adv-x="648" d="M382 606H268l-95 144h78l74-90 70 90h78zM586 0H450L195 344V0H63v550h142l249-333v333h132V0z"/><glyph glyph-name="Ncommaaccent.smcp" unicode="" horiz-adv-x="648" d="M394-138q0-91-83-150l-44 35q21 12 40 35t23 44q-4-2-15-2-23 0-38 15.5T262-120q0 26 18 44.5T323-57q29 0 50-22t21-59zM586 0H450L195 344V0H63v550h142l249-333v333h132V0z"/><glyph glyph-name="Obreve.smcp" unicode="" horiz-adv-x="655" d="M327-12q-130 0-212.5 81T32 275t82.5 206T327 562t212.5-81T622 275 539.5 69 327-12zm0 116q72 0 116.5 49T488 275q0 74-44.5 122.5T327 446t-116.5-48.5T166 275q0-73 44.5-122T327 104zm177 565q-65-88-175-88-109 0-176 88l56 47q44-62 120-62 74 0 119 62z"/><glyph glyph-name="Ohungarumlaut.smcp" unicode="" horiz-adv-x="655" d="M327-12q-130 0-212.5 81T32 275t82.5 206T327 562t212.5-81T622 275 539.5 69 327-12zm0 116q72 0 116.5 49T488 275q0 74-44.5 122.5T327 446t-116.5-48.5T166 275q0-73 44.5-122T327 104zm69 646L281 606h-74l87 144h102zm149 0L430 606h-74l87 144h102z"/><glyph glyph-name="Omacron.smcp" unicode="" horiz-adv-x="655" d="M327-12q-130 0-212.5 81T32 275t82.5 206T327 562t212.5-81T622 275 539.5 69 327-12zm0 116q72 0 116.5 49T488 275q0 74-44.5 122.5T327 446t-116.5-48.5T166 275q0-73 44.5-122T327 104zm183 508H147v72h363v-72z"/><glyph glyph-name="Oslashacute.smcp" unicode="" horiz-adv-x="655" d="M327-12q-85 0-149 35L160 0H58l55 70q-81 81-81 205 0 125 82.5 206T327 562q81 0 147-34l17 22h102l-54-68q83-81 83-207 0-125-82.5-206T327-12zm0 116q72 0 116.5 49T488 275q0 58-30 104L254 120q34-16 73-16zM166 275q0-58 28-102l203 258q-33 15-70 15-72 0-116.5-48.5T166 275zm349 475L353 606h-89l134 144h117z"/><glyph glyph-name="Racute.smcp" unicode="" horiz-adv-x="573" d="M483 750L321 606h-89l134 144h117zM539 0H388L278 189h-83V0H63v550h278q89 0 141-51.5T534 370q0-70-37.5-114T407 202zM325 303q35 0 55 18.5t20 48.5q0 29-20.5 47T325 435H195V303h130z"/><glyph glyph-name="Rcaron.smcp" unicode="" horiz-adv-x="573" d="M338 606H224l-95 144h78l74-90 70 90h78zM539 0H388L278 189h-83V0H63v550h278q89 0 141-51.5T534 370q0-70-37.5-114T407 202zM325 303q35 0 55 18.5t20 48.5q0 29-20.5 47T325 435H195V303h130z"/><glyph glyph-name="Rcommaaccent.smcp" unicode="" horiz-adv-x="573" d="M351-138q0-91-83-150l-44 35q21 12 40 35t23 44q-4-2-15-2-23 0-38 15.5T219-120q0 26 18 44.5T280-57q29 0 50-22t21-59zM539 0H388L278 189h-83V0H63v550h278q89 0 141-51.5T534 370q0-70-37.5-114T407 202zM325 303q35 0 55 18.5t20 48.5q0 29-20.5 47T325 435H195V303h130z"/><glyph glyph-name="Sacute.smcp" unicode="" horiz-adv-x="516" d="M444 750L282 606h-89l134 144h117zM256-12q-76 0-138 23T18 71l60 99q30-30 80-51t102-21q49 0 73.5 17t24.5 43q0 25-33 39.5t-80.5 24-95 24-80.5 51T36 391q0 72 61 121.5T256 562q136 0 225-79l-62-92q-31 28-76.5 44T255 451q-39 0-62-15.5T170 396q0-19 24-31.5t60-18.5 77.5-18 77.5-28 60-51 24-84q0-81-62-129T256-12z"/><glyph glyph-name="Scedilla.smcp" unicode="" horiz-adv-x="516" d="M254-196q-70 0-110 32l25 51q38-29 81-29 22 0 37 8.5t15 24.5q0 26-29 26-18 0-32-14l-46 26 22 61Q91 0 18 71l60 99q30-30 80-51t102-21q49 0 73.5 17t24.5 43q0 25-33 39.5t-80.5 24-95 24-80.5 51T36 391q0 72 61 121.5T256 562q136 0 225-79l-62-92q-31 28-76.5 44T255 451q-39 0-62-15.5T170 396q0-19 24-31.5t60-18.5 77.5-18 77.5-28 60-51 24-84q0-77-56-124.5T278-11l-16-40q17 10 36 10 28 0 47.5-19.5T365-111q0-39-32-62t-79-23z"/><glyph glyph-name="Scircumflex.smcp" unicode="" horiz-adv-x="516" d="M411 606h-78l-73 89-71-89h-78l92 144h114zM256-12q-76 0-138 23T18 71l60 99q30-30 80-51t102-21q49 0 73.5 17t24.5 43q0 25-33 39.5t-80.5 24-95 24-80.5 51T36 391q0 72 61 121.5T256 562q136 0 225-79l-62-92q-31 28-76.5 44T255 451q-39 0-62-15.5T170 396q0-19 24-31.5t60-18.5 77.5-18 77.5-28 60-51 24-84q0-81-62-129T256-12z"/><glyph glyph-name="Scommaaccent.smcp" unicode="" horiz-adv-x="516" d="M330-138q0-91-83-150l-44 35q21 12 40 35t23 44q-4-2-15-2-23 0-38 15.5T198-120q0 26 18 44.5T259-57q29 0 50-22t21-59zM256-12q-76 0-138 23T18 71l60 99q30-30 80-51t102-21q49 0 73.5 17t24.5 43q0 25-33 39.5t-80.5 24-95 24-80.5 51T36 391q0 72 61 121.5T256 562q136 0 225-79l-62-92q-31 28-76.5 44T255 451q-39 0-62-15.5T170 396q0-19 24-31.5t60-18.5 77.5-18 77.5-28 60-51 24-84q0-81-62-129T256-12z"/><glyph glyph-name="Tbar.smcp" unicode="" horiz-adv-x="486" d="M309 0H177v206H75v72h102v157H21v115h445V435H309V278h104v-72H309V0z"/><glyph glyph-name="Tcaron.smcp" unicode="" horiz-adv-x="486" d="M303 606H189L94 750h78l74-90 70 90h78zm6-606H177v435H21v115h445V435H309V0z"/><glyph glyph-name="Tcommaaccent.smcp" unicode="" horiz-adv-x="486" d="M313-138q0-91-83-150l-44 35q21 12 40 35t23 44q-4-2-15-2-23 0-38 15.5T181-120q0 26 18 44.5T242-57q29 0 50-22t21-59zM309 0H177v435H21v115h445V435H309V0z"/><glyph glyph-name="Ubreve.smcp" unicode="" horiz-adv-x="646" d="M323-12q-128 0-194 62T63 218v332h133V229q0-57 33.5-91t93.5-34 93.5 34 33.5 91v321h133V219q0-106-66-168.5T323-12zm175 681q-65-88-175-88-109 0-176 88l56 47q44-62 120-62 74 0 119 62z"/><glyph glyph-name="Uhungarumlaut.smcp" unicode="" horiz-adv-x="646" d="M323-12q-128 0-194 62T63 218v332h133V229q0-57 33.5-91t93.5-34 93.5 34 33.5 91v321h133V219q0-106-66-168.5T323-12zm67 762L275 606h-74l87 144h102zm149 0L424 606h-74l87 144h102z"/><glyph glyph-name="Umacron.smcp" unicode="" horiz-adv-x="646" d="M323-12q-128 0-194 62T63 218v332h133V229q0-57 33.5-91t93.5-34 93.5 34 33.5 91v321h133V219q0-106-66-168.5T323-12zm182 624H142v72h363v-72z"/><glyph glyph-name="Uogonek.smcp" unicode="" horiz-adv-x="646" d="M431-98l51-32q-32-56-94-56-43 0-71.5 22.5T288-96q0 46 33 84-127 1-192.5 62.5T63 218v332h133V229q0-57 33.5-91t93.5-34 93.5 34 33.5 91v321h133V219q0-83-41-140.5T421 0q-70-35-70-90 0-22 10.5-32.5T388-133q31 0 43 35z"/><glyph glyph-name="Uring.smcp" unicode="" horiz-adv-x="646" d="M323-12q-128 0-194 62T63 218v332h133V229q0-57 33.5-91t93.5-34 93.5 34 33.5 91v321h133V219q0-106-66-168.5T323-12zm1 583q-43 0-74 31t-31 74 31 74.5 74 31.5 73.5-31.5T428 676q0-44-30.5-74.5T324 571zm0 58q19 0 32.5 14t13.5 33q0 20-13.5 33.5T324 723t-33-14-14-33 14-33 33-14z"/><glyph glyph-name="Utilde.smcp" unicode="" horiz-adv-x="646" d="M323-12q-128 0-194 62T63 218v332h133V229q0-57 33.5-91t93.5-34 93.5 34 33.5 91v321h133V219q0-106-66-168.5T323-12zm57 616q-29 0-50 17t-36.5 34-30.5 17q-36 0-36-62h-67q0 64 28 99t80 35q28 0 49-17t36.5-33.5T384 677q36 0 36 61h67q0-64-27.5-99T380 604z"/><glyph glyph-name="Wcircumflex.smcp" unicode="" horiz-adv-x="797" d="M549 606h-78l-73 89-71-89h-78l92 144h114zM632 0H494l-96 358L303 0H165L-1 550h148l95-376 105 376h103l105-377 96 377h147z"/><glyph glyph-name="Ycircumflex.smcp" unicode="" horiz-adv-x="565" d="M434 606h-78l-73 89-71-89h-78l92 144h114zM349 0H218v226L-5 550h149l140-213 137 213h149L349 226V0z"/><glyph glyph-name="Zacute.smcp" unicode="" horiz-adv-x="523" d="M449 750L287 606h-89l134 144h117zM488 0H36v96l263 338H36v116h445v-96L219 116h269V0z"/><glyph glyph-name="Zdotaccent.smcp" unicode="" horiz-adv-x="523" d="M488 0H36v96l263 338H36v116h445v-96L219 116h269V0zM267 593q-29 0-48.5 19.5T199 661q0 28 20 48t48 20q27 0 47-20t20-48-20-48-47-20z"/><glyph glyph-name="Idotaccent.smcp" unicode="" horiz-adv-x="258" d="M195 0H63v550h132V0zm-65 593q-28 0-48 19.5T62 661q0 28 20 48t48 20q27 0 47-20t20-48-20-48-47-20z"/><glyph glyph-name="parenleft.case" unicode="" horiz-adv-x="297" d="M279-47l-80-62Q126-27 83.5 92.5T41 333t42.5 240.5T199 775l80-60q-52-95-76.5-184T178 333t24.5-198T279-47z"/><glyph glyph-name="parenright.case" unicode="" horiz-adv-x="297" d="M97-109L17-47q53 92 77.5 181T119 333 94.5 532 17 715l80 60q74-83 117-202t43-240-43.5-240.5T97-109z"/><glyph glyph-name="bracketleft.case" unicode="" horiz-adv-x="280" d="M263-100H47v868h216v-85H138V-15h125v-85z"/><glyph glyph-name="bracketright.case" unicode="" horiz-adv-x="280" d="M233-100H17v85h125v698H17v85h216v-868z"/><glyph glyph-name="braceleft.case" unicode="" horiz-adv-x="288" d="M271-100h-61q-63 0-109 44T55 59v172q0 29-13.5 48T3 298v72q25 0 38.5 19T55 437v171q0 71 46 115.5T210 768h61v-85h-61q-26 0-44-20.5T148 609V424q0-70-46-90 46-20 46-90V60q0-33 18-54t44-21h61v-85z"/><glyph glyph-name="braceright.case" unicode="" horiz-adv-x="288" d="M17-100v85h61q26 0 44.5 21T141 60v184q0 70 46 90-46 20-46 90v185q0 33-18.5 53.5T78 683H17v85h61q63 0 109-44.5T233 608V437q0-29 13.5-48t38.5-19v-72q-25 0-38.5-19T233 231V59q0-71-46-115T78-100H17z"/><glyph glyph-name="exclamdown.case" unicode="" horiz-adv-x="256" d="M51 0l20 449h113L205 0H51zm-4 598q0 32 23.5 56t56.5 24 57-24 24-56q0-33-24-57.5T127 516t-56.5 24.5T47 598z"/></font>
</defs>
</svg>
