<svg><defs><font id="ProximaNovaCond-Bold" horiz-adv-x="479"><font-face font-family="Proxima Nova Cn Rg" font-weight="700" panose-1="2 0 5 6 3 0 0 2 0 4" ascent="790" descent="-210" x-height="483" cap-height="667" bbox="-135 -286 985 889" underline-thickness="20" underline-position="-113" unicode-range="U+000D-FB04"/><glyph glyph-name="f_f_j" unicode="ffj" horiz-adv-x="805" d="M485 0H364v378h-62v105h62v38q0 73 38.5 114.5T505 677q48 0 80-17l-22-91q-11 9-30 9-22 0-35-15t-13-42v-38h79V378h-79V0zm206 537q-29 0-50.5 21T619 609t21.5 51.5T691 682q30 0 51-21.5t21-51.5-21-51-51-21zm-92-733q-56 0-92 29l30 91q19-19 45-19 49 0 49 67v511h120V-28q0-168-152-168zM197 0H76v378H14v105h62v38q0 73 39 114.5T222 677q69 0 106-36l-39-81q-18 18-43 18-49 0-49-57v-38h79V378h-79V0z"/><glyph glyph-name="f_j" unicode="fj" horiz-adv-x="517" d="M197 0H76v378H14v105h62v38q0 73 38.5 114.5T217 677q48 0 80-17l-22-91q-11 9-30 9-22 0-35-15t-13-42v-38h79V378h-79V0zm205 537q-29 0-50.5 21T330 609t21.5 51.5T402 682q30 0 51-21.5t21-51.5-21-51-51-21zm-92-733q-56 0-92 29l30 91q19-19 45-19 49 0 49 67v511h120V-28q0-168-152-168z"/><glyph glyph-name="f_f" unicode="ff" horiz-adv-x="577" d="M197 0H76v378H14v105h62v38q0 73 39 114.5T222 677q69 0 106-36l-39-81q-18 18-43 18-49 0-49-57v-38h79V378h-79V0zm288 0H364v378h-62v105h62v38q0 73 39 114.5T510 677q69 0 106-36l-39-81q-18 18-43 18-49 0-49-57v-38h79V378h-79V0z"/><glyph glyph-name="fi" unicode="fi" horiz-adv-x="517" d="M197 0H76v378H14v105h62v38q0 73 38.5 114.5T217 677q48 0 80-17l-22-91q-11 9-30 9-22 0-35-15t-13-42v-38h79V378h-79V0zm205 537q-29 0-50.5 21T330 609t21.5 51.5T402 682q30 0 51-21.5t21-51.5-21-51-51-21zM462 0H342v483h120V0z"/><glyph glyph-name="fl" unicode="fl" horiz-adv-x="517" d="M197 0H76v378H14v105h62v38q0 73 38.5 114.5T217 677q48 0 80-17l-22-91q-11 9-30 9-22 0-35-15t-13-42v-38h79V378h-79V0zm265 0H342v667h120V0z"/><glyph glyph-name="f_f_i" unicode="ffi" horiz-adv-x="805" d="M485 0H364v378h-62v105h62v38q0 73 38.5 114.5T505 677q48 0 80-17l-22-91q-11 9-30 9-22 0-35-15t-13-42v-38h79V378h-79V0zm206 537q-29 0-50.5 21T619 609t21.5 51.5T691 682q30 0 51-21.5t21-51.5-21-51-51-21zM751 0H631v483h120V0zM197 0H76v378H14v105h62v38q0 73 39 114.5T222 677q69 0 106-36l-39-81q-18 18-43 18-49 0-49-57v-38h79V378h-79V0z"/><glyph glyph-name="f_f_l" unicode="ffl" horiz-adv-x="805" d="M485 0H364v378h-62v105h62v38q0 73 38.5 114.5T505 677q48 0 80-17l-22-91q-11 9-30 9-22 0-35-15t-13-42v-38h79V378h-79V0zm266 0H631v667h120V0zM197 0H76v378H14v105h62v38q0 73 39 114.5T222 677q69 0 106-36l-39-81q-18 18-43 18-49 0-49-57v-38h79V378h-79V0z"/><glyph glyph-name="f_b" unicode="fb" horiz-adv-x="793" d="M197 0H76v378H14v105h62v38q0 73 38.5 114.5T217 677q48 0 80-17l-22-91q-11 9-30 9-22 0-35-15t-13-42v-38h79V378h-79V0zm265 151q12-24 36-40.5T546 94q44 0 68.5 41T639 241q0 66-24.5 107T546 389q-24 0-48-16.5T462 331V151zm0-151H342v667h120V422q42 73 122 73 82 0 130.5-69T763 241q0-118-48.5-185.5T584-12q-76 0-122 73V0z"/><glyph glyph-name="f_h" unicode="fh" horiz-adv-x="788" d="M197 0H76v378H14v105h62v38q0 73 38.5 114.5T217 677q48 0 80-17l-22-91q-11 9-30 9-22 0-35-15t-13-42v-38h79V378h-79V0zm537 0H614v320q0 69-64 69-27 0-50-17.5T463 329V0H342v667h121V420q20 31 58.5 53t82.5 22q130 0 130-130V0z"/><glyph glyph-name="f_k" unicode="fk" horiz-adv-x="758" d="M197 0H76v378H14v105h62v38q0 73 38.5 114.5T217 677q48 0 80-17l-22-91q-11 9-30 9-22 0-35-15t-13-42v-38h79V378h-79V0zm557 0H613L513 189l-51-71V0H342v667h120V264l147 219h140L596 266z"/><glyph glyph-name=".notdef" horiz-adv-x="469" d="M410-90H59v842h351V-90zm-32 30v782H90V-60h288z"/><glyph glyph-name=".null" horiz-adv-x="0"/><glyph glyph-name=".null" horiz-adv-x="0"/><glyph glyph-name="nonmarkingreturn" horiz-adv-x="333"/><glyph glyph-name="CR" horiz-adv-x="0"/><glyph glyph-name="space" horiz-adv-x="210"/><glyph glyph-name="exclam" unicode="!" horiz-adv-x="252" d="M179 213H74L53 667h146zM126-11q-31 0-54 23T49 66q0 32 23 55t54 23 54-23 23-55q0-31-23-54t-54-23z"/><glyph glyph-name="quotedbl" unicode="&quot;" horiz-adv-x="397" d="M137 381H84Q45 593 45 611q0 27 19.5 46.5T111 677q26 0 45.5-19.5T176 611zm176 0h-52q-39 212-39 230 0 27 19 46.5t46 19.5 46-19.5 19-46.5z"/><glyph glyph-name="numbersign" unicode="#" horiz-adv-x="536" d="M302 0h-90l50 171h-79L135 0H45l49 171H16l21 77h79l48 170H85l20 76h81l48 173h90l-49-173h78l49 173h89l-49-173h78l-19-76h-81l-48-170h82l-21-77h-83zm-19 248l48 170h-78l-47-170h77z"/><glyph glyph-name="dollar" unicode="$" horiz-adv-x="501" d="M213-100v90Q93 0 21 74l66 103q49-56 126-69v173q-30 13-49.5 22.5T118 331t-40.5 37T52 417t-11 66q0 71 46 124t126 67v94h90v-93q95-11 160-71l-64-100q-42 39-96 51V397q38-16 62.5-30.5T418 328t42.5-58.5T475 191q0-78-45-131.5T303-7v-93h-90zm126 280q0 37-46 64V114q46 18 46 66zM178 492q0-32 45-59v122q-45-16-45-63z"/><glyph glyph-name="percent" unicode="%" horiz-adv-x="672" d="M172 345q-66 0-107.5 47T23 510q0 72 41.5 119.5T172 677q68 0 109.5-47.5T323 510q0-71-41.5-118T172 345zM192 0h-63l353 667h63zm308-12q-67 0-108.5 47T350 153q0 72 41.5 119.5T500 320q66 0 107.5-47.5T649 153q0-71-41.5-118T500-12zM172 419q30 0 48.5 25t18.5 66q0 42-18.5 67T172 602t-48-25-18-67q0-41 18.5-66t47.5-25zM500 62q29 0 47.5 25t18.5 66q0 42-18 67t-48 25-48.5-25-18.5-67q0-41 18.5-66T500 62z"/><glyph glyph-name="ampersand" unicode="&amp;" horiz-adv-x="547" d="M544 0H403l-38 47q-69-59-154-59-81 0-133.5 50T25 177q0 69 33 114t90 81q-40 85-40 142 0 71 46 117t116 46q64 0 108-39.5T422 536q0-35-10.5-63.5t-33.5-51-42-36.5-52-34q19-33 45-70 15-23 45-65 25 53 45 124l96-44q-34-96-78-164 19-25 107-132zM231 83q41 0 78 37-43 55-63 87-26 39-52 81-45-43-45-101 0-46 24-75t58-29zm-10 430q0-38 22-85 75 47 75 102 0 28-12.5 44T273 590q-24 0-38-20.5T221 513z"/><glyph glyph-name="quotesingle" unicode="'" horiz-adv-x="222" d="M137 381H84Q45 593 45 611q0 27 19.5 46.5T111 677q26 0 45.5-19.5T176 611z"/><glyph glyph-name="parenleft" unicode="(" horiz-adv-x="277" d="M258-150l-81-49Q114-107 79 8T44 243q0 247 133 442l81-48q-84-191-84-394t84-393z"/><glyph glyph-name="parenright" unicode=")" horiz-adv-x="278" d="M100-199l-81 49q84 186 84 393 0 206-84 394l81 48q134-194 134-442 0-120-35-235t-99-207z"/><glyph glyph-name="asterisk" unicode="*" horiz-adv-x="336" d="M198 369h-60l4 111-92-60-30 53 97 50-97 50 30 53 92-60-4 111h60l-5-111 93 60 30-53-98-50 98-50-30-53-93 60z"/><glyph glyph-name="plus" unicode="+" horiz-adv-x="444" d="M415 300H263V125h-82v175H29v75h152v167h82V375h152v-75z"/><glyph glyph-name="comma" unicode="," horiz-adv-x="252" d="M209 45q0-109-100-181L57-93q25 14 47 41.5T132 2q-4-3-18-3-28 0-47 19.5T48 68q0 31 22.5 53.5T124 144q35 0 60-27t25-72z"/><glyph glyph-name="hyphen" unicode="-" horiz-adv-x="270" d="M240 191H30v102h210V191z"/><glyph glyph-name="period" unicode="." horiz-adv-x="252" d="M126-11q-32 0-55 23T48 66q0 32 23 55t55 23q31 0 54-23t23-55-22.5-54.5T126-11z"/><glyph glyph-name="slash" unicode="/" horiz-adv-x="278" d="M86-20H0l192 707h86z"/><glyph glyph-name="zero" unicode="0" horiz-adv-x="537" d="M268-12q-79 0-134 52T55.5 167.5 32 333t23.5 165.5 78.5 127T268 677q60 0 106.5-29t74-78.5T490 460t14-127-14-126.5T449 97t-74-79.5T268-12zm0 119q100 0 100 226 0 225-100 225-99 0-99-225 0-226 99-226z"/><glyph glyph-name="one" unicode="1" horiz-adv-x="380" d="M321 0H186v494L85 389 8 470l196 197h117V0z"/><glyph glyph-name="two" unicode="2" horiz-adv-x="521" d="M478 0H44v108q192 187 243.5 249T339 474q0 38-25.5 61T250 558q-86 0-142-75l-80 84q82 110 224 110 98 0 160.5-55T475 475q0-72-50.5-146.5T242 118h236V0z"/><glyph glyph-name="three" unicode="3" horiz-adv-x="513" d="M249-12q-76 0-136 30T20 96l80 84q26-34 64-53.5t79-19.5q51 0 76.5 24t25.5 65q0 84-108 84-52 0-62-2v121q10-1 59-1 47 0 74.5 19.5T336 475q0 41-26.5 62T238 558q-80 0-133-67l-76 78q77 108 220 108 101 0 160-47t59-134q0-56-36.5-98.5T342 344q55-8 95.5-52T478 184q0-88-62.5-142T249-12z"/><glyph glyph-name="four" unicode="4" horiz-adv-x="514" d="M426 0H292v142H20v112l234 413h172V260h67V142h-67V0zM292 260v271L141 260h151z"/><glyph glyph-name="five" unicode="5" horiz-adv-x="527" d="M262-12Q116-12 38 93l81 86q55-72 139-72 46 0 73.5 30.5T359 212q0 50-25 77.5T264 317q-66 0-110-55l-97 26v379h400V549H191V378q45 55 122 55 78 0 130-58.5T495 216q0-101-63.5-164.5T262-12z"/><glyph glyph-name="six" unicode="6" horiz-adv-x="525" d="M278-12q-85 0-142 48.5T55.5 160 32 332q0 154 70.5 249.5T299 677q107 0 171-72l-65-100q-39 53-104 53-59 0-96-58.5T168 359v-12q20 36 58.5 60.5T310 432q79 0 133-57.5T497 215q0-98-61-162.5T278-12zm-8 119q43 0 67 31t24 72q0 54-27 80.5T268 317q-59 0-100-68 5-58 28.5-100t73.5-42z"/><glyph glyph-name="seven" unicode="7" horiz-adv-x="468" d="M242 0H97l200 549H21v118h428v-93z"/><glyph glyph-name="eight" unicode="8" horiz-adv-x="523" d="M262-12Q159-12 95.5 36T32 170q0 58 36.5 106t90.5 68q-51 19-84.5 60T41 503q0 86 65 130t156 44q90 0 155.5-44.5T483 503q0-58-34-99t-85-60q54-21 91-68t37-105q0-87-64-135T262-12zm0 404q29 7 57.5 29.5T348 481t-23.5 58-62.5 21q-40 0-63.5-21T175 481t29-59.5 58-29.5zm0-287q41 0 68 22.5t27 60.5q0 42-33 69.5T262 289q-29-4-62-31.5T167 188q0-39 26.5-61t68.5-22z"/><glyph glyph-name="nine" unicode="9" horiz-adv-x="525" d="M225-11Q119-11 55 61l64 99q41-52 105-52 61 0 97 58t36 140v13q-21-36-59-60.5T215 234q-79 0-133 57.5T28 451q0 98 61 162.5T247 678q124 0 184.5-96.5T492 333q0-154-70.5-249T225-11zm32 360q60 0 99 68-4 58-27 100t-74 42q-43 0-67-31t-24-72q0-54 27-80.5t66-26.5z"/><glyph glyph-name="colon" unicode=":" horiz-adv-x="250" d="M126 335q-32 0-55 23.5T48 413t23 54 55 23 54.5-23 22.5-54q0-32-23-55t-54-23zm0-346q-32 0-55 23T48 66q0 32 23 55t55 23q31 0 54-23t23-55-22.5-54.5T126-11z"/><glyph glyph-name="semicolon" unicode=";" horiz-adv-x="252" d="M126 335q-31 0-54.5 23.5T48 413t23 54 55 23 54.5-23 22.5-54-23-54.5-54-23.5zm83-288q0-109-100-181L57-91q25 14 47 41.5T132 4q-4-3-18-3-28 0-47 19.5T48 70q0 31 22.5 53.5T124 146q35 0 60-27t25-72z"/><glyph glyph-name="less" unicode="&lt;" horiz-adv-x="444" d="M415 123L29 292v86l386 169v-90L116 334l299-122v-89z"/><glyph glyph-name="equal" unicode="=" horiz-adv-x="444" d="M415 391H29v75h386v-75zm0-189H29v75h386v-75z"/><glyph glyph-name="greater" unicode="&gt;" horiz-adv-x="444" d="M415 292L29 123v89l298 122L29 457v90l386-169v-86z"/><glyph glyph-name="question" unicode="?" horiz-adv-x="391" d="M148 202q-29 34-29 88 0 32 12.5 58t30 44 35 34 30 35 12.5 40q0 25-17.5 42T173 560q-53 0-89-46l-67 84q68 79 178 79 81 0 129.5-42.5T373 526q0-37-14.5-67.5t-34.5-52-40.5-40.5-35-41-14.5-46q0-26 16-44zm48-213q-32 0-55 22.5T118 66t23 55 55 23q31 0 54-23t23-55-22.5-54.5T196-11z"/><glyph glyph-name="at" unicode="@" horiz-adv-x="709" d="M311-70q-124 0-200 83.5T35 229q0 162 112 285.5T408 638q118 0 192-77t74-196q0-122-56.5-201T491 85q-38 0-62 19.5T400 155l-2 8q-52-78-128-78-56 0-90.5 38.5T145 233q0 103 61.5 184T353 498q73 0 99-66l11 52h106l-52-249q-3-15-3-24 0-44 33-44 29 0 57 54t28 143q0 108-61.5 172T405 600q-133 0-232-112.5T74 231q0-115 66-189.5T316-33q85 0 165 56l20-30q-90-63-190-63zm6 240q50 0 92 64l27 127q-17 52-61 52-51 0-85-53t-34-114q0-35 16-55.5t45-20.5z"/><glyph glyph-name="A" unicode="A" horiz-adv-x="554" d="M556 0H410l-31 118H174L143 0H-2l198 667h162zM353 236l-76 290-76-290h152z"/><glyph glyph-name="B" unicode="B" horiz-adv-x="558" d="M344 0H59v667h276q85 0 130.5-48.5T511 497q0-61-29.5-101T404 344q51-8 84.5-55T522 180q0-80-45.5-130T344 0zm-41 397q35 0 53 20.5t18 56.5q0 35-18 55.5T303 550H193V397h110zm5-280q37 0 57 21.5t20 60.5q0 36-20 59t-57 23H193V117h115z"/><glyph glyph-name="C" unicode="C" horiz-adv-x="558" d="M314-12q-128 0-205 96T32 333t77 249 205 96q152 0 223-160l-111-49q-16 41-44.5 65.5T314 559q-66 0-105-63t-39-163 39-163 105-63q40 0 69 26.5t44 70.5l111-48Q469-12 314-12z"/><glyph glyph-name="D" unicode="D" horiz-adv-x="597" d="M274 0H59v667h215q136 0 213-92t77-242-77-241.5T274 0zm0 118q73 0 113 59t40 156q0 101-39.5 158.5T274 549h-81V118h81z"/><glyph glyph-name="E" unicode="E" horiz-adv-x="481" d="M441 0H59v667h382V549H193V398h241V280H193V118h248V0z"/><glyph glyph-name="F" unicode="F" horiz-adv-x="473" d="M193 0H59v667h382V549H193V398h241V280H193V0z"/><glyph glyph-name="G" unicode="G" horiz-adv-x="586" d="M314-12q-127 0-204.5 95T32 333q0 156 77.5 250.5T314 678q81 0 136.5-42.5T536 525l-109-51q-38 85-113 85-65 0-104.5-60T170 333t39.5-166T314 107t101 40v101H290v118h252V94Q452-12 314-12z"/><glyph glyph-name="H" unicode="H" horiz-adv-x="608" d="M549 0H414v284H193V0H59v667h134V402h221v265h135V0z"/><glyph glyph-name="I" unicode="I" horiz-adv-x="252" d="M193 0H59v667h134V0z"/><glyph glyph-name="J" unicode="J" horiz-adv-x="417" d="M151-12Q62-12 7 39l48 105q35-37 83-37 40 0 63.5 23.5T225 197v470h134V193q0-102-56-153.5T151-12z"/><glyph glyph-name="K" unicode="K" horiz-adv-x="553" d="M552 0H394L240 261l-47-74V0H59v667h134V364l188 303h156L324 353z"/><glyph glyph-name="L" unicode="L" horiz-adv-x="444" d="M417 0H59v667h134V118h224V0z"/><glyph glyph-name="M" unicode="M" horiz-adv-x="735" d="M677 0H543v430L394 0h-53L193 430V0H59v667h180l129-372 130 372h179V0z"/><glyph glyph-name="N" unicode="N" horiz-adv-x="606" d="M548 0H420L193 394V0H59v667h136l218-380v380h135V0z"/><glyph glyph-name="O" unicode="O" horiz-adv-x="622" d="M310-12q-128 0-203 96.5T32 333t75 248.5T310 678q129 0 204-96.5T589 333 514 84.5 310-12zm0 119q67 0 104.5 63.5T452 333q0 100-37.5 163T310 559q-66 0-103-63t-37-163q0-99 37-162.5T310 107z"/><glyph glyph-name="P" unicode="P" horiz-adv-x="533" d="M193 0H59v667h246q98 0 152-61t54-152-54-152-152-61H193V0zm96 359q38 0 61.5 26t23.5 69-23.5 69-61.5 26h-96V359h96z"/><glyph glyph-name="Q" unicode="Q" horiz-adv-x="622" d="M310-12q-128 0-203 96.5T32 333t75 248.5T310 678q129 0 204-96.5T589 333q0-173-93-269l28-44-93-58-27 42q-45-16-94-16zm0 119q16 0 29 3l-65 105 94 58 54-88q30 59 30 148 0 100-37.5 163T310 559q-66 0-103-63t-37-163q0-99 37-162.5T310 107z"/><glyph glyph-name="R" unicode="R" horiz-adv-x="551" d="M516 0H367L265 241h-72V0H59v667h249q91 0 147-59t56-152q0-79-34-127t-82-64zM288 359q39 0 62.5 26t23.5 69-23.5 69-62.5 26h-95V359h95z"/><glyph glyph-name="S" unicode="S" horiz-adv-x="498" d="M244-12Q102-12 16 74l66 103q64-71 161-71 43 0 67 21t24 53q0 27-22 47.5T257 260t-72 30.5-72 39.5-55 60.5T36 483q0 82 60 138.5T256 678q123 0 202-74l-64-100q-59 56-143 56-36 0-57-18.5T173 492q0-28 30.5-49t74.5-38 87.5-40 74-67.5T470 191q0-90-59.5-146.5T244-12z"/><glyph glyph-name="T" unicode="T" horiz-adv-x="473" d="M304 0H170v549H22v118h430V549H304V0z"/><glyph glyph-name="U" unicode="U" horiz-adv-x="609" d="M305-12q-114 0-180 63.5T59 230v437h135V229q0-59 29-91t82-32 81.5 32 28.5 91v438h135V230q0-114-65.5-178T305-12z"/><glyph glyph-name="V" unicode="V" horiz-adv-x="554" d="M358 0H196L-2 667h145l134-509 133 509h146z"/><glyph glyph-name="W" unicode="W" horiz-adv-x="767" d="M609 0H469l-86 444L298 0H158L6 667h144l86-464 95 464h105l96-464 85 464h144z"/><glyph glyph-name="X" unicode="X" horiz-adv-x="553" d="M555 0H401L276 237 152 0H-2l195 341L9 667h154l113-223 113 223h155L360 342z"/><glyph glyph-name="Y" unicode="Y" horiz-adv-x="538" d="M336 0H202v275L-4 667h148l125-268 125 268h148L336 275V0z"/><glyph glyph-name="Z" unicode="Z" horiz-adv-x="484" d="M448 0H36v110l241 439H36v118h405V559L198 118h250V0z"/><glyph glyph-name="bracketleft" unicode="[" horiz-adv-x="242" d="M225-190H41v868h184v-81h-97v-706h97v-81z"/><glyph glyph-name="backslash" unicode="\" horiz-adv-x="278" d="M192-20L0 687h86L278-20h-86z"/><glyph glyph-name="bracketright" unicode="]" horiz-adv-x="242" d="M201-190H17v81h97v706H17v81h184v-868z"/><glyph glyph-name="asciicircum" unicode="^" horiz-adv-x="389" d="M370 333h-88l-88 245-87-245H19l132 334h88z"/><glyph glyph-name="underscore" unicode="_" horiz-adv-x="422" d="M425-121H-3v81h428v-81z"/><glyph glyph-name="grave" unicode="`" horiz-adv-x="214" d="M214 556h-80L0 700h107z"/><glyph glyph-name="a" unicode="a" d="M425 0H304v48q-20-28-54.5-44T177-12q-61 0-105 43T28 148q0 75 43.5 116T177 305q39 0 73.5-15t53.5-42v63q0 39-23.5 61.5T215 395q-66 0-119-52l-45 82q73 70 186 70 85 0 136.5-41.5T425 324V0zM223 69q56 0 81 46v62q-26 47-81 47-34 0-54.5-21.5T148 146t20.5-56T223 69z"/><glyph glyph-name="b" unicode="b" horiz-adv-x="504" d="M174 151q12-24 36-40.5T258 94q44 0 68.5 41T351 241q0 66-24.5 107T258 389q-24 0-48-16.5T174 331V151zm0-151H54v667h120V422q42 73 122 73 82 0 130.5-69T475 241q0-118-48.5-185.5T296-12q-76 0-122 73V0z"/><glyph glyph-name="c" unicode="c" horiz-adv-x="421" d="M250-12q-99 0-160 71T29 242q0 111 61 182t160 71q100 0 154-65l-60-83q-34 42-81 42-51 0-80.5-41.5T153 242q0-65 29.5-106.5T263 94q47 0 81 42l60-83q-54-65-154-65z"/><glyph glyph-name="d" unicode="d" horiz-adv-x="504" d="M450 0H330v61q-46-73-122-73-82 0-130.5 67.5T29 241q0 116 48.5 185T208 495q78 0 122-73v245h120V0zM246 94q24 0 48 16.5t36 40.5v181q-12 24-36 40.5T246 389q-44 0-68.5-41T153 241q0-65 24.5-106T246 94z"/><glyph glyph-name="e" unicode="e" d="M254-12Q152-12 90.5 58T29 242q0 108 59 180.5T245 495t153-71.5T453 237v-34H150q4-52 34-85t83-33q27 0 56 12.5t49 34.5l55-72q-66-72-173-72zm83 297q-2 45-24 79t-70 34q-46 0-68.5-34T150 285h187z"/><glyph glyph-name="f" unicode="f" horiz-adv-x="288" d="M197 0H76v378H14v105h62v38q0 73 39 114.5T222 677q69 0 106-36l-39-81q-18 18-43 18-49 0-49-57v-38h79V378h-79V0z"/><glyph glyph-name="g" unicode="g" horiz-adv-x="504" d="M227-196q-109 0-178 62l48 92q49-53 124-53 46 0 77 27.5T329 19v59Q283 4 207 4 125 4 77 68T29 249q0 115 48 180.5T207 495q80 0 122-73v61h120V25q0-63-19-108.5T377.5-152t-70-33.5T227-196zm19 306q24 0 48 16t35 40v166q-11 24-34.5 40.5T246 389q-45 0-69-38t-24-102 24-101.5 69-37.5z"/><glyph glyph-name="h" unicode="h" horiz-adv-x="500" d="M446 0H326v320q0 69-64 69-27 0-50-17.5T175 329V0H54v667h121V420q20 31 58.5 53t82.5 22q130 0 130-130V0z"/><glyph glyph-name="i" unicode="i" horiz-adv-x="228" d="M114 537q-29 0-50.5 21T42 609t21.5 51.5T114 682q30 0 51-21.5t21-51.5-21-51-51-21zM174 0H54v483h120V0z"/><glyph glyph-name="j" unicode="j" horiz-adv-x="228" d="M114 537q-29 0-50.5 21T42 609t21.5 51.5T114 682q30 0 51-21.5t21-51.5-21-51-51-21zM22-196q-56 0-92 29l30 91q19-19 45-19 49 0 49 67v511h120V-28q0-168-152-168z"/><glyph glyph-name="k" unicode="k" horiz-adv-x="469" d="M466 0H325L225 189l-51-71V0H54v667h120V264l147 219h140L308 266z"/><glyph glyph-name="l" unicode="l" horiz-adv-x="228" d="M174 0H54v667h120V0z"/><glyph glyph-name="m" unicode="m" horiz-adv-x="744" d="M690 0H570v325q0 64-55 64-26 0-48-18t-35-42V0H312v325q0 64-55 64-25 0-47.5-18T174 329V0H54v483h120v-63q16 28 55 51.5t81 23.5q97 0 117-84 18 34 57.5 59t83.5 25q58 0 90-31.5t32-96.5V0z"/><glyph glyph-name="n" unicode="n" horiz-adv-x="500" d="M445 0H325v318q0 71-63 71-53 0-88-60V0H54v483h120v-63q21 31 59.5 53t82.5 22q65 0 97-34.5t32-97.5V0z"/><glyph glyph-name="o" unicode="o" horiz-adv-x="495" d="M247-12Q145-12 87 61.5T29 242t58 180 160 73q103 0 161-73t58-180q0-108-58-181T247-12zm0 106q47 0 71 42t24 106-24 105.5-71 41.5q-46 0-69.5-42T154 242q0-64 23.5-106T247 94z"/><glyph glyph-name="p" unicode="p" horiz-adv-x="503" d="M296-12q-78 0-122 73v-245H54v667h120v-61q46 73 122 73 82 0 130.5-67.5T475 242q0-117-48.5-185.5T296-12zM257 94q45 0 69.5 41T351 242q0 65-24.5 106T257 389q-24 0-47.5-16T174 333V151q12-24 35.5-40.5T257 94z"/><glyph glyph-name="q" unicode="q" horiz-adv-x="503" d="M245 94q24 0 48 16.5t36 40.5v182q-12 24-35.5 40T245 389q-44 0-68.5-41T152 242q0-66 24.5-107T245 94zM207-12q-82 0-130.5 68.5T28 242q0 118 48.5 185.5T207 495q76 0 122-73v61h120v-667H329V61q-44-73-122-73z"/><glyph glyph-name="r" unicode="r" horiz-adv-x="320" d="M174 0H54v483h120v-66q21 33 57.5 55.5T306 495V377q-12 3-29 3-29 0-58.5-16.5T174 322V0z"/><glyph glyph-name="s" unicode="s" horiz-adv-x="412" d="M203-12Q83-12 17 57l51 84q23-25 60-42t73-17q34 0 52.5 14t18.5 37q0 22-24.5 35.5t-60 24.5-70.5 26-59.5 48T33 350q0 61 47 103t129 42q98 0 168-62l-48-81q-19 21-51 35.5T211 402q-28 0-46-13t-18-33 24.5-33 60-24 71-26.5 60-50T387 138q0-66-50-108T203-12z"/><glyph glyph-name="t" unicode="t" horiz-adv-x="298" d="M198-12Q75-12 75 116v262H12v105h63v132h120V483h80V378h-80V144q0-50 35-50 26 0 36 14l25-92q-31-28-93-28z"/><glyph glyph-name="u" unicode="u" horiz-adv-x="499" d="M445 0H325v61q-21-31-59-52t-83-21Q54-12 54 118v365h120V164q0-70 64-70 54 0 87 59v330h120V0z"/><glyph glyph-name="v" unicode="v" horiz-adv-x="447" d="M288 0H159L-2 483h128l97-339 98 339h128z"/><glyph glyph-name="w" unicode="w" horiz-adv-x="688" d="M557 0H430l-86 329L259 0H132L3 483h124l76-328 84 328h111l87-328 76 328h125z"/><glyph glyph-name="x" unicode="x" horiz-adv-x="438" d="M436 0H305l-86 161L132 0H2l141 246L9 483h131l79-152 78 152h131L294 246z"/><glyph glyph-name="y" unicode="y" horiz-adv-x="447" d="M43-189L61-83q14-7 31-7 40 0 53 35l16 46L-2 483h128l97-338 98 338h128L260-82q-21-64-59-88.5T101-196q-35 0-58 7z"/><glyph glyph-name="z" unicode="z" horiz-adv-x="407" d="M372 0H34v90l181 288H34v105h334v-87L186 105h186V0z"/><glyph glyph-name="braceleft" unicode="{" horiz-adv-x="254" d="M237-190h-45q-55 0-95.5 38.5T56-52v195q0 29-13.5 48T4 210v68q25 0 38.5 19T56 345v194q0 61 40.5 100t95.5 39h45v-81h-45q-21 0-35-16t-14-42V333q0-69-46-89 46-20 46-89V-51q0-25 14.5-42t34.5-17h45v-80z"/><glyph glyph-name="bar" unicode="|" horiz-adv-x="198" d="M139-20H59v707h80V-20z"/><glyph glyph-name="braceright" unicode="}" horiz-adv-x="254" d="M17-190v80h44q21 0 35.5 17T111-51v206q0 70 45 89-45 19-45 89v206q0 26-14.5 42T61 597H17v81h44q55 0 96-39t41-100V345q0-29 13.5-48t38.5-19v-68q-25 0-38.5-19T198 143V-52q0-61-41-99.5T61-190H17z"/><glyph glyph-name="asciitilde" unicode="~" horiz-adv-x="463" d="M355 667l82-9q-3-49-9-85t-20-76-41-61.5-65-21.5q-40 0-64 28t-31 61-17.5 61-27.5 28q-24 0-35-43.5T109 413l-83 9q3 38 7 67.5T46.5 554 70 612t37.5 38.5T162 666q40 0 64-28t30.5-61.5T274 515t28-28q24 0 35 43.5T355 667z"/><glyph glyph-name="nbspace" horiz-adv-x="210"/><glyph glyph-name="exclamdown" unicode="¡" horiz-adv-x="252" d="M53-184l20 454h106l20-454H53zm-4 601q0 31 23 54t54 23 54-23 23-54q0-32-23-55t-54-23-54 23-23 55z"/><glyph glyph-name="cent" unicode="¢" horiz-adv-x="421" d="M205-100v93Q124 9 76.5 76.5T29 242q0 97 47.5 164.5T205 490v75h88v-74q69-12 111-61l-60-83q-24 28-51 37V98q28 10 51 38l60-83Q361 2 293-8v-92h-88zm-52 342q0-90 52-129v257q-52-37-52-128z"/><glyph glyph-name="sterling" unicode="£" horiz-adv-x="487" d="M26 272v78h58q-39 65-39 124 0 87 65.5 145T261 677q154 0 199-126l-107-54q-22 71-80 71-35 0-58.5-26.5T191 472q0-13 2-26t4-21.5 7.5-21.5 7.5-17 10-19 9-17h109v-78h-83q2-16 2-25 0-33-17.5-66.5T198 128q20 8 43 8 26 0 59.5-14.5T355 107q51 0 76 33l45-106q-39-46-130-46-43 0-88.5 21T188 30Q144 30 88-7L45 85q42 23 68 57t26 71q0 28-12 59H26z"/><glyph glyph-name="currency" unicode="¤" horiz-adv-x="532" d="M266 91q-63 0-113 29L84 51l-71 71 70 70q-35 61-35 141 0 81 36 141l-71 72 71 71 71-71q47 28 111 28 63 0 111-28l71 71 71-71-72-72q37-62 37-141 0-82-36-142l71-71-71-71-71 70q-48-28-111-28zm0 106q48 0 74.5 39t26.5 97q0 57-26.5 95.5T266 467t-74-38.5-26-95.5q0-58 26-97t74-39z"/><glyph glyph-name="yen" unicode="¥" horiz-adv-x="538" d="M336 0H202v116H24v75h178v84H24v75h138L-4 667h148l125-268 125 268h148L375 350h138v-75H336v-84h177v-75H336V0z"/><glyph glyph-name="brokenbar" unicode="¦" horiz-adv-x="198" d="M139-20H59v316h80V-20zm0 391H59v316h80V371z"/><glyph glyph-name="section" unicode="§" horiz-adv-x="415" d="M387 320q0-84-78-125 78-45 78-126 0-66-52-108T203-81Q89-81 18-10l50 78q22-25 57.5-44T198 5q34 0 54 16t20 42q0 19-13 32.5T224.5 118t-47 18-50.5 20.5-46.5 27T46 226t-13 62q0 43 26 75t63 45q-89 46-89 131 0 60 48.5 99T205 677q108 0 171-63l-48-72q-47 50-115 50-30 0-48-14t-18-38q0-23 24.5-38t60-26.5 71-27 60-48T387 320zm-113-25q0 56-65 79-65-14-65-67 0-28 20.5-46t61.5-34q48 23 48 68z"/><glyph glyph-name="dieresis" unicode="¨" horiz-adv-x="286" d="M302 610q0-27-19.5-46T236 545q-26 0-45 19t-19 46 19 45.5 45 18.5q27 0 46.5-18.5T302 610zm-188 0q0-27-18.5-46T50 545 4 564t-19 46 19 45.5T50 674t45.5-18.5T114 610z"/><glyph glyph-name="copyright" unicode="©" horiz-adv-x="778" d="M734 334q0-143-101-244T389-11 145 90.5 44 334q0 143 101 244t244 101 244-101 101-244zm-36 0q0 128-91 218.5T389 643t-218-90.5T80 334t91-218.5T389 25t218 90.5T698 334zM512 220l31-29q-58-68-149-68-87 0-147.5 60.5T186 335t60.5 151T394 546q90 0 147-67l-30-30q-43 58-117 58-68 0-116-48.5T230 335q0-74 48.5-123.5T394 162q75 0 118 58z"/><glyph glyph-name="ordfeminine" unicode="ª" horiz-adv-x="343" d="M299 326h-87v32q-29-40-87-40-41 0-70.5 27.5T25 421t29.5 75 70.5 27q59 0 87-37v40q0 26-16 41t-44 15q-44 0-80-39l-32 57q49 48 129 48 59 0 94.5-28.5T299 529V326zm-140 48q37 0 53 29v39q-16 29-53 29-21 0-34.5-13.5T111 423q0-23 13.5-36t34.5-13z"/><glyph glyph-name="guillemotleft" unicode="«" horiz-adv-x="456" d="M426 63H323L198 243l125 177h103L301 243zm-169 0H155L30 243l125 177h102L132 243z"/><glyph glyph-name="logicalnot" unicode="¬" horiz-adv-x="449" d="M415 466V202h-78v189H29v75h386z"/><glyph glyph-name="uni00AD" unicode="­" horiz-adv-x="270" d="M240 191H30v102h210V191z"/><glyph glyph-name="registered" unicode="®" horiz-adv-x="494" d="M459 465q0-88-62-150t-150-62-150 62-62 150 62 150 150 62q89 0 150.5-61.5T459 465zm-32 0q0 76-52.5 128T247 645t-128-52.5T66 465q0-74 53-127.5T247 284t127.5 53T427 465zm-80-122h-42l-63 96h-42v-96h-34v243h99q32 0 55.5-20.5T344 512q0-35-22.5-53.5T282 440zm-38 169q0 19-13.5 32T265 557h-65v-88h65q17 0 30.5 12.5T309 512z"/><glyph glyph-name="macron" unicode="¯" horiz-adv-x="311" d="M311 563H0v69h311v-69z"/><glyph glyph-name="degree" unicode="°" horiz-adv-x="308" d="M287 543q0-55-39-94t-95-39q-55 0-94 39t-39 94 39 94.5 94 39.5 94.5-39.5T287 543zm-66 0q0 28-20 48t-48 20-47-20-19-48 19-47 47-19 48 19 20 47z"/><glyph glyph-name="plusminus" unicode="±" horiz-adv-x="444" d="M415 314H263V139h-82v175H29v75h152v167h82V389h152v-75zm0-301H29v75h386V13z"/><glyph glyph-name="twosuperior" unicode="²" horiz-adv-x="345" d="M318 421H37v66q118 103 153 142.5t35 72.5q0 24-16 38t-42 14q-57 0-90-49l-51 56q54 66 145 66 65 0 105-32t40-88q0-44-35-90T160 494h158v-73z"/><glyph glyph-name="threesuperior" unicode="³" horiz-adv-x="345" d="M319 532q0-53-40.5-85.5T171 414q-100 0-147 64l50 57q37-48 93-48 31 0 47 14t16 37q0 51-72 51-31 0-37-1v72q7-1 35-1 68 0 68 48 0 47-60 47-53 0-87-43l-49 52q51 64 143 64 66 0 104-29t38-80q0-34-23-59.5T234 627q33-4 59-30t26-65z"/><glyph glyph-name="acute" unicode="´" horiz-adv-x="214" d="M214 700L80 556H0l107 144h107z"/><glyph glyph-name="mu" unicode="µ" horiz-adv-x="512" d="M174 8v-192H54v667h120V164q0-70 65-70 53 0 86 59v330h120V136q0-42 34-42 6 0 16 2l8-101q-23-7-55-7-97 0-118 86-16-38-44-62t-61-24q-35 0-51 20z"/><glyph glyph-name="paragraph" unicode="¶" horiz-adv-x="449" d="M399-100h-60v707h-80v-707h-60v423q-71 0-121.5 50.5T27 495t50.5 121.5T199 667h200v-767z"/><glyph glyph-name="periodcentered" unicode="·" horiz-adv-x="252" d="M203 244q0-31-23-54t-54-23-54 23-23 54q0 32 23 55t54 23 54-23 23-55z"/><glyph glyph-name="cedilla" unicode="¸" horiz-adv-x="202" d="M98-195q-58 0-98 32l23 48q36-28 72-28 20 0 33 9t13 25q0 26-26 26-18 0-29-13L42-71l31 82h60l-26-63q13 10 32 10 27 0 45-19.5t18-49.5q0-38-29.5-61T98-195z"/><glyph glyph-name="onesuperior" unicode="¹" horiz-adv-x="265" d="M213 421h-91v283l-62-63-52 54 127 126h78V421z"/><glyph glyph-name="ordmasculine" unicode="º" horiz-adv-x="357" d="M178 318q-70 0-110.5 48T27 483t40.5 117T178 648q71 0 111.5-48T330 483t-40.5-117T178 318zm0 70q62 0 62 95 0 93-62 93-61 0-61-93 0-95 61-95z"/><glyph glyph-name="guillemotright" unicode="»" horiz-adv-x="456" d="M257 243L132 63H30l125 180L30 420h102zm169 0L301 63H198l125 180-125 177h103z"/><glyph glyph-name="onequarter" unicode="¼" horiz-adv-x="741" d="M213 267h-91v283l-62-63-52 54 127 126h78V267zM722 88h-43V0h-91v88H416v66l144 246h119V159h43V88zm-134 71v154l-88-154h88zm-23 508L212 0h-63l352 667h64z"/><glyph glyph-name="onehalf" unicode="½" horiz-adv-x="775" d="M213 267h-91v283l-62-63-52 54 127 126h78V267zM748 0H467v66q118 103 153 142.5t35 72.5q0 24-16 38t-42 14q-57 0-90-49l-51 56q54 66 145 66 65 0 105-32t40-88q0-44-35-90T590 73h158V0zM565 667L212 0h-63l352 667h64z"/><glyph glyph-name="threequarters" unicode="¾" horiz-adv-x="802" d="M784 88h-43V0h-91v88H478v66l144 246h119V159h43V88zm-134 71v154l-88-154h88zm-24 508L273 0h-63l352 667h64zM319 378q0-53-40.5-85.5T171 260q-100 0-147 64l50 57q37-48 93-48 31 0 47 14t16 37q0 51-72 51-31 0-37-1v72q7-1 35-1 68 0 68 48 0 47-60 47-53 0-87-43l-49 52q51 64 143 64 66 0 104-29t38-80q0-34-23-59.5T234 473q33-4 59-30t26-65z"/><glyph glyph-name="questiondown" unicode="¿" horiz-adv-x="342" d="M242 280q29-35 29-88 0-38-18.5-70t-41-50-41-42.5T152-20q0-24 17.5-41T218-78q51 0 89 46l66-85q-70-79-178-79-81 0-129.5 42.5T17-45q0 45 22 82.5t48 59 48 49.5 22 56q0 25-17 44zm-47 214q31 0 54.5-23t23.5-55q0-31-23.5-54T195 339t-54 23-23 54q0 32 23 55t54 23z"/><glyph glyph-name="Agrave" unicode="À" horiz-adv-x="554" d="M556 0H410l-31 118H174L143 0H-2l198 667h162zM353 236l-76 290-76-290h152zm-22 487h-80L117 867h107z"/><glyph glyph-name="Aacute" unicode="Á" horiz-adv-x="554" d="M556 0H410l-31 118H174L143 0H-2l198 667h162zM353 236l-76 290-76-290h152zm84 631L303 723h-80l107 144h107z"/><glyph glyph-name="Acircumflex" unicode="Â" horiz-adv-x="554" d="M410 723h-70l-64 91-61-91h-70l77 144h108zM556 0H410l-31 118H174L143 0H-2l198 667h162zM353 236l-76 290-76-290h152z"/><glyph glyph-name="Atilde" unicode="Ã" horiz-adv-x="554" d="M556 0H410l-31 118H174L143 0H-2l198 667h162zM353 236l-76 290-76-290h152zm-26 485q-26 0-44.5 17.5T251 774t-26 18q-31 0-31-65h-62q0 62 25 98t71 36q20 0 36.5-11t25-24.5T309 801t22-11q30 0 30 65h62q0-62-25-98t-71-36z"/><glyph glyph-name="Adieresis" unicode="Ä" horiz-adv-x="554" d="M436 777q0-27-19.5-46T370 712q-26 0-45 19t-19 46 19 45.5 45 18.5q27 0 46.5-18.5T436 777zm-188 0q0-27-18.5-46T184 712t-46 19-19 46 19 45.5 46 18.5 45.5-18.5T248 777zM556 0H410l-31 118H174L143 0H-2l198 667h162zM353 236l-76 290-76-290h152z"/><glyph glyph-name="Aring" unicode="Å" horiz-adv-x="554" d="M556 0H410l-31 118H174L143 0H-2l198 667h162zM353 236l-76 290-76-290h152zm-75 454q-40 0-68.5 28.5T181 787t28.5 68.5T278 884t68-28.5 28-68.5-28-68.5-68-28.5zm0 54q18 0 30 12.5t12 30.5-12 30.5-30 12.5q-17 0-30-13t-13-30q0-18 13-30.5t30-12.5z"/><glyph glyph-name="AE" unicode="Æ" horiz-adv-x="787" d="M751 0H369v118H195L143 0H-2l315 667h438V549H504V398h240V280H504V118h247V0zM369 236v290L243 236h126z"/><glyph glyph-name="Ccedilla" unicode="Ç" horiz-adv-x="558" d="M309-191q-58 0-98 32l23 48q36-28 72-28 20 0 33 9t13 25q0 26-26 26-18 0-29-13l-44 25 22 58Q163 5 97.5 98.5T32 333q0 153 77 249t205 96q152 0 223-160l-111-49q-16 41-44.5 65.5T314 559q-66 0-105-63t-39-163 39-163 105-63q40 0 69 26.5t44 70.5l111-48Q472-2 333-11l-15-37q13 10 32 10 27 0 45-19.5t18-49.5q0-38-29.5-61T309-191z"/><glyph glyph-name="Egrave" unicode="È" horiz-adv-x="481" d="M441 0H59v667h382V549H193V398h241V280H193V118h248V0zM303 723h-80L89 867h107z"/><glyph glyph-name="Eacute" unicode="É" horiz-adv-x="481" d="M410 867L276 723h-80l107 144h107zM441 0H59v667h382V549H193V398h241V280H193V118h248V0z"/><glyph glyph-name="Ecircumflex" unicode="Ê" horiz-adv-x="481" d="M383 723h-70l-64 91-61-91h-70l77 144h108zM441 0H59v667h382V549H193V398h241V280H193V118h248V0z"/><glyph glyph-name="Edieresis" unicode="Ë" horiz-adv-x="481" d="M410 777q0-27-19.5-46T344 712q-26 0-45 19t-19 46 19 45.5 45 18.5q27 0 46.5-18.5T410 777zm-188 0q0-27-18.5-46T158 712t-46 19-19 46 19 45.5 46 18.5 45.5-18.5T222 777zM441 0H59v667h382V549H193V398h241V280H193V118h248V0z"/><glyph glyph-name="Igrave" unicode="Ì" horiz-adv-x="252" d="M193 0H59v667h134V0zm-13 723h-80L-34 867H73z"/><glyph glyph-name="Iacute" unicode="Í" horiz-adv-x="252" d="M193 0H59v667h134V0zm94 867L153 723H73l107 144h107z"/><glyph glyph-name="Icircumflex" unicode="Î" horiz-adv-x="252" d="M259 723h-70l-64 91-61-91H-6l77 144h108zM193 0H59v667h134V0z"/><glyph glyph-name="Idieresis" unicode="Ï" horiz-adv-x="252" d="M286 777q0-27-19.5-46T220 712q-26 0-45 19t-19 46 19 45.5 45 18.5q27 0 46.5-18.5T286 777zm-188 0q0-27-18.5-46T34 712t-46 19-19 46 19 45.5T34 841t45.5-18.5T98 777zM193 0H59v667h134V0z"/><glyph glyph-name="Eth" unicode="Ð" horiz-adv-x="620" d="M298 0H83v280H12v99h71v288h215q136 0 213-92t77-242-77-241.5T298 0zm0 118q73 0 113 59t40 156q0 101-39.5 158.5T298 549h-81V379h107v-99H217V118h81z"/><glyph glyph-name="Ntilde" unicode="Ñ" horiz-adv-x="606" d="M351 721q-26 0-44.5 17.5T275 774t-26 18q-31 0-31-65h-62q0 62 25 98t71 36q20 0 36.5-11t25-24.5T333 801t22-11q30 0 30 65h62q0-62-25-98t-71-36zM548 0H420L193 394V0H59v667h136l218-380v380h135V0z"/><glyph glyph-name="Ograve" unicode="Ò" horiz-adv-x="622" d="M365 723h-80L151 867h107zM310-12q-128 0-203 96.5T32 333t75 248.5T310 678q129 0 204-96.5T589 333 514 84.5 310-12zm0 119q67 0 104.5 63.5T452 333q0 100-37.5 163T310 559q-66 0-103-63t-37-163q0-99 37-162.5T310 107z"/><glyph glyph-name="Oacute" unicode="Ó" horiz-adv-x="622" d="M471 867L337 723h-80l107 144h107zM310-12q-128 0-203 96.5T32 333t75 248.5T310 678q129 0 204-96.5T589 333 514 84.5 310-12zm0 119q67 0 104.5 63.5T452 333q0 100-37.5 163T310 559q-66 0-103-63t-37-163q0-99 37-162.5T310 107z"/><glyph glyph-name="Ocircumflex" unicode="Ô" horiz-adv-x="622" d="M445 723h-70l-64 91-61-91h-70l77 144h108zM310-12q-128 0-203 96.5T32 333t75 248.5T310 678q129 0 204-96.5T589 333 514 84.5 310-12zm0 119q67 0 104.5 63.5T452 333q0 100-37.5 163T310 559q-66 0-103-63t-37-163q0-99 37-162.5T310 107z"/><glyph glyph-name="Otilde" unicode="Õ" horiz-adv-x="622" d="M310-12q-128 0-203 96.5T32 333t75 248.5T310 678q129 0 204-96.5T589 333 514 84.5 310-12zm0 119q67 0 104.5 63.5T452 333q0 100-37.5 163T310 559q-66 0-103-63t-37-163q0-99 37-162.5T310 107zm51 614q-26 0-44.5 17.5T285 774t-26 18q-31 0-31-65h-62q0 62 25 98t71 36q20 0 36.5-11t25-24.5T343 801t22-11q30 0 30 65h62q0-62-25-98t-71-36z"/><glyph glyph-name="Odieresis" unicode="Ö" horiz-adv-x="622" d="M470 777q0-27-19.5-46T404 712q-26 0-45 19t-19 46 19 45.5 45 18.5q27 0 46.5-18.5T470 777zm-188 0q0-27-18.5-46T218 712t-46 19-19 46 19 45.5 46 18.5 45.5-18.5T282 777zm28-789q-128 0-203 96.5T32 333t75 248.5T310 678q129 0 204-96.5T589 333 514 84.5 310-12zm0 119q67 0 104.5 63.5T452 333q0 100-37.5 163T310 559q-66 0-103-63t-37-163q0-99 37-162.5T310 107z"/><glyph glyph-name="multiply" unicode="×" horiz-adv-x="444" d="M343 160L222 281 101 160l-53 53 121 121L48 455l53 53 121-121 121 121 53-53-121-121 121-121z"/><glyph glyph-name="Oslash" unicode="Ø" horiz-adv-x="622" d="M310-12q-84 0-147 43L144 0H56l52 83q-76 96-76 250 0 152 75 248.5T310 678q78 0 142-40l18 29h88l-49-79q80-95 80-255 0-152-75-248.5T310-12zm0 119q67 0 104.5 63.5T452 333q0 75-21 129L231 139q34-32 79-32zM170 333q0-69 18-121l197 319q-31 28-75 28-66 0-103-63t-37-163z"/><glyph glyph-name="Ugrave" unicode="Ù" horiz-adv-x="609" d="M305-12q-114 0-180 63.5T59 230v437h135V229q0-59 29-91t82-32 81.5 32 28.5 91v438h135V230q0-114-65.5-178T305-12zm53 735h-80L144 867h107z"/><glyph glyph-name="Uacute" unicode="Ú" horiz-adv-x="609" d="M465 867L331 723h-80l107 144h107zM305-12q-114 0-180 63.5T59 230v437h135V229q0-59 29-91t82-32 81.5 32 28.5 91v438h135V230q0-114-65.5-178T305-12z"/><glyph glyph-name="Ucircumflex" unicode="Û" horiz-adv-x="609" d="M439 723h-70l-64 91-61-91h-70l77 144h108zM305-12q-114 0-180 63.5T59 230v437h135V229q0-59 29-91t82-32 81.5 32 28.5 91v438h135V230q0-114-65.5-178T305-12z"/><glyph glyph-name="Udieresis" unicode="Ü" horiz-adv-x="609" d="M464 777q0-27-19.5-46T398 712q-26 0-45 19t-19 46 19 45.5 45 18.5q27 0 46.5-18.5T464 777zm-188 0q0-27-18.5-46T212 712t-46 19-19 46 19 45.5 46 18.5 45.5-18.5T276 777zm29-789q-114 0-180 63.5T59 230v437h135V229q0-59 29-91t82-32 81.5 32 28.5 91v438h135V230q0-114-65.5-178T305-12z"/><glyph glyph-name="Yacute" unicode="Ý" horiz-adv-x="538" d="M336 0H202v275L-4 667h148l125-268 125 268h148L336 275V0zm93 867L295 723h-80l107 144h107z"/><glyph glyph-name="Thorn" unicode="Þ" horiz-adv-x="533" d="M193 0H59v667h134V558h112q98 0 152-61.5T511 344t-54-151.5T305 132H193V0zm95 250q39 0 62.5 25.5T374 344q0 44-23.5 70T288 440h-95V250h95z"/><glyph glyph-name="germandbls" unicode="ß" horiz-adv-x="580" d="M565 138q0-63-49-106.5T389-12q-102 0-172 70l47 83q19-24 49.5-41T378 83q30 0 48 14.5t18 36.5q0 21-22 36t-53.5 26.5-63 27T252 270t-22 77q0 33 17 60.5t37 41.5 37 32 17 36q0 24-21.5 39T265 571q-39 0-63.5-23T177 482V0H57v482q0 83 57 139t152 56q79 0 136.5-41T460 533q0-37-18-66t-39-43.5-39-33-18-36.5q0-19 22.5-31.5t55-23.5 64.5-26.5 54.5-50T565 138z"/><glyph glyph-name="agrave" unicode="à" d="M425 0H304v48q-20-28-54.5-44T177-12q-61 0-105 43T28 148q0 75 43.5 116T177 305q39 0 73.5-15t53.5-42v63q0 39-23.5 61.5T215 395q-66 0-119-52l-45 82q73 70 186 70 85 0 136.5-41.5T425 324V0zM223 69q56 0 81 46v62q-26 47-81 47-34 0-54.5-21.5T148 146t20.5-56T223 69zm68 487h-80L77 700h107z"/><glyph glyph-name="aacute" unicode="á" d="M425 0H304v48q-20-28-54.5-44T177-12q-61 0-105 43T28 148q0 75 43.5 116T177 305q39 0 73.5-15t53.5-42v63q0 39-23.5 61.5T215 395q-66 0-119-52l-45 82q73 70 186 70 85 0 136.5-41.5T425 324V0zM223 69q56 0 81 46v62q-26 47-81 47-34 0-54.5-21.5T148 146t20.5-56T223 69zm175 631L264 556h-80l107 144h107z"/><glyph glyph-name="acircumflex" unicode="â" d="M425 0H304v48q-20-28-54.5-44T177-12q-61 0-105 43T28 148q0 75 43.5 116T177 305q39 0 73.5-15t53.5-42v63q0 39-23.5 61.5T215 395q-66 0-119-52l-45 82q73 70 186 70 85 0 136.5-41.5T425 324V0zM223 69q56 0 81 46v62q-26 47-81 47-34 0-54.5-21.5T148 146t20.5-56T223 69zm150 487h-70l-64 91-61-91h-70l77 144h108z"/><glyph glyph-name="atilde" unicode="ã" d="M425 0H304v48q-20-28-54.5-44T177-12q-61 0-105 43T28 148q0 75 43.5 116T177 305q39 0 73.5-15t53.5-42v63q0 39-23.5 61.5T215 395q-66 0-119-52l-45 82q73 70 186 70 85 0 136.5-41.5T425 324V0zM223 69q56 0 81 46v62q-26 47-81 47-34 0-54.5-21.5T148 146t20.5-56T223 69zm65 485q-26 0-44.5 18T212 607.5 186 625q-31 0-31-65H93q0 62 25 98t71 36q26 0 44.5-18t32-35.5T292 623q30 0 30 65h62q0-62-25-98t-71-36z"/><glyph glyph-name="adieresis" unicode="ä" d="M425 0H304v48q-20-28-54.5-44T177-12q-61 0-105 43T28 148q0 75 43.5 116T177 305q39 0 73.5-15t53.5-42v63q0 39-23.5 61.5T215 395q-66 0-119-52l-45 82q73 70 186 70 85 0 136.5-41.5T425 324V0zM223 69q56 0 81 46v62q-26 47-81 47-34 0-54.5-21.5T148 146t20.5-56T223 69zm175 541q0-27-19.5-46T332 545q-26 0-45 19t-19 46 19 45.5 45 18.5q27 0 46.5-18.5T398 610zm-188 0q0-27-18.5-46T146 545t-46 19-19 46 19 45.5 46 18.5 45.5-18.5T210 610z"/><glyph glyph-name="aring" unicode="å" d="M425 0H304v48q-20-28-54.5-44T177-12q-61 0-105 43T28 148q0 75 43.5 116T177 305q39 0 73.5-15t53.5-42v63q0 39-23.5 61.5T215 395q-66 0-119-52l-45 82q73 70 186 70 85 0 136.5-41.5T425 324V0zM223 69q56 0 81 46v62q-26 47-81 47-34 0-54.5-21.5T148 146t20.5-56T223 69zm16 465q-40 0-68.5 28.5T142 631t28.5 68.5T239 728t68-28.5 28-68.5-28-68.5-68-28.5zm0 54q18 0 30 12.5t12 30.5-12 30.5-30 12.5q-17 0-30-13t-13-30q0-18 13-30.5t30-12.5z"/><glyph glyph-name="ae" unicode="æ" horiz-adv-x="751" d="M725 203H434q4-52 32.5-84.5T545 86q60 0 99 47l56-73q-31-34-76-53t-90-19q-102 0-159 81-61-81-172-81-76 0-125.5 41.5T28 146q0 74 43.5 116.5T182 305q90 0 134-56v62q0 39-25 61.5T221 395q-69 0-125-52l-45 82q36 35 86 52.5t98 17.5q107 0 144-76 55 76 149 76 92 0 144.5-72T725 236v-33zm-292 82h176q-1 45-22 79t-65 34-65.5-34.5T433 285zM316 164v13q-31 47-89 47-35 0-57.5-19.5T147 152q0-34 22-52.5T226 81q37 0 63.5 25.5T316 164z"/><glyph glyph-name="ccedilla" unicode="ç" horiz-adv-x="421" d="M251-193q-58 0-98 32l23 48q36-28 72-28 20 0 33 9t13 25q0 26-26 26-18 0-29-13l-44 25 22 60Q132 2 80.5 71T29 242q0 111 61 182t160 71q100 0 154-65l-60-83q-34 42-81 42-51 0-80.5-41.5T153 242q0-65 29.5-106.5T263 94q47 0 81 42l60-83Q358-2 276-10l-16-40q13 10 32 10 27 0 45-19.5t18-49.5q0-38-29.5-61T251-193z"/><glyph glyph-name="egrave" unicode="è" d="M254-12Q152-12 90.5 58T29 242q0 108 59 180.5T245 495t153-71.5T453 237v-34H150q4-52 34-85t83-33q27 0 56 12.5t49 34.5l55-72q-66-72-173-72zm83 297q-2 45-24 79t-70 34q-46 0-68.5-34T150 285h187zm-38 271h-80L85 700h107z"/><glyph glyph-name="eacute" unicode="é" d="M405 700L271 556h-80l107 144h107zM254-12Q152-12 90.5 58T29 242q0 108 59 180.5T245 495t153-71.5T453 237v-34H150q4-52 34-85t83-33q27 0 56 12.5t49 34.5l55-72q-66-72-173-72zm83 297q-2 45-24 79t-70 34q-46 0-68.5-34T150 285h187z"/><glyph glyph-name="ecircumflex" unicode="ê" d="M378 556h-70l-64 91-61-91h-70l77 144h108zM254-12Q152-12 90.5 58T29 242q0 108 59 180.5T245 495t153-71.5T453 237v-34H150q4-52 34-85t83-33q27 0 56 12.5t49 34.5l55-72q-66-72-173-72zm83 297q-2 45-24 79t-70 34q-46 0-68.5-34T150 285h187z"/><glyph glyph-name="edieresis" unicode="ë" d="M404 610q0-27-19.5-46T338 545q-26 0-45 19t-19 46 19 45.5 45 18.5q27 0 46.5-18.5T404 610zm-188 0q0-27-18.5-46T152 545t-46 19-19 46 19 45.5 46 18.5 45.5-18.5T216 610zm38-622Q152-12 90.5 58T29 242q0 108 59 180.5T245 495t153-71.5T453 237v-34H150q4-52 34-85t83-33q27 0 56 12.5t49 34.5l55-72q-66-72-173-72zm83 297q-2 45-24 79t-70 34q-46 0-68.5-34T150 285h187z"/><glyph glyph-name="igrave" unicode="ì" horiz-adv-x="228" d="M174 0H54v483h120V0zm-6 556H88L-46 700H61z"/><glyph glyph-name="iacute" unicode="í" horiz-adv-x="228" d="M275 700L141 556H61l107 144h107zM174 0H54v483h120V0z"/><glyph glyph-name="icircumflex" unicode="î" horiz-adv-x="228" d="M247 556h-70l-64 91-61-91h-70l77 144h108zM174 0H54v483h120V0z"/><glyph glyph-name="idieresis" unicode="ï" horiz-adv-x="228" d="M273 610q0-27-19.5-46T207 545q-26 0-45 19t-19 46 19 45.5 45 18.5q27 0 46.5-18.5T273 610zm-188 0q0-27-18.5-46T21 545t-46 19-19 46 19 45.5T21 674t45.5-18.5T85 610zM174 0H54v483h120V0z"/><glyph glyph-name="eth" unicode="ð" horiz-adv-x="495" d="M119 483l-24 57 105 46q-26 26-52 49l84 74q53-49 76-75l87 38 24-55-71-32q118-153 118-324 0-125-56.5-199T247-12Q146-12 87.5 55.5T29 226q0 101 50.5 169T211 463t127-81q-24 73-95 156zM247 94q46 0 70.5 37.5T342 226q0 56-24.5 93.5T247 357t-69.5-37.5T154 226q0-57 23.5-94.5T247 94z"/><glyph glyph-name="ntilde" unicode="ñ" horiz-adv-x="500" d="M445 0H325v318q0 71-63 71-53 0-88-60V0H54v483h120v-63q21 31 59.5 53t82.5 22q65 0 97-34.5t32-97.5V0zM300 554q-26 0-44.5 18T224 607.5 198 625q-31 0-31-65h-62q0 62 25 98t71 36q26 0 44.5-18t32-35.5T304 623q30 0 30 65h62q0-62-25-98t-71-36z"/><glyph glyph-name="ograve" unicode="ò" horiz-adv-x="495" d="M247-12Q145-12 87 61.5T29 242t58 180 160 73q103 0 161-73t58-180q0-108-58-181T247-12zm0 106q47 0 71 42t24 106-24 105.5-71 41.5q-46 0-69.5-42T154 242q0-64 23.5-106T247 94zm55 462h-80L88 700h107z"/><glyph glyph-name="oacute" unicode="ó" horiz-adv-x="495" d="M408 700L274 556h-80l107 144h107zM247-12Q145-12 87 61.5T29 242t58 180 160 73q103 0 161-73t58-180q0-108-58-181T247-12zm0 106q47 0 71 42t24 106-24 105.5-71 41.5q-46 0-69.5-42T154 242q0-64 23.5-106T247 94z"/><glyph glyph-name="ocircumflex" unicode="ô" horiz-adv-x="495" d="M381 556h-70l-64 91-61-91h-70l77 144h108zM247-12Q145-12 87 61.5T29 242t58 180 160 73q103 0 161-73t58-180q0-108-58-181T247-12zm0 106q47 0 71 42t24 106-24 105.5-71 41.5q-46 0-69.5-42T154 242q0-64 23.5-106T247 94z"/><glyph glyph-name="otilde" unicode="õ" horiz-adv-x="495" d="M247-12Q145-12 87 61.5T29 242t58 180 160 73q103 0 161-73t58-180q0-108-58-181T247-12zm0 106q47 0 71 42t24 106-24 105.5-71 41.5q-46 0-69.5-42T154 242q0-64 23.5-106T247 94zm50 460q-26 0-44.5 18T221 607.5 195 625q-31 0-31-65h-62q0 62 25 98t71 36q26 0 44.5-18t32-35.5T301 623q30 0 30 65h62q0-62-25-98t-71-36z"/><glyph glyph-name="odieresis" unicode="ö" horiz-adv-x="495" d="M407 610q0-27-19.5-46T341 545q-26 0-45 19t-19 46 19 45.5 45 18.5q27 0 46.5-18.5T407 610zm-188 0q0-27-18.5-46T155 545t-46 19-19 46 19 45.5 46 18.5 45.5-18.5T219 610zm28-622Q145-12 87 61.5T29 242t58 180 160 73q103 0 161-73t58-180q0-108-58-181T247-12zm0 106q47 0 71 42t24 106-24 105.5-71 41.5q-46 0-69.5-42T154 242q0-64 23.5-106T247 94z"/><glyph glyph-name="divide" unicode="÷" horiz-adv-x="443" d="M280 499q0-25-17-42.5T221 439q-24 0-41 17.5T163 499q0 24 17 41t41 17q25 0 42-17t17-41zm134-199H29v75h385v-75zM280 174q0-25-17-42t-42-17q-24 0-41 17t-17 42q0 24 17 41.5t41 17.5q25 0 42-17.5t17-41.5z"/><glyph glyph-name="oslash" unicode="ø" horiz-adv-x="495" d="M108 0H37l47 65q-55 72-55 177 0 107 58 180t160 73q69 0 121-36l17 24h72l-47-64q56-71 56-177 0-108-58-181T247-12q-71 0-121 36zm139 94q47 0 71 42t24 106q0 38-9 69L192 116q22-22 55-22zm-93 148q0-41 8-68l140 193q-22 22-55 22-46 0-69.5-42T154 242z"/><glyph glyph-name="ugrave" unicode="ù" horiz-adv-x="499" d="M445 0H325v61q-21-31-59-52t-83-21Q54-12 54 118v365h120V164q0-70 64-70 54 0 87 59v330h120V0zM303 556h-80L89 700h107z"/><glyph glyph-name="uacute" unicode="ú" horiz-adv-x="499" d="M410 700L276 556h-80l107 144h107zM445 0H325v61q-21-31-59-52t-83-21Q54-12 54 118v365h120V164q0-70 64-70 54 0 87 59v330h120V0z"/><glyph glyph-name="ucircumflex" unicode="û" horiz-adv-x="499" d="M383 556h-70l-64 91-61-91h-70l77 144h108zM445 0H325v61q-21-31-59-52t-83-21Q54-12 54 118v365h120V164q0-70 64-70 54 0 87 59v330h120V0z"/><glyph glyph-name="udieresis" unicode="ü" horiz-adv-x="499" d="M409 610q0-27-19.5-46T343 545q-26 0-45 19t-19 46 19 45.5 45 18.5q27 0 46.5-18.5T409 610zm-188 0q0-27-18.5-46T157 545t-46 19-19 46 19 45.5 46 18.5 45.5-18.5T221 610zM445 0H325v61q-21-31-59-52t-83-21Q54-12 54 118v365h120V164q0-70 64-70 54 0 87 59v330h120V0z"/><glyph glyph-name="yacute" unicode="ý" horiz-adv-x="447" d="M43-189L61-83q14-7 31-7 40 0 53 35l16 46L-2 483h128l97-338 98 338h128L260-82q-21-64-59-88.5T101-196q-35 0-58 7zm340 889L249 556h-80l107 144h107z"/><glyph glyph-name="thorn" unicode="þ" horiz-adv-x="503" d="M296-12q-79 0-122 72v-244H54v851h120V424q45 71 122 71 82 0 130.5-67.5T475 242q0-117-48.5-185.5T296-12zM257 94q45 0 69.5 41T351 242q0 65-24.5 106T257 389q-24 0-47.5-16T174 333V151q12-24 35.5-40.5T257 94z"/><glyph glyph-name="ydieresis" unicode="ÿ" horiz-adv-x="447" d="M43-189L61-83q14-7 31-7 40 0 53 35l16 46L-2 483h128l97-338 98 338h128L260-82q-21-64-59-88.5T101-196q-35 0-58 7zm341 799q0-27-19.5-46T318 545q-26 0-45 19t-19 46 19 45.5 45 18.5q27 0 46.5-18.5T384 610zm-188 0q0-27-18.5-46T132 545t-46 19-19 46 19 45.5 46 18.5 45.5-18.5T196 610z"/><glyph glyph-name="Amacron" unicode="Ā" horiz-adv-x="554" d="M556 0H410l-31 118H174L143 0H-2l198 667h162zM353 236l-76 290-76-290h152zm79 494H121v69h311v-69z"/><glyph glyph-name="amacron" unicode="ā" d="M425 0H304v48q-20-28-54.5-44T177-12q-61 0-105 43T28 148q0 75 43.5 116T177 305q39 0 73.5-15t53.5-42v63q0 39-23.5 61.5T215 395q-66 0-119-52l-45 82q73 70 186 70 85 0 136.5-41.5T425 324V0zM223 69q56 0 81 46v62q-26 47-81 47-34 0-54.5-21.5T148 146t20.5-56T223 69zm171 494H83v69h311v-69z"/><glyph glyph-name="Abreve" unicode="Ă" horiz-adv-x="554" d="M556 0H410l-31 118H174L143 0H-2l198 667h162zM353 236l-76 290-76-290h152zm74 544q-57-75-150-75t-150 75l55 44q35-50 95-50 61 0 95 50z"/><glyph glyph-name="abreve" unicode="ă" d="M425 0H304v48q-20-28-54.5-44T177-12q-61 0-105 43T28 148q0 75 43.5 116T177 305q39 0 73.5-15t53.5-42v63q0 39-23.5 61.5T215 395q-66 0-119-52l-45 82q73 70 186 70 85 0 136.5-41.5T425 324V0zM223 69q56 0 81 46v62q-26 47-81 47-34 0-54.5-21.5T148 146t20.5-56T223 69zm166 544q-57-75-150-75T89 613l55 44q35-50 95-50 61 0 95 50z"/><glyph glyph-name="Aogonek" unicode="Ą" horiz-adv-x="554" d="M557-103l49-28q-26-55-85-55-40 0-65 21.5T431-100q0 56 45 100h-66l-31 118H174L143 0H-2l198 667h162L556 0h-1q-64-38-64-95 0-40 31-40 25 0 35 32zM353 236l-76 290-76-290h152z"/><glyph glyph-name="aogonek" unicode="ą" d="M427-103l49-28q-26-55-85-55-40 0-65 21.5T301-100q0 56 45 100h-42v48q-20-28-54.5-44T177-12q-61 0-105 43T28 148q0 75 43.5 116T177 305q39 0 73.5-15t53.5-42v63q0 39-23.5 61.5T215 395q-66 0-119-52l-45 82q73 70 186 70 85 0 136.5-41.5T425 324V0q-64-38-64-95 0-40 31-40 25 0 35 32zM223 69q56 0 81 46v62q-26 47-81 47-34 0-54.5-21.5T148 146t20.5-56T223 69z"/><glyph glyph-name="Cacute" unicode="Ć" horiz-adv-x="558" d="M474 867L340 723h-80l107 144h107zM314-12q-128 0-205 96T32 333t77 249 205 96q152 0 223-160l-111-49q-16 41-44.5 65.5T314 559q-66 0-105-63t-39-163 39-163 105-63q40 0 69 26.5t44 70.5l111-48Q469-12 314-12z"/><glyph glyph-name="cacute" unicode="ć" horiz-adv-x="421" d="M410 700L276 556h-80l107 144h107zM250-12q-99 0-160 71T29 242q0 111 61 182t160 71q100 0 154-65l-60-83q-34 42-81 42-51 0-80.5-41.5T153 242q0-65 29.5-106.5T263 94q47 0 81 42l60-83q-54-65-154-65z"/><glyph glyph-name="Ccircumflex" unicode="Ĉ" horiz-adv-x="558" d="M447 723h-70l-64 91-61-91h-70l77 144h108zM314-12q-128 0-205 96T32 333t77 249 205 96q152 0 223-160l-111-49q-16 41-44.5 65.5T314 559q-66 0-105-63t-39-163 39-163 105-63q40 0 69 26.5t44 70.5l111-48Q469-12 314-12z"/><glyph glyph-name="ccircumflex" unicode="ĉ" horiz-adv-x="421" d="M385 556h-70l-64 91-61-91h-70l77 144h108zM250-12q-99 0-160 71T29 242q0 111 61 182t160 71q100 0 154-65l-60-83q-34 42-81 42-51 0-80.5-41.5T153 242q0-65 29.5-106.5T263 94q47 0 81 42l60-83q-54-65-154-65z"/><glyph glyph-name="Cdotaccent" unicode="Ċ" horiz-adv-x="558" d="M314-12q-128 0-205 96T32 333t77 249 205 96q152 0 223-160l-111-49q-16 41-44.5 65.5T314 559q-66 0-105-63t-39-163 39-163 105-63q40 0 69 26.5t44 70.5l111-48Q469-12 314-12zm1 724q-27 0-46 18.5T250 776t19.5 46 45.5 19 45-19 19-46-19-45.5-45-18.5z"/><glyph glyph-name="cdotaccent" unicode="ċ" horiz-adv-x="421" d="M250-12q-99 0-160 71T29 242q0 111 61 182t160 71q100 0 154-65l-60-83q-34 42-81 42-51 0-80.5-41.5T153 242q0-65 29.5-106.5T263 94q47 0 81 42l60-83q-54-65-154-65zm0 557q-27 0-46 18.5T185 609t19.5 46 45.5 19 45-19 19-46-19-45.5-45-18.5z"/><glyph glyph-name="Ccaron" unicode="Č" horiz-adv-x="558" d="M370 723H262l-80 144h70l64-91 61 91h70zM314-12q-128 0-205 96T32 333t77 249 205 96q152 0 223-160l-111-49q-16 41-44.5 65.5T314 559q-66 0-105-63t-39-163 39-163 105-63q40 0 69 26.5t44 70.5l111-48Q469-12 314-12z"/><glyph glyph-name="ccaron" unicode="č" horiz-adv-x="421" d="M308 556H200l-80 144h70l64-91 61 91h70zM250-12q-99 0-160 71T29 242q0 111 61 182t160 71q100 0 154-65l-60-83q-34 42-81 42-51 0-80.5-41.5T153 242q0-65 29.5-106.5T263 94q47 0 81 42l60-83q-54-65-154-65z"/><glyph glyph-name="Dcaron" unicode="Ď" horiz-adv-x="597" d="M354 723H246l-80 144h70l64-91 61 91h70zM274 0H59v667h215q136 0 213-92t77-242-77-241.5T274 0zm0 118q73 0 113 59t40 156q0 101-39.5 158.5T274 549h-81V118h81z"/><glyph glyph-name="dcaron" unicode="ď" horiz-adv-x="613" d="M618 600q0-44-22-83t-59-65l-42 34q21 13 39.5 36t22.5 44q-4-2-14-2-22 0-37 15.5T491 619q0 25 17.5 42.5T551 679q28 0 47.5-21.5T618 600zM450 0H330v61q-46-73-122-73-82 0-130.5 67.5T29 241q0 116 48.5 185T208 495q78 0 122-73v245h120V0zM246 94q24 0 48 16.5t36 40.5v181q-12 24-36 40.5T246 389q-44 0-68.5-41T153 241q0-65 24.5-106T246 94z"/><glyph glyph-name="Dcroat" unicode="Đ" horiz-adv-x="620" d="M298 0H83v280H12v99h71v288h215q136 0 213-92t77-242-77-241.5T298 0zm0 118q73 0 113 59t40 156q0 101-39.5 158.5T298 549h-81V379h107v-99H217V118h81z"/><glyph glyph-name="dcroat" unicode="đ" horiz-adv-x="511" d="M450 0H330v61q-46-73-122-73-82 0-130.5 67.5T29 241q0 116 48.5 185T208 495q78 0 122-73v107H198v69h132v69h120v-69h52v-69h-52V0zM246 94q24 0 48 16.5t36 40.5v181q-12 24-36 40.5T246 389q-44 0-68.5-41T153 241q0-65 24.5-106T246 94z"/><glyph glyph-name="Emacron" unicode="Ē" horiz-adv-x="481" d="M441 0H59v667h382V549H193V398h241V280H193V118h248V0zm-36 730H94v69h311v-69z"/><glyph glyph-name="emacron" unicode="ē" d="M254-12Q152-12 90.5 58T29 242q0 108 59 180.5T245 495t153-71.5T453 237v-34H150q4-52 34-85t83-33q27 0 56 12.5t49 34.5l55-72q-66-72-173-72zm83 297q-2 45-24 79t-70 34q-46 0-68.5-34T150 285h187zm62 278H88v69h311v-69z"/><glyph glyph-name="Ebreve" unicode="Ĕ" horiz-adv-x="481" d="M441 0H59v667h382V549H193V398h241V280H193V118h248V0zm-41 780q-57-75-150-75t-150 75l55 44q35-50 95-50 61 0 95 50z"/><glyph glyph-name="ebreve" unicode="ĕ" d="M254-12Q152-12 90.5 58T29 242q0 108 59 180.5T245 495t153-71.5T453 237v-34H150q4-52 34-85t83-33q27 0 56 12.5t49 34.5l55-72q-66-72-173-72zm83 297q-2 45-24 79t-70 34q-46 0-68.5-34T150 285h187zm59 328q-57-75-150-75T96 613l55 44q35-50 95-50 61 0 95 50z"/><glyph glyph-name="Edotaccent" unicode="Ė" horiz-adv-x="481" d="M441 0H59v667h382V549H193V398h241V280H193V118h248V0zM253 712q-27 0-46 18.5T188 776t19.5 46 45.5 19 45-19 19-46-19-45.5-45-18.5z"/><glyph glyph-name="edotaccent" unicode="ė" d="M254-12Q152-12 90.5 58T29 242q0 108 59 180.5T245 495t153-71.5T453 237v-34H150q4-52 34-85t83-33q27 0 56 12.5t49 34.5l55-72q-66-72-173-72zm83 297q-2 45-24 79t-70 34q-46 0-68.5-34T150 285h187zm-91 260q-27 0-46 18.5T181 609t19.5 46 45.5 19 45-19 19-46-19-45.5-45-18.5z"/><glyph glyph-name="Eogonek" unicode="Ę" horiz-adv-x="481" d="M441 0q-64-38-64-95 0-40 31-40 25 0 35 32l49-28q-26-55-85-55-40 0-65 21.5T317-100q0 56 45 100H59v667h382V549H193V398h241V280H193V118h248V0z"/><glyph glyph-name="eogonek" unicode="ę" d="M333-103l49-28q-26-55-85-55-40 0-65 21.5T207-100q0 50 34 88-97 5-154.5 74.5T29 242q0 108 59 180.5T245 495t153-71.5T453 237v-34H150q4-52 34-85t83-33q27 0 56 12.5t49 34.5l55-72q-40-43-96-60-64-38-64-95 0-40 31-40 25 0 35 32zm4 388q-2 45-24 79t-70 34q-46 0-68.5-34T150 285h187z"/><glyph glyph-name="Ecaron" unicode="Ě" horiz-adv-x="481" d="M305 723H197l-80 144h70l64-91 61 91h70zM441 0H59v667h382V549H193V398h241V280H193V118h248V0z"/><glyph glyph-name="ecaron" unicode="ě" d="M301 556H193l-80 144h70l64-91 61 91h70zM254-12Q152-12 90.5 58T29 242q0 108 59 180.5T245 495t153-71.5T453 237v-34H150q4-52 34-85t83-33q27 0 56 12.5t49 34.5l55-72q-66-72-173-72zm83 297q-2 45-24 79t-70 34q-46 0-68.5-34T150 285h187z"/><glyph glyph-name="Gcircumflex" unicode="Ĝ" horiz-adv-x="586" d="M448 723h-70l-64 91-61-91h-70l77 144h108zM314-12q-127 0-204.5 95T32 333q0 156 77.5 250.5T314 678q81 0 136.5-42.5T536 525l-109-51q-38 85-113 85-65 0-104.5-60T170 333t39.5-166T314 107t101 40v101H290v118h252V94Q452-12 314-12z"/><glyph glyph-name="gcircumflex" unicode="ĝ" horiz-adv-x="504" d="M388 556h-70l-64 91-61-91h-70l77 144h108zM227-196q-109 0-178 62l48 92q49-53 124-53 46 0 77 27.5T329 19v59Q283 4 207 4 125 4 77 68T29 249q0 115 48 180.5T207 495q80 0 122-73v61h120V25q0-63-19-108.5T377.5-152t-70-33.5T227-196zm19 306q24 0 48 16t35 40v166q-11 24-34.5 40.5T246 389q-45 0-69-38t-24-102 24-101.5 69-37.5z"/><glyph glyph-name="Gbreve" unicode="Ğ" horiz-adv-x="586" d="M314-12q-127 0-204.5 95T32 333q0 156 77.5 250.5T314 678q81 0 136.5-42.5T536 525l-109-51q-38 85-113 85-65 0-104.5-60T170 333t39.5-166T314 107t101 40v101H290v118h252V94Q452-12 314-12zm152 792q-57-75-150-75t-150 75l55 44q35-50 95-50 61 0 95 50z"/><glyph glyph-name="gbreve" unicode="ğ" horiz-adv-x="504" d="M227-196q-109 0-178 62l48 92q49-53 124-53 46 0 77 27.5T329 19v59Q283 4 207 4 125 4 77 68T29 249q0 115 48 180.5T207 495q80 0 122-73v61h120V25q0-63-19-108.5T377.5-152t-70-33.5T227-196zm19 306q24 0 48 16t35 40v166q-11 24-34.5 40.5T246 389q-45 0-69-38t-24-102 24-101.5 69-37.5zm156 503q-57-75-150-75t-150 75l55 44q35-50 95-50 61 0 95 50z"/><glyph glyph-name="Gdotaccent" unicode="Ġ" horiz-adv-x="586" d="M314-12q-127 0-204.5 95T32 333q0 156 77.5 250.5T314 678q81 0 136.5-42.5T536 525l-109-51q-38 85-113 85-65 0-104.5-60T170 333t39.5-166T314 107t101 40v101H290v118h252V94Q452-12 314-12zm2 724q-27 0-46 18.5T251 776t19.5 46 45.5 19 45-19 19-46-19-45.5-45-18.5z"/><glyph glyph-name="gdotaccent" unicode="ġ" horiz-adv-x="504" d="M227-196q-109 0-178 62l48 92q49-53 124-53 46 0 77 27.5T329 19v59Q283 4 207 4 125 4 77 68T29 249q0 115 48 180.5T207 495q80 0 122-73v61h120V25q0-63-19-108.5T377.5-152t-70-33.5T227-196zm19 306q24 0 48 16t35 40v166q-11 24-34.5 40.5T246 389q-45 0-69-38t-24-102 24-101.5 69-37.5zm9 435q-27 0-46 18.5T190 609t19.5 46 45.5 19 45-19 19-46-19-45.5-45-18.5z"/><glyph glyph-name="Gcommaaccent" unicode="Ģ" horiz-adv-x="586" d="M378-138q0-44-22-83t-59-65l-42 34q21 13 39.5 36t22.5 44q-4-2-14-2-22 0-37 15.5T251-119q0 25 17.5 42.5T311-59q28 0 47.5-21.5T378-138zM314-12q-127 0-204.5 95T32 333q0 156 77.5 250.5T314 678q81 0 136.5-42.5T536 525l-109-51q-38 85-113 85-65 0-104.5-60T170 333t39.5-166T314 107t101 40v101H290v118h252V94Q452-12 314-12z"/><glyph glyph-name="gcommaaccent" unicode="ģ" horiz-adv-x="504" d="M190 611q0 100 78 154l42-34q-20-11-39-33.5T249 655q3 1 6 1 22 0 40-17t18-41-18-42-43-18q-24 0-43 17.5T190 611zm37-807q-109 0-178 62l48 92q49-53 124-53 46 0 77 27.5T329 19v59Q283 4 207 4 125 4 77 68T29 249q0 115 48 180.5T207 495q80 0 122-73v61h120V25q0-63-19-108.5T377.5-152t-70-33.5T227-196zm19 306q24 0 48 16t35 40v166q-11 24-34.5 40.5T246 389q-45 0-69-38t-24-102 24-101.5 69-37.5z"/><glyph glyph-name="Hcircumflex" unicode="Ĥ" horiz-adv-x="608" d="M436 723h-70l-64 91-61-91h-70l77 144h108zM549 0H414v284H193V0H59v667h134V402h221v265h135V0z"/><glyph glyph-name="hcircumflex" unicode="ĥ" horiz-adv-x="500" d="M383 723h-70l-64 91-61-91h-70l77 144h108zM446 0H326v320q0 69-64 69-27 0-50-17.5T175 329V0H54v667h121V420q20 31 58.5 53t82.5 22q130 0 130-130V0z"/><glyph glyph-name="Hbar" unicode="Ħ" horiz-adv-x="631" d="M561 0H426v284H205V0H71v499H12v69h59v99h134v-99h221v99h135v-99h53v-69h-53V0zM205 402h221v97H205v-97z"/><glyph glyph-name="hbar" unicode="ħ" horiz-adv-x="508" d="M316 529H183V420q20 31 58.5 53t82.5 22q130 0 130-130V0H334v320q0 69-64 69-27 0-50-17.5T183 329V0H62v529H12v69h50v69h121v-69h133v-69z"/><glyph glyph-name="Itilde" unicode="Ĩ" horiz-adv-x="252" d="M193 0H59v667h134V0zm-16 721q-26 0-44.5 17.5T101 774t-26 18q-31 0-31-65h-62q0 62 25 98t71 36q20 0 36.5-11t25-24.5T159 801t22-11q30 0 30 65h62q0-62-25-98t-71-36z"/><glyph glyph-name="itilde" unicode="ĩ" horiz-adv-x="228" d="M174 0H54v483h120V0zm-10 554q-26 0-44.5 18T88 607.5 62 625q-31 0-31-65h-62q0 62 25 98t71 36q26 0 44.5-18t32-35.5T168 623q30 0 30 65h62q0-62-25-98t-71-36z"/><glyph glyph-name="Imacron" unicode="Ī" horiz-adv-x="252" d="M193 0H59v667h134V0zm89 730H-29v69h311v-69z"/><glyph glyph-name="imacron" unicode="ī" horiz-adv-x="228" d="M174 0H54v483h120V0zm96 563H-41v69h311v-69z"/><glyph glyph-name="Ibreve" unicode="Ĭ" horiz-adv-x="252" d="M193 0H59v667h134V0zm85 780q-57-75-150-75t-150 75l55 44q35-50 95-50 61 0 95 50z"/><glyph glyph-name="ibreve" unicode="ĭ" horiz-adv-x="228" d="M174 0H54v483h120V0zm91 613q-57-75-150-75t-150 75l55 44q35-50 95-50 61 0 95 50z"/><glyph glyph-name="Iogonek" unicode="Į" horiz-adv-x="252" d="M195-103l49-28q-26-55-85-55-40 0-65 21.5T69-100q0 56 45 100H59v667h134V0q-64-38-64-95 0-40 31-40 25 0 35 32z"/><glyph glyph-name="iogonek" unicode="į" horiz-adv-x="228" d="M176-103l49-28q-26-55-85-55-40 0-65 21.5T50-100Q50-44 95 0H54v483h120V0q-64-38-64-95 0-40 31-40 25 0 35 32zm-62 640q-29 0-50.5 21T42 609t21.5 51.5T114 682q30 0 51-21.5t21-51.5-21-51-51-21z"/><glyph glyph-name="Idotaccent" unicode="İ" horiz-adv-x="252" d="M193 0H59v667h134V0zm-66 712q-27 0-46 18.5T62 776t19.5 46 45.5 19 45-19 19-46-19-45.5-45-18.5z"/><glyph glyph-name="dotlessi" unicode="ı" horiz-adv-x="228" d="M174 0H54v483h120V0z"/><glyph glyph-name="IJ" unicode="Ĳ" horiz-adv-x="669" d="M193 0H59v667h134V0zm210-12q-89 0-144 51l48 105q35-37 83-37 40 0 63.5 23.5T477 197v470h134V193q0-102-56-153.5T403-12z"/><glyph glyph-name="ij" unicode="ĳ" horiz-adv-x="457" d="M114 537q-29 0-50.5 21T42 609t21.5 51.5T114 682q30 0 51-21.5t21-51.5-21-51-51-21zM174 0H54v483h120V0zm168 537q-29 0-50.5 21T270 609t21.5 51.5T342 682q30 0 51-21.5t21-51.5-21-51-51-21zm-92-733q-56 0-92 29l30 91q19-19 45-19 49 0 49 67v511h120V-28q0-168-152-168z"/><glyph glyph-name="Jcircumflex" unicode="Ĵ" horiz-adv-x="417" d="M425 723h-70l-64 91-61-91h-70l77 144h108zM151-12Q62-12 7 39l48 105q35-37 83-37 40 0 63.5 23.5T225 197v470h134V193q0-102-56-153.5T151-12z"/><glyph glyph-name="jcircumflex" unicode="ĵ" horiz-adv-x="228" d="M249 556h-70l-64 91-61-91h-70l77 144h108zM20-196q-55 0-90 29l30 94q19-19 45-19 49 0 49 64v511h120V-28q0-168-154-168z"/><glyph glyph-name="Kcommaaccent" unicode="Ķ" horiz-adv-x="559" d="M349-138q0-44-22-83t-59-65l-42 34q21 13 39.5 36t22.5 44q-4-2-14-2-22 0-37 15.5T222-119q0 25 17.5 42.5T282-59q28 0 47.5-21.5T349-138zM552 0H394L240 261l-47-74V0H59v667h134V364l188 303h156L324 353z"/><glyph glyph-name="kcommaaccent" unicode="ķ" horiz-adv-x="469" d="M304-138q0-44-22-83t-59-65l-42 34q21 13 39.5 36t22.5 44q-4-2-14-2-22 0-37 15.5T177-119q0 25 17.5 42.5T237-59q28 0 47.5-21.5T304-138zM466 0H325L225 189l-51-71V0H54v667h120V264l147 219h140L308 266z"/><glyph glyph-name="kgreenlandic" unicode="ĸ" horiz-adv-x="469" d="M466 0H325L225 189l-51-71V0H54v483h120V264l147 219h140L308 266z"/><glyph glyph-name="Lacute" unicode="Ĺ" horiz-adv-x="444" d="M398 867L264 723h-80l107 144h107zM417 0H59v667h134V118h224V0z"/><glyph glyph-name="lacute" unicode="ĺ" horiz-adv-x="228" d="M275 867L141 723H61l107 144h107zM174 0H54v667h120V0z"/><glyph glyph-name="Lcommaaccent" unicode="Ļ" horiz-adv-x="444" d="M290-138q0-44-22-83t-59-65l-42 34q21 13 39.5 36t22.5 44q-4-2-14-2-22 0-37 15.5T163-119q0 25 17.5 42.5T223-59q28 0 47.5-21.5T290-138zM417 0H59v667h134V118h224V0z"/><glyph glyph-name="lcommaaccent" unicode="ļ" horiz-adv-x="228" d="M183-138q0-44-22-83t-59-65l-42 34q21 13 39.5 36t22.5 44q-4-2-14-2-22 0-37 15.5T56-119q0 25 17.5 42.5T116-59q28 0 47.5-21.5T183-138zM174 0H54v667h120V0z"/><glyph glyph-name="Lcaron" unicode="Ľ" horiz-adv-x="444" d="M384 601q0-44-22-83t-59-65l-42 34q21 13 39.5 36t22.5 44q-4-2-14-2-22 0-37 15.5T257 620q0 25 17.5 42.5T317 680q28 0 47.5-21.5T384 601zM417 0H59v667h134V118h224V0z"/><glyph glyph-name="lcaron" unicode="ľ" horiz-adv-x="335" d="M353 601q0-44-22-83t-59-65l-42 34q21 13 39.5 36t22.5 44q-4-2-14-2-22 0-37 15.5T226 620q0 25 17.5 42.5T286 680q28 0 47.5-21.5T353 601zM174 0H54v667h120V0z"/><glyph glyph-name="Ldot" unicode="Ŀ" horiz-adv-x="485" d="M417 0H59v667h134V118h224V0zm28 341q0-31-23-54t-54-23-54 23-23 54q0 32 23 55t54 23 54-23 23-55z"/><glyph glyph-name="ldot" unicode="ŀ" horiz-adv-x="371" d="M174 0H54v667h120V0zm202 244q0-31-23-54t-54-23-54 23-23 54q0 32 23 55t54 23 54-23 23-55z"/><glyph glyph-name="Lslash" unicode="Ł" horiz-adv-x="455" d="M12 205v110l59 34v318h134V427l67 39V355l-67-39V118h224V0H71v239z"/><glyph glyph-name="lslash" unicode="ł" horiz-adv-x="275" d="M12 219v89l65 37v322h120V414l65 37v-88l-65-38V0H77v256z"/><glyph glyph-name="Nacute" unicode="Ń" horiz-adv-x="606" d="M463 867L329 723h-80l107 144h107zM548 0H420L193 394V0H59v667h136l218-380v380h135V0z"/><glyph glyph-name="nacute" unicode="ń" horiz-adv-x="500" d="M410 700L276 556h-80l107 144h107zM445 0H325v318q0 71-63 71-53 0-88-60V0H54v483h120v-63q21 31 59.5 53t82.5 22q65 0 97-34.5t32-97.5V0z"/><glyph glyph-name="Ncommaaccent" unicode="Ņ" horiz-adv-x="606" d="M372-138q0-44-22-83t-59-65l-42 34q21 13 39.5 36t22.5 44q-4-2-14-2-22 0-37 15.5T245-119q0 25 17.5 42.5T305-59q28 0 47.5-21.5T372-138zM548 0H420L193 394V0H59v667h136l218-380v380h135V0z"/><glyph glyph-name="ncommaaccent" unicode="ņ" horiz-adv-x="500" d="M317-138q0-44-22-83t-59-65l-42 34q21 13 39.5 36t22.5 44q-4-2-14-2-22 0-37 15.5T190-119q0 25 17.5 42.5T250-59q28 0 47.5-21.5T317-138zM445 0H325v318q0 71-63 71-53 0-88-60V0H54v483h120v-63q21 31 59.5 53t82.5 22q65 0 97-34.5t32-97.5V0z"/><glyph glyph-name="Ncaron" unicode="Ň" horiz-adv-x="606" d="M358 723H250l-80 144h70l64-91 61 91h70zM548 0H420L193 394V0H59v667h136l218-380v380h135V0z"/><glyph glyph-name="ncaron" unicode="ň" horiz-adv-x="500" d="M305 556H197l-80 144h70l64-91 61 91h70zM445 0H325v318q0 71-63 71-53 0-88-60V0H54v483h120v-63q21 31 59.5 53t82.5 22q65 0 97-34.5t32-97.5V0z"/><glyph glyph-name="napostrophe" unicode="ŉ" horiz-adv-x="500" d="M165 682q0-44-22-83t-59-65l-42 34q21 13 39.5 36t22.5 44q-4-2-14-2-22 0-37 15.5T38 701q0 25 17.5 42.5T98 761q28 0 47.5-21.5T165 682zM445 0H325v318q0 71-63 71-53 0-88-60V0H54v483h120v-63q21 31 59.5 53t82.5 22q65 0 97-34.5t32-97.5V0z"/><glyph glyph-name="Eng" unicode="Ŋ" horiz-adv-x="606" d="M340-196q-90 0-145 51l49 104q35-37 83-37 40 0 63 23.5T413 11v1L193 408V0H59v667h136l218-394v394h135V9q0-103-56-154t-152-51z"/><glyph glyph-name="eng" unicode="ŋ" horiz-adv-x="500" d="M445 363V-28q0-168-154-168-54 0-90 29l30 96q19-19 45-19 49 0 49 62v346q0 71-63 71-53 0-88-60V0H54v483h120v-63q21 31 59.5 53t82.5 22q65 0 97-34.5t32-97.5z"/><glyph glyph-name="Omacron" unicode="Ō" horiz-adv-x="622" d="M466 730H155v69h311v-69zM310-12q-128 0-203 96.5T32 333t75 248.5T310 678q129 0 204-96.5T589 333 514 84.5 310-12zm0 119q67 0 104.5 63.5T452 333q0 100-37.5 163T310 559q-66 0-103-63t-37-163q0-99 37-162.5T310 107z"/><glyph glyph-name="omacron" unicode="ō" horiz-adv-x="495" d="M404 563H93v69h311v-69zM247-12Q145-12 87 61.5T29 242t58 180 160 73q103 0 161-73t58-180q0-108-58-181T247-12zm0 106q47 0 71 42t24 106-24 105.5-71 41.5q-46 0-69.5-42T154 242q0-64 23.5-106T247 94z"/><glyph glyph-name="Obreve" unicode="Ŏ" horiz-adv-x="622" d="M310-12q-128 0-203 96.5T32 333t75 248.5T310 678q129 0 204-96.5T589 333 514 84.5 310-12zm0 119q67 0 104.5 63.5T452 333q0 100-37.5 163T310 559q-66 0-103-63t-37-163q0-99 37-162.5T310 107zm151 673q-57-75-150-75t-150 75l55 44q35-50 95-50 61 0 95 50z"/><glyph glyph-name="obreve" unicode="ŏ" horiz-adv-x="495" d="M247-12Q145-12 87 61.5T29 242t58 180 160 73q103 0 161-73t58-180q0-108-58-181T247-12zm0 106q47 0 71 42t24 106-24 105.5-71 41.5q-46 0-69.5-42T154 242q0-64 23.5-106T247 94zm151 519q-57-75-150-75T98 613l55 44q35-50 95-50 61 0 95 50z"/><glyph glyph-name="Ohungarumlaut" unicode="Ő" horiz-adv-x="622" d="M361 867l-98-144h-66l70 144h94zm139 0l-98-144h-66l70 144h94zM310-12q-128 0-203 96.5T32 333t75 248.5T310 678q129 0 204-96.5T589 333 514 84.5 310-12zm0 119q67 0 104.5 63.5T452 333q0 100-37.5 163T310 559q-66 0-103-63t-37-163q0-99 37-162.5T310 107z"/><glyph glyph-name="ohungarumlaut" unicode="ő" horiz-adv-x="495" d="M298 700l-98-144h-66l70 144h94zm139 0l-98-144h-66l70 144h94zM247-12Q145-12 87 61.5T29 242t58 180 160 73q103 0 161-73t58-180q0-108-58-181T247-12zm0 106q47 0 71 42t24 106-24 105.5-71 41.5q-46 0-69.5-42T154 242q0-64 23.5-106T247 94z"/><glyph glyph-name="OE" unicode="Œ" horiz-adv-x="858" d="M821 0H440v64q-24-37-65.5-56.5T291-12q-119 0-189 96.5T32 333t70 248 189 96q43 0 84-18.5t65-55.5v64h381V549H574V398h240V280H574V118h247V0zM440 210v246q-17 49-50 75.5T314 558q-70 0-107-62t-37-163q0-100 37.5-163T314 107q42 0 75.5 27t50.5 76z"/><glyph glyph-name="oe" unicode="œ" horiz-adv-x="791" d="M765 203H463q5-52 35-85t82-33q62 0 104 47l56-72q-66-72-173-72-105 0-163 98-57-98-157-98-102 0-160 73.5T29 242t58 180 160 73q100 0 157-97 54 97 154 97 97 0 152-72t55-187v-33zm-302 82h187q-2 45-24.5 79.5T556 399q-46 0-68.5-35T463 285zm-121-43q0 65-24.5 106T247 389q-45 0-69-41.5T154 242q0-65 24-106.5T247 94q46 0 70.5 41.5T342 242z"/><glyph glyph-name="Racute" unicode="Ŕ" horiz-adv-x="551" d="M443 867L309 723h-80l107 144h107zM516 0H367L265 241h-72V0H59v667h249q91 0 147-59t56-152q0-79-34-127t-82-64zM288 359q39 0 62.5 26t23.5 69-23.5 69-62.5 26h-95V359h95z"/><glyph glyph-name="racute" unicode="ŕ" horiz-adv-x="320" d="M340 700L206 556h-80l107 144h107zM174 0H54v483h120v-66q21 33 57.5 55.5T306 495V377q-12 3-29 3-29 0-58.5-16.5T174 322V0z"/><glyph glyph-name="Rcommaaccent" unicode="Ŗ" horiz-adv-x="551" d="M345-138q0-44-22-83t-59-65l-42 34q21 13 39.5 36t22.5 44q-4-2-14-2-22 0-37 15.5T218-119q0 25 17.5 42.5T278-59q28 0 47.5-21.5T345-138zM516 0H367L265 241h-72V0H59v667h249q91 0 147-59t56-152q0-79-34-127t-82-64zM288 359q39 0 62.5 26t23.5 69-23.5 69-62.5 26h-95V359h95z"/><glyph glyph-name="rcommaaccent" unicode="ŗ" horiz-adv-x="320" d="M228-138q0-44-22-83t-59-65l-42 34q21 13 39.5 36t22.5 44q-4-2-14-2-22 0-37 15.5T101-119q0 25 17.5 42.5T161-59q28 0 47.5-21.5T228-138zM174 0H54v483h120v-66q21 33 57.5 55.5T306 495V377q-12 3-29 3-29 0-58.5-16.5T174 322V0z"/><glyph glyph-name="Rcaron" unicode="Ř" horiz-adv-x="551" d="M332 723H224l-80 144h70l64-91 61 91h70zM516 0H367L265 241h-72V0H59v667h249q91 0 147-59t56-152q0-79-34-127t-82-64zM288 359q39 0 62.5 26t23.5 69-23.5 69-62.5 26h-95V359h95z"/><glyph glyph-name="rcaron" unicode="ř" horiz-adv-x="320" d="M234 556H126L46 700h70l64-91 61 91h70zM174 0H54v483h120v-66q21 33 57.5 55.5T306 495V377q-12 3-29 3-29 0-58.5-16.5T174 322V0z"/><glyph glyph-name="Sacute" unicode="Ś" horiz-adv-x="498" d="M410 867L276 723h-80l107 144h107zM244-12Q102-12 16 74l66 103q64-71 161-71 43 0 67 21t24 53q0 27-22 47.5T257 260t-72 30.5-72 39.5-55 60.5T36 483q0 82 60 138.5T256 678q123 0 202-74l-64-100q-59 56-143 56-36 0-57-18.5T173 492q0-28 30.5-49t74.5-38 87.5-40 74-67.5T470 191q0-90-59.5-146.5T244-12z"/><glyph glyph-name="sacute" unicode="ś" horiz-adv-x="412" d="M367 700L233 556h-80l107 144h107zM203-12Q83-12 17 57l51 84q23-25 60-42t73-17q34 0 52.5 14t18.5 37q0 22-24.5 35.5t-60 24.5-70.5 26-59.5 48T33 350q0 61 47 103t129 42q98 0 168-62l-48-81q-19 21-51 35.5T211 402q-28 0-46-13t-18-33 24.5-33 60-24 71-26.5 60-50T387 138q0-66-50-108T203-12z"/><glyph glyph-name="Scircumflex" unicode="Ŝ" horiz-adv-x="498" d="M387 723h-70l-64 91-61-91h-70l77 144h108zM244-12Q102-12 16 74l66 103q64-71 161-71 43 0 67 21t24 53q0 27-22 47.5T257 260t-72 30.5-72 39.5-55 60.5T36 483q0 82 60 138.5T256 678q123 0 202-74l-64-100q-59 56-143 56-36 0-57-18.5T173 492q0-28 30.5-49t74.5-38 87.5-40 74-67.5T470 191q0-90-59.5-146.5T244-12z"/><glyph glyph-name="scircumflex" unicode="ŝ" horiz-adv-x="412" d="M340 556h-70l-64 91-61-91H75l77 144h108zM203-12Q83-12 17 57l51 84q23-25 60-42t73-17q34 0 52.5 14t18.5 37q0 22-24.5 35.5t-60 24.5-70.5 26-59.5 48T33 350q0 61 47 103t129 42q98 0 168-62l-48-81q-19 21-51 35.5T211 402q-28 0-46-13t-18-33 24.5-33 60-24 71-26.5 60-50T387 138q0-66-50-108T203-12z"/><glyph glyph-name="Scedilla" unicode="Ş" horiz-adv-x="498" d="M236-195q-58 0-98 32l23 48q36-28 72-28 20 0 33 9t13 25q0 26-26 26-18 0-29-13l-44 25 23 61Q87 1 16 74l66 103q64-71 161-71 43 0 67 21t24 53q0 27-22 47.5T257 260t-72 30.5-72 39.5-55 60.5T36 483q0 82 60 138.5T256 678q123 0 202-74l-64-100q-59 56-143 56-36 0-57-18.5T173 492q0-28 30.5-49t74.5-38 87.5-40 74-67.5T470 191q0-87-55-142.5T261-11l-16-41q13 10 32 10 27 0 45-19.5t18-49.5q0-38-29.5-61T236-195z"/><glyph glyph-name="scedilla" unicode="ş" horiz-adv-x="412" d="M199-195q-58 0-98 32l23 48q36-28 72-28 20 0 33 9t13 25q0 26-26 26-18 0-29-13l-44 25 23 61Q70 1 17 57l51 84q23-25 60-42t73-17q34 0 52.5 14t18.5 37q0 22-24.5 35.5t-60 24.5-70.5 26-59.5 48T33 350q0 61 47 103t129 42q98 0 168-62l-48-81q-19 21-51 35.5T211 402q-28 0-46-13t-18-33 24.5-33 60-24 71-26.5 60-50T387 138q0-61-44-102T225-11l-17-41q13 10 32 10 27 0 45-19.5t18-49.5q0-38-29.5-61T199-195z"/><glyph glyph-name="Scaron" unicode="Š" horiz-adv-x="498" d="M310 723H202l-80 144h70l64-91 61 91h70zM244-12Q102-12 16 74l66 103q64-71 161-71 43 0 67 21t24 53q0 27-22 47.5T257 260t-72 30.5-72 39.5-55 60.5T36 483q0 82 60 138.5T256 678q123 0 202-74l-64-100q-59 56-143 56-36 0-57-18.5T173 492q0-28 30.5-49t74.5-38 87.5-40 74-67.5T470 191q0-90-59.5-146.5T244-12z"/><glyph glyph-name="scaron" unicode="š" horiz-adv-x="412" d="M263 556H155L75 700h70l64-91 61 91h70zM203-12Q83-12 17 57l51 84q23-25 60-42t73-17q34 0 52.5 14t18.5 37q0 22-24.5 35.5t-60 24.5-70.5 26-59.5 48T33 350q0 61 47 103t129 42q98 0 168-62l-48-81q-19 21-51 35.5T211 402q-28 0-46-13t-18-33 24.5-33 60-24 71-26.5 60-50T387 138q0-66-50-108T203-12z"/><glyph glyph-name="Tcommaaccent" unicode="Ţ" horiz-adv-x="473" d="M305-138q0-44-22-83t-59-65l-42 34q21 13 39.5 36t22.5 44q-4-2-14-2-22 0-37 15.5T178-119q0 25 17.5 42.5T238-59q28 0 47.5-21.5T305-138zM304 0H170v549H22v118h430V549H304V0z"/><glyph glyph-name="tcommaaccent" unicode="ţ" horiz-adv-x="298" d="M217-138q0-44-22-83t-59-65l-42 34q21 13 39.5 36t22.5 44q-4-2-14-2-22 0-37 15.5T90-119q0 25 17.5 42.5T150-59q28 0 47.5-21.5T217-138zM198-12Q75-12 75 116v262H12v105h63v132h120V483h80V378h-80V144q0-50 35-50 26 0 36 14l25-92q-31-28-93-28z"/><glyph glyph-name="Tcaron" unicode="Ť" horiz-adv-x="473" d="M292 723H184l-80 144h70l64-91 61 91h70zM304 0H170v549H22v118h430V549H304V0z"/><glyph glyph-name="tcaron" unicode="ť" horiz-adv-x="319" d="M367 682q0-44-22-83t-59-65l-42 34q21 13 39.5 36t22.5 44q-4-2-14-2-22 0-37 15.5T240 701q0 25 17.5 42.5T300 761q28 0 47.5-21.5T367 682zM198-12Q75-12 75 116v262H12v105h63v132h120V483h80V378h-80V144q0-50 35-50 26 0 36 14l25-92q-31-28-93-28z"/><glyph glyph-name="Tbar" unicode="Ŧ" horiz-adv-x="473" d="M304 0H170v267H68v69h102v213H22v118h430V549H304V336h98v-69h-98V0z"/><glyph glyph-name="tbar" unicode="ŧ" horiz-adv-x="298" d="M198-12Q75-12 75 116v95H12v69h63v98H12v105h63v132h120V483h80V378h-80v-98h50v-69h-50v-67q0-50 35-50 26 0 36 14l25-92q-31-28-93-28z"/><glyph glyph-name="Utilde" unicode="Ũ" horiz-adv-x="609" d="M305-12q-114 0-180 63.5T59 230v437h135V229q0-59 29-91t82-32 81.5 32 28.5 91v438h135V230q0-114-65.5-178T305-12zm51 733q-26 0-44.5 17.5T280 774t-26 18q-31 0-31-65h-62q0 62 25 98t71 36q20 0 36.5-11t25-24.5T338 801t22-11q30 0 30 65h62q0-62-25-98t-71-36z"/><glyph glyph-name="utilde" unicode="ũ" horiz-adv-x="499" d="M445 0H325v61q-21-31-59-52t-83-21Q54-12 54 118v365h120V164q0-70 64-70 54 0 87 59v330h120V0zM299 554q-26 0-44.5 18T223 607.5 197 625q-31 0-31-65h-62q0 62 25 98t71 36q26 0 44.5-18t32-35.5T303 623q30 0 30 65h62q0-62-25-98t-71-36z"/><glyph glyph-name="Umacron" unicode="Ū" horiz-adv-x="609" d="M305-12q-114 0-180 63.5T59 230v437h135V229q0-59 29-91t82-32 81.5 32 28.5 91v438h135V230q0-114-65.5-178T305-12zm156 742H150v69h311v-69z"/><glyph glyph-name="umacron" unicode="ū" horiz-adv-x="499" d="M445 0H325v61q-21-31-59-52t-83-21Q54-12 54 118v365h120V164q0-70 64-70 54 0 87 59v330h120V0zm-40 563H94v69h311v-69z"/><glyph glyph-name="Ubreve" unicode="Ŭ" horiz-adv-x="609" d="M305-12q-114 0-180 63.5T59 230v437h135V229q0-59 29-91t82-32 81.5 32 28.5 91v438h135V230q0-114-65.5-178T305-12zm151 792q-57-75-150-75t-150 75l55 44q35-50 95-50 61 0 95 50z"/><glyph glyph-name="ubreve" unicode="ŭ" horiz-adv-x="499" d="M445 0H325v61q-21-31-59-52t-83-21Q54-12 54 118v365h120V164q0-70 64-70 54 0 87 59v330h120V0zm-45 613q-57-75-150-75t-150 75l55 44q35-50 95-50 61 0 95 50z"/><glyph glyph-name="Uring" unicode="Ů" horiz-adv-x="609" d="M306 695q-40 0-68.5 28.5T209 792t28.5 68.5T306 889t68-28.5 28-68.5-28-68.5-68-28.5zm0 54q18 0 30 12.5t12 30.5-12 30.5-30 12.5q-17 0-30-13t-13-30q0-18 13-30.5t30-12.5zm-1-761q-114 0-180 63.5T59 230v437h135V229q0-59 29-91t82-32 81.5 32 28.5 91v438h135V230q0-114-65.5-178T305-12z"/><glyph glyph-name="uring" unicode="ů" horiz-adv-x="499" d="M250 534q-40 0-68.5 28.5T153 631t28.5 68.5T250 728t68-28.5 28-68.5-28-68.5-68-28.5zm0 54q18 0 30 12.5t12 30.5-12 30.5-30 12.5q-17 0-30-13t-13-30q0-18 13-30.5t30-12.5zM445 0H325v61q-21-31-59-52t-83-21Q54-12 54 118v365h120V164q0-70 64-70 54 0 87 59v330h120V0z"/><glyph glyph-name="Uhungarumlaut" unicode="Ű" horiz-adv-x="609" d="M305-12q-114 0-180 63.5T59 230v437h135V229q0-59 29-91t82-32 81.5 32 28.5 91v438h135V230q0-114-65.5-178T305-12zm51 879l-98-144h-66l70 144h94zm139 0l-98-144h-66l70 144h94z"/><glyph glyph-name="uhungarumlaut" unicode="ű" horiz-adv-x="499" d="M445 0H325v61q-21-31-59-52t-83-21Q54-12 54 118v365h120V164q0-70 64-70 54 0 87 59v330h120V0zM300 700l-98-144h-66l70 144h94zm139 0l-98-144h-66l70 144h94z"/><glyph glyph-name="Uogonek" unicode="Ų" horiz-adv-x="609" d="M395-103l49-28q-26-55-85-55-40 0-65 21.5T269-100q0 49 33 88-113 1-178 64.5T59 230v437h135V229q0-59 29-91t82-32 81.5 32 28.5 91v438h135V230q0-90-41.5-149.5T393 0q-64-38-64-95 0-40 31-40 25 0 35 32z"/><glyph glyph-name="uogonek" unicode="ų" horiz-adv-x="499" d="M445 0q-64-38-64-95 0-40 31-40 25 0 35 32l49-28q-26-55-85-55-40 0-65 21.5T321-100q0 56 45 100h-41v61q-21-31-59-52t-83-21Q54-12 54 118v365h120V164q0-70 64-70 54 0 87 59v330h120V0z"/><glyph glyph-name="Wcircumflex" unicode="Ŵ" horiz-adv-x="767" d="M516 723h-70l-64 91-61-91h-70l77 144h108zM609 0H469l-86 444L298 0H158L6 667h144l86-464 95 464h105l96-464 85 464h144z"/><glyph glyph-name="wcircumflex" unicode="ŵ" horiz-adv-x="688" d="M477 556h-70l-64 91-61-91h-70l77 144h108zM557 0H430l-86 329L259 0H132L3 483h124l76-328 84 328h111l87-328 76 328h125z"/><glyph glyph-name="Ycircumflex" unicode="Ŷ" horiz-adv-x="538" d="M402 723h-70l-64 91-61-91h-70l77 144h108zM336 0H202v275L-4 667h148l125-268 125 268h148L336 275V0z"/><glyph glyph-name="ycircumflex" unicode="ŷ" horiz-adv-x="447" d="M43-189L61-83q14-7 31-7 40 0 53 35l16 46L-2 483h128l97-338 98 338h128L260-82q-21-64-59-88.5T101-196q-35 0-58 7zm315 745h-70l-64 91-61-91H93l77 144h108z"/><glyph glyph-name="Ydieresis" unicode="Ÿ" horiz-adv-x="538" d="M429 777q0-27-19.5-46T363 712q-26 0-45 19t-19 46 19 45.5 45 18.5q27 0 46.5-18.5T429 777zm-188 0q0-27-18.5-46T177 712t-46 19-19 46 19 45.5 46 18.5 45.5-18.5T241 777zM336 0H202v275L-4 667h148l125-268 125 268h148L336 275V0z"/><glyph glyph-name="Zacute" unicode="Ź" horiz-adv-x="484" d="M394 867L260 723h-80l107 144h107zM448 0H36v110l241 439H36v118h405V559L198 118h250V0z"/><glyph glyph-name="zacute" unicode="ź" horiz-adv-x="407" d="M363 700L229 556h-80l107 144h107zm9-700H34v90l181 288H34v105h334v-87L186 105h186V0z"/><glyph glyph-name="Zdotaccent" unicode="Ż" horiz-adv-x="484" d="M448 0H36v110l241 439H36v118h405V559L198 118h250V0zM239 712q-27 0-46 18.5T174 776t19.5 46 45.5 19 45-19 19-46-19-45.5-45-18.5z"/><glyph glyph-name="zdotaccent" unicode="ż" horiz-adv-x="407" d="M372 0H34v90l181 288H34v105h334v-87L186 105h186V0zM202 545q-27 0-46 18.5T137 609t19.5 46 45.5 19 45-19 19-46-19-45.5-45-18.5z"/><glyph glyph-name="Zcaron" unicode="Ž" horiz-adv-x="484" d="M296 723H188l-80 144h70l64-91 61 91h70zM448 0H36v110l241 439H36v118h405V559L198 118h250V0z"/><glyph glyph-name="zcaron" unicode="ž" horiz-adv-x="407" d="M256 556H148L68 700h70l64-91 61 91h70zM372 0H34v90l181 288H34v105h334v-87L186 105h186V0z"/><glyph glyph-name="longs" unicode="ſ" horiz-adv-x="288" d="M197 0H76v378H14v105h62v38q0 73 39 114.5T222 677q69 0 106-36l-39-84q-19 19-43 19-23 0-36-14.5T197 521V0z"/><glyph glyph-name="florin" unicode="ƒ" horiz-adv-x="426" d="M147-161H10l89 402H51v105h71l41 186q14 65 64 105t114 40q65 0 99-33l-45-101q-13 16-38 16-23 0-40-15.5T294 500l-34-154h96V241H236z"/><glyph glyph-name="Ohorn" unicode="Ơ" horiz-adv-x="622" d="M310-12q-128 0-203 96.5T32 333t75 248.5T310 678q132 0 209-104 33 29 39 62-4-2-13-2-20 0-33.5 14T498 684t16 38 38 16q25 0 43-19.5t18-52.5q0-78-70-131 46-86 46-202 0-152-75-248.5T310-12zm0 119q67 0 104.5 63.5T452 333q0 100-37.5 163T310 559q-66 0-103-63t-37-163q0-99 37-162.5T310 107z"/><glyph glyph-name="ohorn" unicode="ơ" horiz-adv-x="495" d="M480 532q0-72-61-125 47-68 47-165 0-108-58-181T247-12Q145-12 87 61.5T29 242t58 180 160 73q84 0 141-52 30 27 38 59-4-2-14-2-20 0-33.5 14T365 550t15.5 38 38.5 16q25 0 43-19.5t18-52.5zM247 94q47 0 71 42t24 106-24 105.5-71 41.5q-46 0-69.5-42T154 242q0-64 23.5-106T247 94z"/><glyph glyph-name="Uhorn" unicode="Ư" horiz-adv-x="609" d="M652 727q0-44-26.5-85T550 575V230q0-114-65.5-178T305-12 125 51.5 59 230v437h135V229q0-59 29-91t82-32 81.5 32 28.5 91v438h135v-39q40 29 48 69-4-2-14-2-20 0-33 14t-13 36q0 23 15.5 38.5T591 799q25 0 43-19.5t18-52.5z"/><glyph glyph-name="uhorn" unicode="ư" horiz-adv-x="499" d="M445 0H325v61q-21-31-59-52t-83-21Q54-12 54 118v365h120V164q0-70 64-70 54 0 87 59v330h120v-11q17 24 20 42-4-2-13-2-20 0-33.5 14T405 562t15.5 38 37.5 16q26 0 44-19.5t18-52.5q0-80-75-135V0z"/><glyph glyph-name="AEacute" unicode="Ǽ" horiz-adv-x="787" d="M598 867L464 723h-80l107 144h107zM751 0H369v118H195L143 0H-2l315 667h438V549H504V398h240V280H504V118h247V0zM369 236v290L243 236h126z"/><glyph glyph-name="aeacute" unicode="ǽ" horiz-adv-x="751" d="M525 700L391 556h-80l107 144h107zm200-497H434q4-52 32.5-84.5T545 86q60 0 99 47l56-73q-31-34-76-53t-90-19q-102 0-159 81-61-81-172-81-76 0-125.5 41.5T28 146q0 74 43.5 116.5T182 305q90 0 134-56v62q0 39-25 61.5T221 395q-69 0-125-52l-45 82q36 35 86 52.5t98 17.5q107 0 144-76 55 76 149 76 92 0 144.5-72T725 236v-33zm-292 82h176q-1 45-22 79t-65 34-65.5-34.5T433 285zM316 164v13q-31 47-89 47-35 0-57.5-19.5T147 152q0-34 22-52.5T226 81q37 0 63.5 25.5T316 164z"/><glyph glyph-name="Oslashacute" unicode="Ǿ" horiz-adv-x="622" d="M471 867L337 723h-80l107 144h107zM310-12q-84 0-147 43L144 0H56l52 83q-76 96-76 250 0 152 75 248.5T310 678q78 0 142-40l18 29h88l-49-79q80-95 80-255 0-152-75-248.5T310-12zm0 119q67 0 104.5 63.5T452 333q0 75-21 129L231 139q34-32 79-32zM170 333q0-69 18-121l197 319q-31 28-75 28-66 0-103-63t-37-163z"/><glyph glyph-name="oslashacute" unicode="ǿ" horiz-adv-x="495" d="M408 700L274 556h-80l107 144h107zM108 0H37l47 65q-55 72-55 177 0 107 58 180t160 73q69 0 121-36l17 24h72l-47-64q56-71 56-177 0-108-58-181T247-12q-71 0-121 36zm139 94q47 0 71 42t24 106q0 38-9 69L192 116q22-22 55-22zm-93 148q0-41 8-68l140 193q-22 22-55 22-46 0-69.5-42T154 242z"/><glyph glyph-name="Scommaaccent" unicode="Ș" horiz-adv-x="498" d="M314-138q0-44-22-83t-59-65l-42 34q21 13 39.5 36t22.5 44q-4-2-14-2-22 0-37 15.5T187-119q0 25 17.5 42.5T247-59q28 0 47.5-21.5T314-138zM244-12Q102-12 16 74l66 103q64-71 161-71 43 0 67 21t24 53q0 27-22 47.5T257 260t-72 30.5-72 39.5-55 60.5T36 483q0 82 60 138.5T256 678q123 0 202-74l-64-100q-59 56-143 56-36 0-57-18.5T173 492q0-28 30.5-49t74.5-38 87.5-40 74-67.5T470 191q0-90-59.5-146.5T244-12z"/><glyph glyph-name="scommaaccent" unicode="ș" horiz-adv-x="412" d="M277-138q0-44-22-83t-59-65l-42 34q21 13 39.5 36t22.5 44q-4-2-14-2-22 0-37 15.5T150-119q0 25 17.5 42.5T210-59q28 0 47.5-21.5T277-138zM203-12Q83-12 17 57l51 84q23-25 60-42t73-17q34 0 52.5 14t18.5 37q0 22-24.5 35.5t-60 24.5-70.5 26-59.5 48T33 350q0 61 47 103t129 42q98 0 168-62l-48-81q-19 21-51 35.5T211 402q-28 0-46-13t-18-33 24.5-33 60-24 71-26.5 60-50T387 138q0-66-50-108T203-12z"/><glyph glyph-name="uni021A" unicode="Ț" horiz-adv-x="473" d="M305-138q0-44-22-83t-59-65l-42 34q21 13 39.5 36t22.5 44q-4-2-14-2-22 0-37 15.5T178-119q0 25 17.5 42.5T238-59q28 0 47.5-21.5T305-138zM304 0H170v549H22v118h430V549H304V0z"/><glyph glyph-name="uni021B" unicode="ț" horiz-adv-x="298" d="M217-138q0-44-22-83t-59-65l-42 34q21 13 39.5 36t22.5 44q-4-2-14-2-22 0-37 15.5T90-119q0 25 17.5 42.5T150-59q28 0 47.5-21.5T217-138zM198-12Q75-12 75 116v262H12v105h63v132h120V483h80V378h-80V144q0-50 35-50 26 0 36 14l25-92q-31-28-93-28z"/><glyph glyph-name="uni0237" unicode="ȷ" horiz-adv-x="228" d="M20-196q-55 0-90 29l30 94q19-19 45-19 49 0 49 64v511h120V-28q0-168-154-168z"/><glyph glyph-name="hsuperior" unicode="ʰ" horiz-adv-x="360" d="M317 326h-87v203q0 45-43 45-34 0-57-36V326H44v434h86V600q14 19 40 33.5t57 14.5q90 0 90-90V326z"/><glyph glyph-name="uni02BC" unicode="ʼ" horiz-adv-x="253" d="M209 578q0-54-27-101t-73-79l-52 42q25 15 47 42.5t28 52.5q-9-3-18-3-28 0-46.5 19.5T49 601q0 31 22 53.5t53 22.5q35 0 60-27t25-72z"/><glyph glyph-name="circumflex" unicode="ˆ" horiz-adv-x="265" d="M265 556h-70l-64 91-61-91H0l77 144h108z"/><glyph glyph-name="caron" unicode="ˇ" horiz-adv-x="265" d="M188 556H80L0 700h70l64-91 61 91h70z"/><glyph glyph-name="uni02C9" unicode="ˉ" horiz-adv-x="311" d="M311 591H0v69h311v-69z"/><glyph glyph-name="uni02CB" unicode="ˋ" horiz-adv-x="214" d="M214 556h-80L0 700h107z"/><glyph glyph-name="breve" unicode="˘" horiz-adv-x="300" d="M300 613q-57-75-150-75T0 613l55 44q35-50 95-50 61 0 95 50z"/><glyph glyph-name="dotaccent" unicode="˙" horiz-adv-x="165" d="M83 545q-27 0-46 18.5T18 609t19.5 46T83 674t45-19 19-46-19-45.5T83 545z"/><glyph glyph-name="ring" unicode="˚" horiz-adv-x="193" d="M97 534q-40 0-68.5 28.5T0 631t28.5 68.5T97 728t68-28.5 28-68.5-28-68.5T97 534zm0 54q18 0 30 12.5t12 30.5-12 30.5T97 674q-17 0-30-13t-13-30q0-18 13-30.5T97 588z"/><glyph glyph-name="ogonek" unicode="˛" horiz-adv-x="175" d="M126-103l49-28q-26-55-85-55-40 0-65 21.5T0-100Q0-24 81 29l43-29Q60-38 60-95q0-40 31-40 25 0 35 32z"/><glyph glyph-name="tilde" unicode="˜" horiz-adv-x="291" d="M195 554q-26 0-44.5 18T119 607.5 93 625q-31 0-31-65H0q0 62 25 98t71 36q26 0 44.5-18t32-35.5T199 623q30 0 30 65h62q0-62-25-98t-71-36z"/><glyph glyph-name="hungarumlaut" unicode="˝" horiz-adv-x="303" d="M164 700L66 556H0l70 144h94zm139 0l-98-144h-66l70 144h94z"/><glyph glyph-name="hookabovecomb" unicode="̉" horiz-adv-x="175" d="M58 724l-44 11q16 55 73 55 31 0 50.5-17.5T157 721q0-28-16-54H91q19 23 19 51 0 31-24 31-20 0-28-25z"/><glyph glyph-name="uni037E" unicode=";" horiz-adv-x="252" d="M126 335q-31 0-54.5 23.5T48 413t23 54 55 23 54.5-23 22.5-54-23-54.5-54-23.5zm83-288q0-109-100-181L57-91q25 14 47 41.5T132 4q-4-3-18-3-28 0-47 19.5T48 70q0 31 22.5 53.5T124 146q35 0 60-27t25-72z"/><glyph glyph-name="tonos" unicode="΄" horiz-adv-x="222" d="M161 555h-53l20 210h101z"/><glyph glyph-name="dieresistonos" unicode="΅" horiz-adv-x="500" d="M261 555h-54l20 210h102zm196 55q0-27-19-46t-46-19-46 19-19 46 19 45.5 46 18.5 46-18.5 19-45.5zm-286 0q0-27-18.5-46T107 545t-46 19-19 46 19 45.5 46 18.5 45.5-18.5T171 610z"/><glyph glyph-name="Alphatonos" unicode="Ά" horiz-adv-x="554" d="M118 555H65l20 210h101zM556 0H410l-31 118H174L143 0H-2l198 667h162zM353 236l-76 290-76-290h152z"/><glyph glyph-name="Epsilontonos" unicode="Έ" horiz-adv-x="524" d="M42 555h-53L9 765h101zM485 0H103v667h382V549H237V398h241V280H237V118h248V0z"/><glyph glyph-name="Etatonos" unicode="Ή" horiz-adv-x="651" d="M42 555h-53L9 765h101zM593 0H458v284H237V0H103v667h134V402h221v265h135V0z"/><glyph glyph-name="Iotatonos" unicode="Ί" horiz-adv-x="296" d="M42 555h-53L9 765h101zM237 0H103v667h134V0z"/><glyph glyph-name="Omicrontonos" unicode="Ό" horiz-adv-x="633" d="M57 555H4l20 210h101zM322-12q-128 0-203 96.5T44 333t75 248.5T322 678q129 0 204-96.5T601 333 526 84.5 322-12zm0 119q67 0 104.5 63.5T464 333q0 100-37.5 163T322 559q-66 0-103-63t-37-163q0-99 37-162.5T322 107z"/><glyph glyph-name="Upsilontonos" unicode="Ύ" horiz-adv-x="627" d="M40 555h-53L7 765h101zM425 0H291v275L85 667h148l125-268 125 268h148L425 275V0z"/><glyph glyph-name="Omegatonos" unicode="Ώ" horiz-adv-x="636" d="M57 555H4l20 210h101zm6-437h98Q49 207 49 363q0 143 75 229t203 86 203.5-86T606 363q0-156-112-245h98V0H372v118q42 19 69 78.5T468 334q0 101-35 162.5T327 558q-70 0-105.5-62T186 334q0-77 27.5-137t69.5-79V0H63v118z"/><glyph glyph-name="iotadieresistonos" unicode="ΐ" horiz-adv-x="242" d="M132 555H78l20 210h102zm196 55q0-27-19-46t-46-19-46 19-19 46 19 45.5 46 18.5 46-18.5 19-45.5zm-286 0q0-27-18.5-46T-22 545t-46 19-19 46 19 45.5 46 18.5 45.5-18.5T42 610zM177-12Q54-12 54 116v367h120V136q0-42 34-42 6 0 16 2l8-101q-23-7-55-7z"/><glyph glyph-name="Alpha" unicode="Α" horiz-adv-x="554" d="M556 0H410l-31 118H174L143 0H-2l198 667h162zM353 236l-76 290-76-290h152z"/><glyph glyph-name="Beta" unicode="Β" horiz-adv-x="558" d="M344 0H59v667h276q85 0 130.5-48.5T511 497q0-61-29.5-101T404 344q51-8 84.5-55T522 180q0-80-45.5-130T344 0zm-41 397q35 0 53 20.5t18 56.5q0 35-18 55.5T303 550H193V397h110zm5-280q37 0 57 21.5t20 60.5q0 36-20 59t-57 23H193V117h115z"/><glyph glyph-name="Gamma" unicode="Γ" horiz-adv-x="473" d="M193 0H59v667h382V549H193V0z"/><glyph glyph-name="uni0394" unicode="Δ" horiz-adv-x="563" d="M565 0H-2l202 667h162zM392 118L281 526 171 118h221z"/><glyph glyph-name="Epsilon" unicode="Ε" horiz-adv-x="481" d="M441 0H59v667h382V549H193V398h241V280H193V118h248V0z"/><glyph glyph-name="Zeta" unicode="Ζ" horiz-adv-x="484" d="M448 0H36v110l241 439H36v118h405V559L198 118h250V0z"/><glyph glyph-name="Eta" unicode="Η" horiz-adv-x="608" d="M549 0H414v284H193V0H59v667h134V402h221v265h135V0z"/><glyph glyph-name="Theta" unicode="Θ" horiz-adv-x="622" d="M416 280H206v118h210V280zM310-12q-128 0-203 96.5T32 333t75 248.5T310 678q129 0 204-96.5T589 333 514 84.5 310-12zm0 119q67 0 104.5 63.5T452 333q0 100-37.5 163T310 559q-66 0-103-63t-37-163q0-99 37-162.5T310 107z"/><glyph glyph-name="Iota" unicode="Ι" horiz-adv-x="252" d="M193 0H59v667h134V0z"/><glyph glyph-name="Kappa" unicode="Κ" horiz-adv-x="553" d="M552 0H394L240 261l-47-74V0H59v667h134V364l188 303h156L324 353z"/><glyph glyph-name="Lambda" unicode="Λ" horiz-adv-x="554" d="M556 0H410L277 526 143 0H-2l198 667h162z"/><glyph glyph-name="Mu" unicode="Μ" horiz-adv-x="735" d="M677 0H543v430L394 0h-53L193 430V0H59v667h180l129-372 130 372h179V0z"/><glyph glyph-name="Nu" unicode="Ν" horiz-adv-x="606" d="M548 0H420L193 394V0H59v667h136l218-380v380h135V0z"/><glyph glyph-name="Xi" unicode="Ξ" horiz-adv-x="511" d="M471 549H40v118h431V549zm0-549H40v118h431V0zm-7 280H47v118h417V280z"/><glyph glyph-name="Omicron" unicode="Ο" horiz-adv-x="622" d="M310-12q-128 0-203 96.5T32 333t75 248.5T310 678q129 0 204-96.5T589 333 514 84.5 310-12zm0 119q67 0 104.5 63.5T452 333q0 100-37.5 163T310 559q-66 0-103-63t-37-163q0-99 37-162.5T310 107z"/><glyph glyph-name="Pi" unicode="Π" horiz-adv-x="608" d="M549 0H414v549H193V0H59v667h490V0z"/><glyph glyph-name="Rho" unicode="Ρ" horiz-adv-x="533" d="M193 0H59v667h246q98 0 152-61t54-152-54-152-152-61H193V0zm96 359q38 0 61.5 26t23.5 69-23.5 69-61.5 26h-96V359h96z"/><glyph glyph-name="Sigma" unicode="Σ" horiz-adv-x="474" d="M195 549l155-207-160-224h247V0H40v120l158 222L41 549v118h396V549H195z"/><glyph glyph-name="Tau" unicode="Τ" horiz-adv-x="473" d="M304 0H170v549H22v118h430V549H304V0z"/><glyph glyph-name="Upsilon" unicode="Υ" horiz-adv-x="538" d="M336 0H202v275L-4 667h148l125-268 125 268h148L336 275V0z"/><glyph glyph-name="Phi" unicode="Φ" horiz-adv-x="755" d="M445 0H310v67q-135 15-206.5 85.5T32 333q0 109 71.5 179.5T310 598v69h135v-69q134-15 206-85.5T723 333q0-110-72-180.5T445 67V0zm140 333q0 57-35 94.5T445 477V188q140 25 140 145zm-415 0q0-120 140-145v289q-71-12-105.5-49.5T170 333z"/><glyph glyph-name="Chi" unicode="Χ" horiz-adv-x="553" d="M555 0H401L276 237 152 0H-2l195 341L9 667h154l113-223 113 223h155L360 342z"/><glyph glyph-name="Psi" unicode="Ψ" horiz-adv-x="773" d="M454 0H320v127q-122 14-191.5 80T59 379v288h136V382q0-112 125-135v420h134V248q124 24 124 134v285h136V380q0-108-69-173.5T454 127V0z"/><glyph glyph-name="uni03A9" unicode="Ω" horiz-adv-x="617" d="M44 118h98Q30 207 30 363q0 143 75 229t203 86 203.5-86T587 363q0-156-112-245h98V0H353v118q42 19 69 78.5T449 334q0 101-35 162.5T308 558q-70 0-105.5-62T167 334q0-77 27.5-137t69.5-79V0H44v118z"/><glyph glyph-name="Iotadieresis" unicode="Ϊ" horiz-adv-x="252" d="M193 0H59v667h134V0zm92 794q0-27-19.5-46T219 729q-26 0-45 19t-19 46 19 45.5 45 18.5q27 0 46.5-18.5T285 794zm-188 0q0-27-18.5-46T33 729t-46 19-19 46 19 45.5T33 858t45.5-18.5T97 794z"/><glyph glyph-name="Upsilondieresis" unicode="Ϋ" horiz-adv-x="538" d="M336 0H202v275L-4 667h148l125-268 125 268h148L336 275V0zm91 794q0-27-19.5-46T361 729q-26 0-45 19t-19 46 19 45.5 45 18.5q27 0 46.5-18.5T427 794zm-188 0q0-27-18.5-46T175 729t-46 19-19 46 19 45.5 46 18.5 45.5-18.5T239 794z"/><glyph glyph-name="alphatonos" unicode="ά" horiz-adv-x="517" d="M275 555h-53l20 210h101zM500 96l8-101q-23-7-55-7-96 0-117 83-19-37-54-60t-74-23q-82 0-130.5 67.5T29 241q0 116 48.5 185T208 495q79 0 121-73v61h121V136q0-42 33-42 7 0 17 2zm-254-2q24 0 48 16.5t36 40.5v180q-12 24-36 40.5T246 388q-44 0-68.5-40.5T153 241q0-65 24.5-106T246 94z"/><glyph glyph-name="epsilontonos" unicode="έ" horiz-adv-x="441" d="M236 555h-53l20 210h101zm-5-567q-92 0-147 40T29 132q0 48 35 79t83 37q-46 8-78 40.5T37 362q0 62 55 97.5T244 495q108 0 178-77l-59-71q-46 52-122 52-38 0-61-14t-23-39q0-55 84-55h88v-94h-90q-89 0-89-55 0-27 22-42.5T233 84q87 0 138 53l57-72q-69-77-197-77z"/><glyph glyph-name="etatonos" unicode="ή" horiz-adv-x="500" d="M265 555h-53l20 210h101zm180-739H325v502q0 71-63 71-53 0-88-60V0H54v483h120v-63q21 31 59.5 53t82.5 22q65 0 97-34.5t32-97.5v-547z"/><glyph glyph-name="iotatonos" unicode="ί" horiz-adv-x="242" d="M137 555H84l20 210h101zm40-567Q54-12 54 116v367h120V136q0-42 34-42 6 0 16 2l8-101q-23-7-55-7z"/><glyph glyph-name="upsilondieresistonos" unicode="ΰ" horiz-adv-x="498" d="M260 555h-54l20 210h102zm196 55q0-27-19-46t-46-19-46 19-19 46 19 45.5 46 18.5 46-18.5 19-45.5zm-286 0q0-27-18.5-46T106 545t-46 19-19 46 19 45.5 46 18.5 45.5-18.5T170 610zm79-622q-91 0-143 55T54 192v291h120V193q0-46 20-72.5T250 94q47 0 70.5 44.5T344 258q0 107-52 193l112 44q65-109 65-237 0-119-58-194.5T249-12z"/><glyph glyph-name="alpha" unicode="α" horiz-adv-x="517" d="M500 96l8-101q-23-7-55-7-96 0-117 83-19-37-54-60t-74-23q-82 0-130.5 67.5T29 241q0 116 48.5 185T208 495q79 0 121-73v61h121V136q0-42 33-42 7 0 17 2zm-254-2q24 0 48 16.5t36 40.5v180q-12 24-36 40.5T246 388q-44 0-68.5-40.5T153 241q0-65 24.5-106T246 94z"/><glyph glyph-name="beta" unicode="β" horiz-adv-x="504" d="M174 453V151q32-57 90-57 41 0 63.5 27.5T350 190q0 47-24.5 71T262 285h-28v107h23q37 0 58 23.5t21 65.5-19.5 65.5T264 570q-41 0-65.5-29T174 453zm0-392v-245H54v637q0 59 18 104t49 70.5 67 37.5 77 12q91 0 143.5-47T461 496q0-57-31.5-98.5T347 344q53-9 90.5-55T475 168q0-74-48.5-127T304-12q-84 0-130 73z"/><glyph glyph-name="gamma" unicode="γ" horiz-adv-x="447" d="M283-184H163v113q0 157-48 303T-12 483h134q46-71 78-159t38-171q30 61 50 153t20 177h121q0-117-41-247T283 8v-192z"/><glyph glyph-name="delta" unicode="δ" horiz-adv-x="495" d="M253-12Q148-12 88.5 58.5T29 227q0 125 105 197-59 40-59 110 0 61 47 103t129 42q98 0 168-62l-49-83q-43 50-118 50-28 0-45.5-13T189 538q0-17 20.5-31.5T261 481t66.5-32 66.5-47 51.5-73.5T466 220q0-94-56-163T253-12zm99 232q0 58-30 91.5T236 371q-82-48-82-144 0-54 25.5-93.5T252 94t73.5 38.5T352 220z"/><glyph glyph-name="epsilon" unicode="ε" horiz-adv-x="441" d="M231-12q-92 0-147 40T29 132q0 48 35 79t83 37q-46 8-78 40.5T37 362q0 62 55 97.5T244 495q108 0 178-77l-59-71q-46 52-122 52-38 0-61-14t-23-39q0-55 84-55h88v-94h-90q-89 0-89-55 0-27 22-42.5T233 84q87 0 138 53l57-72q-69-77-197-77z"/><glyph glyph-name="zeta" unicode="ζ" horiz-adv-x="415" d="M275-38q0 26-30 26-96 0-156 59.5T29 199q0 213 215 363H40v105h342v-87q-103-77-166-173t-63-192q0-56 30.5-88.5T272 94q63 0 90.5-25T390-6q0-60-47-151H226q49 78 49 119z"/><glyph glyph-name="eta" unicode="η" horiz-adv-x="500" d="M445-184H325v502q0 71-63 71-53 0-88-60V0H54v483h120v-63q21 31 59.5 53t82.5 22q65 0 97-34.5t32-97.5v-547z"/><glyph glyph-name="theta" unicode="θ" horiz-adv-x="495" d="M247-12Q142-12 85.5 85.5T29 334q0 152 56.5 248.5T247 679q107 0 163-96.5T466 334 409.5 85 247-12zm0 106q46 0 68 46.5T341 283H155q4-96 25.5-142.5T247 94zm0 479q-45 0-66.5-46.5T155 387h186q-5 94-27 140t-67 46z"/><glyph glyph-name="iota" unicode="ι" horiz-adv-x="242" d="M177-12Q54-12 54 116v367h120V136q0-42 34-42 6 0 16 2l8-101q-23-7-55-7z"/><glyph glyph-name="kappa" unicode="κ" horiz-adv-x="469" d="M466 0H325L225 189l-51-71V0H54v483h120V264l147 219h140L308 266z"/><glyph glyph-name="lambda" unicode="λ" horiz-adv-x="447" d="M61 565L43 671q21 8 58 8 62-1 100-25.5t59-88.5L449 0H321l-98 338L126 0H-2l163 492-16 46q-13 35-53 35-18 0-31-8z"/><glyph glyph-name="uni03BC" unicode="μ" horiz-adv-x="512" d="M174 8v-192H54v667h120V164q0-70 65-70 53 0 86 59v330h120V136q0-42 34-42 6 0 16 2l8-101q-23-7-55-7-97 0-118 86-16-38-44-62t-61-24q-35 0-51 20z"/><glyph glyph-name="nu" unicode="ν" horiz-adv-x="447" d="M279 0H159L-2 483h128l102-356q38 75 59 171.5T308 483h121q0-118-42.5-251T279 0z"/><glyph glyph-name="xi" unicode="ξ" horiz-adv-x="415" d="M245-12Q145-12 87 37.5T29 167q0 58 31 97.5t79 55.5q-44 8-72 41t-28 78q0 38 23 71.5t62 51.5H47v105h330V562H221q-28-10-44.5-34T160 476q0-41 27-63t71-22h113V287H258q-47 0-76-24t-29-73q0-41 30.5-68.5T272 94q63 0 90.5-25T390-6q0-60-47-151H226q49 78 49 119 0 26-30 26z"/><glyph glyph-name="omicron" unicode="ο" horiz-adv-x="495" d="M247-12Q145-12 87 61.5T29 242t58 180 160 73q103 0 161-73t58-180q0-108-58-181T247-12zm0 106q47 0 71 42t24 106-24 105.5-71 41.5q-46 0-69.5-42T154 242q0-64 23.5-106T247 94z"/><glyph glyph-name="pi" unicode="π" horiz-adv-x="541" d="M467 0H346v378H195V0H75v378H12v105h517V378h-62V0z"/><glyph glyph-name="rho" unicode="ρ" horiz-adv-x="503" d="M296-12q-78 0-122 73v-245H54v426q0 107 55.5 180T263 495q100 0 156-72.5T475 242q0-117-48.5-185.5T296-12zM257 94q45 0 69.5 41T351 242q0 65-22.5 106T262 389q-43 0-65.5-41.5T174 242v-91q12-24 35.5-40.5T257 94z"/><glyph glyph-name="sigma1" unicode="ς" horiz-adv-x="416" d="M250-12q-96 0-158.5 71T29 242q0 111 61 182t160 71q100 0 154-65l-60-83q-34 42-81 42-51 0-80.5-41.5T153 242q0-67 32-107.5T270 94Q393 94 393-6q0-61-48-151H230q50 80 50 119 0 26-30 26z"/><glyph glyph-name="sigma" unicode="σ" horiz-adv-x="495" d="M458 216q0-95-54.5-161.5T247-12Q147-12 88 61T29 242q0 103 59.5 172T258 483h220V377h-80q60-61 60-161zm-116 18q0 99-55 143h-29q-53 0-78.5-39T154 242q0-64 23.5-106T247 94q47 0 71 40.5t24 99.5z"/><glyph glyph-name="tau" unicode="τ" horiz-adv-x="394" d="M260-12q-123 0-123 128v262H18v105h358V378H257V144q0-50 35-50 24 0 36 14l25-92q-31-28-93-28z"/><glyph glyph-name="upsilon" unicode="υ" horiz-adv-x="498" d="M249-12q-91 0-143 55T54 192v291h120V193q0-46 20-72.5T250 94q47 0 70.5 44.5T344 258q0 107-52 193l112 44q65-109 65-237 0-119-58-194.5T249-12z"/><glyph glyph-name="phi" unicode="φ" horiz-adv-x="702" d="M672 242q0-102-66-170T411-9v-175H291V-9Q161 4 95 73.5T29 251q0 165 166 244l52-94q-93-46-93-150 0-131 137-153v397h59q159 0 240.5-69.5T672 242zm-124 0q0 60-36 98t-101 44V98q137 22 137 144z"/><glyph glyph-name="chi" unicode="χ" horiz-adv-x="438" d="M436-184H306L219 40l-89-224H2l141 339L9 483h129l81-211 79 211h130L294 155z"/><glyph glyph-name="psi" unicode="ψ" horiz-adv-x="702" d="M411-184H291V-8Q178 4 116 65.5T54 231v252h120V231q0-112 117-133v569h120V99q117 21 117 132v252h120V231q0-104-62.5-165.5T411-8v-176z"/><glyph glyph-name="omega" unicode="ω" horiz-adv-x="744" d="M715 242q0-108-50-181T528-12q-59 0-99 34t-57 94q-18-60-57.5-94T216-12q-87 0-137 73T29 242q0 79 28 147t76 106l90-67q-69-61-69-187 0-64 20-105.5T232 94q40 0 60 41.5T312 242v122h120V242q0-64 20-106t59-42 59 42 20 106q0 125-69 186l90 67q48-38 76-106t28-147z"/><glyph glyph-name="iotadieresis" unicode="ϊ" horiz-adv-x="242" d="M280 610q0-27-19.5-46T214 545q-26 0-45 19t-19 46 19 45.5 45 18.5q27 0 46.5-18.5T280 610zm-188 0q0-27-18.5-46T28 545t-46 19-19 46 19 45.5T28 674t45.5-18.5T92 610zm85-622Q54-12 54 116v367h120V136q0-42 34-42 6 0 16 2l8-101q-23-7-55-7z"/><glyph glyph-name="upsilondieresis" unicode="ϋ" horiz-adv-x="498" d="M407 610q0-27-19.5-46T341 545q-26 0-45 19t-19 46 19 45.5 45 18.5q27 0 46.5-18.5T407 610zm-188 0q0-27-18.5-46T155 545t-46 19-19 46 19 45.5 46 18.5 45.5-18.5T219 610zm30-622q-91 0-143 55T54 192v291h120V193q0-46 20-72.5T250 94q47 0 70.5 44.5T344 258q0 107-52 193l112 44q65-109 65-237 0-119-58-194.5T249-12z"/><glyph glyph-name="omicrontonos" unicode="ό" horiz-adv-x="495" d="M263 555h-53l20 210h101zM247-12Q145-12 87 61.5T29 242t58 180 160 73q103 0 161-73t58-180q0-108-58-181T247-12zm0 106q47 0 71 42t24 106-24 105.5-71 41.5q-46 0-69.5-42T154 242q0-64 23.5-106T247 94z"/><glyph glyph-name="upsilontonos" unicode="ύ" horiz-adv-x="498" d="M265 555h-53l20 210h101zM249-12q-91 0-143 55T54 192v291h120V193q0-46 20-72.5T250 94q47 0 70.5 44.5T344 258q0 107-52 193l112 44q65-109 65-237 0-119-58-194.5T249-12z"/><glyph glyph-name="omegatonos" unicode="ώ" horiz-adv-x="744" d="M388 555h-53l20 210h101zm327-313q0-108-50-181T528-12q-59 0-99 34t-57 94q-18-60-57.5-94T216-12q-87 0-137 73T29 242q0 79 28 147t76 106l90-67q-69-61-69-187 0-64 20-105.5T232 94q40 0 60 41.5T312 242v122h120V242q0-64 20-106t59-42 59 42 20 106q0 125-69 186l90 67q48-38 76-106t28-147z"/><glyph glyph-name="afii10023" unicode="Ё" horiz-adv-x="481" d="M408 777q0-27-19.5-46T342 712q-26 0-45 19t-19 46 19 45.5 45 18.5q27 0 46.5-18.5T408 777zm-188 0q0-27-18.5-46T156 712t-46 19-19 46 19 45.5 46 18.5 45.5-18.5T220 777zM441 0H59v667h382V549H193V398h241V280H193V118h248V0z"/><glyph glyph-name="afii10051" unicode="Ђ" horiz-adv-x="646" d="M400-12v117q39 0 62 22.5t23 66.5v13q0 45-28 71.5T380 305q-48 0-87-14V0H159v549H10v118h431V549H293V408q56 14 107 14 105 0 162.5-61T620 208v-14q0-102-61.5-154T400-12z"/><glyph glyph-name="afii10052" unicode="Ѓ" horiz-adv-x="473" d="M404 867L270 723h-80l107 144h107zM193 0H59v667h382V549H193V0z"/><glyph glyph-name="afii10053" unicode="Є" horiz-adv-x="558" d="M314-12q-128 0-205 96T32 333t77 249 205 96q152 0 223-160l-111-49q-34 90-113 90-55 0-91-43.5T174 398h247V280H173q9-79 46-126t94-47q40 0 69.5 26.5T427 204l111-48Q469-12 314-12z"/><glyph glyph-name="afii10054" unicode="Ѕ" horiz-adv-x="498" d="M244-12Q102-12 16 74l66 103q64-71 161-71 43 0 67 21t24 53q0 27-22 47.5T257 260t-72 30.5-72 39.5-55 60.5T36 483q0 82 60 138.5T256 678q123 0 202-74l-64-100q-59 56-143 56-36 0-57-18.5T173 492q0-28 30.5-49t74.5-38 87.5-40 74-67.5T470 191q0-90-59.5-146.5T244-12z"/><glyph glyph-name="afii10055" unicode="І" horiz-adv-x="252" d="M193 0H59v667h134V0z"/><glyph glyph-name="afii10056" unicode="Ї" horiz-adv-x="252" d="M193 0H59v667h134V0zm92 777q0-27-19.5-46T219 712q-26 0-45 19t-19 46 19 45.5 45 18.5q27 0 46.5-18.5T285 777zm-188 0q0-27-18.5-46T33 712t-46 19-19 46 19 45.5T33 841t45.5-18.5T97 777z"/><glyph glyph-name="afii10057" unicode="Ј" horiz-adv-x="417" d="M151-12Q62-12 7 39l48 105q35-37 83-37 40 0 63.5 23.5T225 197v470h134V193q0-102-56-153.5T151-12z"/><glyph glyph-name="afii10058" unicode="Љ" horiz-adv-x="888" d="M21-12v119q30 0 48 13.5t32.5 60.5T124 316l32 351h393V426h111q98 0 152.5-61T867 213 813 61 660 0H415v549H278l-21-240q-9-100-29-165.5T175.5 45t-68-45T21-12zm623 320h-95V118h95q39 0 62.5 26t23.5 69-23.5 69-62.5 26z"/><glyph glyph-name="afii10059" unicode="Њ" horiz-adv-x="888" d="M59 0v667h134V402h222v265h134V402h118q95 0 147.5-57.5T867 201 814.5 57.5 667 0H415v284H193V0H59zm490 118h102q36 0 57.5 22.5T730 201t-21.5 60.5T651 284H549V118z"/><glyph glyph-name="afii10060" unicode="Ћ" horiz-adv-x="662" d="M481 0v194q0 111-101 111-48 0-87-14V0H159v549H10v118h431V549H293V408q56 14 107 14 106 0 161-63t55-165V0H481z"/><glyph glyph-name="afii10061" unicode="Ќ" horiz-adv-x="553" d="M442 867L308 723h-80l107 144h107zM552 0H394L240 261l-47-74V0H59v667h134V364l188 303h156L324 353z"/><glyph glyph-name="afii10062" unicode="Ў" horiz-adv-x="538" d="M125-12Q49-12-1 26l42 109q32-27 70-27 28 0 45 14.5t31 45.5l10 26L-4 667h147l126-325 126 325h147L313 124q-29-69-72.5-102.5T125-12zm294 792q-57-75-150-75t-150 75l55 44q35-50 95-50 61 0 95 50z"/><glyph glyph-name="afii10145" unicode="Џ" horiz-adv-x="608" d="M59 0v667h134V118h222v549h134V0H371v-127H237V0H59z"/><glyph glyph-name="afii10017" unicode="А" horiz-adv-x="554" d="M556 0H410l-31 118H174L143 0H-2l198 667h162zM353 236l-76 290-76-290h152z"/><glyph glyph-name="afii10018" unicode="Б" horiz-adv-x="533" d="M59 667h410V549H193V423h113q98 0 151.5-60.5T511 212q0-91-53.5-151.5T306 0H59v667zm231-362h-97V118h97q38 0 61 25t23 68-23 68.5-61 25.5z"/><glyph glyph-name="afii10019" unicode="В" horiz-adv-x="558" d="M344 0H59v667h276q85 0 130.5-48.5T511 497q0-61-29.5-101T404 344q51-8 84.5-55T522 180q0-80-45.5-130T344 0zm-41 397q35 0 53 20.5t18 56.5q0 35-18 55.5T303 550H193V397h110zm5-280q37 0 57 21.5t20 60.5q0 36-20 59t-57 23H193V117h115z"/><glyph glyph-name="afii10020" unicode="Г" horiz-adv-x="473" d="M193 0H59v667h382V549H193V0z"/><glyph glyph-name="afii10021" unicode="Д" horiz-adv-x="619" d="M20-123v230q24 4 37.5 11.5t28 29 23.5 64T124 324l32 343h393V118h56v-241H471V0H155v-123H20zm238 445q-13-139-70-204h227v431H278z"/><glyph glyph-name="afii10022" unicode="Е" horiz-adv-x="481" d="M441 0H59v667h382V549H193V398h241V280H193V118h248V0z"/><glyph glyph-name="afii10024" unicode="Ж" horiz-adv-x="802" d="M160 0H1l229 353L16 667h157l161-261v261h134V406l161 261h157L572 353 801 0H642L488 261l-20-32V0H334v229l-20 32z"/><glyph glyph-name="afii10025" unicode="З" horiz-adv-x="525" d="M255-12q-77 0-139.5 30T20 96l80 84q25-33 66-53t82-20q53 0 80 24t27 65q0 84-115 84H135v118h101q50 0 79.5 19.5T345 475q0 41-28.5 62T241 558q-83 0-136-67l-76 78q36 51 95.5 79.5T255 677q102 0 164-47.5T481 496q0-56-37.5-98.5T349 344q58-8 99.5-51.5T490 184q0-87-65-141.5T255-12z"/><glyph glyph-name="afii10026" unicode="И" horiz-adv-x="606" d="M187 0H59v667h134V271l218 396h137V0H413v410z"/><glyph glyph-name="afii10027" unicode="Й" horiz-adv-x="606" d="M187 0H59v667h134V271l218 396h137V0H413v410zm266 780q-57-75-150-75t-150 75l55 44q35-50 95-50 61 0 95 50z"/><glyph glyph-name="afii10028" unicode="К" horiz-adv-x="553" d="M552 0H394L240 261l-47-74V0H59v667h134V364l188 303h156L324 353z"/><glyph glyph-name="afii10029" unicode="Л" horiz-adv-x="608" d="M21-12v119q30 0 48 13.5t32.5 60.5T124 317l32 350h393V0H414v549H278l-21-240q-9-100-29-165.5T175.5 45t-68-45T21-12z"/><glyph glyph-name="afii10030" unicode="М" horiz-adv-x="735" d="M677 0H543v430L394 0h-53L193 430V0H59v667h180l129-372 130 372h179V0z"/><glyph glyph-name="afii10031" unicode="Н" horiz-adv-x="608" d="M549 0H414v284H193V0H59v667h134V402h221v265h135V0z"/><glyph glyph-name="afii10032" unicode="О" horiz-adv-x="622" d="M310-12q-128 0-203 96.5T32 333t75 248.5T310 678q129 0 204-96.5T589 333 514 84.5 310-12zm0 119q67 0 104.5 63.5T452 333q0 100-37.5 163T310 559q-66 0-103-63t-37-163q0-99 37-162.5T310 107z"/><glyph glyph-name="afii10033" unicode="П" horiz-adv-x="608" d="M549 0H414v549H193V0H59v667h490V0z"/><glyph glyph-name="afii10034" unicode="Р" horiz-adv-x="533" d="M193 0H59v667h246q98 0 152-61t54-152-54-152-152-61H193V0zm96 359q38 0 61.5 26t23.5 69-23.5 69-61.5 26h-96V359h96z"/><glyph glyph-name="afii10035" unicode="С" horiz-adv-x="558" d="M314-12q-128 0-205 96T32 333t77 249 205 96q152 0 223-160l-111-49q-16 41-44.5 65.5T314 559q-66 0-105-63t-39-163 39-163 105-63q40 0 69 26.5t44 70.5l111-48Q469-12 314-12z"/><glyph glyph-name="afii10036" unicode="Т" horiz-adv-x="473" d="M304 0H170v549H22v118h430V549H304V0z"/><glyph glyph-name="afii10037" unicode="У" horiz-adv-x="538" d="M125-12Q49-12-1 26l42 109q32-27 70-27 28 0 45 14.5t31 45.5l10 26L-4 667h147l126-325 126 325h147L313 124q-29-69-72.5-102.5T125-12z"/><glyph glyph-name="afii10038" unicode="Ф" horiz-adv-x="755" d="M445 0H310v67q-135 15-206.5 85.5T32 333q0 109 71.5 179.5T310 598v69h135v-69q134-15 206-85.5T723 333q0-110-72-180.5T445 67V0zm140 333q0 57-35 94.5T445 477V188q140 25 140 145zm-415 0q0-120 140-145v289q-71-12-105.5-49.5T170 333z"/><glyph glyph-name="afii10039" unicode="Х" horiz-adv-x="553" d="M555 0H401L276 237 152 0H-2l195 341L9 667h154l113-223 113 223h155L360 342z"/><glyph glyph-name="afii10040" unicode="Ц" horiz-adv-x="619" d="M471-123V0H59v667h134V118h222v549h134V118h56v-241H471z"/><glyph glyph-name="afii10041" unicode="Ч" horiz-adv-x="560" d="M179 667V468q0-111 100-111 49 0 88 14v296h134V0H367v254q-53-15-107-15-106 0-161 63.5T44 468v199h135z"/><glyph glyph-name="afii10042" unicode="Ш" horiz-adv-x="838" d="M645 667h134V0H59v667h134V118h159v549h134V118h159v549z"/><glyph glyph-name="afii10043" unicode="Щ" horiz-adv-x="850" d="M645 667h134V118h56v-241H701V0H59v667h134V118h159v549h134V118h159v549z"/><glyph glyph-name="afii10044" unicode="Ъ" horiz-adv-x="643" d="M415 0H170v549H22v118h282V426h111q99 0 153-61t54-152-54-152T415 0zm-16 308h-95V118h95q39 0 62.5 26t23.5 69-23.5 69-62.5 26z"/><glyph glyph-name="afii10045" unicode="Ы" horiz-adv-x="757" d="M59 667h134V426h112q98 0 152-61t54-152-54-152T305 0H59v667zm230-359h-96V118h96q38 0 61.5 26t23.5 69-23.5 69-61.5 26zM698 0H563v667h135V0z"/><glyph glyph-name="afii10046" unicode="Ь" horiz-adv-x="533" d="M59 667h134V426h112q98 0 152-61t54-152-54-152T305 0H59v667zm230-359h-96V118h96q38 0 61.5 26t23.5 69-23.5 69-61.5 26z"/><glyph glyph-name="afii10047" unicode="Э" horiz-adv-x="558" d="M243-12Q88-12 19 156l112 48q14-44 43.5-70.5T244 107q58 0 94.5 47T385 280H136v118h247q-11 74-47 117.5T244 559q-77 0-113-90L20 518q71 160 223 160 128 0 205-96t77-249-77-249-205-96z"/><glyph glyph-name="afii10048" unicode="Ю" horiz-adv-x="870" d="M559-12q-118 0-191 81t-85 215h-90V0H59v667h134V402h92q17 125 89.5 200.5T559 678q128 0 203-96.5T837 333 762 84.5 559-12zm0 119q66 0 103.5 63.5T700 333q0 100-37.5 163T559 559t-103.5-63T418 333q0-99 37.5-162.5T559 107z"/><glyph glyph-name="afii10049" unicode="Я" horiz-adv-x="551" d="M184 0H35l121 265q-47 16-81.5 64T40 456q0 93 56 152t147 59h249V0H358v241h-72zm79 359h95v190h-95q-39 0-62.5-26T177 454t23.5-69 62.5-26z"/><glyph glyph-name="afii10065" unicode="а" d="M425 0H304v48q-20-28-54.5-44T177-12q-61 0-105 43T28 148q0 75 43.5 116T177 305q39 0 73.5-15t53.5-42v63q0 39-23.5 61.5T215 395q-66 0-119-52l-45 82q73 70 186 70 85 0 136.5-41.5T425 324V0zM223 69q56 0 81 46v62q-26 47-81 47-34 0-54.5-21.5T148 146t20.5-56T223 69z"/><glyph glyph-name="afii10066" unicode="б" horiz-adv-x="497" d="M247 94q46 0 70.5 42.5T342 243q0 62-24.5 104T247 389t-70-42-24-104q0-64 24-106.5T247 94zm0-106Q142-12 85.5 64.5T29 264q0 183 48.5 261.5T247 625q81 14 81 42h122q0-103-169-131-133-22-148-111 48 70 138 70 91 0 143-73t52-179q0-107-57.5-181T247-12z"/><glyph glyph-name="afii10067" unicode="в" horiz-adv-x="502" d="M306 0H54v483h245q73 0 110.5-35t37.5-89q0-42-23-70.5T364 250q41-9 67-42t26-77q0-58-38-94.5T306 0zm-28 97q56 0 56 50 0 22-14.5 36.5T278 198H174V97h104zm-4 198q51 0 51 45 0 21-13 33.5T274 386H174v-91h100z"/><glyph glyph-name="afii10068" unicode="г" horiz-adv-x="383" d="M366 483V378H174V0H54v483h312z"/><glyph glyph-name="afii10069" unicode="д" horiz-adv-x="510" d="M17-123V96q31 5 47 31.5T88 235l23 248h335V105h50v-228H376V0H137v-123H17zm203 501l-12-147q-7-84-49-126h166v273H220z"/><glyph glyph-name="afii10070" unicode="е" d="M254-12Q152-12 90.5 58T29 242q0 108 59 180.5T245 495t153-71.5T453 237v-34H150q4-52 34-85t83-33q27 0 56 12.5t49 34.5l55-72q-66-72-173-72zm83 297q-2 45-24 79t-70 34q-46 0-68.5-34T150 285h187z"/><glyph glyph-name="afii10072" unicode="ж" horiz-adv-x="645" d="M144 0H3l158 266L8 483h140l114-170v170h120V311l115 172h139L484 266 642 0H501L401 189l-19-27V0H262v164l-18 25z"/><glyph glyph-name="afii10073" unicode="з" horiz-adv-x="441" d="M210-12Q82-12 13 65l57 72q51-53 137-53 40 0 62 15.5t22 42.5q0 55-89 55h-90v94h88q83 0 83 55 0 25-22.5 39T200 399q-77 0-122-52l-59 71q69 77 178 77 96 0 151.5-35.5T404 362q0-41-32.5-73.5T293 248q48-6 83.5-37t35.5-79q0-64-55-104T210-12z"/><glyph glyph-name="afii10074" unicode="и" horiz-adv-x="500" d="M170 0H54v483h120V211l149 272h123V0H325v283z"/><glyph glyph-name="afii10075" unicode="й" horiz-adv-x="500" d="M170 0H54v483h120V211l149 272h123V0H325v283zm230 613q-57-75-150-75t-150 75l55 44q35-50 95-50 61 0 95 50z"/><glyph glyph-name="afii10076" unicode="к" horiz-adv-x="469" d="M466 0H325L225 189l-51-71V0H54v483h120V264l147 219h140L308 266z"/><glyph glyph-name="afii10077" unicode="л" horiz-adv-x="500" d="M17-12V89q29 0 45.5 30.5T88 235l23 248h335V0H325v378H220l-13-155Q196 95 150.5 41.5T17-12z"/><glyph glyph-name="afii10078" unicode="м" horiz-adv-x="614" d="M560 0H441v293L333 0h-52L174 293V0H54v483h154l99-269 100 269h153V0z"/><glyph glyph-name="afii10079" unicode="н" horiz-adv-x="500" d="M174 0H54v483h120V303h151v180h121V0H325v198H174V0z"/><glyph glyph-name="afii10080" unicode="о" horiz-adv-x="495" d="M247-12Q145-12 87 61.5T29 242t58 180 160 73q103 0 161-73t58-180q0-108-58-181T247-12zm0 106q47 0 71 42t24 106-24 105.5-71 41.5q-46 0-69.5-42T154 242q0-64 23.5-106T247 94z"/><glyph glyph-name="afii10081" unicode="п" horiz-adv-x="500" d="M446 0H325v378H174V0H54v483h392V0z"/><glyph glyph-name="afii10082" unicode="р" horiz-adv-x="503" d="M296-12q-78 0-122 73v-245H54v667h120v-61q46 73 122 73 82 0 130.5-67.5T475 242q0-117-48.5-185.5T296-12zM257 94q45 0 69.5 41T351 242q0 65-24.5 106T257 389q-24 0-47.5-16T174 333V151q12-24 35.5-40.5T257 94z"/><glyph glyph-name="afii10083" unicode="с" horiz-adv-x="421" d="M250-12q-99 0-160 71T29 242q0 111 61 182t160 71q100 0 154-65l-60-83q-34 42-81 42-51 0-80.5-41.5T153 242q0-65 29.5-106.5T263 94q47 0 81 42l60-83q-54-65-154-65z"/><glyph glyph-name="afii10084" unicode="т" horiz-adv-x="367" d="M244 0H123v378H17v105h334V378H244V0z"/><glyph glyph-name="afii10085" unicode="у" horiz-adv-x="447" d="M43-189L61-83q14-7 31-7 40 0 53 35l16 46L-2 483h128l97-338 98 338h128L260-82q-21-64-59-88.5T101-196q-35 0-58 7z"/><glyph glyph-name="afii10086" unicode="ф" horiz-adv-x="735" d="M198 495q69 0 109-73v245h120V422q41 73 110 73 74 0 117-67.5T697 242q0-117-43-185.5T537-12q-71 0-110 73v-245H307V61q-39-73-109-73-74 0-117 68T38 242q0 117 43 185t117 68zm40-106q-38 0-58-40.5T160 242t21-107 58-41q20 0 39 16.5t29 40.5v181q-10 24-29.5 40.5T238 389zM495 94q37 0 58.5 41.5T575 242t-20.5 106-57.5 41q-20 0-39.5-16T427 333V151q11-24 30-40.5T495 94z"/><glyph glyph-name="afii10087" unicode="х" horiz-adv-x="438" d="M436 0H305l-86 161L132 0H2l141 246L9 483h131l79-152 78 152h131L294 246z"/><glyph glyph-name="afii10088" unicode="ц" horiz-adv-x="510" d="M376-123V0H54v483h120V105h151v378h121V105h50v-228H376z"/><glyph glyph-name="afii10089" unicode="ч" horiz-adv-x="488" d="M42 483h121V336q0-37 18-53t57-16q45 0 75 17v199h121V0H313v190q-45-29-117-29-83 0-118.5 33.5T42 295v188z"/><glyph glyph-name="afii10090" unicode="ш" horiz-adv-x="717" d="M543 483h120V0H54v483h120V105h124v378h121V105h124v378z"/><glyph glyph-name="afii10091" unicode="щ" horiz-adv-x="731" d="M543 483h120V105h54v-228H596V0H54v483h120V105h124v378h121V105h124v378z"/><glyph glyph-name="afii10092" unicode="ъ" horiz-adv-x="546" d="M350 0H123v378H17v105h227V314h106q82 0 126-44.5T520 157q0-67-44.5-112T350 0zm-16 216h-90V98h90q30 0 46.5 16.5T397 157t-16.5 42.5T334 216z"/><glyph glyph-name="afii10093" unicode="ы" horiz-adv-x="680" d="M54 483h120V314h106q82 0 126.5-44.5T451 157q0-67-45-112T280 0H54v483zm211-267h-91V98h91q30 0 46.5 16.5T328 157t-16.5 42.5T265 216zM626 0H506v483h120V0z"/><glyph glyph-name="afii10094" unicode="ь" horiz-adv-x="477" d="M54 483h120V314h106q82 0 126.5-44.5T451 157q0-67-45-112T280 0H54v483zm211-267h-91V98h91q30 0 46.5 16.5T328 157t-16.5 42.5T265 216z"/><glyph glyph-name="afii10095" unicode="э" horiz-adv-x="421" d="M172-12Q70-12 18 53l57 75q36-44 84-44 42 0 70 30.5t37 82.5H100v93h166q-9 51-37 80t-70 29q-49 0-84-44l-57 75q52 65 154 65 98 0 159-71t61-182q0-112-61-183T172-12z"/><glyph glyph-name="afii10096" unicode="ю" horiz-adv-x="709" d="M461-12q-92 0-148 59t-67 151h-72V0H54v483h120V303h74q16 85 71.5 138.5T461 495q103 0 161-73t58-180q0-108-58-181T461-12zm0 106q47 0 71 42t24 106-24 105.5-71 41.5q-46 0-69.5-42T368 242q0-64 23.5-106T461 94z"/><glyph glyph-name="afii10097" unicode="я" horiz-adv-x="497" d="M171 0H37l97 185q-38 13-64.5 49.5T43 327q0 67 45 111.5T213 483h230V0H323v169h-73zm57 267h95v118h-95q-29 0-46-16.5T165 327q0-27 16.5-43.5T228 267z"/><glyph glyph-name="afii10071" unicode="ё" d="M404 610q0-27-19.5-46T338 545q-26 0-45 19t-19 46 19 45.5 45 18.5q27 0 46.5-18.5T404 610zm-188 0q0-27-18.5-46T152 545t-46 19-19 46 19 45.5 46 18.5 45.5-18.5T216 610zm38-622Q152-12 90.5 58T29 242q0 108 59 180.5T245 495t153-71.5T453 237v-34H150q4-52 34-85t83-33q27 0 56 12.5t49 34.5l55-72q-66-72-173-72zm83 297q-2 45-24 79t-70 34q-46 0-68.5-34T150 285h187z"/><glyph glyph-name="afii10099" unicode="ђ" horiz-adv-x="508" d="M313 529H182V420q20 31 59 53t83 22q130 0 130-131V-28q0-168-153-168-56 0-92 29l30 91q19-19 45-19 49 0 49 67v347q0 70-63 70-53 0-88-60V0H62v529H12v69h50v69h120v-69h131v-69z"/><glyph glyph-name="afii10100" unicode="ѓ" horiz-adv-x="383" d="M371 700L237 556h-80l107 144h107zm-5-217V378H174V0H54v483h312z"/><glyph glyph-name="afii10101" unicode="є" horiz-adv-x="421" d="M250-12q-99 0-160 71T29 242q0 111 61 182t160 71q100 0 154-65l-58-75q-35 44-83 44-43 0-71-29t-37-80h167v-93H155q8-52 36.5-82.5T263 84q49 0 83 44l58-75q-54-65-154-65z"/><glyph glyph-name="afii10102" unicode="ѕ" horiz-adv-x="412" d="M203-12Q83-12 17 57l51 84q23-25 60-42t73-17q34 0 52.5 14t18.5 37q0 22-24.5 35.5t-60 24.5-70.5 26-59.5 48T33 350q0 61 47 103t129 42q98 0 168-62l-48-81q-19 21-51 35.5T211 402q-28 0-46-13t-18-33 24.5-33 60-24 71-26.5 60-50T387 138q0-66-50-108T203-12z"/><glyph glyph-name="afii10103" unicode="і" horiz-adv-x="228" d="M114 537q-29 0-50.5 21T42 609t21.5 51.5T114 682q30 0 51-21.5t21-51.5-21-51-51-21zM174 0H54v483h120V0z"/><glyph glyph-name="afii10104" unicode="ї" horiz-adv-x="228" d="M273 610q0-27-19.5-46T207 545q-26 0-45 19t-19 46 19 45.5 45 18.5q27 0 46.5-18.5T273 610zm-188 0q0-27-18.5-46T21 545t-46 19-19 46 19 45.5T21 674t45.5-18.5T85 610zM174 0H54v483h120V0z"/><glyph glyph-name="afii10105" unicode="ј" horiz-adv-x="228" d="M114 537q-29 0-50.5 21T42 609t21.5 51.5T114 682q30 0 51-21.5t21-51.5-21-51-51-21zM22-196q-56 0-92 29l30 91q19-19 45-19 49 0 49 67v511h120V-28q0-168-152-168z"/><glyph glyph-name="afii10106" unicode="љ" horiz-adv-x="749" d="M17-12V89q29 0 45.5 30.5T88 235l23 248h335V314h106q82 0 126-44.5T722 157q0-67-44.5-112T552 0H325v378H220l-13-155Q196 95 150.5 41.5T17-12zm519 228h-90V98h90q30 0 46.5 16.5T599 157t-16.5 42.5T536 216z"/><glyph glyph-name="afii10107" unicode="њ" horiz-adv-x="745" d="M174 0H54v483h120V304h151v179h121V304h109q81 0 124-43t43-110q0-64-43.5-107.5T555 0H325v199H174V0zm367 204h-95V98h95q28 0 43 14t15 39q0 24-15 38.5T541 204z"/><glyph glyph-name="afii10108" unicode="ћ" horiz-adv-x="508" d="M316 529H183V420q20 31 58.5 53t82.5 22q130 0 130-130V0H334v320q0 69-64 69-27 0-50-17.5T183 329V0H62v529H12v69h50v69h121v-69h133v-69z"/><glyph glyph-name="afii10109" unicode="ќ" horiz-adv-x="469" d="M396 700L262 556h-80l107 144h107zM466 0H325L225 189l-51-71V0H54v483h120V264l147 219h140L308 266z"/><glyph glyph-name="afii10110" unicode="ў" horiz-adv-x="447" d="M43-189L61-83q14-7 31-7 40 0 53 35l16 46L-2 483h128l97-338 98 338h128L260-82q-21-64-59-88.5T101-196q-35 0-58 7zm330 802q-57-75-150-75T73 613l55 44q35-50 95-50 61 0 95 50z"/><glyph glyph-name="afii10193" unicode="џ" horiz-adv-x="500" d="M190-126V0H54v483h120V105h151v378h121V0H310v-126H190z"/><glyph glyph-name="afii10050" unicode="Ґ" horiz-adv-x="473" d="M193 549V0H59v667h248v123h134V549H193z"/><glyph glyph-name="afii10098" unicode="ґ" horiz-adv-x="383" d="M174 378V0H54v483h192v126h120V378H174z"/><glyph glyph-name="uni1E02" unicode="Ḃ" horiz-adv-x="558" d="M344 0H59v667h276q85 0 130.5-48.5T511 497q0-61-29.5-101T404 344q51-8 84.5-55T522 180q0-80-45.5-130T344 0zm-41 397q35 0 53 20.5t18 56.5q0 35-18 55.5T303 550H193V397h110zm5-280q37 0 57 21.5t20 60.5q0 36-20 59t-57 23H193V117h115zm-29 595q-27 0-46 18.5T214 776t19.5 46 45.5 19 45-19 19-46-19-45.5-45-18.5z"/><glyph glyph-name="uni1E03" unicode="ḃ" horiz-adv-x="504" d="M174 151q12-24 36-40.5T258 94q44 0 68.5 41T351 241q0 66-24.5 107T258 389q-24 0-48-16.5T174 331V151zm0-151H54v667h120V422q42 73 122 73 82 0 130.5-69T475 241q0-118-48.5-185.5T296-12q-76 0-122 73V0zm85 712q-27 0-46 18.5T194 776t19.5 46 45.5 19 45-19 19-46-19-45.5-45-18.5z"/><glyph glyph-name="uni1E0A" unicode="Ḋ" horiz-adv-x="597" d="M274 0H59v667h215q136 0 213-92t77-242-77-241.5T274 0zm0 118q73 0 113 59t40 156q0 101-39.5 158.5T274 549h-81V118h81zm24 594q-27 0-46 18.5T233 776t19.5 46 45.5 19 45-19 19-46-19-45.5-45-18.5z"/><glyph glyph-name="uni1E0B" unicode="ḋ" horiz-adv-x="504" d="M450 0H330v61q-46-73-122-73-82 0-130.5 67.5T29 241q0 116 48.5 185T208 495q78 0 122-73v245h120V0zM246 94q24 0 48 16.5t36 40.5v181q-12 24-36 40.5T246 389q-44 0-68.5-41T153 241q0-65 24.5-106T246 94zm1 618q-27 0-46 18.5T182 776t19.5 46 45.5 19 45-19 19-46-19-45.5-45-18.5z"/><glyph glyph-name="uni1E1E" unicode="Ḟ" horiz-adv-x="473" d="M252 712q-27 0-46 18.5T187 776t19.5 46 45.5 19 45-19 19-46-19-45.5-45-18.5zM193 0H59v667h382V549H193V398h241V280H193V0z"/><glyph glyph-name="uni1E1F" unicode="ḟ" horiz-adv-x="288" d="M222 712q-27 0-46 18.5T157 776t19.5 46 45.5 19 45-19 19-46-19-45.5-45-18.5zM197 0H76v378H14v105h62v38q0 73 39 114.5T222 677q69 0 106-36l-39-81q-18 18-43 18-49 0-49-57v-38h79V378h-79V0z"/><glyph glyph-name="uni1E22" unicode="Ḣ" horiz-adv-x="608" d="M549 0H414v284H193V0H59v667h134V402h221v265h135V0zM303 712q-27 0-46 18.5T238 776t19.5 46 45.5 19 45-19 19-46-19-45.5-45-18.5z"/><glyph glyph-name="uni1E23" unicode="ḣ" horiz-adv-x="500" d="M446 0H326v320q0 69-64 69-27 0-50-17.5T175 329V0H54v667h121V420q20 31 58.5 53t82.5 22q130 0 130-130V0zM250 712q-27 0-46 18.5T185 776t19.5 46 45.5 19 45-19 19-46-19-45.5-45-18.5z"/><glyph glyph-name="uni1E56" unicode="Ṗ" horiz-adv-x="533" d="M193 0H59v667h246q98 0 152-61t54-152-54-152-152-61H193V0zm96 359q38 0 61.5 26t23.5 69-23.5 69-61.5 26h-96V359h96zm-23 353q-27 0-46 18.5T201 776t19.5 46 45.5 19 45-19 19-46-19-45.5-45-18.5z"/><glyph glyph-name="uni1E57" unicode="ṗ" horiz-adv-x="503" d="M296-12q-78 0-122 73v-245H54v667h120v-61q46 73 122 73 82 0 130.5-67.5T475 242q0-117-48.5-185.5T296-12zM257 94q45 0 69.5 41T351 242q0 65-24.5 106T257 389q-24 0-47.5-16T174 333V151q12-24 35.5-40.5T257 94zm2 451q-27 0-46 18.5T194 609t19.5 46 45.5 19 45-19 19-46-19-45.5-45-18.5z"/><glyph glyph-name="uni1E60" unicode="Ṡ" horiz-adv-x="498" d="M244-12Q102-12 16 74l66 103q64-71 161-71 43 0 67 21t24 53q0 27-22 47.5T257 260t-72 30.5-72 39.5-55 60.5T36 483q0 82 60 138.5T256 678q123 0 202-74l-64-100q-59 56-143 56-36 0-57-18.5T173 492q0-28 30.5-49t74.5-38 87.5-40 74-67.5T470 191q0-90-59.5-146.5T244-12zm5 724q-27 0-46 18.5T184 776t19.5 46 45.5 19 45-19 19-46-19-45.5-45-18.5z"/><glyph glyph-name="uni1E61" unicode="ṡ" horiz-adv-x="412" d="M203-12Q83-12 17 57l51 84q23-25 60-42t73-17q34 0 52.5 14t18.5 37q0 22-24.5 35.5t-60 24.5-70.5 26-59.5 48T33 350q0 61 47 103t129 42q98 0 168-62l-48-81q-19 21-51 35.5T211 402q-28 0-46-13t-18-33 24.5-33 60-24 71-26.5 60-50T387 138q0-66-50-108T203-12zm3 557q-27 0-46 18.5T141 609t19.5 46 45.5 19 45-19 19-46-19-45.5-45-18.5z"/><glyph glyph-name="uni1E6A" unicode="Ṫ" horiz-adv-x="473" d="M304 0H170v549H22v118h430V549H304V0zm-67 712q-27 0-46 18.5T172 776t19.5 46 45.5 19 45-19 19-46-19-45.5-45-18.5z"/><glyph glyph-name="uni1E6B" unicode="ṫ" horiz-adv-x="298" d="M198-12Q75-12 75 116v262H12v105h63v132h120V483h80V378h-80V144q0-50 35-50 26 0 36 14l25-92q-31-28-93-28zm-60 724q-27 0-46 18.5T73 776t19.5 46 45.5 19 45-19 19-46-19-45.5-45-18.5z"/><glyph glyph-name="Wgrave" unicode="Ẁ" horiz-adv-x="767" d="M609 0H469l-86 444L298 0H158L6 667h144l86-464 95 464h105l96-464 85 464h144zM437 723h-80L223 867h107z"/><glyph glyph-name="wgrave" unicode="ẁ" horiz-adv-x="688" d="M557 0H430l-86 329L259 0H132L3 483h124l76-328 84 328h111l87-328 76 328h125zM398 556h-80L184 700h107z"/><glyph glyph-name="Wacute" unicode="Ẃ" horiz-adv-x="767" d="M544 867L410 723h-80l107 144h107zM609 0H469l-86 444L298 0H158L6 667h144l86-464 95 464h105l96-464 85 464h144z"/><glyph glyph-name="wacute" unicode="ẃ" horiz-adv-x="688" d="M504 700L370 556h-80l107 144h107zM557 0H430l-86 329L259 0H132L3 483h124l76-328 84 328h111l87-328 76 328h125z"/><glyph glyph-name="Wdieresis" unicode="Ẅ" horiz-adv-x="767" d="M542 777q0-27-19.5-46T476 712q-26 0-45 19t-19 46 19 45.5 45 18.5q27 0 46.5-18.5T542 777zm-188 0q0-27-18.5-46T290 712t-46 19-19 46 19 45.5 46 18.5 45.5-18.5T354 777zM609 0H469l-86 444L298 0H158L6 667h144l86-464 95 464h105l96-464 85 464h144z"/><glyph glyph-name="wdieresis" unicode="ẅ" horiz-adv-x="688" d="M503 610q0-27-19.5-46T437 545q-26 0-45 19t-19 46 19 45.5 45 18.5q27 0 46.5-18.5T503 610zm-188 0q0-27-18.5-46T251 545t-46 19-19 46 19 45.5 46 18.5 45.5-18.5T315 610zM557 0H430l-86 329L259 0H132L3 483h124l76-328 84 328h111l87-328 76 328h125z"/><glyph glyph-name="uni1EA0" unicode="Ạ" horiz-adv-x="554" d="M556 0H410l-31 118H174L143 0H-2l198 667h162zM353 236l-76 290-76-290h152zm-75-430q-27 0-46 18.5T213-130t19.5 46T278-65t45-19 19-46-19-45.5-45-18.5z"/><glyph glyph-name="uni1EA1" unicode="ạ" d="M425 0H304v48q-20-28-54.5-44T177-12q-61 0-105 43T28 148q0 75 43.5 116T177 305q39 0 73.5-15t53.5-42v63q0 39-23.5 61.5T215 395q-66 0-119-52l-45 82q73 70 186 70 85 0 136.5-41.5T425 324V0zM223 69q56 0 81 46v62q-26 47-81 47-34 0-54.5-21.5T148 146t20.5-56T223 69zm17-263q-27 0-46 18.5T175-130t19.5 46T240-65t45-19 19-46-19-45.5-45-18.5z"/><glyph glyph-name="uni1EA2" unicode="Ả" horiz-adv-x="554" d="M556 0H410l-31 118H174L143 0H-2l198 667h162zM353 236l-76 290-76-290h152zM249 754l-44 11q16 55 73 55 31 0 50.5-17.5T348 751q0-28-16-54h-50q19 23 19 51 0 31-24 31-20 0-28-25z"/><glyph glyph-name="uni1EA3" unicode="ả" d="M425 0H304v48q-20-28-54.5-44T177-12q-61 0-105 43T28 148q0 75 43.5 116T177 305q39 0 73.5-15t53.5-42v63q0 39-23.5 61.5T215 395q-66 0-119-52l-45 82q73 70 186 70 85 0 136.5-41.5T425 324V0zM223 69q56 0 81 46v62q-26 47-81 47-34 0-54.5-21.5T148 146t20.5-56T223 69zm-12 515l-44 11q16 55 73 55 31 0 50.5-17.5T310 581q0-28-16-54h-50q19 23 19 51 0 31-24 31-20 0-28-25z"/><glyph glyph-name="uni1EA4" unicode="Ấ" horiz-adv-x="554" d="M410 682h-70l-64 68-61-68h-70l77 108h108zM556 0H410l-31 118H174L143 0H-2l198 667h162zM353 236l-76 290-76-290h152zm243 607L462 735h-80l107 108h107z"/><glyph glyph-name="uni1EA5" unicode="ấ" d="M425 0H304v48q-20-28-54.5-44T177-12q-61 0-105 43T28 148q0 75 43.5 116T177 305q39 0 73.5-15t53.5-42v63q0 39-23.5 61.5T215 395q-66 0-119-52l-45 82q73 70 186 70 85 0 136.5-41.5T425 324V0zM223 69q56 0 81 46v62q-26 47-81 47-34 0-54.5-21.5T148 146t20.5-56T223 69zm150 487h-70l-64 91-61-91h-70l77 144h108zm182 214L421 626h-80l107 144h107z"/><glyph glyph-name="uni1EA6" unicode="Ầ" horiz-adv-x="554" d="M410 682h-70l-64 68-61-68h-70l77 108h108zM556 0H410l-31 118H174L143 0H-2l198 667h162zM353 236l-76 290-76-290h152zM174 735H94L-40 843H67z"/><glyph glyph-name="uni1EA7" unicode="ầ" d="M425 0H304v48q-20-28-54.5-44T177-12q-61 0-105 43T28 148q0 75 43.5 116T177 305q39 0 73.5-15t53.5-42v63q0 39-23.5 61.5T215 395q-66 0-119-52l-45 82q73 70 186 70 85 0 136.5-41.5T425 324V0zM223 69q56 0 81 46v62q-26 47-81 47-34 0-54.5-21.5T148 146t20.5-56T223 69zm150 487h-70l-64 91-61-91h-70l77 144h108zm-236 70H57L-77 770H30z"/><glyph glyph-name="uni1EA8" unicode="Ẩ" horiz-adv-x="554" d="M410 682h-70l-64 68-61-68h-70l77 108h108zM556 0H410l-31 118H174L143 0H-2l198 667h162zM353 236l-76 290-76-290h152zm41 551l-44 8q16 41 73 41 31 0 50.5-12.5T493 785q0-22-16-41h-50q19 18 19 38 0 24-24 24-19 0-28-19z"/><glyph glyph-name="uni1EA9" unicode="ẩ" d="M425 0H304v48q-20-28-54.5-44T177-12q-61 0-105 43T28 148q0 75 43.5 116T177 305q39 0 73.5-15t53.5-42v63q0 39-23.5 61.5T215 395q-66 0-119-52l-45 82q73 70 186 70 85 0 136.5-41.5T425 324V0zM223 69q56 0 81 46v62q-26 47-81 47-34 0-54.5-21.5T148 146t20.5-56T223 69zm150 487h-70l-64 91-61-91h-70l77 144h108zm-66 168l-44 11q16 55 73 55 31 0 50.5-17.5T406 721q0-28-16-54h-50q19 23 19 51 0 31-24 31-20 0-28-25z"/><glyph glyph-name="uni1EAA" unicode="Ẫ" horiz-adv-x="554" d="M410 678h-70l-64 45-61-45h-70l77 72h108zM556 0H410l-31 118H174L143 0H-2l198 667h162zM353 236l-76 290-76-290h152zm-27 521q-34 0-62 17.5T224 792q-31 0-31-32h-62q0 31 25 49t71 18q33 0 61.5-18t41.5-18q30 0 30 33h62q0-31-25-49t-71-18z"/><glyph glyph-name="uni1EAB" unicode="ẫ" d="M425 0H304v48q-20-28-54.5-44T177-12q-61 0-105 43T28 148q0 75 43.5 116T177 305q39 0 73.5-15t53.5-42v63q0 39-23.5 61.5T215 395q-66 0-119-52l-45 82q73 70 186 70 85 0 136.5-41.5T425 324V0zM223 69q56 0 81 46v62q-26 47-81 47-34 0-54.5-21.5T148 146t20.5-56T223 69zm150 454h-70l-64 91-61-91h-70l77 144h108zm-85 159q-26 0-44.5 18T212 735.5 186 753q-31 0-31-65H93q0 62 25 98t71 36q26 0 44.5-18t32-35.5T292 751q30 0 30 65h62q0-62-25-98t-71-36z"/><glyph glyph-name="uni1EAC" unicode="Ậ" horiz-adv-x="554" d="M556 0H410l-31 118H174L143 0H-2l198 667h162zM353 236l-76 290-76-290h152zm57 487h-70l-64 91-61-91h-70l77 144h108zM278-194q-27 0-46 18.5T213-130t19.5 46T278-65t45-19 19-46-19-45.5-45-18.5z"/><glyph glyph-name="uni1EAD" unicode="ậ" d="M425 0H304v48q-20-28-54.5-44T177-12q-61 0-105 43T28 148q0 75 43.5 116T177 305q39 0 73.5-15t53.5-42v63q0 39-23.5 61.5T215 395q-66 0-119-52l-45 82q73 70 186 70 85 0 136.5-41.5T425 324V0zM223 69q56 0 81 46v62q-26 47-81 47-34 0-54.5-21.5T148 146t20.5-56T223 69zm149 487h-70l-64 91-61-91h-70l77 144h108zM240-194q-27 0-46 18.5T175-130t19.5 46T240-65t45-19 19-46-19-45.5-45-18.5z"/><glyph glyph-name="uni1EAE" unicode="Ắ" horiz-adv-x="554" d="M556 0H410l-31 118H174L143 0H-2l198 667h162zM353 236l-76 290-76-290h152zm84 597l-134-87h-80l107 87h107zm-10-97q-58-53-150-53t-150 53l55 30q36-34 95-34 61 0 95 34z"/><glyph glyph-name="uni1EAF" unicode="ắ" d="M425 0H304v48q-20-28-54.5-44T177-12q-61 0-105 43T28 148q0 75 43.5 116T177 305q39 0 73.5-15t53.5-42v63q0 39-23.5 61.5T215 395q-66 0-119-52l-45 82q73 70 186 70 85 0 136.5-41.5T425 324V0zM223 69q56 0 81 46v62q-26 47-81 47-34 0-54.5-21.5T148 146t20.5-56T223 69zm177 708L266 633h-80l107 144h107zm-11-184q-57-75-150-75T89 593l55 44q35-50 95-50 61 0 95 50z"/><glyph glyph-name="uni1EB0" unicode="Ằ" horiz-adv-x="554" d="M556 0H410l-31 118H174L143 0H-2l198 667h162zM353 236l-76 290-76-290h152zm-21 510h-80l-134 87h107zm95-13q-58-53-150-53t-150 53l55 30q36-34 95-34 61 0 95 34z"/><glyph glyph-name="uni1EB1" unicode="ằ" d="M425 0H304v48q-20-28-54.5-44T177-12q-61 0-105 43T28 148q0 75 43.5 116T177 305q39 0 73.5-15t53.5-42v63q0 39-23.5 61.5T215 395q-66 0-119-52l-45 82q73 70 186 70 85 0 136.5-41.5T425 324V0zM223 69q56 0 81 46v62q-26 47-81 47-34 0-54.5-21.5T148 146t20.5-56T223 69zm68 564h-80L77 777h107zm98-39q-57-75-150-75T89 594l55 44q35-50 95-50 61 0 95 50z"/><glyph glyph-name="uni1EB2" unicode="Ẳ" horiz-adv-x="554" d="M556 0H410l-31 118H174L143 0H-2l198 667h162zM353 236l-76 290-76-290h152zM249 782l-44 7q17 33 73 33 30 0 50-10.5t20-31.5q0-16-16-32h-50q19 14 19 31 0 18-24 18-20 0-28-15zm178-48q-58-53-150-53t-150 53l55 30q36-34 95-34 61 0 95 34z"/><glyph glyph-name="uni1EB3" unicode="ẳ" d="M425 0H304v48q-20-28-54.5-44T177-12q-61 0-105 43T28 148q0 75 43.5 116T177 305q39 0 73.5-15t53.5-42v63q0 39-23.5 61.5T215 395q-66 0-119-52l-45 82q73 70 186 70 85 0 136.5-41.5T425 324V0zM223 69q56 0 81 46v62q-26 47-81 47-34 0-54.5-21.5T148 146t20.5-56T223 69zm-11 622l-44 11q16 55 73 55 31 0 50.5-17.5T311 688q0-28-16-54h-50q19 23 19 51 0 31-24 31-20 0-28-25zm177-97q-57-75-150-75T89 594l55 44q35-50 95-50 61 0 95 50z"/><glyph glyph-name="uni1EB4" unicode="Ẵ" horiz-adv-x="554" d="M556 0H410l-31 118H174L143 0H-2l198 667h162zM353 236l-76 290-76-290h152zm74 488q-57-44-150-44t-150 44l55 26q35-30 95-30t95 30zm-101 33q-34 0-62 17.5T224 792q-31 0-31-32h-62q0 31 25 49t71 18q33 0 61.5-18t41.5-18q30 0 30 33h62q0-31-25-49t-71-18z"/><glyph glyph-name="uni1EB5" unicode="ẵ" d="M425 0H304v48q-20-28-54.5-44T177-12q-61 0-105 43T28 148q0 75 43.5 116T177 305q39 0 73.5-15t53.5-42v63q0 39-23.5 61.5T215 395q-66 0-119-52l-45 82q73 70 186 70 85 0 136.5-41.5T425 324V0zM223 69q56 0 81 46v62q-26 47-81 47-34 0-54.5-21.5T148 146t20.5-56T223 69zm166 525q-57-75-150-75T89 594l55 44q35-50 95-50 61 0 95 50zm-102 60q-26 0-44.5 18T211 707.5 185 725q-31 0-31-65H92q0 62 25 98t71 36q26 0 44.5-18t32-35.5T291 723q30 0 30 65h62q0-62-25-98t-71-36z"/><glyph glyph-name="uni1EB6" unicode="Ặ" horiz-adv-x="554" d="M556 0H410l-31 118H174L143 0H-2l198 667h162zM353 236l-76 290-76-290h152zm-75-430q-27 0-46 18.5T213-130t19.5 46T278-65t45-19 19-46-19-45.5-45-18.5zm149 974q-57-75-150-75t-150 75l55 44q35-50 95-50 61 0 95 50z"/><glyph glyph-name="uni1EB7" unicode="ặ" d="M425 0H304v48q-20-28-54.5-44T177-12q-61 0-105 43T28 148q0 75 43.5 116T177 305q39 0 73.5-15t53.5-42v63q0 39-23.5 61.5T215 395q-66 0-119-52l-45 82q73 70 186 70 85 0 136.5-41.5T425 324V0zM223 69q56 0 81 46v62q-26 47-81 47-34 0-54.5-21.5T148 146t20.5-56T223 69zm17-263q-27 0-46 18.5T175-130t19.5 46T240-65t45-19 19-46-19-45.5-45-18.5zm148 807q-57-75-150-75T88 613l55 44q35-50 95-50 61 0 95 50z"/><glyph glyph-name="uni1EB8" unicode="Ẹ" horiz-adv-x="481" d="M441 0H59v667h382V549H193V398h241V280H193V118h248V0zM253-194q-27 0-46 18.5T188-130t19.5 46T253-65t45-19 19-46-19-45.5-45-18.5z"/><glyph glyph-name="uni1EB9" unicode="ẹ" d="M254-12Q152-12 90.5 58T29 242q0 108 59 180.5T245 495t153-71.5T453 237v-34H150q4-52 34-85t83-33q27 0 56 12.5t49 34.5l55-72q-66-72-173-72zm83 297q-2 45-24 79t-70 34q-46 0-68.5-34T150 285h187zm-91-479q-27 0-46 18.5T181-130t19.5 46T246-65t45-19 19-46-19-45.5-45-18.5z"/><glyph glyph-name="uni1EBA" unicode="Ẻ" horiz-adv-x="481" d="M441 0H59v667h382V549H193V398h241V280H193V118h248V0zM216 754l-44 11q16 55 73 55 31 0 50.5-17.5T315 751q0-28-16-54h-50q19 23 19 51 0 31-24 31-20 0-28-25z"/><glyph glyph-name="uni1EBB" unicode="ẻ" d="M254-12Q152-12 90.5 58T29 242q0 108 59 180.5T245 495t153-71.5T453 237v-34H150q4-52 34-85t83-33q27 0 56 12.5t49 34.5l55-72q-66-72-173-72zm83 297q-2 45-24 79t-70 34q-46 0-68.5-34T150 285h187zM215 584l-44 11q16 55 73 55 31 0 50.5-17.5T314 581q0-28-16-54h-50q19 23 19 51 0 31-24 31-20 0-28-25z"/><glyph glyph-name="uni1EBC" unicode="Ẽ" horiz-adv-x="481" d="M441 0H59v667h382V549H193V398h241V280H193V118h248V0zM302 721q-26 0-44.5 17.5T226 774t-26 18q-31 0-31-65h-62q0 62 25 98t71 36q20 0 36.5-11t25-24.5T284 801t22-11q30 0 30 65h62q0-62-25-98t-71-36z"/><glyph glyph-name="uni1EBD" unicode="ẽ" d="M254-12Q152-12 90.5 58T29 242q0 108 59 180.5T245 495t153-71.5T453 237v-34H150q4-52 34-85t83-33q27 0 56 12.5t49 34.5l55-72q-66-72-173-72zm83 297q-2 45-24 79t-70 34q-46 0-68.5-34T150 285h187zm-44 269q-26 0-44.5 18T217 607.5 191 625q-31 0-31-65H98q0 62 25 98t71 36q26 0 44.5-18t32-35.5T297 623q30 0 30 65h62q0-62-25-98t-71-36z"/><glyph glyph-name="uni1EBE" unicode="Ế" horiz-adv-x="481" d="M386 682h-70l-64 68-61-68h-70l77 108h108zm185 161L437 735h-80l107 108h107zM441 0H59v667h382V549H193V398h241V280H193V118h248V0z"/><glyph glyph-name="uni1EBF" unicode="ế" d="M378 556h-70l-64 91-61-91h-70l77 144h108zm180 214L424 626h-80l107 144h107zM254-12Q152-12 90.5 58T29 242q0 108 59 180.5T245 495t153-71.5T453 237v-34H150q4-52 34-85t83-33q27 0 56 12.5t49 34.5l55-72q-66-72-173-72zm83 297q-2 45-24 79t-70 34q-46 0-68.5-34T150 285h187z"/><glyph glyph-name="uni1EC0" unicode="Ề" horiz-adv-x="481" d="M386 682h-70l-64 68-61-68h-70l77 108h108zM441 0H59v667h382V549H193V398h241V280H193V118h248V0zM150 735H70L-64 843H43z"/><glyph glyph-name="uni1EC1" unicode="ề" d="M378 556h-70l-64 91-61-91h-70l77 144h108zM254-12Q152-12 90.5 58T29 242q0 108 59 180.5T245 495t153-71.5T453 237v-34H150q4-52 34-85t83-33q27 0 56 12.5t49 34.5l55-72q-66-72-173-72zm83 297q-2 45-24 79t-70 34q-46 0-68.5-34T150 285h187zM141 626H61L-73 770H34z"/><glyph glyph-name="uni1EC2" unicode="Ể" horiz-adv-x="481" d="M385 682h-70l-64 68-61-68h-70l77 108h108zM441 0H59v667h382V549H193V398h241V280H193V118h248V0zm-73 787l-44 8q16 41 73 41 31 0 50.5-12.5T467 785q0-22-16-41h-50q19 18 19 38 0 24-24 24-19 0-28-19z"/><glyph glyph-name="uni1EC3" unicode="ể" d="M377 556h-70l-64 91-61-91h-70l77 144h108zM254-12Q152-12 90.5 58T29 242q0 108 59 180.5T245 495t153-71.5T453 237v-34H150q4-52 34-85t83-33q27 0 56 12.5t49 34.5l55-72q-66-72-173-72zm83 297q-2 45-24 79t-70 34q-46 0-68.5-34T150 285h187zm-26 439l-44 11q16 55 73 55 31 0 50.5-17.5T410 721q0-28-16-54h-50q19 23 19 51 0 31-24 31-20 0-28-25z"/><glyph glyph-name="uni1EC4" unicode="Ễ" horiz-adv-x="481" d="M385 678h-70l-64 45-61-45h-70l77 72h108zM441 0H59v667h382V549H193V398h241V280H193V118h248V0zM300 757q-34 0-62 17.5T198 792q-31 0-31-32h-62q0 31 25 49t71 18q33 0 61.5-18t41.5-18q30 0 30 33h62q0-31-25-49t-71-18z"/><glyph glyph-name="uni1EC5" unicode="ễ" d="M377 523h-70l-64 91-61-91h-70l77 144h108zM254-12Q152-12 90.5 58T29 242q0 108 59 180.5T245 495t153-71.5T453 237v-34H150q4-52 34-85t83-33q27 0 56 12.5t49 34.5l55-72q-66-72-173-72zm83 297q-2 45-24 79t-70 34q-46 0-68.5-34T150 285h187zm-44 397q-26 0-44.5 18T217 735.5 191 753q-31 0-31-65H98q0 62 25 98t71 36q26 0 44.5-18t32-35.5T297 751q30 0 30 65h62q0-62-25-98t-71-36z"/><glyph glyph-name="uni1EC6" unicode="Ệ" horiz-adv-x="481" d="M383 723h-70l-64 91-61-91h-70l77 144h108zM441 0H59v667h382V549H193V398h241V280H193V118h248V0zM253-194q-27 0-46 18.5T188-130t19.5 46T253-65t45-19 19-46-19-45.5-45-18.5z"/><glyph glyph-name="uni1EC7" unicode="ệ" d="M379 556h-70l-64 91-61-91h-70l77 144h108zM254-12Q152-12 90.5 58T29 242q0 108 59 180.5T245 495t153-71.5T453 237v-34H150q4-52 34-85t83-33q27 0 56 12.5t49 34.5l55-72q-66-72-173-72zm83 297q-2 45-24 79t-70 34q-46 0-68.5-34T150 285h187zm-91-479q-27 0-46 18.5T181-130t19.5 46T246-65t45-19 19-46-19-45.5-45-18.5z"/><glyph glyph-name="uni1EC8" unicode="Ỉ" horiz-adv-x="252" d="M193 0H59v667h134V0zM99 754l-44 11q16 55 73 55 31 0 50.5-17.5T198 751q0-28-16-54h-50q19 23 19 51 0 31-24 31-20 0-28-25z"/><glyph glyph-name="uni1EC9" unicode="ỉ" horiz-adv-x="228" d="M174 0H54v483h120V0zM86 584l-44 11q16 55 73 55 31 0 50.5-17.5T185 581q0-28-16-54h-50q19 23 19 51 0 31-24 31-20 0-28-25z"/><glyph glyph-name="uni1ECA" unicode="Ị" horiz-adv-x="252" d="M193 0H59v667h134V0zm-65-194q-27 0-46 18.5T63-130t19.5 46T128-65t45-19 19-46-19-45.5-45-18.5z"/><glyph glyph-name="uni1ECB" unicode="ị" horiz-adv-x="228" d="M114 537q-29 0-50.5 21T42 609t21.5 51.5T114 682q30 0 51-21.5t21-51.5-21-51-51-21zM174 0H54v483h120V0zm-58-194q-27 0-46 18.5T51-130t19.5 46T116-65t45-19 19-46-19-45.5-45-18.5z"/><glyph glyph-name="uni1ECC" unicode="Ọ" horiz-adv-x="622" d="M310-12q-128 0-203 96.5T32 333t75 248.5T310 678q129 0 204-96.5T589 333 514 84.5 310-12zm0 119q67 0 104.5 63.5T452 333q0 100-37.5 163T310 559q-66 0-103-63t-37-163q0-99 37-162.5T310 107zm3-301q-27 0-46 18.5T248-130t19.5 46T313-65t45-19 19-46-19-45.5-45-18.5z"/><glyph glyph-name="uni1ECD" unicode="ọ" horiz-adv-x="495" d="M247-12Q145-12 87 61.5T29 242t58 180 160 73q103 0 161-73t58-180q0-108-58-181T247-12zm0 106q47 0 71 42t24 106-24 105.5-71 41.5q-46 0-69.5-42T154 242q0-64 23.5-106T247 94zm1-288q-27 0-46 18.5T183-130t19.5 46T248-65t45-19 19-46-19-45.5-45-18.5z"/><glyph glyph-name="uni1ECE" unicode="Ỏ" horiz-adv-x="622" d="M310-12q-128 0-203 96.5T32 333t75 248.5T310 678q129 0 204-96.5T589 333 514 84.5 310-12zm0 119q67 0 104.5 63.5T452 333q0 100-37.5 163T310 559q-66 0-103-63t-37-163q0-99 37-162.5T310 107zm-28 647l-44 11q16 55 73 55 31 0 50.5-17.5T381 751q0-28-16-54h-50q19 23 19 51 0 31-24 31-20 0-28-25z"/><glyph glyph-name="uni1ECF" unicode="ỏ" horiz-adv-x="495" d="M247-12Q145-12 87 61.5T29 242t58 180 160 73q103 0 161-73t58-180q0-108-58-181T247-12zm0 106q47 0 71 42t24 106-24 105.5-71 41.5q-46 0-69.5-42T154 242q0-64 23.5-106T247 94zm-26 490l-44 11q16 55 73 55 31 0 50.5-17.5T320 581q0-28-16-54h-50q19 23 19 51 0 31-24 31-20 0-28-25z"/><glyph glyph-name="uni1ED0" unicode="Ố" horiz-adv-x="622" d="M440 682h-70l-64 68-61-68h-70l77 108h108zm186 161L492 735h-80l107 108h107zM310-12q-128 0-203 96.5T32 333t75 248.5T310 678q129 0 204-96.5T589 333 514 84.5 310-12zm0 119q67 0 104.5 63.5T452 333q0 100-37.5 163T310 559q-66 0-103-63t-37-163q0-99 37-162.5T310 107z"/><glyph glyph-name="uni1ED1" unicode="ố" horiz-adv-x="495" d="M380 556h-70l-64 91-61-91h-70l77 144h108zm181 214L427 626h-80l107 144h107zM247-12Q145-12 87 61.5T29 242t58 180 160 73q103 0 161-73t58-180q0-108-58-181T247-12zm0 106q47 0 71 42t24 106-24 105.5-71 41.5q-46 0-69.5-42T154 242q0-64 23.5-106T247 94z"/><glyph glyph-name="uni1ED2" unicode="Ồ" horiz-adv-x="622" d="M439 682h-70l-64 68-61-68h-70l77 108h108zM310-12q-128 0-203 96.5T32 333t75 248.5T310 678q129 0 204-96.5T589 333 514 84.5 310-12zm0 119q67 0 104.5 63.5T452 333q0 100-37.5 163T310 559q-66 0-103-63t-37-163q0-99 37-162.5T310 107zM202 735h-80L-12 843H95z"/><glyph glyph-name="uni1ED3" unicode="ồ" horiz-adv-x="495" d="M380 556h-70l-64 91-61-91h-70l77 144h108zM247-12Q145-12 87 61.5T29 242t58 180 160 73q103 0 161-73t58-180q0-108-58-181T247-12zm0 106q47 0 71 42t24 106-24 105.5-71 41.5q-46 0-69.5-42T154 242q0-64 23.5-106T247 94zM144 626H64L-70 770H37z"/><glyph glyph-name="uni1ED4" unicode="Ổ" horiz-adv-x="622" d="M439 682h-70l-64 68-61-68h-70l77 108h108zM310-12q-128 0-203 96.5T32 333t75 248.5T310 678q129 0 204-96.5T589 333 514 84.5 310-12zm0 119q67 0 104.5 63.5T452 333q0 100-37.5 163T310 559q-66 0-103-63t-37-163q0-99 37-162.5T310 107zm112 680l-44 8q16 41 73 41 31 0 50.5-12.5T521 785q0-22-16-41h-50q19 18 19 38 0 24-24 24-19 0-28-19z"/><glyph glyph-name="uni1ED5" unicode="ổ" horiz-adv-x="495" d="M380 556h-70l-64 91-61-91h-70l77 144h108zM247-12Q145-12 87 61.5T29 242t58 180 160 73q103 0 161-73t58-180q0-108-58-181T247-12zm0 106q47 0 71 42t24 106-24 105.5-71 41.5q-46 0-69.5-42T154 242q0-64 23.5-106T247 94zm67 630l-44 11q16 55 73 55 31 0 50.5-17.5T413 721q0-28-16-54h-50q19 23 19 51 0 31-24 31-20 0-28-25z"/><glyph glyph-name="uni1ED6" unicode="Ỗ" horiz-adv-x="622" d="M442 678h-70l-64 45-61-45h-70l77 72h108zM310-12q-128 0-203 96.5T32 333t75 248.5T310 678q129 0 204-96.5T589 333 514 84.5 310-12zm0 119q67 0 104.5 63.5T452 333q0 100-37.5 163T310 559q-66 0-103-63t-37-163q0-99 37-162.5T310 107zm47 650q-33 0-61 17.5T255 792q-31 0-31-32h-62q0 31 25 49t71 18q33 0 61.5-18t41.5-18q30 0 30 33h62q0-31-25-49t-71-18z"/><glyph glyph-name="uni1ED7" unicode="ỗ" horiz-adv-x="495" d="M380 523h-70l-64 91-61-91h-70l77 144h108zM247-12Q145-12 87 61.5T29 242t58 180 160 73q103 0 161-73t58-180q0-108-58-181T247-12zm0 106q47 0 71 42t24 106-24 105.5-71 41.5q-46 0-69.5-42T154 242q0-64 23.5-106T247 94zm50 588q-26 0-44.5 18T221 735.5 195 753q-31 0-31-65h-62q0 62 25 98t71 36q26 0 44.5-18t32-35.5T301 751q30 0 30 65h62q0-62-25-98t-71-36z"/><glyph glyph-name="uni1ED8" unicode="Ộ" horiz-adv-x="622" d="M445 723h-70l-64 91-61-91h-70l77 144h108zM310-12q-128 0-203 96.5T32 333t75 248.5T310 678q129 0 204-96.5T589 333 514 84.5 310-12zm0 119q67 0 104.5 63.5T452 333q0 100-37.5 163T310 559q-66 0-103-63t-37-163q0-99 37-162.5T310 107zm3-301q-27 0-46 18.5T248-130t19.5 46T313-65t45-19 19-46-19-45.5-45-18.5z"/><glyph glyph-name="uni1ED9" unicode="ộ" horiz-adv-x="495" d="M381 556h-70l-64 91-61-91h-70l77 144h108zM247-12Q145-12 87 61.5T29 242t58 180 160 73q103 0 161-73t58-180q0-108-58-181T247-12zm0 106q47 0 71 42t24 106-24 105.5-71 41.5q-46 0-69.5-42T154 242q0-64 23.5-106T247 94zm1-288q-27 0-46 18.5T183-130t19.5 46T248-65t45-19 19-46-19-45.5-45-18.5z"/><glyph glyph-name="uni1EDA" unicode="Ớ" horiz-adv-x="622" d="M471 867L337 723h-80l107 144h107zM310-12q-128 0-203 96.5T32 333t75 248.5T310 678q132 0 209-104 33 29 39 62-4-2-13-2-20 0-33.5 14T498 684t16 38 38 16q25 0 43-19.5t18-52.5q0-78-70-131 46-86 46-202 0-152-75-248.5T310-12zm0 119q67 0 104.5 63.5T452 333q0 100-37.5 163T310 559q-66 0-103-63t-37-163q0-99 37-162.5T310 107z"/><glyph glyph-name="uni1EDB" unicode="ớ" horiz-adv-x="495" d="M408 700L274 556h-80l107 144h107zm72-168q0-72-61-125 47-68 47-165 0-108-58-181T247-12Q145-12 87 61.5T29 242t58 180 160 73q84 0 141-52 30 27 38 59-4-2-14-2-20 0-33.5 14T365 550t15.5 38 38.5 16q25 0 43-19.5t18-52.5zM247 94q47 0 71 42t24 106-24 105.5-71 41.5q-46 0-69.5-42T154 242q0-64 23.5-106T247 94z"/><glyph glyph-name="uni1EDC" unicode="Ờ" horiz-adv-x="622" d="M310-12q-128 0-203 96.5T32 333t75 248.5T310 678q132 0 209-104 33 29 39 62-4-2-13-2-20 0-33.5 14T498 684t16 38 38 16q25 0 43-19.5t18-52.5q0-78-70-131 46-86 46-202 0-152-75-248.5T310-12zm0 119q67 0 104.5 63.5T452 333q0 100-37.5 163T310 559q-66 0-103-63t-37-163q0-99 37-162.5T310 107zm55 616h-80L151 867h107z"/><glyph glyph-name="uni1EDD" unicode="ờ" horiz-adv-x="495" d="M480 532q0-72-61-125 47-68 47-165 0-108-58-181T247-12Q145-12 87 61.5T29 242t58 180 160 73q84 0 141-52 30 27 38 59-4-2-14-2-20 0-33.5 14T365 550t15.5 38 38.5 16q25 0 43-19.5t18-52.5zM247 94q47 0 71 42t24 106-24 105.5-71 41.5q-46 0-69.5-42T154 242q0-64 23.5-106T247 94zm55 462h-80L88 700h107z"/><glyph glyph-name="uni1EDE" unicode="Ở" horiz-adv-x="622" d="M310-12q-128 0-203 96.5T32 333t75 248.5T310 678q132 0 209-104 33 29 39 62-4-2-13-2-20 0-33.5 14T498 684t16 38 38 16q25 0 43-19.5t18-52.5q0-78-70-131 46-86 46-202 0-152-75-248.5T310-12zm0 119q67 0 104.5 63.5T452 333q0 100-37.5 163T310 559q-66 0-103-63t-37-163q0-99 37-162.5T310 107zm-27 647l-44 11q16 55 73 55 31 0 50.5-17.5T382 751q0-28-16-54h-50q19 23 19 51 0 31-24 31-20 0-28-25z"/><glyph glyph-name="uni1EDF" unicode="ở" horiz-adv-x="495" d="M480 532q0-72-61-125 47-68 47-165 0-108-58-181T247-12Q145-12 87 61.5T29 242t58 180 160 73q84 0 141-52 30 27 38 59-4-2-14-2-20 0-33.5 14T365 550t15.5 38 38.5 16q25 0 43-19.5t18-52.5zM247 94q47 0 71 42t24 106-24 105.5-71 41.5q-46 0-69.5-42T154 242q0-64 23.5-106T247 94zm-27 490l-44 11q16 55 73 55 31 0 50.5-17.5T319 581q0-28-16-54h-50q19 23 19 51 0 31-24 31-20 0-28-25z"/><glyph glyph-name="uni1EE0" unicode="Ỡ" horiz-adv-x="622" d="M310-12q-128 0-203 96.5T32 333t75 248.5T310 678q132 0 209-104 33 29 39 62-4-2-13-2-20 0-33.5 14T498 684t16 38 38 16q25 0 43-19.5t18-52.5q0-78-70-131 46-86 46-202 0-152-75-248.5T310-12zm0 119q67 0 104.5 63.5T452 333q0 100-37.5 163T310 559q-66 0-103-63t-37-163q0-99 37-162.5T310 107zm51 614q-26 0-44.5 17.5T285 774t-26 18q-31 0-31-65h-62q0 62 25 98t71 36q20 0 36.5-11t25-24.5T343 801t22-11q30 0 30 65h62q0-62-25-98t-71-36z"/><glyph glyph-name="uni1EE1" unicode="ỡ" horiz-adv-x="495" d="M480 532q0-72-61-125 47-68 47-165 0-108-58-181T247-12Q145-12 87 61.5T29 242t58 180 160 73q84 0 141-52 30 27 38 59-4-2-14-2-20 0-33.5 14T365 550t15.5 38 38.5 16q25 0 43-19.5t18-52.5zM247 94q47 0 71 42t24 106-24 105.5-71 41.5q-46 0-69.5-42T154 242q0-64 23.5-106T247 94zm37 460q-26 0-44.5 18T208 607.5 182 625q-31 0-31-65H89q0 62 25 98t71 36q26 0 44.5-18t32-35.5T288 623q30 0 30 65h62q0-62-25-98t-71-36z"/><glyph glyph-name="uni1EE2" unicode="Ợ" horiz-adv-x="622" d="M310-12q-128 0-203 96.5T32 333t75 248.5T310 678q132 0 209-104 33 29 39 62-4-2-13-2-20 0-33.5 14T498 684t16 38 38 16q25 0 43-19.5t18-52.5q0-78-70-131 46-86 46-202 0-152-75-248.5T310-12zm0 119q67 0 104.5 63.5T452 333q0 100-37.5 163T310 559q-66 0-103-63t-37-163q0-99 37-162.5T310 107zm3-301q-27 0-46 18.5T248-130t19.5 46T313-65t45-19 19-46-19-45.5-45-18.5z"/><glyph glyph-name="uni1EE3" unicode="ợ" horiz-adv-x="495" d="M480 532q0-72-61-125 47-68 47-165 0-108-58-181T247-12Q145-12 87 61.5T29 242t58 180 160 73q84 0 141-52 30 27 38 59-4-2-14-2-20 0-33.5 14T365 550t15.5 38 38.5 16q25 0 43-19.5t18-52.5zM247 94q47 0 71 42t24 106-24 105.5-71 41.5q-46 0-69.5-42T154 242q0-64 23.5-106T247 94zm2-288q-27 0-46 18.5T184-130t19.5 46T249-65t45-19 19-46-19-45.5-45-18.5z"/><glyph glyph-name="uni1EE4" unicode="Ụ" horiz-adv-x="609" d="M305-12q-114 0-180 63.5T59 230v437h135V229q0-59 29-91t82-32 81.5 32 28.5 91v438h135V230q0-114-65.5-178T305-12zm2-182q-27 0-46 18.5T242-130t19.5 46T307-65t45-19 19-46-19-45.5-45-18.5z"/><glyph glyph-name="uni1EE5" unicode="ụ" horiz-adv-x="499" d="M445 0H325v61q-21-31-59-52t-83-21Q54-12 54 118v365h120V164q0-70 64-70 54 0 87 59v330h120V0zM251-194q-27 0-46 18.5T186-130t19.5 46T251-65t45-19 19-46-19-45.5-45-18.5z"/><glyph glyph-name="uni1EE6" unicode="Ủ" horiz-adv-x="609" d="M305-12q-114 0-180 63.5T59 230v437h135V229q0-59 29-91t82-32 81.5 32 28.5 91v438h135V230q0-114-65.5-178T305-12zm-28 766l-44 11q16 55 73 55 31 0 50.5-17.5T376 751q0-28-16-54h-50q19 23 19 51 0 31-24 31-20 0-28-25z"/><glyph glyph-name="uni1EE7" unicode="ủ" horiz-adv-x="499" d="M445 0H325v61q-21-31-59-52t-83-21Q54-12 54 118v365h120V164q0-70 64-70 54 0 87 59v330h120V0zM222 584l-44 11q16 55 73 55 31 0 50.5-17.5T321 581q0-28-16-54h-50q19 23 19 51 0 31-24 31-20 0-28-25z"/><glyph glyph-name="uni1EE8" unicode="Ứ" horiz-adv-x="609" d="M465 867L331 723h-80l107 144h107zm187-140q0-44-26.5-85T550 575V230q0-114-65.5-178T305-12 125 51.5 59 230v437h135V229q0-59 29-91t82-32 81.5 32 28.5 91v438h135v-39q40 29 48 69-4-2-14-2-20 0-33 14t-13 36q0 23 15.5 38.5T591 799q25 0 43-19.5t18-52.5z"/><glyph glyph-name="uni1EE9" unicode="ứ" horiz-adv-x="499" d="M410 700L276 556h-80l107 144h107zM445 0H325v61q-21-31-59-52t-83-21Q54-12 54 118v365h120V164q0-70 64-70 54 0 87 59v330h120v-11q17 24 20 42-4-2-13-2-20 0-33.5 14T405 562t15.5 38 37.5 16q26 0 44-19.5t18-52.5q0-80-75-135V0z"/><glyph glyph-name="uni1EEA" unicode="Ừ" horiz-adv-x="609" d="M358 723h-80L144 867h107zm294 4q0-44-26.5-85T550 575V230q0-114-65.5-178T305-12 125 51.5 59 230v437h135V229q0-59 29-91t82-32 81.5 32 28.5 91v438h135v-39q40 29 48 69-4-2-14-2-20 0-33 14t-13 36q0 23 15.5 38.5T591 799q25 0 43-19.5t18-52.5z"/><glyph glyph-name="uni1EEB" unicode="ừ" horiz-adv-x="499" d="M303 556h-80L89 700h107zM445 0H325v61q-21-31-59-52t-83-21Q54-12 54 118v365h120V164q0-70 64-70 54 0 87 59v330h120v-11q17 24 20 42-4-2-13-2-20 0-33.5 14T405 562t15.5 38 37.5 16q26 0 44-19.5t18-52.5q0-80-75-135V0z"/><glyph glyph-name="uni1EEC" unicode="Ử" horiz-adv-x="609" d="M277 754l-44 11q16 55 73 55 31 0 50.5-17.5T376 751q0-28-16-54h-50q19 23 19 51 0 31-24 31-20 0-28-25zm375-27q0-44-26.5-85T550 575V230q0-114-65.5-178T305-12 125 51.5 59 230v437h135V229q0-59 29-91t82-32 81.5 32 28.5 91v438h135v-39q40 29 48 69-4-2-14-2-20 0-33 14t-13 36q0 23 15.5 38.5T591 799q25 0 43-19.5t18-52.5z"/><glyph glyph-name="uni1EED" unicode="ử" horiz-adv-x="499" d="M222 584l-44 11q16 55 73 55 31 0 50.5-17.5T321 581q0-28-16-54h-50q19 23 19 51 0 31-24 31-20 0-28-25zM445 0H325v61q-21-31-59-52t-83-21Q54-12 54 118v365h120V164q0-70 64-70 54 0 87 59v330h120v-11q17 24 20 42-4-2-13-2-20 0-33.5 14T405 562t15.5 38 37.5 16q26 0 44-19.5t18-52.5q0-80-75-135V0z"/><glyph glyph-name="uni1EEE" unicode="Ữ" horiz-adv-x="609" d="M652 727q0-44-26.5-85T550 575V230q0-114-65.5-178T305-12 125 51.5 59 230v437h135V229q0-59 29-91t82-32 81.5 32 28.5 91v438h135v-39q40 29 48 69-4-2-14-2-20 0-33 14t-13 36q0 23 15.5 38.5T591 799q25 0 43-19.5t18-52.5zm-298-6q-26 0-44.5 17.5T278 774t-26 18q-31 0-31-65h-62q0 62 25 98t71 36q20 0 36.5-11t25-24.5T336 801t22-11q30 0 30 65h62q0-62-25-98t-71-36z"/><glyph glyph-name="uni1EEF" unicode="ữ" horiz-adv-x="499" d="M445 0H325v61q-21-31-59-52t-83-21Q54-12 54 118v365h120V164q0-70 64-70 54 0 87 59v330h120v-11q17 24 20 42-4-2-13-2-20 0-33.5 14T405 562t15.5 38 37.5 16q26 0 44-19.5t18-52.5q0-80-75-135V0zM297 554q-26 0-44.5 18T221 607.5 195 625q-31 0-31-65h-62q0 62 25 98t71 36q26 0 44.5-18t32-35.5T301 623q30 0 30 65h62q0-62-25-98t-71-36z"/><glyph glyph-name="uni1EF0" unicode="Ự" horiz-adv-x="609" d="M307-194q-27 0-46 18.5T242-130t19.5 46T307-65t45-19 19-46-19-45.5-45-18.5zm345 921q0-44-26.5-85T550 575V230q0-114-65.5-178T305-12 125 51.5 59 230v437h135V229q0-59 29-91t82-32 81.5 32 28.5 91v438h135v-39q40 29 48 69-4-2-14-2-20 0-33 14t-13 36q0 23 15.5 38.5T591 799q25 0 43-19.5t18-52.5z"/><glyph glyph-name="uni1EF1" unicode="ự" horiz-adv-x="499" d="M251-194q-27 0-46 18.5T186-130t19.5 46T251-65t45-19 19-46-19-45.5-45-18.5zM445 0H325v61q-21-31-59-52t-83-21Q54-12 54 118v365h120V164q0-70 64-70 54 0 87 59v330h120v-11q17 24 20 42-4-2-13-2-20 0-33.5 14T405 562t15.5 38 37.5 16q26 0 44-19.5t18-52.5q0-80-75-135V0z"/><glyph glyph-name="Ygrave" unicode="Ỳ" horiz-adv-x="538" d="M336 0H202v275L-4 667h148l125-268 125 268h148L336 275V0zm-13 723h-80L109 867h107z"/><glyph glyph-name="ygrave" unicode="ỳ" horiz-adv-x="447" d="M43-189L61-83q14-7 31-7 40 0 53 35l16 46L-2 483h128l97-338 98 338h128L260-82q-21-64-59-88.5T101-196q-35 0-58 7zm233 745h-80L62 700h107z"/><glyph glyph-name="thinspace" horiz-adv-x="42"/><glyph glyph-name="endash" unicode="–" horiz-adv-x="527" d="M497 191H30v102h467V191z"/><glyph glyph-name="emdash" unicode="—" horiz-adv-x="737" d="M707 191H30v102h677V191z"/><glyph glyph-name="afii00208" unicode="―" horiz-adv-x="527" d="M497 191H30v102h467V191z"/><glyph glyph-name="quoteleft" unicode="‘" horiz-adv-x="253" d="M42 498q0 53 27 100t73 79l53-42q-25-14-47.5-41.5T119 541q6 2 19 2 27 0 46-19.5t19-49.5q0-31-22.5-53.5T127 398q-35 0-60 27t-25 73z"/><glyph glyph-name="quoteright" unicode="’" horiz-adv-x="253" d="M209 578q0-54-27-101t-73-79l-52 42q25 15 47 42.5t28 52.5q-9-3-18-3-28 0-46.5 19.5T49 601q0 31 22 53.5t53 22.5q35 0 60-27t25-72z"/><glyph glyph-name="quotesinglbase" unicode="‚" horiz-adv-x="252" d="M209 45q0-109-100-181L57-93q25 14 47 41.5T132 2q-4-3-18-3-28 0-47 19.5T48 68q0 31 22.5 53.5T124 144q35 0 60-27t25-72z"/><glyph glyph-name="quotereversed" unicode="‛" horiz-adv-x="253" d="M44 578q0 45 25 72t60 27q31 0 53-22.5t22-53.5q0-30-18.5-49.5T139 532q-7 0-19 3 7-26 29-53t47-42l-52-42q-46 32-73 79T44 578z"/><glyph glyph-name="quotedblleft" unicode="“" horiz-adv-x="450" d="M44 498q0 53 27 100t72 79l53-42q-25-14-47.5-41.5T120 541q6 2 19 2 27 0 46-19.5t19-49.5q0-31-22-53.5T129 398q-35 0-60 27t-25 73zm197 0q0 53 27 100t73 79l53-42q-25-14-48-41.5T318 541q6 2 19 2 27 0 45.5-19.5T401 474q0-31-22-53.5T326 398q-35 0-60 27t-25 73z"/><glyph glyph-name="quotedblright" unicode="”" horiz-adv-x="450" d="M407 578q0-53-27-100t-73-80l-53 42q25 15 47.5 42.5T330 535q-9-3-19-3-27 0-46 19.5T246 601q0 31 22 53.5t54 22.5q35 0 60-27t25-72zm-198 0q0-54-27-101t-73-79l-52 42q25 15 47 42.5t28 52.5q-9-3-18-3-28 0-46.5 19.5T49 601q0 31 22 53.5t53 22.5q35 0 60-27t25-72z"/><glyph glyph-name="quotedblbase" unicode="„" horiz-adv-x="450" d="M209 45q0-109-100-181L57-93q25 14 47 41.5T132 2q-4-3-18-3-28 0-47 19.5T48 68q0 31 22.5 53.5T124 144q35 0 60-27t25-72zm198 0q0-108-100-181l-53 43q25 14 47.5 41.5T330 2q-4-3-19-3-27 0-46 19.5T246 68q0 31 22 53.5t53 22.5q36 0 61-27t25-72z"/><glyph glyph-name="dagger" unicode="†" horiz-adv-x="275" d="M255 523l-89 4 4-200h-66l5 200-89-4v60l89-3-5 97h66l-4-97 89 3v-60z"/><glyph glyph-name="daggerdbl" unicode="‡" horiz-adv-x="275" d="M255 583v-60l-89 4V331l89 4v-60l-89 3 4-98h-66l4 98-88-3v60l88-4v196l-88-4v60l88-3-4 97h66l-4-97z"/><glyph glyph-name="bullet" unicode="•" horiz-adv-x="358" d="M297 242q0-48-34-82t-83-34-83 34-34 82q0 49 34 83t83 34 83-34 34-83z"/><glyph glyph-name="ellipsis" unicode="…" horiz-adv-x="756" d="M203 66q0-31-23-54t-55-23q-31 0-53.5 23T49 66q0 32 22.5 55t53.5 23q32 0 55-23t23-55zm252 0q0-31-23-54t-54-23-54 23-23 54q0 32 23 55t54 23 54-23 23-55zm252 0q0-31-23-54t-54-23-54 23-23 54q0 32 23 55t54 23 54-23 23-55z"/><glyph glyph-name="perthousand" unicode="‰" horiz-adv-x="994" d="M323 510q0-71-41.5-118T172 345q-66 0-107.5 47T23 510q0 72 41.5 119.5T172 677q68 0 109.5-47.5T323 510zm222 157L192 0h-63l353 667h63zm104-514q0-71-41.5-118T500-12q-67 0-108.5 47T350 153q0 72 41.5 119.5T500 320q66 0 107.5-47.5T649 153zM239 510q0 44-18.5 70T172 606t-48-26-18-70q0-43 18.5-69t47.5-26q30 0 48.5 26t18.5 69zm327-357q0 44-18 70t-48 26-48.5-26-18.5-70q0-43 18.5-68.5T500 59t48 25.5 18 68.5zm405 0q0-71-41.5-118T821-12q-66 0-107.5 47T672 153q0 72 41.5 119.5T821 320q67 0 108.5-47.5T971 153zm-83 0q0 44-18.5 70T821 249t-48-26-18-70q0-43 18-68.5T821 59t48.5 25.5T888 153z"/><glyph glyph-name="guilsinglleft" unicode="‹" horiz-adv-x="287" d="M257 63H155L30 243l125 177h102L132 243z"/><glyph glyph-name="guilsinglright" unicode="›" horiz-adv-x="287" d="M257 243L132 63H30l125 180L30 420h102z"/><glyph glyph-name="uni203E" unicode="‾" horiz-adv-x="311" d="M311 563H0v69h311v-69z"/><glyph glyph-name="fraction" unicode="⁄" horiz-adv-x="146" d="M281 667L-72 0h-63l352 667h64z"/><glyph glyph-name="zerosuperior" unicode="⁰" horiz-adv-x="345" d="M325 621q0-86-39-146.5T173 414q-75 0-114 60.5T20 621t39 146 114 60q74 0 113-60t39-146zm-92 0q0 133-60 133-61 0-61-133 0-134 61-134 60 0 60 134z"/><glyph glyph-name="foursuperior" unicode="⁴" horiz-adv-x="345" d="M327 509h-43v-88h-91v88H21v66l144 246h119V580h43v-71zm-134 71v154l-88-154h88z"/><glyph glyph-name="fivesuperior" unicode="⁵" horiz-adv-x="345" d="M320 552q0-61-41.5-99.5T168 414q-96 0-144 63l53 57q35-47 89-47 29 0 45.5 18t16.5 45q0 29-15.5 46T170 613q-40 0-70-37l-64 21v224h259v-73H126V646q30 33 78 33 49 0 82.5-33t33.5-94z"/><glyph glyph-name="sixsuperior" unicode="⁶" horiz-adv-x="345" d="M323 552q0-60-39-99t-102-39q-80 0-120 57.5T22 620q0 94 46.5 150.5T196 827q66 0 110-41l-42-63q-28 31-67 31-38 0-61-32t-23-79v-9q33 51 91 51 50 0 84.5-36t34.5-97zm-91-4q0 33-17 49.5T174 614q-36 0-61-39 6-88 64-88 25 0 40 18.5t15 42.5z"/><glyph glyph-name="sevensuperior" unicode="⁷" horiz-adv-x="319" d="M298 758L168 421H74l132 327H20v73h278v-63z"/><glyph glyph-name="eightsuperior" unicode="⁸" horiz-adv-x="345" d="M322 524q0-54-42-82t-108-28-108 28-42 82q0 35 24.5 64t60.5 39q-34 9-56 34.5T29 722q0 52 42 78.5T172 827t101.5-26.5T316 722q0-35-22-60.5T238 627q35-10 59.5-39t24.5-64zm-96 185q0 23-14.5 35.5T172 757q-24 0-38.5-12.5T119 709q0-17 11.5-29.5t21.5-17 20-6.5q10 2 20.5 6.5t22 17T226 709zm6-175q0 27-21.5 43T172 595q-17-3-38-19t-21-43q0-24 16.5-37t42.5-13 43 13.5 17 37.5z"/><glyph glyph-name="ninesuperior" unicode="⁹" horiz-adv-x="345" d="M22 689q0 60 40 99t102 39q80 0 120-57.5T324 620q0-93-46.5-149.5T150 414q-70 0-109 41l41 63q27-31 67-31 37 0 60 31.5t23 80.5v8q-32-51-90-51-50 0-85 35.5T22 689zm92 4q0-33 16.5-49.5T171 627q37 0 61 39-2 37-16.5 62.5T170 754q-26 0-41-18.5T114 693z"/><glyph glyph-name="parenleftsuperior" unicode="⁽" horiz-adv-x="177" d="M164 378l-52-22q-41 52-64 122.5T25 621t23 142 64 123l52-21q-54-112-54-244 0-134 54-243z"/><glyph glyph-name="parenrightsuperior" unicode="⁾" horiz-adv-x="177" d="M154 621q0-152-87-265l-52 22q55 113 55 243T15 865l52 21q41-53 64-123t23-142z"/><glyph glyph-name="nsuperior" unicode="ⁿ" horiz-adv-x="361" d="M317 326h-87v202q0 46-42 46-34 0-57-35V326H44v314h87v-40q14 19 40 33.5t56 14.5q90 0 90-91V326z"/><glyph glyph-name="zeroinferior" unicode="₀" horiz-adv-x="345" d="M325 54q0-86-39-146.5T173-153q-75 0-114 60.5T20 54t39 146 114 60q74 0 113-60t39-146zm-92 0q0 133-60 133-61 0-61-133 0-134 61-134 60 0 60 134z"/><glyph glyph-name="oneinferior" unicode="₁" horiz-adv-x="265" d="M213-146h-91v283L60 74 8 128l127 126h78v-400z"/><glyph glyph-name="twoinferior" unicode="₂" horiz-adv-x="345" d="M318-146H37v66Q155 23 190 62.5t35 72.5q0 24-16 38t-42 14q-57 0-90-49l-51 56q54 66 145 66 65 0 105-32t40-88q0-44-35-90T160-73h158v-73z"/><glyph glyph-name="threeinferior" unicode="₃" horiz-adv-x="345" d="M319-35q0-53-40.5-85.5T171-153Q71-153 24-89l50 57q37-48 93-48 31 0 47 14t16 37q0 51-72 51-31 0-37-1v72q7-1 35-1 68 0 68 48 0 47-60 47-53 0-87-43l-49 52q51 64 143 64 66 0 104-29t38-80q0-34-23-59.5T234 60q33-4 59-30t26-65z"/><glyph glyph-name="fourinferior" unicode="₄" horiz-adv-x="345" d="M327-58h-43v-88h-91v88H21V8l144 246h119V13h43v-71zM193 13v154L105 13h88z"/><glyph glyph-name="fiveinferior" unicode="₅" horiz-adv-x="345" d="M320-15q0-61-41.5-99.5T168-153q-96 0-144 63l53 57q35-47 89-47 29 0 45.5 18T228-17q0 29-15.5 46T170 46q-40 0-70-37L36 30v224h259v-73H126V79q30 33 78 33 49 0 82.5-33T320-15z"/><glyph glyph-name="sixinferior" unicode="₆" horiz-adv-x="345" d="M323-15q0-60-39-99t-102-39q-80 0-120 57.5T22 53q0 94 46.5 150.5T196 260q66 0 110-41l-42-63q-28 31-67 31-38 0-61-32t-23-79v-9q33 51 91 51 50 0 84.5-36T323-15zm-91-4q0 33-17 49.5T174 47q-36 0-61-39 6-88 64-88 25 0 40 18.5T232-19z"/><glyph glyph-name="seveninferior" unicode="₇" horiz-adv-x="319" d="M298 191L168-146H74l132 327H20v73h278v-63z"/><glyph glyph-name="eightinferior" unicode="₈" horiz-adv-x="345" d="M322-43q0-54-42-82t-108-28-108 28-42 82q0 35 24.5 64T107 60q-34 9-56 34.5T29 155q0 52 42 78.5T172 260t101.5-26.5T316 155q0-35-22-60.5T238 60q35-10 59.5-39T322-43zm-96 185q0 23-14.5 35.5T172 190q-24 0-38.5-12.5T119 142q0-17 11.5-29.5t21.5-17 20-6.5q10 2 20.5 6.5t22 17T226 142zm6-175q0 27-21.5 43T172 28q-17-3-38-19t-21-43q0-24 16.5-37T172-84t43 13.5T232-33z"/><glyph glyph-name="nineinferior" unicode="₉" horiz-adv-x="345" d="M22 122q0 60 40 99t102 39q80 0 120-57.5T324 53q0-93-46.5-149.5T150-153q-70 0-109 41l41 63q27-31 67-31 37 0 60 31.5T232 32v8q-32-51-90-51-50 0-85 35.5T22 122zm92 4q0-33 16.5-49.5T171 60q37 0 61 39-2 37-16.5 62.5T170 187q-26 0-41-18.5T114 126z"/><glyph glyph-name="parenleftinferior" unicode="₍" horiz-adv-x="177" d="M164-189l-52-22Q71-159 48-88.5T25 54t23 142 64 123l52-21q-54-112-54-244 0-134 54-243z"/><glyph glyph-name="parenrightinferior" unicode="₎" horiz-adv-x="177" d="M154 54q0-152-87-265l-52 22Q70-76 70 54T15 298l52 21q41-53 64-123t23-142z"/><glyph glyph-name="colonmonetary" unicode="₡" horiz-adv-x="554" d="M315-12h-4l-24-88h-68l26 97q-24 5-49 17l-30-114H97l40 154Q33 150 33 333q0 150 74 245t199 99l24 91h68l-26-96q20-4 49-18l31 114h68l-42-157q37-39 60-93l-96-43-97-364q56 17 83 93l111-48Q470-12 315-12zm-85 155q21-21 47-30l111 416q-20 20-47 26zm-59 190q0-58 14-106l87 324q-48-19-74.5-77.5T171 333z"/><glyph glyph-name="frenchfranc" unicode="₣" horiz-adv-x="484" d="M204 0H70v113H12v69h58v485h382V549H204V398h241V280H204v-98h121v-69H204V0z"/><glyph glyph-name="lira" unicode="₤" horiz-adv-x="487" d="M26 333v62h35q-16 37-16 79 0 87 65.5 145T261 677q154 0 199-126l-107-54q-22 71-80 71-35 0-58.5-26.5T191 472q0-41 17-77h132v-62H240q12-28 16-55h84v-63h-85q-14-56-57-87 20 8 43 8 26 0 59.5-14.5T355 107q51 0 76 33l45-106q-39-46-130-46-43 0-88.5 21T188 30Q144 30 88-7L45 85q42 23 68 57t26 71v2H26v63h98q-5 12-30 55H26z"/><glyph glyph-name="uni20A6" unicode="₦" horiz-adv-x="628" d="M559 0H431L308 232H204V0H70v232H12v69h58v70H12v69h58v227h136l119-227h99v227h135V440h55v-69h-55v-70h55v-69h-55V0zM204 371v-70h67l-37 70h-30zm157 0l37-70h26v70h-63z"/><glyph glyph-name="peseta" unicode="₧" horiz-adv-x="583" d="M574 412h-54q-10-80-63-131.5T316 229H204V0H70v412H12v72h58v183h246q88 0 141-51.5T520 484h54v-72zM204 549v-65h176q-18 65-80 65h-96zm96-202q62 0 80 65H204v-65h96z"/><glyph glyph-name="rupee" unicode="₨" horiz-adv-x="921" d="M713-12q-120 0-186 69l51 84q23-25 60-42t73-17q34 0 52.5 14t18.5 37q0 22-24.5 35.5t-60 24.5-70.5 26-59.5 48-24.5 83q0 61 47 103t129 42q98 0 168-62l-48-81q-19 21-51 35.5T721 402q-28 0-46-13t-18-33 24.5-33 60-24 71-26.5 60-50T897 138q0-66-50-108T713-12zM516 0H367L265 241h-72V0H59v667h249q91 0 147-59t56-152q0-79-34-127t-82-64zM288 359q39 0 62.5 26t23.5 69-23.5 69-62.5 26h-95V359h95z"/><glyph glyph-name="uni20A9" unicode="₩" horiz-adv-x="784" d="M617 0H477l-40 232h-92L306 0H166l-53 232H20v70h77l-16 69H20v69h46L14 667h144l38-227h100l43 227h105l43-227h99l39 227h144l-52-227h45v-69h-61l-15-69h76v-70h-92zM500 371l13-69h50l12 69h-75zm-292 0l12-69h50l13 69h-75zm161 0l-12-69h68l-12 69h-44zm158-139l13-69 11 69h-24zm-295 0l12-69 13 69h-25zm159 267l-10-59h20z"/><glyph glyph-name="afii57636" unicode="₪" horiz-adv-x="702" d="M446 0H217v383h102V95h127q52 0 76 25.5t24 78.5v351h102V208q0-106-49.5-157T446 0zM283 550q103 0 152.5-51T485 342V166H383v185q0 53-23.5 78.5T283 455H156V0H54v550h229z"/><glyph glyph-name="dong" unicode="₫" horiz-adv-x="512" d="M418-167H107v69h311v-69zM450 0H330v61q-46-73-122-73-82 0-130.5 67.5T29 241q0 116 48.5 185T208 495q78 0 122-73v107H198v69h132v69h120v-69h52v-69h-52V0zM246 94q24 0 48 16.5t36 40.5v181q-12 24-36 40.5T246 389q-44 0-68.5-41T153 241q0-65 24.5-106T246 94z"/><glyph glyph-name="Euro" unicode="€" horiz-adv-x="577" d="M334-12q-104 0-175.5 64.5T63 227H18v74h35q-1 10-1 32 0 6 .5 17.5T53 368H18v73h45q24 109 96 173t175 64q152 0 223-160l-111-49q-16 41-44.5 65.5T334 559q-46 0-79.5-31.5T204 441h173v-73H191q-1-12-1-35 0-22 1-32h186v-74H204q16-56 50-88t80-32q40 0 69 26.5t44 70.5l111-48Q489-12 334-12z"/><glyph glyph-name="afii61289" unicode="ℓ" horiz-adv-x="478" d="M177 239V131q0-50 36-50 21 0 35 14l26-79q-31-28-93-28Q57-12 57 116v377q0 81 58 132.5T266 677q78 0 135.5-40T459 533q0-43-28.5-80.5T342 368zm0 120l103 80q35 27 50 46.5t15 44.5q0 26-23.5 43T265 590q-40 0-64-25.5T177 493V359z"/><glyph glyph-name="afii61352" unicode="№" horiz-adv-x="963" d="M785 350q-70 0-110.5 48T634 515t40.5 117T785 680q71 0 111.5-48T937 515t-40.5-117T785 350zm0 70q62 0 62 95 0 93-62 93-61 0-61-93 0-95 61-95zM548 0H420L193 394V0H59v667h136l218-380v380h135V0z"/><glyph glyph-name="published" unicode="℗" horiz-adv-x="778" d="M734 334q0-142-101-243.5T389-11 145 90.5 44 334t101 243.5T389 679t244-101.5T734 334zm-36 0q0 127-91 218t-218 91-218-91-91-218q0-128 91-218.5T389 25t218 91 91 218zm-144 82q0-52-37-84.5T427 299H315V131h-44v405h156q52 0 89.5-33t37.5-87zm-46 0q0 35-23.5 57T427 495H315V339h112q34 0 57.5 21.5T508 416z"/><glyph glyph-name="servicemark" unicode="℠" horiz-adv-x="425" d="M388 447h-28v182l-65-182h-8l-65 182V447h-28v220h43l54-158 54 158h43V447zm-233 57q0-29-19-46.5T84 440q-43 0-69 29l16 23q22-26 51-26 20 0 31 10t11 26q0 18-16 30.5T72 551t-36 22-16 40q0 26 19 43t48 17q41 0 63-24l-15-21q-18 20-46 20-16 0-26.5-9T52 615q0-16 16-27t35.5-18 35.5-23.5 16-42.5z"/><glyph glyph-name="trademark" unicode="™" horiz-adv-x="414" d="M379 447h-28v182l-65-182h-8l-65 182V447h-28v220h43l54-158 54 158h43V447zM149 641H97V447H69v194H17v26h132v-26z"/><glyph glyph-name="Omega" unicode="Ω" horiz-adv-x="617" d="M44 118h98Q30 207 30 363q0 143 75 229t203 86 203.5-86T587 363q0-156-112-245h98V0H353v118q42 19 69 78.5T449 334q0 101-35 162.5T308 558q-70 0-105.5-62T167 334q0-77 27.5-137t69.5-79V0H44v118z"/><glyph glyph-name="estimated" unicode="℮" horiz-adv-x="842" d="M811 324H179q-5 0-5-5V129q0-14 9-23Q281 3 423 3q151 0 250 115h57q-54-63-135-99.5T421-18Q260-18 145.5 85T31 333t114.5 248T421 684t275.5-103T811 333v-9zm-143 25v191q0 14-10 24-97 99-235 99-140 0-239-102-10-10-10-24V349q0-6 5-6h485q4 0 4 6z"/><glyph glyph-name="onethird" unicode="⅓" horiz-adv-x="775" d="M213 267h-91v283l-62-63-52 54 127 126h78V267zm352 400L212 0h-63l352 667h64zm184-556q0-53-40.5-85.5T601-7Q501-7 454 57l50 57q37-48 93-48 31 0 47 14t16 37q0 51-72 51-31 0-37-1v72q7-1 35-1 68 0 68 48 0 47-60 47-53 0-87-43l-49 52q51 64 143 64 66 0 104-29t38-80q0-34-23-59.5T664 206q33-4 59-30t26-65z"/><glyph glyph-name="twothirds" unicode="⅔" horiz-adv-x="837" d="M318 267H37v66q118 103 153 142.5t35 72.5q0 24-16 38t-42 14q-57 0-90-49l-51 56q54 66 145 66 65 0 105-32t40-88q0-44-35-90T160 340h158v-73zm308 400L273 0h-63l352 667h64zm185-556q0-53-40.5-85.5T663-7Q563-7 516 57l50 57q37-48 93-48 31 0 47 14t16 37q0 51-72 51-31 0-37-1v72q7-1 35-1 68 0 68 48 0 47-60 47-53 0-87-43l-49 52q51 64 143 64 66 0 104-29t38-80q0-34-23-59.5T726 206q33-4 59-30t26-65z"/><glyph glyph-name="oneeighth" unicode="⅛" horiz-adv-x="775" d="M213 267h-91v283l-62-63-52 54 127 126h78V267zm539-164q0-54-42-82T602-7 494 21t-42 82q0 35 24.5 64t60.5 39q-34 9-56 34.5T459 301q0 52 42 78.5T602 406t101.5-26.5T746 301q0-35-22-60.5T668 206q35-10 59.5-39t24.5-64zm-96 185q0 23-14.5 35.5T602 336q-24 0-38.5-12.5T549 288q0-17 11.5-29.5t21.5-17 20-6.5q10 2 20.5 6.5t22 17T656 288zm6-175q0 27-21.5 43T602 174q-17-3-38-19t-21-43q0-24 16.5-37T602 62t43 13.5 17 37.5zm-97 554L212 0h-63l352 667h64z"/><glyph glyph-name="threeeighths" unicode="⅜" horiz-adv-x="837" d="M814 103q0-54-42-82T664-7 556 21t-42 82q0 35 24.5 64t60.5 39q-34 9-56 34.5T521 301q0 52 42 78.5T664 406t101.5-26.5T808 301q0-35-22-60.5T730 206q35-10 59.5-39t24.5-64zm-96 185q0 23-14.5 35.5T664 336q-24 0-38.5-12.5T611 288q0-17 11.5-29.5t21.5-17 20-6.5q10 2 20.5 6.5t22 17T718 288zm6-175q0 27-21.5 43T664 174q-17-3-38-19t-21-43q0-24 16.5-37T664 62t43 13.5 17 37.5zm-98 554L273 0h-63l352 667h64zM319 378q0-53-40.5-85.5T171 260q-100 0-147 64l50 57q37-48 93-48 31 0 47 14t16 37q0 51-72 51-31 0-37-1v72q7-1 35-1 68 0 68 48 0 47-60 47-53 0-87-43l-49 52q51 64 143 64 66 0 104-29t38-80q0-34-23-59.5T234 473q33-4 59-30t26-65z"/><glyph glyph-name="fiveeighths" unicode="⅝" horiz-adv-x="831" d="M808 103q0-54-42-82T658-7 550 21t-42 82q0 35 24.5 64t60.5 39q-34 9-56 34.5T515 301q0 52 42 78.5T658 406t101.5-26.5T802 301q0-35-22-60.5T724 206q35-10 59.5-39t24.5-64zm-96 185q0 23-14.5 35.5T658 336q-24 0-38.5-12.5T605 288q0-17 11.5-29.5t21.5-17 20-6.5q10 2 20.5 6.5t22 17T712 288zm6-175q0 27-21.5 43T658 174q-17-3-38-19t-21-43q0-24 16.5-37T658 62t43 13.5 17 37.5zM320 398q0-61-41.5-99.5T168 260q-96 0-144 63l53 57q35-47 89-47 29 0 45.5 18t16.5 45q0 29-15.5 46T170 459q-40 0-70-37l-64 21v224h259v-73H126V492q30 33 78 33 49 0 82.5-33t33.5-94zm300 269L267 0h-63l352 667h64z"/><glyph glyph-name="seveneighths" unicode="⅞" horiz-adv-x="767" d="M744 103q0-54-42-82T594-7 486 21t-42 82q0 35 24.5 64t60.5 39q-34 9-56 34.5T451 301q0 52 42 78.5T594 406t101.5-26.5T738 301q0-35-22-60.5T660 206q35-10 59.5-39t24.5-64zm-96 185q0 23-14.5 35.5T594 336q-24 0-38.5-12.5T541 288q0-17 11.5-29.5t21.5-17 20-6.5q10 2 20.5 6.5t22 17T648 288zm6-175q0 27-21.5 43T594 174q-17-3-38-19t-21-43q0-24 16.5-37T594 62t43 13.5 17 37.5zM298 604L168 267H74l132 327H20v73h278v-63zm258 63L203 0h-63l352 667h64z"/><glyph glyph-name="arrowleft" unicode="←" horiz-adv-x="582" d="M538 211H269l12-130L0 286l281 204-12-129h269V211z"/><glyph glyph-name="arrowup" unicode="↑" horiz-adv-x="582" d="M216 17v269L86 274l205 281 204-281-129 12V17H216z"/><glyph glyph-name="arrowright" unicode="→" horiz-adv-x="582" d="M584 286L303 81l12 130H47v150h268l-12 129z"/><glyph glyph-name="arrowdown" unicode="↓" horiz-adv-x="582" d="M366 555V286l130 12L291 17 87 298l129-12v269h150z"/><glyph glyph-name="partialdiff" unicode="∂" horiz-adv-x="495" d="M247-12Q145-12 87 57T29 226q0 98 50.5 167.5T211 463q82 0 123-74-41 147-157 236l98 58q84-80 137.5-191.5T466 249q0-117-57-189T247-12zm0 106q46 0 70.5 37.5T342 226q0 56-24.5 93.5T247 357t-69.5-37.5T154 226q0-57 23.5-94.5T247 94z"/><glyph glyph-name="Delta" unicode="∆" horiz-adv-x="563" d="M565 0H-2l202 667h162zM392 118L281 526 171 118h221z"/><glyph glyph-name="product" unicode="∏" horiz-adv-x="652" d="M553-90H419v639H233V-90H99v639H22v118h608V549h-77V-90z"/><glyph glyph-name="summation" unicode="∑" horiz-adv-x="474" d="M195 549l155-252L190 28h247V-90H40V30l158 267L41 549v118h396V549H195z"/><glyph glyph-name="minus" unicode="−" horiz-adv-x="444" d="M415 299H29v75h386v-75z"/><glyph glyph-name="uni2215" unicode="∕" horiz-adv-x="146" d="M281 667L-72 0h-63l352 667h64z"/><glyph glyph-name="uni2219" unicode="∙" horiz-adv-x="252" d="M203 244q0-31-23-54t-54-23-54 23-23 54q0 32 23 55t54 23 54-23 23-55z"/><glyph glyph-name="radical" unicode="√" horiz-adv-x="574" d="M347 0h-81l-90 302-112-33-18 73 185 52 77-274 160 547h84z"/><glyph glyph-name="infinity" unicode="∞" horiz-adv-x="592" d="M169 160q-69 0-104.5 52T29 335q0 72 35.5 124T169 511q43 0 75.5-28t51.5-73q19 44 52 72t75 28q70 0 105-51.5T563 335t-35-123.5T423 160q-42 0-75 28t-52 72q-43-100-127-100zm243 75q33 0 53.5 27.5T486 335q0 46-20.5 73.5T412 436q-55 0-83-101 12-44 33.5-72t49.5-28zm-231 0q54 0 82 100-28 101-82 101-34 0-54.5-27.5T106 335q0-45 20.5-72.5T181 235z"/><glyph glyph-name="integral" unicode="∫" horiz-adv-x="309" d="M61-100H17v80h44q21 0 35.5 17T111 39v590q0 61 40.5 100t95.5 39h45v-81h-45q-21 0-35-16t-14-42V38q0-61-41-99.5T61-100z"/><glyph glyph-name="approxequal" unicode="≈" horiz-adv-x="444" d="M29 202v80q43-24 96-24 39 0 91 21.5T318 301q55 0 97-20v-80q-43 25-97 25-39 0-91-22t-102-22q-51 0-96 20zm0 185v80q43-25 96-25 39 0 91 21.5T318 485q54 0 97-19v-80q-43 24-97 24-39 0-91-21.5T125 367q-51 0-96 20z"/><glyph glyph-name="notequal" unicode="≠" horiz-adv-x="444" d="M126 93H63l57 109H29v75h131l60 114H29v75h231l57 108h64l-57-108h91v-75H283l-59-114h191v-75H184z"/><glyph glyph-name="lessequal" unicode="≤" horiz-adv-x="444" d="M415 133L29 301v87l386 169v-90L116 344l299-122v-89zm0-120H29v75h386V13z"/><glyph glyph-name="greaterequal" unicode="≥" horiz-adv-x="444" d="M414 301L29 133v89l298 122L29 467v90l385-169v-87zm0-288H29v75h385V13z"/><glyph glyph-name="triangleright" unicode="⊲" horiz-adv-x="587" d="M589 286L54-23v618z"/><glyph glyph-name="triangleleft" unicode="⊳" horiz-adv-x="587" d="M535 595V-23L0 286z"/><glyph glyph-name="dotmath" unicode="⋅" horiz-adv-x="252" d="M203 244q0-31-23-54t-54-23-54 23-23 54q0 32 23 55t54 23 54-23 23-55z"/><glyph glyph-name="uni2318" unicode="⌘" horiz-adv-x="667" d="M220 154v67h-67q-28 0-47-19.5T87 154q0-29 19-48.5T153 86t47.5 20 19.5 48zm0 292v68q0 28-19 47.5T154 581t-47.5-19.5T87 514t19.5-48 47.5-20h66zm45-181h137v137H265V265zm315-111q0 28-19 47.5T514 221h-67v-67q0-28 19.5-48T514 86t47 19.5 19 48.5zm0 360q0 28-19 47.5T514 581t-47.5-19.5T447 514v-68h67q28 0 47 20t19 48zm45-360q0-46-32.5-79T514 42t-79 33-33 79v67H265v-67q0-46-33-79t-79-33-78.5 33T42 154t32.5 78.5T153 265h67v137h-66q-46 0-79 33t-33 79 33 78.5 79 32.5 78.5-32.5T265 514v-68h137v68q0 46 33 78.5t79 32.5 78.5-32.5T625 514t-32.5-79-78.5-33h-67V265h67q46 0 78.5-32.5T625 154z"/><glyph glyph-name="blacksquare" unicode="■" horiz-adv-x="661" d="M618 0H47v572h571V0z"/><glyph glyph-name="triagup" unicode="▲" horiz-adv-x="616" d="M617 29L-2 30l309 535z"/><glyph glyph-name="triagdn" unicode="▼" horiz-adv-x="616" d="M617 510L307-25-2 510h619z"/><glyph glyph-name="lozenge" unicode="◊" horiz-adv-x="375" d="M198 0h-21L19 334l158 333h21l158-333zm-10 41l132 293-133 292L55 334z"/><glyph glyph-name="circlesolid" unicode="●" horiz-adv-x="695" d="M644 285q0-123-87-210T347-12 137 75 50 285t87 210 210 87 210-87 87-210z"/><glyph glyph-name="blackstar" unicode="★" horiz-adv-x="759" d="M759 421L524 250l90-275-235 170L145-25l89 275L0 421h290l89 276 90-276h290z"/><glyph glyph-name="ballotbox" unicode="☐" horiz-adv-x="661" d="M616 0H45v572h571V0zm-82 75v422H127V75h407z"/><glyph glyph-name="boxchecked" unicode="☑" horiz-adv-x="661" d="M616 0H45v572h489l90 166 65-40-73-135V0zm-82 75v337L360 91 158 337l59 55 132-161 144 266H127V75h407z"/><glyph glyph-name="diamond" unicode="♦" horiz-adv-x="501" d="M501 285L250 35 0 285l250 251z"/><glyph glyph-name="checkmark" unicode="✓" horiz-adv-x="531" d="M531 698L202 91 0 337l59 55 132-161 275 507z"/><glyph glyph-name="perthousand.onum" unicode="" horiz-adv-x="810" d="M264 424q0-59-34-98.5T142 286t-88 39.5T20 424t34 98.5 88 39.5 88-39.5 34-98.5zm262-297q0-59-34-98t-88-39q-55 0-88.5 39T282 127q0 60 33.5 99.5T404 266q54 0 88-40t34-99zm-62 423L148 0H88l315 550h61zM192 424q0 33-14 54t-36 21-36-21-14-54 14-53.5 36-20.5q23 0 36.5 20t13.5 54zm262-297q0 33-14 54t-36 21q-23 0-37-20.5T353 127q0-33 14-53.5T404 53q22 0 36 20.5t14 53.5zm336 0q0-59-33.5-98T668-10q-54 0-88 39.5T546 127q0 60 33.5 99.5T668 266t88.5-39.5T790 127zm-72 0q0 34-14 54.5T668 202t-36-20.5-14-54.5q0-33 14-53.5T668 53t36 20.5 14 53.5z"/><glyph glyph-name="uniF637" unicode="" horiz-adv-x="360" d="M317 326h-87v203q0 45-43 45-34 0-57-36V326H44v434h86V600q14 19 40 33.5t57 14.5q90 0 90-90V326z"/><glyph glyph-name="zero.tzero" unicode="" horiz-adv-x="532" d="M266-12q-72 0-127 45L120 0H34l53 94q-57 95-57 239 0 90 23.5 165.5t78.5 127T266 677q72 0 126-44l20 34h86l-54-95q58-94 58-239 0-67-14-126.5T447 97t-74-79.5T266-12zm0 119q100 0 100 226 0 45-5 92L201 143q23-36 65-36zm-99 226q0-54 4-90l159 280q-24 35-64 35-99 0-99-225z"/><glyph glyph-name="zero.tnum" unicode="" horiz-adv-x="532" d="M265-12q-79 0-134 52T52.5 167.5 29 333t23.5 165.5 78.5 127T265 677q60 0 106.5-29t74-78.5T487 460t14-127-14-126.5T446 97t-74-79.5T265-12zm0 119q100 0 100 226 0 225-100 225-99 0-99-225 0-226 99-226z"/><glyph glyph-name="two.tnum" unicode="" horiz-adv-x="532" d="M490 0H56v108q192 187 243.5 249T351 474q0 38-25.5 61T262 558q-86 0-142-75l-80 84q82 110 224 110 98 0 160.5-55T487 475q0-72-50.5-146.5T254 118h236V0z"/><glyph glyph-name="three.tnum" unicode="" horiz-adv-x="532" d="M262-12q-76 0-136 30T33 96l80 84q26-34 64-53.5t79-19.5q51 0 76.5 24t25.5 65q0 84-108 84-52 0-62-2v121q10-1 59-1 47 0 74.5 19.5T349 475q0 41-26.5 62T251 558q-80 0-133-67l-76 78q77 108 220 108 101 0 160-47t59-134q0-56-36.5-98.5T355 344q55-8 95.5-52T491 184q0-88-62.5-142T262-12z"/><glyph glyph-name="four.tnum" unicode="" horiz-adv-x="532" d="M434 0H300v142H28v112l234 413h172V260h67V142h-67V0zM300 260v271L149 260h151z"/><glyph glyph-name="five.tnum" unicode="" horiz-adv-x="532" d="M262-12Q116-12 38 93l81 86q55-72 139-72 46 0 73.5 30.5T359 212q0 50-25 77.5T264 317q-66 0-110-55l-97 26v379h400V549H191V378q45 55 122 55 78 0 130-58.5T495 216q0-101-63.5-164.5T262-12z"/><glyph glyph-name="six.tnum" unicode="" horiz-adv-x="532" d="M283-12q-85 0-142 48.5T60.5 160 37 332q0 154 70.5 249.5T304 677q107 0 171-72l-65-100q-39 53-104 53-59 0-96-58.5T173 359v-12q20 36 58.5 60.5T315 432q79 0 133-57.5T502 215q0-98-61-162.5T283-12zm-8 119q43 0 67 31t24 72q0 54-27 80.5T273 317q-59 0-100-68 5-58 28.5-100t73.5-42z"/><glyph glyph-name="seven.tnum" unicode="" horiz-adv-x="532" d="M273 0H128l200 549H52v118h428v-93z"/><glyph glyph-name="eight.tnum" unicode="" horiz-adv-x="532" d="M266-12Q163-12 99.5 36T36 170q0 58 36.5 106t90.5 68q-51 19-84.5 60T45 503q0 86 65 130t156 44q90 0 155.5-44.5T487 503q0-58-34-99t-85-60q54-21 91-68t37-105q0-87-64-135T266-12zm0 404q29 7 57.5 29.5T352 481t-23.5 58-62.5 21q-40 0-63.5-21T179 481t29-59.5 58-29.5zm0-287q41 0 68 22.5t27 60.5q0 42-33 69.5T266 289q-29-4-62-31.5T171 188q0-39 26.5-61t68.5-22z"/><glyph glyph-name="nine.tnum" unicode="" horiz-adv-x="532" d="M229-11Q123-11 59 61l64 99q41-52 105-52 61 0 97 58t36 140v13q-21-36-59-60.5T219 234q-79 0-133 57.5T32 451q0 98 61 162.5T251 678q124 0 184.5-96.5T496 333q0-154-70.5-249T229-11zm32 360q60 0 99 68-4 58-27 100t-74 42q-43 0-67-31t-24-72q0-54 27-80.5t66-26.5z"/><glyph glyph-name="percent.onum" unicode="" horiz-adv-x="545" d="M264 424q0-59-34-98.5T142 286t-88 39.5T20 424t34 98.5 88 39.5 88-39.5 34-98.5zm262-297q0-59-34-98t-88-39q-55 0-88.5 39T282 127q0 60 33.5 99.5T404 266q54 0 88-40t34-99zm-65 423L144 0H84l316 550h61zM192 424q0 33-14 54t-36 21-36-21-14-54 14-53.5 36-20.5q23 0 36.5 20t13.5 54zm262-297q0 33-14 54t-36 21q-23 0-37-20.5T353 127q0-33 14-53.5T404 53q22 0 36 20.5t14 53.5z"/><glyph glyph-name="zero.tonum" unicode="" horiz-adv-x="532" d="M501 275q0-76-23.5-139T399 30.5 265-12q-59 0-105.5 24T85 77t-42 91.5T29 275q0 76 24 139.5T132 520t133 42q116 0 176-83.5T501 275zm-136 0q0 72-24.5 120T265 443q-50 0-74.5-48T166 275t24.5-120 74.5-48q51 0 75.5 48T365 275z"/><glyph glyph-name="one.tonum" unicode="" horiz-adv-x="532" d="M401 0H266v377L165 272l-77 81 196 197h117V0z"/><glyph glyph-name="two.tonum" unicode="" horiz-adv-x="532" d="M466 0H59v109q148 75 214.5 139.5T340 364q0 34-23.5 56.5T257 443q-82 0-138-72l-80 81q83 110 224 110 96 0 154-47.5T475 386q0-65-53.5-135.5T272 118h194V0z"/><glyph glyph-name="three.tonum" unicode="" horiz-adv-x="532" d="M262-127q-76 0-136 30T33-19l80 84q26-34 64-53.5T256-8q51 0 76.5 24T358 81q0 84-108 84-52 0-62-2v121q10-1 59-1 47 0 74.5 19.5T349 360q0 41-26.5 62T251 443q-80 0-133-67l-76 78q77 108 220 108 101 0 160-47t59-134q0-56-36.5-98.5T355 229q55-8 95.5-52T491 69q0-88-62.5-142T262-127z"/><glyph glyph-name="four.tonum" unicode="" horiz-adv-x="532" d="M501 31h-67v-148H300V31H28v112l234 407h172V149h67V31zM300 149v265L149 149h151z"/><glyph glyph-name="five.tonum" unicode="" horiz-adv-x="532" d="M262-129Q116-129 38-24l81 86q55-72 139-72 46 0 73.5 30.5T359 95q0 50-25 77.5T264 200q-66 0-110-55l-97 26v379h400V432H191V261q45 55 122 55 78 0 130-58.5T495 99q0-101-63.5-164.5T262-129z"/><glyph glyph-name="six.tonum" unicode="" horiz-adv-x="532" d="M283-12q-85 0-142 48.5T60.5 160 37 332q0 154 70.5 249.5T304 677q107 0 171-72l-65-100q-39 53-104 53-59 0-96-58.5T173 359v-12q20 36 58.5 60.5T315 432q79 0 133-57.5T502 215q0-98-61-162.5T283-12zm-8 119q43 0 67 31t24 72q0 54-27 80.5T273 317q-59 0-100-68 5-58 28.5-100t73.5-42z"/><glyph glyph-name="seven.tonum" unicode="" horiz-adv-x="532" d="M273-117H128l200 549H52v118h428v-93z"/><glyph glyph-name="eight.tonum" unicode="" horiz-adv-x="532" d="M266-12Q163-12 99.5 36T36 170q0 58 36.5 106t90.5 68q-51 19-84.5 60T45 503q0 86 65 130t156 44q90 0 155.5-44.5T487 503q0-58-34-99t-85-60q54-21 91-68t37-105q0-87-64-135T266-12zm0 404q29 7 57.5 29.5T352 481t-23.5 58-62.5 21q-40 0-63.5-21T179 481t29-59.5 58-29.5zm0-287q41 0 68 22.5t27 60.5q0 42-33 69.5T266 289q-29-4-62-31.5T171 188q0-39 26.5-61t68.5-22z"/><glyph glyph-name="nine.tonum" unicode="" horiz-adv-x="532" d="M229-127q-106 0-170 72l64 99Q164-8 228-8q61 0 97 58t36 140v13q-21-36-59-60.5T219 118q-79 0-133 57.5T32 335q0 98 61 162.5T251 562q124 0 184.5-96.5T496 217q0-154-70.5-249T229-127zm32 360q60 0 99 68-4 58-27 100t-74 42q-43 0-67-31t-24-72q0-54 27-80.5t66-26.5z"/><glyph glyph-name="colonmonetary.onum" unicode="" horiz-adv-x="485" d="M101-53l25 90q-96 79-96 238 0 126 64.5 206T270 562l10 37h52l-12-42q20-5 36-12l15 54h52l-22-81q39-34 67-95l-102-42-2 3-78-285q56 8 80 72l102-41Q409-12 274-12q-13 0-19 1l-11-42h-52l13 50q-12 3-34 13l-18-63h-52zm102 181q16-16 33-23l90 329q-16 12-35 16zm-46 147q0-49 12-86l69 256q-38-15-59.5-60.5T157 275z"/><glyph glyph-name="Euro.onum" unicode="" horiz-adv-x="505" d="M321 302H178q-4-28 0-56h143v-55H188q29-93 106-93 65 0 92 73l102-41Q429-12 294-12q-92 0-153.5 55T59 191H18v55h33q-2 28 0 56H18v56h40q20 94 81.5 149T294 562q133 0 194-139l-102-42q-30 71-92 71-38 0-65.5-25T188 358h133v-56z"/><glyph glyph-name="florin.onum" unicode="" horiz-adv-x="382" d="M155-119H19l71 323H51v86h58l27 116q36 155 164 155 59 0 92-33l-45-98q-9 13-29 13-36 0-50-58l-21-95h72v-86h-91z"/><glyph glyph-name="numbersign.onum" unicode="" horiz-adv-x="454" d="M438 401l-17-66h-65l-33-117h66l-19-66h-66L261 0h-81l44 152h-66L115 0H34l43 152H16l18 66h63l33 117H67l17 66h65l42 149h82l-43-149h65l43 149h80l-43-149h63zm-163-66h-65l-33-117h66z"/><glyph glyph-name="sterling.onum" unicode="" horiz-adv-x="400" d="M19 227v66h42q-26 56-26 102 0 73 53 119.5T212 561q127 0 164-101l-93-43q-18 55-62 55-26 0-44.5-22T158 393q0-38 28-100h94v-66h-70q4-22 4-33 0-53-40-89 14 4 20 4 22 0 49-10.5T287 88q40 0 62 27l41-86q-36-39-110-39-36 0-72 16t-56 16q-32 0-81-29L34 68q75 39 75 97 0 25-16 62H19z"/><glyph glyph-name="yen.onum" unicode="" horiz-adv-x="472" d="M299 0H175v108H23v65h152v53H23v65h116L-4 550h136l105-209 103 209h137L334 291h114v-65H299v-53h149v-65H299V0z"/><glyph glyph-name="cent.onum" unicode="" horiz-adv-x="485" d="M228-84v76Q135 8 82.5 85T30 275t52.5 190T228 558v65h87v-65q102-19 153-135l-102-42q-19 44-51 61V108q34 18 51 63l102-41Q418 11 315-8v-76h-87zm-71 359q0-127 71-166v331q-34-18-52.5-62T157 275z"/><glyph glyph-name="zero.dnom" unicode="" horiz-adv-x="345" d="M325 200q0-86-39-146.5T173-7Q98-7 59 53.5T20 200t39 146 114 60q74 0 113-60t39-146zm-92 0q0 133-60 133-61 0-61-133 0-134 61-134 60 0 60 134z"/><glyph glyph-name="one.dnom" unicode="" horiz-adv-x="265" d="M213 0h-91v283l-62-63-52 54 127 126h78V0z"/><glyph glyph-name="two.dnom" unicode="" horiz-adv-x="345" d="M318 0H37v66q118 103 153 142.5t35 72.5q0 24-16 38t-42 14q-57 0-90-49l-51 56q54 66 145 66 65 0 105-32t40-88q0-44-35-90T160 73h158V0z"/><glyph glyph-name="three.dnom" unicode="" horiz-adv-x="345" d="M319 111q0-53-40.5-85.5T171-7Q71-7 24 57l50 57q37-48 93-48 31 0 47 14t16 37q0 51-72 51-31 0-37-1v72q7-1 35-1 68 0 68 48 0 47-60 47-53 0-87-43l-49 52q51 64 143 64 66 0 104-29t38-80q0-34-23-59.5T234 206q33-4 59-30t26-65z"/><glyph glyph-name="four.dnom" unicode="" horiz-adv-x="345" d="M327 88h-43V0h-91v88H21v66l144 246h119V159h43V88zm-134 71v154l-88-154h88z"/><glyph glyph-name="five.dnom" unicode="" horiz-adv-x="345" d="M320 131q0-61-41.5-99.5T168-7Q72-7 24 56l53 57q35-47 89-47 29 0 45.5 18t16.5 45q0 29-15.5 46T170 192q-40 0-70-37l-64 21v224h259v-73H126V225q30 33 78 33 49 0 82.5-33t33.5-94z"/><glyph glyph-name="six.dnom" unicode="" horiz-adv-x="345" d="M323 131q0-60-39-99T182-7Q102-7 62 50.5T22 199q0 94 46.5 150.5T196 406q66 0 110-41l-42-63q-28 31-67 31-38 0-61-32t-23-79v-9q33 51 91 51 50 0 84.5-36t34.5-97zm-91-4q0 33-17 49.5T174 193q-36 0-61-39 6-88 64-88 25 0 40 18.5t15 42.5z"/><glyph glyph-name="seven.dnom" unicode="" horiz-adv-x="319" d="M298 337L168 0H74l132 327H20v73h278v-63z"/><glyph glyph-name="eight.dnom" unicode="" horiz-adv-x="345" d="M322 103q0-54-42-82T172-7 64 21t-42 82q0 35 24.5 64t60.5 39q-34 9-56 34.5T29 301q0 52 42 78.5T172 406t101.5-26.5T316 301q0-35-22-60.5T238 206q35-10 59.5-39t24.5-64zm-96 185q0 23-14.5 35.5T172 336q-24 0-38.5-12.5T119 288q0-17 11.5-29.5t21.5-17 20-6.5q10 2 20.5 6.5t22 17T226 288zm6-175q0 27-21.5 43T172 174q-17-3-38-19t-21-43q0-24 16.5-37T172 62t43 13.5 17 37.5z"/><glyph glyph-name="nine.dnom" unicode="" horiz-adv-x="345" d="M22 268q0 60 40 99t102 39q80 0 120-57.5T324 199q0-93-46.5-149.5T150-7Q80-7 41 34l41 63q27-31 67-31 37 0 60 31.5t23 80.5v8q-32-51-90-51-50 0-85 35.5T22 268zm92 4q0-33 16.5-49.5T171 206q37 0 61 39-2 37-16.5 62.5T170 333q-26 0-41-18.5T114 272z"/><glyph glyph-name="zero.numr" unicode="" horiz-adv-x="345" d="M325 467q0-86-39-146.5T173 260q-75 0-114 60.5T20 467t39 146 114 60q74 0 113-60t39-146zm-92 0q0 133-60 133-61 0-61-133 0-134 61-134 60 0 60 134z"/><glyph glyph-name="one.numr" unicode="" horiz-adv-x="265" d="M213 267h-91v283l-62-63-52 54 127 126h78V267z"/><glyph glyph-name="two.numr" unicode="" horiz-adv-x="345" d="M318 267H37v66q118 103 153 142.5t35 72.5q0 24-16 38t-42 14q-57 0-90-49l-51 56q54 66 145 66 65 0 105-32t40-88q0-44-35-90T160 340h158v-73z"/><glyph glyph-name="three.numr" unicode="" horiz-adv-x="345" d="M319 378q0-53-40.5-85.5T171 260q-100 0-147 64l50 57q37-48 93-48 31 0 47 14t16 37q0 51-72 51-31 0-37-1v72q7-1 35-1 68 0 68 48 0 47-60 47-53 0-87-43l-49 52q51 64 143 64 66 0 104-29t38-80q0-34-23-59.5T234 473q33-4 59-30t26-65z"/><glyph glyph-name="four.numr" unicode="" horiz-adv-x="345" d="M327 355h-43v-88h-91v88H21v66l144 246h119V426h43v-71zm-134 71v154l-88-154h88z"/><glyph glyph-name="five.numr" unicode="" horiz-adv-x="345" d="M320 398q0-61-41.5-99.5T168 260q-96 0-144 63l53 57q35-47 89-47 29 0 45.5 18t16.5 45q0 29-15.5 46T170 459q-40 0-70-37l-64 21v224h259v-73H126V492q30 33 78 33 49 0 82.5-33t33.5-94z"/><glyph glyph-name="six.numr" unicode="" horiz-adv-x="345" d="M323 398q0-60-39-99t-102-39q-80 0-120 57.5T22 466q0 94 46.5 150.5T196 673q66 0 110-41l-42-63q-28 31-67 31-38 0-61-32t-23-79v-9q33 51 91 51 50 0 84.5-36t34.5-97zm-91-4q0 33-17 49.5T174 460q-36 0-61-39 6-88 64-88 25 0 40 18.5t15 42.5z"/><glyph glyph-name="seven.numr" unicode="" horiz-adv-x="319" d="M298 604L168 267H74l132 327H20v73h278v-63z"/><glyph glyph-name="eight.numr" unicode="" horiz-adv-x="345" d="M322 370q0-54-42-82t-108-28-108 28-42 82q0 35 24.5 64t60.5 39q-34 9-56 34.5T29 568q0 52 42 78.5T172 673t101.5-26.5T316 568q0-35-22-60.5T238 473q35-10 59.5-39t24.5-64zm-96 185q0 23-14.5 35.5T172 603q-24 0-38.5-12.5T119 555q0-17 11.5-29.5t21.5-17 20-6.5q10 2 20.5 6.5t22 17T226 555zm6-175q0 27-21.5 43T172 441q-17-3-38-19t-21-43q0-24 16.5-37t42.5-13 43 13.5 17 37.5z"/><glyph glyph-name="nine.numr" unicode="" horiz-adv-x="345" d="M22 535q0 60 40 99t102 39q80 0 120-57.5T324 466q0-93-46.5-149.5T150 260q-70 0-109 41l41 63q27-31 67-31 37 0 60 31.5t23 80.5v8q-32-51-90-51-50 0-85 35.5T22 535zm92 4q0-33 16.5-49.5T171 473q37 0 61 39-2 37-16.5 62.5T170 600q-26 0-41-18.5T114 539z"/><glyph glyph-name="Abreve.smcp" unicode="" horiz-adv-x="484" d="M168 550h148L486 0H352l-25 95H158L132 0H-3zm133-347l-59 214-59-214h118zm91 460q-57-75-150-75T92 663l55 44q35-50 95-50 61 0 95 50z"/><glyph glyph-name="Amacron.smcp" unicode="" horiz-adv-x="484" d="M398 613H87v69h311v-69zm-230-63h148L486 0H352l-25 95H158L132 0H-3zm133-347l-59 214-59-214h118z"/><glyph glyph-name="Aogonek.smcp" unicode="" horiz-adv-x="484" d="M168 550h148L486 0q-64-38-64-95 0-40 31-40 25 0 35 32l49-28q-26-55-85-55-40 0-65 21.5T362-100q0 56 45 100h-55l-25 95H158L132 0H-3zm133-347l-59 214-59-214h118z"/><glyph glyph-name="AEacute.smcp" unicode="" horiz-adv-x="685" d="M534 750L400 606h-80l107 144h107zM649 0H312v95H172L130 0H-5l265 550h389V443H437V333h206V226H437V107h212V0zM312 203v215l-96-215h96z"/><glyph glyph-name="Cacute.smcp" unicode="" horiz-adv-x="485" d="M434 750L300 606h-80l107 144h107zM274-12Q162-12 96 68T30 275t66 207 178 80q133 0 194-139l-102-42q-30 71-92 71-54 0-85.5-49.5T157 275t31.5-127.5T274 98q65 0 92 73l102-41Q409-12 274-12z"/><glyph glyph-name="Ccaron.smcp" unicode="" horiz-adv-x="485" d="M330 606H222l-80 144h70l64-91 61 91h70zM274-12Q162-12 96 68T30 275t66 207 178 80q133 0 194-139l-102-42q-30 71-92 71-54 0-85.5-49.5T157 275t31.5-127.5T274 98q65 0 92 73l102-41Q409-12 274-12z"/><glyph glyph-name="Ccircumflex.smcp" unicode="" horiz-adv-x="485" d="M407 606h-70l-64 91-61-91h-70l77 144h108zM274-12Q162-12 96 68T30 275t66 207 178 80q133 0 194-139l-102-42q-30 71-92 71-54 0-85.5-49.5T157 275t31.5-127.5T274 98q65 0 92 73l102-41Q409-12 274-12z"/><glyph glyph-name="Cdotaccent.smcp" unicode="" horiz-adv-x="485" d="M274-12Q162-12 96 68T30 275t66 207 178 80q133 0 194-139l-102-42q-30 71-92 71-54 0-85.5-49.5T157 275t31.5-127.5T274 98q65 0 92 73l102-41Q409-12 274-12zm0 607q-27 0-46 18.5T209 659t19.5 46 45.5 19 45-19 19-46-19-45.5-45-18.5z"/><glyph glyph-name="Dcaron.smcp" unicode="" horiz-adv-x="526" d="M314 606H206l-80 144h70l64-91 61 91h70zM240 0H48v550h191q118 0 184.5-76T490 274 424 75 240 0zm-1 108q60 0 92 45.5T363 274q0 79-31.5 123.5T239 442h-66V108h66z"/><glyph glyph-name="Dcroat.smcp" unicode="" horiz-adv-x="540" d="M254 0H62v235H12v82h50v233h191q118 0 184.5-76T504 274 438 75 254 0zm16 235h-83V108h66q60 0 92 45.5T377 274q0 79-31.5 123.5T253 442h-66V317h83v-82z"/><glyph glyph-name="Ebreve.smcp" unicode="" horiz-adv-x="428" d="M391 0H54v550h337V443H179V333h206V226H179V107h212V0zm-18 663q-57-75-150-75T73 663l55 44q35-50 95-50 61 0 95 50z"/><glyph glyph-name="Ecaron.smcp" unicode="" horiz-adv-x="428" d="M278 606H170L90 750h70l64-91 61 91h70zM391 0H54v550h337V443H179V333h206V226H179V107h212V0z"/><glyph glyph-name="Edotaccent.smcp" unicode="" horiz-adv-x="428" d="M391 0H54v550h337V443H179V333h206V226H179V107h212V0zM224 595q-27 0-46 18.5T159 659t19.5 46 45.5 19 45-19 19-46-19-45.5-45-18.5z"/><glyph glyph-name="Emacron.smcp" unicode="" horiz-adv-x="428" d="M391 0H54v550h337V443H179V333h206V226H179V107h212V0zm-12 613H68v69h311v-69z"/><glyph glyph-name="Eng.smcp" unicode="" horiz-adv-x="537" d="M298-196q-77 0-126 46l41 97q31-33 72-33 34 0 53.5 19.5T358-12V1L179 329V0H54v550h131l174-316v316h124V-26q1-85-49-127.5T298-196z"/><glyph glyph-name="Eogonek.smcp" unicode="" horiz-adv-x="428" d="M393-103l49-28q-26-55-85-55-40 0-65 21.5T267-100q0 56 45 100H54v550h337V443H179V333h206V226H179V107h212V0q-64-38-64-95 0-40 31-40 25 0 35 32z"/><glyph glyph-name="Gbreve.smcp" unicode="" horiz-adv-x="511" d="M275-12Q163-12 96.5 67T30 275q0 130 66.5 208.5T275 562q67 0 115-35.5t74-92.5l-100-47q-32 65-89 65-54 0-85.5-47T158 275q0-82 32-130t86-48q47 0 78 31v76h-94v101h212V77q-81-89-197-89zm151 675q-57-75-150-75t-150 75l55 44q35-50 95-50 61 0 95 50z"/><glyph glyph-name="Gcircumflex.smcp" unicode="" horiz-adv-x="511" d="M275-12Q163-12 96.5 67T30 275q0 130 66.5 208.5T275 562q67 0 115-35.5t74-92.5l-100-47q-32 65-89 65-54 0-85.5-47T158 275q0-82 32-130t86-48q47 0 78 31v76h-94v101h212V77q-81-89-197-89zm133 618h-70l-64 91-61-91h-70l77 144h108z"/><glyph glyph-name="Gcommaaccent.smcp" unicode="" horiz-adv-x="511" d="M275-12Q163-12 96.5 67T30 275q0 130 66.5 208.5T275 562q67 0 115-35.5t74-92.5l-100-47q-32 65-89 65-54 0-85.5-47T158 275q0-82 32-130t86-48q47 0 78 31v76h-94v101h212V77q-81-89-197-89zm65-126q0-44-22-83t-59-65l-42 34q21 13 39.5 36t22.5 44q-4-2-14-2-22 0-37 15.5T213-119q0 25 17.5 42.5T273-59q28 0 47.5-21.5T340-138z"/><glyph glyph-name="Gdotaccent.smcp" unicode="" horiz-adv-x="511" d="M275-12Q163-12 96.5 67T30 275q0 130 66.5 208.5T275 562q67 0 115-35.5t74-92.5l-100-47q-32 65-89 65-54 0-85.5-47T158 275q0-82 32-130t86-48q47 0 78 31v76h-94v101h212V77q-81-89-197-89zm0 607q-27 0-46 18.5T210 659t19.5 46 45.5 19 45-19 19-46-19-45.5-45-18.5z"/><glyph glyph-name="Hcircumflex.smcp" unicode="" horiz-adv-x="542" d="M404 606h-70l-64 91-61-91h-70l77 144h108zM488 0H363v227H179V0H54v550h125V336h184v214h125V0z"/><glyph glyph-name="Hbar.smcp" unicode="" horiz-adv-x="566" d="M500 0H375v227H191V0H66v408H12v69h54v73h125v-73h184v73h125v-73h50v-69h-50V0zM191 336h184v72H191v-72z"/><glyph glyph-name="Ibreve.smcp" unicode="" horiz-adv-x="233" d="M179 0H54v550h125V0zm88 663q-57-75-150-75t-150 75l55 44q35-50 95-50 61 0 95 50z"/><glyph glyph-name="IJ.smcp" unicode="" horiz-adv-x="603" d="M363-12q-76 0-125 46l41 97q30-33 72-33 34 0 53.5 19t19.5 54v379h125V158q0-86-49.5-128T363-12zM179 0H54v550h125V0z"/><glyph glyph-name="Imacron.smcp" unicode="" horiz-adv-x="233" d="M273 613H-38v69h311v-69zM179 0H54v550h125V0z"/><glyph glyph-name="Iogonek.smcp" unicode="" horiz-adv-x="233" d="M179 0q-64-38-64-95 0-40 31-40 25 0 35 32l49-28q-26-55-85-55-40 0-65 21.5T55-100q0 56 45 100H54v550h125V0z"/><glyph glyph-name="Itilde.smcp" unicode="" horiz-adv-x="233" d="M179 0H54v550h125V0zm-12 604q-26 0-44.5 18T91 657.5 65 675q-31 0-31-65h-62q0 62 25 98t71 36q26 0 44.5-18t32-35.5T171 673q30 0 30 65h62q0-62-25-98t-71-36z"/><glyph glyph-name="Jcircumflex.smcp" unicode="" horiz-adv-x="371" d="M387 606h-70l-64 91-61-91h-70l77 144h108zM130-12Q54-12 5 34l41 97q30-33 72-33 34 0 53.5 19t19.5 54v379h125V158q0-86-49.5-128T130-12z"/><glyph glyph-name="Kcommaaccent.smcp" unicode="" horiz-adv-x="491" d="M316-138q0-44-22-83t-59-65l-42 34q21 13 39.5 36t22.5 44q-4-2-14-2-22 0-37 15.5T189-119q0 25 17.5 42.5T249-59q28 0 47.5-21.5T316-138zM489 0H343L213 207l-34-52V0H54v550h125V317l153 233h145L291 291z"/><glyph glyph-name="Lacute.smcp" unicode="" horiz-adv-x="396" d="M371 0H54v550h125V108h192V0zm2 750L239 606h-80l107 144h107z"/><glyph glyph-name="Lcaron.smcp" unicode="" horiz-adv-x="400" d="M355 480q0-44-22-83t-59-65l-42 34q21 13 39.5 36t22.5 44q-4-2-14-2-22 0-37 15.5T228 499q0 25 17.5 42.5T288 559q28 0 47.5-21.5T355 480zM371 0H54v550h125V108h192V0z"/><glyph glyph-name="Lcommaaccent.smcp" unicode="" horiz-adv-x="396" d="M279-138q0-44-22-83t-59-65l-42 34q21 13 39.5 36t22.5 44q-4-2-14-2-22 0-37 15.5T152-119q0 25 17.5 42.5T212-59q28 0 47.5-21.5T279-138zM371 0H54v550h125V108h192V0z"/><glyph glyph-name="Ldot.smcp" unicode="" horiz-adv-x="452" d="M371 0H54v550h125V108h192V0zm53 302q0-31-23-54t-54-23-54 23-23 54q0 32 23 55t54 23 54-23 23-55z"/><glyph glyph-name="Nacute.smcp" unicode="" horiz-adv-x="537" d="M428 750L294 606h-80l107 144h107zM483 0H360L179 315V0H54v550h131l174-302v302h124V0z"/><glyph glyph-name="Ncaron.smcp" unicode="" horiz-adv-x="537" d="M323 606H215l-80 144h70l64-91 61 91h70zM483 0H360L179 315V0H54v550h131l174-302v302h124V0z"/><glyph glyph-name="Ncommaaccent.smcp" unicode="" horiz-adv-x="537" d="M337-138q0-44-22-83t-59-65l-42 34q21 13 39.5 36t22.5 44q-4-2-14-2-22 0-37 15.5T210-119q0 25 17.5 42.5T270-59q28 0 47.5-21.5T337-138zM483 0H360L179 315V0H54v550h131l174-302v302h124V0z"/><glyph glyph-name="Obreve.smcp" unicode="" horiz-adv-x="544" d="M271-12Q159-12 94.5 68.5T30 275t64.5 206.5T271 562t177-80.5T513 275 448 68.5 271-12zm0 110q54 0 84.5 50T386 275q0 78-30 127.5T271 452q-54 0-84-49.5T157 275q0-77 30-127t84-50zm151 565q-57-75-150-75t-150 75l55 44q35-50 95-50 61 0 95 50z"/><glyph glyph-name="Ohungarumlaut.smcp" unicode="" horiz-adv-x="544" d="M271-12Q159-12 94.5 68.5T30 275t64.5 206.5T271 562t177-80.5T513 275 448 68.5 271-12zm0 110q54 0 84.5 50T386 275q0 78-30 127.5T271 452q-54 0-84-49.5T157 275q0-77 30-127t84-50zm53 652l-98-144h-66l70 144h94zm139 0l-98-144h-66l70 144h94z"/><glyph glyph-name="Omacron.smcp" unicode="" horiz-adv-x="544" d="M271-12Q159-12 94.5 68.5T30 275t64.5 206.5T271 562t177-80.5T513 275 448 68.5 271-12zm0 110q54 0 84.5 50T386 275q0 78-30 127.5T271 452q-54 0-84-49.5T157 275q0-77 30-127t84-50zm157 515H117v69h311v-69z"/><glyph glyph-name="Oslashacute.smcp" unicode="" horiz-adv-x="544" d="M271-12q-72 0-126 34L130 0H47l46 69q-63 80-63 206t64.5 206.5T271 562q72 0 127-36l16 24h82l-47-70q64-79 64-205T448 68.5 271-12zM157 275q0-52 13-91l163 245q-28 23-62 23-54 0-84-49.5T157 275zM271 98q54 0 84.5 50T386 275q0 48-13 90L210 120q25-22 61-22zm160 652L297 606h-80l107 144h107z"/><glyph glyph-name="Racute.smcp" unicode="" horiz-adv-x="488" d="M411 750L277 606h-80l107 144h107zM457 0H319l-83 192h-57V0H54v550h220q83 0 130-50.5T451 372q0-66-29-106.5T352 212zM259 301q31 0 48.5 19t17.5 51-17.5 51.5T259 442h-80V301h80z"/><glyph glyph-name="Rcaron.smcp" unicode="" horiz-adv-x="488" d="M294 606H186l-80 144h70l64-91 61 91h70zM457 0H319l-83 192h-57V0H54v550h220q83 0 130-50.5T451 372q0-66-29-106.5T352 212zM259 301q31 0 48.5 19t17.5 51-17.5 51.5T259 442h-80V301h80z"/><glyph glyph-name="Rcommaaccent.smcp" unicode="" horiz-adv-x="488" d="M307-138q0-44-22-83t-59-65l-42 34q21 13 39.5 36t22.5 44q-4-2-14-2-22 0-37 15.5T180-119q0 25 17.5 42.5T240-59q28 0 47.5-21.5T307-138zM457 0H319l-83 192h-57V0H54v550h220q83 0 130-50.5T451 372q0-66-29-106.5T352 212zM259 301q31 0 48.5 19t17.5 51-17.5 51.5T259 442h-80V301h80z"/><glyph glyph-name="Sacute.smcp" unicode="" horiz-adv-x="435" d="M379 750L245 606h-80l107 144h107zM213-12Q93-12 16 58l54 96q25-27 62.5-44T210 93q36 0 56 16t20 43q0 24-26 41.5T197 225t-73.5 32.5-62.5 55T35 401q0 68 52.5 114.5T226 562q108 0 179-63l-53-90q-50 47-123 47-29 0-47.5-14.5T163 403q0-22 26-38t62.5-30 73.5-32.5 63-56 26-90.5q0-76-53.5-122T213-12z"/><glyph glyph-name="Scedilla.smcp" unicode="" horiz-adv-x="435" d="M215-195q-58 0-98 32l23 48q36-28 72-28 20 0 33 9t13 25q0 26-26 26-18 0-29-13l-44 25 22 60Q81-2 16 58l54 96q25-27 62.5-44T210 93q36 0 56 16t20 43q0 24-26 41.5T197 225t-73.5 32.5-62.5 55T35 401q0 68 52.5 114.5T226 562q108 0 179-63l-53-90q-50 47-123 47-29 0-47.5-14.5T163 403q0-22 26-38t62.5-30 73.5-32.5 63-56 26-90.5q0-70-46-115T241-11l-17-41q13 10 32 10 27 0 45-19.5t18-49.5q0-38-29.5-61T215-195z"/><glyph glyph-name="Scircumflex.smcp" unicode="" horiz-adv-x="435" d="M355 606h-70l-64 91-61-91H90l77 144h108zM213-12Q93-12 16 58l54 96q25-27 62.5-44T210 93q36 0 56 16t20 43q0 24-26 41.5T197 225t-73.5 32.5-62.5 55T35 401q0 68 52.5 114.5T226 562q108 0 179-63l-53-90q-50 47-123 47-29 0-47.5-14.5T163 403q0-22 26-38t62.5-30 73.5-32.5 63-56 26-90.5q0-76-53.5-122T213-12z"/><glyph glyph-name="Scommaaccent.smcp" unicode="" horiz-adv-x="435" d="M287-138q0-44-22-83t-59-65l-42 34q21 13 39.5 36t22.5 44q-4-2-14-2-22 0-37 15.5T160-119q0 25 17.5 42.5T220-59q28 0 47.5-21.5T287-138zM213-12Q93-12 16 58l54 96q25-27 62.5-44T210 93q36 0 56 16t20 43q0 24-26 41.5T197 225t-73.5 32.5-62.5 55T35 401q0 68 52.5 114.5T226 562q108 0 179-63l-53-90q-50 47-123 47-29 0-47.5-14.5T163 403q0-22 26-38t62.5-30 73.5-32.5 63-56 26-90.5q0-76-53.5-122T213-12z"/><glyph glyph-name="Tbar.smcp" unicode="" horiz-adv-x="398" d="M262 0H137v211H60v69h77v162H18v108h363V442H262V280h70v-69h-70V0z"/><glyph glyph-name="Tcaron.smcp" unicode="" horiz-adv-x="398" d="M255 606H147L67 750h70l64-91 61 91h70zm7-606H137v442H18v108h363V442H262V0z"/><glyph glyph-name="Tcommaaccent.smcp" unicode="" horiz-adv-x="398" d="M266-138q0-44-22-83t-59-65l-42 34q21 13 39.5 36t22.5 44q-4-2-14-2-22 0-37 15.5T139-119q0 25 17.5 42.5T199-59q28 0 47.5-21.5T266-138zM262 0H137v442H18v108h363V442H262V0z"/><glyph glyph-name="Ubreve.smcp" unicode="" horiz-adv-x="539" d="M270-12q-104 0-160 57T54 207v343h126V199q0-48 23-74.5T270 98q43 0 66.5 26.5T360 199v351h125V208q0-106-56-163T270-12zm150 675q-57-75-150-75t-150 75l55 44q35-50 95-50 61 0 95 50z"/><glyph glyph-name="Uhungarumlaut.smcp" unicode="" horiz-adv-x="539" d="M270-12q-104 0-160 57T54 207v343h126V199q0-48 23-74.5T270 98q43 0 66.5 26.5T360 199v351h125V208q0-106-56-163T270-12zm50 762l-98-144h-66l70 144h94zm139 0l-98-144h-66l70 144h94z"/><glyph glyph-name="Umacron.smcp" unicode="" horiz-adv-x="539" d="M270-12q-104 0-160 57T54 207v343h126V199q0-48 23-74.5T270 98q43 0 66.5 26.5T360 199v351h125V208q0-106-56-163T270-12zm156 625H115v69h311v-69z"/><glyph glyph-name="Uogonek.smcp" unicode="" horiz-adv-x="539" d="M356-103l49-28q-26-55-85-55-40 0-65 21.5T230-100q0 49 33 88-101 2-155 59T54 207v343h126V199q0-48 23-74.5T270 98q43 0 66.5 26.5T360 199v351h125V208q0-82-34-135T353 0q-63-38-63-95 0-40 31-40 25 0 35 32z"/><glyph glyph-name="Uring.smcp" unicode="" horiz-adv-x="539" d="M270-12q-104 0-160 57T54 207v343h126V199q0-48 23-74.5T270 98q43 0 66.5 26.5T360 199v351h125V208q0-106-56-163T270-12zm1 586q-40 0-68.5 28.5T174 671t28.5 68.5T271 768t68-28.5 28-68.5-28-68.5-68-28.5zm0 54q18 0 30 12.5t12 30.5-12 30.5-30 12.5q-17 0-30-13t-13-30q0-18 13-30.5t30-12.5z"/><glyph glyph-name="Utilde.smcp" unicode="" horiz-adv-x="539" d="M270-12q-104 0-160 57T54 207v343h126V199q0-48 23-74.5T270 98q43 0 66.5 26.5T360 199v351h125V208q0-106-56-163T270-12zm50 616q-26 0-44.5 18T244 657.5 218 675q-31 0-31-65h-62q0 62 25 98t71 36q26 0 44.5-18t32-35.5T324 673q30 0 30 65h62q0-62-25-98t-71-36z"/><glyph glyph-name="Wcircumflex.smcp" unicode="" horiz-adv-x="669" d="M467 606h-70l-64 91-61-91h-70l77 144h108zM533 0H405l-71 339L263 0H135L2 550h133l71-355 80 355h98l79-357 71 357h133z"/><glyph glyph-name="Ycircumflex.smcp" unicode="" horiz-adv-x="472" d="M370 606h-70l-64 91-61-91h-70l77 144h108zM299 0H175v227L-4 550h136l105-209 103 209h137L299 227V0z"/><glyph glyph-name="Zacute.smcp" unicode="" horiz-adv-x="423" d="M371 750L237 606h-80l107 144h107zM393 0H30v93l199 348H30v109h357v-91L188 109h205V0z"/><glyph glyph-name="Zdotaccent.smcp" unicode="" horiz-adv-x="423" d="M393 0H30v93l199 348H30v109h357v-91L188 109h205V0zM214 595q-27 0-46 18.5T149 659t19.5 46 45.5 19 45-19 19-46-19-45.5-45-18.5z"/><glyph glyph-name="Idotaccent.smcp" unicode="" horiz-adv-x="233" d="M179 0H54v550h125V0zm-62 595q-27 0-46 18.5T52 659t19.5 46 45.5 19 45-19 19-46-19-45.5-45-18.5z"/><glyph glyph-name="parenleft.case" unicode="" horiz-adv-x="277" d="M258-60l-81-49Q114-17 79 98T44 333q0 247 133 442l81-48q-84-191-84-394t84-393z"/><glyph glyph-name="parenright.case" unicode="" horiz-adv-x="278" d="M100-109L19-60q84 186 84 393 0 206-84 394l81 48q134-194 134-442 0-120-35-235t-99-207z"/><glyph glyph-name="bracketleft.case" unicode="" horiz-adv-x="242" d="M225-100H41v868h184v-81h-97V-19h97v-81z"/><glyph glyph-name="bracketright.case" unicode="" horiz-adv-x="242" d="M201-100H17v81h97v706H17v81h184v-868z"/><glyph glyph-name="braceleft.case" unicode="" horiz-adv-x="254" d="M237-100h-45q-55 0-95.5 38.5T56 38v195q0 29-13.5 48T4 300v68q25 0 38.5 19T56 435v194q0 61 40.5 100t95.5 39h45v-81h-45q-21 0-35-16t-14-42V423q0-69-46-89 46-20 46-89V39q0-25 14.5-42T192-20h45v-80z"/><glyph glyph-name="braceright.case" unicode="" horiz-adv-x="254" d="M17-100v80h44q21 0 35.5 17T111 39v206q0 70 45 89-45 19-45 89v206q0 26-14.5 42T61 687H17v81h44q55 0 96-39t41-100V435q0-29 13.5-48t38.5-19v-68q-25 0-38.5-19T198 233V38q0-61-41-99.5T61-100H17z"/><glyph glyph-name="exclamdown.case" unicode="" horiz-adv-x="252" d="M53 0l20 454h106L199 0H53zm-4 601q0 31 23 54t54 23 54-23 23-54q0-32-23-55t-54-23-54 23-23 55z"/><glyph glyph-name="questiondown.case" unicode="" horiz-adv-x="391" d="M242 464q29-35 29-88 0-38-18.5-70t-41-50-41-42.5T152 164q0-24 17.5-41t48.5-17q51 0 89 46l66-85q-70-79-178-79-81 0-129.5 42.5T17 139q0 45 22 82.5t48 59 48 49.5 22 56q0 25-17 44zm-47 214q31 0 54.5-23t23.5-55q0-31-23.5-54T195 523t-54 23-23 54q0 32 23 55t54 23z"/><glyph glyph-name="guillemotleft.case" unicode="" horiz-adv-x="456" d="M426 162H323L198 342l125 177h103L301 342zm-169 0H155L30 342l125 177h102L132 342z"/><glyph glyph-name="guillemotright.case" unicode="" horiz-adv-x="456" d="M257 342L132 162H30l125 180L30 519h102zm169 0L301 162H198l125 180-125 177h103z"/><glyph glyph-name="guilsinglleft.case" unicode="" horiz-adv-x="287" d="M257 162H155L30 342l125 177h102L132 342z"/><glyph glyph-name="guilsinglright.case" unicode="" horiz-adv-x="287" d="M257 342L132 162H30l125 180L30 519h102z"/><glyph glyph-name="hyphen.case" unicode="" horiz-adv-x="270" d="M240 290H30v102h210V290z"/><glyph glyph-name="endash.case" unicode="" horiz-adv-x="527" d="M497 290H30v102h467V290z"/><glyph glyph-name="emdash.case" unicode="" horiz-adv-x="737" d="M707 290H30v102h677V290z"/><glyph glyph-name="periodcentered.case" unicode="" horiz-adv-x="252" d="M203 342q0-31-23-54t-54-23-54 23-23 54q0 32 23 55t54 23 54-23 23-55z"/><glyph glyph-name="bullet.case" unicode="" horiz-adv-x="358" d="M297 341q0-48-34-82t-83-34-83 34-34 82q0 49 34 83t83 34 83-34 34-83z"/></font>
</defs>
</svg>
