<?xml version="1.0" encoding="UTF-8"?>
<svg width="362px" height="74px" viewBox="0 0 362 74" version="1.1" xmlns="http://www.w3.org/2000/svg" xmlns:xlink="http://www.w3.org/1999/xlink">
    <!-- Generator: Sketch 49.3 (51167) - http://www.bohemiancoding.com/sketch -->
    <title>Artboard</title>
    <desc>Created with Sketch.</desc>
    <defs></defs>
    <g id="Artboard" stroke="none" stroke-width="1" fill="none" fill-rule="evenodd">
        <g id="elbert-logo" fill="#FFFFFF" fill-rule="nonzero">
            <path d="M21.9,13.4 C21,13.4 20.1,13.7 19.3,14.2 C18.4,14.9 17.5,15.5 16.6,16.1 L16.4,16.3 C11.6,19.7 7.7,22.3 3,27.6 C1.2,29.7 0.6,31.8 1.2,33.9 C1.6,35.3 2.4,36.2 2.8,36.6 C7.6,41.9 13.1,46.6 19,50.7 C19.7,51.2 20.6,51.5 21.5,51.5 C23,51.5 24.4,50.8 25.2,49.5 C25.9,48.5 26.1,47.3 25.9,46.1 C25.7,44.9 25,43.9 24,43.2 C19.4,40 15,36.3 11,32.2 C14.4,28.6 21.7,23.5 21.7,23.5 C22.6,22.9 23.5,22.3 24.5,21.6 C25.5,20.9 26.1,19.9 26.3,18.7 C26.5,17.5 26.2,16.3 25.5,15.3 C24.8,14.1 23.4,13.4 21.9,13.4 Z" id="Shape"></path>
            <path d="M72.5,53.8 C72.2,53.8 71.9,53.8 71.6,53.9 C64.3,55.3 56.2,57 48,57.9 C47.6,52.2 47.3,46.5 47.2,40.9 C48.2,40.8 49.1,40.7 50.1,40.6 L62.3,39 C64.8,38.7 66.5,36.4 66.2,33.9 C65.9,31.7 64,30 61.8,30 C61.6,30 61.4,30 61.2,30 L49,31.6 C48.4,31.7 47.8,31.8 47.2,31.8 C47.2,26.3 47.4,20.9 47.6,15.6 C48.9,15.4 50.1,15.2 51.2,14.9 L51.6,14.8 C57.4,13.5 63.4,12.9 69.4,12.9 C70.3,12.9 71.2,12.9 72.2,12.9 L72.3,12.9 C74.7,12.9 76.7,11 76.8,8.6 C76.8,7.4 76.4,6.3 75.6,5.4 C74.8,4.5 73.7,4 72.5,4 C71.5,4 70.4,3.9 69.4,3.9 C62.8,3.9 56.1,4.6 49.7,6 L49.3,6.1 C48.8,6.2 48.4,6.3 47.9,6.4 C47.4,4.6 45.8,3.3 43.9,3.2 C43.8,3.2 43.7,3.2 43.6,3.2 C41.2,3.2 39.3,5 39.1,7.4 C39,7.7 39,8.5 39,8.5 C38.8,8.9 38.6,9.2 38.5,9.6 C38.2,10.7 38.3,11.8 38.7,12.9 C37.8,29 38,45.3 39.2,61.3 C39.3,62.6 40,63.8 41,64.6 C41.7,66.2 43.3,67.3 45.1,67.3 C45.2,67.3 45.4,67.3 45.5,67.3 C55.2,66.4 64.4,64.6 73.4,62.8 C74.6,62.6 75.6,61.9 76.3,60.9 C77,59.9 77.2,58.7 77,57.5 C76.5,55.3 74.6,53.8 72.5,53.8 Z" id="Shape"></path>
            <path d="M116.4,53.5 C116.2,53.5 115.9,53.5 115.7,53.6 C107.2,54.9 98.4,56.3 89.8,56.3 C89.5,56.3 89.3,56.3 89,56.3 C88,39.9 89.4,23.3 90.8,7.1 C90.9,5.9 90.5,4.7 89.8,3.8 C89,2.9 87.9,2.3 86.7,2.2 C86.6,2.2 86.4,2.2 86.3,2.2 C84,2.2 82,4 81.8,6.3 C80.4,23.1 78.9,40.4 80.1,57.7 C79.5,58.4 79.2,59.2 79.1,60.1 C79,61.5 79.5,62.9 80.6,63.8 C80.6,63.8 80.7,64.3 80.7,64.6 C81,66.9 82.9,68.6 85.2,68.6 C85.4,68.6 85.5,68.6 85.7,68.6 C87.6,68.4 89.1,67 89.6,65.2 C89.7,65.2 89.8,65.2 89.9,65.2 C99.2,65.2 108.3,63.8 117.2,62.4 C119.7,62 121.3,59.7 120.9,57.3 C120.5,55.1 118.7,53.5 116.4,53.5 Z" id="Shape"></path>
            <path d="M161.6,31.4 C159.3,29.4 155.2,27.7 152.4,27 C152.4,27 152.4,27 152.3,27 C152.7,26.6 153.1,26.1 153.5,25.6 L153.7,25.4 C157.9,20.4 159.8,11.9 155.1,5.9 L154.7,5.4 C152.6,2.7 150.8,0.5 145.6,0.1 C145,0.1 144.3,0 143.7,0 C134.9,0 126.3,4 120.7,10.8 C119.9,11.7 119.6,12.9 119.7,14.1 C119.8,15.3 120.4,16.4 121.3,17.1 C122.1,17.8 123.1,18.1 124.2,18.1 C124.2,18.1 124.3,18.1 124.3,18.1 C121.9,33.1 122.4,47.6 122.9,62 C123,64.4 125,66.4 127.4,66.4 L127.6,66.4 C128.8,66.4 129.9,65.9 130.7,65 C131.5,64.1 131.9,63 131.9,61.8 C131.3,45.1 130.7,27.8 134.8,11.6 C134.8,11.5 134.9,11.3 134.9,11.1 C137.7,9.8 140.8,9.1 143.8,9.1 C144.2,9.1 144.7,9.1 145.1,9.1 C146.4,9.2 146.4,9.2 147.8,11 L148.2,11.5 C149.8,13.6 148.9,17.4 147,19.7 L146.8,19.9 C143.8,23.4 142.6,24.9 139.1,26.5 C137.1,27.4 136,29.6 136.6,31.7 C137.1,33.7 138.9,35.1 141,35.1 C141.1,35.1 141.2,35.1 141.3,35.1 C142.2,35 143.1,35 143.9,35 C146.2,35 148.2,35.3 150.5,35.8 C152.4,36.3 155,37.5 156,38.3 C156.9,39.1 158.4,41.8 159.1,43.7 C160.3,47.5 153.3,54.4 146.7,57.4 C145.6,57.9 144.8,58.8 144.4,59.9 C144,61 144,62.2 144.5,63.3 C145.2,64.9 146.8,65.9 148.6,65.9 C149.2,65.9 149.9,65.8 150.5,65.5 C155,63.4 159.7,60 163,56.4 C169,49.8 168.8,44.3 167.7,40.8 C167.3,40.8 165.2,34.6 161.6,31.4 Z" id="Shape"></path>
            <path d="M195.5,38.9 C198,38.6 199.7,36.3 199.4,33.8 C199.1,31.6 197.2,29.9 195,29.9 C194.8,29.9 194.6,29.9 194.4,29.9 L182.2,31.5 C181.6,31.6 181,31.7 180.4,31.7 C180.4,26.2 180.6,20.8 180.8,15.5 C182.1,15.3 183.3,15.1 184.4,14.8 L184.8,14.7 C190.6,13.4 196.6,12.8 202.6,12.8 C203.5,12.8 204.4,12.8 205.4,12.8 L205.5,12.8 C207.9,12.8 209.9,10.9 210,8.5 C210,7.3 209.6,6.2 208.8,5.3 C208,4.4 206.9,3.9 205.7,3.9 C204.7,3.9 203.6,3.8 202.6,3.8 C196,3.8 189.3,4.5 182.9,5.9 L182.5,6 C182,6.1 181.6,6.2 181.1,6.3 C180.6,4.5 179,3.2 177.1,3.1 C177,3.1 176.9,3.1 176.8,3.1 C174.4,3.1 172.5,4.9 172.3,7.3 L172.2,8.4 C172,8.8 171.8,9.1 171.7,9.5 C171.4,10.6 171.5,11.7 171.9,12.8 C171,28.9 171.2,45.2 172.4,61.2 C172.6,63.5 174.6,65.3 176.9,65.3 C177,65.3 177.1,65.3 177.3,65.3 C179.8,65.1 181.6,62.9 181.4,60.5 C180.9,54.1 180.6,47.4 180.4,40.8 C181.4,40.7 182.3,40.6 183.3,40.5 L195.5,38.9 Z" id="Shape"></path>
            <path d="M207.7,53.1 C207.4,53.1 207.2,53.1 206.9,53.2 L206.5,53.3 C201.2,54.3 195.7,55.3 190.4,55.3 L189.8,55.3 C187.3,55.3 185.3,57.3 185.3,59.8 C185.3,62.3 187.3,64.3 189.8,64.3 L190.3,64.3 C196.7,64.3 202.7,63.2 208.6,62.1 C211,61.6 212.7,59.3 212.2,56.9 C211.7,54.7 209.8,53.1 207.7,53.1 Z" id="Shape"></path>
            <path d="M253.5,42.2 C251.8,38.9 250,35.4 248.1,32.1 C247.8,31.6 247.4,30.9 246.7,30.2 L251.5,25.2 C253.2,23.4 255.4,21.2 256.5,18.1 C258,13.9 256.9,9.2 253.7,6.7 C252.1,5.5 250.2,4.8 248.1,4.8 C245.2,4.8 242.2,6 239.3,8.2 C233.3,12.8 228.8,19 225.1,24.5 C225.2,18.8 225.6,13.1 226.2,7.6 C226.3,6.4 226,5.2 225.2,4.3 C224.4,3.4 223.4,2.8 222.2,2.7 C222.1,2.7 221.9,2.7 221.8,2.7 C219.5,2.7 217.5,4.4 217.3,6.7 C215.5,24.3 215.7,42.1 217.9,59.7 C218.2,61.9 220.1,63.6 222.4,63.6 C222.6,63.6 222.8,63.6 223,63.6 C225.5,63.3 227.2,61 226.9,58.6 C226.3,54 225.9,49.1 225.6,44.1 C226.1,43.4 226.4,42.6 226.4,41.8 C226.6,38.8 228.7,35.6 230.6,32.8 C234.8,26.4 239.1,20 244.9,15.5 C246.2,14.5 247.6,14.1 248.2,14.1 C248.2,14.1 248.2,14.1 248.2,14.1 C248.3,14.1 248.3,14.7 248.1,15.2 C247.6,16.5 246.3,17.8 245.1,19.1 L231.9,32.9 C230.2,34.6 230.2,37.4 231.9,39.1 C232.8,40 233.9,40.5 235.1,40.5 C236.2,40.5 237.2,40.1 238.1,39.4 C238.9,38.7 239.8,38.1 240.8,37.5 C242.5,40.4 244.1,43.5 245.6,46.4 C250.2,55.3 255,64.4 262.5,71.8 C263.3,72.6 264.5,73.1 265.7,73.1 C266.9,73.1 268.1,72.6 268.9,71.8 C269.7,70.9 270.2,69.8 270.2,68.6 C270.2,67.4 269.7,66.3 268.9,65.4 C262.2,59 258,50.9 253.5,42.2 Z" id="Shape"></path>
            <path d="M305.5,1.8 C305.4,1.8 305.4,1.8 305.3,1.8 C298.6,2.1 291.8,2.9 285.1,4.1 C284.9,4.1 284.8,4.2 284.7,4.2 C281.5,4.8 278.4,5.5 275.5,6.2 L274,6.5 C270.8,7.3 267.8,8.1 264.9,8.1 C264.6,8.1 264.2,8.1 263.8,8.1 C263.7,8.1 263.6,8.1 263.5,8.1 C261.1,8.1 259.1,9.9 259,12.3 C258.8,14.8 260.7,16.9 263.2,17.1 C263.8,17.1 264.3,17.2 264.9,17.2 C268.9,17.2 272.6,16.3 276.2,15.4 L277.5,15.1 C278.5,14.8 279.6,14.6 280.9,14.3 C280.5,30.6 280.9,47 282,63.1 C282.2,65.4 284.1,67.3 286.5,67.3 C286.6,67.3 286.7,67.3 286.8,67.3 C289.3,67.1 291.1,65 291,62.5 C289.8,46.1 289.5,29.3 289.9,12.7 C295.2,11.9 300.5,11.3 305.7,11.1 C308.2,11 310.1,8.9 310,6.4 C309.8,3.7 307.9,1.8 305.5,1.8 Z" id="Shape"></path>
            <path d="M330.9,15.3 C330.3,15 329.5,14.8 328.8,14.8 C327.1,14.8 325.6,15.7 324.8,17.2 L312,41.7 C310.9,43.9 311.7,46.6 313.9,47.8 C314.5,48.1 315.3,48.3 316,48.3 C317.7,48.3 319.2,47.4 320,45.9 L332.9,21.3 C333.9,19.2 333.1,16.4 330.9,15.3 Z" id="Shape"></path>
            <path d="M359.9,27.6 C355.2,22.3 351.4,19.6 346.5,16.3 C345.6,15.7 344.6,15 343.6,14.3 C342.8,13.8 341.9,13.5 341,13.5 C339.5,13.5 338.2,14.2 337.3,15.4 C336.6,16.4 336.3,17.6 336.5,18.8 C336.7,20 337.4,21 338.3,21.7 C339.3,22.4 340.3,23.1 341.3,23.8 C345.5,26.7 348.4,28.7 351.9,32.4 C348,36.5 343.6,40.2 338.8,43.4 C337.8,44.1 337.1,45.1 336.9,46.3 C336.7,47.5 336.9,48.7 337.6,49.7 C338.4,50.9 339.8,51.7 341.3,51.7 C342.2,51.7 343.1,51.4 343.8,50.9 C349.8,46.9 355.2,42.2 360,36.8 C360.4,36.4 361.2,35.5 361.6,34.1 C362.3,31.8 361.7,29.6 359.9,27.6 Z" id="Shape"></path>
        </g>
    </g>
</svg>