<svg xmlns="http://www.w3.org/2000/svg" viewBox="0 0 176.7 176.7"><style type="text/css">  
	.st0{opacity:0.3;}
	.st1{fill:#FFFFFF;}
</style><circle class="st0" cx="88.4" cy="88.4" r="88.4"/><path class="st1" d="M121.8 101.8c-5.4 0-10.4-2.3-15-6l1.1-5.3 0-0.2c1-5.6 4.1-14.9 13.9-14.9 7.3 0 13.2 5.9 13.2 13.2C135 95.9 129.1 101.8 121.8 101.8zM121.8 62.1c-12.4 0-22 8.1-25.9 21.3 -6-9-10.5-19.7-13.1-28.8H69.4v34.7c0 6.9-5.6 12.4-12.4 12.4 -6.9 0-12.4-5.6-12.4-12.4V54.6H31.2v34.7c0 14.2 11.6 25.9 25.8 25.9s25.8-11.7 25.8-25.9v-5.8c2.6 5.4 5.8 10.9 9.6 15.7l-8.2 38.4h13.7l5.9-27.9c5.2 3.3 11.1 5.4 18 5.4 14.6 0 26.6-12 26.6-26.6C148.4 74 136.4 62.1 121.8 62.1"/></svg>